<svg xmlns="http://www.w3.org/2000/svg" xmlns:xlink="http://www.w3.org/1999/xlink" width="400" height="173.561" viewBox="0 0 400 173.561">
  <defs>
    <clipPath id="clip-path">
      <rect id="Rect치ngulo_339176" data-name="Rect치ngulo 339176" width="288.036" height="173.56" fill="none"/>
    </clipPath>
  </defs>
  <g id="Grupo_984584" data-name="Grupo 984584" transform="translate(-180 -4183.29)">
    <rect id="Rect치ngulo_338995" data-name="Rect치ngulo 338995" width="400" height="93" rx="17" transform="translate(180 4232)" fill="#fed947"/>
    <g id="Grupo_983878" data-name="Grupo 983878" transform="translate(239.675 4183.29)">
      <g id="Grupo_983877" data-name="Grupo 983877" clip-path="url(#clip-path)">
        <path id="Trazado_210548" data-name="Trazado 210548" d="M270.608,56.511H128.8l-4.132,34.947-5.768,54.47a2.2,2.2,0,0,0,2.182,2.453h3.771s-1.225,17.94.4,17.94c2.2,0,10.437-17.94,10.437-17.94H260.362a2.2,2.2,0,0,0,2.182-1.941l10.246-87.475a2.2,2.2,0,0,0-2.182-2.453" transform="translate(15.231 7.24)" fill="#ccb16c"/>
        <path id="Trazado_210549" data-name="Trazado 210549" d="M141.478,102.717H2.2a2.2,2.2,0,0,1-2.183-2.453L10.261,12.789a2.2,2.2,0,0,1,2.182-1.941h139.28a2.2,2.2,0,0,1,2.182,2.453L143.66,100.776a2.2,2.2,0,0,1-2.182,1.941" transform="translate(0 1.39)" fill="#8498d9"/>
        <path id="Trazado_210550" data-name="Trazado 210550" d="M131.291,18.3a3.384,3.384,0,1,1-3.384-3.384,3.384,3.384,0,0,1,3.384,3.384" transform="translate(15.953 1.911)" fill="#fff"/>
        <path id="Trazado_210551" data-name="Trazado 210551" d="M121.291,18.3a3.384,3.384,0,1,1-3.384-3.384,3.384,3.384,0,0,1,3.384,3.384" transform="translate(14.672 1.911)" fill="#fff"/>
        <path id="Trazado_210552" data-name="Trazado 210552" d="M82.223,31.849c3.717-2.093,6.3-6.648,6.3-11.946,0-7.277-5.926-13.238-14.121-16.182-5.645-2.027-7.6,8.9-7.6,16.182a15.071,15.071,0,0,0,2.035,7.66,12.115,12.115,0,0,0-6.761,3.731C56.33,37.973,57.038,55.618,71,57.235c3.863.448,7.843-1.066,11.034-3.287s5.489-5.977,5.222-9.856c-.205-2.977-1.821-5.638-3.188-8.292q-1-1.938-1.843-3.951" transform="translate(7.519 0.445)" fill="#2b244a"/>
        <path id="Trazado_210553" data-name="Trazado 210553" d="M75.347,44.756a6.442,6.442,0,1,1,6.443-6.442,6.449,6.449,0,0,1-6.443,6.442m0-11.756a5.314,5.314,0,1,0,5.315,5.315A5.32,5.32,0,0,0,75.347,33" transform="translate(8.828 4.083)" fill="#ffc37a"/>
        <path id="Trazado_210554" data-name="Trazado 210554" d="M50.066,18.926c.278,3.5-.125,8.383-7.144,12.645s-11.613,5.26-16.358,11.864c-4.67,6.5-5.216,14.743-3.336,24.517,1.813,9.422,19.811,9,34.312,4.206s8.7-13.012,8.7-22.037,3.537-16.666-.864-25.254-15.305-5.942-15.305-5.942" transform="translate(2.846 2.375)" fill="#2b244a"/>
        <path id="Trazado_210555" data-name="Trazado 210555" d="M110.684,98.169H2.666C4.391,89.911,6.128,82.07,7,79.16A73.172,73.172,0,0,1,11.255,67.5a36.053,36.053,0,0,1,5.655-8.483c7.839-8.664,17.766-11.405,27.411-12.274a139.244,139.244,0,0,1,23.316.237c7.933.62,15.571,1.9,22.2,4.58,6.63,2.719,11.992,6.96,15.313,12.973,3.437,6.272,5.829,29.215,5.532,33.64" transform="translate(0.342 5.937)" fill="#ffc37a"/>
        <path id="Trazado_210556" data-name="Trazado 210556" d="M41.507,44.944q-.256,3.438-.234,6.889a46.92,46.92,0,0,0,.352,6.517,7.807,7.807,0,0,0,2.851,4.958,60.294,60.294,0,0,0,5.046,3.814,71.9,71.9,0,0,0,6.343,3.886c.637.347,1.207-.626.569-.975a71.849,71.849,0,0,1-6.665-4.109q-1.655-1.152-3.242-2.4a13.274,13.274,0,0,1-2.786-2.614,7.2,7.2,0,0,1-1.1-3.554c-.123-1.331-.174-2.674-.209-4.009a83.6,83.6,0,0,1,.208-8.407c.054-.724-1.074-.721-1.128,0" transform="translate(5.287 5.689)" fill="#2b244a"/>
        <path id="Trazado_210557" data-name="Trazado 210557" d="M69.329,46.691q1.921,3.246,3.592,6.63c.551,1.119,1.1,2.246,1.585,3.393a5.973,5.973,0,0,1,.623,3.726,6.439,6.439,0,0,1-1.76,2.72c-.818.861-1.668,1.693-2.519,2.52q-2.7,2.623-5.53,5.113c-.546.483.255,1.278.8.8,2.079-1.839,4.121-3.724,6.1-5.671,1.536-1.511,3.6-3.17,4.048-5.4.5-2.443-1-4.928-2.016-7.046q-1.814-3.763-3.947-7.356a.564.564,0,0,0-.974.57" transform="translate(8.345 5.874)" fill="#2b244a"/>
        <path id="Trazado_210558" data-name="Trazado 210558" d="M63.9,98.311H62.538C60.316,89.421,51.629,55.4,46.9,46.5a12.175,12.175,0,0,0-.778-1.263l20.408,2.346a.087.087,0,0,0,.011.034c.282,1.027,6.825,25.586-2.64,50.7" transform="translate(5.909 5.795)" fill="#e0785e"/>
        <path id="Trazado_210559" data-name="Trazado 210559" d="M52.188,25.555,45.744,49.32s9.721,7.038,20.839.782L68.2,39.5Z" transform="translate(5.86 3.274)" fill="#e0785e"/>
        <path id="Trazado_210560" data-name="Trazado 210560" d="M48.623,10.717C51.885-.663,61.136-1.87,71.333,2.52S83.438,11.9,83.371,21.4a198.944,198.944,0,0,1-1.7,23.546c-.492,2.983-5.057,8.644-12.745,4.72A41.486,41.486,0,0,1,53.071,35.758C50.8,32.372,45.362,22.1,48.623,10.717" transform="translate(6.099 0.021)" fill="#e0785e"/>
        <path id="Trazado_210561" data-name="Trazado 210561" d="M72.966,22.511c-.66,1.738-2.2.341-4.325.777-1.949.4-3.252.148-3.229-.878.028-1.24,1.928-2.588,4.7-2.432,2.592.147,3.339,1.265,2.858,2.533" transform="translate(8.38 2.558)" fill="#2b244a"/>
        <path id="Trazado_210562" data-name="Trazado 210562" d="M79.6,24.427c-1.886-.713-3.57.184-3.834-1.592-.2-1.337.766-2.278,3.332-1.866.2.033.4.077.588.12a2.34,2.34,0,0,1-.086,3.338" transform="translate(9.704 2.674)" fill="#2b244a"/>
        <path id="Trazado_210563" data-name="Trazado 210563" d="M71,24.706a1.356,1.356,0,0,0-1.016-.805,1.283,1.283,0,0,0-1.216.751,4.464,4.464,0,0,0-.42,1.526,2.828,2.828,0,0,0,.268,1.814,1.187,1.187,0,0,0,2.068-.16A3.923,3.923,0,0,0,71,24.706" transform="translate(8.752 3.061)" fill="#2b244a"/>
        <path id="Trazado_210564" data-name="Trazado 210564" d="M79.241,25.59a1.356,1.356,0,0,0-1.016-.805,1.283,1.283,0,0,0-1.216.751,4.458,4.458,0,0,0-.42,1.526,2.823,2.823,0,0,0,.268,1.813,1.186,1.186,0,0,0,2.067-.159,3.919,3.919,0,0,0,.317-3.126" transform="translate(9.808 3.174)" fill="#2b244a"/>
        <path id="Trazado_210565" data-name="Trazado 210565" d="M73.1,33.383a4.434,4.434,0,0,0,2.238-.432,2.242,2.242,0,0,0,1.034-2.2,28.367,28.367,0,0,0-.525-2.986l-.6-3.184c-.134-.712-1.222-.411-1.088.3q.492,2.6.983,5.2c.113.6.3,1.424-.283,1.842a3.044,3.044,0,0,1-1.758.333.564.564,0,0,0,0,1.128" transform="translate(9.296 3.097)" fill="#2b244a"/>
        <path id="Trazado_210566" data-name="Trazado 210566" d="M79.418,5.493A27.078,27.078,0,0,0,66.2.165c-4.25-.406-8.386-.288-12.9,3.1-3.356,2.518-7.238,10.16-4.794,18.04.711,2.291.8,13.059.8,13.059L34.383,53.609c27,8.618,24.256-7.068,26.849-20.084,1.955-9.819,8.679-8.38,12.916-12.212C78.919,17,78.542,9.573,78.542,9.573l5.805,4.111c-.415-2.968-1.412-5.46-4.929-8.191" transform="translate(4.405 0)" fill="#2b244a"/>
        <path id="Trazado_210567" data-name="Trazado 210567" d="M67.492,26.319a6.417,6.417,0,1,1-7.939-4.4,6.417,6.417,0,0,1,7.939,4.4" transform="translate(7.034 2.776)" fill="#e0785e"/>
        <path id="Trazado_210568" data-name="Trazado 210568" d="M55.193,43.486a6.442,6.442,0,1,1,6.442-6.442,6.449,6.449,0,0,1-6.442,6.442m0-11.756a5.314,5.314,0,1,0,5.313,5.315,5.32,5.32,0,0,0-5.313-5.315" transform="translate(6.246 3.921)" fill="#ffc37a"/>
        <path id="Trazado_210569" data-name="Trazado 210569" d="M60.7,40.367a17.8,17.8,0,0,0,1.82,1.981c.684.629,1.424,1.2,2.161,1.761a.568.568,0,0,0,.772-.2.579.579,0,0,0-.2-.772c-.643-.493-1.346-1.041-1.972-1.621A17.715,17.715,0,0,1,61.5,39.57a.568.568,0,0,0-.8,0,.578.578,0,0,0,0,.8" transform="translate(7.756 5.048)" fill="#2b244a"/>
        <path id="Trazado_210570" data-name="Trazado 210570" d="M59.4,30.036a2.848,2.848,0,0,1,.424-4.286,3.009,3.009,0,0,1,1.784-.505.564.564,0,0,0,0-1.128A3.975,3.975,0,0,0,57.6,29.01a3.942,3.942,0,0,0,1.006,1.824c.5.527,1.3-.272.8-.8" transform="translate(7.366 3.09)" fill="#2b244a"/>
        <path id="Trazado_210571" data-name="Trazado 210571" d="M72.949,37.009a4.629,4.629,0,0,1-3.195-2.322.5.5,0,0,1,.5-.766,48.042,48.042,0,0,0,5.462.582.491.491,0,0,1,.408.74,3.474,3.474,0,0,1-3.171,1.766" transform="translate(8.926 4.345)" fill="#fff"/>
        <path id="Trazado_210572" data-name="Trazado 210572" d="M31.54,82.617c-.541,3.627-1.025,7.264-1.38,10.915-.07.722,1.059.717,1.128,0,.345-3.55.813-7.087,1.339-10.614.106-.711-.98-1.016-1.088-.3" transform="translate(3.864 10.532)" fill="#2b244a"/>
        <path id="Trazado_210573" data-name="Trazado 210573" d="M79.285,84.51q-.425,4.242-.848,8.485c-.072.722,1.057.717,1.128,0q.425-4.242.848-8.485c.072-.722-1.057-.716-1.128,0" transform="translate(10.048 10.758)" fill="#2b244a"/>
        <path id="Trazado_210574" data-name="Trazado 210574" d="M250.175,63.965a3.384,3.384,0,1,1-3.384-3.384,3.384,3.384,0,0,1,3.384,3.384" transform="translate(31.184 7.761)" fill="#fff"/>
        <path id="Trazado_210575" data-name="Trazado 210575" d="M240.175,63.965a3.384,3.384,0,1,1-3.384-3.384,3.384,3.384,0,0,1,3.384,3.384" transform="translate(29.903 7.761)" fill="#fff"/>
        <path id="Trazado_210576" data-name="Trazado 210576" d="M261.228,120.759l-2.651,22.63a2.173,2.173,0,0,1-2.042,1.929H149.827c.237-1.286,1.782-17.79,2.279-19.167,3.283-9.239,2.685-19,6.9-25.631,4.072-6.363,6.69-8.235,14.056-11.371,7.288-3.1,16.279-5.155,24.728-6.487a158.537,158.537,0,0,1,24.694-2.324c10.119,0,20.374,1.884,27.864,9.916a28.443,28.443,0,0,1,5.2,8.043,59.841,59.841,0,0,1,3.418,11.383c.248,1.117,1.23,5.742,2.256,11.078" transform="translate(19.195 10.293)" fill="#ffeae0"/>
        <path id="Trazado_210577" data-name="Trazado 210577" d="M199.256,63.912l3.589,19.564s-6.233,10.768-18.567,3.068l-2.565-11.928Z" transform="translate(23.28 8.188)" fill="#ffa58f"/>
        <path id="Trazado_210578" data-name="Trazado 210578" d="M180.8,55.271a6.259,6.259,0,1,1-6.26-6.26,6.26,6.26,0,0,1,6.26,6.26" transform="translate(21.559 6.279)" fill="#2b244a"/>
        <path id="Trazado_210579" data-name="Trazado 210579" d="M203.544,53.568c-1.868-10.739-10.22-12.751-19.986-9.735s-12,7.4-12.875,16.106a183.141,183.141,0,0,0-.76,21.722c.158,2.779,3.781,8.41,11.206,5.574a38.217,38.217,0,0,0,15.884-11.178c2.41-2.879,8.4-11.75,6.532-22.489" transform="translate(21.76 5.453)" fill="#ffa58f"/>
        <path id="Trazado_210580" data-name="Trazado 210580" d="M183.329,81.861a18.549,18.549,0,0,0,6.506-5.688.569.569,0,0,0-.2-.772.575.575,0,0,0-.772.2,17.323,17.323,0,0,1-6.1,5.283c-.644.336-.073,1.311.57.975" transform="translate(23.378 9.65)" fill="#2b244a"/>
        <path id="Trazado_210581" data-name="Trazado 210581" d="M187.058,77.5,187,77.464a2.65,2.65,0,0,0-1.214-.232c-1.843,0-3.41.87-5.121,1.4a5.366,5.366,0,0,1-1.834.349c-.7-.035-1.025-.547-1.37-1.11a2.186,2.186,0,0,0-3.653-.426,9.055,9.055,0,0,1-.564.771c-.629.644-1.375-.032-2.015-.311-.382-.167-1.426-.634-1.477.126a6.629,6.629,0,0,0,6.676,6.94,15.241,15.241,0,0,0,6.324-1.658,11.62,11.62,0,0,0,4.436-3.159c.576-.8.853-2.1-.132-2.659" transform="translate(21.746 9.818)" fill="#2b244a"/>
        <path id="Trazado_210582" data-name="Trazado 210582" d="M174.946,58.545c-.613,1.6-2.025.311-3.978.716-.146.032-.281.052-.416.073-.8-.4-.765-2.466.343-3.054a6.319,6.319,0,0,1,1.424-.073c2.378.135,3.074,1.164,2.627,2.337" transform="translate(21.78 7.199)" fill="#2b244a"/>
        <path id="Trazado_210583" data-name="Trazado 210583" d="M177.271,58.542c.607,1.6,2.028.314,3.981.715,1.795.37,2.994.136,2.973-.808-.026-1.142-1.776-2.384-4.324-2.239-2.386.134-3.074,1.164-2.63,2.332" transform="translate(22.695 7.2)" fill="#2b244a"/>
        <path id="Trazado_210584" data-name="Trazado 210584" d="M181.166,61.353a1.245,1.245,0,0,0-.99-.667,1.178,1.178,0,0,0-1.063.776,4.072,4.072,0,0,0-.276,1.43,2.6,2.6,0,0,0,.373,1.645,1.093,1.093,0,0,0,1.887-.292,3.612,3.612,0,0,0,.069-2.892" transform="translate(22.911 7.775)" fill="#2b244a"/>
        <path id="Trazado_210585" data-name="Trazado 210585" d="M173.162,61.353a1.245,1.245,0,0,0-.99-.667,1.178,1.178,0,0,0-1.063.776,4.071,4.071,0,0,0-.276,1.43,2.6,2.6,0,0,0,.373,1.645,1.093,1.093,0,0,0,1.887-.292,3.612,3.612,0,0,0,.069-2.892" transform="translate(21.885 7.775)" fill="#2b244a"/>
        <path id="Trazado_210586" data-name="Trazado 210586" d="M201.98,68.83c1.05-1.813,4.038-7.671,4.43-9.729a6.348,6.348,0,0,0-1.541-5.817,6.9,6.9,0,0,1-1.023-.988c-.9-1.279-.047-3.037-.221-4.589a4.229,4.229,0,0,0-3.2-3.4,5.945,5.945,0,0,0-2.527-.069,14.637,14.637,0,0,0-7.09-4.421,5.239,5.239,0,0,0-2.687-.14,2.34,2.34,0,0,0-1.775,1.848,22.812,22.812,0,0,0-11.87,1.4,10.418,10.418,0,0,0-3.367,2.243,7.463,7.463,0,0,0-1,1.278,5.416,5.416,0,0,0-.279,5.549,6.218,6.218,0,0,0,4.838,2.756c1.649.15,6.242-.678,11.739-3.278,2.115-.625,3.469,1.744,3.673,3.617.271,2.441-.716,4.8-.758,7.229-.03,1.964.6,4.041,2.629,4.727a4.57,4.57,0,0,0,2.388.114c.177,2.483.893,4.913,3.189,6.263a12.307,12.307,0,0,0,4.79,1.552l-.909-4.956c.2-.437.572-1.188.572-1.188" transform="translate(21.675 5.068)" fill="#2b244a"/>
        <path id="Trazado_210587" data-name="Trazado 210587" d="M195.567,64.2a5.242,5.242,0,1,1-6.05-4.285,5.242,5.242,0,0,1,6.05,4.285" transform="translate(23.721 7.666)" fill="#ffa58f"/>
        <path id="Trazado_210588" data-name="Trazado 210588" d="M172.643,72.538a.5.5,0,0,1,.417-.756,48.941,48.941,0,0,0,5.575-.593.506.506,0,0,1,.505.782,4.723,4.723,0,0,1-3.26,2.369,3.546,3.546,0,0,1-3.238-1.8" transform="translate(22.109 9.119)" fill="#2b244a"/>
        <path id="Trazado_210589" data-name="Trazado 210589" d="M174.417,62.863q-.462,1.332-.925,2.665a13.7,13.7,0,0,0-.831,2.644,1.8,1.8,0,0,0,.981,1.965,3.818,3.818,0,0,0,1.195.2l1.43.109c.724.055.721-1.073,0-1.128l-1.171-.089a4.24,4.24,0,0,1-.941-.1c-.624-.2-.354-1.04-.206-1.48.5-1.5,1.038-2.99,1.556-4.483.239-.687-.851-.983-1.088-.3" transform="translate(22.118 8.004)" fill="#2b244a"/>
        <path id="Trazado_210590" data-name="Trazado 210590" d="M189.42,62.612a2.124,2.124,0,0,1,2.209.792,2.754,2.754,0,0,1,.191,2.751.58.58,0,0,0,.2.772.569.569,0,0,0,.772-.2,3.906,3.906,0,0,0-.227-3.941,3.256,3.256,0,0,0-3.446-1.26.564.564,0,0,0,.3,1.088" transform="translate(24.178 7.868)" fill="#2b244a"/>
        <path id="Trazado_210591" data-name="Trazado 210591" d="M176.975,87.577c3.8,3.409,9.264,5,14.29,5.141a21.774,21.774,0,0,0,13.856-4.727,35.435,35.435,0,0,0,6.118-6.6c.44-.578-.539-1.141-.974-.569a36.781,36.781,0,0,1-5.17,5.731,20.906,20.906,0,0,1-5.708,3.468,19.42,19.42,0,0,1-7.09,1.569,24.2,24.2,0,0,1-7.566-1.1,18.521,18.521,0,0,1-6.957-3.714c-.539-.484-1.339.311-.8.8" transform="translate(22.65 10.324)" fill="#2b244a"/>
        <path id="Trazado_210592" data-name="Trazado 210592" d="M148.549,105.868s-3.435-9.273-7.76-18.453c-3.978-8.443-10.108-22.566-13.866-20.725-1.262.618-2.19,2.31-1.273,4.952,1.526,4.4,4.114,12.911,4.114,12.911s-7.186-2.37-7.2,5.2c0,0-4.79-.323-3.441,6.731,0,.025.012.046.017.07a40.563,40.563,0,0,0,3.583,9.437c.812,1.634,6.241,12.877,6.241,12.877Z" transform="translate(15.231 8.523)" fill="#ffa58f"/>
        <path id="Trazado_210593" data-name="Trazado 210593" d="M147.688,101.4l4.146,10.457-23.073,13.121-3.16-8.827Z" transform="translate(16.091 12.991)" fill="#ffeae0"/>
        <path id="Trazado_210594" data-name="Trazado 210594" d="M137.646,85.885a37.635,37.635,0,0,0-5.613.257c-.9.109-1.8.241-2.693.421a3.782,3.782,0,0,0-1.832.794c-1.075.979-.629,2.427.323,3.293a14.01,14.01,0,0,0,4.286,2.149q2.96,1.2,5.964,2.291c.684.248.979-.842.3-1.088q-2.811-1.019-5.583-2.137c-.953-.386-1.92-.759-2.854-1.189a4.056,4.056,0,0,1-1.75-1.311c-1.08-1.667,2.4-1.9,3.266-2.02a36.951,36.951,0,0,1,6.187-.333.564.564,0,0,0,0-1.128" transform="translate(16.256 11.001)" fill="#2b244a"/>
        <path id="Trazado_210595" data-name="Trazado 210595" d="M134.42,93.5c.074.962.2,2.731-.919,3.186-1.419.58-3.017-1.588-3.855-2.455-2.264-2.344-4.443-4.771-6.746-7.078a.564.564,0,0,0-.8.8c2.721,2.726,5.241,5.648,7.992,8.344,1.113,1.091,2.844,2.279,4.343,1.136,1.166-.889,1.215-2.6,1.111-3.93-.056-.719-1.185-.725-1.128,0" transform="translate(15.622 11.144)" fill="#2b244a"/>
        <path id="Trazado_210596" data-name="Trazado 210596" d="M127.885,83.344q1.443,1.958,2.89,3.916a.581.581,0,0,0,.772.2.566.566,0,0,0,.2-.772l-2.892-3.916a.58.58,0,0,0-.772-.2.568.568,0,0,0-.2.772" transform="translate(16.373 10.569)" fill="#2b244a"/>
        <path id="Trazado_210597" data-name="Trazado 210597" d="M129.726,94.785a4.736,4.736,0,0,1-1.152,2.82c-.958.891-2.345.276-3.242-.384a26.2,26.2,0,0,1-2.229-2.034q-1.5-1.4-3.018-2.77c-.538-.485-1.339.31-.8.8q1.738,1.567,3.443,3.167a11.888,11.888,0,0,0,3.055,2.411,3.156,3.156,0,0,0,3.725-.53,6.325,6.325,0,0,0,1.345-3.478c.1-.717-1.033-.711-1.128,0" transform="translate(15.259 11.821)" fill="#2b244a"/>
        <path id="Trazado_210598" data-name="Trazado 210598" d="M252.187,109.681A59.841,59.841,0,0,0,248.769,98.3a28.443,28.443,0,0,0-5.2-8.043c-7.491-8.032-17.745-9.916-27.864-9.916a122.023,122.023,0,0,0-12.917.733,218.843,218.843,0,0,1,4.614,23.679,219.609,219.609,0,0,1,2.008,33.776c-.045,2.335-.158,6.791-.158,6.791h40.5a2.173,2.173,0,0,0,2.042-1.929l2.651-22.63c-1.027-5.336-2.008-9.961-2.256-11.078" transform="translate(25.98 10.293)" fill="#2b244a"/>
        <path id="Trazado_210599" data-name="Trazado 210599" d="M194.311,126.049a208.621,208.621,0,0,1-6.182-27.864q-1.049-6.853-1.591-13.752c-.587.135-1.162.282-1.737.429s-1.151.293-1.715.451-1.139.316-1.7.485-1.094.327-1.647.508H179.7c-.53.169-1.049.338-1.568.519-1.106.372-2.177.767-3.226,1.185-.519.2-1.027.406-1.523.62-7.367,3.136-9.984,5.009-14.056,11.371-4.219,6.633-6.284,16.5-8.743,28.53-.293,1.433-3,14.981-3.238,16.267h53.521c-2.448-6.1-4.7-12.443-6.558-18.749" transform="translate(18.877 10.817)" fill="#2b244a"/>
        <path id="Trazado_210600" data-name="Trazado 210600" d="M151.475,110.668,128.4,123.79l6.421,17.652h28.853Z" transform="translate(16.45 14.178)" fill="#2b244a"/>
        <path id="Trazado_210601" data-name="Trazado 210601" d="M151.326,118.142c2.842,6.208,5.383,12.564,8.077,18.837.476,1.11.942,2.225,1.444,3.323.3.659,1.275.086.975-.57-2.842-6.208-5.383-12.565-8.077-18.837-.476-1.11-.942-2.226-1.445-3.323-.3-.659-1.274-.087-.974.57" transform="translate(19.38 15.025)" fill="#8c75b5"/>
        <path id="Trazado_210602" data-name="Trazado 210602" d="M176.649,86.378c-.724,6.207-1.321,12.431-1.724,18.667-.046.724,1.082.722,1.128,0,.4-6.236,1-12.46,1.724-18.667.085-.72-1.045-.714-1.128,0" transform="translate(22.41 10.997)" fill="#8c75b5"/>
        <path id="Trazado_210603" data-name="Trazado 210603" d="M209.166,81.4c2.625,5.784,5.413,11.512,7.531,17.509.24.679,1.33.387,1.088-.3-2.15-6.088-4.98-11.906-7.644-17.779-.3-.66-1.273-.087-.975.57" transform="translate(26.79 10.318)" fill="#8c75b5"/>
        <path id="Trazado_210604" data-name="Trazado 210604" d="M218.69,99.636c-1.318,11.317-3.067,22.6-5,33.824-.488,2.841-1,5.678-1.542,8.507-.137.71.951,1.014,1.089.3,2.174-11.27,3.921-22.637,5.477-34.007.393-2.872.767-5.745,1.1-8.624.083-.72-1.045-.714-1.128,0" transform="translate(27.178 12.696)" fill="#8c75b5"/>
        <path id="Trazado_210605" data-name="Trazado 210605" d="M174.018,107.2c3.583,9.317,7.519,18.506,11.468,27.672q1.465,3.4,2.956,6.794c.292.662,1.263.089.974-.57q-5.984-13.595-11.593-27.355c-.924-2.273-1.837-4.551-2.718-6.841-.257-.67-1.349-.379-1.088.3" transform="translate(22.289 13.646)" fill="#8c75b5"/>
        <path id="Trazado_210606" data-name="Trazado 210606" d="M210.51,99.939,217.3,97.3a.58.58,0,0,0,.394-.694.568.568,0,0,0-.694-.394l-6.794,2.64a.58.58,0,0,0-.394.694.568.568,0,0,0,.694.394" transform="translate(26.878 12.323)" fill="#8c75b5"/>
        <path id="Trazado_210607" data-name="Trazado 210607" d="M175.487,103.526c2.261-.1,4.523-.2,6.784-.3.722-.034.727-1.162,0-1.128-2.262.1-4.524.2-6.784.3-.723.034-.727,1.162,0,1.128" transform="translate(22.413 13.08)" fill="#8c75b5"/>
        <path id="Trazado_210608" data-name="Trazado 210608" d="M210.358,99.658l9.193.615c.725.049.722-1.08,0-1.128l-9.193-.615c-.725-.049-.722,1.08,0,1.128" transform="translate(26.88 12.623)" fill="#8c75b5"/>
        <path id="Trazado_210609" data-name="Trazado 210609" d="M222.674,116.324c1.133,6.563,2.534,13.09,3.977,19.591.344,1.55.695,3.1,1.066,4.643.17.705,1.259.406,1.089-.3-1.549-6.427-2.882-12.915-4.146-19.4-.314-1.608-.619-3.217-.9-4.832-.123-.714-1.21-.411-1.087.3" transform="translate(28.527 14.812)" fill="#8c75b5"/>
        <path id="Trazado_210610" data-name="Trazado 210610" d="M170.719,126.674q1.511,6.18,3.023,12.36c.173.705,1.26.406,1.087-.3q-1.511-6.18-3.023-12.36c-.173-.705-1.26-.406-1.088.3" transform="translate(21.869 16.139)" fill="#8c75b5"/>
        <path id="Trazado_210611" data-name="Trazado 210611" d="M174.842,108.1q3.831-2.6,7.832-4.954a.564.564,0,0,0-.57-.974q-3.994,2.345-7.833,4.954c-.6.4-.033,1.383.57.974" transform="translate(22.294 13.079)" fill="#8c75b5"/>
      </g>
    </g>
  </g>
</svg>
