<svg xmlns="http://www.w3.org/2000/svg" xmlns:xlink="http://www.w3.org/1999/xlink" width="399" height="256" viewBox="0 0 399 256">
  <defs>
    <clipPath id="clip-path">
      <rect id="Rectángulo_339605" data-name="Rectángulo 339605" width="309" height="256" transform="translate(1039 672)" fill="#fff" stroke="#707070" stroke-width="1"/>
    </clipPath>
    <clipPath id="clip-path-2">
      <rect id="Rectángulo_339599" data-name="Rectángulo 339599" width="312.469" height="473.794" fill="none"/>
    </clipPath>
    <clipPath id="clip-path-3">
      <path id="Trazado_211335" data-name="Trazado 211335" d="M127.118,37.423c-1.055,1.507,5,3.382,6.954,3.275,3.376-.181,3.942-1.758.174-3.172a12.241,12.241,0,0,0-4.267-.823c-1.563,0-2.622.377-2.861.719" transform="translate(-126.996 -36.704)" fill="none"/>
    </clipPath>
    <clipPath id="clip-path-5">
      <path id="Trazado_211431" data-name="Trazado 211431" d="M83.025,33.938c.187,4.166,7.833,7.658,10.953,4.491,2.033-2.065-5.435-5.784-9.073-5.784-1.153,0-1.921.373-1.88,1.293" transform="translate(-83.024 -32.645)" fill="none"/>
    </clipPath>
  </defs>
  <g id="Grupo_984432" data-name="Grupo 984432" transform="translate(-1020 -672)">
    <rect id="Rectángulo_338979" data-name="Rectángulo 338979" width="399" height="203" rx="17" transform="translate(1020 723)" fill="#fed947"/>
    <rect id="Rectángulo_339079" data-name="Rectángulo 339079" width="169" height="205" rx="17" transform="translate(1210 672)" fill="#3c3fa7"/>
    <rect id="Rectángulo_339078" data-name="Rectángulo 339078" width="348.914" height="130.964" rx="17" transform="translate(1045.043 771.036)" fill="#6b8dfc"/>
    <g id="Enmascarar_grupo_591" data-name="Enmascarar grupo 591" clip-path="url(#clip-path)">
      <g id="Grupo_984431" data-name="Grupo 984431" transform="translate(1082.531 686.036)">
        <g id="Grupo_984417" data-name="Grupo 984417">
          <g id="Grupo_984416" data-name="Grupo 984416" clip-path="url(#clip-path-2)">
            <path id="Trazado_211317" data-name="Trazado 211317" d="M148.2,9.738S101.009-7.1,92.752,38.785s-3.967,62.34-12,71.034S62.994,121.8,80.081,122s23.923,13.062,26.49-8.572-4.13-24.014,6.568-31.348,9.634-24.531,10.243-27.812" transform="translate(21.902 2.085)"/>
            <path id="Trazado_211318" data-name="Trazado 211318" d="M141.929,24.065s5.048-15.867-16.061-15.2Z" transform="translate(39.038 2.744)"/>
            <path id="Trazado_211319" data-name="Trazado 211319" d="M130.663,49.962c.641-1.3-2.792,18.5-2.792,18.5l-23.234.292,6.176-30.561Z" transform="translate(32.453 11.846)" fill="#ed8c6b"/>
            <path id="Trazado_211320" data-name="Trazado 211320" d="M111.257,39.031l18,10.671c.305-.62-.312,3.539-1.043,8.067L109.178,41Z" transform="translate(33.862 12.106)"/>
            <path id="Trazado_211321" data-name="Trazado 211321" d="M134.534,10.081s16.482,5.855,17.419,24.6S148.309,62.664,129.614,61.1c-16.655-1.39-22.332-14.33-22.332-14.33L108.571,28.2l8.406-17.717Z" transform="translate(33.274 3.127)" fill="#ed8c6b"/>
            <path id="Trazado_211322" data-name="Trazado 211322" d="M131.493,30.281s-5.309-9.288-15.147-1.368c0,0,7.143,9.674,15.147,1.368" transform="translate(36.085 7.976)" fill="#fff"/>
            <path id="Trazado_211323" data-name="Trazado 211323" d="M132.975,30.2s1.516-10.214,10.245-6.827c0,0-.781,10.98-10.245,6.827" transform="translate(41.243 7.034)" fill="#fff"/>
            <path id="Trazado_211324" data-name="Trazado 211324" d="M132.92,35.107a.914.914,0,0,1-.787-1.381l2.424-4.1-3.346.422a.914.914,0,1,1-.228-1.815l5.2-.656a.908.908,0,0,1,.879.406.918.918,0,0,1,.024.968l-3.374,5.7a.916.916,0,0,1-.787.448" transform="translate(40.376 8.551)"/>
            <path id="Trazado_211325" data-name="Trazado 211325" d="M119.679,22.242a.915.915,0,0,1-.445-1.714c4.926-2.747,8.736-2.029,8.9-2a.913.913,0,0,1,.718,1.074.927.927,0,0,1-1.07.721,12.5,12.5,0,0,0-7.655,1.8.9.9,0,0,1-.444.117" transform="translate(36.835 5.714)"/>
            <path id="Trazado_211326" data-name="Trazado 211326" d="M133.1,19.934a.915.915,0,0,1-.677-1.528c.107-.115,2.635-2.833,6.058-1.906a.918.918,0,0,1,.642,1.124.907.907,0,0,1-1.124.641,4.565,4.565,0,0,0-4.225,1.374.916.916,0,0,1-.673.295" transform="translate(40.998 5.058)"/>
            <path id="Trazado_211327" data-name="Trazado 211327" d="M118.216,17.968c-1.2-7.218,27.3,3.219,21.1-8.6,0,0-18.341-4.866-29.468,3.275s-17.539,27.567,1.868,41.266l.229-10.89s9.036-8.46,6.272-25.049" transform="translate(30.788 2.457)"/>
            <path id="Trazado_211328" data-name="Trazado 211328" d="M114.406,32.667c-3.265-2.909-7.867-2.834-10.282.166s-1.723,7.79,1.541,10.7,7.869,2.834,10.282-.166,1.724-7.79-1.541-10.7" transform="translate(31.848 9.47)" fill="#ed8c6b"/>
            <path id="Trazado_211329" data-name="Trazado 211329" d="M112.41,38.251a.91.91,0,0,1-.261-.038l-6.966-2.074a.915.915,0,0,1,.523-1.754l6.965,2.074a.915.915,0,0,1-.261,1.792" transform="translate(32.42 10.653)"/>
            <path id="Trazado_211330" data-name="Trazado 211330" d="M108.165,40.983a.915.915,0,0,1-.866-1.208l1.136-3.363a.923.923,0,0,1,1.159-.574A.913.913,0,0,1,110.166,37l-1.136,3.364a.914.914,0,0,1-.866.621" transform="translate(33.264 11.101)"/>
            <path id="Trazado_211331" data-name="Trazado 211331" d="M116.078,31.287a5.352,5.352,0,1,0,4.641-5.978,5.353,5.353,0,0,0-4.641,5.978" transform="translate(35.989 7.837)"/>
            <path id="Trazado_211332" data-name="Trazado 211332" d="M131.512,29.142c.41,3.261,3.02,5.617,5.828,5.263s4.751-3.283,4.341-6.544-3.02-5.617-5.828-5.263-4.751,3.283-4.341,6.544" transform="translate(40.772 6.998)"/>
            <path id="Trazado_211333" data-name="Trazado 211333" d="M127.118,37.423c.419-.6,3.362-1.31,7.13.1s3.2,2.991-.176,3.172c-1.957.106-8.009-1.767-6.954-3.275" transform="translate(39.388 11.384)"/>
          </g>
        </g>
        <g id="Grupo_984419" data-name="Grupo 984419" transform="translate(166.384 48.088)">
          <g id="Grupo_984418" data-name="Grupo 984418" clip-path="url(#clip-path-3)">
            <path id="Trazado_211334" data-name="Trazado 211334" d="M139.635,39.671a36.255,36.255,0,0,0-11.545-2.362c-5.776-.041,1.085,4.849,1.085,4.849l8.9,2.142Z" transform="translate(-127.374 -36.516)" fill="#fd521b"/>
          </g>
        </g>
        <g id="Grupo_984421" data-name="Grupo 984421">
          <g id="Grupo_984420" data-name="Grupo 984420" clip-path="url(#clip-path-2)">
            <path id="Trazado_211336" data-name="Trazado 211336" d="M165,313.651l32.244,66.923L261.3,327.752,253.4,316.9a11.883,11.883,0,0,0-16.416-2.753L212.123,331.52l-19.09-30.956Z" transform="translate(51.175 93.221)" fill="#5774cd"/>
            <path id="Trazado_211337" data-name="Trazado 211337" d="M94.817,292.7,50.424,334.582,67.191,368.57a11.571,11.571,0,0,0,10.375,6.453H118.9l-.718-14.739a12.462,12.462,0,0,0-10.7-11.684l-11.41-1.617-5.391-11.143,28.037-24.623Z" transform="translate(15.639 90.783)" fill="#5774cd"/>
            <path id="Trazado_211338" data-name="Trazado 211338" d="M204.45,319.079l-11.418-18.515L165,313.651l11.735,24.356Z" transform="translate(51.175 93.221)" fill="#ed8c6b"/>
            <path id="Trazado_211339" data-name="Trazado 211339" d="M89.538,331.224l22.782-20.007L88.415,292.7,71.064,309.073Z" transform="translate(22.041 90.783)" fill="#ed8c6b"/>
            <path id="Trazado_211340" data-name="Trazado 211340" d="M199.181,335.394a.722.722,0,0,1-.075-.005.511.511,0,0,1-.434-.579l2.383-16.685a.511.511,0,0,1,.939-.2l7.025,11.148,1.226-13.644a.512.512,0,0,1,.939-.232l5.279,8.171a.512.512,0,0,1-.861.555L211.132,317,209.9,330.672a.512.512,0,0,1-.943.227l-7.089-11.25-2.187,15.305a.511.511,0,0,1-.5.44" transform="translate(61.617 97.686)"/>
            <path id="Trazado_211341" data-name="Trazado 211341" d="M203.17,299.324l-3.3-5.356L164,310.715l7.346,15.249Z" transform="translate(50.864 91.175)"/>
            <path id="Trazado_211342" data-name="Trazado 211342" d="M97.352,322.1l12.4-10.887L85.846,292.7l-6.494,6.125Z" transform="translate(24.611 90.783)"/>
            <path id="Trazado_211343" data-name="Trazado 211343" d="M186.7,367.935a.512.512,0,0,1-.318-.913l63.731-50.484a.512.512,0,0,1,.637.8l-63.731,50.484a.5.5,0,0,1-.318.111" transform="translate(57.748 98.14)"/>
            <path id="Trazado_211344" data-name="Trazado 211344" d="M198.287,337.983a8.023,8.023,0,1,1-8.023-8.023,8.024,8.024,0,0,1,8.023,8.023" transform="translate(56.523 102.338)" fill="#fff"/>
            <path id="Trazado_211345" data-name="Trazado 211345" d="M77.4,322.148a7.372,7.372,0,1,1-7.372-7.372,7.372,7.372,0,0,1,7.372,7.372" transform="translate(19.434 97.629)" fill="#fff"/>
            <path id="Trazado_211346" data-name="Trazado 211346" d="M117.58,361.39H81a12.118,12.118,0,0,1-10.807-6.735L53.885,321.429a.471.471,0,1,1,.845-.415L71.037,354.24A11.17,11.17,0,0,0,81,360.45H117.58a.47.47,0,1,1,0,.941" transform="translate(16.698 99.482)"/>
            <path id="Trazado_211347" data-name="Trazado 211347" d="M145.468,124.225l87.216,220.5-54.861,28.134L93.069,138.643Z" transform="translate(28.866 38.529)" fill="#ff9fa3"/>
            <path id="Trazado_211348" data-name="Trazado 211348" d="M93.008,148.4s13.778,69.156,11.605,102.688c-3.249,50.164-38.562,86.77-38.562,86.77l50.368,40.307s53.835-64.741,51.968-123.433c-2.387-75.068-11.727-100-11.727-100l2.884-5.17-11.38-30.723L89.561,132.3Z" transform="translate(20.486 36.859)" fill="#ff9fa3"/>
            <path id="Trazado_211349" data-name="Trazado 211349" d="M155.633,310.719a.655.655,0,0,1-.3-1.237l51.9-26.73a.655.655,0,0,1,.6,1.165l-51.9,26.728a.654.654,0,0,1-.3.073" transform="translate(48.067 87.674)"/>
            <path id="Trazado_211350" data-name="Trazado 211350" d="M81.752,352.5a.655.655,0,0,1-.535-1.034c.423-.6,42.307-60.272,45.553-109.436,1.7-25.7-4.588-56.7-10.159-78.185-6.041-23.3-12.57-40.739-12.635-40.913a.654.654,0,1,1,1.225-.46c.065.174,6.616,17.663,12.676,41.03,5.6,21.582,11.909,52.739,10.2,78.614-3.27,49.536-45.367,109.506-45.791,110.107a.652.652,0,0,1-.535.276" transform="translate(25.152 37.852)"/>
            <path id="Trazado_211351" data-name="Trazado 211351" d="M122.084,318.135a.651.651,0,0,1-.417-.149L72.62,277.5a.655.655,0,0,1,.835-1.01L122.5,316.974a.655.655,0,0,1-.417,1.161" transform="translate(22.45 85.708)"/>
            <path id="Trazado_211352" data-name="Trazado 211352" d="M125.722,57.324s29.419,18.264,32.813,59.309c2.788,33.7-16.97,33.021-27.522,34.905-12.118,2.163-43.1,8.392-43.1,8.392l4.511-93.808Z" transform="translate(27.266 17.779)" fill="#d7e5ff"/>
            <path id="Trazado_211353" data-name="Trazado 211353" d="M136.589,71.787s4.517-7.494-1.944-13.956c-4.325-4.325-27.406-15.865-40.674-7.142s-10.291,20.8-2.328,24.626,44.946-3.528,44.946-3.528" transform="translate(26.315 14.736)" fill="#d7e5ff"/>
            <path id="Trazado_211354" data-name="Trazado 211354" d="M113.119,160.289l-1.19,45.952s10.949,14.755,7.455,28.125-7.769,3.471-7.769,3.471S90.771,230.7,87.575,223.75c-1.069-2.324,3.684-13.426,3.743-18.186.041-3.192-1.541-38.1-1.541-38.1Z" transform="translate(27.113 49.714)" fill="#ed8c6b"/>
            <path id="Trazado_211355" data-name="Trazado 211355" d="M108.407,227.279l4.005-13.383a4.258,4.258,0,0,0-2.944-5.263,4.161,4.161,0,0,0-5.281,3.034l-3.03,13.647a3.77,3.77,0,0,0,2.926,4.457,3.668,3.668,0,0,0,4.325-2.492" transform="translate(31.347 64.653)" fill="#ed8c6b"/>
            <path id="Trazado_211356" data-name="Trazado 211356" d="M95.162,224.738l3.851-16.267a3.842,3.842,0,0,1,3.933-2.907l.384.014a3.974,3.974,0,0,1,3.785,4.878l-4.236,16.252a3.874,3.874,0,0,1-4.546,2.753,3.954,3.954,0,0,1-3.171-4.723" transform="translate(29.483 63.755)" fill="#ed8c6b"/>
            <path id="Trazado_211357" data-name="Trazado 211357" d="M93.213,224.7h0a3.342,3.342,0,0,0,3.767-2.453l2.964-10.717A3.684,3.684,0,0,0,97.91,207.2l-.818-.362a3.351,3.351,0,0,0-4.671,2.476L90.276,220.4a3.658,3.658,0,0,0,2.937,4.3" transform="translate(27.979 64.061)" fill="#ed8c6b"/>
            <path id="Trazado_211358" data-name="Trazado 211358" d="M89.336,220.382h0a2.9,2.9,0,0,0,2.846-2.1l2.273-8.9a2.733,2.733,0,0,0-2.137-3.286l-.983-.233a2.929,2.929,0,0,0-3.641,2.288L86.4,217.287a2.817,2.817,0,0,0,2.933,3.095" transform="translate(26.79 63.824)" fill="#ed8c6b"/>
            <path id="Trazado_211359" data-name="Trazado 211359" d="M97.143,212.05a.448.448,0,0,1,.578-.279.494.494,0,0,1,.3.608c-.168.531-1.834,6.945-2.691,10.262a.446.446,0,0,1-.565.322.491.491,0,0,1-.328-.591c.1-.393,2.487-9.623,2.7-10.311l0-.012" transform="translate(29.284 65.673)"/>
            <path id="Trazado_211360" data-name="Trazado 211360" d="M102.853,213.629a.445.445,0,0,1,.578-.278.49.49,0,0,1,.3.608c-.187.588-1.959,8.036-2.869,11.892a.448.448,0,0,1-.557.335.493.493,0,0,1-.341-.584c.109-.456,2.644-11.193,2.889-11.963l0-.01" transform="translate(30.999 66.163)"/>
            <path id="Trazado_211361" data-name="Trazado 211361" d="M91.946,209.925a.447.447,0,0,1,.588-.275.493.493,0,0,1,.283.614c-.235.687-1.5,6.189-2.132,9a.45.45,0,0,1-.554.341.491.491,0,0,1-.346-.58c.076-.334,1.85-8.2,2.16-9.1h0" transform="translate(27.844 65.014)"/>
            <path id="Trazado_211362" data-name="Trazado 211362" d="M110.331,212.18c.148-.428.439-.735.677-.7.258.039.359.46.224.941L107.923,224.3c-.132.478-.452.839-.709.8s-.358-.46-.224-.941l3.309-11.874c.009-.034.02-.068.031-.1" transform="translate(33.165 65.59)"/>
            <path id="Trazado_211363" data-name="Trazado 211363" d="M106.762,243.242s19.956-2.588,22.848-25.714,17.48-94.492,12.847-125.578c-3.433-23.022-14.4-35.066-30.727-33-19,2.4-22.342,24.163-26.459,63.494-4.692,44.833-4.811,70.374-5.744,85.66-1.782,29.209,17.23,33.284,17.23,33.284Z" transform="translate(24.629 18.212)" fill="#d7e5ff"/>
            <path id="Trazado_211364" data-name="Trazado 211364" d="M134.085,68.964a.65.65,0,0,1-.411-.145c-.232-.187-23.351-18.493-39.628-1.657a.654.654,0,1,1-.939-.911c17.112-17.7,41.149,1.355,41.39,1.549a.655.655,0,0,1-.411,1.165" transform="translate(28.819 18.214)"/>
            <path id="Trazado_211365" data-name="Trazado 211365" d="M138.154,296.922a.674.674,0,0,1-.224-.039.654.654,0,0,1-.392-.84c6.371-17.518,9.365-33.8,8.9-48.408-2.357-74.1-11.592-99.544-11.685-99.792a.655.655,0,0,1,.042-.549l2.882-5.167a.654.654,0,0,1,1.144.635l-2.74,4.913c1.026,3.022,9.437,29.818,11.667,99.919.47,14.769-2.551,31.221-8.978,48.9a.656.656,0,0,1-.616.431" transform="translate(41.781 43.977)"/>
            <path id="Trazado_211366" data-name="Trazado 211366" d="M128.393,150.55h-.043a.655.655,0,0,1-.612-.7c.03-.48,3.078-48.108,1.521-63.014-1.466-14.055-8.388-22.926-12.6-24.5a.656.656,0,0,1,.459-1.229c4.656,1.735,11.908,10.819,13.449,25.59,1.57,15.016-1.486,62.752-1.516,63.233a.656.656,0,0,1-.652.613" transform="translate(36.048 18.942)"/>
            <path id="Trazado_211367" data-name="Trazado 211367" d="M136.6,113.031s12.546-12.919,22.315-12.918c5.838,0,9.765-.1,11.98-.185a3.094,3.094,0,0,0,2.687-2.709,2.324,2.324,0,0,0-1.494-2.806,42.917,42.917,0,0,0-18.807,0c-8.965,2.12-22.632,13.822-22.632,13.822Z" transform="translate(40.522 28.957)" fill="#ed8c6b"/>
            <path id="Trazado_211368" data-name="Trazado 211368" d="M143.33,106.424s10.6-10.886,20.364-10.885c6.286,0,10.357-.119,12.46-.2a2.427,2.427,0,0,0,2.1-2.126,2.866,2.866,0,0,0-1.868-3.477,42.915,42.915,0,0,0-18.328.109c-8.965,2.12-22.632,13.822-22.632,13.822Z" transform="translate(42.003 27.539)" fill="#ed8c6b"/>
            <path id="Trazado_211369" data-name="Trazado 211369" d="M145.751,102.671s10.6-10.886,20.364-10.885c6.289,0,10.361-.119,12.463-.2a2.426,2.426,0,0,0,2.1-2.122,2.869,2.869,0,0,0-1.872-3.481,42.876,42.876,0,0,0-18.324.109c-8.965,2.12-22.632,13.823-22.632,13.823Z" transform="translate(42.754 26.374)" fill="#ed8c6b"/>
            <path id="Trazado_211370" data-name="Trazado 211370" d="M132.673,116.386S155.812,89.328,165,87.646c5.919-1.084,11.571-1.335,13.54-1.778a2.53,2.53,0,0,0,1.749-2.365,2.7,2.7,0,0,0-2.09-3.1c-4.084-.4-12.906-.757-20.428,2.495-8.213,3.551-30.582,26.165-30.582,26.165Z" transform="translate(39.449 24.857)" fill="#ed8c6b"/>
            <path id="Trazado_211371" data-name="Trazado 211371" d="M155.976,89.446l5.723-9a4.419,4.419,0,0,0-.582-5.6,2.607,2.607,0,0,0-3.768.532c-1.826,2.212-23.981,24.07-23.981,24.07l-10.239,15.309,28.329-12.985Z" transform="translate(38.189 23.033)" fill="#ed8c6b"/>
            <path id="Trazado_211372" data-name="Trazado 211372" d="M148.972,94.717a.482.482,0,0,0-.028.208c.018.207.168.339.335.295a40.065,40.065,0,0,1,17.481-.7.4.4,0,0,0,.164-.756,40.616,40.616,0,0,0-17.711.711.382.382,0,0,0-.242.246" transform="translate(46.195 28.879)"/>
            <path id="Trazado_211373" data-name="Trazado 211373" d="M148.881,91.532a.48.48,0,0,0-.013.288.3.3,0,0,0,.419.225,24.486,24.486,0,0,1,4.652-1.7,44.708,44.708,0,0,1,18.592-.225,2.472,2.472,0,0,1,1.293.981.292.292,0,0,0,.468.025.467.467,0,0,0,.05-.567,3.091,3.091,0,0,0-1.655-1.229,45.294,45.294,0,0,0-18.836.228,25.2,25.2,0,0,0-4.77,1.745.4.4,0,0,0-.2.232" transform="translate(46.167 27.431)"/>
            <path id="Trazado_211374" data-name="Trazado 211374" d="M148.986,87.8a.38.38,0,0,0,0,.266.3.3,0,0,0,.4.182,26.824,26.824,0,0,1,6.426-2.276,40.253,40.253,0,0,1,9.036-.481.322.322,0,0,0,.317-.33.336.336,0,0,0-.3-.358,40.716,40.716,0,0,0-9.159.49,27.384,27.384,0,0,0-6.566,2.32.321.321,0,0,0-.162.186" transform="translate(46.202 26.286)"/>
            <path id="Trazado_211375" data-name="Trazado 211375" d="M146.548,84.479a.473.473,0,0,0,0,.334.292.292,0,0,0,.442.157c1.053-.676,6.8-2.89,6.86-2.914a.447.447,0,0,0,.24-.5.306.306,0,0,0-.4-.257c-.238.092-5.867,2.26-6.978,2.973a.42.42,0,0,0-.161.211" transform="translate(45.443 25.208)"/>
            <path id="Trazado_211376" data-name="Trazado 211376" d="M141.388,95.123c-.007.054-.013.107-.017.161-.008.111.131.232.311.271s.333-.021.341-.131c0-.05.009-.1.016-.151.455-3.5,7.236-5.61,7.305-5.631.143-.043.166-.168.056-.276a.513.513,0,0,0-.459-.119,21.139,21.139,0,0,0-3.663,1.576c-1.652.916-3.644,2.395-3.89,4.3" transform="translate(43.847 27.675)"/>
            <path id="Trazado_211377" data-name="Trazado 211377" d="M73.8,288.77a.492.492,0,0,1-.295-.886l5.8-4.329-10.625-3.379a.491.491,0,0,1-.072-.908l4.921-2.467L51.953,256.114a.49.49,0,0,1-.1-.575.5.5,0,0,1,.52-.263l28.447,4.845-21.756-14.7a.491.491,0,1,1,.55-.814l23.64,15.976a.493.493,0,0,1,.181.591.5.5,0,0,1-.538.3L53.79,256.514l20.919,20.061a.49.49,0,0,1-.119.794l-4.465,2.236,10.386,3.3a.492.492,0,0,1,.145.863l-6.56,4.9a.5.5,0,0,1-.295.1" transform="translate(16.066 75.838)"/>
            <path id="Trazado_211378" data-name="Trazado 211378" d="M93.787,17.717S99.288.327,79.561,2.811Z" transform="translate(24.676 0.797)" fill="#ffb6c8"/>
            <path id="Trazado_211379" data-name="Trazado 211379" d="M48.819,34.323C46.808,18.355,54.371,5.571,68.661,1.685c24.394-6.635,36.414,7.395,38.424,23.361S100.42,60.834,85.61,60.88c-18.776.056-34.781-10.59-36.792-26.557" transform="translate(15.042 0)" fill="#ffb6c8"/>
            <path id="Trazado_211380" data-name="Trazado 211380" d="M58.91,265.444l-28.9,12.119-9.441-19.726,32.422-17.983Z" transform="translate(6.378 74.392)" fill="#ed8c6b"/>
            <path id="Trazado_211381" data-name="Trazado 211381" d="M33.662,247.489l8.449,22.465,12.737-5.34L51.62,250.668,42.6,242.532Z" transform="translate(10.44 75.222)"/>
            <path id="Trazado_211382" data-name="Trazado 211382" d="M100.961,310.69l7.967,29.2-21.164,6.291L76.117,313.116Z" transform="translate(23.608 96.361)" fill="#ed8c6b"/>
            <path id="Trazado_211383" data-name="Trazado 211383" d="M99.078,143.8s42.357,88.565,35.873,110.409c-8.588,28.935-73.579,56.807-73.579,56.807l-28.751-45.7,44.024-29.446L61.536,212.62,83.1,132.191Z" transform="translate(10.117 40.999)" fill="#ffc849"/>
            <path id="Trazado_211384" data-name="Trazado 211384" d="M104.175,322.472,100.96,310.69l-24.843,2.425,4.458,12.66c6.639.292,15.576-.144,23.6-3.3" transform="translate(23.608 96.361)"/>
            <path id="Trazado_211385" data-name="Trazado 211385" d="M38.03,174.159s-20.936,16.195-31.444-5.421,1.689-73.066,9.643-87.471c12.566-22.759,35.307-17.85,35.307-17.85Z" transform="translate(0.778 19.53)"/>
            <path id="Trazado_211386" data-name="Trazado 211386" d="M77.014,70.85s5.733-12.382-2.971-17.958-9.12-1.985-9.12-1.985Z" transform="translate(20.136 15.436)" fill="#fd521b"/>
            <path id="Trazado_211387" data-name="Trazado 211387" d="M71.1,57.824a14.667,14.667,0,0,1,15.42,9.289c4.679,11.005,17.491,51.962,17.491,51.962L152.492,92.25l15.417,30.2S112.3,181.194,89.182,165.208,71.1,57.824,71.1,57.824" transform="translate(21.908 17.904)" fill="#8284d2"/>
            <path id="Trazado_211388" data-name="Trazado 211388" d="M28.816,147.307S44.789,271.9,81.855,374c0,0,32.939,6.7,51.371-9.3L88.167,170.515l5.3-6.734L83.037,138.572Z" transform="translate(8.937 42.978)" fill="#ffc849"/>
            <path id="Trazado_211389" data-name="Trazado 211389" d="M97.679,86.1s12.055,80.818.789,90.425-72.168.1-72.6-7.575S27.6,145.023,27.6,145.023l3.611-42.766L67.089,56.036l20.036,2.7Z" transform="translate(8.005 17.38)" fill="#8284d2"/>
            <path id="Trazado_211390" data-name="Trazado 211390" d="M77.973,129.523,25.917,150.242l-.689-12.632,48.11-14.088Z" transform="translate(7.824 38.311)"/>
            <path id="Trazado_211391" data-name="Trazado 211391" d="M86.813,58.063S66.652,48.626,38.775,69.791-13.231,138,8.246,147.666s67.673,6.09,67.673,6.09l6.84-27.188-38.885-6.7L63.191,99.684Z" transform="translate(0 17.358)" fill="#8284d2"/>
            <path id="Trazado_211392" data-name="Trazado 211392" d="M72.33,132.177l-21.3-75.452,3.841-.778L77.8,130.306Z" transform="translate(15.827 17.352)"/>
            <path id="Trazado_211393" data-name="Trazado 211393" d="M81.228,54.524S62.922,43.363,53.146,47.172s-8.2,14.7-8.2,14.7,12.71-5.7,37.9,10.375Z" transform="translate(13.91 14.385)" fill="#8284d2"/>
            <path id="Trazado_211394" data-name="Trazado 211394" d="M82.846,47.845l-2.6,12.127-1.939,9.065L69.846,59.8,59.22,52.331l3.7-16.114Z" transform="translate(18.367 11.233)" fill="#ed8c6b"/>
            <path id="Trazado_211395" data-name="Trazado 211395" d="M79.533,59.574l2.51-11.73L62.118,36.217l-.309,1.345Z" transform="translate(19.17 11.233)"/>
            <path id="Trazado_211396" data-name="Trazado 211396" d="M88.112,164.734a.492.492,0,0,1-.491-.485c-.008-.618-.866-62.061-5.39-79.517C80.42,77.745,74.183,61.67,74.12,61.509a.492.492,0,0,1,.917-.356c.062.162,6.321,16.29,8.145,23.334,4.553,17.57,5.414,79.132,5.421,79.75a.492.492,0,0,1-.485.5Z" transform="translate(22.978 18.869)"/>
            <path id="Trazado_211397" data-name="Trazado 211397" d="M46.467,144.514c-6.878,0-14.2-.186-19.961-.783a.491.491,0,1,1,.1-.977c14.092,1.462,37.639.445,40.841.3l6.623-26.322L35.708,110.12a.49.49,0,0,1-.271-.823L54.753,89.112a.49.49,0,0,1,.709.677l-18.679,19.52,37.977,6.54a.488.488,0,0,1,.392.6l-6.84,27.19a.493.493,0,0,1-.452.371c-.161.008-10.186.5-21.393.5" transform="translate(8.084 27.591)"/>
            <path id="Trazado_211398" data-name="Trazado 211398" d="M37.15,105.76a.423.423,0,0,1-.056,0l-14.976-1.733a.49.49,0,0,1-.431-.544.483.483,0,0,1,.544-.431l14.976,1.733a.491.491,0,0,1-.056.979" transform="translate(6.725 31.959)"/>
            <path id="Trazado_211399" data-name="Trazado 211399" d="M73.008,65a.492.492,0,0,1-.288-.891A8.451,8.451,0,0,0,75.9,58.268a.491.491,0,0,1,.98.051,9.288,9.288,0,0,1-3.583,6.591.5.5,0,0,1-.287.092" transform="translate(22.491 17.927)"/>
            <path id="Trazado_211400" data-name="Trazado 211400" d="M81.682,67.694a.522.522,0,0,1-.173-.03,188.336,188.336,0,0,0-20.214-5.755c-11.092-2.6-16-.461-16.052-.438a.492.492,0,0,1-.411-.894c.206-.094,5.213-2.318,16.689.373,9.978,2.341,16.786,4.563,19.279,5.42C75.51,54.543,62.013,50.129,61.873,50.084a.491.491,0,0,1,.3-.937c.148.047,14.847,4.845,19.969,17.876a.49.49,0,0,1-.457.671" transform="translate(13.816 15.236)"/>
            <path id="Trazado_211401" data-name="Trazado 211401" d="M77.9,109.566l-13.35-3.672a4.051,4.051,0,0,0-5,3.119,4.345,4.345,0,0,0,3.274,5.251l13.555,2.681a3.593,3.593,0,0,0,4.207-3.08,3.836,3.836,0,0,0-2.687-4.3" transform="translate(18.435 32.799)" fill="#ed8c6b"/>
            <path id="Trazado_211402" data-name="Trazado 211402" d="M76.457,123.183l-16.171-3.437a4,4,0,0,1-3.072-3.89l-.008-.389a3.811,3.811,0,0,1,4.571-3.959l16.179,3.826a4.047,4.047,0,0,1,2.956,4.515,3.772,3.772,0,0,1-4.455,3.334" transform="translate(17.742 34.554)" fill="#ed8c6b"/>
            <path id="Trazado_211403" data-name="Trazado 211403" d="M75.569,124.2h0a3.489,3.489,0,0,0-2.618-3.737L62.273,117.77a3.489,3.489,0,0,0-4.127,2.175l-.308.836a3.489,3.489,0,0,0,2.691,4.648l10.986,1.859a3.489,3.489,0,0,0,4.054-3.087" transform="translate(17.871 36.494)" fill="#ed8c6b"/>
            <path id="Trazado_211404" data-name="Trazado 211404" d="M71.987,128.112h0A3.021,3.021,0,0,0,69.77,125.3l-8.854-2.05a2.608,2.608,0,0,0-3.1,2.252l-.173,1a3.05,3.05,0,0,0,2.447,3.613l9.028,1.051a2.717,2.717,0,0,0,2.871-3.05" transform="translate(17.862 38.206)" fill="#ed8c6b"/>
            <path id="Trazado_211405" data-name="Trazado 211405" d="M60.3,111.333l.012-.014a.336.336,0,0,1,.473-.039,6.027,6.027,0,0,0,2.18.967l14.319,3a5.739,5.739,0,0,1,3.3,2.4,3.761,3.761,0,0,1,.177,3.071c-1.38,4.2-7.414,2.578-7.79,2.472l-8.562-1.655c-.645-.126-4.113-.968-4.986-1.246a.335.335,0,0,1,.2-.639c.859.274,4.276,1.1,4.91,1.226l8.576,1.659a.15.15,0,0,1,.033.008c.058.017,5.765,1.667,6.979-2.033a3.118,3.118,0,0,0-.13-2.543,5.121,5.121,0,0,0-2.864-2.063l-14.3-3a6.646,6.646,0,0,1-2.48-1.111.337.337,0,0,1-.051-.459" transform="translate(18.358 34.489)"/>
            <path id="Trazado_211406" data-name="Trazado 211406" d="M58.643,124.361a.336.336,0,0,1,.369-.117c.849.27,6.111,1.249,7,1.374.829.119,3.52.612,3.634.633.05.009,5.066.866,5.665-2.373a2.564,2.564,0,0,0-1.4-2.781,6.5,6.5,0,0,0-1.9-.763.335.335,0,1,1,.13-.658c1.547.3,4.341,1.6,3.837,4.323-.576,3.117-4.468,3.268-6.446,2.911-.029-.005-2.793-.512-3.609-.629-.832-.119-6.179-1.106-7.1-1.4a.334.334,0,0,1-.166-.521" transform="translate(18.167 37.116)"/>
            <path id="Trazado_211407" data-name="Trazado 211407" d="M62.865,105.522a.335.335,0,0,1,.349-.123c.086.022,8.63,2.158,12.1,3.061,3.655.951,5.457,3.092,4.942,5.873-.614,3.329-4.12,3.382-4.156,3.382a.335.335,0,0,1,0-.671,3.565,3.565,0,0,0,3.5-2.833c.449-2.426-1.132-4.238-4.452-5.1-3.465-.9-12.006-3.038-12.093-3.059a.336.336,0,0,1-.244-.407.331.331,0,0,1,.058-.121" transform="translate(19.477 32.686)"/>
            <path id="Trazado_211408" data-name="Trazado 211408" d="M56.6,33.895c-2-15.853,3.739-26.521,17.873-29.379C91.923.989,104.619,12.352,106.615,28.2s-3.889,32.88-18.308,32.889c-18.281.012-29.712-11.346-31.708-27.2" transform="translate(17.435 1.201)" fill="#ed8c6b"/>
            <path id="Trazado_211409" data-name="Trazado 211409" d="M96.258,27.853S94.013,15,80.471,21.946c0,0,5.942,8.1,15.787,5.907" transform="translate(24.958 6.168)" fill="#fff"/>
            <path id="Trazado_211410" data-name="Trazado 211410" d="M101.868,23.551,94.38,26.262l-.41,10.281Z" transform="translate(29.145 7.304)" fill="#ed8c6b"/>
            <path id="Trazado_211411" data-name="Trazado 211411" d="M74.8,4.577C60.666,7.434,53.491,17.99,55.488,33.844c.748,5.94,3.349,15.54,6.611,19.855l7.755-22.384c9.931.736,11.11-12.557,11.11-12.557C91.94,18.135,91.9,9.513,90.9,5.068c-4.61-1.849-10.152-1.694-16.1-.491" transform="translate(17.108 1.14)" fill="#ffb6c8"/>
            <path id="Trazado_211412" data-name="Trazado 211412" d="M83.088,16.968c.4.922,2.578.863,4.861-.132s3.806-2.548,3.4-3.471-2.577-.862-4.859.132-3.807,2.548-3.405,3.471" transform="translate(25.75 3.942)"/>
            <path id="Trazado_211413" data-name="Trazado 211413" d="M97.008,24.126c.445,3.532-1.712,6.713-4.819,7.1s-5.985-2.155-6.429-5.687,1.712-6.713,4.819-7.1,5.983,2.155,6.429,5.687" transform="translate(26.581 5.706)"/>
            <path id="Trazado_211414" data-name="Trazado 211414" d="M72.556,25.45c-2.374-4.035-7.228-5.583-10.84-3.456S57.1,29.115,59.472,33.148,66.7,38.731,70.313,36.6s4.617-7.121,2.243-11.155" transform="translate(18.046 6.526)" fill="#ed8c6b"/>
            <path id="Trazado_211415" data-name="Trazado 211415" d="M68.135,30.462a.761.761,0,0,1-.432-.135l-6.557-4.508a.761.761,0,1,1,.865-1.253l6.557,4.508a.761.761,0,0,1-.432,1.387" transform="translate(18.863 7.577)"/>
            <path id="Trazado_211416" data-name="Trazado 211416" d="M62.985,31.584a.747.747,0,0,1-.482-.173.761.761,0,0,1-.106-1.07L64.8,27.4a.761.761,0,1,1,1.178.964L63.573,31.3a.757.757,0,0,1-.588.279" transform="translate(19.299 8.413)"/>
            <path id="Trazado_211417" data-name="Trazado 211417" d="M83.839,337.664l-.219,25.091a3.164,3.164,0,0,0,3.708,3.144l66.789-11.662a4.808,4.808,0,0,0,3.889-5.67l-1.044-5.266a13.386,13.386,0,0,0-14.678-10.692l-22.011,2.563-14.531-4.595Z" transform="translate(25.935 102.529)" fill="#d7e5ff"/>
            <path id="Trazado_211418" data-name="Trazado 211418" d="M117.4,341.14a.41.41,0,0,1-.41-.407l-.05-6.044-7.529,5.484a.41.41,0,0,1-.646-.4l.774-4.533-24.6,4.295a.411.411,0,0,1-.356-.7l17.328-16.756-20.657,7.379a.411.411,0,0,1-.276-.774l22.447-8.017a.41.41,0,0,1,.423.681L86.122,338.5l23.854-4.165a.411.411,0,0,1,.476.473l-.7,4.111,7.358-5.36a.421.421,0,0,1,.427-.035.413.413,0,0,1,.225.364l.055,6.842a.411.411,0,0,1-.406.414Z" transform="translate(25.033 99.448)"/>
            <path id="Trazado_211419" data-name="Trazado 211419" d="M98.256,323.313a.41.41,0,0,1-.316-.148.405.405,0,0,1-.067-.41c.1-.265,2.544-6.484,6.555-7.824a4.974,4.974,0,0,1,4.36.628c1.178.734,1.7,1.537,1.538,2.383-.571,3.075-10.826,5.138-11.993,5.364a.4.4,0,0,1-.077.008m7.684-7.811a3.95,3.95,0,0,0-1.251.207c-2.9.968-4.994,4.99-5.746,6.636,4.21-.89,10.244-2.762,10.577-4.553.089-.482-.3-1-1.165-1.537a4.547,4.547,0,0,0-2.415-.753" transform="translate(30.347 97.598)"/>
            <path id="Trazado_211420" data-name="Trazado 211420" d="M110.823,328.255c-4.046,0-12.082-5.719-13.1-6.454a.411.411,0,0,1,.086-.713c.314-.127,7.759-3.1,12.205-.7a5.913,5.913,0,0,1,3,4.289c.318,1.6.054,2.688-.789,3.227a2.567,2.567,0,0,1-1.408.348m-11.984-6.669c3.409,2.381,10.841,6.98,12.95,5.63.529-.339.672-1.139.426-2.377a5.122,5.122,0,0,0-2.588-3.726c-3.351-1.809-8.833-.2-10.788.473" transform="translate(30.257 99.08)"/>
            <path id="Trazado_211421" data-name="Trazado 211421" d="M83.741,355.949a.411.411,0,0,1-.071-.815l73.893-12.9a.41.41,0,1,1,.141.808l-73.893,12.9a.443.443,0,0,1-.071.007" transform="translate(25.845 106.142)"/>
            <path id="Trazado_211422" data-name="Trazado 211422" d="M31.912,250.128l-25.7,2.329a3.255,3.255,0,0,0-2.84,4.115L22.1,323.744a4.944,4.944,0,0,0,6.2,3.4l5.284-1.6a13.767,13.767,0,0,0,9.45-16.11L38.17,287.165l3.224-15.341Z" transform="translate(1.007 77.578)" fill="#d7e5ff"/>
            <path id="Trazado_211423" data-name="Trazado 211423" d="M28.174,285.249a.432.432,0,0,1-.046-.861l6.163-.664-6.367-7.134a.431.431,0,0,1-.067-.478.419.419,0,0,1,.418-.24l4.706.33-6.9-24.725a.431.431,0,0,1,.694-.444l18.879,16-9.634-20.352a.431.431,0,1,1,.78-.369l10.489,22.159a.434.434,0,0,1-.127.528.428.428,0,0,1-.541-.014L27.3,252.6l6.682,23.959a.437.437,0,0,1-.08.389.422.422,0,0,1-.366.157l-4.257-.3,6.219,6.969a.431.431,0,0,1-.275.717l-7,.753-.046,0" transform="translate(8.086 76.318)"/>
            <path id="Trazado_211424" data-name="Trazado 211424" d="M48.525,275.275c-.048,0-.1,0-.144-.007-3.214-.271-6.37-10.562-6.72-11.735a.432.432,0,0,1,.528-.54c.282.077,6.9,1.946,8.681,5.919a5.116,5.116,0,0,1-.2,4.534c-.6,1.213-1.319,1.828-2.146,1.828m-5.795-11.2c1.339,4.213,3.862,10.18,5.723,10.336.491.056.985-.407,1.445-1.342a4.308,4.308,0,0,0,.186-3.8c-1.279-2.851-5.583-4.587-7.354-5.195" transform="translate(12.916 81.564)"/>
            <path id="Trazado_211425" data-name="Trazado 211425" d="M39.878,279.136a2.129,2.129,0,0,1-1.775-.759c-2.375-3,4.033-14.211,4.772-15.478a.451.451,0,0,1,.383-.215.433.433,0,0,1,.373.229c.162.309,3.962,7.629,1.957,12.431a6.089,6.089,0,0,1-4.09,3.515,5.636,5.636,0,0,1-1.619.276m3.338-15.093c-2.091,3.738-6.031,11.786-4.437,13.8q.6.753,2.467.191a5.256,5.256,0,0,0,3.544-3.021c1.5-3.6-.683-9.023-1.573-10.97" transform="translate(11.655 81.472)"/>
            <path id="Trazado_211426" data-name="Trazado 211426" d="M29.152,326.5a.431.431,0,0,1-.415-.316L8.012,251.869a.432.432,0,1,1,.832-.232l20.725,74.317a.434.434,0,0,1-.3.532.387.387,0,0,1-.115.016" transform="translate(2.48 77.948)"/>
            <path id="Trazado_211427" data-name="Trazado 211427" d="M56.212,279.113a.492.492,0,0,1-.477-.375L43.092,226.785a.492.492,0,1,1,.955-.233L56.689,278.5a.491.491,0,0,1-.36.594.453.453,0,0,1-.117.014" transform="translate(13.361 70.149)"/>
            <path id="Trazado_211428" data-name="Trazado 211428" d="M99.6,274.455a.491.491,0,0,1-.479-.38l-25.361-109.3a.493.493,0,0,1,.093-.415l5.3-6.734a.492.492,0,0,1,.772.609l-5.155,6.548,25.307,109.07a.491.491,0,0,1-.366.59.475.475,0,0,1-.111.013" transform="translate(22.872 48.83)"/>
            <path id="Trazado_211429" data-name="Trazado 211429" d="M83.025,33.938c-.172-3.818,13.631,1.773,10.953,4.491-3.121,3.167-10.766-.324-10.953-4.491" transform="translate(25.75 10.125)"/>
          </g>
        </g>
        <g id="Grupo_984423" data-name="Grupo 984423" transform="translate(108.774 42.77)">
          <g id="Grupo_984422" data-name="Grupo 984422" clip-path="url(#clip-path-5)">
            <path id="Trazado_211430" data-name="Trazado 211430" d="M97.526,35.446S87.2,33,82.051,34.3s-.938,8.635-.938,8.635l15.9,3.672,3.951-10.142Z" transform="translate(-84.119 -32.25)" fill="#fd521b"/>
          </g>
        </g>
      </g>
    </g>
  </g>
</svg>
