<svg xmlns="http://www.w3.org/2000/svg" width="55.204" height="17.156" viewBox="0 0 55.204 17.156">
  <path id="Trazado_215839" data-name="Trazado 215839" d="M7.567,15.6a1.268,1.268,0,0,0-.479-1.055,5.954,5.954,0,0,0-1.683-.782,16.147,16.147,0,0,1-1.969-.782Q.949,11.758.949,9.622a3.011,3.011,0,0,1,.62-1.876A4.008,4.008,0,0,1,3.322,6.48a6.823,6.823,0,0,1,2.549-.453,5.969,5.969,0,0,1,2.474.492,3.917,3.917,0,0,1,1.7,1.4A3.661,3.661,0,0,1,10.652,10H7.576A1.547,1.547,0,0,0,7.1,8.787a1.867,1.867,0,0,0-1.3-.431A2.106,2.106,0,0,0,4.5,8.721a1.074,1.074,0,0,0,.048,1.819,6.65,6.65,0,0,0,1.854.826,11.36,11.36,0,0,1,2.18.918,3.663,3.663,0,0,1,2.074,3.3,3.125,3.125,0,0,1-1.266,2.637,5.629,5.629,0,0,1-3.472.958A6.888,6.888,0,0,1,3.1,18.618a4.247,4.247,0,0,1-1.9-1.529,3.985,3.985,0,0,1-.637-2.237H3.656a1.963,1.963,0,0,0,.532,1.516,2.513,2.513,0,0,0,1.727.488,1.985,1.985,0,0,0,1.208-.33A1.088,1.088,0,0,0,7.567,15.6Zm4.157-1.441a5.613,5.613,0,0,1,.554-2.536,3.96,3.96,0,0,1,1.591-1.709,4.791,4.791,0,0,1,2.435-.6,4.373,4.373,0,0,1,3.366,1.323,5.076,5.076,0,0,1,1.23,3.6v.105a4.925,4.925,0,0,1-1.235,3.529,4.384,4.384,0,0,1-3.344,1.305,4.434,4.434,0,0,1-3.261-1.217,4.761,4.761,0,0,1-1.327-3.3Zm2.962.185a3.538,3.538,0,0,0,.413,1.934,1.376,1.376,0,0,0,1.222.615q1.582,0,1.617-2.435v-.3q0-2.558-1.635-2.558-1.485,0-1.608,2.206Zm16.348-.026a5.735,5.735,0,0,1-1,3.538,3.2,3.2,0,0,1-2.694,1.323,2.742,2.742,0,0,1-2.153-.958v4.438H22.228V9.49H25l.088.879a2.742,2.742,0,0,1,2.241-1.055,3.224,3.224,0,0,1,2.733,1.3,5.805,5.805,0,0,1,.976,3.564Zm-2.962-.185q0-2.531-1.477-2.531a1.394,1.394,0,0,0-1.406.756V16.1a1.439,1.439,0,0,0,1.424.791q1.415,0,1.459-2.443Zm7.163-3.621a3.251,3.251,0,0,1,4.8-.264A4.186,4.186,0,0,1,40.852,13v6H37.881V13.067a1.674,1.674,0,0,0-.308-1.112,1.322,1.322,0,0,0-1.046-.356,1.424,1.424,0,0,0-1.292.58V19H32.273V5.5h2.962ZM45.624,19H42.653V9.49h2.971ZM42.478,7.038A1.322,1.322,0,0,1,42.935,6a1.943,1.943,0,0,1,2.373,0,1.322,1.322,0,0,1,.457,1.037,1.322,1.322,0,0,1-.457,1.037,1.943,1.943,0,0,1-2.373,0A1.322,1.322,0,0,1,42.478,7.038ZM52.8,19a3.344,3.344,0,0,1-.281-.853,2.754,2.754,0,0,1-2.285,1.028,3.374,3.374,0,0,1-2.285-.813,2.588,2.588,0,0,1-.94-2.043,2.66,2.66,0,0,1,1.143-2.338,5.821,5.821,0,0,1,3.322-.791h.914v-.5q0-1.31-1.134-1.31A.925.925,0,0,0,50.2,12.417H47.241a2.659,2.659,0,0,1,1.173-2.241,4.927,4.927,0,0,1,2.993-.861,4.323,4.323,0,0,1,2.874.888,3.086,3.086,0,0,1,1.081,2.435v4.21a4.311,4.311,0,0,0,.4,2V19ZM50.95,17.066a1.652,1.652,0,0,0,.918-.237,1.487,1.487,0,0,0,.523-.536V14.772H51.53q-1.547,0-1.547,1.389a.848.848,0,0,0,.272.655A.986.986,0,0,0,50.95,17.066Z" transform="translate(-0.563 -5.5)" fill="#3c3fa7"/>
</svg>
