<svg xmlns="http://www.w3.org/2000/svg" width="41.801" height="16.638" viewBox="0 0 41.801 16.638">
  <path id="Trazado_215873" data-name="Trazado 215873" d="M4.052,16.627h5.37V19H.967V6.2H4.052Zm12.076,1.345a3.054,3.054,0,0,1-2.54,1.2,3,3,0,0,1-2.369-.91,3.826,3.826,0,0,1-.8-2.615V9.49h2.962v6.179a1.065,1.065,0,0,0,1.187,1.222,1.548,1.548,0,0,0,1.45-.729V9.49h2.979V19H16.216Zm8.508-1.081a1.317,1.317,0,0,0,.967-.338,1.241,1.241,0,0,0,.334-.945h2.777a3.288,3.288,0,0,1-1.121,2.566,4.168,4.168,0,0,1-2.887,1,4.22,4.22,0,0,1-3.27-1.3,5.125,5.125,0,0,1-1.2-3.6v-.123a5.792,5.792,0,0,1,.532-2.544,3.872,3.872,0,0,1,1.534-1.7,4.573,4.573,0,0,1,2.373-.593,4.116,4.116,0,0,1,2.944,1.028,3.647,3.647,0,0,1,1.09,2.786H25.937A1.626,1.626,0,0,0,25.576,12a1.244,1.244,0,0,0-.967-.4q-1.151,0-1.345,1.468a10.357,10.357,0,0,0-.062,1.283,4.068,4.068,0,0,0,.343,1.986A1.187,1.187,0,0,0,24.636,16.891Zm9.132-2.039L35.35,9.49h3.173l-3.876,11.1-.167.4a2.944,2.944,0,0,1-2.918,1.846,4.625,4.625,0,0,1-1.222-.176V20.547h.387a2.027,2.027,0,0,0,.954-.18,1.093,1.093,0,0,0,.488-.646l.237-.633-3.3-9.6h3.164Zm7.365,1.274a1.686,1.686,0,0,1,1.169.417,1.457,1.457,0,0,1,0,2.136,1.844,1.844,0,0,1-2.342,0,1.456,1.456,0,0,1,0-2.127A1.672,1.672,0,0,1,41.133,16.126Zm0-7.014A1.686,1.686,0,0,1,42.3,9.53a1.457,1.457,0,0,1,0,2.136,1.844,1.844,0,0,1-2.342,0,1.456,1.456,0,0,1,0-2.127A1.672,1.672,0,0,1,41.133,9.112Z" transform="translate(-0.967 -6.203)" fill="#fc5f65"/>
</svg>
