<svg xmlns="http://www.w3.org/2000/svg" xmlns:xlink="http://www.w3.org/1999/xlink" width="610" height="221" viewBox="0 0 610 221">
  <defs>
    <clipPath id="clip-path">
      <path id="Rectangle_339573" data-name="Rectangle 339573" d="M61,0H549a61,61,0,0,1,61,61v61a0,0,0,0,1,0,0H0a0,0,0,0,1,0,0V61A61,61,0,0,1,61,0Z" transform="translate(495 1651)" fill="#6b8dfc"/>
    </clipPath>
    <clipPath id="clip-path-2">
      <rect id="Rectangle_339763" data-name="Rectangle 339763" width="453" height="221" transform="translate(82.663 24.063)" fill="#fff" stroke="#707070" stroke-width="1"/>
    </clipPath>
  </defs>
  <g id="_7" data-name="7" transform="translate(-495 -1936)">
    <path id="Rectangle_338258" data-name="Rectangle 338258" d="M61,0H549a61,61,0,0,1,61,61v61a0,0,0,0,1,0,0H0a0,0,0,0,1,0,0V61A61,61,0,0,1,61,0Z" transform="translate(495 2035)" fill="#6b8dfc"/>
    <g id="Group_984518" data-name="Group 984518" transform="translate(0 384)">
      <g id="Mask_Group_608" data-name="Mask Group 608" clip-path="url(#clip-path)">
        <g id="Group_984516" data-name="Group 984516" transform="translate(288.392 1099.181)">
          <g id="Group_82657" data-name="Group 82657" transform="translate(146.426 198.288)" style="mix-blend-mode: overlay;isolation: isolate">
            <path id="Path_115694" data-name="Path 115694" d="M584.094,429.091c-32.143,32.89-65.359,64.572-99.209,95.694,14.637-33.09,30.415-65.653,44.311-99.089,15.751-37.907,34.064-89.576,14.2-129.337-45.258-90.63-159.665-1.7-201.768,43.917-4.483,4.863-8.766,9.94-13.1,14.957,15.044-36.839,28.587-74.692,25.011-114.493-4.917-54.725-55.085-67.854-98.275-42.423-46.379,27.3-83.632,74.539-114.734,117.442-26.418,36.439,34.031,71.13,60.242,35.211a473.881,473.881,0,0,1,47.093-55.085q-3.753,6.875-7.585,13.723c-16.9,30.188-33.59,60.5-47.36,92.271C166.555,462.715,127.56,546.94,160.73,610.932c16.718,32.249,55.919,35.525,85.433,22.4,39.674-17.639,67.154-56.58,93.646-89.536,27.653-34.411,52.01-70.95,77.608-106.855,10.694-15,21.382-30.221,33.63-44.017.28-.32.574-.614.854-.927l-.307.967c-6.8,21.135-15.538,41.416-24.391,61.75-16.465,37.833-37.706,77.654-43.737,118.816-5.33,36.4,9.407,77.194,53.184,74.552,41.156-2.482,74.139-42.123,101.651-68.595,33.317-32.062,66.04-64.759,98.769-97.421C671.248,447.964,617.857,394.553,584.094,429.091Z" transform="translate(-127.243 -179.154)" fill="#3c384f"/>
            <path id="Path_115695" data-name="Path 115695" d="M438.471,660.563c-16.151,0-29.861-5.671-39.835-16.531-13.863-15.1-19.854-39.688-16.031-65.779,4.983-34.017,19.821-66.6,34.164-98.1,3.436-7.545,6.838-15.017,10.054-22.409,3.049-7.012,6.258-14.377,9.44-22q-2.922,4.073-5.784,8.1l-1.895,2.662q-9.977,13.99-19.774,28.06c-18.42,26.285-37.466,53.471-58.067,79.1-3.009,3.743-6.031,7.565-9.086,11.428-23.623,29.874-50.4,63.731-87.048,80.023-32.676,14.51-75.473,10.447-94.059-25.424-33.4-64.438,2.662-147.357,29-207.9l2.989-6.885c7.745-17.886,16.431-35.345,25.645-52.724q-3.2,4.173-6.284,8.406c-16.2,22.2-44.585,21.869-62.671,8.713-14.957-10.881-23.35-31.108-8.366-51.776,33.2-45.8,70.329-91.951,116.755-119.277,25.765-15.164,53.965-17.626,75.453-6.585,18.92,9.72,30.588,28.954,32.85,54.165,2.655,29.567-3.729,57.867-12.982,84.866,34.257-33.47,97.615-80.937,148.444-73.745,23.35,3.316,41.422,17.486,53.718,42.11,20.228,40.495,4.27,90.91-14.01,134.881-8.7,20.935-18.266,41.816-27.519,62.017l-3.276,7.145c27.533-25.818,52.163-49.868,74.766-72.991v.007c11.175-11.441,25.371-15.644,39.935-11.862,15.991,4.163,29.661,17.726,34.011,33.764,3.989,14.71-.087,29.08-11.488,40.455l-3.723,3.709c-30.988,30.928-63.031,62.911-95.133,93.792-3.956,3.809-8.019,7.886-12.209,12.089-24.924,24.984-55.939,56.086-93.666,58.361C441.333,660.523,439.892,660.563,438.471,660.563ZM457.611,391.3a6.3,6.3,0,0,1,3.229.861,6.49,6.49,0,0,1,3.149,7.572l-.313.974c-7.125,22.162-16.418,43.517-24.617,62.357-3.249,7.465-6.685,15-10.147,22.609-13.956,30.661-28.393,62.364-33.1,94.513-3.2,21.829,1.654,42.837,12.655,54.818,8.159,8.886,19.42,12.909,33.517,12.108,32.663-1.975,60.482-29.861,85.026-54.471,4.256-4.263,8.386-8.406,12.4-12.275,32.016-30.8,64.018-62.737,94.966-93.626l3.716-3.709c10.087-10.06,9.934-20.514,8.039-27.513-3.089-11.388-13.162-21.4-24.49-24.344-6.9-1.8-17.185-1.815-27.032,8.266v.007c-29.2,29.868-61.737,61.25-99.476,95.934a6.672,6.672,0,0,1-10.614-7.612c5.531-12.509,11.228-24.937,16.925-37.366,9.2-20.094,18.72-40.869,27.326-61.583,17.125-41.189,32.223-88.109,14.4-123.793C532.8,284.266,518.52,272.864,499.5,270.169c-47.387-6.711-114.027,44.338-147.23,80.323-3.543,3.829-6.952,7.805-10.367,11.781l-2.582,3.009a6.671,6.671,0,0,1-11.228-6.878c14.323-35.091,28.02-72.6,24.537-111.385-1.868-20.781-10.741-35.818-25.658-43.484-17.4-8.94-40.8-6.611-62.591,6.211-44.311,26.091-80.363,70.983-112.719,115.614-10.22,14.1-3.909,26.379,5.41,33.157,12.622,9.173,32.343,10.254,44.044-5.791a483.127,483.127,0,0,1,47.753-55.866,6.674,6.674,0,0,1,10.587,7.906q-3.773,6.9-7.625,13.783c-17.105,30.568-33.584,60.583-47.053,91.664l-3,6.9C176.514,475.2,141.916,554.755,172.391,613.55c14.8,28.56,49.842,31.349,76.8,19.373,33.644-14.95,58.227-46.039,82-76.107,3.076-3.883,6.124-7.739,9.16-11.508,20.321-25.291,39.234-52.29,57.534-78.4q9.867-14.09,19.834-28.146l1.895-2.655c10.04-14.1,20.421-28.667,32.182-41.923l.594-.647A7.283,7.283,0,0,1,457.611,391.3Zm132.226,43.477h0Z" transform="translate(-132.979 -184.841)" fill="#3c384f"/>
            <path id="Path_115696" data-name="Path 115696" d="M166.217,226.158c-24.577,49.395-38.447,107.3-16.852,160.392,3.189,7.852,16.1,4.416,12.862-3.549-20.268-49.848-7.605-103.653,15.511-150.112C181.555,225.231,170.047,218.46,166.217,226.158Z" transform="translate(-100.754 30.243)" fill="#3c384f"/>
            <path id="Path_115697" data-name="Path 115697" d="M163.251,275.094c-.113-.013-.22-.047-.327-.067-.187-.36-.354-.754-.414-.86l-.033-.04c-.013-.053.007-.013-.013-.093-.861-2.982-1.474-6-2.128-9.033q-2.261-10.557-4.53-21.115a6.718,6.718,0,0,0-8.206-4.657,6.827,6.827,0,0,0-4.663,8.206q2.562,11.938,5.13,23.883c1.421,6.625,3.7,15.317,11.635,16.645,3.429.574,7.352-.9,8.206-4.663C168.641,280.077,166.933,275.707,163.251,275.094Z" transform="translate(-77.527 122.12)" fill="#3c384f"/>
            <path id="Path_115698" data-name="Path 115698" d="M206.5,202.443c-7.572-4.043-14.317,7.472-6.731,11.521,10.474,5.591,13.67,16.972,14.083,28.153.48,12.7-.947,25.745-3.009,38.247a253.84,253.84,0,0,1-23.156,71.663c-3.809,7.665,7.692,14.43,11.521,6.732a267,267,0,0,0,25.9-84.4C228.246,250.317,232.009,216.06,206.5,202.443Z" transform="translate(172.946 -89.816)" fill="#3c384f"/>
          </g>
          <g id="Group_82660" data-name="Group 82660" transform="translate(130.608 182.47)">
            <g id="Group_82659" data-name="Group 82659">
              <g id="Group_82658" data-name="Group 82658">
                <path id="Path_115699" data-name="Path 115699" d="M581.728,426.722c-32.142,32.89-65.359,64.572-99.216,95.687,14.637-33.083,30.421-65.653,44.318-99.083,15.751-37.907,34.057-89.576,14.2-129.337-45.258-90.63-159.665-1.708-201.768,43.917-4.49,4.857-8.766,9.934-13.1,14.957,15.037-36.839,28.58-74.692,25.011-114.494-4.917-54.725-55.085-67.854-98.276-42.43-46.386,27.306-83.632,74.546-114.74,117.449-26.418,36.439,34.037,71.13,60.249,35.211a474.421,474.421,0,0,1,47.086-55.092q-3.753,6.875-7.579,13.73c-16.9,30.188-33.59,60.5-47.36,92.265-26.372,60.843-65.359,145.062-32.189,209.06,16.718,32.249,55.912,35.525,85.433,22.4,39.674-17.639,67.154-56.58,93.645-89.536,27.653-34.411,52-70.95,77.6-106.855,10.7-15,21.388-30.221,33.63-44.024.28-.314.58-.607.861-.927l-.307.974c-6.8,21.135-15.544,41.416-24.39,61.75-16.472,37.827-37.706,77.648-43.737,118.817-5.337,36.4,9.407,77.194,53.184,74.552,41.149-2.482,74.132-42.123,101.645-68.595,33.323-32.062,66.046-64.765,98.776-97.428C668.875,445.6,615.485,392.184,581.728,426.722Z" transform="translate(-124.877 -176.784)" fill="#6b8dfc"/>
                <path id="Path_115700" data-name="Path 115700" d="M436.093,658.185c-16.151,0-29.854-5.664-39.828-16.525-13.863-15.1-19.854-39.688-16.031-65.786,4.977-34.01,19.814-66.593,34.164-98.1,3.429-7.545,6.831-15.01,10.054-22.4,3.049-7.012,6.258-14.377,9.44-22-1.948,2.709-3.876,5.417-5.784,8.1l-1.895,2.655c-6.651,9.327-13.216,18.7-19.781,28.06-18.413,26.292-37.46,53.477-58.061,79.1q-4.513,5.624-9.086,11.435c-23.623,29.868-50.4,63.725-87.048,80.023-32.683,14.51-75.473,10.441-94.059-25.431-33.4-64.432,2.662-147.35,28.994-207.9l3-6.878c7.745-17.886,16.431-35.345,25.638-52.724q-3.192,4.173-6.284,8.4c-16.2,22.209-44.578,21.875-62.664,8.719-14.957-10.881-23.35-31.108-8.366-51.776,33.2-45.8,70.329-91.951,116.748-119.283,25.771-15.157,53.965-17.619,75.46-6.578,18.92,9.72,30.581,28.947,32.85,54.158,2.655,29.567-3.729,57.874-12.989,84.866,34.264-33.464,97.615-80.93,148.444-73.738,23.35,3.315,41.429,17.485,53.724,42.109,20.221,40.5,4.263,90.9-14.01,134.881-8.7,20.928-18.266,41.816-27.519,62.01l-3.276,7.145c27.533-25.811,52.163-49.862,74.766-72.984h0c11.174-11.441,25.371-15.638,39.935-11.855,15.991,4.163,29.661,17.726,34,33.764,4,14.71-.08,29.074-11.481,40.448l-3.723,3.716c-30.988,30.928-63.031,62.9-95.133,93.792-3.956,3.809-8.019,7.886-12.215,12.088-24.917,24.984-55.933,56.086-93.659,58.361C438.955,658.145,437.521,658.185,436.093,658.185Zm19.14-269.262a6.288,6.288,0,0,1,3.229.867,6.482,6.482,0,0,1,3.156,7.572l-.314.974c-7.125,22.156-16.418,43.517-24.617,62.357-3.249,7.459-6.685,15-10.147,22.609-13.963,30.662-28.4,62.364-33.11,94.506-3.2,21.829,1.654,42.837,12.662,54.825,8.152,8.879,19.42,12.909,33.517,12.108,32.663-1.975,60.483-29.861,85.02-54.471,4.256-4.27,8.392-8.413,12.409-12.275,32.016-30.8,64.018-62.737,94.967-93.626l3.716-3.716c10.08-10.054,9.934-20.508,8.032-27.513-3.089-11.381-13.156-21.4-24.491-24.337-6.9-1.8-17.179-1.815-27.026,8.266h0c-29.2,29.868-61.737,61.25-99.476,95.941a6.672,6.672,0,0,1-10.614-7.612c5.53-12.509,11.228-24.938,16.918-37.373,9.206-20.087,18.72-40.862,27.333-61.576,17.119-41.189,32.223-88.108,14.4-123.8-10.367-20.754-24.651-32.156-43.664-34.858-47.387-6.7-114.033,44.344-147.237,80.323-3.536,3.836-6.945,7.812-10.361,11.782l-2.588,3.015a6.674,6.674,0,0,1-11.228-6.885c14.33-35.085,28.026-72.6,24.544-111.378-1.868-20.788-10.741-35.825-25.658-43.49-17.406-8.933-40.8-6.6-62.591,6.218-44.318,26.085-80.363,70.983-112.719,115.614-10.227,14.1-3.909,26.372,5.41,33.15,12.622,9.18,32.343,10.26,44.044-5.784A481.918,481.918,0,0,1,246.5,294.491a6.669,6.669,0,0,1,10.581,7.9q-3.773,6.915-7.619,13.79c-17.112,30.568-33.583,60.583-47.06,91.664l-3,6.9c-25.264,58.087-59.862,137.643-29.387,196.431,14.8,28.567,49.842,31.355,76.8,19.38,33.644-14.951,58.227-46.046,82-76.107q4.613-5.834,9.153-11.515c20.328-25.285,39.241-52.283,57.54-78.4,6.578-9.393,13.163-18.793,19.834-28.153l1.895-2.649c10.04-14.1,20.421-28.673,32.176-41.923l.6-.647A7.275,7.275,0,0,1,455.233,388.923Zm132.226,43.484h0Z" transform="translate(-130.608 -182.47)"/>
              </g>
              <path id="Path_115701" data-name="Path 115701" d="M163.849,223.788c-24.584,49.395-38.447,107.3-16.859,160.392,3.2,7.846,16.1,4.416,12.869-3.549-20.274-49.855-7.612-103.653,15.511-150.112C179.18,222.855,167.679,216.09,163.849,223.788Z" transform="translate(-98.386 32.614)"/>
              <path id="Path_115702" data-name="Path 115702" d="M160.88,272.723c-.113-.013-.22-.047-.327-.067-.187-.367-.36-.754-.42-.861l-.027-.04c-.013-.053.007-.02-.013-.1-.861-2.975-1.481-6-2.128-9.026q-2.272-10.557-4.53-21.115a6.722,6.722,0,0,0-8.212-4.657,6.826,6.826,0,0,0-4.657,8.206l5.124,23.877c1.428,6.631,3.7,15.324,11.641,16.652,3.429.567,7.352-.9,8.206-4.663C166.27,277.706,164.556,273.336,160.88,272.723Z" transform="translate(-75.156 124.491)"/>
              <path id="Path_115703" data-name="Path 115703" d="M204.128,200.073c-7.572-4.043-14.323,7.472-6.731,11.521,10.474,5.591,13.663,16.972,14.083,28.146.48,12.7-.947,25.751-3.009,38.253a253.837,253.837,0,0,1-23.156,71.664c-3.816,7.665,7.692,14.43,11.521,6.731a267.27,267.27,0,0,0,25.9-84.4C225.877,247.939,229.64,213.682,204.128,200.073Z" transform="translate(175.315 -87.444)"/>
            </g>
          </g>
        </g>
        <g id="Group_984517" data-name="Group 984517" transform="translate(829.951 1342.168)">
          <g id="Group_82657-2" data-name="Group 82657" transform="translate(146.426 198.288)" style="mix-blend-mode: overlay;isolation: isolate">
            <path id="Path_115694-2" data-name="Path 115694" d="M584.094,429.091c-32.143,32.89-65.359,64.572-99.209,95.694,14.637-33.09,30.415-65.653,44.311-99.089,15.751-37.907,34.064-89.576,14.2-129.337-45.258-90.63-159.665-1.7-201.768,43.917-4.483,4.863-8.766,9.94-13.1,14.957,15.044-36.839,28.587-74.692,25.011-114.493-4.917-54.725-55.085-67.854-98.275-42.423-46.379,27.3-83.632,74.539-114.734,117.442-26.418,36.439,34.031,71.13,60.242,35.211a473.881,473.881,0,0,1,47.093-55.085q-3.753,6.875-7.585,13.723c-16.9,30.188-33.59,60.5-47.36,92.271C166.555,462.715,127.56,546.94,160.73,610.932c16.718,32.249,55.919,35.525,85.433,22.4,39.674-17.639,67.154-56.58,93.646-89.536,27.653-34.411,52.01-70.95,77.608-106.855,10.694-15,21.382-30.221,33.63-44.017.28-.32.574-.614.854-.927l-.307.967c-6.8,21.135-15.538,41.416-24.391,61.75-16.465,37.833-37.706,77.654-43.737,118.816-5.33,36.4,9.407,77.194,53.184,74.552,41.156-2.482,74.139-42.123,101.651-68.595,33.317-32.062,66.04-64.759,98.769-97.421C671.248,447.964,617.857,394.553,584.094,429.091Z" transform="translate(-127.243 -179.154)" fill="#3c384f"/>
            <path id="Path_115695-2" data-name="Path 115695" d="M438.471,660.563c-16.151,0-29.861-5.671-39.835-16.531-13.863-15.1-19.854-39.688-16.031-65.779,4.983-34.017,19.821-66.6,34.164-98.1,3.436-7.545,6.838-15.017,10.054-22.409,3.049-7.012,6.258-14.377,9.44-22q-2.922,4.073-5.784,8.1l-1.895,2.662q-9.977,13.99-19.774,28.06c-18.42,26.285-37.466,53.471-58.067,79.1-3.009,3.743-6.031,7.565-9.086,11.428-23.623,29.874-50.4,63.731-87.048,80.023-32.676,14.51-75.473,10.447-94.059-25.424-33.4-64.438,2.662-147.357,29-207.9l2.989-6.885c7.745-17.886,16.431-35.345,25.645-52.724q-3.2,4.173-6.284,8.406c-16.2,22.2-44.585,21.869-62.671,8.713-14.957-10.881-23.35-31.108-8.366-51.776,33.2-45.8,70.329-91.951,116.755-119.277,25.765-15.164,53.965-17.626,75.453-6.585,18.92,9.72,30.588,28.954,32.85,54.165,2.655,29.567-3.729,57.867-12.982,84.866,34.257-33.47,97.615-80.937,148.444-73.745,23.35,3.316,41.422,17.486,53.718,42.11,20.228,40.495,4.27,90.91-14.01,134.881-8.7,20.935-18.266,41.816-27.519,62.017l-3.276,7.145c27.533-25.818,52.163-49.868,74.766-72.991v.007c11.175-11.441,25.371-15.644,39.935-11.862,15.991,4.163,29.661,17.726,34.011,33.764,3.989,14.71-.087,29.08-11.488,40.455l-3.723,3.709c-30.988,30.928-63.031,62.911-95.133,93.792-3.956,3.809-8.019,7.886-12.209,12.089-24.924,24.984-55.939,56.086-93.666,58.361C441.333,660.523,439.892,660.563,438.471,660.563ZM457.611,391.3a6.3,6.3,0,0,1,3.229.861,6.49,6.49,0,0,1,3.149,7.572l-.313.974c-7.125,22.162-16.418,43.517-24.617,62.357-3.249,7.465-6.685,15-10.147,22.609-13.956,30.661-28.393,62.364-33.1,94.513-3.2,21.829,1.654,42.837,12.655,54.818,8.159,8.886,19.42,12.909,33.517,12.108,32.663-1.975,60.482-29.861,85.026-54.471,4.256-4.263,8.386-8.406,12.4-12.275,32.016-30.8,64.018-62.737,94.966-93.626l3.716-3.709c10.087-10.06,9.934-20.514,8.039-27.513-3.089-11.388-13.162-21.4-24.49-24.344-6.9-1.8-17.185-1.815-27.032,8.266v.007c-29.2,29.868-61.737,61.25-99.476,95.934a6.672,6.672,0,0,1-10.614-7.612c5.531-12.509,11.228-24.937,16.925-37.366,9.2-20.094,18.72-40.869,27.326-61.583,17.125-41.189,32.223-88.109,14.4-123.793C532.8,284.266,518.52,272.864,499.5,270.169c-47.387-6.711-114.027,44.338-147.23,80.323-3.543,3.829-6.952,7.805-10.367,11.781l-2.582,3.009a6.671,6.671,0,0,1-11.228-6.878c14.323-35.091,28.02-72.6,24.537-111.385-1.868-20.781-10.741-35.818-25.658-43.484-17.4-8.94-40.8-6.611-62.591,6.211-44.311,26.091-80.363,70.983-112.719,115.614-10.22,14.1-3.909,26.379,5.41,33.157,12.622,9.173,32.343,10.254,44.044-5.791a483.127,483.127,0,0,1,47.753-55.866,6.674,6.674,0,0,1,10.587,7.906q-3.773,6.9-7.625,13.783c-17.105,30.568-33.584,60.583-47.053,91.664l-3,6.9C176.514,475.2,141.916,554.755,172.391,613.55c14.8,28.56,49.842,31.349,76.8,19.373,33.644-14.95,58.227-46.039,82-76.107,3.076-3.883,6.124-7.739,9.16-11.508,20.321-25.291,39.234-52.29,57.534-78.4q9.867-14.09,19.834-28.146l1.895-2.655c10.04-14.1,20.421-28.667,32.182-41.923l.594-.647A7.283,7.283,0,0,1,457.611,391.3Zm132.226,43.477h0Z" transform="translate(-132.979 -184.841)" fill="#3c384f"/>
            <path id="Path_115696-2" data-name="Path 115696" d="M166.217,226.158c-24.577,49.395-38.447,107.3-16.852,160.392,3.189,7.852,16.1,4.416,12.862-3.549-20.268-49.848-7.605-103.653,15.511-150.112C181.555,225.231,170.047,218.46,166.217,226.158Z" transform="translate(-100.754 30.243)" fill="#3c384f"/>
            <path id="Path_115697-2" data-name="Path 115697" d="M163.251,275.094c-.113-.013-.22-.047-.327-.067-.187-.36-.354-.754-.414-.86l-.033-.04c-.013-.053.007-.013-.013-.093-.861-2.982-1.474-6-2.128-9.033q-2.261-10.557-4.53-21.115a6.718,6.718,0,0,0-8.206-4.657,6.827,6.827,0,0,0-4.663,8.206q2.562,11.938,5.13,23.883c1.421,6.625,3.7,15.317,11.635,16.645,3.429.574,7.352-.9,8.206-4.663C168.641,280.077,166.933,275.707,163.251,275.094Z" transform="translate(-77.527 122.12)" fill="#3c384f"/>
            <path id="Path_115698-2" data-name="Path 115698" d="M206.5,202.443c-7.572-4.043-14.317,7.472-6.731,11.521,10.474,5.591,13.67,16.972,14.083,28.153.48,12.7-.947,25.745-3.009,38.247a253.84,253.84,0,0,1-23.156,71.663c-3.809,7.665,7.692,14.43,11.521,6.732a267,267,0,0,0,25.9-84.4C228.246,250.317,232.009,216.06,206.5,202.443Z" transform="translate(172.946 -89.816)" fill="#3c384f"/>
          </g>
          <g id="Group_82660-2" data-name="Group 82660" transform="translate(130.608 182.47)">
            <g id="Group_82659-2" data-name="Group 82659">
              <g id="Group_82658-2" data-name="Group 82658">
                <path id="Path_115699-2" data-name="Path 115699" d="M581.728,426.722c-32.142,32.89-65.359,64.572-99.216,95.687,14.637-33.083,30.421-65.653,44.318-99.083,15.751-37.907,34.057-89.576,14.2-129.337-45.258-90.63-159.665-1.708-201.768,43.917-4.49,4.857-8.766,9.934-13.1,14.957,15.037-36.839,28.58-74.692,25.011-114.494-4.917-54.725-55.085-67.854-98.276-42.43-46.386,27.306-83.632,74.546-114.74,117.449-26.418,36.439,34.037,71.13,60.249,35.211a474.421,474.421,0,0,1,47.086-55.092q-3.753,6.875-7.579,13.73c-16.9,30.188-33.59,60.5-47.36,92.265-26.372,60.843-65.359,145.062-32.189,209.06,16.718,32.249,55.912,35.525,85.433,22.4,39.674-17.639,67.154-56.58,93.645-89.536,27.653-34.411,52-70.95,77.6-106.855,10.7-15,21.388-30.221,33.63-44.024.28-.314.58-.607.861-.927l-.307.974c-6.8,21.135-15.544,41.416-24.39,61.75-16.472,37.827-37.706,77.648-43.737,118.817-5.337,36.4,9.407,77.194,53.184,74.552,41.149-2.482,74.132-42.123,101.645-68.595,33.323-32.062,66.046-64.765,98.776-97.428C668.875,445.6,615.485,392.184,581.728,426.722Z" transform="translate(-124.877 -176.784)" fill="#6b8dfc"/>
                <path id="Path_115700-2" data-name="Path 115700" d="M436.093,658.185c-16.151,0-29.854-5.664-39.828-16.525-13.863-15.1-19.854-39.688-16.031-65.786,4.977-34.01,19.814-66.593,34.164-98.1,3.429-7.545,6.831-15.01,10.054-22.4,3.049-7.012,6.258-14.377,9.44-22-1.948,2.709-3.876,5.417-5.784,8.1l-1.895,2.655c-6.651,9.327-13.216,18.7-19.781,28.06-18.413,26.292-37.46,53.477-58.061,79.1q-4.513,5.624-9.086,11.435c-23.623,29.868-50.4,63.725-87.048,80.023-32.683,14.51-75.473,10.441-94.059-25.431-33.4-64.432,2.662-147.35,28.994-207.9l3-6.878c7.745-17.886,16.431-35.345,25.638-52.724q-3.192,4.173-6.284,8.4c-16.2,22.209-44.578,21.875-62.664,8.719-14.957-10.881-23.35-31.108-8.366-51.776,33.2-45.8,70.329-91.951,116.748-119.283,25.771-15.157,53.965-17.619,75.46-6.578,18.92,9.72,30.581,28.947,32.85,54.158,2.655,29.567-3.729,57.874-12.989,84.866,34.264-33.464,97.615-80.93,148.444-73.738,23.35,3.315,41.429,17.485,53.724,42.109,20.221,40.5,4.263,90.9-14.01,134.881-8.7,20.928-18.266,41.816-27.519,62.01l-3.276,7.145c27.533-25.811,52.163-49.862,74.766-72.984h0c11.174-11.441,25.371-15.638,39.935-11.855,15.991,4.163,29.661,17.726,34,33.764,4,14.71-.08,29.074-11.481,40.448l-3.723,3.716c-30.988,30.928-63.031,62.9-95.133,93.792-3.956,3.809-8.019,7.886-12.215,12.088-24.917,24.984-55.933,56.086-93.659,58.361C438.955,658.145,437.521,658.185,436.093,658.185Zm19.14-269.262a6.288,6.288,0,0,1,3.229.867,6.482,6.482,0,0,1,3.156,7.572l-.314.974c-7.125,22.156-16.418,43.517-24.617,62.357-3.249,7.459-6.685,15-10.147,22.609-13.963,30.662-28.4,62.364-33.11,94.506-3.2,21.829,1.654,42.837,12.662,54.825,8.152,8.879,19.42,12.909,33.517,12.108,32.663-1.975,60.483-29.861,85.02-54.471,4.256-4.27,8.392-8.413,12.409-12.275,32.016-30.8,64.018-62.737,94.967-93.626l3.716-3.716c10.08-10.054,9.934-20.508,8.032-27.513-3.089-11.381-13.156-21.4-24.491-24.337-6.9-1.8-17.179-1.815-27.026,8.266h0c-29.2,29.868-61.737,61.25-99.476,95.941a6.672,6.672,0,0,1-10.614-7.612c5.53-12.509,11.228-24.938,16.918-37.373,9.206-20.087,18.72-40.862,27.333-61.576,17.119-41.189,32.223-88.108,14.4-123.8-10.367-20.754-24.651-32.156-43.664-34.858-47.387-6.7-114.033,44.344-147.237,80.323-3.536,3.836-6.945,7.812-10.361,11.782l-2.588,3.015a6.674,6.674,0,0,1-11.228-6.885c14.33-35.085,28.026-72.6,24.544-111.378-1.868-20.788-10.741-35.825-25.658-43.49-17.406-8.933-40.8-6.6-62.591,6.218-44.318,26.085-80.363,70.983-112.719,115.614-10.227,14.1-3.909,26.372,5.41,33.15,12.622,9.18,32.343,10.26,44.044-5.784A481.918,481.918,0,0,1,246.5,294.491a6.669,6.669,0,0,1,10.581,7.9q-3.773,6.915-7.619,13.79c-17.112,30.568-33.583,60.583-47.06,91.664l-3,6.9c-25.264,58.087-59.862,137.643-29.387,196.431,14.8,28.567,49.842,31.355,76.8,19.38,33.644-14.951,58.227-46.046,82-76.107q4.613-5.834,9.153-11.515c20.328-25.285,39.241-52.283,57.54-78.4,6.578-9.393,13.163-18.793,19.834-28.153l1.895-2.649c10.04-14.1,20.421-28.673,32.176-41.923l.6-.647A7.275,7.275,0,0,1,455.233,388.923Zm132.226,43.484h0Z" transform="translate(-130.608 -182.47)"/>
              </g>
              <path id="Path_115701-2" data-name="Path 115701" d="M163.849,223.788c-24.584,49.395-38.447,107.3-16.859,160.392,3.2,7.846,16.1,4.416,12.869-3.549-20.274-49.855-7.612-103.653,15.511-150.112C179.18,222.855,167.679,216.09,163.849,223.788Z" transform="translate(-98.386 32.614)"/>
              <path id="Path_115702-2" data-name="Path 115702" d="M160.88,272.723c-.113-.013-.22-.047-.327-.067-.187-.367-.36-.754-.42-.861l-.027-.04c-.013-.053.007-.02-.013-.1-.861-2.975-1.481-6-2.128-9.026q-2.272-10.557-4.53-21.115a6.722,6.722,0,0,0-8.212-4.657,6.826,6.826,0,0,0-4.657,8.206l5.124,23.877c1.428,6.631,3.7,15.324,11.641,16.652,3.429.567,7.352-.9,8.206-4.663C166.27,277.706,164.556,273.336,160.88,272.723Z" transform="translate(-75.156 124.491)"/>
              <path id="Path_115703-2" data-name="Path 115703" d="M204.128,200.073c-7.572-4.043-14.323,7.472-6.731,11.521,10.474,5.591,13.663,16.972,14.083,28.146.48,12.7-.947,25.751-3.009,38.253a253.837,253.837,0,0,1-23.156,71.664c-3.816,7.665,7.692,14.43,11.521,6.731a267.27,267.27,0,0,0,25.9-84.4C225.877,247.939,229.64,213.682,204.128,200.073Z" transform="translate(175.315 -87.444)"/>
            </g>
          </g>
        </g>
      </g>
      <g id="Mask_Group_639" data-name="Mask Group 639" transform="translate(491.337 1527.937)" clip-path="url(#clip-path-2)">
        <g id="Group_985522" data-name="Group 985522" transform="translate(100.615 21.641)">
          <g id="Group_985501" data-name="Group 985501" transform="translate(0 13.372)">
            <g id="Group_985500" data-name="Group 985500">
              <g id="Group_985474" data-name="Group 985474" transform="translate(40.9 95.682)">
                <path id="Path_213285" data-name="Path 213285" d="M978.983,448.737c1.644,2.052,74.508,30.957,109.132-7.653l1.4-160.652-25.65-30.48-31.485.3L982.758,340.8Z" transform="translate(-978.983 -249.952)" fill="#fff"/>
                <g id="Group_985473" data-name="Group 985473" transform="translate(84.878)">
                  <path id="Path_213286" data-name="Path 213286" d="M953.833,270.712s28.887,15.205,16.438,120.43l15.95,45.643H944.81L936.178,332.6Z" transform="translate(-921.562 -251.793)" fill="#a8527e"/>
                  <g id="Group_985472" data-name="Group 985472">
                    <path id="Path_213287" data-name="Path 213287" d="M977.526,297.476l2.214,142.308c8.023,9.875,18.391,8.953,18.391,8.953s9.654-174.283,3.48-178.99c-13.175-10.045-33.439-19.795-33.439-19.795Z" transform="translate(-968.173 -249.952)" fill="#a8527e"/>
                    <g id="Group_985471" data-name="Group 985471" transform="translate(29.829 66.387)">
                      <path id="Path_213288" data-name="Path 213288" d="M967.43,442.411a1.007,1.007,0,0,0,1-.962l5.255-117.6a1.006,1.006,0,0,0-2.009-.089l-5.255,117.6a1,1,0,0,0,.96,1.05Z" transform="translate(-966.424 -322.799)" fill="#8c3b68"/>
                    </g>
                    <path id="Path_213289" data-name="Path 213289" d="M971.481,269.747l5.952,27.73L994.3,311.731a3.806,3.806,0,0,0,6.232-3.389l-1.854-14.514a31.745,31.745,0,0,0-4.949-13.4L975.9,249.952Z" transform="translate(-968.079 -249.952)" fill="#f78b9a"/>
                  </g>
                </g>
              </g>
              <g id="Group_985487" data-name="Group 985487" transform="translate(87.899)">
                <path id="Path_213290" data-name="Path 213290" d="M982.179,152.493a.639.639,0,0,1,.326.009,5.954,5.954,0,0,1,4.375,7.385c-1.334,6.119-21.189,18.552-34.779,10.822l4.971-13.371Z" transform="translate(-899.049 -145.626)" fill="#913969"/>
                <path id="Path_213291" data-name="Path 213291" d="M965.033,207.234a9.244,9.244,0,1,0,6.981-11.053A9.244,9.244,0,0,0,965.033,207.234Z" transform="translate(-906.846 -149.481)" fill="#d68a65"/>
                <path id="Path_213292" data-name="Path 213292" d="M1032.4,228.829l-8.165,36.537-23.955-8.951a8.992,8.992,0,0,1-5.453-11.048l13.672-44.8Z" transform="translate(-982.956 -149.89)" fill="#edb892"/>
                <path id="Path_213293" data-name="Path 213293" d="M1009.808,244.079s-15.83-1.738-14.467-20.348L1012,234.4Z" transform="translate(-963.302 -151.945)" fill="#d68a65"/>
                <path id="Path_213294" data-name="Path 213294" d="M1022.687,173.021s4.945,31.321.031,43.322-15.347,19.036-31.125,14.758c0,0-18.472-2.251-21.144-30.1C966.428,159.066,1004.976,149.574,1022.687,173.021Z" transform="translate(-953.321 -146.335)" fill="#edb892"/>
                <path id="Path_213295" data-name="Path 213295" d="M992.458,194.883s3.225-5.106-.033-18.951,34.237-13.479,43.125-3.278c0,0-5.976-15.455-28.373-16.269s-40.519,13.468-32.782,38.5l5.5,8.753Z" transform="translate(-966.184 -145.969)" fill="#171717"/>
                <path id="Path_213296" data-name="Path 213296" d="M980.478,190.41s-1.721,18.251,13.841,21.482c9.931,2.061,19.983-5.235,29.354,1.294,0,0-3.683,27.584-31.969,20.933a23.963,23.963,0,0,1-10.215-5.262c-5.743-4.985-13.983-15.143-9.089-29.782Z" transform="translate(-952.785 -148.99)" fill="#171717"/>
                <g id="Group_985476" data-name="Group 985476" transform="translate(0 42.005)">
                  <circle id="Ellipse_4944" data-name="Ellipse 4944" cx="11.218" cy="11.218" r="11.218" transform="translate(21.691 27.424) rotate(-165.196)" fill="#edb892"/>
                  <g id="Group_985475" data-name="Group 985475" transform="translate(8.244 9.282)">
                    <path id="Path_213297" data-name="Path 213297" d="M1037.9,210.113a.633.633,0,0,0,.109-.009.657.657,0,0,0,.54-.757,9.481,9.481,0,0,0-3.777-6.623,9.733,9.733,0,0,0-6.909-1.335.658.658,0,0,0,.27,1.289,8.528,8.528,0,0,1,5.906,1.14,8.237,8.237,0,0,1,3.213,5.746A.656.656,0,0,0,1037.9,210.113Z" transform="translate(-1027.34 -201.237)" fill="#d68a65"/>
                  </g>
                </g>
                <g id="Group_985483" data-name="Group 985483" transform="translate(23.257 33.044)">
                  <path id="Path_213298" data-name="Path 213298" d="M972.665,199.837a2.115,2.115,0,1,0,1.69-2.468A2.116,2.116,0,0,0,972.665,199.837Z" transform="translate(-930.797 -182.648)" fill="#171717"/>
                  <path id="Path_213299" data-name="Path 213299" d="M992.258,198.816a2.115,2.115,0,1,0,1.691-2.469A2.115,2.115,0,0,0,992.258,198.816Z" transform="translate(-968.245 -182.557)" fill="#171717"/>
                  <g id="Group_985477" data-name="Group 985477" transform="translate(36.495 18.258)">
                    <path id="Path_213300" data-name="Path 213300" d="M978.563,210.082a.656.656,0,0,0,.3-.075l3.445-1.806a.658.658,0,0,0,.258-.922l-3.445-5.707a.658.658,0,1,0-1.126.68l3.083,5.108-2.825,1.482a.657.657,0,0,0,.306,1.24Z" transform="translate(-977.903 -201.253)" fill="#d68a65"/>
                  </g>
                  <path id="Path_213301" data-name="Path 213301" d="M1005.808,184.234h0a2.913,2.913,0,0,1-2.992,3.119,33.461,33.461,0,0,0-9.966,1.094,2.539,2.539,0,0,1-3.15-1.6h0a2.652,2.652,0,0,1,1.408-3.127,16.69,16.69,0,0,1,12.162-2.178A2.993,2.993,0,0,1,1005.808,184.234Z" transform="translate(-975.195 -181.218)" fill="#171717"/>
                  <path id="Path_213302" data-name="Path 213302" d="M968.63,184.982h0c.06,1.684,1.087,3.165,2.218,3.194a16.383,16.383,0,0,1,6.638,1.526c.9.437,1.761-.168,1.942-1.429h0a3.587,3.587,0,0,0-1.177-3.129c-1.653-1.411-4.248-3.479-8.17-2.689C969.2,182.632,968.582,183.627,968.63,184.982Z" transform="translate(-929.751 -181.313)" fill="#171717"/>
                  <g id="Group_985482" data-name="Group 985482" transform="translate(0 3.17)">
                    <path id="Path_213303" data-name="Path 213303" d="M1008.192,196.7a10.954,10.954,0,1,1-10.822-11.318A11.073,11.073,0,0,1,1008.192,196.7Z" transform="translate(-974.578 -184.757)" fill="#fff" opacity="0.26"/>
                    <path id="Path_213304" data-name="Path 213304" d="M977.239,196.965c-.068,5.935-4.325,10.7-9.509,10.639s-9.329-4.919-9.261-10.855,4.326-10.7,9.509-10.639S977.308,191.029,977.239,196.965Z" transform="translate(-918.273 -184.822)" fill="#fff" opacity="0.26"/>
                    <g id="Group_985478" data-name="Group 985478" transform="translate(11.084)">
                      <path id="Path_213305" data-name="Path 213305" d="M997.178,208.332a11.387,11.387,0,0,0,8.1-3.372,11.993,11.993,0,0,0,.192-16.7,11.412,11.412,0,0,0-16.382-.189,11.99,11.99,0,0,0-.192,16.7,11.383,11.383,0,0,0,8.151,3.56Zm10.326-11.7a10.616,10.616,0,0,1-3.115,7.44,10.266,10.266,0,0,1-7.331,3.006,10.141,10.141,0,0,1-7.26-3.174,10.739,10.739,0,0,1,.172-14.95,10.16,10.16,0,0,1,14.592.169A10.613,10.613,0,0,1,1007.5,196.633Z" transform="translate(-985.602 -184.697)" fill="#fff"/>
                    </g>
                    <g id="Group_985479" data-name="Group 985479" transform="translate(39.569 0.661)">
                      <path id="Path_213306" data-name="Path 213306" d="M967.766,208.169c5.473,0,9.967-5.026,10.039-11.258.072-6.271-4.36-11.424-9.881-11.488h-.1c-5.474,0-9.968,5.026-10.04,11.258-.071,6.271,4.362,11.425,9.881,11.488Zm.056-21.5h.088c4.83.056,8.707,4.641,8.642,10.221s-4.069,10.109-8.875,10.02c-4.828-.056-8.706-4.641-8.642-10.221C959.1,191.149,963.033,186.674,967.822,186.674Z" transform="translate(-957.781 -185.422)" fill="#fff"/>
                    </g>
                    <g id="Group_985480" data-name="Group 985480" transform="translate(32.987 10.088)">
                      <path id="Path_213307" data-name="Path 213307" d="M979.005,198.248a.622.622,0,0,0,.4-.144h0a4.528,4.528,0,0,1,5.78-.021.626.626,0,1,0,.808-.957,5.722,5.722,0,0,0-7.387.015.626.626,0,0,0,.4,1.107Z" transform="translate(-978.379 -195.766)" fill="#fff"/>
                    </g>
                    <g id="Group_985481" data-name="Group 985481" transform="translate(0 11.064)">
                      <path id="Path_213308" data-name="Path 213308" d="M1010.262,199.717a.52.52,0,0,0,.091-.007l11.085-1.625a.626.626,0,0,0-.181-1.239l-11.085,1.626a.626.626,0,0,0,.09,1.246Z" transform="translate(-1009.636 -196.838)" fill="#fff"/>
                    </g>
                  </g>
                  <path id="Path_213309" data-name="Path 213309" d="M990.138,216.75l-9.782.162s-.023,3.024,4.963,2.974S990.138,216.75,990.138,216.75Z" transform="translate(-951.118 -184.369)" fill="#fff"/>
                </g>
                <g id="Group_985486" data-name="Group 985486" transform="translate(4.692)">
                  <path id="Path_213310" data-name="Path 213310" d="M1023.159,151.655a4.518,4.518,0,1,0,3.764-5.162A4.517,4.517,0,0,0,1023.159,151.655Z" transform="translate(-1013.51 -145.09)" fill="#a8527e"/>
                  <g id="Group_985485" data-name="Group 985485" transform="translate(0)">
                    <g id="Group_985484" data-name="Group 985484">
                      <path id="Path_213311" data-name="Path 213311" d="M1001.312,147.441c-16.368,6.58-24.708,24.2-18.707,39.432l55.364-30.891C1029.761,145.845,1014.9,141.978,1001.312,147.441Z" transform="translate(-980.659 -144.959)" fill="#f78b9a"/>
                    </g>
                  </g>
                  <path id="Path_213312" data-name="Path 213312" d="M957.428,176.5s14.219-18.821,34.709-20.907l22.047-3.111s-17.048,6.293-23.791,13.525S965.632,178.6,957.428,176.5Z" transform="translate(-935.704 -145.626)" fill="#a8527e"/>
                </g>
                <path id="Path_213313" data-name="Path 213313" d="M1030.759,269.727l1.864,8.684s-15.706,10.134-28.055-6.307l-3.217-22.376Z" transform="translate(-989.477 -154.25)" fill="#edb892"/>
              </g>
              <g id="Group_985499" data-name="Group 985499" transform="translate(0 88.266)">
                <g id="Group_985488" data-name="Group 985488" transform="translate(24.285)">
                  <path id="Path_213314" data-name="Path 213314" d="M1110.409,297.953s1.741,127.083-13.047,138.979c-27.335,21.989-69.37,18.507-69.37,18.507s9.177-68.047,20.943-149.266l-2.262-45.683s23.058-12.625,51.327-10.237Z" transform="translate(-1027.992 -242.536)" fill="#a8527e"/>
                  <path id="Path_213315" data-name="Path 213315" d="M1049.042,249.026s13.058,28.683,6.931,48.205c-1.757,5.6-18.426,14.53-18.426,14.53a6.687,6.687,0,0,1-11.232-5.638l5.986-51.372c.969-8.315,8.793-14.375,16.982-12.639q.842.179,1.737.429Z" transform="translate(-973.555 -241.814)" fill="#f78b9a"/>
                </g>
                <g id="Group_985498" data-name="Group 985498" transform="translate(0 16.879)">
                  <g id="Group_985490" data-name="Group 985490">
                    <path id="Path_213316" data-name="Path 213316" d="M1120.513,260.335s34.752,32.561,8.8,99.285l-4.358,23.587a24.211,24.211,0,0,1-29.488,19.136h0c-12.211-2.947-21.995-14.735-20.094-27.151C1080.907,339.056,1088.641,272.84,1120.513,260.335Z" transform="translate(-1075.139 -260.335)" fill="#a8527e"/>
                    <g id="Group_985489" data-name="Group 985489" transform="translate(52.384 51.214)">
                      <path id="Path_213317" data-name="Path 213317" d="M1071.862,369.873a1.006,1.006,0,0,0,.973-.754l13.307-51.327a1.006,1.006,0,1,0-1.947-.506l-13.308,51.328a1,1,0,0,0,.721,1.226A.978.978,0,0,0,1071.862,369.873Z" transform="translate(-1070.855 -316.533)" fill="#8c3b68"/>
                    </g>
                  </g>
                  <g id="Group_985497" data-name="Group 985497" transform="translate(1.789 92.27)">
                    <g id="Group_985493" data-name="Group 985493" transform="translate(75.365 22.843)">
                      <g id="Group_985492" data-name="Group 985492">
                        <g id="Group_985491" data-name="Group 985491">
                          <path id="Path_213318" data-name="Path 213318" d="M1011.442,386.649l43.069,16.549.944,13.419-51.695-2.76Z" transform="translate(-1003.76 -386.649)" fill="#edb892"/>
                        </g>
                        <path id="Path_213319" data-name="Path 213319" d="M933.376,404.211a34.6,34.6,0,0,1,26.591-5.982l14.342-5.143a4.98,4.98,0,0,1,5.914,1.967h0A4.24,4.24,0,0,1,978.507,401l-7.931,4.4,3.228,0a23.977,23.977,0,0,0,14.117-4.544l11.434-8.366a4.856,4.856,0,0,1,4.59-.579h0a4.054,4.054,0,0,1,1.487,6.81l-13.475,12.724a27.119,27.119,0,0,1-19.949,7.165l-40.073-2.026Z" transform="translate(-889.581 -387.087)" fill="#edb892"/>
                      </g>
                      <path id="Path_213320" data-name="Path 213320" d="M1023.031,387.27l15.96,3.766-4.542,26.5-17.894-2.932Z" transform="translate(-998.956 -386.704)" fill="#fff"/>
                    </g>
                    <g id="Group_985495" data-name="Group 985495">
                      <path id="Path_213321" data-name="Path 213321" d="M1057.4,361.8l68.658,18.1a9.569,9.569,0,0,1,6.84,11.589l-5.024,19.952a9.569,9.569,0,0,1-10.5,7.155l-68.321-7.271c-11.223-1.3-19.029-12.483-18.518-23.769h0C1031.126,374.628,1044.649,359.619,1057.4,361.8Z" transform="translate(-1030.518 -361.584)" fill="#a8527e"/>
                      <g id="Group_985494" data-name="Group 985494" transform="translate(35.276 1.684)">
                        <path id="Path_213322" data-name="Path 213322" d="M1096.814,389.648l.063,0a1,1,0,0,0,.942-1.065l-.007-.117a10.273,10.273,0,0,0-7.65-9.324l-59.456-15.675a1.006,1.006,0,0,0-.512,1.946l59.456,15.675a8.266,8.266,0,0,1,6.154,7.5l.007.117A1,1,0,0,0,1096.814,389.648Z" transform="translate(-1029.444 -363.431)" fill="#8c3b68"/>
                      </g>
                    </g>
                    <g id="Group_985496" data-name="Group 985496" transform="translate(29.999 50.06)">
                      <path id="Path_213323" data-name="Path 213323" d="M1094.732,424.943a9.611,9.611,0,0,0,8.84-5.809,1.007,1.007,0,0,0-1.846-.8,7.6,7.6,0,0,1-7.864,4.55l-57.021-6.362a1.006,1.006,0,1,0-.222,2l57.021,6.362A9.833,9.833,0,0,0,1094.732,424.943Z" transform="translate(-1035.722 -416.515)" fill="#8c3b68"/>
                    </g>
                  </g>
                </g>
              </g>
            </g>
          </g>
          <g id="Group_985521" data-name="Group 985521" transform="translate(180.73 0)">
            <g id="Group_985520" data-name="Group 985520">
              <g id="Group_985506" data-name="Group 985506" transform="translate(98.562)">
                <circle id="Ellipse_4945" data-name="Ellipse 4945" cx="27.136" cy="27.136" r="27.136" transform="translate(79.271 76.753) rotate(-135)" fill="#171717"/>
                <ellipse id="Ellipse_4946" data-name="Ellipse 4946" cx="18.793" cy="18.793" rx="18.793" ry="18.793" transform="translate(42.886 74.136) rotate(-100.812)" fill="#ffae4d"/>
                <circle id="Ellipse_4947" data-name="Ellipse 4947" cx="9.369" cy="9.369" r="9.369" transform="translate(0 70.138)" fill="#ba5f3f"/>
                <path id="Path_213324" data-name="Path 213324" d="M773.142,239.328l.9,37.932,29.552-3.449L798,218.049Z" transform="translate(-743.873 -138.069)" fill="#ce7d5d"/>
                <path id="Path_213325" data-name="Path 213325" d="M787.894,255.292s15.435,2.189,16.87-15.959L787.67,246.87Z" transform="translate(-758.281 -139.956)" fill="#ba5f3f"/>
                <path id="Path_213326" data-name="Path 213326" d="M780.947,180.093a13.679,13.679,0,0,0-4.473,7.825c-1.793,8.963-5.313,27.6-2.141,37.119,4.126,12.372,14.173,20.2,30.409,17.108,0,0,18.817-.857,23.458-28.507C834.786,174.408,801.183,162.991,780.947,180.093Z" transform="translate(-769.241 -134.019)" fill="#ce7d5d"/>
                <g id="Group_985503" data-name="Group 985503" transform="translate(3.489 55.372)">
                  <path id="Path_213327" data-name="Path 213327" d="M831.123,211.089a2.144,2.144,0,1,1-1.528-2.618A2.143,2.143,0,0,1,831.123,211.089Z" transform="translate(-823.956 -192.585)" fill="#171717"/>
                  <path id="Path_213328" data-name="Path 213328" d="M811.244,211.488a2.144,2.144,0,1,1-1.528-2.618A2.144,2.144,0,0,1,811.244,211.488Z" transform="translate(-785.96 -192.62)" fill="#171717"/>
                  <g id="Group_985502" data-name="Group 985502" transform="translate(8.028 21.704)">
                    <path id="Path_213329" data-name="Path 213329" d="M824.925,222.2a.648.648,0,0,1-.17-.022l-3.434-.925a.654.654,0,0,1-.434-.881l2.12-5.1a.653.653,0,1,1,1.207.5l-1.834,4.416,2.715.731a.653.653,0,0,1-.17,1.284Z" transform="translate(-820.837 -214.862)" fill="#ba5f3f"/>
                  </g>
                  <path id="Path_213330" data-name="Path 213330" d="M798.667,193.3h0a2.487,2.487,0,0,0,2.013,3.093,28.548,28.548,0,0,1,8.185,2.5,2.169,2.169,0,0,0,2.9-.844h0a2.265,2.265,0,0,0-.683-2.848,14.255,14.255,0,0,0-9.856-3.762A2.556,2.556,0,0,0,798.667,193.3Z" transform="translate(-778.974 -191.081)" fill="#171717"/>
                  <path id="Path_213331" data-name="Path 213331" d="M833.946,193.117h0c.1,1.436-.668,2.779-1.649,2.9a14.5,14.5,0,0,0-5.638,1.839c-.745.446-1.546,0-1.813-1.056h0a3,3,0,0,1,.749-2.757c1.314-1.334,3.389-3.3,6.869-2.953C833.244,191.166,833.869,191.961,833.946,193.117Z" transform="translate(-824.762 -191.046)" fill="#171717"/>
                  <path id="Path_213332" data-name="Path 213332" d="M812.062,226.953l11.983-.974s.6,4.647-5.5,5.181S812.062,226.953,812.062,226.953Z" transform="translate(-803.296 -194.144)" fill="#fff"/>
                </g>
                <path id="Path_213333" data-name="Path 213333" d="M802.791,210.336s-9.826-8.693-7.869-25.606a163.848,163.848,0,0,1-36.5,1.489s4.419-23.379,42.088-17.109c39.14,6.516,20.953,49.68,6.408,62.935Z" transform="translate(-750.95 -133.634)" fill="#171717"/>
                <g id="Group_985505" data-name="Group 985505" transform="translate(48.522 69.644)">
                  <path id="Path_213334" data-name="Path 213334" d="M782.729,221.376a11.368,11.368,0,1,1-7.582-14.177A11.369,11.369,0,0,1,782.729,221.376Z" transform="translate(-760.478 -206.707)" fill="#ce7d5d"/>
                  <g id="Group_985504" data-name="Group 985504" transform="translate(5.294 7.113)">
                    <path id="Path_213335" data-name="Path 213335" d="M767.267,222.882a.653.653,0,0,1-.636-.807,9.6,9.6,0,0,1,4.3-6.41,9.86,9.86,0,0,1,7.071-.843.654.654,0,0,1-.36,1.257,8.666,8.666,0,0,0-6.065.722,8.369,8.369,0,0,0-3.674,5.582A.652.652,0,0,1,767.267,222.882Z" transform="translate(-766.612 -214.512)" fill="#ba5f3f"/>
                  </g>
                </g>
              </g>
              <g id="Group_985507" data-name="Group 985507" transform="translate(89.103 227.826)">
                <rect id="Rectangle_339762" data-name="Rectangle 339762" width="58.555" height="8.225" transform="translate(34.171 0)" fill="#eb682c"/>
                <path id="Path_213336" data-name="Path 213336" d="M739.232,389.307s-24.715,16.078-34.171,70.4c0,0,51.3,30.464,131.225.552,0,0-14.135-45.339-38.5-70.949Z" transform="translate(-705.061 -381.082)" fill="#ffae4d"/>
              </g>
              <g id="Group_985519" data-name="Group 985519" transform="translate(0 130.691)">
                <g id="Group_985512" data-name="Group 985512" transform="translate(0)">
                  <g id="Group_985508" data-name="Group 985508" transform="translate(74.753 7.37)">
                    <path id="Path_213337" data-name="Path 213337" d="M843.433,383.258l16.375-52.986-25.079,1.059-7.823,29.631Z" transform="translate(-825.272 -286.082)" fill="#ce7d5d"/>
                    <path id="Path_213338" data-name="Path 213338" d="M857.974,281.782s-23.184,1.13-34.536,49.647l37.7,17.338Z" transform="translate(-823.438 -281.782)" fill="#ffae4d"/>
                  </g>
                  <g id="Group_985511" data-name="Group 985511">
                    <path id="Path_213339" data-name="Path 213339" d="M854.534,312.819l-10.25,4.491,36.993,66.19a12.9,12.9,0,0,0,19.632,4.7h0a12.9,12.9,0,0,0,2.565-17.636Z" transform="translate(-812.409 -277.164)" fill="#ce7d5d"/>
                    <g id="Group_985510" data-name="Group 985510">
                      <path id="Path_213340" data-name="Path 213340" d="M942.731,309.349l-.165-7.479a24.925,24.925,0,0,0-2.927-11.176L936.4,284.63a2.64,2.64,0,0,0-3.941-.848h0a3.38,3.38,0,0,0-1.189,3.591l1.977,7.023-20.318-20.081a2.045,2.045,0,0,0-3.066.149l-.515.646a2.044,2.044,0,0,0,.032,2.589l11.659,12.269L905.7,277.728a2.045,2.045,0,0,0-3.044.34l-.35.5a2.045,2.045,0,0,0,.3,2.693l15.585,13.209-14.4-8.258A2.045,2.045,0,0,0,900.8,287.3l-.085.25a2.045,2.045,0,0,0,.733,2.311l14.084,10.249-9.306-5.087a2.044,2.044,0,0,0-3.023,1.69h0a2.045,2.045,0,0,0,.9,1.8l32.168,21.67Z" transform="translate(-900.606 -273.695)" fill="#ce7d5d"/>
                      <g id="Group_985509" data-name="Group 985509" transform="translate(30.335 20.048)">
                        <path id="Path_213341" data-name="Path 213341" d="M911.835,308.4a.652.652,0,0,1-.616-.436,13.994,13.994,0,0,1,.839-11.977.653.653,0,0,1,1.09.72,12.938,12.938,0,0,0-.7,10.822.652.652,0,0,1-.4.833A.622.622,0,0,1,911.835,308.4Z" transform="translate(-910.294 -295.694)" fill="#ba5f3f"/>
                      </g>
                    </g>
                  </g>
                </g>
                <g id="Group_985515" data-name="Group 985515" transform="translate(96.394 1.764)">
                  <g id="Group_985514" data-name="Group 985514" transform="translate(0 4.187)">
                    <path id="Path_213342" data-name="Path 213342" d="M738.031,281.644s-21.438,50.266-6.379,66.013l20.364,23.752h58.555s19.676-23.9,19.143-55.859-25.8-35.324-25.8-35.324l-61.415.7Z" transform="translate(-725.136 -280.225)" fill="#ffae4d"/>
                    <g id="Group_985513" data-name="Group 985513" transform="translate(0 22.293)">
                      <path id="Path_213343" data-name="Path 213343" d="M836.87,345.873a.908.908,0,0,1-.828-.537c-6.833-15.276,2.2-39.063,2.591-40.068a.907.907,0,0,1,1.692.653c-.093.238-9.151,24.09-2.627,38.674a.907.907,0,0,1-.827,1.278Z" transform="translate(-833.495 -304.687)" fill="#ea8c26"/>
                    </g>
                  </g>
                  <path id="Path_213344" data-name="Path 213344" d="M754.607,280.518s20.4-4.809,25.107-4.809c0,0,13.064-1,36.309,4.108A410.439,410.439,0,0,0,772.6,320.894Z" transform="translate(-737.24 -275.63)" fill="#ce7d5d"/>
                </g>
                <g id="Group_985518" data-name="Group 985518" transform="translate(174.27 5.951)">
                  <path id="Path_213345" data-name="Path 213345" d="M711.259,335.676l7.451,127.4,17.77-4.894,2.492-114.2Z" transform="translate(-698.562 -285.143)" fill="#ce7d5d"/>
                  <g id="Group_985517" data-name="Group 985517">
                    <path id="Path_213346" data-name="Path 213346" d="M694.1,280.225s29.3.8,35.859,11.864,19.283,46.772,19.283,46.772l-45.546,7.41Z" transform="translate(-693.193 -280.225)" fill="#ffae4d"/>
                    <g id="Group_985516" data-name="Group 985516" transform="translate(0 39.628)">
                      <path id="Path_213347" data-name="Path 213347" d="M744.873,352a.91.91,0,0,1-.9-.794l-3.293-26.48a.906.906,0,0,1,1.8-.224l3.178,25.554,7.576-1.164a.907.907,0,1,1,.276,1.793l-8.5,1.3A.894.894,0,0,1,744.873,352Z" transform="translate(-740.674 -323.71)" fill="#ea8c26"/>
                    </g>
                  </g>
                </g>
              </g>
            </g>
          </g>
        </g>
      </g>
    </g>
  </g>
</svg>
