<svg xmlns="http://www.w3.org/2000/svg" xmlns:xlink="http://www.w3.org/1999/xlink" width="822" height="976.704" viewBox="0 0 822 976.704">
  <defs>
    <clipPath id="clip-path">
      <path id="Path_182347" data-name="Path 182347" d="M11.552,0h798.9C816.828,0,822,10.3,822,23.009V883.185c0,12.708-5.172,23.009-11.553,23.009H11.552C5.172,906.193,0,895.892,0,883.185V23.009C0,10.3,5.172,0,11.552,0Z" fill="none"/>
    </clipPath>
  </defs>
  <g id="bg-3-2" transform="translate(-180 -5672.489)">
    <path id="Path_173387" data-name="Path 173387" d="M11.552,0h798.9C816.828,0,822,11.1,822,24.8V951.905c0,13.7-5.172,24.8-11.553,24.8H11.552C5.172,976.7,0,965.6,0,951.905V24.8C0,11.1,5.172,0,11.552,0Z" transform="translate(180 5672.489)" fill="#fff0f1"/>
    <g id="Mask_Group_299" data-name="Mask Group 299" transform="translate(180 5743)" clip-path="url(#clip-path)">
      <g id="Group_173953" data-name="Group 173953" transform="translate(-11.508 475.184)">
        <path id="Path_178656" data-name="Path 178656" d="M1212.872,1980.094c-33.48,38.271-60.926,87.936-96.909,120.872-49.424,45.24-109.788,54.429-167.858,58.344s-117.644,4.081-172.007,34.515c-43.447,24.323-83.49,73.346-99.818,135.815H787.812c24.853-57.183,62.386-102.516,106.14-123.689,87.349-42.269,188.929,5.908,271.221-54.6,58.295-42.866,97.688-134.8,160.1-162.211,45.157-19.831,94.848-1.081,135.277,34.661,17.661,15.614,33.878,34.2,49.237,54.416V1944.05C1417.043,1873.306,1295.953,1885.121,1212.872,1980.094Z" transform="translate(-676.28 -1898.632)" fill="#ff9fa3"/>
        <path id="Path_178657" data-name="Path 178657" d="M1289.656,1944.651c-62.413,27.41-101.806,119.345-160.1,162.211-82.292,60.512-183.872,12.337-271.221,54.605-43.754,21.173-81.287,66.507-106.14,123.689H1474.17V2033.728c-15.359-20.212-31.576-38.8-49.237-54.416C1384.5,1943.57,1334.813,1924.82,1289.656,1944.651Z" transform="translate(-640.662 -1854.148)" fill="#ff9fa3" opacity="0.614"/>
      </g>
    </g>
  </g>
</svg>
