<svg xmlns="http://www.w3.org/2000/svg" width="505" height="412" viewBox="0 0 505 412">
  <g id="_1" data-name="1" transform="translate(-180 -404)">
    <rect id="Rectangle_339711" data-name="Rectangle 339711" width="505" height="412" rx="20" transform="translate(180 404)" fill="#ffd6bd"/>
    <path id="Path_215844" data-name="Path 215844" d="M-35.934-3.463l2.259-6.047h2.47L-35.2,0h-2.074l-.7-5.95L-40.759,0h-2.074l-.7-9.51h2.32l.149,5.985,2.716-5.985h1.793ZM-26.1,0a2.566,2.566,0,0,1-.1-.861A3.221,3.221,0,0,1-28.622.176a2.919,2.919,0,0,1-2.07-.813A2.46,2.46,0,0,1-31.46-2.6a2.843,2.843,0,0,1,1.305-2.386,5.924,5.924,0,0,1,3.335-.831l1.16.018.123-.571a1.984,1.984,0,0,0,.026-.554.952.952,0,0,0-.312-.646,1.075,1.075,0,0,0-.708-.242,1.514,1.514,0,0,0-.984.286,1.384,1.384,0,0,0-.519.875l-2.487.009a2.764,2.764,0,0,1,1.252-2.21,4.851,4.851,0,0,1,2.94-.831,3.507,3.507,0,0,1,2.531.962,2.816,2.816,0,0,1,.765,2.386l-.729,4.553-.044.563a2.714,2.714,0,0,0,.149,1.055L-23.665,0Zm-1.907-1.749a2.27,2.27,0,0,0,1.872-.932l.308-1.644-.861-.009a2.406,2.406,0,0,0-1.978.835,1.454,1.454,0,0,0-.272.712.844.844,0,0,0,.2.751A1,1,0,0,0-28.006-1.749Zm11.364-.932q.141-.7-.976-1.02l-.8-.2q-2.839-.782-2.76-2.76a2.731,2.731,0,0,1,1.191-2.193,4.434,4.434,0,0,1,2.764-.831,3.978,3.978,0,0,1,2.6.853A2.809,2.809,0,0,1-13.61-6.609l-2.461-.009a1.084,1.084,0,0,0-1.213-1.239,1.745,1.745,0,0,0-1.006.29,1.194,1.194,0,0,0-.523.782q-.132.7,1.063.993l.352.079a7.071,7.071,0,0,1,1.854.664,2.8,2.8,0,0,1,.989.927,2.3,2.3,0,0,1,.321,1.327,2.533,2.533,0,0,1-.584,1.582A3.577,3.577,0,0,1-16.348-.167a5.328,5.328,0,0,1-2.043.343,4.015,4.015,0,0,1-2.637-.91A2.933,2.933,0,0,1-22.1-3.041l2.338.018A1.285,1.285,0,0,0-18.3-1.644a2.076,2.076,0,0,0,1.129-.281A1.111,1.111,0,0,0-16.642-2.681ZM-8,1.1H-9.954l6.979-13.9h1.96ZM10.982-3.463,13.241-9.51h2.47l-4,9.51H9.637l-.7-5.95L6.157,0H4.083l-.7-9.51H5.7l.149,5.985L8.565-9.51h1.793Zm8.112-4.992a3.314,3.314,0,0,1,2.575-1.23A2.411,2.411,0,0,1,23.748-8.67a3.991,3.991,0,0,1,.5,2.676L23.243,0H20.764l1.011-6.028a2.921,2.921,0,0,0,.018-.633,1,1,0,0,0-1.107-.977,2.141,2.141,0,0,0-1.758.862L17.732,0H15.253l2.338-13.5h2.487ZM29.694.176a4.137,4.137,0,0,1-2.21-.611,3.7,3.7,0,0,1-1.437-1.652A4.605,4.605,0,0,1,25.677-4.4l.026-.352A6.148,6.148,0,0,1,26.512-7.3a4.884,4.884,0,0,1,1.74-1.789,4.306,4.306,0,0,1,2.355-.593A3.29,3.29,0,0,1,33.39-8.334,4.631,4.631,0,0,1,34.106-5L33.965-3.92H28.138a2.041,2.041,0,0,0,.448,1.477,1.711,1.711,0,0,0,1.318.571,3.041,3.041,0,0,0,2.373-1.055l1.134,1.406A3.527,3.527,0,0,1,31.865-.259,5.059,5.059,0,0,1,29.694.176Zm.791-7.813a1.761,1.761,0,0,0-1.217.431,3.784,3.784,0,0,0-.954,1.556h3.41l.053-.229a2.33,2.33,0,0,0,.009-.668,1.276,1.276,0,0,0-.431-.8A1.35,1.35,0,0,0,30.485-7.638Zm8.139-1.881-.211,1.125a3.422,3.422,0,0,1,2.769-1.292,2.281,2.281,0,0,1,1.986.984,3.966,3.966,0,0,1,.466,2.654L42.631,0H40.153l1.02-6.073A2.844,2.844,0,0,0,41.19-6.7a1.007,1.007,0,0,0-1.125-.923,2.133,2.133,0,0,0-1.749.905L37.129,0H34.651L36.3-9.51Z" transform="translate(433 772)" fill="#fc5f65"/>
    <g id="Group_985274" data-name="Group 985274" transform="translate(2 -2)">
      <path id="Path_215845" data-name="Path 215845" d="M3.14-4.131,6.567-14.219h2.92L4.2,0H1.323L.571-9.473-3.149,0H-6.03l-.84-14.219h2.793L-3.794-4.18.034-14.219H2.466Z" transform="translate(431 731)" fill="#3c3fa7"/>
      <g id="Rectangle_339712" data-name="Rectangle 339712" transform="translate(411 704)" fill="none" stroke="#3c3fa7" stroke-width="3">
        <rect width="40" height="40" rx="10" stroke="none"/>
        <rect x="1.5" y="1.5" width="37" height="37" rx="8.5" fill="none"/>
      </g>
    </g>
    <g id="Group_985287" data-name="Group 985287" transform="translate(-2047.755 400.608)">
      <path id="Path_213096" data-name="Path 213096" d="M2546.389,212.022a89.535,89.535,0,0,0-23.417-28.343c-7.584-6.023-22.51-17.877-44.584-18.147-23.826-.292-40.063,13.106-44.595,16.963a72.6,72.6,0,0,0-20.031,27.819c-.069,4.428-.083,45.248,30.291,66.095a61.852,61.852,0,0,0,32.4,11.059c22.952.954,38.965-11.844,43.754-15.794C2546.282,250.173,2546.444,216.967,2546.389,212.022Z" transform="translate(0 -23.172)" fill="#9f1d2e"/>
      <path id="Path_213097" data-name="Path 213097" d="M2552.282,184.449a41.461,41.461,0,0,0-2.73-3.645c-14.167-16.888-37.94-17.609-42.814-17.757-4.342-.132-27.56-.836-44,14.995a47.383,47.383,0,0,0-4.094,4.482C2475.654,190.668,2511.458,202.491,2552.282,184.449Z" transform="translate(-26.58 -21.678)" fill="#fff5f0"/>
      <path id="Path_213098" data-name="Path 213098" d="M2486.064,352.513c-17.89-11.424-40.852-4.188-54,1.8a77.668,77.668,0,0,0,8.229,15.017,63.772,63.772,0,0,0,18.677,18.086c11.135,6.912,23.285,7.931,27.622,8.155,24.5,1.269,42.115-13.8,45.379-16.7A67.1,67.1,0,0,0,2548.6,356a60.525,60.525,0,0,0-62.536-3.49Z" transform="translate(-10.839 -129.701)" fill="#dd3d59"/>
      <path id="Path_213099" data-name="Path 213099" d="M2503.862,131.262a71.472,71.472,0,0,1,15.831-4.012,83.01,83.01,0,0,1,16.406-.735c1.372.1,2.745.194,4.113.365,1.369.15,2.732.375,4.093.6a61.889,61.889,0,0,1,8.024,2.042,49.971,49.971,0,0,1,7.582,3.306,39.6,39.6,0,0,1,3.485,2.2,33.645,33.645,0,0,1,3.207,2.548,77.6,77.6,0,0,0-7.412-3.161,78.743,78.743,0,0,0-7.625-2.21c-2.58-.57-5.173-1.043-7.786-1.4-1.313-.146-2.617-.339-3.937-.435-1.312-.147-2.634-.218-3.952-.309a155.652,155.652,0,0,0-15.937-.038C2514.617,130.263,2509.271,130.693,2503.862,131.262Z" transform="translate(-53.352)" fill="#dc9b7d"/>
      <path id="Path_213100" data-name="Path 213100" d="M2485.127,469.284a75.192,75.192,0,0,0,7.911,4.768,71.2,71.2,0,0,0,8.306,3.737,53.855,53.855,0,0,0,17.482,3.563c10.834-.07,20.119-2.562,33.383-12.069-9.168,10.681-20.133,15.427-33.461,15.618a46.065,46.065,0,0,1-18.495-4.553,53.742,53.742,0,0,1-8.132-4.825A42.934,42.934,0,0,1,2485.127,469.284Z" transform="translate(-42.259 -203.025)" fill="#dc9b7d"/>
    </g>
  </g>
</svg>
