<svg xmlns="http://www.w3.org/2000/svg" width="505" height="412" viewBox="0 0 505 412">
  <g id="_3" data-name="3" transform="translate(-4578 10868)">
    <path id="Path_215848" data-name="Path 215848" d="M0,0H505V412H0Z" transform="translate(4578 -10868)" fill="#ffd6bd"/>
    <g id="Group_985280" data-name="Group 985280" transform="translate(3147.675 -10931.048)">
      <g id="Group_985272" data-name="Group 985272" transform="translate(1535.325 198.484)">
        <path id="Path_213074" data-name="Path 213074" d="M1825.852,246.083c-11.035-13.043-28.79-29.771-54.3-37.016-26.1-7.413-34.812,2.347-79.186,1.729-47.635-.665-58.175-11.768-85.156-4.085-23.569,6.711-39.67,23.158-49.55,35.919,13.447,16.465,41.1,45.052,81.945,55.1,23.506,5.783,48.911,4.775,57.353,4.5,5.3-.172,23.415-.958,41.152-5.032C1778.322,287.965,1808.3,263.586,1825.852,246.083Z" transform="translate(-1546.294 -201.199)" fill="#9f1d2e"/>
        <path id="Path_213075" data-name="Path 213075" d="M1710.527,294.262a47.364,47.364,0,0,1,11.623-20.851c22.447-22.817,70.768-19.775,88.992,4.9a42.94,42.94,0,0,1,7.7,19.533C1809.727,301.975,1797.149,306.357,1710.527,294.262Z" transform="translate(-1621.371 -227.678)" fill="#dd3d59"/>
        <path id="Path_213076" data-name="Path 213076" d="M1623.006,204.267c11.817-6.665,23.514-6.073,34.432-5.38,21.7,1.378,40.636,3.069,56.925,4.794,31.4-.155,48.916-1.762,59.387-3.71a48.027,48.027,0,0,1,20.547.043,51.1,51.1,0,0,1,14.65,6.18,58.891,58.891,0,0,1,13.734,11.341c-3.669,7.627-7.788,12.781-13.347,19.729-4.3,5.381-31.737,12.187-61.87,12.187-6.995,0-19-.411-25.286-.171-8.825.338-66.513,1.238-89.846-9.863-5.99-2.85-15.586-8.333-21.565-25.069A46.382,46.382,0,0,1,1623.006,204.267Z" transform="translate(-1572.376 -198.484)" fill="#fff5f0"/>
        <path id="Path_213077" data-name="Path 213077" d="M1801.51,314.228a25.333,25.333,0,0,1,12.782-.269,22.818,22.818,0,0,1,5.127,1.99c5.294,2.432,8.765,6.291,11.338,8.306a122.141,122.141,0,0,1-46.366,26.949c-16.063,5.2-28.846,5.547-49.137,6.1-20.82.566-36.987,1-57.208-4.483-11.677-3.169-31.218-8.379-50.979-23.178,1.776-3.129,6.011-7.29,11.074-10.875a37.718,37.718,0,0,1,8.238-4.219c13.672-4.8,53.856,5.627,83.106,6.148C1750.686,321.072,1792.04,316.705,1801.51,314.228Z" transform="translate(-1580.383 -254.851)" fill="#fff5f0"/>
        <path id="Path_213078" data-name="Path 213078" d="M1544.977,248.561a48.574,48.574,0,0,0-3.885,7.889,22.9,22.9,0,0,0-1.526,7.9,17.987,17.987,0,0,0,.391,3.936c.094.663.323,1.3.468,1.966l.323.975a8.578,8.578,0,0,0,.35.979,65,65,0,0,0,3.878,7.922,19.368,19.368,0,0,1-8.041-8.528,18.481,18.481,0,0,1-1.439-4.754l-.128-1.251c-.038-.418-.031-.839-.043-1.258a17.753,17.753,0,0,1,2.8-9.373,19.523,19.523,0,0,1,3.027-3.685A15.128,15.128,0,0,1,1544.977,248.561Z" transform="translate(-1535.325 -223.078)" fill="#dc9b7d"/>
        <path id="Path_213079" data-name="Path 213079" d="M2098.349,261.2a14.047,14.047,0,0,1,6.5,6.155,16.671,16.671,0,0,1,1.953,9.083,20.323,20.323,0,0,1-2.655,8.724,21.9,21.9,0,0,1-5.8,6.668c.929-2.827,1.96-5.4,2.733-7.987a33.836,33.836,0,0,0,1.486-7.672,21.824,21.824,0,0,0-.784-7.528A29.721,29.721,0,0,0,2098.349,261.2Z" transform="translate(-1811.841 -229.284)" fill="#dc9b7d"/>
        <path id="Path_213080" data-name="Path 213080" d="M1733.984,420.035c3.989.878,7.98,1.543,11.986,2.077l3,.409c1,.121,2.007.212,3.009.319,1,.09,2,.235,3,.311l3.011.243c8.023.646,16.057.844,24.094.784l6.027-.187c1-.037,2.011-.015,3.013-.1l3.011-.191c2.008-.126,4.021-.208,6.029-.359,2-.194,4.012-.368,6.022-.536l3.02-.244c1-.122,2-.251,3.007-.357l6.036-.666c1.014-.077,2.015-.229,3.018-.374s2.006-.293,3.016-.415c2.016-.261,4.038-.514,6.079-.715-1.93.66-3.878,1.267-5.833,1.866-.975.309-1.958.586-2.939.876s-1.962.586-2.958.809l-5.981,1.364c-1,.232-2,.442-3,.658l-3.029.5q-3.031.492-6.073.95c-1.011.169-2.035.238-3.054.348l-3.062.3c-4.077.475-8.188.523-12.288.7a150.279,150.279,0,0,1-24.553-1.724c-2.027-.327-4.052-.655-6.055-1.122-1-.223-2.006-.429-3-.666l-2.981-.764A71.686,71.686,0,0,1,1733.984,420.035Z" transform="translate(-1632.891 -307.293)" fill="#dc9b7d"/>
      </g>
    </g>
    <path id="Path_215849" data-name="Path 215849" d="M-33.144-11.848l-.413,2.338h1.582L-32.3-7.646h-1.582l-.809,4.764a1.211,1.211,0,0,0,.07.686q.123.237.6.255.141.009.756-.044l-.176,1.942a4.169,4.169,0,0,1-1.424.2,2.234,2.234,0,0,1-1.819-.765,2.763,2.763,0,0,1-.492-2.021l.817-5.019h-1.345l.325-1.863h1.345l.4-2.338Zm4.737,3.393a3.314,3.314,0,0,1,2.575-1.23A2.411,2.411,0,0,1-23.752-8.67a3.991,3.991,0,0,1,.5,2.676l-1,5.994h-2.479l1.011-6.028a2.921,2.921,0,0,0,.018-.633,1,1,0,0,0-1.107-.977,2.141,2.141,0,0,0-1.758.862L-29.769,0h-2.479l2.338-13.5h2.487ZM-19.705,0h-2.5l1.652-9.51h2.5Zm-.554-11.927a1.238,1.238,0,0,1,.387-.976,1.36,1.36,0,0,1,.976-.387,1.367,1.367,0,0,1,.976.343,1.233,1.233,0,0,1,.431.932,1.273,1.273,0,0,1-.365.949,1.367,1.367,0,0,1-1,.422,1.39,1.39,0,0,1-.971-.334A1.227,1.227,0,0,1-20.259-11.927Zm8.165,9.246q.141-.7-.976-1.02l-.8-.2q-2.839-.782-2.76-2.76a2.731,2.731,0,0,1,1.191-2.193,4.434,4.434,0,0,1,2.764-.831,3.978,3.978,0,0,1,2.6.853A2.809,2.809,0,0,1-9.062-6.609l-2.461-.009a1.084,1.084,0,0,0-1.213-1.239,1.745,1.745,0,0,0-1.006.29,1.194,1.194,0,0,0-.523.782q-.132.7,1.063.993l.352.079A7.071,7.071,0,0,1-11-5.049a2.8,2.8,0,0,1,.989.927,2.3,2.3,0,0,1,.321,1.327,2.533,2.533,0,0,1-.584,1.582A3.577,3.577,0,0,1-11.8-.167a5.328,5.328,0,0,1-2.043.343,4.015,4.015,0,0,1-2.637-.91,2.933,2.933,0,0,1-1.072-2.307l2.338.018a1.285,1.285,0,0,0,1.459,1.38,2.076,2.076,0,0,0,1.129-.281A1.111,1.111,0,0,0-12.094-2.681ZM-3.454,1.1H-5.405L1.573-12.8h1.96ZM11.971-11.848,11.558-9.51H13.14l-.325,1.863H11.232l-.809,4.764a1.211,1.211,0,0,0,.07.686q.123.237.6.255.141.009.756-.044L11.672-.044a4.169,4.169,0,0,1-1.424.2A2.234,2.234,0,0,1,8.429-.606a2.763,2.763,0,0,1-.492-2.021l.817-5.019H7.409L7.734-9.51H9.079l.4-2.338Zm4.737,3.393a3.314,3.314,0,0,1,2.575-1.23A2.411,2.411,0,0,1,21.362-8.67a3.991,3.991,0,0,1,.5,2.676L20.856,0H18.378l1.011-6.028a2.921,2.921,0,0,0,.018-.633A1,1,0,0,0,18.3-7.638a2.141,2.141,0,0,0-1.758.862L15.346,0H12.867l2.338-13.5h2.487ZM28.292,0a2.566,2.566,0,0,1-.1-.861A3.221,3.221,0,0,1,25.77.176,2.919,2.919,0,0,1,23.7-.637,2.46,2.46,0,0,1,22.931-2.6a2.843,2.843,0,0,1,1.305-2.386,5.924,5.924,0,0,1,3.335-.831l1.16.018.123-.571a1.984,1.984,0,0,0,.026-.554.952.952,0,0,0-.312-.646,1.075,1.075,0,0,0-.708-.242,1.514,1.514,0,0,0-.984.286,1.384,1.384,0,0,0-.519.875l-2.487.009a2.764,2.764,0,0,1,1.252-2.21,4.851,4.851,0,0,1,2.94-.831,3.507,3.507,0,0,1,2.531.962,2.816,2.816,0,0,1,.765,2.386L30.63-1.784l-.044.563a2.714,2.714,0,0,0,.149,1.055L30.727,0ZM26.385-1.749a2.27,2.27,0,0,0,1.872-.932l.308-1.644L27.7-4.333a2.406,2.406,0,0,0-1.978.835,1.454,1.454,0,0,0-.272.712.844.844,0,0,0,.2.751A1,1,0,0,0,26.385-1.749Zm10.881-10.1L36.853-9.51h1.582l-.325,1.863H36.527l-.809,4.764a1.211,1.211,0,0,0,.07.686q.123.237.6.255.141.009.756-.044L36.967-.044a4.169,4.169,0,0,1-1.424.2,2.234,2.234,0,0,1-1.819-.765,2.763,2.763,0,0,1-.492-2.021l.817-5.019H32.7l.325-1.863h1.345l.4-2.338Z" transform="translate(4831 -10500)" fill="#fc5f65"/>
    <g id="Group_985281" data-name="Group 985281" transform="translate(4400 -11274)">
      <text id="TH" transform="translate(431 731)" fill="#3c3fa7" font-size="20" font-family="Roboto-BoldItalic, Roboto" font-weight="700" font-style="italic"><tspan x="-12.954" y="0">TH</tspan></text>
      <g id="Rectangle_339712" data-name="Rectangle 339712" transform="translate(411 704)" fill="none" stroke="#3c3fa7" stroke-width="3">
        <rect width="40" height="40" rx="10" stroke="none"/>
        <rect x="1.5" y="1.5" width="37" height="37" rx="8.5" fill="none"/>
      </g>
    </g>
  </g>
</svg>
