<svg xmlns="http://www.w3.org/2000/svg" width="717" height="287" viewBox="0 0 717 287">
  <g id="_30" data-name="30" transform="translate(-6801 5909)">
    <path id="Path_215877" data-name="Path 215877" d="M14,0H703a14,14,0,0,1,14,14V273a14,14,0,0,1-14,14H14A14,14,0,0,1,0,273V14A14,14,0,0,1,14,0Z" transform="translate(6801 -5909)" fill="#fff"/>
    <g id="Group_985352" data-name="Group 985352" transform="translate(6739 -9953)">
      <rect id="Rectangle_339730" data-name="Rectangle 339730" width="440" height="231" rx="20" transform="translate(217 4067)" fill="#fff0f1"/>
      <g id="Group_985342" data-name="Group 985342" transform="translate(0 -65.833)">
        <path id="Path_213172" data-name="Path 213172" d="M5540-7549.333V-7380h211.333" transform="translate(-5141 11700)" fill="none" stroke="#3c3fa7" stroke-linecap="round" stroke-width="5"/>
        <text id="Primary_Stress" data-name="Primary Stress" transform="translate(317 4208)" fill="#3c3fa7" font-size="16" font-family="Roboto-BoldItalic, Roboto" font-weight="700" font-style="italic"><tspan x="-52.375" y="0">Primary Stress</tspan></text>
        <text id="Secondary_Stress" data-name="Secondary Stress" transform="translate(307 4262)" fill="#3c3fa7" font-size="16" font-family="Roboto-BoldItalic, Roboto" font-weight="700" font-style="italic"><tspan x="-61.957" y="0">Secondary Stress</tspan></text>
        <text id="Unstressed" transform="translate(329 4316)" fill="#3c3fa7" font-size="16" font-family="Roboto-BoldItalic, Roboto" font-weight="700" font-style="italic"><tspan x="-40.027" y="0">Unstressed</tspan></text>
        <text id="green" transform="translate(509.666 4342)" fill="#3c3fa7" font-size="16" font-family="Roboto-BoldItalic, Roboto" font-weight="700" font-style="italic"><tspan x="-20.195" y="0">green</tspan></text>
        <path id="Path_213185" data-name="Path 213185" d="M7010-5852l77,144,100-104" transform="translate(-6576 10025.833)" fill="none" stroke="#fc5f65" stroke-linecap="round" stroke-width="5"/>
      </g>
    </g>
    <path id="What_do_you_mean_by" data-name="What do you mean by" d="M-79.672-1.437A3.837,3.837,0,0,1-81.457-.246a7.523,7.523,0,0,1-2.652.395,4.114,4.114,0,0,1-2.047-.512,3.572,3.572,0,0,1-1.391-1.449,5.128,5.128,0,0,1-.578-2.156,9.841,9.841,0,0,1,.238-2.645A7.438,7.438,0,0,1-86.8-9.277a5.076,5.076,0,0,1,1.848-1.711,4.868,4.868,0,0,1,2.391-.543,3.954,3.954,0,0,1,2.789,1,4.165,4.165,0,0,1,1.148,2.785l-2.2-.008a2.331,2.331,0,0,0-.508-1.406,1.731,1.731,0,0,0-1.258-.484,2.467,2.467,0,0,0-2.277,1.27,7.9,7.9,0,0,0-.949,3.816,3.355,3.355,0,0,0,.41,2.07,1.7,1.7,0,0,0,1.488.75,3.171,3.171,0,0,0,1.984-.555l.383-1.961h-2.078l.3-1.727h4.344Zm7.18-4.9a4.548,4.548,0,0,0-.742-.078,2.136,2.136,0,0,0-1.867.883L-76.078,0h-2.2l1.469-8.453,2.07-.008-.2,1.031a2.325,2.325,0,0,1,1.969-1.2,3.214,3.214,0,0,1,.766.109ZM-68.523.156a3.677,3.677,0,0,1-1.965-.543,3.292,3.292,0,0,1-1.277-1.469,4.093,4.093,0,0,1-.328-2.059l.023-.312a5.465,5.465,0,0,1,.719-2.266A4.341,4.341,0,0,1-69.8-8.082a3.827,3.827,0,0,1,2.094-.527,2.924,2.924,0,0,1,2.473,1.2A4.117,4.117,0,0,1-64.6-4.447l-.125.962h-5.18a1.814,1.814,0,0,0,.4,1.313,1.521,1.521,0,0,0,1.172.508A2.7,2.7,0,0,0-66.227-2.6l1.008,1.25A3.135,3.135,0,0,1-66.594-.23,4.5,4.5,0,0,1-68.523.156Zm.7-6.945a1.565,1.565,0,0,0-1.082.383,3.363,3.363,0,0,0-.848,1.383h3.031l.047-.2a2.071,2.071,0,0,0,.008-.594,1.134,1.134,0,0,0-.383-.707A1.2,1.2,0,0,0-67.82-6.789ZM-60.055.156A3.677,3.677,0,0,1-62.02-.387,3.292,3.292,0,0,1-63.3-1.855a4.093,4.093,0,0,1-.328-2.059l.023-.312a5.465,5.465,0,0,1,.719-2.266,4.341,4.341,0,0,1,1.547-1.59,3.827,3.827,0,0,1,2.094-.527,2.924,2.924,0,0,1,2.473,1.2,4.117,4.117,0,0,1,.637,2.962l-.125.962h-5.18a1.814,1.814,0,0,0,.4,1.313,1.521,1.521,0,0,0,1.172.508A2.7,2.7,0,0,0-57.758-2.6l1.008,1.25A3.135,3.135,0,0,1-58.125-.23,4.5,4.5,0,0,1-60.055.156Zm.7-6.945a1.565,1.565,0,0,0-1.082.383,3.363,3.363,0,0,0-.848,1.383h3.031l.047-.2A2.071,2.071,0,0,0-58.2-5.82a1.134,1.134,0,0,0-.383-.707A1.2,1.2,0,0,0-59.352-6.789Zm7.234-1.672-.187,1a3.042,3.042,0,0,1,2.461-1.148,2.028,2.028,0,0,1,1.766.875,3.526,3.526,0,0,1,.414,2.359L-48.555,0h-2.2l.906-5.4a2.528,2.528,0,0,0,.016-.555.9.9,0,0,0-1-.82,1.9,1.9,0,0,0-1.555.8L-53.445,0h-2.2l1.469-8.453Zm8.648.945A2.946,2.946,0,0,1-41.18-8.609a2.143,2.143,0,0,1,1.848.9,3.548,3.548,0,0,1,.441,2.379L-39.781,0h-2.2l.9-5.358a2.6,2.6,0,0,0,.016-.563.885.885,0,0,0-.984-.868,1.9,1.9,0,0,0-1.562.766L-44.68,0h-2.2L-44.8-12h2.211Zm10.242-1.094a3.39,3.39,0,0,1,1.926.574A3.234,3.234,0,0,1-30.113-6.5a4.762,4.762,0,0,1,.27,2.176,5.143,5.143,0,0,1-1.4,3.262A3.96,3.96,0,0,1-34.266.156,3.38,3.38,0,0,1-36.172-.41a3.222,3.222,0,0,1-1.187-1.527,4.657,4.657,0,0,1-.273-2.156,5.3,5.3,0,0,1,1.422-3.328A3.878,3.878,0,0,1-33.227-8.609Zm-2.227,5.315A1.95,1.95,0,0,0-35.1-2.113a1.168,1.168,0,0,0,.945.449A1.712,1.712,0,0,0-32.562-2.6a4.647,4.647,0,0,0,.539-2.531,2.122,2.122,0,0,0-.363-1.2,1.149,1.149,0,0,0-.949-.464,1.715,1.715,0,0,0-1.574.924A4.6,4.6,0,0,0-35.453-3.294ZM-23.977-.875A2.919,2.919,0,0,1-26.3.156a2.172,2.172,0,0,1-1.844-.875,3.2,3.2,0,0,1-.484-2.266l.914-5.469h2.2l-.93,5.5a2.175,2.175,0,0,0-.008.485.8.8,0,0,0,.867.806,2.014,2.014,0,0,0,1.7-.79l1.055-6h2.219L-22.086,0h-2.055Zm8.43-1.508q.125-.625-.867-.906l-.711-.18q-2.523-.7-2.453-2.453A2.428,2.428,0,0,1-18.52-7.871a3.942,3.942,0,0,1,2.457-.738,3.536,3.536,0,0,1,2.313.758,2.5,2.5,0,0,1,.9,1.977l-2.187-.008a.963.963,0,0,0-1.078-1.1,1.551,1.551,0,0,0-.895.258,1.061,1.061,0,0,0-.465.7q-.117.625.945.883l.313.07a6.285,6.285,0,0,1,1.648.59,2.488,2.488,0,0,1,.879.824,2.04,2.04,0,0,1,.285,1.18,2.251,2.251,0,0,1-.52,1.406,3.18,3.18,0,0,1-1.359.93,4.736,4.736,0,0,1-1.816.3,3.568,3.568,0,0,1-2.344-.809A2.607,2.607,0,0,1-20.4-2.7l2.078.016a1.142,1.142,0,0,0,1.3,1.227,1.845,1.845,0,0,0,1-.25A.987.987,0,0,0-15.547-2.383ZM-8.375.156A3.677,3.677,0,0,1-10.34-.387a3.292,3.292,0,0,1-1.277-1.469,4.093,4.093,0,0,1-.328-2.059l.023-.312A5.465,5.465,0,0,1-11.2-6.492a4.341,4.341,0,0,1,1.547-1.59,3.827,3.827,0,0,1,2.094-.527,2.924,2.924,0,0,1,2.473,1.2,4.117,4.117,0,0,1,.637,2.962l-.125.962h-5.18a1.814,1.814,0,0,0,.4,1.313,1.521,1.521,0,0,0,1.172.508A2.7,2.7,0,0,0-6.078-2.6l1.008,1.25A3.135,3.135,0,0,1-6.445-.23,4.5,4.5,0,0,1-8.375.156Zm.7-6.945a1.565,1.565,0,0,0-1.082.383A3.363,3.363,0,0,0-9.6-5.023H-6.57l.047-.2a2.071,2.071,0,0,0,.008-.594A1.134,1.134,0,0,0-6.9-6.527,1.2,1.2,0,0,0-7.672-6.789Z" transform="translate(6930 -5871)" fill="#fc5f65"/>
  </g>
</svg>
