<svg xmlns="http://www.w3.org/2000/svg" xmlns:xlink="http://www.w3.org/1999/xlink" width="400" height="333.18" viewBox="0 0 400 333.18">
  <defs>
    <clipPath id="clip-path">
      <rect id="Rectangle_339376" data-name="Rectangle 339376" width="399.53" height="302.18" fill="none"/>
    </clipPath>
    <clipPath id="clip-path-3">
      <rect id="Rectangle_339365" data-name="Rectangle 339365" width="4.549" height="4.292" fill="none"/>
    </clipPath>
    <clipPath id="clip-path-4">
      <rect id="Rectangle_339366" data-name="Rectangle 339366" width="4.549" height="4.293" fill="none"/>
    </clipPath>
    <clipPath id="clip-path-5">
      <rect id="Rectangle_339367" data-name="Rectangle 339367" width="3.977" height="3.479" fill="none"/>
    </clipPath>
    <clipPath id="clip-path-6">
      <rect id="Rectangle_339368" data-name="Rectangle 339368" width="2.94" height="2.856" fill="none"/>
    </clipPath>
    <clipPath id="clip-path-7">
      <rect id="Rectangle_339369" data-name="Rectangle 339369" width="6.487" height="6.198" fill="none"/>
    </clipPath>
    <clipPath id="clip-path-8">
      <rect id="Rectangle_339370" data-name="Rectangle 339370" width="6.487" height="6.197" fill="none"/>
    </clipPath>
    <clipPath id="clip-path-9">
      <rect id="Rectangle_339371" data-name="Rectangle 339371" width="5.821" height="5.156" fill="none"/>
    </clipPath>
    <clipPath id="clip-path-10">
      <rect id="Rectangle_339372" data-name="Rectangle 339372" width="4.503" height="4.438" fill="none"/>
    </clipPath>
    <clipPath id="clip-path-11">
      <path id="Path_211783" data-name="Path 211783" d="M133.739,50.334s-12.026,10.76-17.171-3.542c0,0,3.955-4.531,8.51-4.531,2.937,0,6.123,1.882,8.661,8.073" transform="translate(-116.568 -42.261)" fill="none"/>
    </clipPath>
    <clipPath id="clip-path-13">
      <path id="Path_211786" data-name="Path 211786" d="M150.252,45.156c-14.222,1.516-6.463-10.946-6.463-10.946,10.082.3,6.463,10.946,6.463,10.946" transform="translate(-141.677 -34.21)" fill="none"/>
    </clipPath>
  </defs>
  <g id="_31" data-name="31" transform="translate(-180 -2478)">
    <rect id="Rectangle_339227" data-name="Rectangle 339227" width="281" height="125" rx="13" transform="translate(299 2686)" fill="#fed947"/>
    <rect id="Rectangle_339593" data-name="Rectangle 339593" width="281" height="333" rx="13" transform="translate(180 2478)" fill="#6b8dfc"/>
    <g id="Group_984264" data-name="Group 984264" transform="translate(180 2509)">
      <g id="Group_984263" data-name="Group 984263" clip-path="url(#clip-path)">
        <rect id="Rectangle_339364" data-name="Rectangle 339364" width="20.183" height="34.424" transform="translate(116.449 47.91)" fill="#e27171"/>
        <g id="Group_984254" data-name="Group 984254">
          <g id="Group_984253" data-name="Group 984253" clip-path="url(#clip-path)">
            <path id="Path_211814" data-name="Path 211814" d="M-1354.587-9009.748l-18.394,72.32s-2.5,7.143-2.024,9.416,1.618,26.531,4.931,27.721-1.2,2.424,8.746,4.592,11.636-95.744,11.636-95.744Z" transform="translate(1576.4 9131.815)" fill="#fff"/>
            <path id="Path_211709" data-name="Path 211709" d="M303.039,54.789V72.2c-13.559-6.176-19.455-23.8-19.455-23.8l-1.529-5.765Z" transform="translate(-166.406 -2.896)"/>
            <path id="Path_211710" data-name="Path 211710" d="M274.689,209.751l83.263-2.591,1.379,108.475v.615H260.605Zm82.06-1.333-80.988,2.507L261.984,315.039H358.11Z" transform="translate(-202.705 -14.071)"/>
            <path id="Path_211711" data-name="Path 211711" d="M261.915,315.131H358.04L356.679,208.51l-80.988,2.507Z" transform="translate(-202.635 -14.162)" fill="#fff"/>
            <path id="Path_211712" data-name="Path 211712" d="M278.524,258.586a.607.607,0,0,0,.606-.6l.823-48.678a.606.606,0,0,0-1.213-.021l-.823,48.678a.607.607,0,0,0,.6.617Z" transform="translate(-139.463 -14.175)"/>
            <path id="Path_211713" data-name="Path 211713" d="M291.835,251.844a.606.606,0,0,0,.606-.595l.775-39.748a.606.606,0,1,0-1.213-.023l-.774,39.748a.606.606,0,0,0,.594.618Z" transform="translate(-165.134 -14.323)"/>
            <path id="Path_211714" data-name="Path 211714" d="M284.084,224.757c1.531,0,2.683-2.114,2.683-4.917s-1.153-4.917-2.683-4.917-2.683,2.114-2.683,4.917,1.154,4.917,2.683,4.917m0-8.621c.6,0,1.471,1.444,1.471,3.7s-.872,3.7-1.471,3.7-1.471-1.444-1.471-3.7.872-3.7,1.471-3.7" transform="translate(-149.526 -14.598)"/>
            <path id="Path_211715" data-name="Path 211715" d="M265.71,239.922h.007l58.52-.743a.606.606,0,1,0-.014-1.212l-58.521.742a.606.606,0,0,0,.007,1.213" transform="translate(-172.403 -16.163)"/>
            <path id="Path_211716" data-name="Path 211716" d="M224.746,98.4l33.585-9.442,2.012-11.249,28.182-.8-.347,10.338,17.338,2.512a26.212,26.212,0,0,1,21.738,19.853l18.01,78.655c1.719,7.508,2.433,22.573-3.074,27.958L305.825,236.15l.457-33.759,8.445-6.195-8.832-39.263v61.035l-88.213.917Z" transform="translate(-149.878 -5.224)" fill="#ffc849"/>
            <path id="Path_211717" data-name="Path 211717" d="M278.108,269.5l98.776-90.05-9.934,4.045L266.8,260.919Z" transform="translate(-226.036 -12.188)" fill="#5774cd"/>
            <path id="Path_211718" data-name="Path 211718" d="M279.459,10.039c8.72,3.63-5.652,13.207-13.866,16.119s-17.431-1.942-20.589-10.846-3.852-9.98,4.361-12.893,16.928,2.139,30.093,7.619" transform="translate(-108.959 -0.106)"/>
            <path id="Path_211719" data-name="Path 211719" d="M371.032,132.085l-6.687-16.646,11.574-4.508,4.851,11.883-6.261,10.237Z" transform="translate(-320.839 -7.535)"/>
            <path id="Path_211720" data-name="Path 211720" d="M407.376,131.563s-16.131,1.234-31.708,21.824L368.9,207.6l-13.7,13.29,2.681,56.414,49.392-11.062,16.381-123.637Z" transform="translate(-355.202 -8.936)" fill="#5774cd"/>
            <path id="Path_211721" data-name="Path 211721" d="M388.978,113.036l-3.112,18.45-11.106,5.564,2-19.464Z" transform="translate(-338.753 -7.678)" fill="#5774cd"/>
            <path id="Path_211722" data-name="Path 211722" d="M287.412,10.656s20.156,4.584,15,31.72-17.671,27.84-27.6,25.166c-12.285-3.307-23.253-21.5-21.89-28.671l-4.127-27.827Z" transform="translate(-135.613 -0.724)" fill="#e27171"/>
            <path id="Path_211723" data-name="Path 211723" d="M272.487,41.792a9.476,9.476,0,0,0-6.347-9.63c-7.094-2.651-11.4.282-11.4.282s-.573,6.781,7.484,10.015,10.264-.667,10.264-.667" transform="translate(-110.409 -2.109)" fill="#fff"/>
            <path id="Path_211724" data-name="Path 211724" d="M244.466,45.351l7.4,1.024-9.712,7.188Z" transform="translate(-78.04 -3.08)" fill="#e27171"/>
            <path id="Path_211725" data-name="Path 211725" d="M256.283,25.313a1.026,1.026,0,0,1-.765-.606.881.881,0,0,1,.583-1.173,19.2,19.2,0,0,1,13.485.6.91.91,0,0,1,.444,1.253,1.02,1.02,0,0,1-1.341.372,17.34,17.34,0,0,0-11.88-.476,1.06,1.06,0,0,1-.525.031" transform="translate(-108.709 -1.535)"/>
            <path id="Path_211726" data-name="Path 211726" d="M356.48,92.288,329.9,99.446a32.109,32.109,0,0,0-23.03,24.186L289.7,216.562a26.573,26.573,0,0,0,42.421,25.822L384.949,201.4l-16.94-31.609-33.24,20.583,4.562-81.92Z" transform="translate(-255.027 -6.268)" fill="#ffc849"/>
            <path id="Path_211727" data-name="Path 211727" d="M265.888,41.851a9.476,9.476,0,0,0-6.347-9.63c-.3-.111-.589-.21-.877-.3a6.466,6.466,0,0,0-3.933,6.044,6.947,6.947,0,0,0,2.192,5.031c7,2.329,8.965-1.143,8.965-1.143" transform="translate(-103.809 -2.168)"/>
            <path id="Path_211728" data-name="Path 211728" d="M268.526,64.653a.812.812,0,0,0,.479-1.468c-2.746-2-5.2-4.363-5.26-5.048a.812.812,0,1,0-1.618-.14c-.174,1.77,3.635,4.832,5.92,6.5a.811.811,0,0,0,.479.157" transform="translate(-114.126 -3.889)"/>
            <path id="Path_211729" data-name="Path 211729" d="M280.019,96.85l9.5-4.562L338.806,157.3l-7.844,5.322Z" transform="translate(-200.276 -6.268)" fill="#5774cd"/>
            <path id="Path_211730" data-name="Path 211730" d="M283.283,2.148c11.987-3.543,25.611-3.284,28.624,5.214s-4.093,18.775-15.874,22.953c-4.312,1.53-9.82,2.055-15.072,2.11-1.112,4.767-2.2,8.477-2.2,8.477l-3.675,16.33s-6.661-12.292-9.818-21.2c-.673-1.9-5.924-26.814,18.019-33.889" transform="translate(-159.433 0)"/>
            <path id="Path_211731" data-name="Path 211731" d="M309.688,33.839s-3.037-7.136-9.695-5.106-6.167,13.108-.625,15.221c6.224,2.374,10.064-1.209,10.064-1.209Z" transform="translate(-185.22 -1.927)" fill="#e27171"/>
            <path id="Path_211732" data-name="Path 211732" d="M304.317,39.512a1.03,1.03,0,0,1-.739-.548c-1.547-3.177-6.427-5.558-6.476-5.581a.913.913,0,0,1-.458-1.249,1.021,1.021,0,0,1,1.339-.384c.227.11,5.575,2.721,7.415,6.5a.875.875,0,0,1-.495,1.209,1.065,1.065,0,0,1-.586.052" transform="translate(-182.359 -2.149)"/>
            <path id="Path_211733" data-name="Path 211733" d="M299.355,40.791a1.052,1.052,0,0,1-.585-.324.869.869,0,0,1,.1-1.3l3.63-2.78a1.066,1.066,0,0,1,1.411.138.87.87,0,0,1-.1,1.3L300.18,40.6a1.038,1.038,0,0,1-.826.186" transform="translate(-182.878 -2.458)"/>
            <path id="Path_211734" data-name="Path 211734" d="M277.144,180.084l1.553-2.954s.61-13.069,10.338-18.254,6.894.7,6.894.7,7.364,17.9,5.177,23.5c-.732,1.875-8.668,6.478-12.171,7.859a12.6,12.6,0,0,0-4.219,3.342Z" transform="translate(-160.302 -10.646)" fill="#e27171"/>
            <path id="Path_211735" data-name="Path 211735" d="M288.379,158.613l-10.028,4.9a3.264,3.264,0,0,0-1.358,4.55,3.5,3.5,0,0,0,4.778,1.429l9.622-5.6a2.9,2.9,0,0,0,.9-4.1,3.09,3.09,0,0,0-3.916-1.167" transform="translate(-151.034 -10.753)" fill="#e27171"/>
            <path id="Path_211736" data-name="Path 211736" d="M288.934,169.4l-11.607,6.541a3.225,3.225,0,0,1-3.932-.714l-.212-.231a3.071,3.071,0,0,1,.653-4.829l11.82-6.311a3.261,3.261,0,0,1,4.193,1.154,3.04,3.04,0,0,1-.915,4.39" transform="translate(-144.688 -11.105)" fill="#e27171"/>
            <path id="Path_211737" data-name="Path 211737" d="M284.415,171.673h0a2.812,2.812,0,0,0-3.574-.864l-7.891,4.062a2.811,2.811,0,0,0-1.336,3.515l.258.669a2.812,2.812,0,0,0,4.1,1.376l7.632-4.731a2.811,2.811,0,0,0,.805-4.027" transform="translate(-138.4 -11.58)" fill="#e27171"/>
            <path id="Path_211738" data-name="Path 211738" d="M281.333,177.822h0a2.435,2.435,0,0,0-2.841-.52l-6.444,3.48a2.1,2.1,0,0,0-.675,3.013l.427.7a2.458,2.458,0,0,0,3.406.88l6.017-4.177a2.19,2.19,0,0,0,.11-3.373" transform="translate(-135.143 -12.025)" fill="#e27171"/>
            <path id="Path_211739" data-name="Path 211739" d="M274.4,174.871a.376.376,0,0,1-.311-.685c.4-.189,5.064-2.683,7.473-3.975a.376.376,0,1,1,.356.663c-.285.153-6.986,3.749-7.509,3.994l-.008,0" transform="translate(-137.85 -11.558)"/>
            <path id="Path_211740" data-name="Path 211740" d="M275.825,168.422a.376.376,0,0,1-.309-.686c.447-.209,5.767-3.2,8.516-4.751a.376.376,0,0,1,.37.655c-.326.184-7.983,4.5-8.569,4.778l-.008,0" transform="translate(-141.663 -11.067)"/>
            <path id="Path_211741" data-name="Path 211741" d="M273.152,180.642a.376.376,0,0,1-.3-.689c.532-.234,4.435-2.47,6.425-3.62a.376.376,0,0,1,.377.651c-.237.137-5.8,3.348-6.5,3.658h0" transform="translate(-134.416 -11.973)"/>
            <path id="Path_211742" data-name="Path 211742" d="M288.471,164.464a.376.376,0,0,1-.34-.669l4.432-2.588a.376.376,0,1,1,.379.65l-4.432,2.588-.039.02" transform="translate(-161.985 -10.946)"/>
            <path id="Path_211743" data-name="Path 211743" d="M337.924,225.729a.6.6,0,0,0,.378-.132l22.62-18.124a.606.606,0,0,0,.155-.761L344.137,175.1a.606.606,0,0,0-.91-.189l-54.392,42.844a.606.606,0,1,0,.75.952l53.825-42.4,16.361,30.527-22.226,17.807a.607.607,0,0,0,.379,1.08" transform="translate(-230.621 -11.872)"/>
            <path id="Path_211744" data-name="Path 211744" d="M341.025,209.689a.606.606,0,0,0,.585-.449l12.916-47.909a.606.606,0,1,0-1.17-.316l-12.917,47.911a.608.608,0,0,0,.585.763" transform="translate(-272.314 -10.906)"/>
            <path id="Path_211745" data-name="Path 211745" d="M353.85,135.967a.676.676,0,0,0,.105-.008.607.607,0,0,0,.493-.7c-3.348-19.281-14.191-30.788-14.3-30.9a.606.606,0,1,0-.876.838c.106.111,10.7,11.37,13.982,30.269a.606.606,0,0,0,.6.5" transform="translate(-270.999 -7.075)"/>
            <path id="Path_211746" data-name="Path 211746" d="M261.3,162.412h.008a.606.606,0,0,0,.6-.614l-.443-34.568a.607.607,0,0,0-.606-.6h-.008a.607.607,0,0,0-.6.614l.443,34.568a.607.607,0,0,0,.607.6" transform="translate(-104.947 -8.601)"/>
            <path id="Path_211747" data-name="Path 211747" d="M282.009,321.3a.606.606,0,0,0,.6-.5l6.717-38.13H303.7a.606.606,0,1,0,0-1.213H288.813a.6.6,0,0,0-.6.5l-6.806,38.631a.607.607,0,0,0,.492.7.517.517,0,0,0,.106.009" transform="translate(-167.064 -19.117)"/>
            <path id="Path_211748" data-name="Path 211748" d="M237.838,204.763a.615.615,0,0,0,.358-.116l12.957-9.452a.607.607,0,0,0-.716-.981l-12.957,9.452a.606.606,0,0,0,.358,1.1" transform="translate(-72.989 -13.183)"/>
            <path id="Path_211749" data-name="Path 211749" d="M259.451,221.157l9.063-3.395a3.321,3.321,0,0,1,2.08,6.272l-9.31,2.651a2.794,2.794,0,0,1-3.29-2.145,2.732,2.732,0,0,1,1.458-3.383" transform="translate(-113.407 -14.78)" fill="#e27171"/>
            <path id="Path_211750" data-name="Path 211750" d="M258.434,233.119l11.081-3.344a2.772,2.772,0,0,0,1.773-3.092l-.035-.3c-.23-1.964-2.01-3.33-3.639-2.794l-11.046,3.64a2.869,2.869,0,0,0-1.627,3.56,2.938,2.938,0,0,0,3.493,2.326" transform="translate(-109.299 -15.179)" fill="#e27171"/>
            <path id="Path_211751" data-name="Path 211751" d="M254.416,235.785h0a2.455,2.455,0,0,1,1.467-2.954l7.273-2.531a2.627,2.627,0,0,1,3.142,1.462l.3.62a2.514,2.514,0,0,1-1.426,3.648l-7.576,1.912a2.726,2.726,0,0,1-3.184-2.157" transform="translate(-104.442 -15.634)" fill="#e27171"/>
            <path id="Path_211752" data-name="Path 211752" d="M253.576,240.283h0a2.091,2.091,0,0,1,1.279-2.237l6.049-1.957a2.02,2.02,0,0,1,2.424,1.566l.226.749a2.155,2.155,0,0,1-1.359,2.853l-6.276,1.208a2.18,2.18,0,0,1-2.343-2.182" transform="translate(-100.484 -16.03)" fill="#e27171"/>
            <g id="Group_984231" data-name="Group 984231" transform="translate(145.209 206.982)" opacity="0.3" style="mix-blend-mode: overlay;isolation: isolate">
              <g id="Group_984230" data-name="Group 984230">
                <g id="Group_984229" data-name="Group 984229" clip-path="url(#clip-path-3)">
                  <path id="Path_211753" data-name="Path 211753" d="M270.941,226.254a2.127,2.127,0,0,0,1.474-2.7,2.3,2.3,0,0,0-2.858-1.387,2.127,2.127,0,0,0-1.475,2.7,2.3,2.3,0,0,0,2.859,1.387" transform="translate(-267.974 -222.065)"/>
                </g>
              </g>
            </g>
            <g id="Group_984234" data-name="Group 984234" transform="translate(146.435 212.648)" opacity="0.3" style="mix-blend-mode: overlay;isolation: isolate">
              <g id="Group_984233" data-name="Group 984233">
                <g id="Group_984232" data-name="Group 984232" clip-path="url(#clip-path-4)">
                  <path id="Path_211754" data-name="Path 211754" d="M269.624,232.333a2.127,2.127,0,0,0,1.474-2.7,2.3,2.3,0,0,0-2.858-1.387,2.126,2.126,0,0,0-1.474,2.7,2.3,2.3,0,0,0,2.858,1.387" transform="translate(-266.658 -228.143)"/>
                </g>
              </g>
            </g>
            <g id="Group_984237" data-name="Group 984237" transform="translate(150.559 217.868)" opacity="0.3" style="mix-blend-mode: overlay;isolation: isolate">
              <g id="Group_984236" data-name="Group 984236">
                <g id="Group_984235" data-name="Group 984235" clip-path="url(#clip-path-5)">
                  <path id="Path_211755" data-name="Path 211755" d="M265.391,237.123a1.806,1.806,0,0,0,1.353-2.218,1.952,1.952,0,0,0-2.464-1.062,1.805,1.805,0,0,0-1.353,2.218,1.951,1.951,0,0,0,2.464,1.062" transform="translate(-262.846 -233.744)"/>
                </g>
              </g>
            </g>
            <g id="Group_984240" data-name="Group 984240" transform="translate(153.665 222.871)" opacity="0.3" style="mix-blend-mode: overlay;isolation: isolate">
              <g id="Group_984239" data-name="Group 984239">
                <g id="Group_984238" data-name="Group 984238" clip-path="url(#clip-path-6)">
                  <path id="Path_211756" data-name="Path 211756" d="M262.559,241.9a1.393,1.393,0,0,0,.932-1.787,1.5,1.5,0,0,0-1.856-.94,1.392,1.392,0,0,0-.933,1.786,1.507,1.507,0,0,0,1.857.941" transform="translate(-260.627 -239.112)"/>
                </g>
              </g>
            </g>
            <path id="Path_211757" data-name="Path 211757" d="M258.409,227.641a.338.338,0,0,1-.4-.2.3.3,0,0,1,.212-.385l9.813-2.929a3.722,3.722,0,0,0,1.392-.8.349.349,0,0,1,.465-.037.29.29,0,0,1,.044.431,4.314,4.314,0,0,1-1.7.99l-9.809,2.928-.02.006" transform="translate(-110.953 -15.161)"/>
            <path id="Path_211758" data-name="Path 211758" d="M256.686,233.439a.338.338,0,0,1-.4-.208.3.3,0,0,1,.219-.381L262.4,231.2c.434-.122,2.754-.9,3.329-1.148a.344.344,0,0,1,.44.15.3.3,0,0,1-.16.405c-.611.259-2.958,1.05-3.413,1.177l-5.894,1.649-.014,0" transform="translate(-105.535 -15.624)"/>
            <path id="Path_211759" data-name="Path 211759" d="M255.279,238.485a.337.337,0,0,1-.4-.211.3.3,0,0,1,.223-.379c.079-.021,1.933-.517,2.511-.647.608-.135,4.215-1.114,4.782-1.355a.344.344,0,0,1,.439.151.294.294,0,0,1-.159.4c-.628.267-4.322,1.264-4.9,1.394-.562.124-2.463.635-2.481.639l-.01,0" transform="translate(-100.889 -16.02)"/>
            <path id="Path_211760" data-name="Path 211760" d="M113.3,93.219,140.6,95.9l-18.933,3.011Z" transform="translate(153.322 -6.332)"/>
            <path id="Path_211761" data-name="Path 211761" d="M121.623,99.471a.544.544,0,0,0,.1-.007l18.933-3.011a.606.606,0,0,0-.036-1.2l-27.3-2.679a.607.607,0,0,0-.4,1.105l8.364,5.689a.605.605,0,0,0,.341.1M135.8,96l-14.035,2.231-6.2-4.218Z" transform="translate(153.367 -6.287)"/>
            <path id="Path_211762" data-name="Path 211762" d="M110.467,78c13.558-10.065,12.68-19.986,12.68-19.986L89.422,61.508l1.735,25.445" transform="translate(193.023 -3.941)"/>
            <path id="Path_211763" data-name="Path 211763" d="M118.149,94.582l3.357,2.284,14.416-2.151V63.136H118.149Z" transform="translate(153.483 -4.288)" fill="#ffa85a"/>
            <path id="Path_211764" data-name="Path 211764" d="M135.922,78.849V83.57c-2.4,2.205-7.484,5.147-17.774,5.715V78.842h17.768Z" transform="translate(153.485 -5.355)"/>
            <path id="Path_211765" data-name="Path 211765" d="M100.387,276.411,93.24,320.348H195.219l-1.681-40.806Z" transform="translate(117.405 -18.774)" fill="#5774cd"/>
            <path id="Path_211766" data-name="Path 211766" d="M207.015,244.756h1.676a.606.606,0,1,0,0-1.213h-1.676a15.682,15.682,0,0,1-15.538-17.813l2.285-16.673,19.693-77.91a.606.606,0,1,0-1.175-.3l-19.706,77.976-2.3,16.739a16.894,16.894,0,0,0,16.739,19.191" transform="translate(8.85 -8.856)"/>
            <path id="Path_211767" data-name="Path 211767" d="M8.334,146.8l-3.477-17.84a1.249,1.249,0,0,1-.009-.186c.438-3.868,4.511-11.642,13.6-16.06l21.168-10.29a.609.609,0,0,1,.494-.019.589.589,0,0,1,.345.354l4.418,11.977L58.265,98.885a.582.582,0,0,1,.522-.205.6.6,0,0,1,.475.317L69.217,118.1l17.626-13.217a.635.635,0,0,1,.652-.056l32.837,17.4a49.068,49.068,0,0,1,21.96,23.777l39.166,90.551a21.8,21.8,0,0,1-16.843,30.218l-64.3,9.442a.319.319,0,0,1-.093.009.63.63,0,0,1-.364-.121.617.617,0,0,1-.233-.41l-2.8-22.883-4.12,14.811a.588.588,0,0,1-.606.447L.588,265.484a.645.645,0,0,1-.429-.205A.6.6,0,0,1,0,264.832ZM91.661,266.855l4.782-17.178-.065-.485a.614.614,0,0,1,.373-.634l16.684-59.951a.6.6,0,0,1,.5-.438.589.589,0,0,1,.606.3L140.4,233.654a.6.6,0,0,1-.326.876L97.748,249.49l-.075.28,3.076,25.166,63.689-9.349a20.591,20.591,0,0,0,15.911-28.55L141.183,146.5a47.845,47.845,0,0,0-21.419-23.19L87.271,106.09,69.366,119.512a.622.622,0,0,1-.494.1.585.585,0,0,1-.4-.308L58.6,100.357,45.132,116.315a.627.627,0,0,1-.569.214.606.606,0,0,1-.466-.391l-4.549-12.331-20.571,10c-8.128,3.952-12.425,11.12-12.909,15.016l3.467,17.821a.96.96,0,0,1,.009.158L1.259,264.282Zm6.487-18.791,40.844-14.438-24.784-43.3Z" transform="translate(216.265 -6.702)"/>
            <path id="Path_211768" data-name="Path 211768" d="M1.3,264.4l90.4,2.573L96.48,249.8l-.065-.485a.614.614,0,0,1,.373-.634l16.684-59.951a.6.6,0,0,1,.5-.438.589.589,0,0,1,.606.3l25.856,45.187a.6.6,0,0,1-.326.876l-42.326,14.96-.075.28,3.076,25.166,63.689-9.349a20.591,20.591,0,0,0,15.911-28.55L141.22,146.618a47.845,47.845,0,0,0-21.419-23.19L87.309,106.212,69.4,119.634a.622.622,0,0,1-.494.1.585.585,0,0,1-.4-.308L58.638,100.48,45.169,116.437a.627.627,0,0,1-.569.214.606.606,0,0,1-.466-.391l-4.549-12.331-20.571,10c-8.128,3.952-12.425,11.12-12.909,15.016l3.467,17.821a.96.96,0,0,1,.009.158Z" transform="translate(216.227 -6.825)" fill="#fff"/>
            <path id="Path_211769" data-name="Path 211769" d="M90.331,259.2l11.786-1.625a4.082,4.082,0,0,1,.8,8.083l-11.881.667a3.435,3.435,0,0,1-3.368-3.46,3.36,3.36,0,0,1,2.662-3.665" transform="translate(211.628 -17.492)" fill="#ffa85a"/>
            <path id="Path_211770" data-name="Path 211770" d="M89.148,274.438l14.194-1.019a3.407,3.407,0,0,0,2.96-3.23l.038-.363c.254-2.418-1.513-4.538-3.61-4.334L88.5,266.874a3.527,3.527,0,0,0-2.912,3.831,3.612,3.612,0,0,0,3.561,3.733" transform="translate(213.394 -18.032)" fill="#ffa85a"/>
            <path id="Path_211771" data-name="Path 211771" d="M86.839,277.869h0a3.019,3.019,0,0,1,2.557-3.147l9.407-1.072a3.228,3.228,0,0,1,3.373,2.6l.2.825a3.092,3.092,0,0,1-2.695,3.992l-9.6.247a3.352,3.352,0,0,1-3.236-3.447" transform="translate(216.115 -18.585)" fill="#ffa85a"/>
            <path id="Path_211772" data-name="Path 211772" d="M87.433,284.135h0A2.571,2.571,0,0,1,89.57,281.8l7.785-.715a2.485,2.485,0,0,1,2.485,2.533l.068.959a2.649,2.649,0,0,1-2.4,3.054l-7.853-.244a2.68,2.68,0,0,1-2.221-3.25" transform="translate(218.151 -19.091)" fill="#ffa85a"/>
            <g id="Group_984243" data-name="Group 984243" transform="translate(299.697 242.292)" opacity="0.3">
              <g id="Group_984242" data-name="Group 984242">
                <g id="Group_984241" data-name="Group 984241" clip-path="url(#clip-path-7)">
                  <path id="Path_211773" data-name="Path 211773" d="M103.456,266.145c.082,0,.164,0,.248-.009a3.192,3.192,0,0,0,2.239-1.126,2.944,2.944,0,0,0,.676-2.215,3.3,3.3,0,0,0-3.538-2.841,3.189,3.189,0,0,0-2.239,1.127,2.947,2.947,0,0,0-.677,2.215,3.281,3.281,0,0,0,3.291,2.849m-.128-5.29a2.366,2.366,0,0,1,2.387,2.037,2.044,2.044,0,0,1-.471,1.535,2.284,2.284,0,0,1-1.608.8,2.377,2.377,0,0,1-2.568-2.028,2.04,2.04,0,0,1,.471-1.536,2.279,2.279,0,0,1,1.607-.8c.061,0,.121-.007.182-.007" transform="translate(-100.148 -259.948)" fill="#ffd4de"/>
                </g>
              </g>
            </g>
            <g id="Group_984246" data-name="Group 984246" transform="translate(299.638 249.42)" opacity="0.3">
              <g id="Group_984245" data-name="Group 984245">
                <g id="Group_984244" data-name="Group 984244" clip-path="url(#clip-path-8)">
                  <path id="Path_211774" data-name="Path 211774" d="M103.519,273.792c.082,0,.164,0,.247-.009a3.188,3.188,0,0,0,2.239-1.126,2.949,2.949,0,0,0,.677-2.216,3.3,3.3,0,0,0-3.539-2.84,3.189,3.189,0,0,0-2.238,1.127,2.937,2.937,0,0,0-.677,2.214,3.28,3.28,0,0,0,3.291,2.85m-.127-5.29a2.363,2.363,0,0,1,2.385,2.036,2.043,2.043,0,0,1-.471,1.536,2.282,2.282,0,0,1-1.607.8,2.388,2.388,0,0,1-2.569-2.03,2.045,2.045,0,0,1,.471-1.534,2.28,2.28,0,0,1,1.608-.8c.062,0,.122-.007.183-.007" transform="translate(-100.211 -267.595)" fill="#ffd4de"/>
                </g>
              </g>
            </g>
            <g id="Group_984249" data-name="Group 984249" transform="translate(303.275 256.748)" opacity="0.3">
              <g id="Group_984248" data-name="Group 984248">
                <g id="Group_984247" data-name="Group 984247" clip-path="url(#clip-path-9)">
                  <path id="Path_211775" data-name="Path 211775" d="M99.952,280.614c.08,0,.159,0,.24-.008a3.006,3.006,0,0,0,2.087-1.027,2.358,2.358,0,0,0,.554-1.769,2.866,2.866,0,0,0-3.155-2.345,3,3,0,0,0-2.085,1.027,2.356,2.356,0,0,0-.556,1.769,2.829,2.829,0,0,0,2.915,2.353m-.031-4.249a1.918,1.918,0,0,1,2.009,1.541,1.456,1.456,0,0,1-.349,1.09,2.084,2.084,0,0,1-1.455.7,1.961,1.961,0,0,1-2.185-1.533,1.456,1.456,0,0,1,.349-1.091,2.083,2.083,0,0,1,1.455-.7c.059,0,.118-.007.176-.007" transform="translate(-97.025 -275.458)" fill="#ffd4de"/>
                </g>
              </g>
            </g>
            <g id="Group_984252" data-name="Group 984252" transform="translate(305.771 263.434)" opacity="0.3">
              <g id="Group_984251" data-name="Group 984251">
                <g id="Group_984250" data-name="Group 984250" clip-path="url(#clip-path-10)">
                  <path id="Path_211776" data-name="Path 211776" d="M98.063,287.069c.056,0,.111,0,.168-.007a2.178,2.178,0,0,0,1.53-.777,2.141,2.141,0,0,0,.488-1.614,2.328,2.328,0,0,0-2.457-2.036,2.186,2.186,0,0,0-1.532.778,2.143,2.143,0,0,0-.487,1.613,2.313,2.313,0,0,0,2.29,2.042m-.1-3.53a1.4,1.4,0,0,1,1.387,1.228,1.242,1.242,0,0,1-.282.935,1.281,1.281,0,0,1-.9.454,1.4,1.4,0,0,1-1.489-1.225,1.241,1.241,0,0,1,.282-.934,1.278,1.278,0,0,1,.9-.454c.034,0,.068,0,.1,0" transform="translate(-95.76 -282.631)" fill="#ffd4de"/>
                </g>
              </g>
            </g>
            <path id="Path_211777" data-name="Path 211777" d="M88.926,267.411a.415.415,0,0,1-.422-.351.369.369,0,0,1,.357-.4l12.561-.863a4.576,4.576,0,0,0,1.884-.584.429.429,0,0,1,.57.08.358.358,0,0,1-.064.529,5.319,5.319,0,0,1-2.3.729l-12.555.863h-.025" transform="translate(213.078 -18.008)"/>
            <path id="Path_211778" data-name="Path 211778" d="M88.7,275.395a.415.415,0,0,1-.423-.357.369.369,0,0,1,.364-.4l7.514-.386c.554-.029,3.547-.34,4.3-.478a.423.423,0,0,1,.487.3.362.362,0,0,1-.3.443c-.8.147-3.831.461-4.412.492l-7.515.385H88.7" transform="translate(216.296 -18.595)"/>
            <path id="Path_211779" data-name="Path 211779" d="M88.589,282.348a.414.414,0,0,1-.424-.362.371.371,0,0,1,.37-.393c.1,0,2.459-.1,3.186-.1.766,0,5.356-.2,6.1-.334a.423.423,0,0,1,.487.3.362.362,0,0,1-.3.443c-.826.151-5.524.349-6.257.348-.707,0-3.124.1-3.149.1h-.013" transform="translate(219.036 -19.096)"/>
            <path id="Path_211780" data-name="Path 211780" d="M112.3,25.282S98.478,28.644,92.859,47.956s5.771,32.055,20.4,32.222c15.547.177,20.558-3.31,20.558-3.31l17.54-33.9L126.26,22.407Z" transform="translate(162.985 -1.522)" fill="#ffa85a"/>
            <path id="Path_211781" data-name="Path 211781" d="M116.568,46.791s10.7-12.253,17.171,3.543c0,0-12.027,10.76-17.171-3.543" transform="translate(157.141 -2.87)" fill="#fff"/>
          </g>
        </g>
        <g id="Group_984256" data-name="Group 984256" transform="translate(273.709 39.391)">
          <g id="Group_984255" data-name="Group 984255" clip-path="url(#clip-path-11)">
            <path id="Path_211782" data-name="Path 211782" d="M122.894,44.07a7.767,7.767,0,0,0,.239,10.746,7.222,7.222,0,0,0,10.426-.246,7.766,7.766,0,0,0-.239-10.746,7.221,7.221,0,0,0-10.426.246" transform="translate(-122.423 -42.224)"/>
          </g>
        </g>
        <g id="Group_984258" data-name="Group 984258">
          <g id="Group_984257" data-name="Group 984257" clip-path="url(#clip-path)">
            <path id="Path_211784" data-name="Path 211784" d="M150.253,45.156s3.618-10.645-6.464-10.946c0,0-7.757,12.462,6.464,10.946" transform="translate(116.591 -2.324)" fill="#fff"/>
          </g>
        </g>
        <g id="Group_984260" data-name="Group 984260" transform="translate(258.269 31.886)">
          <g id="Group_984259" data-name="Group 984259" clip-path="url(#clip-path-13)">
            <path id="Path_211785" data-name="Path 211785" d="M143.4,36.9a6.088,6.088,0,0,0,1.976,8.209,5.718,5.718,0,0,0,7.864-2.416,6.088,6.088,0,0,0-1.976-8.209A5.717,5.717,0,0,0,143.4,36.9" transform="translate(-145.695 -34.179)"/>
          </g>
        </g>
        <g id="Group_984262" data-name="Group 984262">
          <g id="Group_984261" data-name="Group 984261" clip-path="url(#clip-path)">
            <path id="Path_211787" data-name="Path 211787" d="M144.678,62.249a19.255,19.255,0,0,0,6.119-1.064.764.764,0,0,0-.483-1.449c-7.932,2.647-12.175-.922-12.216-.959a.765.765,0,0,0-1,1.156,11.963,11.963,0,0,0,7.582,2.317" transform="translate(120.671 -3.98)"/>
            <path id="Path_211788" data-name="Path 211788" d="M126.629,40.552a.765.765,0,0,0,.7-1.066,7.549,7.549,0,0,0-8.141-4.605.764.764,0,0,0,.284,1.5,5.938,5.938,0,0,1,6.454,3.708.762.762,0,0,0,.7.462" transform="translate(161.622 -2.364)"/>
            <path id="Path_211789" data-name="Path 211789" d="M139.078,30.969a.776.776,0,0,0,.245-.04.766.766,0,0,0,.479-.969,5.167,5.167,0,0,0-4.8-3.426.764.764,0,1,0,0,1.529,3.669,3.669,0,0,1,3.355,2.389.765.765,0,0,0,.724.518" transform="translate(134.57 -1.802)"/>
            <path id="Path_211790" data-name="Path 211790" d="M144.549,50.528a.764.764,0,0,0,.743-.589l1.119-4.739,1.444,1.873a.764.764,0,1,0,1.21-.933L146.643,43a.765.765,0,0,0-1.35.291l-1.489,6.3a.765.765,0,0,0,.745.94" transform="translate(116.287 -2.9)"/>
            <path id="Path_211791" data-name="Path 211791" d="M109.532,66.555s-5.15-8.649,3.579-31.926c0,0-7.144-14.3-24.319-9.434,0,0,9.419-8.37,26.3-1.09s16.673,28.5,13.507,37.127-19.068,5.323-19.068,5.323" transform="translate(186.498 -1.435)"/>
            <path id="Path_211792" data-name="Path 211792" d="M100.2,70.03s11.485-6.214,11.268,4.723C111.3,83,97.453,82.979,97.155,77.916Z" transform="translate(197.505 -4.637)" fill="#ffa85a"/>
            <path id="Path_211793" data-name="Path 211793" d="M100.741,74.871a.576.576,0,0,1-.158-.282.582.582,0,0,1,.414-.7l8.847-2.207a.56.56,0,0,1,.68.427.583.583,0,0,1-.415.7l-8.846,2.207a.552.552,0,0,1-.522-.144" transform="translate(195.254 -4.867)"/>
            <path id="Path_211794" data-name="Path 211794" d="M106.59,78.9a.58.58,0,0,1-.161-.3l-.9-4.391a.579.579,0,0,1,.433-.687.563.563,0,0,1,.667.447l.9,4.391a.578.578,0,0,1-.434.687.551.551,0,0,1-.505-.148" transform="translate(193.639 -4.993)"/>
            <path id="Path_211795" data-name="Path 211795" d="M113.293,119.409a.606.606,0,0,0,.363-.121l18.2-13.651a.606.606,0,0,0,.054-.924l-9.553-9.1a.6.6,0,0,0-.513-.16l-18.933,3.011a.606.606,0,0,0-.443.879l10.283,19.742a.6.6,0,0,0,.4.311.593.593,0,0,0,.134.015M130.559,105.1,113.5,117.889l-9.564-18.363,17.805-2.832Z" transform="translate(171.979 -6.483)"/>
            <path id="Path_211796" data-name="Path 211796" d="M138.354,116.119a.606.606,0,0,0,.464-.215l14.058-16.647a.6.6,0,0,0-.123-.893l-8.363-5.69a.608.608,0,0,0-.746.05L133.167,102.1a.609.609,0,0,0-.165.662l4.783,12.959a.611.611,0,0,0,.464.388.664.664,0,0,0,.1.008m13.161-17.131-12.952,15.338-4.279-11.6,9.816-8.789Z" transform="translate(122.576 -6.287)"/>
            <path id="Path_211797" data-name="Path 211797" d="M56.942,167.736a.606.606,0,0,0,.54-.328l16.461-31.82a.606.606,0,1,0-1.077-.556L56.4,166.851a.606.606,0,0,0,.26.817.6.6,0,0,0,.278.068" transform="translate(273.01 -9.149)"/>
            <path id="Path_211798" data-name="Path 211798" d="M29.651,244a.593.593,0,0,0,.187-.03l15.712-5.118a.606.606,0,1,0-.375-1.153l-15.712,5.118A.606.606,0,0,0,29.651,244" transform="translate(326.489 -16.143)"/>
            <path id="Path_211799" data-name="Path 211799" d="M29.651,236.6a.607.607,0,0,0,.393-.144l11.6-9.88a.606.606,0,0,0-.786-.924l-11.6,9.88a.607.607,0,0,0,.393,1.068" transform="translate(330.604 -15.316)"/>
            <path id="Path_211800" data-name="Path 211800" d="M77.947,195.426a.606.606,0,0,0,.525-.908l-3.7-6.44a.606.606,0,1,0-1.051.6l3.7,6.44a.606.606,0,0,0,.527.3" transform="translate(252.335 -12.754)"/>
            <path id="Path_211801" data-name="Path 211801" d="M137.03,266.567a.606.606,0,0,0,.6-.509l26.357-162.586a.607.607,0,0,0-1.2-.194L136.431,265.863a.606.606,0,0,0,.5.7.6.6,0,0,0,.1.008" transform="translate(108.379 -6.98)"/>
            <path id="Path_211802" data-name="Path 211802" d="M128.9,194.02a.608.608,0,0,0,.6-.509l13.777-85.158a.606.606,0,1,0-1.2-.195L128.3,193.316a.606.606,0,0,0,.5.7.593.593,0,0,0,.1.008" transform="translate(136.67 -7.312)"/>
            <path id="Path_211803" data-name="Path 211803" d="M191.836,216.411h10.9a10.538,10.538,0,0,1,9.376,6.207,7.6,7.6,0,0,0-.879-.052H194.981a5.916,5.916,0,0,0-5.606,6.182v6.715c0,3.912,2.876,7.084,6.423,7.084h15.439a7.6,7.6,0,0,0,.879-.052,10.538,10.538,0,0,1-9.376,6.207h-10.9c-6.5,0-8.691-4.934-8.691-9.584V225.995c0-5.293,2-9.584,8.691-9.584" transform="translate(16.71 -14.699)" fill="#fd521b"/>
            <path id="Path_211804" data-name="Path 211804" d="M176.37,228.582a12.63,12.63,0,0,0-1.25-5.512c4.2.486,7.479,4.4,7.479,9.166v1.545c0,4.763-3.276,8.681-7.479,9.166a12.627,12.627,0,0,0,1.25-5.512Z" transform="translate(53.705 -15.151)" fill="#fd521b"/>
            <path id="Path_211805" data-name="Path 211805" d="M214.171,220.713l-10.278-.139a3.617,3.617,0,0,0,.176,7.176l10.258-.713a3.021,3.021,0,0,0,2.518-3.4,2.939,2.939,0,0,0-2.673-2.923" transform="translate(-4.493 -14.982)" fill="#ffa85a"/>
            <path id="Path_211806" data-name="Path 211806" d="M215.008,234.136l-12.277.655a2.962,2.962,0,0,1-2.883-2.509l-.072-.314c-.474-2.093.813-4.145,2.633-4.194l12.348-.34a3.083,3.083,0,0,1,2.905,3.04,3.179,3.179,0,0,1-2.655,3.662" transform="translate(-4.262 -15.447)" fill="#ffa85a"/>
            <path id="Path_211807" data-name="Path 211807" d="M215.989,237.2h0a2.633,2.633,0,0,0-2.528-2.48l-8.179.086a2.821,2.821,0,0,0-2.614,2.65l-.081.745a2.71,2.71,0,0,0,2.736,3.206l8.26-.831a2.953,2.953,0,0,0,2.407-3.375" transform="translate(-5.289 -15.942)" fill="#ffa85a"/>
            <path id="Path_211808" data-name="Path 211808" d="M214.307,241.673h0a2.166,2.166,0,0,0-2.243-1.747l-7.6.592a2.579,2.579,0,0,0-2.227,2.651l0,.866a2.222,2.222,0,0,0,2.551,2.344l7.6-1.458a2.661,2.661,0,0,0,1.919-3.248" transform="translate(-3.351 -16.296)" fill="#ffa85a"/>
            <path id="Path_211809" data-name="Path 211809" d="M215.594,227.923a.364.364,0,0,0,.324-.353.321.321,0,0,0-.349-.316l-10.862.614a3.882,3.882,0,0,1-1.678-.307.364.364,0,0,0-.478.132.318.318,0,0,0,.111.456,4.492,4.492,0,0,0,2.052.389l10.857-.613.021,0" transform="translate(-5.133 -15.435)"/>
            <path id="Path_211810" data-name="Path 211810" d="M215.046,235.233a.363.363,0,0,0,.324-.359.321.321,0,0,0-.355-.309l-6.484.482c-.477.035-3.077.089-3.74.049a.368.368,0,0,0-.385.315.318.318,0,0,0,.306.356c.7.041,3.333-.014,3.835-.051l6.484-.481.015,0" transform="translate(-6.361 -15.932)"/>
            <path id="Path_211811" data-name="Path 211811" d="M214.514,241.609a.363.363,0,0,0,.324-.364.321.321,0,0,0-.359-.3c-.086.007-2.118.182-2.741.262-.657.085-4.613.411-5.267.373a.366.366,0,0,0-.385.315.317.317,0,0,0,.306.355c.723.043,4.773-.3,5.4-.378.606-.079,2.689-.256,2.71-.258h.011" transform="translate(-7.395 -16.365)"/>
            <path id="Path_211812" data-name="Path 211812" d="M169.609,322.211a.606.606,0,0,0,.6-.585c.468-13.331-16.351-18.245-16.52-18.293a.606.606,0,1,0-.33,1.167c.16.046,16.073,4.706,15.639,17.084a.606.606,0,0,0,.584.627Z" transform="translate(86.772 -20.601)"/>
            <path id="Path_211813" data-name="Path 211813" d="M191.492,253.039H170.1a4.414,4.414,0,0,1-4.414-4.414v-31.2a4.414,4.414,0,0,1,4.414-4.414h21.391a4.414,4.414,0,0,1,4.414,4.414v31.2a4.414,4.414,0,0,1-4.414,4.414" transform="translate(49.192 -14.468)" fill="#fd521b"/>
          </g>
        </g>
      </g>
    </g>
  </g>
</svg>
