<svg xmlns="http://www.w3.org/2000/svg" width="610" height="549" viewBox="0 0 610 549">
  <g id="Grupo_989165" data-name="Grupo 989165" transform="translate(-180 -6511)">
    <path id="Trazado_215878" data-name="Trazado 215878" d="M20,0H590a20,20,0,0,1,20,20V529a20,20,0,0,1-20,20H20A20,20,0,0,1,0,529V20A20,20,0,0,1,20,0Z" transform="translate(180 6511)" fill="#fcf2ca"/>
    <path id="Trazado_215879" data-name="Trazado 215879" d="M20,0H542a20,20,0,0,1,20,20V218a20,20,0,0,1-20,20H20A20,20,0,0,1,0,218V20A20,20,0,0,1,20,0Z" transform="translate(204 6537)" fill="#fffbee"/>
    <path id="Trazado_215887" data-name="Trazado 215887" d="M20,0H542a20,20,0,0,1,20,20V218a20,20,0,0,1-20,20H20A20,20,0,0,1,0,218V20A20,20,0,0,1,20,0Z" transform="translate(204 6790)" fill="#fffbee"/>
    <path id="Trazado_213186" data-name="Trazado 213186" d="M64.1,121.514c-1.9-3.4-6.654-16.322,5.128-19.39a10.027,10.027,0,0,1,11.016,4.78c1.93,3.415,3.889,16.606-9.315,20.413-5.592,1.613-14.508-.54-18.47-4.861-13.446-14.663.26-28.305,1.944-30.3C60.642,84.788,84.3,72.069,78.52,39.743c-.527-2.945-1.7-6.18-4.085-8.126-4.234-3.453-8.695-.181-11.363,3.27C59.783,39.141,58.42,48.536,58.7,53.761c.961,18.032,6.812,36.2,7.047,37.427.4,2.1,5.356,20.965,5.752,22.277,6.319,20.9,6.368,28.394,5.4,35.117-1.132,7.858-12.037,13.538-17.224,6.018,1.819.219,6.48-2.031,6.079-6.86-.521-6.253-5.992-7.556-10.161-5.558-3.962,1.9-4.945,7.559-2.345,12.07,2.953,5.125,12.332,8.25,19.018,5.038,14.738-7.082,2.773-41.895.956-47.937-2.037-6.77-13.1-44.563-11.55-59.915.781-7.73,6.513-15.111,10.508-11.463,4.324,3.947,3.386,11.376,2.778,13.981C73,62.338,67.247,68.94,61.06,74.536c-6,5.431-13.055,12.136-16.934,19.365-4.238,7.9-3.568,20.854,2.519,28.049a25.184,25.184,0,0,0,15.284,8.684c11.954,1.689,28.65-3.913,27.442-21.623C88.309,93.436,70.2,89.3,61.232,96.729a16.018,16.018,0,0,0-4.766,6.621C53.907,110.278,57.02,119.543,64.1,121.514Z" transform="translate(208 6536.852)"/>
    <rect id="Rectángulo_339735" data-name="Rectángulo 339735" width="137" height="3" transform="translate(233 6593.122)"/>
    <rect id="Rectángulo_339736" data-name="Rectángulo 339736" width="137" height="3" transform="translate(233 6612.092)"/>
    <rect id="Rectángulo_339737" data-name="Rectángulo 339737" width="137" height="3" transform="translate(233 6631.065)"/>
    <rect id="Rectángulo_339738" data-name="Rectángulo 339738" width="137" height="3" transform="translate(233 6650.036)"/>
    <rect id="Rectángulo_339739" data-name="Rectángulo 339739" width="137" height="3" transform="translate(233 6669)"/>
    <path id="Trazado_213187" data-name="Trazado 213187" d="M151.722,184.861a4.613,4.613,0,0,0-.662-.606,4.816,4.816,0,0,0-.741-.446,5.3,5.3,0,0,0-1.469-.487,7.15,7.15,0,0,0-2.768.088,12.052,12.052,0,0,0-6.637,4.765V162.46h-1.26v43.667h1.26v-1.873a26.014,26.014,0,0,1,5.894-5.894c1.2-.928,2.461-1.76,3.751-2.7a12.565,12.565,0,0,0,1.987-1.756,8.378,8.378,0,0,0,1.45-2.618,8.549,8.549,0,0,0,.473-3.077A5.364,5.364,0,0,0,151.722,184.861Zm-12.277,17.865V188.8c6.271-4.315,8.557-2.042,9.148-.533C150.246,193.245,141.762,196.327,139.445,202.726Z" transform="translate(179.815 6437.54)"/>
    <path id="Trazado_213188" data-name="Trazado 213188" d="M151.722,184.861a4.613,4.613,0,0,0-.662-.606,4.816,4.816,0,0,0-.741-.446,5.3,5.3,0,0,0-1.469-.487,7.15,7.15,0,0,0-2.768.088,12.052,12.052,0,0,0-6.637,4.765V162.46h-1.26v43.667h1.26v-1.873a26.014,26.014,0,0,1,5.894-5.894c1.2-.928,2.461-1.76,3.751-2.7a12.565,12.565,0,0,0,1.987-1.756,8.378,8.378,0,0,0,1.45-2.618,8.549,8.549,0,0,0,.473-3.077A5.364,5.364,0,0,0,151.722,184.861Zm-12.277,17.865V188.8c6.271-4.315,8.557-2.042,9.148-.533C150.246,193.245,141.762,196.327,139.445,202.726Z" transform="translate(199.815 6404.54)"/>
    <path id="Trazado_213189" data-name="Trazado 213189" d="M151.722,184.861a4.613,4.613,0,0,0-.662-.606,4.816,4.816,0,0,0-.741-.446,5.3,5.3,0,0,0-1.469-.487,7.15,7.15,0,0,0-2.768.088,12.052,12.052,0,0,0-6.637,4.765V162.46h-1.26v43.667h1.26v-1.873a26.014,26.014,0,0,1,5.894-5.894c1.2-.928,2.461-1.76,3.751-2.7a12.565,12.565,0,0,0,1.987-1.756,8.378,8.378,0,0,0,1.45-2.618,8.549,8.549,0,0,0,.473-3.077A5.364,5.364,0,0,0,151.722,184.861Zm-12.277,17.865V188.8c6.271-4.315,8.557-2.042,9.148-.533C150.246,193.245,141.762,196.327,139.445,202.726Z" transform="translate(215.203 6459.374)"/>
    <rect id="Rectángulo_339735-2" data-name="Rectángulo 339735" width="353" height="3" transform="translate(385 6593.122)"/>
    <rect id="Rectángulo_339736-2" data-name="Rectángulo 339736" width="353" height="3" transform="translate(385 6612.092)"/>
    <rect id="Rectángulo_339737-2" data-name="Rectángulo 339737" width="353" height="3" transform="translate(385 6631.065)"/>
    <rect id="Rectángulo_339738-2" data-name="Rectángulo 339738" width="353" height="3" transform="translate(385 6650.036)"/>
    <rect id="Rectángulo_339739-2" data-name="Rectángulo 339739" width="353" height="3" transform="translate(385 6669)"/>
    <line id="Línea_1668" data-name="Línea 1668" y2="79" transform="translate(443 6593)" fill="none" stroke="#1f1f1f" stroke-width="2" stroke-dasharray="7"/>
    <line id="Línea_1669" data-name="Línea 1669" y2="79" transform="translate(548 6593)" fill="none" stroke="#1f1f1f" stroke-width="2" stroke-dasharray="7"/>
    <line id="Línea_1670" data-name="Línea 1670" y2="79" transform="translate(675 6593)" fill="none" stroke="#1f1f1f" stroke-width="2" stroke-dasharray="7"/>
    <path id="Trazado_213190" data-name="Trazado 213190" d="M265.755,188.51h-1.388v37.36a5.12,5.12,0,0,0-1.944-1.25,9.762,9.762,0,0,0-3.383-.6,13.745,13.745,0,0,0-6.611,1.712,10.9,10.9,0,0,0-4.544,4.531c-.918,1.808-1.36,3.987-.191,5.713,1.192,1.712,3.621,2.381,5.87,2.437a13.312,13.312,0,0,0,6.606-1.613,11.6,11.6,0,0,0,4.668-4.458,7.19,7.19,0,0,0,.9-2.925c.01-.118,0-.235,0-.355l.019.043Z" transform="translate(164.677 6436.076)"/>
    <path id="Trazado_213193" data-name="Trazado 213193" d="M265.755,188.51h-1.388v37.36a5.12,5.12,0,0,0-1.944-1.25,9.762,9.762,0,0,0-3.383-.6,13.745,13.745,0,0,0-6.611,1.712,10.9,10.9,0,0,0-4.544,4.531c-.918,1.808-1.36,3.987-.191,5.713,1.192,1.712,3.621,2.381,5.87,2.437a13.312,13.312,0,0,0,6.606-1.613,11.6,11.6,0,0,0,4.668-4.458,7.19,7.19,0,0,0,.9-2.925c.01-.118,0-.235,0-.355l.019.043Z" transform="translate(329.913 6416.49)"/>
    <path id="Trazado_213194" data-name="Trazado 213194" d="M265.755,188.51h-1.388v37.36a5.12,5.12,0,0,0-1.944-1.25,9.762,9.762,0,0,0-3.383-.6,13.745,13.745,0,0,0-6.611,1.712,10.9,10.9,0,0,0-4.544,4.531c-.918,1.808-1.36,3.987-.191,5.713,1.192,1.712,3.621,2.381,5.87,2.437a13.312,13.312,0,0,0,6.606-1.613,11.6,11.6,0,0,0,4.668-4.458,7.19,7.19,0,0,0,.9-2.925c.01-.118,0-.235,0-.355l.019.043Z" transform="translate(390.499 6429.849)"/>
    <path id="Trazado_213195" data-name="Trazado 213195" d="M265.755,188.51h-1.388v37.36a5.12,5.12,0,0,0-1.944-1.25,9.762,9.762,0,0,0-3.383-.6,13.745,13.745,0,0,0-6.611,1.712,10.9,10.9,0,0,0-4.544,4.531c-.918,1.808-1.36,3.987-.191,5.713,1.192,1.712,3.621,2.381,5.87,2.437a13.312,13.312,0,0,0,6.606-1.613,11.6,11.6,0,0,0,4.668-4.458,7.19,7.19,0,0,0,.9-2.925c.01-.118,0-.235,0-.355l.019.043Z" transform="translate(444.578 6438.076)"/>
    <path id="Trazado_213191" data-name="Trazado 213191" d="M18.765,0H17.377V37.36a5.12,5.12,0,0,0-1.944-1.25,9.762,9.762,0,0,0-3.383-.6A13.746,13.746,0,0,0,5.44,37.222,10.9,10.9,0,0,0,.9,41.753c-.918,1.808-1.36,3.987-.191,5.713C1.9,49.178,4.326,49.847,6.575,49.9a13.312,13.312,0,0,0,6.606-1.613,11.6,11.6,0,0,0,4.668-4.458,7.19,7.19,0,0,0,.9-2.925c.01-.118,0-.235,0-.355l.019.043Z" transform="translate(480.002 6674.493) rotate(180)"/>
    <path id="Trazado_213192" data-name="Trazado 213192" d="M18.765,0H17.377V37.36a5.12,5.12,0,0,0-1.944-1.25,9.762,9.762,0,0,0-3.383-.6A13.746,13.746,0,0,0,5.44,37.222,10.9,10.9,0,0,0,.9,41.753c-.918,1.808-1.36,3.987-.191,5.713C1.9,49.178,4.326,49.847,6.575,49.9a13.312,13.312,0,0,0,6.606-1.613,11.6,11.6,0,0,0,4.668-4.458,7.19,7.19,0,0,0,.9-2.925c.01-.118,0-.235,0-.355l.019.043Z" transform="translate(529.573 6663.68) rotate(180)"/>
    <g id="Trazado_215880" data-name="Trazado 215880" transform="translate(497 6556)" fill="none">
      <path d="M23,0C35.7,0,46,38.056,46,85s-10.3,85-23,85S0,131.944,0,85,10.3,0,23,0Z" stroke="none"/>
      <path d="M 23 3 C 22.09485626220703 3 21.17054748535156 3.366256713867188 20.17423820495605 4.119720458984375 C 18.98166656494141 5.021591186523438 17.77052307128906 6.426834106445312 16.57447624206543 8.296432495117188 C 14.03671455383301 12.26329040527344 11.63619232177734 18.27426147460938 9.632404327392578 25.67951965332031 C 7.559261322021484 33.341064453125 5.92938232421875 42.28247833251953 4.787998199462891 52.25528717041016 C 3.601570129394531 62.62171173095703 3 73.63861846923828 3 85 C 3 96.36138153076172 3.601570129394531 107.3782806396484 4.787998199462891 117.7447128295898 C 5.92938232421875 127.717529296875 7.559261322021484 136.658935546875 9.632404327392578 144.3204803466797 C 11.63619232177734 151.7257385253906 14.03671455383301 157.7367095947266 16.57447624206543 161.7035675048828 C 17.77052307128906 163.5731658935547 18.98166656494141 164.9784088134766 20.17423820495605 165.8802795410156 C 21.17054748535156 166.6337432861328 22.09485626220703 167 23 167 C 23.90514373779297 167 24.82945251464844 166.6337432861328 25.82576179504395 165.8802795410156 C 27.01833343505859 164.9784088134766 28.22947692871094 163.5731658935547 29.42552375793457 161.7035675048828 C 31.96328544616699 157.7367095947266 34.36380767822266 151.7257385253906 36.36759567260742 144.3204803466797 C 38.44073867797852 136.658935546875 40.07061767578125 127.717529296875 41.21199798583984 117.7447128295898 C 42.39842987060547 107.3782806396484 43 96.36138153076172 43 85 C 43 73.63861846923828 42.39842987060547 62.62171173095703 41.21199798583984 52.25528717041016 C 40.07061767578125 42.28247833251953 38.44073867797852 33.341064453125 36.36759567260742 25.67951965332031 C 34.36380767822266 18.27426147460938 31.96328544616699 12.26329040527344 29.42552375793457 8.296432495117188 C 28.22947692871094 6.426834106445312 27.01833343505859 5.021591186523438 25.82576179504395 4.119720458984375 C 24.82945251464844 3.366256713867188 23.90514373779297 3 23 3 M 23 0 C 35.70254898071289 0 46 38.05581665039062 46 85 C 46 131.9441833496094 35.70254898071289 170 23 170 C 10.29745101928711 170 0 131.9441833496094 0 85 C 0 38.05581665039062 10.29745101928711 0 23 0 Z" stroke="none" fill="#fc5f65"/>
    </g>
    <path id="Trazado_215881" data-name="Trazado 215881" d="M9.852,6.859H6.313L4.555,17H3.094L4.852,6.859H1.313l.219-1.234H10.07Zm2.367,2.719A3.275,3.275,0,0,1,14.773,8.4a2.058,2.058,0,0,1,1.762.816,3.217,3.217,0,0,1,.426,2.246L16.039,17H14.625l.93-5.562a2.968,2.968,0,0,0,.008-.711,1.168,1.168,0,0,0-1.289-1.117,2.6,2.6,0,0,0-2.234,1.359L10.992,17H9.578L11.664,5h1.414Zm9.641,7.578a3.048,3.048,0,0,1-2.469-1.164,4.006,4.006,0,0,1-.75-2.9l.039-.336a5.624,5.624,0,0,1,.746-2.3,4.339,4.339,0,0,1,1.5-1.566,3.491,3.491,0,0,1,1.906-.5,2.688,2.688,0,0,1,2.047.867,3.566,3.566,0,0,1,.813,2.266,6.621,6.621,0,0,1-.031,1.016l-.086.648H20.047a2.856,2.856,0,0,0,.379,1.953,1.8,1.8,0,0,0,1.551.836,3.007,3.007,0,0,0,2.313-1.125l.813.688a3.718,3.718,0,0,1-1.371,1.2A3.886,3.886,0,0,1,21.859,17.156Zm.9-7.586a2.066,2.066,0,0,0-1.527.594A4.22,4.22,0,0,0,20.2,12l4.109.008.031-.125a2.313,2.313,0,0,0-.316-1.637A1.488,1.488,0,0,0,22.758,9.57Zm23.164,3.242a6.707,6.707,0,0,1-.7,2.32,3.949,3.949,0,0,1-1.336,1.543,3.058,3.058,0,0,1-1.766.488,2.815,2.815,0,0,1-2.25-.992l-.758,4.078H37.7l2.031-11.7,1.281-.008-.156.945a3.207,3.207,0,0,1,2.508-1.094,2.358,2.358,0,0,1,1.9.9,3.954,3.954,0,0,1,.719,2.391,8.413,8.413,0,0,1-.039.969Zm-1.391-.164.039-.656a2.975,2.975,0,0,0-.434-1.746,1.524,1.524,0,0,0-1.254-.637,2.507,2.507,0,0,0-2.117,1.164l-.711,4.055a1.769,1.769,0,0,0,1.711,1.156,2.223,2.223,0,0,0,1.793-.824A4.786,4.786,0,0,0,44.531,12.648Zm7.891,3.516a3.265,3.265,0,0,1-2.523.992,2.107,2.107,0,0,1-1.793-.867,3.317,3.317,0,0,1-.434-2.281l.906-5.461h1.414l-.914,5.484a3.642,3.642,0,0,0-.016.672,1.4,1.4,0,0,0,.336.883,1.146,1.146,0,0,0,.828.344A2.537,2.537,0,0,0,52.57,14.7l1.063-6.156h1.414L53.578,17H52.242Zm22.617-3.406H71.328l.211-1.18H75.25Zm20.117.055a6.706,6.706,0,0,1-.7,2.32,3.949,3.949,0,0,1-1.336,1.543,3.058,3.058,0,0,1-1.766.488,2.815,2.815,0,0,1-2.25-.992l-.758,4.078H86.938l2.031-11.7,1.281-.008-.156.945A3.207,3.207,0,0,1,92.6,8.391a2.358,2.358,0,0,1,1.9.9,3.954,3.954,0,0,1,.719,2.391,8.412,8.412,0,0,1-.039.969Zm-1.391-.164.039-.656a2.975,2.975,0,0,0-.434-1.746,1.524,1.524,0,0,0-1.254-.637A2.507,2.507,0,0,0,90,10.773l-.711,4.055A1.769,1.769,0,0,0,91,15.984a2.223,2.223,0,0,0,1.793-.824A4.786,4.786,0,0,0,93.766,12.648Zm10.18.164a6.706,6.706,0,0,1-.7,2.32,3.949,3.949,0,0,1-1.336,1.543,3.058,3.058,0,0,1-1.766.488,2.815,2.815,0,0,1-2.25-.992l-.758,4.078H95.727l2.031-11.7,1.281-.008-.156.945a3.207,3.207,0,0,1,2.508-1.094,2.358,2.358,0,0,1,1.9.9,3.954,3.954,0,0,1,.719,2.391,8.412,8.412,0,0,1-.039.969Zm-1.391-.164.039-.656a2.975,2.975,0,0,0-.434-1.746,1.524,1.524,0,0,0-1.254-.637,2.507,2.507,0,0,0-2.117,1.164l-.711,4.055a1.769,1.769,0,0,0,1.711,1.156,2.223,2.223,0,0,0,1.793-.824A4.786,4.786,0,0,0,102.555,12.648Zm5.555,2.219,3.008-6.32h1.563l-5.016,9.859q-1.047,2.055-2.687,2.031a4.6,4.6,0,0,1-.852-.141l.125-1.172.367.039a1.853,1.853,0,0,0,1.16-.3,2.772,2.772,0,0,0,.863-1.074l.508-.969-1.461-8.273h1.477Zm51.1,1.117a2.145,2.145,0,0,0,1.367-.441,2.1,2.1,0,0,0,.8-1.2l1.336-.008a3.014,3.014,0,0,1-.637,1.453,3.68,3.68,0,0,1-2.926,1.367,3.017,3.017,0,0,1-1.785-.551,3.084,3.084,0,0,1-1.074-1.492,4.972,4.972,0,0,1-.234-2.152l.039-.391a5.605,5.605,0,0,1,.711-2.18,4.11,4.11,0,0,1,1.469-1.5,3.648,3.648,0,0,1,2-.5,2.857,2.857,0,0,1,2.125.891,3.08,3.08,0,0,1,.8,2.18l-1.32-.008a2.029,2.029,0,0,0-.461-1.34,1.607,1.607,0,0,0-1.2-.543,2.254,2.254,0,0,0-1.832.82,4.3,4.3,0,0,0-.91,2.359l-.023.2a6.777,6.777,0,0,0-.016,1.031,2.355,2.355,0,0,0,.516,1.445A1.656,1.656,0,0,0,159.211,15.984Zm7.273-6.406a3.275,3.275,0,0,1,2.555-1.18,2.058,2.058,0,0,1,1.762.816,3.217,3.217,0,0,1,.426,2.246L170.3,17h-1.414l.93-5.562a2.968,2.968,0,0,0,.008-.711,1.168,1.168,0,0,0-1.289-1.117,2.6,2.6,0,0,0-2.234,1.359L165.258,17h-1.414L165.93,5h1.414ZM177.641,17a1.894,1.894,0,0,1-.055-.445l.023-.445a3.465,3.465,0,0,1-2.469,1.047,2.526,2.526,0,0,1-1.816-.707,2.14,2.14,0,0,1-.637-1.73,2.6,2.6,0,0,1,1.176-2.1,5.005,5.005,0,0,1,2.887-.754l1.477.008.094-.672a1.545,1.545,0,0,0-.293-1.2,1.414,1.414,0,0,0-1.113-.457,2.181,2.181,0,0,0-1.285.355,1.513,1.513,0,0,0-.684.98l-1.422.008a2.266,2.266,0,0,1,.578-1.316,3.363,3.363,0,0,1,1.3-.891,4.215,4.215,0,0,1,1.648-.3,2.8,2.8,0,0,1,2.055.8,2.484,2.484,0,0,1,.617,2.043l-.687,4.188-.039.6a2.949,2.949,0,0,0,.094.852l-.016.133Zm-2.219-1.094a2.466,2.466,0,0,0,1.285-.324,3.254,3.254,0,0,0,1.043-.941l.3-1.742-1.07-.008a4.054,4.054,0,0,0-2.047.422,1.554,1.554,0,0,0-.8,1.2,1.21,1.21,0,0,0,.277.988A1.321,1.321,0,0,0,175.422,15.906Zm10.8-1.2q.117-.875-.961-1.234l-1.469-.43q-1.859-.641-1.8-2.125a2.341,2.341,0,0,1,1.02-1.832,3.631,3.631,0,0,1,2.27-.7,3.027,3.027,0,0,1,2.082.746,2.363,2.363,0,0,1,.77,1.9l-1.406-.008a1.319,1.319,0,0,0-.4-1.031,1.576,1.576,0,0,0-1.1-.414,2.059,2.059,0,0,0-1.266.359,1.316,1.316,0,0,0-.57.922q-.1.734.9,1.07l.711.2a4.577,4.577,0,0,1,2.063.977,1.865,1.865,0,0,1,.563,1.492,2.37,2.37,0,0,1-.516,1.375,2.948,2.948,0,0,1-1.25.895,4.18,4.18,0,0,1-1.664.285,3.3,3.3,0,0,1-2.219-.785,2.427,2.427,0,0,1-.844-1.98l1.414.008a1.5,1.5,0,0,0,.453,1.141,1.732,1.732,0,0,0,1.242.43,2.436,2.436,0,0,0,1.336-.324A1.247,1.247,0,0,0,186.227,14.711Zm6.5,2.445a3.048,3.048,0,0,1-2.469-1.164,4.006,4.006,0,0,1-.75-2.9l.039-.336a5.624,5.624,0,0,1,.746-2.3,4.339,4.339,0,0,1,1.5-1.566,3.491,3.491,0,0,1,1.906-.5,2.688,2.688,0,0,1,2.047.867,3.566,3.566,0,0,1,.813,2.266,6.621,6.621,0,0,1-.031,1.016l-.086.648h-5.523a2.855,2.855,0,0,0,.379,1.953,1.8,1.8,0,0,0,1.551.836,3.007,3.007,0,0,0,2.313-1.125l.813.688a3.718,3.718,0,0,1-1.371,1.2A3.886,3.886,0,0,1,192.727,17.156Zm.9-7.586a2.066,2.066,0,0,0-1.527.594A4.22,4.22,0,0,0,191.063,12l4.109.008.031-.125a2.313,2.313,0,0,0-.316-1.637A1.488,1.488,0,0,0,193.625,9.57Zm4.148,3.188a6.578,6.578,0,0,1,.711-2.328,4.03,4.03,0,0,1,1.367-1.555,3.127,3.127,0,0,1,1.789-.492,2.64,2.64,0,0,1,2.172,1.031L204.625,5h1.414l-2.078,12h-1.289l.148-.906a3.116,3.116,0,0,1-2.469,1.063,2.335,2.335,0,0,1-1.867-.918,4,4,0,0,1-.75-2.379A7.6,7.6,0,0,1,197.773,12.758Zm1.359.813a2.936,2.936,0,0,0,.4,1.734,1.437,1.437,0,0,0,1.234.633,2.554,2.554,0,0,0,2.18-1.234l.672-3.906a1.754,1.754,0,0,0-1.7-1.187,2.142,2.142,0,0,0-1.473.5,3.26,3.26,0,0,0-.969,1.477A6.1,6.1,0,0,0,199.133,13.57ZM225.617,6.5l-.359,2.047H226.8l-.2,1.117H225.07l-.883,5.258a1.833,1.833,0,0,0-.008.375.6.6,0,0,0,.664.609,4.05,4.05,0,0,0,.688-.078l-.109,1.18a3.847,3.847,0,0,1-1.031.141,1.476,1.476,0,0,1-1.266-.621A2.4,2.4,0,0,1,222.8,14.9l.859-5.234h-1.492l.2-1.117h1.492l.359-2.047Zm4.055,3.078a3.275,3.275,0,0,1,2.555-1.18,2.058,2.058,0,0,1,1.762.816,3.217,3.217,0,0,1,.426,2.246L233.492,17h-1.414l.93-5.562a2.968,2.968,0,0,0,.008-.711,1.168,1.168,0,0,0-1.289-1.117,2.6,2.6,0,0,0-2.234,1.359L228.445,17h-1.414l2.086-12h1.414Zm9.641,7.578a3.048,3.048,0,0,1-2.469-1.164,4.006,4.006,0,0,1-.75-2.9l.039-.336a5.624,5.624,0,0,1,.746-2.3,4.339,4.339,0,0,1,1.5-1.566,3.491,3.491,0,0,1,1.906-.5,2.688,2.688,0,0,1,2.047.867,3.566,3.566,0,0,1,.813,2.266,6.621,6.621,0,0,1-.031,1.016l-.086.648H237.5a2.855,2.855,0,0,0,.379,1.953,1.8,1.8,0,0,0,1.551.836,3.007,3.007,0,0,0,2.313-1.125l.813.688a3.718,3.718,0,0,1-1.371,1.2A3.886,3.886,0,0,1,239.313,17.156Zm.9-7.586a2.066,2.066,0,0,0-1.527.594A4.22,4.22,0,0,0,237.648,12l4.109.008.031-.125a2.313,2.313,0,0,0-.316-1.637A1.488,1.488,0,0,0,240.211,9.57Zm34.945,3.242a6.586,6.586,0,0,1-.711,2.336,3.982,3.982,0,0,1-1.344,1.539,3.058,3.058,0,0,1-1.75.477,2.61,2.61,0,0,1-2.273-1.148l-.289.984h-1.3L269.57,5h1.414l-.852,4.484A3.107,3.107,0,0,1,272.6,8.391a2.358,2.358,0,0,1,1.9.9,3.954,3.954,0,0,1,.719,2.391,7.359,7.359,0,0,1-.047.969Zm-1.344-.82a3.015,3.015,0,0,0-.383-1.746,1.464,1.464,0,0,0-1.242-.637,2.573,2.573,0,0,0-2.234,1.328l-.633,3.68a1.8,1.8,0,0,0,1.758,1.32,2.053,2.053,0,0,0,1.449-.492,3.216,3.216,0,0,0,.941-1.465A6.594,6.594,0,0,0,273.813,11.992ZM281.445,17a1.893,1.893,0,0,1-.055-.445l.023-.445a3.465,3.465,0,0,1-2.469,1.047,2.526,2.526,0,0,1-1.816-.707,2.14,2.14,0,0,1-.637-1.73,2.6,2.6,0,0,1,1.176-2.1,5.005,5.005,0,0,1,2.887-.754l1.477.008.094-.672a1.545,1.545,0,0,0-.293-1.2,1.414,1.414,0,0,0-1.113-.457,2.181,2.181,0,0,0-1.285.355,1.513,1.513,0,0,0-.684.98l-1.422.008a2.266,2.266,0,0,1,.578-1.316,3.363,3.363,0,0,1,1.3-.891,4.215,4.215,0,0,1,1.648-.3,2.8,2.8,0,0,1,2.055.8,2.484,2.484,0,0,1,.617,2.043l-.687,4.188-.039.6a2.95,2.95,0,0,0,.094.852l-.016.133Zm-2.219-1.094a2.466,2.466,0,0,0,1.285-.324,3.254,3.254,0,0,0,1.043-.941l.3-1.742-1.07-.008a4.054,4.054,0,0,0-2.047.422,1.554,1.554,0,0,0-.8,1.2,1.21,1.21,0,0,0,.277.988A1.321,1.321,0,0,0,279.227,15.906Zm7.1,1.094h-1.406L287,5h1.414Zm3.844,0h-1.406l2.078-12h1.414Z" transform="translate(415 6678)" fill="#3c3fa7"/>
    <path id="Trazado_215882" data-name="Trazado 215882" d="M47.965,13.492l-.031,1.375.531-1.344,3.4-7.9h1.242l.9,8,.078,1.3.492-1.57L57.48,5.625h1.508L54.535,17H53.2l-.984-8.352-.031-.781-.328.906L48.23,17H46.895L46,5.625h1.43Zm14.258,3.664a3.048,3.048,0,0,1-2.469-1.164,4.006,4.006,0,0,1-.75-2.9l.039-.336a5.624,5.624,0,0,1,.746-2.3,4.339,4.339,0,0,1,1.5-1.566,3.491,3.491,0,0,1,1.906-.5,2.688,2.688,0,0,1,2.047.867,3.566,3.566,0,0,1,.813,2.266,6.62,6.62,0,0,1-.031,1.016l-.086.648H60.41a2.856,2.856,0,0,0,.379,1.953,1.8,1.8,0,0,0,1.551.836,3.007,3.007,0,0,0,2.313-1.125l.813.688a3.718,3.718,0,0,1-1.371,1.2A3.886,3.886,0,0,1,62.223,17.156Zm.9-7.586a2.066,2.066,0,0,0-1.527.594A4.22,4.22,0,0,0,60.559,12l4.109.008.031-.125a2.313,2.313,0,0,0-.316-1.637A1.488,1.488,0,0,0,63.121,9.57ZM72.035,17a1.893,1.893,0,0,1-.055-.445L72,16.109a3.465,3.465,0,0,1-2.469,1.047,2.526,2.526,0,0,1-1.816-.707,2.14,2.14,0,0,1-.637-1.73,2.6,2.6,0,0,1,1.176-2.1,5.005,5.005,0,0,1,2.887-.754l1.477.008.094-.672a1.545,1.545,0,0,0-.293-1.2,1.414,1.414,0,0,0-1.113-.457,2.181,2.181,0,0,0-1.285.355,1.513,1.513,0,0,0-.684.98l-1.422.008A2.266,2.266,0,0,1,68.5,9.574a3.363,3.363,0,0,1,1.3-.891,4.215,4.215,0,0,1,1.648-.3,2.8,2.8,0,0,1,2.055.8,2.484,2.484,0,0,1,.617,2.043l-.687,4.188-.039.6a2.949,2.949,0,0,0,.094.852L73.473,17Zm-2.219-1.094a2.466,2.466,0,0,0,1.285-.324,3.254,3.254,0,0,0,1.043-.941l.3-1.742-1.07-.008a4.054,4.054,0,0,0-2.047.422,1.554,1.554,0,0,0-.8,1.2,1.21,1.21,0,0,0,.277.988A1.321,1.321,0,0,0,69.816,15.906Zm8.6-2.8-1.109.992L76.809,17H75.395L77.48,5h1.414l-1.25,7.172.867-.875,3-2.75h1.836l-3.883,3.6L82.137,17H80.59Zm15.445.969q.172-1.25-1.3-1.828l-1.352-.492-.453-.2q-2.281-1.039-2.133-2.922a3.056,3.056,0,0,1,.648-1.672A3.69,3.69,0,0,1,90.789,5.84a4.849,4.849,0,0,1,2-.371,4,4,0,0,1,1.84.461,2.962,2.962,0,0,1,1.23,1.223,3.333,3.333,0,0,1,.375,1.77l-1.477-.008a2.025,2.025,0,0,0-.469-1.621A2.1,2.1,0,0,0,92.73,6.7a2.914,2.914,0,0,0-1.789.5,1.951,1.951,0,0,0-.828,1.406q-.156,1.164,1.43,1.766l1.164.414.586.25a2.941,2.941,0,0,1,2.039,3.016,3.012,3.012,0,0,1-.648,1.66A3.626,3.626,0,0,1,93.156,16.8a5.266,5.266,0,0,1-2.074.359,4.34,4.34,0,0,1-1.957-.457,3.193,3.193,0,0,1-1.348-1.23,3.078,3.078,0,0,1-.406-1.773l1.469.008a1.935,1.935,0,0,0,.551,1.613,2.479,2.479,0,0,0,1.754.613,3.131,3.131,0,0,0,1.867-.492A1.916,1.916,0,0,0,93.863,14.07Zm5.711.8,3.008-6.32h1.563l-5.016,9.859q-1.047,2.055-2.687,2.031a4.6,4.6,0,0,1-.852-.141l.125-1.172.367.039a1.853,1.853,0,0,0,1.16-.3,2.772,2.772,0,0,0,.863-1.074l.508-.969L97.152,8.547h1.477ZM105.5,17H104.09l2.078-12h1.414Zm3.844,0h-1.406l2.078-12h1.414Zm7.484,0a1.893,1.893,0,0,1-.055-.445l.023-.445a3.465,3.465,0,0,1-2.469,1.047,2.526,2.526,0,0,1-1.816-.707,2.14,2.14,0,0,1-.637-1.73,2.6,2.6,0,0,1,1.176-2.1,5.005,5.005,0,0,1,2.887-.754l1.477.008.094-.672a1.545,1.545,0,0,0-.293-1.2,1.414,1.414,0,0,0-1.113-.457,2.181,2.181,0,0,0-1.285.355,1.513,1.513,0,0,0-.684.98l-1.422.008a2.266,2.266,0,0,1,.578-1.316,3.363,3.363,0,0,1,1.3-.891,4.215,4.215,0,0,1,1.648-.3,2.8,2.8,0,0,1,2.055.8,2.484,2.484,0,0,1,.617,2.043l-.687,4.188-.039.6a2.949,2.949,0,0,0,.094.852l-.016.133Zm-2.219-1.094a2.466,2.466,0,0,0,1.285-.324,3.254,3.254,0,0,0,1.043-.941l.3-1.742-1.07-.008a4.054,4.054,0,0,0-2.047.422,1.554,1.554,0,0,0-.8,1.2,1.21,1.21,0,0,0,.277.988A1.321,1.321,0,0,0,114.605,15.906Zm13.242-3.094a6.586,6.586,0,0,1-.711,2.336,3.982,3.982,0,0,1-1.344,1.539,3.058,3.058,0,0,1-1.75.477,2.61,2.61,0,0,1-2.273-1.148L121.48,17h-1.3l2.086-12h1.414l-.852,4.484a3.107,3.107,0,0,1,2.469-1.094,2.358,2.358,0,0,1,1.9.9,3.954,3.954,0,0,1,.719,2.391,7.362,7.362,0,0,1-.047.969Zm-1.344-.82a3.015,3.015,0,0,0-.383-1.746,1.464,1.464,0,0,0-1.242-.637,2.573,2.573,0,0,0-2.234,1.328l-.633,3.68a1.8,1.8,0,0,0,1.758,1.32,2.053,2.053,0,0,0,1.449-.492,3.216,3.216,0,0,0,.941-1.465A6.594,6.594,0,0,0,126.5,11.992ZM130.5,17H129.09l2.078-12h1.414Zm5.969.156A3.048,3.048,0,0,1,134,15.992a4.006,4.006,0,0,1-.75-2.9l.039-.336a5.624,5.624,0,0,1,.746-2.3,4.339,4.339,0,0,1,1.5-1.566,3.491,3.491,0,0,1,1.906-.5,2.688,2.688,0,0,1,2.047.867,3.566,3.566,0,0,1,.813,2.266,6.621,6.621,0,0,1-.031,1.016l-.086.648h-5.523a2.855,2.855,0,0,0,.379,1.953,1.8,1.8,0,0,0,1.551.836,3.007,3.007,0,0,0,2.313-1.125l.813.688a3.718,3.718,0,0,1-1.371,1.2A3.886,3.886,0,0,1,136.465,17.156Zm.9-7.586a2.066,2.066,0,0,0-1.527.594A4.22,4.22,0,0,0,134.8,12l4.109.008.031-.125a2.313,2.313,0,0,0-.316-1.637A1.488,1.488,0,0,0,137.363,9.57Zm12.359-1.18a3.047,3.047,0,0,1,1.82.578,3.285,3.285,0,0,1,1.121,1.551,4.8,4.8,0,0,1,.246,2.16l-.016.172a5.685,5.685,0,0,1-.734,2.23,4.309,4.309,0,0,1-1.516,1.551,3.7,3.7,0,0,1-2.039.523,3.052,3.052,0,0,1-1.816-.578,3.21,3.21,0,0,1-1.113-1.531,4.931,4.931,0,0,1-.25-2.133,5.76,5.76,0,0,1,.711-2.359,4.409,4.409,0,0,1,1.527-1.621A3.652,3.652,0,0,1,149.723,8.391Zm-2.875,4.531a4.8,4.8,0,0,0,0,1.023,2.507,2.507,0,0,0,.551,1.469,1.653,1.653,0,0,0,1.262.57,2.253,2.253,0,0,0,1.3-.348,2.919,2.919,0,0,0,1-1.121,4.721,4.721,0,0,0,.523-1.664,7.493,7.493,0,0,0,.023-1.211,2.6,2.6,0,0,0-.57-1.492,1.69,1.69,0,0,0-1.266-.578,2.3,2.3,0,0,0-1.859.859,4.245,4.245,0,0,0-.945,2.313Zm9.914-4.383-.2,1.07a3.333,3.333,0,0,1,2.594-1.219,2.1,2.1,0,0,1,1.766.828,3.217,3.217,0,0,1,.422,2.242L160.418,17H159l.93-5.562a2.968,2.968,0,0,0,.008-.711,1.168,1.168,0,0,0-1.289-1.117,2.661,2.661,0,0,0-2.234,1.359L155.371,17h-1.414l1.469-8.453Zm13,4.953-.031,1.375.531-1.344,3.4-7.9H174.9l.9,8,.078,1.3.492-1.57,2.906-7.727h1.508L176.332,17H175l-.984-8.352-.031-.781-.328.906L170.027,17h-1.336L167.8,5.625h1.43Zm14.258,3.664a3.048,3.048,0,0,1-2.469-1.164,4.006,4.006,0,0,1-.75-2.9l.039-.336a5.624,5.624,0,0,1,.746-2.3,4.339,4.339,0,0,1,1.5-1.566,3.491,3.491,0,0,1,1.906-.5,2.688,2.688,0,0,1,2.047.867,3.566,3.566,0,0,1,.813,2.266,6.621,6.621,0,0,1-.031,1.016l-.086.648h-5.523a2.855,2.855,0,0,0,.379,1.953,1.8,1.8,0,0,0,1.551.836,3.007,3.007,0,0,0,2.313-1.125l.813.688a3.718,3.718,0,0,1-1.371,1.2A3.886,3.886,0,0,1,184.02,17.156Zm.9-7.586a2.066,2.066,0,0,0-1.527.594A4.22,4.22,0,0,0,182.355,12l4.109.008.031-.125a2.313,2.313,0,0,0-.316-1.637A1.488,1.488,0,0,0,184.918,9.57ZM193.832,17a1.894,1.894,0,0,1-.055-.445l.023-.445a3.465,3.465,0,0,1-2.469,1.047,2.526,2.526,0,0,1-1.816-.707,2.14,2.14,0,0,1-.637-1.73,2.6,2.6,0,0,1,1.176-2.1,5.005,5.005,0,0,1,2.887-.754l1.477.008.094-.672a1.545,1.545,0,0,0-.293-1.2,1.414,1.414,0,0,0-1.113-.457,2.181,2.181,0,0,0-1.285.355,1.513,1.513,0,0,0-.684.98l-1.422.008a2.266,2.266,0,0,1,.578-1.316,3.363,3.363,0,0,1,1.3-.891,4.215,4.215,0,0,1,1.648-.3,2.8,2.8,0,0,1,2.055.8,2.484,2.484,0,0,1,.617,2.043l-.687,4.188-.039.6a2.949,2.949,0,0,0,.094.852L195.27,17Zm-2.219-1.094a2.466,2.466,0,0,0,1.285-.324,3.254,3.254,0,0,0,1.043-.941l.3-1.742-1.07-.008a4.054,4.054,0,0,0-2.047.422,1.554,1.554,0,0,0-.8,1.2,1.21,1.21,0,0,0,.277.988A1.321,1.321,0,0,0,191.613,15.906Zm8.6-2.8-1.109.992-.5,2.906h-1.414l2.086-12h1.414l-1.25,7.172.867-.875,3-2.75h1.836l-3.883,3.6L203.934,17h-1.547ZM209.27,17l1.977-11.375,3.336.008a3.793,3.793,0,0,1,2.609.781,2.5,2.5,0,0,1,.758,2.18,2.957,2.957,0,0,1-2.055,2.461,2.117,2.117,0,0,1,1.145,1.016,2.839,2.839,0,0,1,.309,1.586,3.318,3.318,0,0,1-1.234,2.441,4.456,4.456,0,0,1-2.891.9Zm2.391-5.32-.711,4.094,2.32.008a2.776,2.776,0,0,0,1.781-.57,2.223,2.223,0,0,0,.836-1.539,1.827,1.827,0,0,0-.32-1.437,1.743,1.743,0,0,0-1.352-.547Zm.211-1.2,2.117.008a2.731,2.731,0,0,0,1.676-.508,1.989,1.989,0,0,0,.8-1.4,1.426,1.426,0,0,0-.324-1.25,2.078,2.078,0,0,0-1.41-.461L212.5,6.859Zm10.578,6.68a3.048,3.048,0,0,1-2.469-1.164,4.006,4.006,0,0,1-.75-2.9l.039-.336a5.624,5.624,0,0,1,.746-2.3,4.339,4.339,0,0,1,1.5-1.566,3.491,3.491,0,0,1,1.906-.5,2.688,2.688,0,0,1,2.047.867,3.566,3.566,0,0,1,.813,2.266,6.621,6.621,0,0,1-.031,1.016l-.086.648h-5.523a2.855,2.855,0,0,0,.379,1.953,1.8,1.8,0,0,0,1.551.836,3.007,3.007,0,0,0,2.313-1.125l.813.688a3.718,3.718,0,0,1-1.371,1.2A3.886,3.886,0,0,1,222.449,17.156Zm.9-7.586a2.066,2.066,0,0,0-1.527.594A4.22,4.22,0,0,0,220.785,12l4.109.008.031-.125a2.313,2.313,0,0,0-.316-1.637A1.488,1.488,0,0,0,223.348,9.57ZM232.262,17a1.894,1.894,0,0,1-.055-.445l.023-.445a3.465,3.465,0,0,1-2.469,1.047,2.526,2.526,0,0,1-1.816-.707,2.14,2.14,0,0,1-.637-1.73,2.6,2.6,0,0,1,1.176-2.1,5.005,5.005,0,0,1,2.887-.754l1.477.008.094-.672a1.545,1.545,0,0,0-.293-1.2,1.414,1.414,0,0,0-1.113-.457,2.181,2.181,0,0,0-1.285.355,1.513,1.513,0,0,0-.684.98l-1.422.008a2.266,2.266,0,0,1,.578-1.316,3.363,3.363,0,0,1,1.3-.891,4.215,4.215,0,0,1,1.648-.3,2.8,2.8,0,0,1,2.055.8,2.484,2.484,0,0,1,.617,2.043l-.687,4.188-.039.6a2.949,2.949,0,0,0,.094.852L233.7,17Zm-2.219-1.094a2.466,2.466,0,0,0,1.285-.324,3.254,3.254,0,0,0,1.043-.941l.3-1.742-1.07-.008a4.054,4.054,0,0,0-2.047.422,1.554,1.554,0,0,0-.8,1.2,1.21,1.21,0,0,0,.277.988A1.321,1.321,0,0,0,230.043,15.906Zm9.3-9.406-.359,2.047h1.539l-.2,1.117H238.8l-.883,5.258a1.833,1.833,0,0,0-.008.375.6.6,0,0,0,.664.609,4.05,4.05,0,0,0,.688-.078l-.109,1.18a3.847,3.847,0,0,1-1.031.141,1.476,1.476,0,0,1-1.266-.621,2.4,2.4,0,0,1-.328-1.629l.859-5.234h-1.492l.2-1.117h1.492l.359-2.047Z" transform="translate(431 6738)" fill="#3c3fa7"/>
    <path id="Trazado_215883" data-name="Trazado 215883" d="M0,0H233" transform="translate(461.5 6726.5)" fill="none" stroke="#1f1f1f" stroke-linecap="round" stroke-width="3"/>
    <path id="Trazado_215884" data-name="Trazado 215884" d="M0,0V20" transform="translate(461.237 6706.5)" fill="none" stroke="#fc5f65" stroke-linecap="round" stroke-width="3"/>
    <path id="Trazado_215885" data-name="Trazado 215885" d="M0,0V20" transform="translate(595.668 6706.5)" fill="none" stroke="#fc5f65" stroke-linecap="round" stroke-width="3"/>
    <path id="Trazado_215886" data-name="Trazado 215886" d="M0,0V20" transform="translate(694.333 6706.5)" fill="none" stroke="#fc5f65" stroke-linecap="round" stroke-width="3"/>
    <rect id="Rectángulo_339735-3" data-name="Rectángulo 339735" width="353" height="3" transform="translate(309 6846.122)"/>
    <rect id="Rectángulo_339736-3" data-name="Rectángulo 339736" width="353" height="3" transform="translate(309 6865.092)"/>
    <rect id="Rectángulo_339737-3" data-name="Rectángulo 339737" width="353" height="3" transform="translate(309 6884.065)"/>
    <rect id="Rectángulo_339738-3" data-name="Rectángulo 339738" width="353" height="3" transform="translate(309 6903.036)"/>
    <rect id="Rectángulo_339739-3" data-name="Rectángulo 339739" width="353" height="3" transform="translate(309 6922)"/>
    <line id="Línea_1668-2" data-name="Línea 1668" y2="79" transform="translate(367 6846)" fill="none" stroke="#1f1f1f" stroke-width="2" stroke-dasharray="7"/>
    <line id="Línea_1669-2" data-name="Línea 1669" y2="79" transform="translate(472 6846)" fill="none" stroke="#1f1f1f" stroke-width="2" stroke-dasharray="7"/>
    <line id="Línea_1670-2" data-name="Línea 1670" y2="79" transform="translate(599 6846)" fill="none" stroke="#1f1f1f" stroke-width="2" stroke-dasharray="7"/>
    <path id="Trazado_213190-2" data-name="Trazado 213190" d="M265.755,188.51h-1.388v37.36a5.12,5.12,0,0,0-1.944-1.25,9.762,9.762,0,0,0-3.383-.6,13.745,13.745,0,0,0-6.611,1.712,10.9,10.9,0,0,0-4.544,4.531c-.918,1.808-1.36,3.987-.191,5.713,1.192,1.712,3.621,2.381,5.87,2.437a13.312,13.312,0,0,0,6.606-1.613,11.6,11.6,0,0,0,4.668-4.458,7.19,7.19,0,0,0,.9-2.925c.01-.118,0-.235,0-.355l.019.043Z" transform="translate(88.677 6689.076)"/>
    <path id="Trazado_213193-2" data-name="Trazado 213193" d="M265.755,188.51h-1.388v37.36a5.12,5.12,0,0,0-1.944-1.25,9.762,9.762,0,0,0-3.383-.6,13.745,13.745,0,0,0-6.611,1.712,10.9,10.9,0,0,0-4.544,4.531c-.918,1.808-1.36,3.987-.191,5.713,1.192,1.712,3.621,2.381,5.87,2.437a13.312,13.312,0,0,0,6.606-1.613,11.6,11.6,0,0,0,4.668-4.458,7.19,7.19,0,0,0,.9-2.925c.01-.118,0-.235,0-.355l.019.043Z" transform="translate(253.913 6669.49)"/>
    <path id="Trazado_213194-2" data-name="Trazado 213194" d="M265.755,188.51h-1.388v37.36a5.12,5.12,0,0,0-1.944-1.25,9.762,9.762,0,0,0-3.383-.6,13.745,13.745,0,0,0-6.611,1.712,10.9,10.9,0,0,0-4.544,4.531c-.918,1.808-1.36,3.987-.191,5.713,1.192,1.712,3.621,2.381,5.87,2.437a13.312,13.312,0,0,0,6.606-1.613,11.6,11.6,0,0,0,4.668-4.458,7.19,7.19,0,0,0,.9-2.925c.01-.118,0-.235,0-.355l.019.043Z" transform="translate(314.499 6682.849)"/>
    <path id="Trazado_213195-2" data-name="Trazado 213195" d="M265.755,188.51h-1.388v37.36a5.12,5.12,0,0,0-1.944-1.25,9.762,9.762,0,0,0-3.383-.6,13.745,13.745,0,0,0-6.611,1.712,10.9,10.9,0,0,0-4.544,4.531c-.918,1.808-1.36,3.987-.191,5.713,1.192,1.712,3.621,2.381,5.87,2.437a13.312,13.312,0,0,0,6.606-1.613,11.6,11.6,0,0,0,4.668-4.458,7.19,7.19,0,0,0,.9-2.925c.01-.118,0-.235,0-.355l.019.043Z" transform="translate(368.578 6691.076)"/>
    <path id="Trazado_213191-2" data-name="Trazado 213191" d="M18.765,0H17.377V37.36a5.12,5.12,0,0,0-1.944-1.25,9.762,9.762,0,0,0-3.383-.6A13.746,13.746,0,0,0,5.44,37.222,10.9,10.9,0,0,0,.9,41.753c-.918,1.808-1.36,3.987-.191,5.713C1.9,49.178,4.326,49.847,6.575,49.9a13.312,13.312,0,0,0,6.606-1.613,11.6,11.6,0,0,0,4.668-4.458,7.19,7.19,0,0,0,.9-2.925c.01-.118,0-.235,0-.355l.019.043Z" transform="translate(404.002 6927.493) rotate(180)"/>
    <path id="Trazado_213192-2" data-name="Trazado 213192" d="M18.765,0H17.377V37.36a5.12,5.12,0,0,0-1.944-1.25,9.762,9.762,0,0,0-3.383-.6A13.746,13.746,0,0,0,5.44,37.222,10.9,10.9,0,0,0,.9,41.753c-.918,1.808-1.36,3.987-.191,5.713C1.9,49.178,4.326,49.847,6.575,49.9a13.312,13.312,0,0,0,6.606-1.613,11.6,11.6,0,0,0,4.668-4.458,7.19,7.19,0,0,0,.9-2.925c.01-.118,0-.235,0-.355l.019.043Z" transform="translate(453.573 6916.68) rotate(180)"/>
    <g id="Trazado_215888" data-name="Trazado 215888" transform="translate(421 6809)" fill="none">
      <path d="M23,0C35.7,0,46,38.056,46,85s-10.3,85-23,85S0,131.944,0,85,10.3,0,23,0Z" stroke="none"/>
      <path d="M 23 3 C 22.09485626220703 3 21.17054748535156 3.366256713867188 20.17423820495605 4.119720458984375 C 18.98166656494141 5.021591186523438 17.77052307128906 6.426834106445312 16.57447624206543 8.296432495117188 C 14.03671455383301 12.26329040527344 11.63619232177734 18.27426147460938 9.632404327392578 25.67951965332031 C 7.559261322021484 33.341064453125 5.92938232421875 42.28247833251953 4.787998199462891 52.25528717041016 C 3.601570129394531 62.62171173095703 3 73.63861846923828 3 85 C 3 96.36138153076172 3.601570129394531 107.3782806396484 4.787998199462891 117.7447128295898 C 5.92938232421875 127.717529296875 7.559261322021484 136.658935546875 9.632404327392578 144.3204803466797 C 11.63619232177734 151.7257385253906 14.03671455383301 157.7367095947266 16.57447624206543 161.7035675048828 C 17.77052307128906 163.5731658935547 18.98166656494141 164.9784088134766 20.17423820495605 165.8802795410156 C 21.17054748535156 166.6337432861328 22.09485626220703 167 23 167 C 23.90514373779297 167 24.82945251464844 166.6337432861328 25.82576179504395 165.8802795410156 C 27.01833343505859 164.9784088134766 28.22947692871094 163.5731658935547 29.42552375793457 161.7035675048828 C 31.96328544616699 157.7367095947266 34.36380767822266 151.7257385253906 36.36759567260742 144.3204803466797 C 38.44073867797852 136.658935546875 40.07061767578125 127.717529296875 41.21199798583984 117.7447128295898 C 42.39842987060547 107.3782806396484 43 96.36138153076172 43 85 C 43 73.63861846923828 42.39842987060547 62.62171173095703 41.21199798583984 52.25528717041016 C 40.07061767578125 42.28247833251953 38.44073867797852 33.341064453125 36.36759567260742 25.67951965332031 C 34.36380767822266 18.27426147460938 31.96328544616699 12.26329040527344 29.42552375793457 8.296432495117188 C 28.22947692871094 6.426834106445312 27.01833343505859 5.021591186523438 25.82576179504395 4.119720458984375 C 24.82945251464844 3.366256713867188 23.90514373779297 3 23 3 M 23 0 C 35.70254898071289 0 46 38.05581665039062 46 85 C 46 131.9441833496094 35.70254898071289 170 23 170 C 10.29745101928711 170 0 131.9441833496094 0 85 C 0 38.05581665039062 10.29745101928711 0 23 0 Z" stroke="none" fill="#fc5f65"/>
    </g>
    <path id="Trazado_215889" data-name="Trazado 215889" d="M4.289,5.625l1.992,9.266L11.5,5.625h1.93L11.453,17H9.992l.781-4.5.93-4.578L6.547,17H5.422L3.391,7.742l-.7,4.906L1.93,17H.461L2.438,5.625ZM15.4,17H13.992l1.469-8.453h1.406ZM16.563,5.461a.774.774,0,0,1,.6.215.8.8,0,0,1,.238.605.834.834,0,0,1-.836.852.779.779,0,0,1-.6-.211.764.764,0,0,1-.227-.594.886.886,0,0,1,.234-.609A.826.826,0,0,1,16.563,5.461Zm4.781,6.164,2.3-3.078h1.734L21.984,12.8,24.047,17H22.508l-1.4-3.156L18.727,17H17l3.492-4.344-2-4.109h1.547Zm13.3,3.086q.117-.875-.961-1.234l-1.469-.43q-1.859-.641-1.8-2.125a2.341,2.341,0,0,1,1.02-1.832,3.631,3.631,0,0,1,2.27-.7,3.027,3.027,0,0,1,2.082.746,2.363,2.363,0,0,1,.77,1.9l-1.406-.008A1.319,1.319,0,0,0,34.75,10a1.576,1.576,0,0,0-1.1-.414,2.059,2.059,0,0,0-1.266.359,1.316,1.316,0,0,0-.57.922q-.1.734.9,1.07l.711.2a4.577,4.577,0,0,1,2.063.977,1.865,1.865,0,0,1,.563,1.492,2.37,2.37,0,0,1-.516,1.375,2.948,2.948,0,0,1-1.25.895,4.18,4.18,0,0,1-1.664.285,3.3,3.3,0,0,1-2.219-.785,2.427,2.427,0,0,1-.844-1.98l1.414.008a1.5,1.5,0,0,0,.453,1.141,1.732,1.732,0,0,0,1.242.43A2.436,2.436,0,0,0,34,15.645,1.247,1.247,0,0,0,34.641,14.711Zm7.539-6.32A3.047,3.047,0,0,1,44,8.969a3.285,3.285,0,0,1,1.121,1.551,4.8,4.8,0,0,1,.246,2.16l-.016.172a5.685,5.685,0,0,1-.734,2.23A4.309,4.309,0,0,1,43.1,16.633a3.7,3.7,0,0,1-2.039.523,3.052,3.052,0,0,1-1.816-.578,3.21,3.21,0,0,1-1.113-1.531,4.931,4.931,0,0,1-.25-2.133,5.76,5.76,0,0,1,.711-2.359,4.409,4.409,0,0,1,1.527-1.621A3.652,3.652,0,0,1,42.18,8.391ZM39.3,12.922a4.8,4.8,0,0,0,0,1.023,2.507,2.507,0,0,0,.551,1.469,1.653,1.653,0,0,0,1.262.57,2.253,2.253,0,0,0,1.3-.348,2.919,2.919,0,0,0,1-1.121,4.721,4.721,0,0,0,.523-1.664,7.494,7.494,0,0,0,.023-1.211,2.6,2.6,0,0,0-.57-1.492,1.69,1.69,0,0,0-1.266-.578,2.3,2.3,0,0,0-1.859.859,4.245,4.245,0,0,0-.945,2.313Zm9.9-4.383-.18.945a3.305,3.305,0,0,1,2.57-1.094,2.608,2.608,0,0,1,1.363.367,1.8,1.8,0,0,1,.77.992,3.49,3.49,0,0,1,2.8-1.359,2.235,2.235,0,0,1,1.867.852,3.042,3.042,0,0,1,.445,2.2L57.914,17H56.508l.922-5.57a2.943,2.943,0,0,0,0-.742Q57.281,9.625,56.039,9.6a2.136,2.136,0,0,0-1.4.48,2.222,2.222,0,0,0-.809,1.3L52.867,17H51.445l.938-5.562a1.786,1.786,0,0,0-.262-1.336,1.377,1.377,0,0,0-1.129-.484,2.315,2.315,0,0,0-2.1,1.2L47.82,17H46.406l1.469-8.453ZM63.75,17.156a3.048,3.048,0,0,1-2.469-1.164,4.006,4.006,0,0,1-.75-2.9l.039-.336a5.624,5.624,0,0,1,.746-2.3,4.339,4.339,0,0,1,1.5-1.566,3.491,3.491,0,0,1,1.906-.5,2.688,2.688,0,0,1,2.047.867,3.566,3.566,0,0,1,.813,2.266,6.62,6.62,0,0,1-.031,1.016l-.086.648H61.938a2.856,2.856,0,0,0,.379,1.953,1.8,1.8,0,0,0,1.551.836,3.007,3.007,0,0,0,2.313-1.125l.813.688a3.718,3.718,0,0,1-1.371,1.2A3.886,3.886,0,0,1,63.75,17.156Zm.9-7.586a2.066,2.066,0,0,0-1.527.594A4.22,4.22,0,0,0,62.086,12l4.109.008.031-.125a2.313,2.313,0,0,0-.316-1.637A1.488,1.488,0,0,0,64.648,9.57Zm24.664,5.141q.117-.875-.961-1.234l-1.469-.43q-1.859-.641-1.8-2.125a2.341,2.341,0,0,1,1.02-1.832,3.631,3.631,0,0,1,2.27-.7,3.027,3.027,0,0,1,2.082.746,2.363,2.363,0,0,1,.77,1.9l-1.406-.008a1.319,1.319,0,0,0-.4-1.031,1.576,1.576,0,0,0-1.1-.414,2.059,2.059,0,0,0-1.266.359,1.316,1.316,0,0,0-.57.922q-.1.734.9,1.07l.711.2a4.577,4.577,0,0,1,2.063.977,1.865,1.865,0,0,1,.563,1.492,2.37,2.37,0,0,1-.516,1.375,2.948,2.948,0,0,1-1.25.895,4.18,4.18,0,0,1-1.664.285,3.3,3.3,0,0,1-2.219-.785,2.427,2.427,0,0,1-.844-1.98l1.414.008a1.5,1.5,0,0,0,.453,1.141,1.732,1.732,0,0,0,1.242.43,2.436,2.436,0,0,0,1.336-.324A1.247,1.247,0,0,0,89.313,14.711Zm7.539-6.32a3.047,3.047,0,0,1,1.82.578,3.285,3.285,0,0,1,1.121,1.551,4.8,4.8,0,0,1,.246,2.16l-.016.172a5.685,5.685,0,0,1-.734,2.23,4.309,4.309,0,0,1-1.516,1.551,3.7,3.7,0,0,1-2.039.523,3.052,3.052,0,0,1-1.816-.578A3.21,3.21,0,0,1,92.8,15.047a4.931,4.931,0,0,1-.25-2.133,5.76,5.76,0,0,1,.711-2.359,4.409,4.409,0,0,1,1.527-1.621A3.652,3.652,0,0,1,96.852,8.391Zm-2.875,4.531a4.8,4.8,0,0,0,0,1.023,2.507,2.507,0,0,0,.551,1.469,1.653,1.653,0,0,0,1.262.57,2.253,2.253,0,0,0,1.3-.348,2.919,2.919,0,0,0,1-1.121,4.721,4.721,0,0,0,.523-1.664,7.5,7.5,0,0,0,.023-1.211,2.6,2.6,0,0,0-.57-1.492A1.69,1.69,0,0,0,96.8,9.57a2.3,2.3,0,0,0-1.859.859,4.245,4.245,0,0,0-.945,2.313ZM106.258,17a1.893,1.893,0,0,1-.055-.445l.023-.445a3.465,3.465,0,0,1-2.469,1.047,2.526,2.526,0,0,1-1.816-.707,2.14,2.14,0,0,1-.637-1.73,2.6,2.6,0,0,1,1.176-2.1,5.005,5.005,0,0,1,2.887-.754l1.477.008.094-.672a1.545,1.545,0,0,0-.293-1.2,1.414,1.414,0,0,0-1.113-.457,2.181,2.181,0,0,0-1.285.355,1.513,1.513,0,0,0-.684.98l-1.422.008a2.266,2.266,0,0,1,.578-1.316,3.363,3.363,0,0,1,1.3-.891,4.215,4.215,0,0,1,1.648-.3,2.8,2.8,0,0,1,2.055.8,2.484,2.484,0,0,1,.617,2.043l-.687,4.188-.039.6a2.949,2.949,0,0,0,.094.852L107.7,17Zm-2.219-1.094a2.466,2.466,0,0,0,1.285-.324,3.254,3.254,0,0,0,1.043-.941l.3-1.742-1.07-.008a4.054,4.054,0,0,0-2.047.422,1.554,1.554,0,0,0-.8,1.2,1.21,1.21,0,0,0,.277.988A1.321,1.321,0,0,0,104.039,15.906Zm13.227-3.094a6.706,6.706,0,0,1-.7,2.32,3.949,3.949,0,0,1-1.336,1.543,3.058,3.058,0,0,1-1.766.488,2.815,2.815,0,0,1-2.25-.992l-.758,4.078h-1.414l2.031-11.7,1.281-.008-.156.945a3.207,3.207,0,0,1,2.508-1.094,2.358,2.358,0,0,1,1.9.9,3.954,3.954,0,0,1,.719,2.391,8.412,8.412,0,0,1-.039.969Zm-1.391-.164.039-.656a2.975,2.975,0,0,0-.434-1.746,1.524,1.524,0,0,0-1.254-.637,2.507,2.507,0,0,0-2.117,1.164l-.711,4.055a1.769,1.769,0,0,0,1.711,1.156,2.223,2.223,0,0,0,1.793-.824A4.786,4.786,0,0,0,115.875,12.648ZM158.867,17a1.894,1.894,0,0,1-.055-.445l.023-.445a3.465,3.465,0,0,1-2.469,1.047,2.526,2.526,0,0,1-1.816-.707,2.14,2.14,0,0,1-.637-1.73,2.6,2.6,0,0,1,1.176-2.1,5.005,5.005,0,0,1,2.887-.754l1.477.008.094-.672a1.545,1.545,0,0,0-.293-1.2,1.414,1.414,0,0,0-1.113-.457,2.181,2.181,0,0,0-1.285.355,1.513,1.513,0,0,0-.684.98l-1.422.008a2.266,2.266,0,0,1,.578-1.316,3.363,3.363,0,0,1,1.3-.891,4.215,4.215,0,0,1,1.648-.3,2.8,2.8,0,0,1,2.055.8,2.484,2.484,0,0,1,.617,2.043l-.687,4.188-.039.6a2.949,2.949,0,0,0,.094.852L160.3,17Zm-2.219-1.094a2.466,2.466,0,0,0,1.285-.324,3.254,3.254,0,0,0,1.043-.941l.3-1.742-1.07-.008a4.054,4.054,0,0,0-2.047.422,1.554,1.554,0,0,0-.8,1.2,1.21,1.21,0,0,0,.277.988A1.321,1.321,0,0,0,156.648,15.906Zm8.375-7.367-.2,1.07a3.333,3.333,0,0,1,2.594-1.219,2.1,2.1,0,0,1,1.766.828,3.217,3.217,0,0,1,.422,2.242L168.68,17h-1.414l.93-5.562a2.968,2.968,0,0,0,.008-.711,1.168,1.168,0,0,0-1.289-1.117,2.661,2.661,0,0,0-2.234,1.359L163.633,17h-1.414l1.469-8.453Zm6.242,4.219a6.578,6.578,0,0,1,.711-2.328,4.03,4.03,0,0,1,1.367-1.555,3.127,3.127,0,0,1,1.789-.492A2.64,2.64,0,0,1,177.3,9.414L178.117,5h1.414l-2.078,12h-1.289l.148-.906a3.116,3.116,0,0,1-2.469,1.063,2.335,2.335,0,0,1-1.867-.918,4,4,0,0,1-.75-2.379A7.6,7.6,0,0,1,171.266,12.758Zm1.359.813a2.936,2.936,0,0,0,.4,1.734,1.437,1.437,0,0,0,1.234.633,2.554,2.554,0,0,0,2.18-1.234l.672-3.906a1.754,1.754,0,0,0-1.7-1.187,2.142,2.142,0,0,0-1.473.5,3.26,3.26,0,0,0-.969,1.477A6.1,6.1,0,0,0,172.625,13.57ZM222.57,15l2.7-6.453h1.461L222.875,17h-1.148l-.875-6.391L217.8,17h-1.148l-.914-8.453h1.352l.516,6.3,3-6.3h1.141Zm9.328,2a1.894,1.894,0,0,1-.055-.445l.023-.445a3.465,3.465,0,0,1-2.469,1.047,2.526,2.526,0,0,1-1.816-.707,2.14,2.14,0,0,1-.637-1.73,2.6,2.6,0,0,1,1.176-2.1,5.005,5.005,0,0,1,2.887-.754l1.477.008.094-.672a1.545,1.545,0,0,0-.293-1.2,1.414,1.414,0,0,0-1.113-.457,2.181,2.181,0,0,0-1.285.355,1.513,1.513,0,0,0-.684.98l-1.422.008a2.266,2.266,0,0,1,.578-1.316,3.363,3.363,0,0,1,1.3-.891,4.215,4.215,0,0,1,1.648-.3,2.8,2.8,0,0,1,2.055.8,2.484,2.484,0,0,1,.617,2.043l-.687,4.188-.039.6a2.949,2.949,0,0,0,.094.852l-.016.133Zm-2.219-1.094a2.466,2.466,0,0,0,1.285-.324,3.254,3.254,0,0,0,1.043-.941l.3-1.742-1.07-.008a4.054,4.054,0,0,0-2.047.422,1.554,1.554,0,0,0-.8,1.2,1.21,1.21,0,0,0,.277.988A1.321,1.321,0,0,0,229.68,15.906ZM254.6,12.758h-3.711l.211-1.18h3.711ZM274.719,6.5l-.359,2.047H275.9l-.2,1.117h-1.531l-.883,5.258a1.834,1.834,0,0,0-.008.375.6.6,0,0,0,.664.609,4.05,4.05,0,0,0,.688-.078l-.109,1.18a3.847,3.847,0,0,1-1.031.141,1.476,1.476,0,0,1-1.266-.621A2.4,2.4,0,0,1,271.9,14.9l.859-5.234h-1.492l.2-1.117h1.492l.359-2.047Zm5.07,10.656a3.048,3.048,0,0,1-2.469-1.164,4.006,4.006,0,0,1-.75-2.9l.039-.336a5.624,5.624,0,0,1,.746-2.3,4.339,4.339,0,0,1,1.5-1.566,3.491,3.491,0,0,1,1.906-.5,2.688,2.688,0,0,1,2.047.867,3.566,3.566,0,0,1,.813,2.266,6.619,6.619,0,0,1-.031,1.016l-.086.648h-5.523a2.856,2.856,0,0,0,.379,1.953,1.8,1.8,0,0,0,1.551.836,3.007,3.007,0,0,0,2.313-1.125l.813.688a3.718,3.718,0,0,1-1.371,1.2A3.886,3.886,0,0,1,279.789,17.156Zm.9-7.586a2.066,2.066,0,0,0-1.527.594A4.22,4.22,0,0,0,278.125,12l4.109.008.031-.125a2.313,2.313,0,0,0-.316-1.637A1.488,1.488,0,0,0,280.688,9.57Zm9,.266-.664-.07a2.42,2.42,0,0,0-2.141,1.227L285.844,17H284.43L285.9,8.547l1.367-.008-.211.984a2.527,2.527,0,0,1,2.117-1.148,2.594,2.594,0,0,1,.672.117Z" transform="translate(339 6931)" fill="#3c3fa7"/>
    <path id="Trazado_215890" data-name="Trazado 215890" d="M47.652,14.07q.172-1.25-1.3-1.828L45,11.75l-.453-.2q-2.281-1.039-2.133-2.922a3.056,3.056,0,0,1,.648-1.672A3.69,3.69,0,0,1,44.578,5.84a4.849,4.849,0,0,1,2-.371,4,4,0,0,1,1.84.461,2.962,2.962,0,0,1,1.23,1.223,3.333,3.333,0,0,1,.375,1.77l-1.477-.008a2.025,2.025,0,0,0-.469-1.621A2.1,2.1,0,0,0,46.52,6.7a2.914,2.914,0,0,0-1.789.5A1.951,1.951,0,0,0,43.9,8.609q-.156,1.164,1.43,1.766l1.164.414.586.25a2.941,2.941,0,0,1,2.039,3.016,3.012,3.012,0,0,1-.648,1.66A3.626,3.626,0,0,1,46.945,16.8a5.266,5.266,0,0,1-2.074.359,4.34,4.34,0,0,1-1.957-.457,3.193,3.193,0,0,1-1.348-1.23A3.078,3.078,0,0,1,41.16,13.7l1.469.008a1.935,1.935,0,0,0,.551,1.613,2.479,2.479,0,0,0,1.754.613,3.131,3.131,0,0,0,1.867-.492A1.916,1.916,0,0,0,47.652,14.07ZM54.066,6.5l-.359,2.047h1.539l-.2,1.117H53.52l-.883,5.258a1.833,1.833,0,0,0-.008.375.6.6,0,0,0,.664.609,4.05,4.05,0,0,0,.688-.078l-.109,1.18a3.847,3.847,0,0,1-1.031.141,1.476,1.476,0,0,1-1.266-.621,2.4,2.4,0,0,1-.328-1.629l.859-5.234H50.613l.2-1.117H52.3L52.66,6.5Zm6.672,3.336-.664-.07a2.42,2.42,0,0,0-2.141,1.227L56.895,17H55.48l1.469-8.453,1.367-.008-.211.984a2.527,2.527,0,0,1,2.117-1.148,2.594,2.594,0,0,1,.672.117Zm4.609-1.445a3.047,3.047,0,0,1,1.82.578,3.285,3.285,0,0,1,1.121,1.551,4.8,4.8,0,0,1,.246,2.16l-.016.172a5.685,5.685,0,0,1-.734,2.23,4.309,4.309,0,0,1-1.516,1.551,3.7,3.7,0,0,1-2.039.523,3.052,3.052,0,0,1-1.816-.578A3.21,3.21,0,0,1,61.3,15.047a4.931,4.931,0,0,1-.25-2.133,5.76,5.76,0,0,1,.711-2.359,4.409,4.409,0,0,1,1.527-1.621A3.652,3.652,0,0,1,65.348,8.391Zm-2.875,4.531a4.8,4.8,0,0,0,0,1.023,2.507,2.507,0,0,0,.551,1.469,1.653,1.653,0,0,0,1.262.57,2.253,2.253,0,0,0,1.3-.348,2.919,2.919,0,0,0,1-1.121,4.721,4.721,0,0,0,.523-1.664,7.5,7.5,0,0,0,.023-1.211,2.6,2.6,0,0,0-.57-1.492,1.69,1.69,0,0,0-1.266-.578,2.3,2.3,0,0,0-1.859.859,4.245,4.245,0,0,0-.945,2.313Zm9.914-4.383-.2,1.07a3.333,3.333,0,0,1,2.594-1.219,2.1,2.1,0,0,1,1.766.828,3.217,3.217,0,0,1,.422,2.242L76.043,17H74.629l.93-5.562a2.968,2.968,0,0,0,.008-.711,1.168,1.168,0,0,0-1.289-1.117,2.661,2.661,0,0,0-2.234,1.359L71,17H69.582l1.469-8.453Zm6.25,4.219a6.889,6.889,0,0,1,.746-2.4,3.9,3.9,0,0,1,1.359-1.508A3.151,3.151,0,0,1,82.5,8.383a2.6,2.6,0,0,1,2.219,1.109L85,8.547h1.3L84.887,16.82a4.113,4.113,0,0,1-1.312,2.59,3.7,3.7,0,0,1-2.68.926,3.8,3.8,0,0,1-1.645-.406,3.127,3.127,0,0,1-1.238-1.07l.8-.867a2.536,2.536,0,0,0,3.73.6,2.9,2.9,0,0,0,.926-1.687l.156-.75a3.2,3.2,0,0,1-2.414,1,2.486,2.486,0,0,1-1.371-.426,2.589,2.589,0,0,1-.9-1.164,4.759,4.759,0,0,1-.352-1.7A8.734,8.734,0,0,1,78.637,12.758Zm1.367.8a2.98,2.98,0,0,0,.387,1.73,1.461,1.461,0,0,0,1.238.645,2.56,2.56,0,0,0,2.18-1.242l.664-3.883a1.776,1.776,0,0,0-1.7-1.2,2.193,2.193,0,0,0-1.887.938,4.888,4.888,0,0,0-.871,2.617Zm17.539.508q.172-1.25-1.3-1.828l-1.352-.492-.453-.2q-2.281-1.039-2.133-2.922a3.056,3.056,0,0,1,.648-1.672A3.69,3.69,0,0,1,94.469,5.84a4.849,4.849,0,0,1,2-.371,4,4,0,0,1,1.84.461,2.962,2.962,0,0,1,1.23,1.223,3.333,3.333,0,0,1,.375,1.77l-1.477-.008a2.025,2.025,0,0,0-.469-1.621A2.1,2.1,0,0,0,96.41,6.7a2.914,2.914,0,0,0-1.789.5,1.951,1.951,0,0,0-.828,1.406q-.156,1.164,1.43,1.766l1.164.414.586.25a2.941,2.941,0,0,1,2.039,3.016,3.012,3.012,0,0,1-.648,1.66A3.626,3.626,0,0,1,96.836,16.8a5.266,5.266,0,0,1-2.074.359A4.34,4.34,0,0,1,92.8,16.7a3.193,3.193,0,0,1-1.348-1.23,3.078,3.078,0,0,1-.406-1.773l1.469.008a1.935,1.935,0,0,0,.551,1.613,2.479,2.479,0,0,0,1.754.613,3.131,3.131,0,0,0,1.867-.492A1.916,1.916,0,0,0,97.543,14.07Zm5.711.8,3.008-6.32h1.563l-5.016,9.859q-1.047,2.055-2.687,2.031a4.6,4.6,0,0,1-.852-.141l.125-1.172.367.039a1.853,1.853,0,0,0,1.16-.3,2.772,2.772,0,0,0,.863-1.074l.508-.969-1.461-8.273h1.477ZM109.176,17H107.77l2.078-12h1.414Zm3.844,0h-1.406l2.078-12h1.414Zm7.484,0a1.893,1.893,0,0,1-.055-.445l.023-.445A3.465,3.465,0,0,1,118,17.156a2.526,2.526,0,0,1-1.816-.707,2.14,2.14,0,0,1-.637-1.73,2.6,2.6,0,0,1,1.176-2.1,5.005,5.005,0,0,1,2.887-.754l1.477.008.094-.672a1.545,1.545,0,0,0-.293-1.2,1.414,1.414,0,0,0-1.113-.457,2.181,2.181,0,0,0-1.285.355,1.513,1.513,0,0,0-.684.98l-1.422.008a2.266,2.266,0,0,1,.578-1.316,3.363,3.363,0,0,1,1.3-.891,4.215,4.215,0,0,1,1.648-.3,2.8,2.8,0,0,1,2.055.8,2.484,2.484,0,0,1,.617,2.043l-.687,4.188-.039.6a2.949,2.949,0,0,0,.094.852l-.016.133Zm-2.219-1.094a2.466,2.466,0,0,0,1.285-.324,3.254,3.254,0,0,0,1.043-.941l.3-1.742-1.07-.008a4.054,4.054,0,0,0-2.047.422,1.554,1.554,0,0,0-.8,1.2,1.21,1.21,0,0,0,.277.988A1.321,1.321,0,0,0,118.285,15.906Zm13.242-3.094a6.586,6.586,0,0,1-.711,2.336,3.982,3.982,0,0,1-1.344,1.539,3.058,3.058,0,0,1-1.75.477,2.61,2.61,0,0,1-2.273-1.148L125.16,17h-1.3l2.086-12h1.414L126.5,9.484a3.107,3.107,0,0,1,2.469-1.094,2.358,2.358,0,0,1,1.9.9,3.954,3.954,0,0,1,.719,2.391,7.364,7.364,0,0,1-.047.969Zm-1.344-.82a3.015,3.015,0,0,0-.383-1.746,1.464,1.464,0,0,0-1.242-.637,2.573,2.573,0,0,0-2.234,1.328l-.633,3.68a1.8,1.8,0,0,0,1.758,1.32,2.053,2.053,0,0,0,1.449-.492,3.216,3.216,0,0,0,.941-1.465A6.594,6.594,0,0,0,130.184,11.992ZM134.176,17H132.77l2.078-12h1.414Zm5.969.156a3.048,3.048,0,0,1-2.469-1.164,4.006,4.006,0,0,1-.75-2.9l.039-.336a5.624,5.624,0,0,1,.746-2.3,4.339,4.339,0,0,1,1.5-1.566,3.491,3.491,0,0,1,1.906-.5,2.688,2.688,0,0,1,2.047.867,3.566,3.566,0,0,1,.813,2.266,6.621,6.621,0,0,1-.031,1.016l-.086.648h-5.523a2.855,2.855,0,0,0,.379,1.953,1.8,1.8,0,0,0,1.551.836,3.007,3.007,0,0,0,2.313-1.125l.813.688a3.718,3.718,0,0,1-1.371,1.2A3.886,3.886,0,0,1,140.145,17.156Zm.9-7.586a2.066,2.066,0,0,0-1.527.594A4.22,4.22,0,0,0,138.48,12l4.109.008.031-.125a2.313,2.313,0,0,0-.316-1.637A1.488,1.488,0,0,0,141.043,9.57ZM153.4,8.391a3.047,3.047,0,0,1,1.82.578,3.285,3.285,0,0,1,1.121,1.551,4.8,4.8,0,0,1,.246,2.16l-.016.172a5.685,5.685,0,0,1-.734,2.23,4.309,4.309,0,0,1-1.516,1.551,3.7,3.7,0,0,1-2.039.523,3.052,3.052,0,0,1-1.816-.578,3.21,3.21,0,0,1-1.113-1.531,4.931,4.931,0,0,1-.25-2.133,5.76,5.76,0,0,1,.711-2.359,4.409,4.409,0,0,1,1.527-1.621A3.652,3.652,0,0,1,153.4,8.391Zm-2.875,4.531a4.8,4.8,0,0,0,0,1.023,2.507,2.507,0,0,0,.551,1.469,1.653,1.653,0,0,0,1.262.57,2.253,2.253,0,0,0,1.3-.348,2.919,2.919,0,0,0,1-1.121,4.721,4.721,0,0,0,.523-1.664,7.493,7.493,0,0,0,.023-1.211,2.6,2.6,0,0,0-.57-1.492,1.69,1.69,0,0,0-1.266-.578,2.3,2.3,0,0,0-1.859.859,4.245,4.245,0,0,0-.945,2.313Zm9.914-4.383-.2,1.07a3.333,3.333,0,0,1,2.594-1.219,2.1,2.1,0,0,1,1.766.828,3.217,3.217,0,0,1,.422,2.242L164.1,17h-1.414l.93-5.562a2.968,2.968,0,0,0,.008-.711,1.168,1.168,0,0,0-1.289-1.117,2.661,2.661,0,0,0-2.234,1.359L159.051,17h-1.414l1.469-8.453Zm13,4.953-.031,1.375.531-1.344,3.4-7.9h1.242l.9,8,.078,1.3.492-1.57,2.906-7.727h1.508L180.012,17h-1.336l-.984-8.352-.031-.781-.328.906L173.707,17h-1.336L171.48,5.625h1.43ZM187.7,17.156a3.048,3.048,0,0,1-2.469-1.164,4.006,4.006,0,0,1-.75-2.9l.039-.336a5.624,5.624,0,0,1,.746-2.3,4.339,4.339,0,0,1,1.5-1.566,3.491,3.491,0,0,1,1.906-.5,2.688,2.688,0,0,1,2.047.867,3.566,3.566,0,0,1,.813,2.266,6.621,6.621,0,0,1-.031,1.016l-.086.648h-5.523a2.855,2.855,0,0,0,.379,1.953,1.8,1.8,0,0,0,1.551.836,3.007,3.007,0,0,0,2.313-1.125l.813.688a3.718,3.718,0,0,1-1.371,1.2A3.886,3.886,0,0,1,187.7,17.156Zm.9-7.586a2.066,2.066,0,0,0-1.527.594A4.22,4.22,0,0,0,186.035,12l4.109.008.031-.125a2.313,2.313,0,0,0-.316-1.637A1.488,1.488,0,0,0,188.6,9.57ZM197.512,17a1.894,1.894,0,0,1-.055-.445l.023-.445a3.465,3.465,0,0,1-2.469,1.047,2.526,2.526,0,0,1-1.816-.707,2.14,2.14,0,0,1-.637-1.73,2.6,2.6,0,0,1,1.176-2.1,5.005,5.005,0,0,1,2.887-.754l1.477.008.094-.672A1.545,1.545,0,0,0,197.9,10a1.414,1.414,0,0,0-1.113-.457A2.181,2.181,0,0,0,195.5,9.9a1.513,1.513,0,0,0-.684.98l-1.422.008a2.266,2.266,0,0,1,.578-1.316,3.363,3.363,0,0,1,1.3-.891,4.215,4.215,0,0,1,1.648-.3,2.8,2.8,0,0,1,2.055.8,2.484,2.484,0,0,1,.617,2.043l-.687,4.188-.039.6a2.949,2.949,0,0,0,.094.852l-.016.133Zm-2.219-1.094a2.466,2.466,0,0,0,1.285-.324,3.254,3.254,0,0,0,1.043-.941l.3-1.742-1.07-.008a4.054,4.054,0,0,0-2.047.422,1.554,1.554,0,0,0-.8,1.2,1.21,1.21,0,0,0,.277.988A1.321,1.321,0,0,0,195.293,15.906Zm8.6-2.8-1.109.992-.5,2.906h-1.414l2.086-12h1.414l-1.25,7.172.867-.875,3-2.75h1.836l-3.883,3.6L207.613,17h-1.547Zm9.055,3.9,1.977-11.375,3.336.008a3.793,3.793,0,0,1,2.609.781,2.5,2.5,0,0,1,.758,2.18,2.957,2.957,0,0,1-2.055,2.461,2.117,2.117,0,0,1,1.145,1.016,2.839,2.839,0,0,1,.309,1.586,3.318,3.318,0,0,1-1.234,2.441,4.456,4.456,0,0,1-2.891.9Zm2.391-5.32-.711,4.094,2.32.008a2.776,2.776,0,0,0,1.781-.57,2.223,2.223,0,0,0,.836-1.539,1.827,1.827,0,0,0-.32-1.437,1.743,1.743,0,0,0-1.352-.547Zm.211-1.2,2.117.008a2.731,2.731,0,0,0,1.676-.508,1.989,1.989,0,0,0,.8-1.4,1.426,1.426,0,0,0-.324-1.25,2.078,2.078,0,0,0-1.41-.461l-2.234-.008Zm10.578,6.68a3.048,3.048,0,0,1-2.469-1.164,4.006,4.006,0,0,1-.75-2.9l.039-.336a5.624,5.624,0,0,1,.746-2.3,4.339,4.339,0,0,1,1.5-1.566,3.491,3.491,0,0,1,1.906-.5,2.688,2.688,0,0,1,2.047.867,3.566,3.566,0,0,1,.813,2.266,6.621,6.621,0,0,1-.031,1.016l-.086.648h-5.523a2.855,2.855,0,0,0,.379,1.953,1.8,1.8,0,0,0,1.551.836,3.007,3.007,0,0,0,2.313-1.125l.813.688a3.718,3.718,0,0,1-1.371,1.2A3.886,3.886,0,0,1,226.129,17.156Zm.9-7.586a2.066,2.066,0,0,0-1.527.594A4.22,4.22,0,0,0,224.465,12l4.109.008.031-.125a2.313,2.313,0,0,0-.316-1.637A1.488,1.488,0,0,0,227.027,9.57ZM235.941,17a1.894,1.894,0,0,1-.055-.445l.023-.445a3.465,3.465,0,0,1-2.469,1.047,2.526,2.526,0,0,1-1.816-.707,2.14,2.14,0,0,1-.637-1.73,2.6,2.6,0,0,1,1.176-2.1,5.005,5.005,0,0,1,2.887-.754l1.477.008.094-.672a1.545,1.545,0,0,0-.293-1.2,1.414,1.414,0,0,0-1.113-.457,2.181,2.181,0,0,0-1.285.355,1.513,1.513,0,0,0-.684.98l-1.422.008a2.266,2.266,0,0,1,.578-1.316,3.363,3.363,0,0,1,1.3-.891,4.215,4.215,0,0,1,1.648-.3,2.8,2.8,0,0,1,2.055.8,2.484,2.484,0,0,1,.617,2.043l-.687,4.188-.039.6a2.949,2.949,0,0,0,.094.852l-.016.133Zm-2.219-1.094a2.466,2.466,0,0,0,1.285-.324,3.254,3.254,0,0,0,1.043-.941l.3-1.742-1.07-.008a4.054,4.054,0,0,0-2.047.422,1.554,1.554,0,0,0-.8,1.2,1.21,1.21,0,0,0,.277.988A1.321,1.321,0,0,0,233.723,15.906Zm9.3-9.406-.359,2.047h1.539l-.2,1.117H242.48l-.883,5.258a1.833,1.833,0,0,0-.008.375.6.6,0,0,0,.664.609,4.05,4.05,0,0,0,.688-.078l-.109,1.18a3.847,3.847,0,0,1-1.031.141,1.476,1.476,0,0,1-1.266-.621,2.4,2.4,0,0,1-.328-1.629l.859-5.234h-1.492l.2-1.117h1.492l.359-2.047Z" transform="translate(355 6991)" fill="#3c3fa7"/>
    <path id="Trazado_215891" data-name="Trazado 215891" d="M0,0H265" transform="translate(354.5 6979.5)" fill="none" stroke="#1f1f1f" stroke-linecap="round" stroke-width="3"/>
    <path id="Trazado_215892" data-name="Trazado 215892" d="M0,0V20" transform="translate(385.237 6959.5)" fill="none" stroke="#fc5f65" stroke-linecap="round" stroke-width="3"/>
    <path id="Trazado_215893" data-name="Trazado 215893" d="M0,0V20" transform="translate(508.285 6959.5)" fill="none" stroke="#fc5f65" stroke-linecap="round" stroke-width="3"/>
    <path id="Trazado_215894" data-name="Trazado 215894" d="M0,0V20" transform="translate(619.5 6959.5)" fill="none" stroke="#fc5f65" stroke-linecap="round" stroke-width="3"/>
  </g>
</svg>
