<svg xmlns="http://www.w3.org/2000/svg" width="610" height="549" viewBox="0 0 610 549">
  <g id="_33" data-name="33" transform="translate(-180 -6511)">
    <rect id="Rectangle_339740" data-name="Rectangle 339740" width="610" height="549" rx="20" transform="translate(180 6511)" fill="#fcf2ca"/>
    <rect id="Rectangle_339741" data-name="Rectangle 339741" width="562" height="238" rx="20" transform="translate(204 6537)" fill="#fffbee"/>
    <rect id="Rectangle_339742" data-name="Rectangle 339742" width="562" height="238" rx="20" transform="translate(204 6790)" fill="#fffbee"/>
    <g id="Group_985368" data-name="Group 985368" transform="translate(53 19)">
      <g id="Group_985366" data-name="Group 985366" transform="translate(155 6517.852)">
        <path id="Path_213186" data-name="Path 213186" d="M64.1,121.514c-1.9-3.4-6.654-16.322,5.128-19.39a10.027,10.027,0,0,1,11.016,4.78c1.93,3.415,3.889,16.606-9.315,20.413-5.592,1.613-14.508-.54-18.47-4.861-13.446-14.663.26-28.305,1.944-30.3C60.642,84.788,84.3,72.069,78.52,39.743c-.527-2.945-1.7-6.18-4.085-8.126-4.234-3.453-8.695-.181-11.363,3.27C59.783,39.141,58.42,48.536,58.7,53.761c.961,18.032,6.812,36.2,7.047,37.427.4,2.1,5.356,20.965,5.752,22.277,6.319,20.9,6.368,28.394,5.4,35.117-1.132,7.858-12.037,13.538-17.224,6.018,1.819.219,6.48-2.031,6.079-6.86-.521-6.253-5.992-7.556-10.161-5.558-3.962,1.9-4.945,7.559-2.345,12.07,2.953,5.125,12.332,8.25,19.018,5.038,14.738-7.082,2.773-41.895.956-47.937-2.037-6.77-13.1-44.563-11.55-59.915.781-7.73,6.513-15.111,10.508-11.463,4.324,3.947,3.386,11.376,2.778,13.981C73,62.338,67.247,68.94,61.06,74.536c-6,5.431-13.055,12.136-16.934,19.365-4.238,7.9-3.568,20.854,2.519,28.049a25.184,25.184,0,0,0,15.284,8.684c11.954,1.689,28.65-3.913,27.442-21.623C88.309,93.436,70.2,89.3,61.232,96.729a16.018,16.018,0,0,0-4.766,6.621C53.907,110.278,57.02,119.543,64.1,121.514Z"/>
        <g id="Group_985365" data-name="Group 985365">
          <g id="Group_985360" data-name="Group 985360" transform="translate(25 56.27)">
            <rect id="Rectangle_339735" data-name="Rectangle 339735" width="137" height="3" transform="translate(0)"/>
          </g>
          <g id="Group_985361" data-name="Group 985361" transform="translate(25 75.241)">
            <rect id="Rectangle_339736" data-name="Rectangle 339736" width="137" height="3" transform="translate(0)"/>
          </g>
          <g id="Group_985362" data-name="Group 985362" transform="translate(25 94.213)">
            <rect id="Rectangle_339737" data-name="Rectangle 339737" width="137" height="3" transform="translate(0)"/>
          </g>
          <g id="Group_985363" data-name="Group 985363" transform="translate(25 113.184)">
            <rect id="Rectangle_339738" data-name="Rectangle 339738" width="137" height="3" transform="translate(0)"/>
          </g>
          <g id="Group_985364" data-name="Group 985364" transform="translate(25 132.157)">
            <rect id="Rectangle_339739" data-name="Rectangle 339739" width="137" height="3" transform="translate(0 -0.008)"/>
          </g>
        </g>
        <path id="Path_213187" data-name="Path 213187" d="M151.722,184.861a4.613,4.613,0,0,0-.662-.606,4.816,4.816,0,0,0-.741-.446,5.3,5.3,0,0,0-1.469-.487,7.15,7.15,0,0,0-2.768.088,12.052,12.052,0,0,0-6.637,4.765V162.46h-1.26v43.667h1.26v-1.873a26.014,26.014,0,0,1,5.894-5.894c1.2-.928,2.461-1.76,3.751-2.7a12.565,12.565,0,0,0,1.987-1.756,8.378,8.378,0,0,0,1.45-2.618,8.549,8.549,0,0,0,.473-3.077A5.364,5.364,0,0,0,151.722,184.861Zm-12.277,17.865V188.8c6.271-4.315,8.557-2.042,9.148-.533C150.246,193.245,141.762,196.327,139.445,202.726Z" transform="translate(-28.185 -99.312)"/>
        <path id="Path_213188" data-name="Path 213188" d="M151.722,184.861a4.613,4.613,0,0,0-.662-.606,4.816,4.816,0,0,0-.741-.446,5.3,5.3,0,0,0-1.469-.487,7.15,7.15,0,0,0-2.768.088,12.052,12.052,0,0,0-6.637,4.765V162.46h-1.26v43.667h1.26v-1.873a26.014,26.014,0,0,1,5.894-5.894c1.2-.928,2.461-1.76,3.751-2.7a12.565,12.565,0,0,0,1.987-1.756,8.378,8.378,0,0,0,1.45-2.618,8.549,8.549,0,0,0,.473-3.077A5.364,5.364,0,0,0,151.722,184.861Zm-12.277,17.865V188.8c6.271-4.315,8.557-2.042,9.148-.533C150.246,193.245,141.762,196.327,139.445,202.726Z" transform="translate(-8.185 -132.312)"/>
        <path id="Path_213189" data-name="Path 213189" d="M151.722,184.861a4.613,4.613,0,0,0-.662-.606,4.816,4.816,0,0,0-.741-.446,5.3,5.3,0,0,0-1.469-.487,7.15,7.15,0,0,0-2.768.088,12.052,12.052,0,0,0-6.637,4.765V162.46h-1.26v43.667h1.26v-1.873a26.014,26.014,0,0,1,5.894-5.894c1.2-.928,2.461-1.76,3.751-2.7a12.565,12.565,0,0,0,1.987-1.756,8.378,8.378,0,0,0,1.45-2.618,8.549,8.549,0,0,0,.473-3.077A5.364,5.364,0,0,0,151.722,184.861Zm-12.277,17.865V188.8c6.271-4.315,8.557-2.042,9.148-.533C150.246,193.245,141.762,196.327,139.445,202.726Z" transform="translate(7.203 -77.478)"/>
      </g>
      <g id="Group_985367" data-name="Group 985367" transform="translate(307 6517.852)">
        <g id="Group_985365-2" data-name="Group 985365" transform="translate(25 56.27)">
          <g id="Group_985360-2" data-name="Group 985360">
            <rect id="Rectangle_339735-2" data-name="Rectangle 339735" width="353" height="3" transform="translate(0)"/>
          </g>
          <g id="Group_985361-2" data-name="Group 985361" transform="translate(0 18.971)">
            <rect id="Rectangle_339736-2" data-name="Rectangle 339736" width="353" height="3" transform="translate(0)"/>
          </g>
          <g id="Group_985362-2" data-name="Group 985362" transform="translate(0 37.943)">
            <rect id="Rectangle_339737-2" data-name="Rectangle 339737" width="353" height="3" transform="translate(0)"/>
          </g>
          <g id="Group_985363-2" data-name="Group 985363" transform="translate(0 56.914)">
            <rect id="Rectangle_339738-2" data-name="Rectangle 339738" width="353" height="3" transform="translate(0)"/>
          </g>
          <g id="Group_985364-2" data-name="Group 985364" transform="translate(0 75.878)">
            <rect id="Rectangle_339739-2" data-name="Rectangle 339739" width="353" height="3" transform="translate(0 0)"/>
          </g>
        </g>
        <line id="Line_1668" data-name="Line 1668" y2="79" transform="translate(83 56.148)" fill="none" stroke="#1f1f1f" stroke-width="2" stroke-dasharray="7"/>
        <line id="Line_1669" data-name="Line 1669" y2="79" transform="translate(188 56.148)" fill="none" stroke="#1f1f1f" stroke-width="2" stroke-dasharray="7"/>
        <line id="Line_1670" data-name="Line 1670" y2="79" transform="translate(315 56.148)" fill="none" stroke="#1f1f1f" stroke-width="2" stroke-dasharray="7"/>
      </g>
      <path id="Path_213190" data-name="Path 213190" d="M265.755,188.51h-1.388v37.36a5.12,5.12,0,0,0-1.944-1.25,9.762,9.762,0,0,0-3.383-.6,13.745,13.745,0,0,0-6.611,1.712,10.9,10.9,0,0,0-4.544,4.531c-.918,1.808-1.36,3.987-.191,5.713,1.192,1.712,3.621,2.381,5.87,2.437a13.312,13.312,0,0,0,6.606-1.613,11.6,11.6,0,0,0,4.668-4.458,7.19,7.19,0,0,0,.9-2.925c.01-.118,0-.235,0-.355l.019.043Z" transform="translate(111.677 6417.076)"/>
      <path id="Path_213193" data-name="Path 213193" d="M265.755,188.51h-1.388v37.36a5.12,5.12,0,0,0-1.944-1.25,9.762,9.762,0,0,0-3.383-.6,13.745,13.745,0,0,0-6.611,1.712,10.9,10.9,0,0,0-4.544,4.531c-.918,1.808-1.36,3.987-.191,5.713,1.192,1.712,3.621,2.381,5.87,2.437a13.312,13.312,0,0,0,6.606-1.613,11.6,11.6,0,0,0,4.668-4.458,7.19,7.19,0,0,0,.9-2.925c.01-.118,0-.235,0-.355l.019.043Z" transform="translate(276.913 6397.49)"/>
      <path id="Path_213194" data-name="Path 213194" d="M265.755,188.51h-1.388v37.36a5.12,5.12,0,0,0-1.944-1.25,9.762,9.762,0,0,0-3.383-.6,13.745,13.745,0,0,0-6.611,1.712,10.9,10.9,0,0,0-4.544,4.531c-.918,1.808-1.36,3.987-.191,5.713,1.192,1.712,3.621,2.381,5.87,2.437a13.312,13.312,0,0,0,6.606-1.613,11.6,11.6,0,0,0,4.668-4.458,7.19,7.19,0,0,0,.9-2.925c.01-.118,0-.235,0-.355l.019.043Z" transform="translate(337.499 6410.849)"/>
      <path id="Path_213195" data-name="Path 213195" d="M265.755,188.51h-1.388v37.36a5.12,5.12,0,0,0-1.944-1.25,9.762,9.762,0,0,0-3.383-.6,13.745,13.745,0,0,0-6.611,1.712,10.9,10.9,0,0,0-4.544,4.531c-.918,1.808-1.36,3.987-.191,5.713,1.192,1.712,3.621,2.381,5.87,2.437a13.312,13.312,0,0,0,6.606-1.613,11.6,11.6,0,0,0,4.668-4.458,7.19,7.19,0,0,0,.9-2.925c.01-.118,0-.235,0-.355l.019.043Z" transform="translate(391.578 6419.076)"/>
      <path id="Path_213191" data-name="Path 213191" d="M18.765,0H17.377V37.36a5.12,5.12,0,0,0-1.944-1.25,9.762,9.762,0,0,0-3.383-.6A13.746,13.746,0,0,0,5.44,37.222,10.9,10.9,0,0,0,.9,41.753c-.918,1.808-1.36,3.987-.191,5.713C1.9,49.178,4.326,49.847,6.575,49.9a13.312,13.312,0,0,0,6.606-1.613,11.6,11.6,0,0,0,4.668-4.458,7.19,7.19,0,0,0,.9-2.925c.01-.118,0-.235,0-.355l.019.043Z" transform="translate(427.002 6655.493) rotate(180)"/>
      <path id="Path_213192" data-name="Path 213192" d="M18.765,0H17.377V37.36a5.12,5.12,0,0,0-1.944-1.25,9.762,9.762,0,0,0-3.383-.6A13.746,13.746,0,0,0,5.44,37.222,10.9,10.9,0,0,0,.9,41.753c-.918,1.808-1.36,3.987-.191,5.713C1.9,49.178,4.326,49.847,6.575,49.9a13.312,13.312,0,0,0,6.606-1.613,11.6,11.6,0,0,0,4.668-4.458,7.19,7.19,0,0,0,.9-2.925c.01-.118,0-.235,0-.355l.019.043Z" transform="translate(476.573 6644.68) rotate(180)"/>
      <g id="Ellipse_4935" data-name="Ellipse 4935" transform="translate(444 6537)" fill="none" stroke="#fc5f65" stroke-width="3">
        <ellipse cx="23" cy="85" rx="23" ry="85" stroke="none"/>
        <ellipse cx="23" cy="85" rx="21.5" ry="83.5" fill="none"/>
      </g>
      <path id="Path_215881" data-name="Path 215881" d="M9.852,4.852H6.313L4.555,15H3.094L4.852,4.852H1.313l.219-1.227H10.07Zm2.367,2.727A3.275,3.275,0,0,1,14.773,6.4a2.058,2.058,0,0,1,1.762.816,3.217,3.217,0,0,1,.426,2.246L16.039,15H14.625l.93-5.562a2.968,2.968,0,0,0,.008-.711,1.168,1.168,0,0,0-1.289-1.117,2.6,2.6,0,0,0-2.234,1.359L10.992,15H9.578L11.664,3h1.414Zm9.641,7.578a3.048,3.048,0,0,1-2.469-1.164,4.006,4.006,0,0,1-.75-2.9l.039-.336a5.624,5.624,0,0,1,.746-2.3,4.339,4.339,0,0,1,1.5-1.566,3.491,3.491,0,0,1,1.906-.5,2.688,2.688,0,0,1,2.047.867,3.566,3.566,0,0,1,.813,2.266,6.621,6.621,0,0,1-.031,1.016l-.086.648H20.047a2.856,2.856,0,0,0,.379,1.953,1.8,1.8,0,0,0,1.551.836,3.007,3.007,0,0,0,2.313-1.125l.813.688a3.718,3.718,0,0,1-1.371,1.2A3.886,3.886,0,0,1,21.859,15.156Zm.9-7.586a2.066,2.066,0,0,0-1.527.594A4.22,4.22,0,0,0,20.2,10l4.109.008.031-.125a2.313,2.313,0,0,0-.316-1.637A1.488,1.488,0,0,0,22.758,7.57Zm23.164,3.242a6.707,6.707,0,0,1-.7,2.32,3.949,3.949,0,0,1-1.336,1.543,3.058,3.058,0,0,1-1.766.488,2.815,2.815,0,0,1-2.25-.992l-.758,4.078H37.7l2.031-11.7,1.281-.008-.156.945a3.207,3.207,0,0,1,2.508-1.094,2.358,2.358,0,0,1,1.9.9,3.954,3.954,0,0,1,.719,2.391,8.413,8.413,0,0,1-.039.969Zm-1.391-.16L44.57,10a2.969,2.969,0,0,0-.434-1.744,1.525,1.525,0,0,0-1.254-.636A2.508,2.508,0,0,0,40.766,8.78l-.711,4.05a1.769,1.769,0,0,0,1.711,1.155,2.224,2.224,0,0,0,1.793-.823A4.777,4.777,0,0,0,44.531,10.652Zm7.891,3.512a3.265,3.265,0,0,1-2.523.992,2.107,2.107,0,0,1-1.793-.867,3.317,3.317,0,0,1-.434-2.281l.906-5.461h1.414l-.914,5.484a3.642,3.642,0,0,0-.016.672,1.4,1.4,0,0,0,.336.883,1.146,1.146,0,0,0,.828.344A2.537,2.537,0,0,0,52.57,12.7l1.063-6.156h1.414L53.578,15H52.242Zm22.617-3.406H71.328l.211-1.18H75.25Zm20.117.055a6.706,6.706,0,0,1-.7,2.32,3.949,3.949,0,0,1-1.336,1.543,3.058,3.058,0,0,1-1.766.488,2.815,2.815,0,0,1-2.25-.992l-.758,4.078H86.938l2.031-11.7,1.281-.008-.156.945A3.207,3.207,0,0,1,92.6,6.391a2.358,2.358,0,0,1,1.9.9,3.954,3.954,0,0,1,.719,2.391,8.412,8.412,0,0,1-.039.969Zm-1.391-.16L93.8,10a2.969,2.969,0,0,0-.434-1.744,1.525,1.525,0,0,0-1.254-.636A2.508,2.508,0,0,0,90,8.78l-.711,4.05A1.769,1.769,0,0,0,91,13.984a2.224,2.224,0,0,0,1.793-.823A4.777,4.777,0,0,0,93.766,10.652Zm10.18.16a6.706,6.706,0,0,1-.7,2.32,3.949,3.949,0,0,1-1.336,1.543,3.058,3.058,0,0,1-1.766.488,2.815,2.815,0,0,1-2.25-.992l-.758,4.078H95.727l2.031-11.7,1.281-.008-.156.945a3.207,3.207,0,0,1,2.508-1.094,2.358,2.358,0,0,1,1.9.9,3.954,3.954,0,0,1,.719,2.391,8.412,8.412,0,0,1-.039.969Zm-1.391-.16.039-.655a2.969,2.969,0,0,0-.434-1.744,1.525,1.525,0,0,0-1.254-.636A2.508,2.508,0,0,0,98.789,8.78l-.711,4.05a1.769,1.769,0,0,0,1.711,1.155,2.224,2.224,0,0,0,1.793-.823A4.777,4.777,0,0,0,102.555,10.652Zm5.469,2.215,3.008-6.32h1.563l-5.016,9.859q-1.047,2.055-2.687,2.031a4.6,4.6,0,0,1-.852-.141l.125-1.172.367.039a1.853,1.853,0,0,0,1.16-.3,2.772,2.772,0,0,0,.863-1.074l.508-.969L105.6,6.547h1.477Zm51.1,1.117a2.145,2.145,0,0,0,1.367-.441,2.1,2.1,0,0,0,.8-1.2l1.336-.008a3.014,3.014,0,0,1-.637,1.453,3.68,3.68,0,0,1-2.926,1.367,3.017,3.017,0,0,1-1.785-.551,3.084,3.084,0,0,1-1.074-1.492,4.972,4.972,0,0,1-.234-2.152l.039-.391a5.605,5.605,0,0,1,.711-2.18,4.11,4.11,0,0,1,1.469-1.5,3.648,3.648,0,0,1,2-.5,2.857,2.857,0,0,1,2.125.891,3.08,3.08,0,0,1,.8,2.18l-1.32-.008a2.029,2.029,0,0,0-.461-1.34,1.607,1.607,0,0,0-1.2-.543,2.254,2.254,0,0,0-1.832.82,4.3,4.3,0,0,0-.91,2.359l-.023.2a6.777,6.777,0,0,0-.016,1.031,2.355,2.355,0,0,0,.516,1.445A1.656,1.656,0,0,0,159.125,13.984ZM166.4,7.578a3.275,3.275,0,0,1,2.555-1.18,2.058,2.058,0,0,1,1.762.816,3.217,3.217,0,0,1,.426,2.246L170.219,15H168.8l.93-5.562a2.968,2.968,0,0,0,.008-.711,1.168,1.168,0,0,0-1.289-1.117,2.6,2.6,0,0,0-2.234,1.359L165.172,15h-1.414l2.086-12h1.414ZM177.555,15a1.894,1.894,0,0,1-.055-.445l.023-.445a3.465,3.465,0,0,1-2.469,1.047,2.526,2.526,0,0,1-1.816-.707,2.14,2.14,0,0,1-.637-1.73,2.6,2.6,0,0,1,1.176-2.1,5.005,5.005,0,0,1,2.887-.754l1.477.008.094-.672a1.545,1.545,0,0,0-.293-1.2,1.414,1.414,0,0,0-1.113-.457,2.181,2.181,0,0,0-1.285.355,1.513,1.513,0,0,0-.684.98l-1.422.008a2.266,2.266,0,0,1,.578-1.316,3.363,3.363,0,0,1,1.3-.891,4.215,4.215,0,0,1,1.648-.3,2.8,2.8,0,0,1,2.055.8,2.484,2.484,0,0,1,.617,2.043l-.687,4.188-.039.6a2.949,2.949,0,0,0,.094.852l-.016.133Zm-2.219-1.094a2.466,2.466,0,0,0,1.285-.324,3.254,3.254,0,0,0,1.043-.941l.3-1.742-1.07-.008a4.054,4.054,0,0,0-2.047.422,1.554,1.554,0,0,0-.8,1.2,1.21,1.21,0,0,0,.277.988A1.321,1.321,0,0,0,175.336,13.906Zm10.8-1.2q.117-.875-.961-1.234l-1.469-.43q-1.859-.641-1.8-2.125a2.341,2.341,0,0,1,1.02-1.832,3.631,3.631,0,0,1,2.27-.7,3.027,3.027,0,0,1,2.082.746,2.363,2.363,0,0,1,.77,1.9l-1.406-.008A1.319,1.319,0,0,0,186.25,8a1.576,1.576,0,0,0-1.1-.414,2.059,2.059,0,0,0-1.266.359,1.316,1.316,0,0,0-.57.922q-.1.734.9,1.07l.711.2a4.577,4.577,0,0,1,2.063.977,1.865,1.865,0,0,1,.563,1.492,2.37,2.37,0,0,1-.516,1.375,2.948,2.948,0,0,1-1.25.895,4.18,4.18,0,0,1-1.664.285,3.3,3.3,0,0,1-2.219-.785,2.427,2.427,0,0,1-.844-1.98l1.414.008a1.5,1.5,0,0,0,.453,1.141,1.732,1.732,0,0,0,1.242.43,2.436,2.436,0,0,0,1.336-.324A1.247,1.247,0,0,0,186.141,12.711Zm6.5,2.445a3.048,3.048,0,0,1-2.469-1.164,4.006,4.006,0,0,1-.75-2.9l.039-.336a5.624,5.624,0,0,1,.746-2.3,4.339,4.339,0,0,1,1.5-1.566,3.491,3.491,0,0,1,1.906-.5,2.688,2.688,0,0,1,2.047.867,3.566,3.566,0,0,1,.813,2.266,6.621,6.621,0,0,1-.031,1.016l-.086.648h-5.523a2.855,2.855,0,0,0,.379,1.953,1.8,1.8,0,0,0,1.551.836,3.007,3.007,0,0,0,2.313-1.125l.813.688a3.718,3.718,0,0,1-1.371,1.2A3.886,3.886,0,0,1,192.641,15.156Zm.9-7.586a2.066,2.066,0,0,0-1.527.594A4.22,4.22,0,0,0,190.977,10l4.109.008.031-.125a2.313,2.313,0,0,0-.316-1.637A1.488,1.488,0,0,0,193.539,7.57Zm4.148,3.188A6.578,6.578,0,0,1,198.4,8.43a4.03,4.03,0,0,1,1.367-1.555,3.127,3.127,0,0,1,1.789-.492,2.64,2.64,0,0,1,2.172,1.031L204.539,3h1.414l-2.078,12h-1.289l.148-.906a3.116,3.116,0,0,1-2.469,1.063,2.335,2.335,0,0,1-1.867-.918,4,4,0,0,1-.75-2.379A7.6,7.6,0,0,1,197.688,10.758Zm1.359.808a2.929,2.929,0,0,0,.4,1.732,1.437,1.437,0,0,0,1.234.632,2.554,2.554,0,0,0,2.18-1.233l.672-3.9a1.754,1.754,0,0,0-1.7-1.186,2.143,2.143,0,0,0-1.473.5,3.256,3.256,0,0,0-.969,1.475A6.082,6.082,0,0,0,199.047,11.565ZM225.531,4.5l-.359,2.047h1.539l-.2,1.117h-1.531l-.883,5.258a1.833,1.833,0,0,0-.008.375.6.6,0,0,0,.664.609,4.05,4.05,0,0,0,.688-.078l-.109,1.18a3.847,3.847,0,0,1-1.031.141,1.476,1.476,0,0,1-1.266-.621,2.4,2.4,0,0,1-.328-1.629l.859-5.234h-1.492l.2-1.117h1.492l.359-2.047Zm4.055,3.078a3.275,3.275,0,0,1,2.555-1.18,2.058,2.058,0,0,1,1.762.816,3.217,3.217,0,0,1,.426,2.246L233.406,15h-1.414l.93-5.562a2.968,2.968,0,0,0,.008-.711,1.168,1.168,0,0,0-1.289-1.117,2.6,2.6,0,0,0-2.234,1.359L228.359,15h-1.414l2.086-12h1.414Zm9.641,7.578a3.048,3.048,0,0,1-2.469-1.164,4.006,4.006,0,0,1-.75-2.9l.039-.336a5.624,5.624,0,0,1,.746-2.3,4.339,4.339,0,0,1,1.5-1.566,3.491,3.491,0,0,1,1.906-.5,2.688,2.688,0,0,1,2.047.867,3.566,3.566,0,0,1,.813,2.266,6.621,6.621,0,0,1-.031,1.016l-.086.648h-5.523a2.855,2.855,0,0,0,.379,1.953,1.8,1.8,0,0,0,1.551.836,3.007,3.007,0,0,0,2.313-1.125l.813.688a3.718,3.718,0,0,1-1.371,1.2A3.886,3.886,0,0,1,239.227,15.156Zm.9-7.586a2.066,2.066,0,0,0-1.527.594A4.22,4.22,0,0,0,237.563,10l4.109.008.031-.125a2.313,2.313,0,0,0-.316-1.637A1.488,1.488,0,0,0,240.125,7.57Zm34.945,3.242a6.586,6.586,0,0,1-.711,2.336,3.982,3.982,0,0,1-1.344,1.539,3.058,3.058,0,0,1-1.75.477,2.61,2.61,0,0,1-2.273-1.148L268.7,15h-1.3l2.086-12H270.9l-.852,4.484a3.107,3.107,0,0,1,2.469-1.094,2.358,2.358,0,0,1,1.9.9,3.954,3.954,0,0,1,.719,2.391,7.359,7.359,0,0,1-.047.969ZM273.727,10a3.009,3.009,0,0,0-.383-1.744,1.465,1.465,0,0,0-1.242-.636,2.574,2.574,0,0,0-2.234,1.327l-.633,3.675a1.8,1.8,0,0,0,1.758,1.319,2.054,2.054,0,0,0,1.449-.492,3.212,3.212,0,0,0,.941-1.463A6.579,6.579,0,0,0,273.727,10Zm7.633,5a1.893,1.893,0,0,1-.055-.445l.023-.445a3.465,3.465,0,0,1-2.469,1.047,2.526,2.526,0,0,1-1.816-.707,2.14,2.14,0,0,1-.637-1.73,2.6,2.6,0,0,1,1.176-2.1,5.005,5.005,0,0,1,2.887-.754l1.477.008.094-.672a1.545,1.545,0,0,0-.293-1.2,1.414,1.414,0,0,0-1.113-.457,2.181,2.181,0,0,0-1.285.355,1.513,1.513,0,0,0-.684.98l-1.422.008a2.266,2.266,0,0,1,.578-1.316,3.363,3.363,0,0,1,1.3-.891,4.215,4.215,0,0,1,1.648-.3,2.8,2.8,0,0,1,2.055.8,2.484,2.484,0,0,1,.617,2.043l-.687,4.188-.039.6a2.95,2.95,0,0,0,.094.852L282.8,15Zm-2.219-1.094a2.466,2.466,0,0,0,1.285-.324,3.254,3.254,0,0,0,1.043-.941l.3-1.742-1.07-.008a4.054,4.054,0,0,0-2.047.422,1.554,1.554,0,0,0-.8,1.2,1.21,1.21,0,0,0,.277.988A1.321,1.321,0,0,0,279.141,13.906Zm7.1,1.094h-1.406l2.078-12h1.414Zm3.844,0H288.68l2.078-12h1.414Z" transform="translate(362 6659)" fill="#3c3fa7"/>
      <path id="Path_215880" data-name="Path 215880" d="M48.207,11.492l-.031,1.375.531-1.344,3.4-7.9h1.242l.9,8,.078,1.3.492-1.57,2.906-7.727H59.23L54.777,15H53.441l-.984-8.352-.031-.781-.328.906L48.473,15H47.137L46.246,3.625h1.43Zm14.016,3.664a3.048,3.048,0,0,1-2.469-1.164,4.006,4.006,0,0,1-.75-2.9l.039-.336a5.624,5.624,0,0,1,.746-2.3,4.339,4.339,0,0,1,1.5-1.566,3.491,3.491,0,0,1,1.906-.5,2.688,2.688,0,0,1,2.047.867,3.566,3.566,0,0,1,.813,2.266,6.62,6.62,0,0,1-.031,1.016l-.086.648H60.41a2.856,2.856,0,0,0,.379,1.953,1.8,1.8,0,0,0,1.551.836,3.007,3.007,0,0,0,2.313-1.125l.813.688a3.718,3.718,0,0,1-1.371,1.2A3.886,3.886,0,0,1,62.223,15.156Zm.9-7.586a2.066,2.066,0,0,0-1.527.594A4.22,4.22,0,0,0,60.559,10l4.109.008.031-.125a2.313,2.313,0,0,0-.316-1.637A1.488,1.488,0,0,0,63.121,7.57ZM72.035,15a1.893,1.893,0,0,1-.055-.445L72,14.109a3.465,3.465,0,0,1-2.469,1.047,2.526,2.526,0,0,1-1.816-.707,2.14,2.14,0,0,1-.637-1.73,2.6,2.6,0,0,1,1.176-2.1,5.005,5.005,0,0,1,2.887-.754l1.477.008.094-.672A1.545,1.545,0,0,0,72.422,8a1.414,1.414,0,0,0-1.113-.457,2.181,2.181,0,0,0-1.285.355,1.513,1.513,0,0,0-.684.98l-1.422.008A2.266,2.266,0,0,1,68.5,7.574a3.363,3.363,0,0,1,1.3-.891,4.215,4.215,0,0,1,1.648-.3,2.8,2.8,0,0,1,2.055.8,2.484,2.484,0,0,1,.617,2.043l-.687,4.188-.039.6a2.949,2.949,0,0,0,.094.852L73.473,15Zm-2.219-1.094a2.466,2.466,0,0,0,1.285-.324,3.254,3.254,0,0,0,1.043-.941l.3-1.742-1.07-.008a4.054,4.054,0,0,0-2.047.422,1.554,1.554,0,0,0-.8,1.2,1.21,1.21,0,0,0,.277.988A1.321,1.321,0,0,0,69.816,13.906Zm8.6-2.8-1.109.992L76.809,15H75.395L77.48,3h1.414l-1.25,7.172.867-.875,3-2.75h1.836l-3.883,3.6L82.137,15H80.59Zm15.445.969q.172-1.25-1.3-1.828L91.215,9.75l-.453-.2Q88.48,8.516,88.629,6.633a3.056,3.056,0,0,1,.648-1.672A3.69,3.69,0,0,1,90.789,3.84a4.849,4.849,0,0,1,2-.371,4,4,0,0,1,1.84.461,2.962,2.962,0,0,1,1.23,1.223,3.333,3.333,0,0,1,.375,1.77l-1.477-.008a2.037,2.037,0,0,0-.469-1.627A2.1,2.1,0,0,0,92.73,4.7a2.91,2.91,0,0,0-1.789.5,1.955,1.955,0,0,0-.828,1.409q-.156,1.166,1.43,1.769l1.164.415.586.25a2.941,2.941,0,0,1,2.039,3.016,3.012,3.012,0,0,1-.648,1.66A3.626,3.626,0,0,1,93.156,14.8a5.266,5.266,0,0,1-2.074.359,4.34,4.34,0,0,1-1.957-.457,3.193,3.193,0,0,1-1.348-1.23,3.078,3.078,0,0,1-.406-1.773l1.469.008a1.935,1.935,0,0,0,.551,1.613,2.479,2.479,0,0,0,1.754.613,3.131,3.131,0,0,0,1.867-.492A1.916,1.916,0,0,0,93.863,12.07Zm5.711.8,3.008-6.32h1.563l-5.016,9.859q-1.047,2.055-2.687,2.031a4.6,4.6,0,0,1-.852-.141l.125-1.172.367.039a1.853,1.853,0,0,0,1.16-.3,2.772,2.772,0,0,0,.863-1.074l.508-.969L97.152,6.547h1.477ZM105.5,15H104.09l2.078-12h1.414Zm3.844,0h-1.406l2.078-12h1.414Zm7.484,0a1.893,1.893,0,0,1-.055-.445l.023-.445a3.465,3.465,0,0,1-2.469,1.047,2.526,2.526,0,0,1-1.816-.707,2.14,2.14,0,0,1-.637-1.73,2.6,2.6,0,0,1,1.176-2.1,5.005,5.005,0,0,1,2.887-.754l1.477.008L117.5,9.2a1.545,1.545,0,0,0-.293-1.2,1.414,1.414,0,0,0-1.113-.457,2.181,2.181,0,0,0-1.285.355,1.513,1.513,0,0,0-.684.98l-1.422.008a2.266,2.266,0,0,1,.578-1.316,3.363,3.363,0,0,1,1.3-.891,4.215,4.215,0,0,1,1.648-.3,2.8,2.8,0,0,1,2.055.8,2.484,2.484,0,0,1,.617,2.043l-.687,4.188-.039.6a2.949,2.949,0,0,0,.094.852l-.016.133Zm-2.219-1.094a2.466,2.466,0,0,0,1.285-.324,3.254,3.254,0,0,0,1.043-.941l.3-1.742-1.07-.008a4.054,4.054,0,0,0-2.047.422,1.554,1.554,0,0,0-.8,1.2,1.21,1.21,0,0,0,.277.988A1.321,1.321,0,0,0,114.605,13.906Zm13.242-3.094a6.586,6.586,0,0,1-.711,2.336,3.982,3.982,0,0,1-1.344,1.539,3.058,3.058,0,0,1-1.75.477,2.61,2.61,0,0,1-2.273-1.148L121.48,15h-1.3l2.086-12h1.414l-.852,4.484a3.107,3.107,0,0,1,2.469-1.094,2.358,2.358,0,0,1,1.9.9,3.954,3.954,0,0,1,.719,2.391,7.362,7.362,0,0,1-.047.969ZM126.5,10a3.009,3.009,0,0,0-.383-1.744,1.465,1.465,0,0,0-1.242-.636,2.574,2.574,0,0,0-2.234,1.327l-.633,3.675a1.8,1.8,0,0,0,1.758,1.319,2.054,2.054,0,0,0,1.449-.492,3.212,3.212,0,0,0,.941-1.463A6.578,6.578,0,0,0,126.5,10Zm3.992,5H129.09l2.078-12h1.414Zm5.969.156A3.048,3.048,0,0,1,134,13.992a4.006,4.006,0,0,1-.75-2.9l.039-.336a5.624,5.624,0,0,1,.746-2.3,4.339,4.339,0,0,1,1.5-1.566,3.491,3.491,0,0,1,1.906-.5,2.688,2.688,0,0,1,2.047.867,3.566,3.566,0,0,1,.813,2.266,6.621,6.621,0,0,1-.031,1.016l-.086.648h-5.523a2.855,2.855,0,0,0,.379,1.953,1.8,1.8,0,0,0,1.551.836,3.007,3.007,0,0,0,2.313-1.125l.813.688a3.718,3.718,0,0,1-1.371,1.2A3.886,3.886,0,0,1,136.465,15.156Zm.9-7.586a2.066,2.066,0,0,0-1.527.594A4.22,4.22,0,0,0,134.8,10l4.109.008.031-.125a2.313,2.313,0,0,0-.316-1.637A1.488,1.488,0,0,0,137.363,7.57Zm12.359-1.18a3.047,3.047,0,0,1,1.82.578,3.285,3.285,0,0,1,1.121,1.551,4.8,4.8,0,0,1,.246,2.16l-.016.172a5.685,5.685,0,0,1-.734,2.23,4.309,4.309,0,0,1-1.516,1.551,3.7,3.7,0,0,1-2.039.523,3.052,3.052,0,0,1-1.816-.578,3.21,3.21,0,0,1-1.113-1.531,4.931,4.931,0,0,1-.25-2.133,5.76,5.76,0,0,1,.711-2.359,4.409,4.409,0,0,1,1.527-1.621A3.652,3.652,0,0,1,149.723,6.391Zm-2.875,4.531a4.8,4.8,0,0,0,0,1.023,2.507,2.507,0,0,0,.551,1.469,1.653,1.653,0,0,0,1.262.57,2.253,2.253,0,0,0,1.3-.348,2.919,2.919,0,0,0,1-1.121,4.721,4.721,0,0,0,.523-1.664,7.493,7.493,0,0,0,.023-1.211,2.6,2.6,0,0,0-.57-1.492,1.69,1.69,0,0,0-1.266-.578,2.3,2.3,0,0,0-1.859.859,4.245,4.245,0,0,0-.945,2.313Zm9.914-4.383-.2,1.07a3.333,3.333,0,0,1,2.594-1.219,2.1,2.1,0,0,1,1.766.828,3.217,3.217,0,0,1,.422,2.242L160.418,15H159l.93-5.557a2.962,2.962,0,0,0,.008-.71,1.168,1.168,0,0,0-1.289-1.116,2.661,2.661,0,0,0-2.234,1.358L155.371,15h-1.414l1.469-8.453Zm13,4.953-.031,1.375.531-1.344,3.4-7.9H174.9l.9,8,.078,1.3.492-1.57,2.906-7.727h1.508L176.332,15H175l-.984-8.352-.031-.781-.328.906L170.027,15h-1.336L167.8,3.625h1.43Zm14.016,3.664a3.048,3.048,0,0,1-2.469-1.164,4.006,4.006,0,0,1-.75-2.9l.039-.336a5.624,5.624,0,0,1,.746-2.3,4.339,4.339,0,0,1,1.5-1.566,3.491,3.491,0,0,1,1.906-.5,2.688,2.688,0,0,1,2.047.867,3.566,3.566,0,0,1,.813,2.266,6.621,6.621,0,0,1-.031,1.016l-.086.648h-5.523a2.855,2.855,0,0,0,.379,1.953,1.8,1.8,0,0,0,1.551.836,3.007,3.007,0,0,0,2.313-1.125l.813.688a3.718,3.718,0,0,1-1.371,1.2A3.886,3.886,0,0,1,183.777,15.156Zm.9-7.586a2.066,2.066,0,0,0-1.527.594A4.22,4.22,0,0,0,182.113,10l4.109.008.031-.125a2.313,2.313,0,0,0-.316-1.637A1.488,1.488,0,0,0,184.676,7.57ZM193.59,15a1.894,1.894,0,0,1-.055-.445l.023-.445a3.465,3.465,0,0,1-2.469,1.047,2.526,2.526,0,0,1-1.816-.707,2.14,2.14,0,0,1-.637-1.73,2.6,2.6,0,0,1,1.176-2.1,5.005,5.005,0,0,1,2.887-.754l1.477.008.094-.672a1.545,1.545,0,0,0-.293-1.2,1.414,1.414,0,0,0-1.113-.457,2.181,2.181,0,0,0-1.285.355,1.513,1.513,0,0,0-.684.98l-1.422.008a2.266,2.266,0,0,1,.578-1.316,3.363,3.363,0,0,1,1.3-.891,4.215,4.215,0,0,1,1.648-.3,2.8,2.8,0,0,1,2.055.8,2.484,2.484,0,0,1,.617,2.043l-.687,4.188-.039.6a2.949,2.949,0,0,0,.094.852l-.016.133Zm-2.219-1.094a2.466,2.466,0,0,0,1.285-.324,3.254,3.254,0,0,0,1.043-.941L194,10.9l-1.07-.008a4.054,4.054,0,0,0-2.047.422,1.554,1.554,0,0,0-.8,1.2,1.21,1.21,0,0,0,.277.988A1.321,1.321,0,0,0,191.371,13.906Zm8.6-2.8-1.109.992-.5,2.906h-1.414l2.086-12h1.414l-1.25,7.172.867-.875,3-2.75H204.9l-3.883,3.6L203.691,15h-1.547Zm9.055,3.9L211,3.625l3.336.008a3.793,3.793,0,0,1,2.609.781,2.5,2.5,0,0,1,.758,2.18,2.957,2.957,0,0,1-2.055,2.461A2.117,2.117,0,0,1,216.8,10.07a2.839,2.839,0,0,1,.309,1.586,3.318,3.318,0,0,1-1.234,2.441,4.456,4.456,0,0,1-2.891.9Zm2.391-5.32-.711,4.086,2.32.008a2.78,2.78,0,0,0,1.781-.569,2.218,2.218,0,0,0,.836-1.536,1.821,1.821,0,0,0-.32-1.435,1.745,1.745,0,0,0-1.352-.546Zm.211-1.2,2.117.008a2.727,2.727,0,0,0,1.676-.509,2,2,0,0,0,.8-1.4,1.431,1.431,0,0,0-.324-1.253,2.075,2.075,0,0,0-1.41-.462l-2.234-.008Zm10.578,6.68a3.048,3.048,0,0,1-2.469-1.164,4.006,4.006,0,0,1-.75-2.9l.039-.336a5.624,5.624,0,0,1,.746-2.3,4.339,4.339,0,0,1,1.5-1.566,3.491,3.491,0,0,1,1.906-.5,2.688,2.688,0,0,1,2.047.867,3.566,3.566,0,0,1,.813,2.266A6.621,6.621,0,0,1,226,10.539l-.086.648h-5.523a2.855,2.855,0,0,0,.379,1.953,1.8,1.8,0,0,0,1.551.836,3.007,3.007,0,0,0,2.313-1.125l.813.688a3.718,3.718,0,0,1-1.371,1.2A3.886,3.886,0,0,1,222.207,15.156Zm.9-7.586a2.066,2.066,0,0,0-1.527.594A4.22,4.22,0,0,0,220.543,10l4.109.008.031-.125a2.313,2.313,0,0,0-.316-1.637A1.488,1.488,0,0,0,223.105,7.57ZM232.02,15a1.894,1.894,0,0,1-.055-.445l.023-.445a3.465,3.465,0,0,1-2.469,1.047,2.526,2.526,0,0,1-1.816-.707,2.14,2.14,0,0,1-.637-1.73,2.6,2.6,0,0,1,1.176-2.1,5.005,5.005,0,0,1,2.887-.754l1.477.008L232.7,9.2a1.545,1.545,0,0,0-.293-1.2,1.414,1.414,0,0,0-1.113-.457,2.181,2.181,0,0,0-1.285.355,1.513,1.513,0,0,0-.684.98l-1.422.008a2.266,2.266,0,0,1,.578-1.316,3.363,3.363,0,0,1,1.3-.891,4.215,4.215,0,0,1,1.648-.3,2.8,2.8,0,0,1,2.055.8,2.484,2.484,0,0,1,.617,2.043l-.687,4.188-.039.6a2.949,2.949,0,0,0,.094.852l-.016.133ZM229.8,13.906a2.466,2.466,0,0,0,1.285-.324,3.254,3.254,0,0,0,1.043-.941l.3-1.742-1.07-.008a4.054,4.054,0,0,0-2.047.422,1.554,1.554,0,0,0-.8,1.2,1.21,1.21,0,0,0,.277.988A1.321,1.321,0,0,0,229.8,13.906Zm9.3-9.406-.359,2.047h1.539l-.2,1.117h-1.531l-.883,5.258a1.833,1.833,0,0,0-.008.375.6.6,0,0,0,.664.609,4.05,4.05,0,0,0,.688-.078l-.109,1.18a3.847,3.847,0,0,1-1.031.141,1.476,1.476,0,0,1-1.266-.621,2.4,2.4,0,0,1-.328-1.629l.859-5.234h-1.492l.2-1.117h1.492L237.7,4.5Z" transform="translate(378 6719)" fill="#3c3fa7"/>
      <line id="Line_1671" data-name="Line 1671" x2="285" transform="translate(377.5 6707.5)" fill="none" stroke="#1f1f1f" stroke-linecap="round" stroke-width="3"/>
      <line id="Line_1672" data-name="Line 1672" y2="20" transform="translate(377.5 6687.5)" fill="none" stroke="#fc5f65" stroke-linecap="round" stroke-width="3"/>
      <line id="Line_1673" data-name="Line 1673" y2="20" transform="translate(535.5 6687.5)" fill="none" stroke="#fc5f65" stroke-linecap="round" stroke-width="3"/>
      <line id="Line_1674" data-name="Line 1674" y2="20" transform="translate(662.5 6687.5)" fill="none" stroke="#fc5f65" stroke-linecap="round" stroke-width="3"/>
    </g>
    <g id="Group_985369" data-name="Group 985369" transform="translate(-23 272)">
      <g id="Group_985367-2" data-name="Group 985367" transform="translate(307 6517.852)">
        <g id="Group_985365-3" data-name="Group 985365" transform="translate(25 56.27)">
          <g id="Group_985360-3" data-name="Group 985360">
            <rect id="Rectangle_339735-3" data-name="Rectangle 339735" width="353" height="3" transform="translate(0)"/>
          </g>
          <g id="Group_985361-3" data-name="Group 985361" transform="translate(0 18.971)">
            <rect id="Rectangle_339736-3" data-name="Rectangle 339736" width="353" height="3" transform="translate(0)"/>
          </g>
          <g id="Group_985362-3" data-name="Group 985362" transform="translate(0 37.943)">
            <rect id="Rectangle_339737-3" data-name="Rectangle 339737" width="353" height="3" transform="translate(0)"/>
          </g>
          <g id="Group_985363-3" data-name="Group 985363" transform="translate(0 56.914)">
            <rect id="Rectangle_339738-3" data-name="Rectangle 339738" width="353" height="3" transform="translate(0)"/>
          </g>
          <g id="Group_985364-3" data-name="Group 985364" transform="translate(0 75.878)">
            <rect id="Rectangle_339739-3" data-name="Rectangle 339739" width="353" height="3" transform="translate(0 0)"/>
          </g>
        </g>
        <line id="Line_1668-2" data-name="Line 1668" y2="79" transform="translate(83 56.148)" fill="none" stroke="#1f1f1f" stroke-width="2" stroke-dasharray="7"/>
        <line id="Line_1669-2" data-name="Line 1669" y2="79" transform="translate(188 56.148)" fill="none" stroke="#1f1f1f" stroke-width="2" stroke-dasharray="7"/>
        <line id="Line_1670-2" data-name="Line 1670" y2="79" transform="translate(315 56.148)" fill="none" stroke="#1f1f1f" stroke-width="2" stroke-dasharray="7"/>
      </g>
      <path id="Path_213190-2" data-name="Path 213190" d="M265.755,188.51h-1.388v37.36a5.12,5.12,0,0,0-1.944-1.25,9.762,9.762,0,0,0-3.383-.6,13.745,13.745,0,0,0-6.611,1.712,10.9,10.9,0,0,0-4.544,4.531c-.918,1.808-1.36,3.987-.191,5.713,1.192,1.712,3.621,2.381,5.87,2.437a13.312,13.312,0,0,0,6.606-1.613,11.6,11.6,0,0,0,4.668-4.458,7.19,7.19,0,0,0,.9-2.925c.01-.118,0-.235,0-.355l.019.043Z" transform="translate(111.677 6417.076)"/>
      <path id="Path_213193-2" data-name="Path 213193" d="M265.755,188.51h-1.388v37.36a5.12,5.12,0,0,0-1.944-1.25,9.762,9.762,0,0,0-3.383-.6,13.745,13.745,0,0,0-6.611,1.712,10.9,10.9,0,0,0-4.544,4.531c-.918,1.808-1.36,3.987-.191,5.713,1.192,1.712,3.621,2.381,5.87,2.437a13.312,13.312,0,0,0,6.606-1.613,11.6,11.6,0,0,0,4.668-4.458,7.19,7.19,0,0,0,.9-2.925c.01-.118,0-.235,0-.355l.019.043Z" transform="translate(276.913 6397.49)"/>
      <path id="Path_213194-2" data-name="Path 213194" d="M265.755,188.51h-1.388v37.36a5.12,5.12,0,0,0-1.944-1.25,9.762,9.762,0,0,0-3.383-.6,13.745,13.745,0,0,0-6.611,1.712,10.9,10.9,0,0,0-4.544,4.531c-.918,1.808-1.36,3.987-.191,5.713,1.192,1.712,3.621,2.381,5.87,2.437a13.312,13.312,0,0,0,6.606-1.613,11.6,11.6,0,0,0,4.668-4.458,7.19,7.19,0,0,0,.9-2.925c.01-.118,0-.235,0-.355l.019.043Z" transform="translate(337.499 6410.849)"/>
      <path id="Path_213195-2" data-name="Path 213195" d="M265.755,188.51h-1.388v37.36a5.12,5.12,0,0,0-1.944-1.25,9.762,9.762,0,0,0-3.383-.6,13.745,13.745,0,0,0-6.611,1.712,10.9,10.9,0,0,0-4.544,4.531c-.918,1.808-1.36,3.987-.191,5.713,1.192,1.712,3.621,2.381,5.87,2.437a13.312,13.312,0,0,0,6.606-1.613,11.6,11.6,0,0,0,4.668-4.458,7.19,7.19,0,0,0,.9-2.925c.01-.118,0-.235,0-.355l.019.043Z" transform="translate(391.578 6419.076)"/>
      <path id="Path_213191-2" data-name="Path 213191" d="M18.765,0H17.377V37.36a5.12,5.12,0,0,0-1.944-1.25,9.762,9.762,0,0,0-3.383-.6A13.746,13.746,0,0,0,5.44,37.222,10.9,10.9,0,0,0,.9,41.753c-.918,1.808-1.36,3.987-.191,5.713C1.9,49.178,4.326,49.847,6.575,49.9a13.312,13.312,0,0,0,6.606-1.613,11.6,11.6,0,0,0,4.668-4.458,7.19,7.19,0,0,0,.9-2.925c.01-.118,0-.235,0-.355l.019.043Z" transform="translate(427.002 6655.493) rotate(180)"/>
      <path id="Path_213192-2" data-name="Path 213192" d="M18.765,0H17.377V37.36a5.12,5.12,0,0,0-1.944-1.25,9.762,9.762,0,0,0-3.383-.6A13.746,13.746,0,0,0,5.44,37.222,10.9,10.9,0,0,0,.9,41.753c-.918,1.808-1.36,3.987-.191,5.713C1.9,49.178,4.326,49.847,6.575,49.9a13.312,13.312,0,0,0,6.606-1.613,11.6,11.6,0,0,0,4.668-4.458,7.19,7.19,0,0,0,.9-2.925c.01-.118,0-.235,0-.355l.019.043Z" transform="translate(476.573 6644.68) rotate(180)"/>
      <g id="Ellipse_4935-2" data-name="Ellipse 4935" transform="translate(444 6537)" fill="none" stroke="#fc5f65" stroke-width="3">
        <ellipse cx="23" cy="85" rx="23" ry="85" stroke="none"/>
        <ellipse cx="23" cy="85" rx="21.5" ry="83.5" fill="none"/>
      </g>
      <path id="Path_215878" data-name="Path 215878" d="M4.289,3.625l1.992,9.266L11.5,3.625h1.93L11.453,15H9.992l.781-4.5.93-4.578L6.547,15H5.422L3.391,5.742l-.7,4.906L1.93,15H.461L2.438,3.625ZM15.4,15H13.992l1.469-8.453h1.406ZM16.563,3.461a.774.774,0,0,1,.6.215.8.8,0,0,1,.238.605.834.834,0,0,1-.836.852.779.779,0,0,1-.6-.211.764.764,0,0,1-.227-.594.886.886,0,0,1,.234-.609A.826.826,0,0,1,16.563,3.461Zm4.781,6.164,2.3-3.078h1.734L21.984,10.8,24.047,15H22.508l-1.4-3.156L18.727,15H17l3.492-4.344-2-4.109h1.547Zm13.3,3.086q.117-.875-.961-1.234l-1.469-.43q-1.859-.641-1.8-2.125a2.341,2.341,0,0,1,1.02-1.832,3.631,3.631,0,0,1,2.27-.7,3.027,3.027,0,0,1,2.082.746,2.363,2.363,0,0,1,.77,1.9l-1.406-.008A1.319,1.319,0,0,0,34.75,8a1.576,1.576,0,0,0-1.1-.414,2.059,2.059,0,0,0-1.266.359,1.316,1.316,0,0,0-.57.922q-.1.734.9,1.07l.711.2a4.577,4.577,0,0,1,2.063.977,1.865,1.865,0,0,1,.563,1.492,2.37,2.37,0,0,1-.516,1.375,2.948,2.948,0,0,1-1.25.895,4.18,4.18,0,0,1-1.664.285,3.3,3.3,0,0,1-2.219-.785,2.427,2.427,0,0,1-.844-1.98l1.414.008a1.5,1.5,0,0,0,.453,1.141,1.732,1.732,0,0,0,1.242.43A2.436,2.436,0,0,0,34,13.645,1.247,1.247,0,0,0,34.641,12.711Zm7.539-6.32A3.047,3.047,0,0,1,44,6.969,3.285,3.285,0,0,1,45.121,8.52a4.8,4.8,0,0,1,.246,2.16l-.016.172a5.685,5.685,0,0,1-.734,2.23A4.309,4.309,0,0,1,43.1,14.633a3.7,3.7,0,0,1-2.039.523,3.052,3.052,0,0,1-1.816-.578,3.21,3.21,0,0,1-1.113-1.531,4.931,4.931,0,0,1-.25-2.133,5.76,5.76,0,0,1,.711-2.359,4.409,4.409,0,0,1,1.527-1.621A3.652,3.652,0,0,1,42.18,6.391ZM39.3,10.922a4.8,4.8,0,0,0,0,1.023,2.507,2.507,0,0,0,.551,1.469,1.653,1.653,0,0,0,1.262.57,2.253,2.253,0,0,0,1.3-.348,2.919,2.919,0,0,0,1-1.121,4.721,4.721,0,0,0,.523-1.664,7.494,7.494,0,0,0,.023-1.211,2.6,2.6,0,0,0-.57-1.492,1.69,1.69,0,0,0-1.266-.578,2.3,2.3,0,0,0-1.859.859,4.245,4.245,0,0,0-.945,2.313Zm9.9-4.383-.18.945a3.305,3.305,0,0,1,2.57-1.094,2.608,2.608,0,0,1,1.363.367,1.8,1.8,0,0,1,.77.992,3.49,3.49,0,0,1,2.8-1.359,2.235,2.235,0,0,1,1.867.852,3.042,3.042,0,0,1,.445,2.2L57.914,15H56.508l.922-5.57a2.943,2.943,0,0,0,0-.742Q57.281,7.625,56.039,7.6a2.136,2.136,0,0,0-1.4.48,2.222,2.222,0,0,0-.809,1.3L52.867,15H51.445l.938-5.562A1.786,1.786,0,0,0,52.121,8.1a1.377,1.377,0,0,0-1.129-.484,2.315,2.315,0,0,0-2.1,1.2L47.82,15H46.406l1.469-8.453ZM63.75,15.156a3.048,3.048,0,0,1-2.469-1.164,4.006,4.006,0,0,1-.75-2.9l.039-.336a5.624,5.624,0,0,1,.746-2.3,4.339,4.339,0,0,1,1.5-1.566,3.491,3.491,0,0,1,1.906-.5,2.688,2.688,0,0,1,2.047.867,3.566,3.566,0,0,1,.813,2.266,6.62,6.62,0,0,1-.031,1.016l-.086.648H61.938a2.856,2.856,0,0,0,.379,1.953,1.8,1.8,0,0,0,1.551.836,3.007,3.007,0,0,0,2.313-1.125l.813.688a3.718,3.718,0,0,1-1.371,1.2A3.886,3.886,0,0,1,63.75,15.156Zm.9-7.586a2.066,2.066,0,0,0-1.527.594A4.22,4.22,0,0,0,62.086,10l4.109.008.031-.125a2.313,2.313,0,0,0-.316-1.637A1.488,1.488,0,0,0,64.648,7.57Zm24.664,5.141q.117-.875-.961-1.234l-1.469-.43q-1.859-.641-1.8-2.125a2.341,2.341,0,0,1,1.02-1.832,3.631,3.631,0,0,1,2.27-.7,3.027,3.027,0,0,1,2.082.746,2.363,2.363,0,0,1,.77,1.9L89.82,9.031A1.319,1.319,0,0,0,89.422,8a1.576,1.576,0,0,0-1.1-.414,2.059,2.059,0,0,0-1.266.359,1.316,1.316,0,0,0-.57.922q-.1.734.9,1.07l.711.2a4.577,4.577,0,0,1,2.063.977,1.865,1.865,0,0,1,.563,1.492,2.37,2.37,0,0,1-.516,1.375,2.948,2.948,0,0,1-1.25.895,4.18,4.18,0,0,1-1.664.285,3.3,3.3,0,0,1-2.219-.785,2.427,2.427,0,0,1-.844-1.98l1.414.008a1.5,1.5,0,0,0,.453,1.141,1.732,1.732,0,0,0,1.242.43,2.436,2.436,0,0,0,1.336-.324A1.247,1.247,0,0,0,89.313,12.711Zm7.539-6.32a3.047,3.047,0,0,1,1.82.578A3.285,3.285,0,0,1,99.793,8.52a4.8,4.8,0,0,1,.246,2.16l-.016.172a5.685,5.685,0,0,1-.734,2.23,4.309,4.309,0,0,1-1.516,1.551,3.7,3.7,0,0,1-2.039.523,3.052,3.052,0,0,1-1.816-.578A3.21,3.21,0,0,1,92.8,13.047a4.931,4.931,0,0,1-.25-2.133,5.76,5.76,0,0,1,.711-2.359,4.409,4.409,0,0,1,1.527-1.621A3.652,3.652,0,0,1,96.852,6.391Zm-2.875,4.531a4.8,4.8,0,0,0,0,1.023,2.507,2.507,0,0,0,.551,1.469,1.653,1.653,0,0,0,1.262.57,2.253,2.253,0,0,0,1.3-.348,2.919,2.919,0,0,0,1-1.121,4.721,4.721,0,0,0,.523-1.664,7.5,7.5,0,0,0,.023-1.211,2.6,2.6,0,0,0-.57-1.492A1.69,1.69,0,0,0,96.8,7.57a2.3,2.3,0,0,0-1.859.859,4.245,4.245,0,0,0-.945,2.313ZM106.258,15a1.893,1.893,0,0,1-.055-.445l.023-.445a3.465,3.465,0,0,1-2.469,1.047,2.526,2.526,0,0,1-1.816-.707,2.14,2.14,0,0,1-.637-1.73,2.6,2.6,0,0,1,1.176-2.1,5.005,5.005,0,0,1,2.887-.754l1.477.008.094-.672a1.545,1.545,0,0,0-.293-1.2,1.414,1.414,0,0,0-1.113-.457,2.181,2.181,0,0,0-1.285.355,1.513,1.513,0,0,0-.684.98l-1.422.008a2.266,2.266,0,0,1,.578-1.316,3.363,3.363,0,0,1,1.3-.891,4.215,4.215,0,0,1,1.648-.3,2.8,2.8,0,0,1,2.055.8,2.484,2.484,0,0,1,.617,2.043l-.687,4.188-.039.6a2.949,2.949,0,0,0,.094.852L107.7,15Zm-2.219-1.094a2.466,2.466,0,0,0,1.285-.324,3.254,3.254,0,0,0,1.043-.941l.3-1.742-1.07-.008a4.054,4.054,0,0,0-2.047.422,1.554,1.554,0,0,0-.8,1.2,1.21,1.21,0,0,0,.277.988A1.321,1.321,0,0,0,104.039,13.906Zm13.227-3.094a6.706,6.706,0,0,1-.7,2.32,3.949,3.949,0,0,1-1.336,1.543,3.058,3.058,0,0,1-1.766.488,2.815,2.815,0,0,1-2.25-.992l-.758,4.078h-1.414l2.031-11.7,1.281-.008-.156.945a3.207,3.207,0,0,1,2.508-1.094,2.358,2.358,0,0,1,1.9.9,3.954,3.954,0,0,1,.719,2.391,8.412,8.412,0,0,1-.039.969Zm-1.391-.16.039-.655a2.969,2.969,0,0,0-.434-1.744,1.525,1.525,0,0,0-1.254-.636,2.508,2.508,0,0,0-2.117,1.163l-.711,4.05a1.769,1.769,0,0,0,1.711,1.155,2.224,2.224,0,0,0,1.793-.823A4.777,4.777,0,0,0,115.875,10.652ZM158.867,15a1.894,1.894,0,0,1-.055-.445l.023-.445a3.465,3.465,0,0,1-2.469,1.047,2.526,2.526,0,0,1-1.816-.707,2.14,2.14,0,0,1-.637-1.73,2.6,2.6,0,0,1,1.176-2.1,5.005,5.005,0,0,1,2.887-.754l1.477.008.094-.672a1.545,1.545,0,0,0-.293-1.2,1.414,1.414,0,0,0-1.113-.457,2.181,2.181,0,0,0-1.285.355,1.513,1.513,0,0,0-.684.98l-1.422.008a2.266,2.266,0,0,1,.578-1.316,3.363,3.363,0,0,1,1.3-.891,4.215,4.215,0,0,1,1.648-.3,2.8,2.8,0,0,1,2.055.8,2.484,2.484,0,0,1,.617,2.043l-.687,4.188-.039.6a2.949,2.949,0,0,0,.094.852L160.3,15Zm-2.219-1.094a2.466,2.466,0,0,0,1.285-.324,3.254,3.254,0,0,0,1.043-.941l.3-1.742-1.07-.008a4.054,4.054,0,0,0-2.047.422,1.554,1.554,0,0,0-.8,1.2,1.21,1.21,0,0,0,.277.988A1.321,1.321,0,0,0,156.648,13.906Zm8.375-7.367-.2,1.07a3.333,3.333,0,0,1,2.594-1.219,2.1,2.1,0,0,1,1.766.828,3.217,3.217,0,0,1,.422,2.242L168.68,15h-1.414l.93-5.557a2.962,2.962,0,0,0,.008-.71,1.168,1.168,0,0,0-1.289-1.116,2.661,2.661,0,0,0-2.234,1.358L163.633,15h-1.414l1.469-8.453Zm6.242,4.219a6.578,6.578,0,0,1,.711-2.328,4.03,4.03,0,0,1,1.367-1.555,3.127,3.127,0,0,1,1.789-.492A2.64,2.64,0,0,1,177.3,7.414L178.117,3h1.414l-2.078,12h-1.289l.148-.906a3.116,3.116,0,0,1-2.469,1.063,2.335,2.335,0,0,1-1.867-.918,4,4,0,0,1-.75-2.379A7.6,7.6,0,0,1,171.266,10.758Zm1.359.808a2.929,2.929,0,0,0,.4,1.732,1.437,1.437,0,0,0,1.234.632,2.554,2.554,0,0,0,2.18-1.233l.672-3.9a1.754,1.754,0,0,0-1.7-1.186,2.143,2.143,0,0,0-1.473.5,3.256,3.256,0,0,0-.969,1.475A6.082,6.082,0,0,0,172.625,11.565ZM222.57,13l2.7-6.453h1.461L222.875,15h-1.148l-.875-6.391L217.8,15h-1.148l-.914-8.453h1.352l.516,6.3,3-6.3h1.141Zm9.328,2a1.894,1.894,0,0,1-.055-.445l.023-.445a3.465,3.465,0,0,1-2.469,1.047,2.526,2.526,0,0,1-1.816-.707,2.14,2.14,0,0,1-.637-1.73,2.6,2.6,0,0,1,1.176-2.1,5.005,5.005,0,0,1,2.887-.754l1.477.008.094-.672a1.545,1.545,0,0,0-.293-1.2,1.414,1.414,0,0,0-1.113-.457,2.181,2.181,0,0,0-1.285.355,1.513,1.513,0,0,0-.684.98l-1.422.008a2.266,2.266,0,0,1,.578-1.316,3.363,3.363,0,0,1,1.3-.891,4.215,4.215,0,0,1,1.648-.3,2.8,2.8,0,0,1,2.055.8,2.484,2.484,0,0,1,.617,2.043l-.687,4.188-.039.6a2.949,2.949,0,0,0,.094.852l-.016.133Zm-2.219-1.094a2.466,2.466,0,0,0,1.285-.324,3.254,3.254,0,0,0,1.043-.941l.3-1.742-1.07-.008a4.054,4.054,0,0,0-2.047.422,1.554,1.554,0,0,0-.8,1.2,1.21,1.21,0,0,0,.277.988A1.321,1.321,0,0,0,229.68,13.906ZM254.6,10.758h-3.711l.211-1.18h3.711ZM274.719,4.5l-.359,2.047H275.9l-.2,1.117h-1.531l-.883,5.258a1.834,1.834,0,0,0-.008.375.6.6,0,0,0,.664.609,4.05,4.05,0,0,0,.688-.078l-.109,1.18a3.847,3.847,0,0,1-1.031.141,1.476,1.476,0,0,1-1.266-.621A2.4,2.4,0,0,1,271.9,12.9l.859-5.234h-1.492l.2-1.117h1.492l.359-2.047Zm5.07,10.656a3.048,3.048,0,0,1-2.469-1.164,4.006,4.006,0,0,1-.75-2.9l.039-.336a5.624,5.624,0,0,1,.746-2.3,4.339,4.339,0,0,1,1.5-1.566,3.491,3.491,0,0,1,1.906-.5,2.688,2.688,0,0,1,2.047.867,3.566,3.566,0,0,1,.813,2.266,6.619,6.619,0,0,1-.031,1.016l-.086.648h-5.523a2.856,2.856,0,0,0,.379,1.953,1.8,1.8,0,0,0,1.551.836,3.007,3.007,0,0,0,2.313-1.125l.813.688a3.718,3.718,0,0,1-1.371,1.2A3.886,3.886,0,0,1,279.789,15.156Zm.9-7.586a2.066,2.066,0,0,0-1.527.594A4.22,4.22,0,0,0,278.125,10l4.109.008.031-.125a2.313,2.313,0,0,0-.316-1.637A1.488,1.488,0,0,0,280.688,7.57Zm9,.266-.664-.07a2.42,2.42,0,0,0-2.141,1.227L285.844,15H284.43L285.9,6.547l1.367-.008-.211.984a2.527,2.527,0,0,1,2.117-1.148,2.594,2.594,0,0,1,.672.117Z" transform="translate(362 6659)" fill="#3c3fa7"/>
      <path id="Path_215879" data-name="Path 215879" d="M47.773,12.07q.172-1.25-1.3-1.828L45.125,9.75l-.453-.2q-2.281-1.039-2.133-2.922a3.056,3.056,0,0,1,.648-1.672A3.69,3.69,0,0,1,44.7,3.84a4.849,4.849,0,0,1,2-.371,4,4,0,0,1,1.84.461,2.962,2.962,0,0,1,1.23,1.223,3.333,3.333,0,0,1,.375,1.77l-1.477-.008A2.037,2.037,0,0,0,48.2,5.287,2.1,2.1,0,0,0,46.641,4.7a2.91,2.91,0,0,0-1.789.5,1.955,1.955,0,0,0-.828,1.409q-.156,1.166,1.43,1.769l1.164.415.586.25a2.941,2.941,0,0,1,2.039,3.016,3.012,3.012,0,0,1-.648,1.66A3.626,3.626,0,0,1,47.066,14.8a5.266,5.266,0,0,1-2.074.359,4.339,4.339,0,0,1-1.957-.457,3.193,3.193,0,0,1-1.348-1.23,3.078,3.078,0,0,1-.406-1.773l1.469.008a1.935,1.935,0,0,0,.551,1.613,2.479,2.479,0,0,0,1.754.613,3.131,3.131,0,0,0,1.867-.492A1.916,1.916,0,0,0,47.773,12.07ZM54.188,4.5l-.359,2.047h1.539l-.2,1.117H53.641l-.883,5.258a1.833,1.833,0,0,0-.008.375.6.6,0,0,0,.664.609,4.05,4.05,0,0,0,.688-.078l-.109,1.18a3.847,3.847,0,0,1-1.031.141,1.476,1.476,0,0,1-1.266-.621,2.4,2.4,0,0,1-.328-1.629l.859-5.234H50.734l.2-1.117h1.492L52.781,4.5Zm6.672,3.336-.664-.07a2.42,2.42,0,0,0-2.141,1.227L57.016,15H55.6L57.07,6.547l1.367-.008-.211.984a2.527,2.527,0,0,1,2.117-1.148,2.594,2.594,0,0,1,.672.117Zm4.609-1.445a3.047,3.047,0,0,1,1.82.578A3.285,3.285,0,0,1,68.41,8.52a4.8,4.8,0,0,1,.246,2.16l-.016.172a5.685,5.685,0,0,1-.734,2.23,4.309,4.309,0,0,1-1.516,1.551,3.7,3.7,0,0,1-2.039.523,3.052,3.052,0,0,1-1.816-.578,3.21,3.21,0,0,1-1.113-1.531,4.931,4.931,0,0,1-.25-2.133,5.76,5.76,0,0,1,.711-2.359A4.409,4.409,0,0,1,63.41,6.934,3.652,3.652,0,0,1,65.469,6.391Zm-2.875,4.531a4.8,4.8,0,0,0,0,1.023,2.507,2.507,0,0,0,.551,1.469,1.653,1.653,0,0,0,1.262.57,2.253,2.253,0,0,0,1.3-.348,2.919,2.919,0,0,0,1-1.121,4.721,4.721,0,0,0,.523-1.664,7.5,7.5,0,0,0,.023-1.211,2.6,2.6,0,0,0-.57-1.492,1.69,1.69,0,0,0-1.266-.578,2.3,2.3,0,0,0-1.859.859,4.245,4.245,0,0,0-.945,2.313Zm9.914-4.383-.2,1.07A3.333,3.333,0,0,1,74.9,6.391a2.1,2.1,0,0,1,1.766.828,3.217,3.217,0,0,1,.422,2.242L76.164,15H74.75l.93-5.557a2.962,2.962,0,0,0,.008-.71A1.168,1.168,0,0,0,74.4,7.617a2.661,2.661,0,0,0-2.234,1.358L71.117,15H69.7l1.469-8.453Zm6.25,4.219a6.889,6.889,0,0,1,.746-2.4,3.9,3.9,0,0,1,1.359-1.508,3.151,3.151,0,0,1,1.754-.465,2.6,2.6,0,0,1,2.219,1.109l.281-.945h1.3L85.008,14.82A4.113,4.113,0,0,1,83.7,17.41a3.7,3.7,0,0,1-2.68.926,3.8,3.8,0,0,1-1.645-.406,3.127,3.127,0,0,1-1.238-1.07l.8-.867a2.536,2.536,0,0,0,3.73.6,2.9,2.9,0,0,0,.926-1.687l.156-.75a3.2,3.2,0,0,1-2.414,1,2.486,2.486,0,0,1-1.371-.426,2.589,2.589,0,0,1-.9-1.164,4.759,4.759,0,0,1-.352-1.7A8.734,8.734,0,0,1,78.758,10.758Zm1.367.8a2.974,2.974,0,0,0,.387,1.728,1.461,1.461,0,0,0,1.238.644,2.561,2.561,0,0,0,2.18-1.241l.664-3.878a1.776,1.776,0,0,0-1.7-1.2,2.194,2.194,0,0,0-1.887.936,4.878,4.878,0,0,0-.871,2.614Zm17.539.513q.172-1.25-1.3-1.828L95.016,9.75l-.453-.2Q92.281,8.516,92.43,6.633a3.056,3.056,0,0,1,.648-1.672A3.69,3.69,0,0,1,94.59,3.84a4.849,4.849,0,0,1,2-.371,4,4,0,0,1,1.84.461,2.962,2.962,0,0,1,1.23,1.223,3.333,3.333,0,0,1,.375,1.77l-1.477-.008a2.037,2.037,0,0,0-.469-1.627A2.1,2.1,0,0,0,96.531,4.7a2.91,2.91,0,0,0-1.789.5,1.955,1.955,0,0,0-.828,1.409q-.156,1.166,1.43,1.769l1.164.415.586.25a2.941,2.941,0,0,1,2.039,3.016,3.012,3.012,0,0,1-.648,1.66A3.626,3.626,0,0,1,96.957,14.8a5.266,5.266,0,0,1-2.074.359,4.34,4.34,0,0,1-1.957-.457,3.193,3.193,0,0,1-1.348-1.23,3.078,3.078,0,0,1-.406-1.773l1.469.008a1.935,1.935,0,0,0,.551,1.613,2.479,2.479,0,0,0,1.754.613,3.131,3.131,0,0,0,1.867-.492A1.916,1.916,0,0,0,97.664,12.07Zm5.711.8,3.008-6.32h1.563l-5.016,9.859q-1.047,2.055-2.687,2.031a4.6,4.6,0,0,1-.852-.141l.125-1.172.367.039a1.853,1.853,0,0,0,1.16-.3,2.772,2.772,0,0,0,.863-1.074l.508-.969-1.461-8.273h1.477ZM109.3,15h-1.406l2.078-12h1.414Zm3.844,0h-1.406l2.078-12h1.414Zm7.484,0a1.893,1.893,0,0,1-.055-.445l.023-.445a3.465,3.465,0,0,1-2.469,1.047,2.526,2.526,0,0,1-1.816-.707,2.14,2.14,0,0,1-.637-1.73,2.6,2.6,0,0,1,1.176-2.1,5.005,5.005,0,0,1,2.887-.754l1.477.008L121.3,9.2a1.545,1.545,0,0,0-.293-1.2,1.414,1.414,0,0,0-1.113-.457,2.181,2.181,0,0,0-1.285.355,1.513,1.513,0,0,0-.684.98l-1.422.008a2.266,2.266,0,0,1,.578-1.316,3.363,3.363,0,0,1,1.3-.891,4.215,4.215,0,0,1,1.648-.3,2.8,2.8,0,0,1,2.055.8,2.484,2.484,0,0,1,.617,2.043l-.687,4.188-.039.6a2.949,2.949,0,0,0,.094.852l-.016.133Zm-2.219-1.094a2.466,2.466,0,0,0,1.285-.324,3.254,3.254,0,0,0,1.043-.941l.3-1.742-1.07-.008a4.054,4.054,0,0,0-2.047.422,1.554,1.554,0,0,0-.8,1.2,1.21,1.21,0,0,0,.277.988A1.321,1.321,0,0,0,118.406,13.906Zm13.242-3.094a6.586,6.586,0,0,1-.711,2.336,3.982,3.982,0,0,1-1.344,1.539,3.058,3.058,0,0,1-1.75.477,2.61,2.61,0,0,1-2.273-1.148l-.289.984h-1.3l2.086-12h1.414l-.852,4.484a3.107,3.107,0,0,1,2.469-1.094,2.358,2.358,0,0,1,1.9.9,3.954,3.954,0,0,1,.719,2.391,7.364,7.364,0,0,1-.047.969ZM130.3,10a3.009,3.009,0,0,0-.383-1.744,1.465,1.465,0,0,0-1.242-.636,2.574,2.574,0,0,0-2.234,1.327l-.633,3.675a1.8,1.8,0,0,0,1.758,1.319,2.054,2.054,0,0,0,1.449-.492,3.212,3.212,0,0,0,.941-1.463A6.578,6.578,0,0,0,130.3,10Zm3.992,5h-1.406l2.078-12h1.414Zm5.969.156a3.048,3.048,0,0,1-2.469-1.164,4.006,4.006,0,0,1-.75-2.9l.039-.336a5.624,5.624,0,0,1,.746-2.3,4.339,4.339,0,0,1,1.5-1.566,3.491,3.491,0,0,1,1.906-.5,2.688,2.688,0,0,1,2.047.867,3.566,3.566,0,0,1,.813,2.266,6.621,6.621,0,0,1-.031,1.016l-.086.648h-5.523a2.855,2.855,0,0,0,.379,1.953,1.8,1.8,0,0,0,1.551.836,3.007,3.007,0,0,0,2.313-1.125l.813.688a3.718,3.718,0,0,1-1.371,1.2A3.886,3.886,0,0,1,140.266,15.156Zm.9-7.586a2.066,2.066,0,0,0-1.527.594A4.22,4.22,0,0,0,138.6,10l4.109.008.031-.125a2.313,2.313,0,0,0-.316-1.637A1.488,1.488,0,0,0,141.164,7.57Zm12.359-1.18a3.047,3.047,0,0,1,1.82.578,3.285,3.285,0,0,1,1.121,1.551,4.8,4.8,0,0,1,.246,2.16l-.016.172a5.685,5.685,0,0,1-.734,2.23,4.309,4.309,0,0,1-1.516,1.551,3.7,3.7,0,0,1-2.039.523,3.052,3.052,0,0,1-1.816-.578,3.21,3.21,0,0,1-1.113-1.531,4.931,4.931,0,0,1-.25-2.133,5.76,5.76,0,0,1,.711-2.359,4.409,4.409,0,0,1,1.527-1.621A3.652,3.652,0,0,1,153.523,6.391Zm-2.875,4.531a4.8,4.8,0,0,0,0,1.023,2.507,2.507,0,0,0,.551,1.469,1.653,1.653,0,0,0,1.262.57,2.253,2.253,0,0,0,1.3-.348,2.919,2.919,0,0,0,1-1.121,4.721,4.721,0,0,0,.523-1.664,7.493,7.493,0,0,0,.023-1.211,2.6,2.6,0,0,0-.57-1.492,1.69,1.69,0,0,0-1.266-.578,2.3,2.3,0,0,0-1.859.859,4.245,4.245,0,0,0-.945,2.313Zm9.914-4.383-.2,1.07a3.333,3.333,0,0,1,2.594-1.219,2.1,2.1,0,0,1,1.766.828,3.217,3.217,0,0,1,.422,2.242L164.219,15H162.8l.93-5.557a2.962,2.962,0,0,0,.008-.71,1.168,1.168,0,0,0-1.289-1.116,2.661,2.661,0,0,0-2.234,1.358L159.172,15h-1.414l1.469-8.453Zm13,4.953-.031,1.375.531-1.344,3.4-7.9H178.7l.9,8,.078,1.3.492-1.57,2.906-7.727h1.508L180.133,15H178.8l-.984-8.352-.031-.781-.328.906L173.828,15h-1.336L171.6,3.625h1.43Zm14.016,3.664a3.048,3.048,0,0,1-2.469-1.164,4.006,4.006,0,0,1-.75-2.9l.039-.336a5.624,5.624,0,0,1,.746-2.3,4.339,4.339,0,0,1,1.5-1.566,3.491,3.491,0,0,1,1.906-.5,2.688,2.688,0,0,1,2.047.867,3.566,3.566,0,0,1,.813,2.266,6.621,6.621,0,0,1-.031,1.016l-.086.648h-5.523a2.855,2.855,0,0,0,.379,1.953,1.8,1.8,0,0,0,1.551.836,3.007,3.007,0,0,0,2.313-1.125l.813.688a3.718,3.718,0,0,1-1.371,1.2A3.886,3.886,0,0,1,187.578,15.156Zm.9-7.586a2.066,2.066,0,0,0-1.527.594A4.22,4.22,0,0,0,185.914,10l4.109.008.031-.125a2.313,2.313,0,0,0-.316-1.637A1.488,1.488,0,0,0,188.477,7.57ZM197.391,15a1.894,1.894,0,0,1-.055-.445l.023-.445a3.465,3.465,0,0,1-2.469,1.047,2.526,2.526,0,0,1-1.816-.707,2.14,2.14,0,0,1-.637-1.73,2.6,2.6,0,0,1,1.176-2.1,5.005,5.005,0,0,1,2.887-.754l1.477.008.094-.672a1.545,1.545,0,0,0-.293-1.2,1.414,1.414,0,0,0-1.113-.457,2.181,2.181,0,0,0-1.285.355,1.513,1.513,0,0,0-.684.98l-1.422.008a2.266,2.266,0,0,1,.578-1.316,3.363,3.363,0,0,1,1.3-.891,4.215,4.215,0,0,1,1.648-.3,2.8,2.8,0,0,1,2.055.8,2.484,2.484,0,0,1,.617,2.043l-.687,4.188-.039.6a2.949,2.949,0,0,0,.094.852l-.016.133Zm-2.219-1.094a2.466,2.466,0,0,0,1.285-.324,3.254,3.254,0,0,0,1.043-.941l.3-1.742-1.07-.008a4.054,4.054,0,0,0-2.047.422,1.554,1.554,0,0,0-.8,1.2,1.21,1.21,0,0,0,.277.988A1.321,1.321,0,0,0,195.172,13.906Zm8.6-2.8-1.109.992-.5,2.906H200.75l2.086-12h1.414L203,10.172l.867-.875,3-2.75H208.7l-3.883,3.6L207.492,15h-1.547Zm9.055,3.9L214.8,3.625l3.336.008a3.793,3.793,0,0,1,2.609.781,2.5,2.5,0,0,1,.758,2.18,2.957,2.957,0,0,1-2.055,2.461A2.117,2.117,0,0,1,220.6,10.07a2.839,2.839,0,0,1,.309,1.586,3.318,3.318,0,0,1-1.234,2.441,4.456,4.456,0,0,1-2.891.9Zm2.391-5.32-.711,4.086,2.32.008a2.78,2.78,0,0,0,1.781-.569,2.218,2.218,0,0,0,.836-1.536,1.821,1.821,0,0,0-.32-1.435,1.745,1.745,0,0,0-1.352-.546Zm.211-1.2,2.117.008a2.727,2.727,0,0,0,1.676-.509,2,2,0,0,0,.8-1.4,1.431,1.431,0,0,0-.324-1.253,2.075,2.075,0,0,0-1.41-.462l-2.234-.008Zm10.578,6.68a3.048,3.048,0,0,1-2.469-1.164,4.006,4.006,0,0,1-.75-2.9l.039-.336a5.624,5.624,0,0,1,.746-2.3,4.339,4.339,0,0,1,1.5-1.566,3.491,3.491,0,0,1,1.906-.5,2.688,2.688,0,0,1,2.047.867,3.566,3.566,0,0,1,.813,2.266,6.621,6.621,0,0,1-.031,1.016l-.086.648H224.2a2.855,2.855,0,0,0,.379,1.953,1.8,1.8,0,0,0,1.551.836,3.007,3.007,0,0,0,2.313-1.125l.813.688a3.718,3.718,0,0,1-1.371,1.2A3.886,3.886,0,0,1,226.008,15.156Zm.9-7.586a2.066,2.066,0,0,0-1.527.594A4.22,4.22,0,0,0,224.344,10l4.109.008.031-.125a2.313,2.313,0,0,0-.316-1.637A1.488,1.488,0,0,0,226.906,7.57ZM235.82,15a1.894,1.894,0,0,1-.055-.445l.023-.445a3.465,3.465,0,0,1-2.469,1.047,2.526,2.526,0,0,1-1.816-.707,2.14,2.14,0,0,1-.637-1.73,2.6,2.6,0,0,1,1.176-2.1,5.005,5.005,0,0,1,2.887-.754l1.477.008L236.5,9.2a1.545,1.545,0,0,0-.293-1.2,1.414,1.414,0,0,0-1.113-.457,2.181,2.181,0,0,0-1.285.355,1.513,1.513,0,0,0-.684.98l-1.422.008a2.266,2.266,0,0,1,.578-1.316,3.363,3.363,0,0,1,1.3-.891,4.215,4.215,0,0,1,1.648-.3,2.8,2.8,0,0,1,2.055.8,2.484,2.484,0,0,1,.617,2.043l-.687,4.188-.039.6a2.949,2.949,0,0,0,.094.852l-.016.133ZM233.6,13.906a2.466,2.466,0,0,0,1.285-.324,3.254,3.254,0,0,0,1.043-.941l.3-1.742-1.07-.008a4.054,4.054,0,0,0-2.047.422,1.554,1.554,0,0,0-.8,1.2,1.21,1.21,0,0,0,.277.988A1.321,1.321,0,0,0,233.6,13.906Zm9.3-9.406-.359,2.047h1.539l-.2,1.117h-1.531l-.883,5.258a1.833,1.833,0,0,0-.008.375.6.6,0,0,0,.664.609,4.05,4.05,0,0,0,.688-.078l-.109,1.18a3.847,3.847,0,0,1-1.031.141,1.476,1.476,0,0,1-1.266-.621,2.4,2.4,0,0,1-.328-1.629l.859-5.234h-1.492l.2-1.117h1.492L241.5,4.5Z" transform="translate(378 6719)" fill="#3c3fa7"/>
      <line id="Line_1671-2" data-name="Line 1671" x2="285" transform="translate(377.5 6707.5)" fill="none" stroke="#1f1f1f" stroke-linecap="round" stroke-width="3"/>
      <line id="Line_1672-2" data-name="Line 1672" y2="20" transform="translate(408.237 6687.5)" fill="none" stroke="#fc5f65" stroke-linecap="round" stroke-width="3"/>
      <line id="Line_1673-2" data-name="Line 1673" y2="20" transform="translate(535.5 6687.5)" fill="none" stroke="#fc5f65" stroke-linecap="round" stroke-width="3"/>
      <line id="Line_1674-2" data-name="Line 1674" y2="20" transform="translate(662.5 6687.5)" fill="none" stroke="#fc5f65" stroke-linecap="round" stroke-width="3"/>
    </g>
  </g>
</svg>
