<svg xmlns="http://www.w3.org/2000/svg" xmlns:xlink="http://www.w3.org/1999/xlink" width="85" height="85" viewBox="0 0 85 85">
  <defs>
    <clipPath id="clip-path">
      <rect id="Rectangle_339717" data-name="Rectangle 339717" width="84" height="84" transform="translate(197 1095)" fill="#fff" stroke="#707070" stroke-width="1"/>
    </clipPath>
  </defs>
  <g id="_5" data-name="5" transform="translate(-180 -1087)">
    <circle id="Ellipse_4926" data-name="Ellipse 4926" cx="42.5" cy="42.5" r="42.5" transform="translate(180 1087)" fill="#fed947"/>
    <g id="Mask_Group_629" data-name="Mask Group 629" transform="translate(-16 -7)" clip-path="url(#clip-path)">
      <g id="discurso-de-burbuja" transform="translate(197 1099.475)">
        <path id="Path_213101" data-name="Path 213101" d="M43.075,21.682s-5.266-5.577-14.616-4.3S8.8,37,8.8,37,15.664,61.7,43.075,62.985C70.488,61.7,77.354,37,77.354,37S67.042,18.666,57.692,17.386s-14.616,4.3-14.616,4.3Zm0,0" transform="translate(5.414 10.833)" fill="#ff3d43"/>
        <path id="Path_213102" data-name="Path 213102" d="M43.075,50.4C22.256,49.429,13.29,34.944,10.181,28.031c-.882,1.4-1.383,2.3-1.383,2.3s6.867,24.709,34.278,25.99c27.412-1.281,34.278-25.99,34.278-25.99s-.5-.892-1.384-2.3c-3.108,6.913-12.075,21.4-32.895,22.371Zm0,0" transform="translate(5.414 17.502)" fill="#d72e2e"/>
        <path id="Path_213103" data-name="Path 213103" d="M36.329,35.336c-10.526,0-16.568-3.2-16.568-3.2,2.123-2.344,10.492-5.475,16.568-5.475S50.775,29.79,52.9,32.133C52.9,32.133,46.855,35.336,36.329,35.336Zm0,0" transform="translate(12.16 16.657)" fill="#67676b"/>
        <path id="Path_213104" data-name="Path 213104" d="M48.313,28.335a45.174,45.174,0,0,1-11.984,1.533,45.172,45.172,0,0,1-11.983-1.533A14.151,14.151,0,0,0,19.761,31.1s6.042,3.2,16.568,3.2S52.9,31.1,52.9,31.1a14.151,14.151,0,0,0-4.585-2.767Zm0,0" transform="translate(12.16 17.689)" fill="#545456"/>
        <path id="Path_213105" data-name="Path 213105" d="M36.325,32.041l0,0c4.51-3.286,7.36-8.122,7.36-13.513,0-9.9-9.609-17.926-21.462-17.926S.763,8.633.763,18.533s9.608,17.926,21.462,17.926a25.667,25.667,0,0,0,4.637-.42,23.752,23.752,0,0,0,10.67,4.215,1.455,1.455,0,0,0,1.425-2.085Zm0,0" transform="translate(0.469 0.625)" fill="#fff5cf"/>
        <path id="Path_213106" data-name="Path 213106" d="M28.994,32.041l0,0c4.51-3.286,7.36-8.122,7.36-13.513,0-9.9-9.609-17.926-21.462-17.926q-1.123,0-2.218.095c10.811.927,19.245,8.556,19.245,17.831,0,5.391-2.85,10.227-7.36,13.513l0,0,2.632,6.127a1.568,1.568,0,0,1-.092,1.419,27.763,27.763,0,0,0,3.1.667,1.456,1.456,0,0,0,1.425-2.086Zm0,0" transform="translate(7.8 0.625)" fill="#ffeca1"/>
        <path id="Path_213107" data-name="Path 213107" d="M56.351,30.976a25.172,25.172,0,0,0-6.433-3.155A32.984,32.984,0,0,0,39.748,25.9a34.616,34.616,0,0,0-15.1,4.112,5.221,5.221,0,0,0-.793.485c-.272.177-.528.377-.8.544-.567.342-1.148.66-1.746.945A9.135,9.135,0,0,1,15.7,33.1a1.233,1.233,0,0,0-.528,2.408,7.417,7.417,0,0,0,1.586.165A14.268,14.268,0,0,0,23,33.886a28.44,28.44,0,0,0,4.178,1.5,46.51,46.51,0,0,0,12.567,1.648A46.516,46.516,0,0,0,52.316,35.39a28.488,28.488,0,0,0,4.178-1.5,14.264,14.264,0,0,0,6.244,1.785,7.422,7.422,0,0,0,1.587-.165A1.233,1.233,0,0,0,63.8,33.1a9.131,9.131,0,0,1-5.6-1.116,20.608,20.608,0,0,1-1.844-1.005Zm-16.6,3.6A41.619,41.619,0,0,1,25.629,32.3c.094-.067.164-.118.2-.146A32.167,32.167,0,0,1,39.748,28.36a32.174,32.174,0,0,1,13.917,3.789c.038.029.108.079.2.147a41.619,41.619,0,0,1-14.12,2.277Zm0,0" transform="translate(8.741 16.187)"/>
        <path id="Path_213108" data-name="Path 213108" d="M72.676,34.6a74.98,74.98,0,0,0-10.51-14.123,1.232,1.232,0,0,0-1.746,1.739A72.827,72.827,0,0,1,70.264,35.35a38.5,38.5,0,0,1-6.478,11.589,34.8,34.8,0,0,1-10.14,8.573,36.955,36.955,0,0,1-16.323,4.445A36.624,36.624,0,0,1,20.012,54.94a1.232,1.232,0,1,0-1.269,2.113,39.086,39.086,0,0,0,18.524,5.369h.115a39.418,39.418,0,0,0,17.46-4.755A37.22,37.22,0,0,0,65.7,48.491,39.449,39.449,0,0,0,72.789,35.53a1.229,1.229,0,0,0-.113-.934Zm0,0" transform="translate(11.166 12.627)"/>
        <path id="Path_213109" data-name="Path 213109" d="M27.28,64.679A38.6,38.6,0,0,1,15.55,47.82a80.615,80.615,0,0,1,6.722-9.663c.14,0,.281,0,.422,0a26.938,26.938,0,0,0,4.328-.347,25.927,25.927,0,0,0,10.789,4.127,2.5,2.5,0,0,0,2.393-.972,2.793,2.793,0,0,0,.354-2.817l-2.25-5.24a20.413,20.413,0,0,0,3.148-3.127A15.022,15.022,0,0,1,47.594,33.2a1.231,1.231,0,0,0,.893.385h0a1.236,1.236,0,0,0,.892-.381c.2-.208,4.992-5.1,13.556-3.925A11.754,11.754,0,0,1,68,31.58a1.232,1.232,0,0,0,1.438-2,14.117,14.117,0,0,0-6.169-2.738A19.021,19.021,0,0,0,48.487,30.7a18.114,18.114,0,0,0-5.551-3.032A16.784,16.784,0,0,0,45.388,19C45.388,8.439,35.208-.156,22.694-.156A24.239,24.239,0,0,0,4.724,7.293,1.232,1.232,0,1,0,6.542,8.957,21.775,21.775,0,0,1,22.694,2.309C33.849,2.309,42.924,9.8,42.924,19a15.6,15.6,0,0,1-6.763,12.451,1.232,1.232,0,0,0-.5,1.543l2.632,6.127a.334.334,0,0,1-.008.287c-.033.064-.074.093-.1.094a25.182,25.182,0,0,1-7.722-2.5,25.088,25.088,0,0,0,2.541-.935,1.232,1.232,0,1,0-.975-2.263A23.785,23.785,0,0,1,22.694,35.7C11.539,35.7,2.464,28.208,2.464,19A14.089,14.089,0,0,1,3.949,12.72a1.232,1.232,0,1,0-2.21-1.091A16.531,16.531,0,0,0,0,19c0,9.586,8.383,17.55,19.286,18.942a81.291,81.291,0,0,0-6.148,9.123,1.229,1.229,0,0,0-.113.934,40.11,40.11,0,0,0,12.7,18.592,1.232,1.232,0,1,0,1.552-1.914Zm0,0" transform="translate(0 0.156)"/>
        <path id="Path_213110" data-name="Path 213110" d="M8.269,11.031H29.681a1.232,1.232,0,1,0,0-2.464H8.269a1.232,1.232,0,1,0,0,2.464Zm0,0" transform="translate(4.33 5.523)"/>
        <path id="Path_213111" data-name="Path 213111" d="M8.269,15.841H20.6a1.232,1.232,0,1,0,0-2.464H8.269a1.232,1.232,0,1,0,0,2.464Zm0,0" transform="translate(4.33 8.484)"/>
      </g>
    </g>
  </g>
</svg>
