<svg xmlns="http://www.w3.org/2000/svg" xmlns:xlink="http://www.w3.org/1999/xlink" width="85" height="85" viewBox="0 0 85 85">
  <defs>
    <clipPath id="clip-path">
      <rect id="Rectangle_339720" data-name="Rectangle 339720" width="84" height="84" transform="translate(601 1079)" fill="#fff" stroke="#707070" stroke-width="1"/>
    </clipPath>
  </defs>
  <g id="_6" data-name="6" transform="translate(-600 -1087)">
    <circle id="Ellipse_4928" data-name="Ellipse 4928" cx="42.5" cy="42.5" r="42.5" transform="translate(600 1087)" fill="#fed947"/>
    <g id="Mask_Group_630" data-name="Mask Group 630" transform="translate(0 9)" clip-path="url(#clip-path)">
      <g id="chisme" transform="translate(601 1079)">
        <g id="Group_985296" data-name="Group 985296">
          <g id="Group_985292" data-name="Group 985292">
            <path id="Path_213112" data-name="Path 213112" d="M41.657,69.588c-9.086-3.962-35.362,0-35.362,0L21.12,79.2A22.2,22.2,0,0,0,33.2,82.77H49.974a22.205,22.205,0,0,0,12-3.519l15.049-9.662S50.743,65.626,41.657,69.588Z" fill="#e759aa"/>
            <path id="Path_213113" data-name="Path 213113" d="M63.025,68.12c3.2.834,5.271,1.467,5.271,1.467L53.246,79.25a22.205,22.205,0,0,1-12,3.519h8.724a22.205,22.205,0,0,0,12-3.519l15.049-9.662S70.608,68.621,63.025,68.12Z" fill="#e03d9c"/>
            <path id="Path_213114" data-name="Path 213114" d="M49.96,58.731,77.019,69.588c-3.073-7.9-15.086-25.03-25.862-25.025a14.023,14.023,0,0,0-9.5,3.592,14.022,14.022,0,0,0-9.5-3.592C21.382,44.558,9.368,61.688,6.3,69.588L33.355,58.731S41.621,62.123,49.96,58.731Z" fill="#e759aa"/>
            <g id="Group_985291" data-name="Group 985291">
              <path id="Path_213115" data-name="Path 213115" d="M66.205,65.249l10.814,4.339c-3.073-7.9-15.086-25.03-25.862-25.025a14.453,14.453,0,0,0-4.627.756C54.356,48.1,62.161,57.971,66.205,65.249Z" fill="#e03d9c"/>
              <path id="Path_213116" data-name="Path 213116" d="M23.547,59.166,8.386,65.249A36.327,36.327,0,0,0,6.3,69.588L33.355,58.731H25.8A6.043,6.043,0,0,0,23.547,59.166Z" fill="#e03d9c"/>
            </g>
          </g>
          <g id="Group_985293" data-name="Group 985293">
            <path id="Path_213117" data-name="Path 213117" d="M75.876,33.132H51.1l-3.928,6.383a1.227,1.227,0,0,1-2.273-.643V16.526a2.982,2.982,0,0,1,2.982-2.982H75.876a2.982,2.982,0,0,1,2.982,2.982V30.15A2.982,2.982,0,0,1,75.876,33.132Z" fill="#eaf9fa"/>
          </g>
          <g id="Group_985294" data-name="Group 985294">
            <path id="Path_213118" data-name="Path 213118" d="M47.077,33.848,44.9,37.379v1.492a1.227,1.227,0,0,0,2.273.643L51.1,33.132H48.358A1.5,1.5,0,0,0,47.077,33.848Z" fill="#c9eff2"/>
            <path id="Path_213119" data-name="Path 213119" d="M75.876,13.544H71.633a2.982,2.982,0,0,1,2.982,2.982V30.15a2.982,2.982,0,0,1-2.982,2.982h4.243a2.982,2.982,0,0,0,2.982-2.982V16.526A2.982,2.982,0,0,0,75.876,13.544Z" fill="#c9eff2"/>
          </g>
          <g id="Group_985295" data-name="Group 985295">
            <path id="Path_213120" data-name="Path 213120" d="M8.124,20.819H32.9L36.823,27.2a1.227,1.227,0,0,0,2.273-.643V4.213A2.982,2.982,0,0,0,36.114,1.23H8.124A2.982,2.982,0,0,0,5.142,4.213V17.836A2.982,2.982,0,0,0,8.124,20.819Z" fill="#eaf9fa"/>
          </g>
          <path id="Path_213121" data-name="Path 213121" d="M36.114,1.23H31.87a2.982,2.982,0,0,1,2.982,2.982V24l1.971,3.2a1.227,1.227,0,0,0,2.273-.643V4.213A2.982,2.982,0,0,0,36.114,1.23Z" fill="#c9eff2"/>
        </g>
        <g id="Group_985302" data-name="Group 985302">
          <g id="Group_985297" data-name="Group 985297">
            <path id="Path_213122" data-name="Path 213122" d="M41.657,69.588c-9.086-3.962-35.362,0-35.362,0L21.12,79.2A22.2,22.2,0,0,0,33.2,82.77H49.974a22.205,22.205,0,0,0,12-3.519l15.049-9.662S50.743,65.626,41.657,69.588Z" fill="none" stroke="#000" stroke-linecap="round" stroke-linejoin="round" stroke-miterlimit="10" stroke-width="2.461"/>
            <path id="Path_213123" data-name="Path 213123" d="M33.355,58.731s8.266,3.392,16.605,0L77.019,69.588c-3.073-7.9-15.086-25.03-25.862-25.025a14.023,14.023,0,0,0-9.5,3.592,14.022,14.022,0,0,0-9.5-3.592C21.382,44.558,9.368,61.688,6.3,69.588l21.7-8.705" fill="none" stroke="#000" stroke-linecap="round" stroke-linejoin="round" stroke-miterlimit="10" stroke-width="2.461"/>
          </g>
          <g id="Group_985299" data-name="Group 985299">
            <path id="Path_213124" data-name="Path 213124" d="M69.631,13.544h6.245a2.982,2.982,0,0,1,2.982,2.982V30.15a2.982,2.982,0,0,1-2.982,2.982H51.1l-3.928,6.383a1.227,1.227,0,0,1-2.273-.643V16.526a2.982,2.982,0,0,1,2.982-2.982H63.879" fill="none" stroke="#000" stroke-linecap="round" stroke-linejoin="round" stroke-miterlimit="10" stroke-width="2.461"/>
            <g id="Group_985298" data-name="Group 985298">
              <line id="Line_1661" data-name="Line 1661" transform="translate(57.07 23.553)" fill="none" stroke="#000" stroke-linecap="round" stroke-linejoin="round" stroke-miterlimit="10" stroke-width="2.461"/>
              <line id="Line_1662" data-name="Line 1662" transform="translate(61.915 23.553)" fill="none" stroke="#000" stroke-linecap="round" stroke-linejoin="round" stroke-miterlimit="10" stroke-width="2.461"/>
              <line id="Line_1663" data-name="Line 1663" transform="translate(66.759 23.553)" fill="none" stroke="#000" stroke-linecap="round" stroke-linejoin="round" stroke-miterlimit="10" stroke-width="2.461"/>
            </g>
          </g>
          <g id="Group_985301" data-name="Group 985301">
            <path id="Path_213125" data-name="Path 213125" d="M8.124,20.819H32.9L36.823,27.2a1.227,1.227,0,0,0,2.273-.643V4.213A2.982,2.982,0,0,0,36.114,1.23H8.124A2.982,2.982,0,0,0,5.142,4.213V17.836A2.982,2.982,0,0,0,8.124,20.819Z" fill="none" stroke="#000" stroke-linecap="round" stroke-linejoin="round" stroke-miterlimit="10" stroke-width="2.461"/>
            <g id="Group_985300" data-name="Group 985300">
              <line id="Line_1664" data-name="Line 1664" transform="translate(26.929 11.24)" fill="none" stroke="#000" stroke-linecap="round" stroke-linejoin="round" stroke-miterlimit="10" stroke-width="2.461"/>
              <line id="Line_1665" data-name="Line 1665" transform="translate(22.085 11.24)" fill="none" stroke="#000" stroke-linecap="round" stroke-linejoin="round" stroke-miterlimit="10" stroke-width="2.461"/>
              <line id="Line_1666" data-name="Line 1666" transform="translate(17.241 11.24)" fill="none" stroke="#000" stroke-linecap="round" stroke-linejoin="round" stroke-miterlimit="10" stroke-width="2.461"/>
            </g>
          </g>
        </g>
      </g>
    </g>
  </g>
</svg>
