<svg xmlns="http://www.w3.org/2000/svg" xmlns:xlink="http://www.w3.org/1999/xlink" width="85" height="85" viewBox="0 0 85 85">
  <defs>
    <clipPath id="clip-path">
      <rect id="Rectangle_339719" data-name="Rectangle 339719" width="84" height="84" transform="translate(601 1179)" fill="#fff" stroke="#707070" stroke-width="1"/>
    </clipPath>
  </defs>
  <g id="_8" data-name="8" transform="translate(-600 -1207)">
    <circle id="Ellipse_4929" data-name="Ellipse 4929" cx="42.5" cy="42.5" r="42.5" transform="translate(600 1207)" fill="#fed947"/>
    <g id="Mask_Group_632" data-name="Mask Group 632" transform="translate(0 29)" clip-path="url(#clip-path)">
      <g id="conversacion" transform="translate(601 1179)">
        <path id="Path_213141" data-name="Path 213141" d="M29.531,50.67V66.1A12.817,12.817,0,0,1,11.41,77.764v0a12.817,12.817,0,0,1-7.379-9.9,4.132,4.132,0,1,1,4.285-6.822L9.392,54.87l.734-4.2h19.4Z" fill="#fcd2be"/>
        <path id="Path_213142" data-name="Path 213142" d="M11.409,77.762a12.817,12.817,0,0,1-7.379-9.9,4.132,4.132,0,1,1,4.285-6.822L9.392,54.87l3.372.685C11.346,58.006,5.357,66.954,11.409,77.762Z" fill="#fab998"/>
        <path id="Path_213143" data-name="Path 213143" d="M35.52,44.425a11.13,11.13,0,0,1-11.13,11.13H12.765v1.033a4.449,4.449,0,0,1-4.45,4.448,4.133,4.133,0,0,0-4.4-.935V55.555a11.131,11.131,0,0,1,11.13-11.13H35.52Z" fill="#f9ce55"/>
        <path id="Path_213144" data-name="Path 213144" d="M24.125,44.425H15.041a11.131,11.131,0,0,0-11.13,11.13V60.1a4.133,4.133,0,0,1,4.4.935,4.449,4.449,0,0,0,4.45-4.448V55.555h.23A11.131,11.131,0,0,1,24.125,44.425Z" fill="#e2a11e"/>
        <path id="Path_213145" data-name="Path 213145" d="M42.988,10.543h-31.6a3.628,3.628,0,0,0-3.628,3.628V30.129a3.628,3.628,0,0,0,3.628,3.628h17.82v6.561l5.851-6.561h7.931a3.628,3.628,0,0,0,3.628-3.628V14.171A3.628,3.628,0,0,0,42.988,10.543Z" fill="#3facc9"/>
        <path id="Path_213146" data-name="Path 213146" d="M43.443,2.469h31.6A3.628,3.628,0,0,1,78.673,6.1V22.055a3.628,3.628,0,0,1-3.628,3.628H57.225v6.561l-5.851-6.561H43.443a3.628,3.628,0,0,1-3.628-3.628V6.1A3.628,3.628,0,0,1,43.443,2.469Z" fill="#00c7a9"/>
        <path id="Path_213147" data-name="Path 213147" d="M77.271,81.53l-.064-.027A11.562,11.562,0,0,1,70.648,70.9L51.26,51.743c-.908-3.361-.629-9.266,7.717-9.945q.78-.066,1.655-.066c9.961,0,19.735.8,21.8,15.462C83.817,67,80.222,76.533,77.271,81.53Z" fill="#6b4b3d"/>
        <path id="Path_213148" data-name="Path 213148" d="M77.271,81.53l-.064-.027a.022.022,0,0,0,0-.01c3.365-28.6-9.589-39.7-18.232-39.7q.78-.066,1.655-.066c9.961,0,19.735.8,21.8,15.462C83.817,67,80.222,76.533,77.271,81.53Z" fill="#5b3d2d"/>
        <path id="Path_213149" data-name="Path 213149" d="M76.217,62.431a3.818,3.818,0,0,1-1.438.906,11.816,11.816,0,0,1-23.52-1.62V51.743s5.238.188,7.306-1.88a10.671,10.671,0,0,0,9.488,4.27v0a11.213,11.213,0,0,0,2.774-.509v3.423l0,0a3.81,3.81,0,0,1,5.389,5.388Z" fill="#fcd2be"/>
        <path id="Path_213150" data-name="Path 213150" d="M76.217,62.431a3.818,3.818,0,0,1-1.438.906,11.82,11.82,0,0,1-8.9,9.86c6.136-3.366,2.231-18.855,2.178-19.064v0a11.213,11.213,0,0,0,2.774-.509v3.423l0,0a3.81,3.81,0,0,1,5.388,5.388Z" fill="#fab998"/>
        <path id="Path_213151" data-name="Path 213151" d="M19.86,63.111V60.992a1.262,1.262,0,1,0-2.523,0v2.119a1.262,1.262,0,1,0,2.523,0Z"/>
        <path id="Path_213152" data-name="Path 213152" d="M22.845,60.992v2.119a1.262,1.262,0,0,0,2.523,0V60.992a1.262,1.262,0,0,0-2.523,0Z"/>
        <path id="Path_213153" data-name="Path 213153" d="M15.032,69.079a1.262,1.262,0,0,0-2.191,1.252,7.265,7.265,0,0,0,6.272,3.61l.068,0a1.262,1.262,0,0,0,.066-2.521A4.8,4.8,0,0,1,15.032,69.079Z"/>
        <path id="Path_213154" data-name="Path 213154" d="M35.519,43.164H15.041A12.405,12.405,0,0,0,2.65,55.555a1.262,1.262,0,1,0,2.523,0,9.879,9.879,0,0,1,9.868-9.868H34.177a9.883,9.883,0,0,1-9.787,8.606H12.764A1.262,1.262,0,0,0,11.5,55.555v1.033a3.192,3.192,0,0,1-2.743,3.157,5.4,5.4,0,0,0-5.3-.822A5.4,5.4,0,0,0,2.9,68.74a14.073,14.073,0,0,0,27.9-2.636V58.9a1.262,1.262,0,0,0-2.523,0v7.2A11.549,11.549,0,0,1,5.281,67.689a1.262,1.262,0,0,0-.832-1.019,2.87,2.87,0,0,1-1.085-4.74,2.833,2.833,0,0,1,1-.652,2.874,2.874,0,0,1,3.053.644,1.262,1.262,0,0,0,.96.376,5.718,5.718,0,0,0,5.646-5.481H24.39A12.405,12.405,0,0,0,36.781,44.426,1.262,1.262,0,0,0,35.519,43.164Z"/>
        <path id="Path_213155" data-name="Path 213155" d="M46.616,28.867a1.262,1.262,0,0,0-1.262,1.262A2.369,2.369,0,0,1,42.988,32.5H35.057a1.262,1.262,0,0,0-.942.422l-3.648,4.09v-3.25A1.262,1.262,0,0,0,29.206,32.5H11.386a2.369,2.369,0,0,1-2.366-2.366V14.171A2.369,2.369,0,0,1,11.386,11.8H35.513a1.262,1.262,0,1,0,0-2.523H11.386a4.9,4.9,0,0,0-4.89,4.89V30.129a4.9,4.9,0,0,0,4.89,4.89H27.944v5.3a1.262,1.262,0,0,0,2.2.84l5.475-6.139h7.366a4.9,4.9,0,0,0,4.89-4.89A1.262,1.262,0,0,0,46.616,28.867Z"/>
        <path id="Path_213156" data-name="Path 213156" d="M43.443,26.945h7.366l5.475,6.139a1.262,1.262,0,0,0,2.2-.84v-5.3H75.045a4.9,4.9,0,0,0,4.89-4.89V6.1a4.9,4.9,0,0,0-4.89-4.89H72.176a1.262,1.262,0,1,0,0,2.523h2.869A2.369,2.369,0,0,1,77.411,6.1V22.055a2.369,2.369,0,0,1-2.366,2.366H57.225a1.262,1.262,0,0,0-1.262,1.262v3.25l-3.648-4.09a1.263,1.263,0,0,0-.942-.422H43.443a2.369,2.369,0,0,1-2.366-2.366V6.1a2.369,2.369,0,0,1,2.366-2.366h24.7a1.262,1.262,0,1,0,0-2.523h-24.7a4.9,4.9,0,0,0-4.89,4.89V22.055A4.9,4.9,0,0,0,43.443,26.945Z"/>
        <path id="Path_213157" data-name="Path 213157" d="M72.113,7.6H57.887a1.262,1.262,0,1,0,0,2.523H72.113a1.262,1.262,0,0,0,0-2.523Z"/>
        <path id="Path_213158" data-name="Path 213158" d="M46.375,10.123h7.306a1.262,1.262,0,1,0,0-2.523H46.375a1.262,1.262,0,0,0,0,2.523Z"/>
        <path id="Path_213159" data-name="Path 213159" d="M72.113,12.772H67.728a1.262,1.262,0,0,0,0,2.523h4.385a1.262,1.262,0,0,0,0-2.523Z"/>
        <path id="Path_213160" data-name="Path 213160" d="M46.375,15.3H63.522a1.262,1.262,0,0,0,0-2.523H46.375a1.262,1.262,0,0,0,0,2.523Z"/>
        <path id="Path_213161" data-name="Path 213161" d="M46.375,20.468h17.9a1.262,1.262,0,0,0,0-2.523h-17.9a1.262,1.262,0,0,0,0,2.523Z"/>
        <path id="Path_213162" data-name="Path 213162" d="M13.909,17.693h7.306a1.262,1.262,0,1,0,0-2.523H13.909a1.262,1.262,0,0,0,0,2.523Z"/>
        <path id="Path_213163" data-name="Path 213163" d="M33.579,17.693a1.262,1.262,0,1,0,0-2.523H26.273a1.262,1.262,0,1,0,0,2.523Z"/>
        <path id="Path_213164" data-name="Path 213164" d="M13.909,20.342a1.262,1.262,0,0,0,0,2.523H36.018a1.262,1.262,0,0,0,0-2.523Z"/>
        <path id="Path_213165" data-name="Path 213165" d="M21.72,25.515a1.262,1.262,0,0,0,0,2.523H31.813a1.262,1.262,0,0,0,0-2.523Z"/>
        <path id="Path_213166" data-name="Path 213166" d="M13.909,25.515a1.262,1.262,0,0,0,0,2.523h3.6a1.262,1.262,0,0,0,0-2.523Z"/>
        <path id="Path_213167" data-name="Path 213167" d="M62.606,58.956V57a1.262,1.262,0,0,0-2.523,0v1.954a1.262,1.262,0,0,0,2.523,0Z"/>
        <path id="Path_213168" data-name="Path 213168" d="M57.525,58.956V57A1.262,1.262,0,1,0,55,57v1.954a1.262,1.262,0,0,0,2.523,0Z"/>
        <path id="Path_213169" data-name="Path 213169" d="M59.547,67.85a1.261,1.261,0,0,0,1.259,1.194l.068,0a6.794,6.794,0,0,0,5.864-3.379,1.262,1.262,0,1,0-2.191-1.252,4.332,4.332,0,0,1-3.808,2.111A1.262,1.262,0,0,0,59.547,67.85Z"/>
        <path id="Path_213170" data-name="Path 213170" d="M83.683,57.017c-.8-5.669-2.747-9.731-5.953-12.415a1.262,1.262,0,0,0-1.62,1.935c2.706,2.266,4.366,5.809,5.074,10.833,1.186,8.406-1.4,16.909-4.406,22.467a10.309,10.309,0,0,1-4.374-5.578A1.262,1.262,0,1,0,70,75.017,12.845,12.845,0,0,0,76.79,82.7a1.261,1.261,0,0,0,1.567-.525C81.82,76.307,85.037,66.619,83.683,57.017Z"/>
        <path id="Path_213171" data-name="Path 213171" d="M75.913,64.213a5.073,5.073,0,0,0-3.825-9.34V53.621A1.262,1.262,0,0,0,70.4,52.433c-.065.023-6.528,2.256-10.837-3.341a1.262,1.262,0,0,0-1.892-.123c-1.024,1.024-3.545,1.438-5.4,1.507a6.222,6.222,0,0,1,.98-4.908c1.309-1.71,3.792-2.577,7.379-2.577,4.112,0,8.425.117,11.985,1.509a1.262,1.262,0,0,0,.919-2.35c-3.969-1.553-8.551-1.682-12.9-1.682-4.414,0-7.571,1.2-9.383,3.566-2.254,2.944-1.595,6.6-1.207,8.036A1.262,1.262,0,0,0,51.214,53c.513.018,4.535.109,7.152-1.421a11.753,11.753,0,0,0,8.1,3.816,13.857,13.857,0,0,0,3.1-.177v1.823a1.262,1.262,0,0,0,2.158.889,2.554,2.554,0,0,1,2.718-.574,2.548,2.548,0,0,1,.884,4.18,2.545,2.545,0,0,1-.964.608,1.262,1.262,0,0,0-.832,1.019,10.554,10.554,0,0,1-21.008-1.449v-5.7a1.262,1.262,0,0,0-2.523,0v5.7a13.078,13.078,0,0,0,25.915,2.5Z"/>
      </g>
    </g>
  </g>
</svg>
