<svg xmlns="http://www.w3.org/2000/svg" xmlns:xlink="http://www.w3.org/1999/xlink" width="505" height="253.745" viewBox="0 0 505 253.745">
  <defs>
    <clipPath id="clip-path">
      <rect id="Rectangle_339469" data-name="Rectangle 339469" width="400" height="246.373" fill="none"/>
    </clipPath>
    <clipPath id="clip-path-2">
      <path id="Path_212019" data-name="Path 212019" d="M305.867,177.09a4.424,4.424,0,0,0,4.666,4.169,4.94,4.94,0,0,0,4.982-4.279Z" transform="translate(-305.867 -176.98)" fill="none"/>
    </clipPath>
    <clipPath id="clip-path-3">
      <rect id="Rectangle_339470" data-name="Rectangle 339470" width="13.353" height="13.645" fill="none"/>
    </clipPath>
    <clipPath id="clip-path-4">
      <rect id="Rectangle_339471" data-name="Rectangle 339471" width="11.443" height="13.103" fill="none"/>
    </clipPath>
    <clipPath id="clip-path-9">
      <path id="Path_212108" data-name="Path 212108" d="M529.942,165.673a4.056,4.056,0,0,0,4.413-3.721l-8.6-.326a4,4,0,0,0,4.184,4.047" transform="translate(-525.758 -161.626)" fill="none"/>
    </clipPath>
  </defs>
  <g id="_2" data-name="2" transform="translate(-915 -6951)">
    <rect id="Rectangle_339544" data-name="Rectangle 339544" width="353" height="224" rx="16" transform="translate(1067 6951)" fill="#ffe891"/>
    <rect id="Rectangle_339543" data-name="Rectangle 339543" width="248" height="142" rx="16" transform="translate(915 7015)" fill="#a6bbff"/>
    <g id="Group_984445" data-name="Group 984445" transform="translate(14)">
      <g id="Group_984314" data-name="Group 984314" transform="translate(944 6958.372)" clip-path="url(#clip-path)">
        <path id="Path_212005" data-name="Path 212005" d="M248.629,152.168s1.427,8.765-.879,11.073c-4.4,4.4-17.917,6.452-10.787,25.285h62.189s3.078-7.5-3.869-11.858c0,0-2.418-1.688-.935-6.773s-2.213-8.7-6.748-14.129l-8.92-14.5Z" transform="translate(-92.648 -55.713)" fill="#f46eab"/>
        <path id="Path_212006" data-name="Path 212006" d="M257.4,143.924c0,11.2,9.511,20.275,21.244,20.275s21.244-9.077,21.244-20.275-9.511-20.275-21.244-20.275S257.4,132.726,257.4,143.924" transform="translate(-101.514 -48.764)" fill="#f46eab"/>
        <path id="Path_212007" data-name="Path 212007" d="M315.122,167.7a5.5,5.5,0,1,0,3.666-6.856,5.5,5.5,0,0,0-3.666,6.856" transform="translate(-124.182 -63.341)" fill="#f29b5f"/>
        <path id="Path_212008" data-name="Path 212008" d="M292.84,182.637l-.53,24.376-17.658-.987,3.6-35.875Z" transform="translate(-108.316 -67.103)" fill="#ffaf78"/>
        <path id="Path_212009" data-name="Path 212009" d="M298.981,196.715s-7.876-.812-8.215-9.778l8.358,4.422Z" transform="translate(-114.67 -73.723)" fill="#2f1a2a"/>
        <path id="Path_212010" data-name="Path 212010" d="M303.339,134.35a8.029,8.029,0,0,1,2.625,4.591c1.052,5.259,3.117,14.525,1.255,20.109-2.421,7.26-8.316,12.408-17.844,10.6,0,0-11.417-1.153-13.765-15.613-3.741-23.04,15.854-29.719,27.729-19.683" transform="translate(-108.509 -51.198)" fill="#ffaf78"/>
        <path id="Path_212011" data-name="Path 212011" d="M322.689,162.288a1.258,1.258,0,1,0,.9-1.536,1.259,1.259,0,0,0-.9,1.536" transform="translate(-127.243 -63.38)" fill="#2f1a2a"/>
        <path id="Path_212012" data-name="Path 212012" d="M305.136,162.64a1.258,1.258,0,1,0,.9-1.536,1.259,1.259,0,0,0-.9,1.536" transform="translate(-120.321 -63.519)" fill="#2f1a2a"/>
        <path id="Path_212013" data-name="Path 212013" d="M318.113,168.3l.878,2.39a.575.575,0,0,1-.412.678l-1.357.251" transform="translate(-125.104 -66.374)" fill="none" stroke="#2f1a2a" stroke-linecap="round" stroke-linejoin="round" stroke-width="0.893"/>
        <path id="Path_212014" data-name="Path 212014" d="M300.718,146.914s3.9-.69,4.108,1.1c0,0,.11,1.217-3.3,1.745s-4.774.44-5.194-.676,2.541-2.006,4.385-2.171" transform="translate(-116.85 -57.887)" fill="#2f1a2a"/>
        <path id="Path_212015" data-name="Path 212015" d="M324.543,147s-3.4-.741-3.885.976c0,0-.307,1.174,2.679,1.74,2.175.412,2.985.038,3.206-.749.262-.933-.716-1.794-2-1.966" transform="translate(-126.456 -57.91)" fill="#2f1a2a"/>
        <path id="Path_212016" data-name="Path 212016" d="M315.514,176.981l-9.648.11a4.425,4.425,0,0,0,4.666,4.169,4.94,4.94,0,0,0,4.982-4.279" transform="translate(-120.625 -69.797)" fill="#221914"/>
      </g>
      <g id="Group_984316" data-name="Group 984316" transform="translate(1129.241 7065.556)" clip-path="url(#clip-path-2)">
        <path id="Path_212017" data-name="Path 212017" d="M305.081,185.332a3.4,3.4,0,1,0,1.671-4.507,3.4,3.4,0,0,0-1.671,4.507" transform="translate(-305.434 -178.373)" fill="#e275c2"/>
        <path id="Path_212018" data-name="Path 212018" d="M315.742,177.648l-10.951-.016V175.78l10.951-.4Z" transform="translate(-305.443 -176.349)" fill="#fff"/>
      </g>
      <g id="Group_984320" data-name="Group 984320" transform="translate(1121.257 7050.047)" opacity="0.11">
        <g id="Group_984319" data-name="Group 984319">
          <g id="Group_984318" data-name="Group 984318" clip-path="url(#clip-path-3)">
            <path id="Path_212020" data-name="Path 212020" d="M306.035,158.272a6.678,6.678,0,1,1-6.6-6.9,6.751,6.751,0,0,1,6.6,6.9" transform="translate(-292.683 -151.373)" fill="#fff"/>
          </g>
        </g>
      </g>
      <g id="Group_984323" data-name="Group 984323" transform="translate(1138.091 7050.451)" opacity="0.11">
        <g id="Group_984322" data-name="Group 984322">
          <g id="Group_984321" data-name="Group 984321" clip-path="url(#clip-path-4)">
            <path id="Path_212021" data-name="Path 212021" d="M331.922,158.657c-.042,3.618-2.637,6.522-5.8,6.486s-5.687-3-5.646-6.618,2.637-6.521,5.8-6.485,5.688,3,5.646,6.617" transform="translate(-320.479 -152.039)" fill="#fff"/>
          </g>
        </g>
      </g>
      <path id="Path_212022" data-name="Path 212022" d="M306.035,158.272a6.678,6.678,0,1,1-6.6-6.9A6.751,6.751,0,0,1,306.035,158.272Z" transform="translate(828.573 6898.674)" fill="none" stroke="#fff" stroke-linecap="round" stroke-linejoin="round" stroke-width="1.261"/>
      <path id="Path_212023" data-name="Path 212023" d="M331.922,158.657c-.042,3.618-2.637,6.522-5.8,6.486s-5.687-3-5.646-6.618,2.637-6.521,5.8-6.485S331.964,155.039,331.922,158.657Z" transform="translate(817.611 6898.412)" fill="none" stroke="#fff" stroke-linecap="round" stroke-linejoin="round" stroke-width="1.261"/>
      <path id="Path_212024" data-name="Path 212024" d="M314.73,162.274a2.4,2.4,0,0,1,3.482-.01" transform="translate(819.879 6894.672)" fill="none" stroke="#fff" stroke-linecap="round" stroke-linejoin="round" stroke-width="1.261"/>
      <line id="Line_1653" data-name="Line 1653" x1="5.967" y2="2.269" transform="translate(1115.291 7056.793)" fill="none" stroke="#fff" stroke-linecap="round" stroke-linejoin="round" stroke-width="1.261"/>
      <path id="Path_212025" data-name="Path 212025" d="M276.345,150.356c.907.38,17.544-9.632,9.1-20.528,0,0-12.655,2.971-11.926,20.519Z" transform="translate(836.142 6907.171)" fill="#f46eab"/>
      <path id="Path_212026" data-name="Path 212026" d="M291.151,131.4s11.2-2.731,17.715,2.851c0,0-3.158-10.082-18.558-10.6l-5.8,12.893Z" transform="translate(831.796 6909.608)" fill="#f46eab"/>
      <path id="Path_212027" data-name="Path 212027" d="M251.608,118.091a8.534,8.534,0,1,0,8.534-8.534,8.534,8.534,0,0,0-8.534,8.534" transform="translate(844.772 6915.166)" fill="#f46eab"/>
      <path id="Path_212028" data-name="Path 212028" d="M280.674,154.263l-1.088,11.5-3.967-10.531Z" transform="translate(835.303 6897.535)" fill="#f46eab"/>
      <path id="Path_212029" data-name="Path 212029" d="M262.218,169.554a6.671,6.671,0,1,0,4.449-8.32,6.672,6.672,0,0,0-4.449,8.32" transform="translate(840.702 6894.899)" fill="#ffaf78"/>
      <path id="Path_212030" data-name="Path 212030" d="M267.979,168.638a4.887,4.887,0,0,1,6.192,3.977" transform="translate(838.316 6891.931)" fill="none" stroke="#2f1a2a" stroke-linecap="round" stroke-linejoin="round" stroke-width="0.893"/>
      <path id="Path_212031" data-name="Path 212031" d="M322.537,236.087s9.533,5.651,9.533,20.333v42.086a10.655,10.655,0,0,1-21.31.072l-.377-55.448Z" transform="translate(821.593 6865.266)" fill="#a8527e"/>
      <path id="Path_212032" data-name="Path 212032" d="M358.084,294.1l4.573,5.924-35.068,31.2a8.624,8.624,0,1,1-8.871-14.709Z" transform="translate(820.223 6842.388)" fill="#ffaf78"/>
      <path id="Path_212033" data-name="Path 212033" d="M386.883,285.787l2.5-4.334a16.657,16.657,0,0,1,5.3-5.617l3.844-2.519a1.765,1.765,0,0,1,2.584.767,2.261,2.261,0,0,1-.455,2.488l-3.413,3.485,18.363-5.26a1.367,1.367,0,0,1,1.751,1.071l.1.544a1.367,1.367,0,0,1-.849,1.509l-10.777,3.456,12.928-2.258a1.367,1.367,0,0,1,1.676,1.176l.045.4a1.366,1.366,0,0,1-1.039,1.483l-13.381,2.748,11.1-.225a1.367,1.367,0,0,1,1.406,1.6l-.03.173a1.368,1.368,0,0,1-1.171,1.121l-11.551,1.493,7.091,0a1.367,1.367,0,0,1,.126,2.728l-25.825,2.39Z" transform="translate(791.424 6850.698)" fill="#ffaf78"/>
      <path id="Path_212034" data-name="Path 212034" d="M243.9,224.955s-17.414,3.785-24.083,20-2.039,71.953-2.039,71.953,33.124,15.581,62.035-1.975l5.586-83.817s-6.465-4.646-11.736-7.632Z" transform="translate(858.731 6870.235)" fill="#a8527e"/>
      <path id="Path_212035" data-name="Path 212035" d="M275.276,217.361s-4.879,1.09-13.346,5.178A173.359,173.359,0,0,1,284.6,244.207s7.783-8,7.1-23.137l-9.886-3.709Z" transform="translate(840.702 6872.651)" fill="#ffaf78"/>
      <line id="Line_1654" data-name="Line 1654" x1="2.403" y2="36.047" transform="translate(1140.417 7121.022)" fill="none" stroke="#873964" stroke-linecap="round" stroke-linejoin="round" stroke-width="1.7"/>
      <path id="Path_212036" data-name="Path 212036" d="M249.29,37.608H218.817a13.462,13.462,0,0,1-13.462-13.462V13.462A13.462,13.462,0,0,1,218.817,0H249.29a13.462,13.462,0,0,1,13.462,13.462V24.146A13.462,13.462,0,0,1,249.29,37.608" transform="translate(863.014 6958.372)" fill="#3c3fa7"/>
      <path id="Path_212037" data-name="Path 212037" d="M261.038,55.291l8.133,10.277a1.319,1.319,0,0,0,2.309-1.157l-2.854-10.746Z" transform="translate(841.054 6937.208)" fill="#3c3fa7"/>
      <rect id="Rectangle_339472" data-name="Rectangle 339472" width="400" height="246.373" transform="translate(944 6958.372)" fill="none"/>
      <path id="Path_215842" data-name="Path 215842" d="M2.652-3.48V0H.852V-8.9h1.8v3.168a2.514,2.514,0,0,1,1.83-.828,2.286,2.286,0,0,1,1.71.72,2.645,2.645,0,0,1,.7,1.92V0h-1.8V-3.528Q5.088-5.016,4-5.016a1.31,1.31,0,0,0-.942.39A1.526,1.526,0,0,0,2.652-3.48ZM14.3-.936A3.61,3.61,0,0,1,11.742.1,3.4,3.4,0,0,1,9.312-.81a3.183,3.183,0,0,1-.96-2.43A3.134,3.134,0,0,1,9.33-5.664a3.3,3.3,0,0,1,2.31-.9,3.34,3.34,0,0,1,2.262.8,2.766,2.766,0,0,1,.93,2.208v.96h-4.7a1.284,1.284,0,0,0,.552.864,1.767,1.767,0,0,0,1.056.336,2.071,2.071,0,0,0,1.56-.636Zm-1.3-2.94a1.278,1.278,0,0,0-.432-.888,1.363,1.363,0,0,0-.906-.312,1.622,1.622,0,0,0-.978.324,1.239,1.239,0,0,0-.516.876ZM18.036,0h-1.8V-8.9h1.8ZM21.66,0h-1.8V-8.9h1.8Zm3.264-3.228a1.85,1.85,0,0,0,.45,1.29,1.483,1.483,0,0,0,1.152.5,1.483,1.483,0,0,0,1.152-.5,1.85,1.85,0,0,0,.45-1.29,1.873,1.873,0,0,0-.45-1.3,1.475,1.475,0,0,0-1.152-.5,1.475,1.475,0,0,0-1.152.5A1.873,1.873,0,0,0,24.924-3.228Zm5.016,0a3.192,3.192,0,0,1-.972,2.364A3.334,3.334,0,0,1,26.526.1a3.334,3.334,0,0,1-2.442-.96,3.192,3.192,0,0,1-.972-2.364,3.212,3.212,0,0,1,.972-2.37,3.322,3.322,0,0,1,2.442-.966,3.322,3.322,0,0,1,2.442.966A3.212,3.212,0,0,1,29.94-3.228Zm1.416-5.16H33.48V-6.9l-.36,4.32H31.7L31.356-6.9ZM31.662-.21a1.02,1.02,0,0,1-.306-.75,1.02,1.02,0,0,1,.306-.75,1.02,1.02,0,0,1,.75-.306,1.02,1.02,0,0,1,.75.306,1.02,1.02,0,0,1,.306.75,1.02,1.02,0,0,1-.306.75,1.02,1.02,0,0,1-.75.306A1.02,1.02,0,0,1,31.662-.21Z" transform="translate(1078.675 6979.308)" fill="#fed947"/>
      <g id="Group_984326" data-name="Group 984326" transform="translate(944 6958.372)" clip-path="url(#clip-path)">
        <path id="Path_212038" data-name="Path 212038" d="M137.075,314.679s22.1,4.454,40.173-4.364l6.019-75.85-21.494-21.871-21.268-4.519-11.713,42.644Z" transform="translate(-50.792 -82.059)" fill="#fafbfd"/>
        <path id="Path_212039" data-name="Path 212039" d="M129.249,208.075s3.076,75.724,2.269,113.211l-16.367-1.943a16.892,16.892,0,0,1-14.894-17.265l1.694-58.305,1.856-25.206a5.73,5.73,0,0,1,3.571-4.9,85.85,85.85,0,0,1,21.87-5.591" transform="translate(-39.536 -82.059)" fill="#fca428"/>
        <path id="Path_212040" data-name="Path 212040" d="M33.653,345.452,27.8,355.723a68.663,68.663,0,0,0-22.1,5.723,1.432,1.432,0,0,0,1.025,2.665l7.9-2.387A125.12,125.12,0,0,0,.9,368.359a1.789,1.789,0,0,0,1.536,3.221L15.2,366.622,3.281,373.207A1.977,1.977,0,0,0,5.1,376.719l11.545-5.572-9,6.323a2.288,2.288,0,0,0,2.581,3.778c3.541-2.337,12.462-7.8,18.254-7.645a27.7,27.7,0,0,1-3.819,4.547,2.581,2.581,0,0,0,3.236,4l6.8-4.7a6.693,6.693,0,0,0,2.648-3.73l2.26-8.215,9.86-9.328Z" transform="translate(0 -136.237)" fill="#fc9753"/>
        <path id="Path_212041" data-name="Path 212041" d="M85.691,216.739s-3.158-.18-13.5,13.078c-10.644,13.647-29.143,74.567-29.143,74.567l18.582,14.109,31.546-68.667Z" transform="translate(-16.977 -85.476)" fill="#fca428"/>
        <line id="Line_1655" data-name="Line 1655" y1="23.916" x2="10.988" transform="translate(61.753 171.881)" fill="none" stroke="#d3750d" stroke-linecap="round" stroke-linejoin="round" stroke-width="1.748"/>
        <path id="Path_212042" data-name="Path 212042" d="M209.775,218.531s16.291,5.079,22.423,65.182l-13.234,9.377Z" transform="translate(-82.73 -86.183)" fill="#fca428"/>
        <path id="Path_212043" data-name="Path 212043" d="M299.281,273.921s-5.946-4.58-.415-12.243l8.3-11.961a2.151,2.151,0,0,1,3.752,2.027l-2.558,7.08,15.733-10.652a2.331,2.331,0,0,1,2.842,3.694L316.8,259.73l.2.621,11.63-6.626a2.246,2.246,0,0,1,1.879,4.08L319.275,265l.163.789L330.4,261.1c2.713-1.3,3.559-.029,3.826.975.25.937-1.791,2.214-2.712,2.52l-11.336,5.73.124.732,10.512-4.035a1.619,1.619,0,0,1,.508,3.2l-11.993,5.109s-10.953,7.476-15.919,3.258Z" transform="translate(-116.936 -97.692)" fill="#fc9753"/>
        <path id="Path_212044" data-name="Path 212044" d="M315.572,266.058s3.462,6.181-.765,11.682" transform="translate(-124.151 -104.926)" fill="none" stroke="#e07832" stroke-linecap="round" stroke-linejoin="round" stroke-width="1.6"/>
        <path id="Path_212045" data-name="Path 212045" d="M273.307,287.728l18.051-7.613,7.8,10.944-20.235,10.89Z" transform="translate(-107.785 -110.47)" fill="#fc9753"/>
        <path id="Path_212046" data-name="Path 212046" d="M209.749,298.881l45.631-18.451,9.132,19.774-39.826,26.308a13.867,13.867,0,0,1-18.5-3.915c-4.79-6.825-3.8-19.8,3.564-23.716" transform="translate(-80.156 -110.594)" fill="#fca428"/>
        <line id="Line_1656" data-name="Line 1656" x1="5.541" y2="2.24" transform="translate(141.498 181.232)" fill="none" stroke="#d3750d" stroke-linecap="round" stroke-linejoin="round" stroke-width="1.748"/>
        <path id="Path_212047" data-name="Path 212047" d="M183.251,213.486s5.276,6.186,7.433,32.893,2.881,72.369,2.881,72.369a19.526,19.526,0,0,0,15.608-19.724c-.6-19.775-2.025-52-5.136-65.631l-2.9-14.795c-.16-.7-.841-2.8-.841-2.8s-2.336-2.129-16.848-5.457Z" transform="translate(-72.269 -82.951)" fill="#fca428"/>
        <path id="Path_212048" data-name="Path 212048" d="M223.139,317.148s.141-37.922-4.4-65.5" transform="translate(-86.266 -99.244)" fill="none" stroke="#d3750d" stroke-linecap="round" stroke-linejoin="round" stroke-width="1.748"/>
        <path id="Path_212049" data-name="Path 212049" d="M144.407,164.872s-5.2,8.4,2.435,8.152a8.411,8.411,0,0,0,2.468-7.553Z" transform="translate(-56.269 -65.021)" fill="#793625"/>
        <path id="Path_212050" data-name="Path 212050" d="M196.711,116.269a13.4,13.4,0,0,0-1.587-5.006c-10.993-20.318-34.9-4.1-34.9-4.1l4.186,14.237c9.966-6.028,21.822-8.49,32.3-5.13" transform="translate(-63.189 -39.844)" fill="#793625"/>
        <path id="Path_212051" data-name="Path 212051" d="M167.139,129.683l4.671,18.471s29.231-8.394,27.626-23.6c-10.476-3.36-20.847-4.789-32.3,5.13" transform="translate(-65.915 -48.129)" fill="#6b2a1d"/>
        <path id="Path_212052" data-name="Path 212052" d="M189.995,156.688a5.993,5.993,0,1,0,4.287-7.311,5.993,5.993,0,0,0-4.287,7.311" transform="translate(-74.852 -58.833)" fill="#e8803a"/>
        <path id="Path_212053" data-name="Path 212053" d="M168.428,172.453l1.1,17.8a8.26,8.26,0,0,1-14.246,5.154l-7.155-7.569,2.129-31.069Z" transform="translate(-58.419 -61.828)" fill="#fc9753"/>
        <path id="Path_212054" data-name="Path 212054" d="M174.394,189.194s-11.65-.5-12.519-12.246l11.973,3.462Z" transform="translate(-63.839 -69.784)" fill="#2f1a2a"/>
        <path id="Path_212055" data-name="Path 212055" d="M180.043,115.041s3.819,24.3.833,31.958-9.622,12.338-19.895,10.067c0,0-11.982-.93-14.153-18.327-3.27-26.192,21.387-37.939,33.216-23.7" transform="translate(-57.788 -42.957)" fill="#fc9753"/>
        <path id="Path_212056" data-name="Path 212056" d="M198.55,151.037a1.371,1.371,0,1,0,1.042-1.635,1.371,1.371,0,0,0-1.042,1.635" transform="translate(-78.29 -58.907)" fill="#171717"/>
        <path id="Path_212057" data-name="Path 212057" d="M179.414,150.67a1.371,1.371,0,1,0,1.042-1.635,1.371,1.371,0,0,0-1.042,1.635" transform="translate(-70.743 -58.762)" fill="#171717"/>
        <path id="Path_212058" data-name="Path 212058" d="M193.84,153.776l1.318,4.686-2.218,1.105" transform="translate(-76.09 -60.645)" fill="none" stroke="#2f1a2a" stroke-linecap="round" stroke-linejoin="round" stroke-width="0.983"/>
        <path id="Path_212059" data-name="Path 212059" d="M174.821,135.45s4.261-1.031,4.565,1.273c0,0,.173,1.564-3.554,2.369s-5.231.741-5.741-.684,2.71-2.679,4.731-2.958" transform="translate(-67.058 -53.327)" fill="#221914"/>
        <path id="Path_212060" data-name="Path 212060" d="M201.389,134.944s-3.967-.982-4.4,1.275c0,0-.262,1.544,3.219,2.3,2.534.547,3.438.056,3.631-.979.229-1.227-.963-2.362-2.455-2.592" transform="translate(-77.687 -53.135)" fill="#221914"/>
        <path id="Path_212061" data-name="Path 212061" d="M182.057,166.655l7.95.585s-.079,3.106-4.132,2.833-3.818-3.418-3.818-3.418" transform="translate(-71.798 -65.724)" fill="#fff"/>
        <path id="Path_212062" data-name="Path 212062" d="M148.1,137.122l1.169-8.847s7.008-2.229,8.682-15.47c0,0-2.941-6.091-11.924-3.3s-16.781,9.283-6.931,25.591Z" transform="translate(-53.052 -42.896)" fill="#793625"/>
        <path id="Path_212063" data-name="Path 212063" d="M133.553,155.712a7.272,7.272,0,1,0,5.2-8.872,7.273,7.273,0,0,0-5.2,8.872" transform="translate(-52.576 -57.816)" fill="#fc9753"/>
        <path id="Path_212064" data-name="Path 212064" d="M140.051,154.815a5.328,5.328,0,0,1,6.575,4.6" transform="translate(-55.232 -61.005)" fill="none" stroke="#2f1a2a" stroke-linecap="round" stroke-linejoin="round" stroke-width="0.983"/>
        <path id="Path_212065" data-name="Path 212065" d="M168.717,111.988a27.644,27.644,0,0,1,17.693,4.182l-1.859-7.862-11.635-1.61-11.1,4.179,2.739.259Z" transform="translate(-63.815 -42.078)" fill="#793625"/>
        <path id="Path_212066" data-name="Path 212066" d="M201.743,120.606s13.4.033,13.453,9.8a.169.169,0,0,0,.334.03c.628-3.627-.046-13.552-14.835-12.394Z" transform="translate(-79.149 -46.514)" fill="#793625"/>
        <path id="Path_212067" data-name="Path 212067" d="M67.8,96.137H34.395A15.616,15.616,0,0,1,18.778,80.521v-9.1A15.616,15.616,0,0,1,34.395,55.808H67.8A15.616,15.616,0,0,1,83.417,71.424v9.1A15.616,15.616,0,0,1,67.8,96.137" transform="translate(-7.406 -22.009)" fill="#fc83b9"/>
        <path id="Path_212068" data-name="Path 212068" d="M86.625,114.749l8.133,10.276a1.319,1.319,0,0,0,2.309-1.157l-2.854-10.746Z" transform="translate(-34.163 -44.612)" fill="#fc83b9"/>
      </g>
      <path id="Path_215843" data-name="Path 215843" d="M2.652-3.48V0H.852V-8.9h1.8v3.168a2.514,2.514,0,0,1,1.83-.828,2.286,2.286,0,0,1,1.71.72,2.645,2.645,0,0,1,.7,1.92V0h-1.8V-3.528Q5.088-5.016,4-5.016a1.31,1.31,0,0,0-.942.39A1.526,1.526,0,0,0,2.652-3.48ZM14.292-.936A3.61,3.61,0,0,1,11.73.1,3.4,3.4,0,0,1,9.3-.81a3.183,3.183,0,0,1-.96-2.43,3.134,3.134,0,0,1,.978-2.424,3.3,3.3,0,0,1,2.31-.9,3.34,3.34,0,0,1,2.262.8,2.766,2.766,0,0,1,.93,2.208v.96h-4.7a1.284,1.284,0,0,0,.552.864,1.767,1.767,0,0,0,1.056.336,2.071,2.071,0,0,0,1.56-.636ZM13-3.876a1.278,1.278,0,0,0-.432-.888,1.363,1.363,0,0,0-.906-.312,1.622,1.622,0,0,0-.978.324,1.239,1.239,0,0,0-.516.876ZM18.036,0h-1.8V-8.9h1.8Zm3.612,0h-1.8V-8.9h1.8ZM24.9-3.228a1.85,1.85,0,0,0,.45,1.29,1.483,1.483,0,0,0,1.152.5,1.483,1.483,0,0,0,1.152-.5,1.85,1.85,0,0,0,.45-1.29,1.873,1.873,0,0,0-.45-1.3,1.475,1.475,0,0,0-1.152-.5,1.475,1.475,0,0,0-1.152.5A1.873,1.873,0,0,0,24.9-3.228Zm5.016,0a3.192,3.192,0,0,1-.972,2.364A3.334,3.334,0,0,1,26.5.1a3.334,3.334,0,0,1-2.442-.96,3.192,3.192,0,0,1-.972-2.364A3.212,3.212,0,0,1,24.06-5.6,3.322,3.322,0,0,1,26.5-6.564a3.322,3.322,0,0,1,2.442.966A3.212,3.212,0,0,1,29.916-3.228Zm1.428-5.16h2.124V-6.9l-.36,4.32H31.692L31.344-6.9ZM31.65-.21a1.02,1.02,0,0,1-.306-.75,1.02,1.02,0,0,1,.306-.75,1.02,1.02,0,0,1,.75-.306,1.02,1.02,0,0,1,.75.306,1.02,1.02,0,0,1,.306.75,1.02,1.02,0,0,1-.306.75A1.02,1.02,0,0,1,32.4.1,1.02,1.02,0,0,1,31.65-.21Z" transform="translate(968.406 7017.5)" fill="#fafbfd"/>
      <g id="Group_984328" data-name="Group 984328" transform="translate(944 6958.372)" clip-path="url(#clip-path)">
        <path id="Path_212069" data-name="Path 212069" d="M424.577,141.393s2.556,15.9,8.283,24.825a3.7,3.7,0,0,1-1.156,5.031c-6.466,4.179-24.66,12.1-47.9,3.029a3.71,3.71,0,0,1-2.292-3.883c.476-4.3,4.206-12.735,9.688-20.3Z" transform="translate(-150.451 -55.762)" fill="#f76b2c"/>
        <path id="Path_212070" data-name="Path 212070" d="M392.582,161.227a5.372,5.372,0,1,1-3.583-6.7,5.372,5.372,0,0,1,3.583,6.7" transform="translate(-150.678 -60.85)" fill="#f4ab7a"/>
        <path id="Path_212071" data-name="Path 212071" d="M409.781,175.818l.518,21.749,16.945-1.977-3.212-31.973Z" transform="translate(-161.607 -64.526)" fill="#ffb98a"/>
        <path id="Path_212072" data-name="Path 212072" d="M410.024,191.13s7.706-.389,8.038-9.15L409.9,186.3Z" transform="translate(-161.652 -71.768)" fill="#2f1a2a"/>
        <path id="Path_212073" data-name="Path 212073" d="M390.207,128.637a7.847,7.847,0,0,0-2.565,4.486c-1.028,5.139-3.046,15.828-1.226,21.283,2.365,7.094,8.126,11.58,17.435,9.81,0,0,10.789-.491,13.45-16.346,3.776-22.494-15.491-29.04-27.094-19.233" transform="translate(-152.103 -48.987)" fill="#ffb98a"/>
        <path id="Path_212074" data-name="Path 212074" d="M390.585,157.685a1.229,1.229,0,1,1-.876-1.5,1.229,1.229,0,0,1,.876,1.5" transform="translate(-153.083 -61.579)" fill="#2f1a2a"/>
        <path id="Path_212075" data-name="Path 212075" d="M407.737,158.029a1.229,1.229,0,1,1-.876-1.5,1.229,1.229,0,0,1,.876,1.5" transform="translate(-159.847 -61.714)" fill="#2f1a2a"/>
        <path id="Path_212076" data-name="Path 212076" d="M394.808,163.21l-1.216,2.926,1.97.531" transform="translate(-155.223 -64.366)" fill="none" stroke="#2f1a2a" stroke-linecap="round" stroke-linejoin="round" stroke-width="0.873"/>
        <path id="Path_212077" data-name="Path 212077" d="M406.757,146.6s-3.811-.675-4.014,1.077c0,0-.108,1.189,3.224,1.7s4.664.431,5.075-.661-2.483-1.96-4.285-2.122" transform="translate(-158.831 -57.766)" fill="#f76b2c"/>
        <path id="Path_212078" data-name="Path 212078" d="M386.6,146.687s3.32-.724,3.8.953c0,0,.3,1.147-2.618,1.7-2.125.4-2.917.037-3.133-.732-.256-.911.7-1.752,1.955-1.921" transform="translate(-151.676 -57.788)" fill="#f76b2c"/>
        <path id="Path_212079" data-name="Path 212079" d="M395.377,172.639l6.844.113s.016,2.757-3.473,2.722-3.372-2.835-3.372-2.835" transform="translate(-155.926 -68.084)" fill="#fff"/>
        <path id="Path_212080" data-name="Path 212080" d="M414.587,143.726s-5.634-4.984-4.512-14.682a93.922,93.922,0,0,1-20.926.854s2.534-14.992,24.132-11.4c22.443,3.735,14.164,29.69,5.825,37.29Z" transform="translate(-153.47 -46.514)" fill="#f76b2c"/>
        <path id="Path_212081" data-name="Path 212081" d="M440.767,162.242a6.519,6.519,0,1,1-4.348-8.129,6.519,6.519,0,0,1,4.348,8.129" transform="translate(-168.795 -60.667)" fill="#ffb98a"/>
        <path id="Path_212082" data-name="Path 212082" d="M439.69,161.348a4.776,4.776,0,0,0-6.05,3.887" transform="translate(-171.016 -63.568)" fill="none" stroke="#2f1a2a" stroke-linecap="round" stroke-linejoin="round" stroke-width="0.873"/>
        <path id="Path_212083" data-name="Path 212083" d="M401.735,118.041c.03-.028-18.771.32-21.123,15.258l29.75.667,1.782-9.944Z" transform="translate(-150.103 -46.552)" fill="#f76b2c"/>
        <path id="Path_212084" data-name="Path 212084" d="M369.414,280.027l2.07,28.143L359.87,343.58h12.887l20.094-19.41-2.158-42.337Z" transform="translate(-141.923 -110.435)" fill="#ffb98a"/>
        <path id="Path_212085" data-name="Path 212085" d="M376.8,224.182s-14.689,10.611-10.363,44.649h24.036Z" transform="translate(-144.199 -88.411)" fill="#fff"/>
        <path id="Path_212086" data-name="Path 212086" d="M388.7,325.736l-8.085,35.57c30.175,8.525,58.229,0,58.229,0s-1.572-13.66-12.06-35.812Z" transform="translate(-150.104 -128.366)" fill="#2f1a2a"/>
        <path id="Path_212087" data-name="Path 212087" d="M424.621,213.584l-29.523.494A40.278,40.278,0,0,0,384.068,220l.925,24.9,5.067,36.7,38.084-.243,7.489-57.035Z" transform="translate(-151.466 -84.232)" fill="#fff"/>
        <path id="Path_212088" data-name="Path 212088" d="M415.682,206.49a61.6,61.6,0,0,1,16.1,4.3s-2.464,9.58-16.628,9.623a18.34,18.34,0,0,1-6.944-1.241c-2.944-1.191-6.386-3.528-5.952-7.888Z" transform="translate(-158.625 -81.434)" fill="#ffb98a"/>
        <line id="Line_1657" data-name="Line 1657" x1="2.746" y1="20.09" transform="translate(232.933 159.724)" fill="none" stroke="#dbdbdb" stroke-linecap="round" stroke-linejoin="round" stroke-width="1.748"/>
        <path id="Path_212089" data-name="Path 212089" d="M473.618,305.075c.067-.753-1.346-35.336-1.346-35.336H455.938l-.255,25.771Z" transform="translate(-179.709 -106.378)" fill="#ffb98a"/>
        <path id="Path_212090" data-name="Path 212090" d="M451.029,213.584s20.274,5.626,22.743,18.221,8.435,33.616,8.435,33.616l-31.178.09,2.344-42.3Z" transform="translate(-177.874 -84.232)" fill="#fff"/>
        <line id="Line_1658" data-name="Line 1658" x1="2.637" y1="18.707" transform="translate(271.649 164.766)" fill="none" stroke="#dbdbdb" stroke-linecap="round" stroke-linejoin="round" stroke-width="1.748"/>
        <path id="Path_212091" data-name="Path 212091" d="M411.27,269.781l-3.886,7.539,33.124,33.256a8.624,8.624,0,1,0,9.742-14.149l-4.646-3.176-8.159-5.577Z" transform="translate(-160.661 -106.394)" fill="#ffb98a"/>
        <path id="Path_212092" data-name="Path 212092" d="M400.556,257.6l-.017-5a16.657,16.657,0,0,0-1.817-7.509l-2.087-4.095a1.765,1.765,0,0,0-2.625-.616,2.26,2.26,0,0,0-.84,2.386l1.234,4.72-11.939-12.953a1.808,1.808,0,0,0-2.414.137,1.642,1.642,0,0,0-.159,1.91l6.406,7.792-8.763-7.727a1.635,1.635,0,0,0-2.262.257,1.758,1.758,0,0,0,.168,2.08l10.13,8.917-9.522-5.7a1.367,1.367,0,0,0-2.016.692l-.059.166a1.366,1.366,0,0,0,.461,1.554l9.287,7.028-6.157-3.517a1.367,1.367,0,0,0-1.463,2.306l20,14.334Z" transform="translate(-147.454 -92.335)" fill="#ffb98a"/>
        <line id="Line_1659" data-name="Line 1659" x2="9.437" y2="6.451" transform="translate(277.397 181.699)" fill="none" stroke="#f2a36d" stroke-linecap="round" stroke-linejoin="round" stroke-width="1.6"/>
        <path id="Path_212093" data-name="Path 212093" d="M396.928,63.8h33.406A15.617,15.617,0,0,0,445.95,48.187v-9.1a15.616,15.616,0,0,0-15.617-15.616H396.928A15.616,15.616,0,0,0,381.312,39.09v9.1A15.616,15.616,0,0,0,396.928,63.8" transform="translate(-150.379 -9.258)" fill="#fc83b9"/>
        <path id="Path_212094" data-name="Path 212094" d="M420.136,82.415,412,92.691a1.319,1.319,0,0,1-2.309-1.157l2.854-10.746Z" transform="translate(-161.553 -31.861)" fill="#fc83b9"/>
      </g>
      <path id="Path_215841" data-name="Path 215841" d="M2.652-3.48V0H.852V-8.9h1.8v3.168a2.514,2.514,0,0,1,1.83-.828,2.286,2.286,0,0,1,1.71.72,2.645,2.645,0,0,1,.7,1.92V0h-1.8V-3.528Q5.088-5.016,4-5.016a1.31,1.31,0,0,0-.942.39A1.526,1.526,0,0,0,2.652-3.48ZM14.3-.936A3.61,3.61,0,0,1,11.742.1,3.4,3.4,0,0,1,9.312-.81a3.183,3.183,0,0,1-.96-2.43A3.134,3.134,0,0,1,9.33-5.664a3.3,3.3,0,0,1,2.31-.9,3.34,3.34,0,0,1,2.262.8,2.766,2.766,0,0,1,.93,2.208v.96h-4.7a1.284,1.284,0,0,0,.552.864,1.767,1.767,0,0,0,1.056.336,2.071,2.071,0,0,0,1.56-.636Zm-1.3-2.94a1.278,1.278,0,0,0-.432-.888,1.363,1.363,0,0,0-.906-.312,1.622,1.622,0,0,0-.978.324,1.239,1.239,0,0,0-.516.876ZM18.048,0h-1.8V-8.9h1.8Zm3.624,0h-1.8V-8.9h1.8Zm3.264-3.228a1.85,1.85,0,0,0,.45,1.29,1.483,1.483,0,0,0,1.152.5,1.483,1.483,0,0,0,1.152-.5,1.85,1.85,0,0,0,.45-1.29,1.873,1.873,0,0,0-.45-1.3,1.475,1.475,0,0,0-1.152-.5,1.475,1.475,0,0,0-1.152.5A1.873,1.873,0,0,0,24.936-3.228Zm5.016,0A3.192,3.192,0,0,1,28.98-.864,3.334,3.334,0,0,1,26.538.1,3.334,3.334,0,0,1,24.1-.864a3.192,3.192,0,0,1-.972-2.364A3.212,3.212,0,0,1,24.1-5.6a3.322,3.322,0,0,1,2.442-.966A3.322,3.322,0,0,1,28.98-5.6,3.212,3.212,0,0,1,29.952-3.228Zm1.416-5.16h2.124V-6.9l-.36,4.32H31.716L31.368-6.9ZM31.674-.21a1.02,1.02,0,0,1-.306-.75,1.02,1.02,0,0,1,.306-.75,1.02,1.02,0,0,1,.75-.306,1.02,1.02,0,0,1,.75.306,1.02,1.02,0,0,1,.306.75,1.02,1.02,0,0,1-.306.75,1.02,1.02,0,0,1-.75.306A1.02,1.02,0,0,1,31.674-.21Z" transform="translate(1188.267 7000.283)" fill="#fafbfd"/>
      <g id="Group_984330" data-name="Group 984330" transform="translate(944 6958.372)" clip-path="url(#clip-path)">
        <path id="Path_212095" data-name="Path 212095" d="M561.448,40.329h31.589a15.616,15.616,0,0,0,15.617-15.615v-9.1A15.616,15.616,0,0,0,593.037,0H561.448a15.616,15.616,0,0,0-15.616,15.616v9.1a15.616,15.616,0,0,0,15.616,15.615" transform="translate(-215.262)" fill="#3c3fa7"/>
        <path id="Path_212096" data-name="Path 212096" d="M579.563,58.941,571.43,69.217a1.319,1.319,0,0,1-2.309-1.157l2.854-10.746Z" transform="translate(-224.427 -22.603)" fill="#3c3fa7"/>
      </g>
      <path id="Path_215840" data-name="Path 215840" d="M2.652-3.48V0H.852V-8.9h1.8v3.168a2.514,2.514,0,0,1,1.83-.828,2.286,2.286,0,0,1,1.71.72,2.645,2.645,0,0,1,.7,1.92V0h-1.8V-3.528Q5.088-5.016,4-5.016a1.31,1.31,0,0,0-.942.39A1.526,1.526,0,0,0,2.652-3.48ZM14.3-.936A3.61,3.61,0,0,1,11.742.1,3.4,3.4,0,0,1,9.312-.81a3.183,3.183,0,0,1-.96-2.43A3.134,3.134,0,0,1,9.33-5.664a3.3,3.3,0,0,1,2.31-.9,3.34,3.34,0,0,1,2.262.8,2.766,2.766,0,0,1,.93,2.208v.96h-4.7a1.284,1.284,0,0,0,.552.864,1.767,1.767,0,0,0,1.056.336,2.071,2.071,0,0,0,1.56-.636Zm-1.3-2.94a1.278,1.278,0,0,0-.432-.888,1.363,1.363,0,0,0-.906-.312,1.622,1.622,0,0,0-.978.324,1.239,1.239,0,0,0-.516.876ZM18.048,0h-1.8V-8.9h1.8ZM21.66,0h-1.8V-8.9h1.8Zm3.264-3.228a1.85,1.85,0,0,0,.45,1.29,1.483,1.483,0,0,0,1.152.5,1.483,1.483,0,0,0,1.152-.5,1.85,1.85,0,0,0,.45-1.29,1.873,1.873,0,0,0-.45-1.3,1.475,1.475,0,0,0-1.152-.5,1.475,1.475,0,0,0-1.152.5A1.873,1.873,0,0,0,24.924-3.228Zm5.016,0a3.192,3.192,0,0,1-.972,2.364A3.334,3.334,0,0,1,26.526.1a3.334,3.334,0,0,1-2.442-.96,3.192,3.192,0,0,1-.972-2.364,3.212,3.212,0,0,1,.972-2.37,3.322,3.322,0,0,1,2.442-.966,3.322,3.322,0,0,1,2.442.966A3.212,3.212,0,0,1,29.94-3.228Zm1.428-5.16h2.124V-6.9l-.36,4.32H31.716L31.368-6.9ZM31.674-.21a1.02,1.02,0,0,1-.306-.75,1.02,1.02,0,0,1,.306-.75,1.02,1.02,0,0,1,.75-.306,1.02,1.02,0,0,1,.75.306,1.02,1.02,0,0,1,.306.75,1.02,1.02,0,0,1-.306.75,1.02,1.02,0,0,1-.75.306A1.02,1.02,0,0,1,31.674-.21Z" transform="translate(1286.99 6980.886)" fill="#f0f4ff"/>
      <g id="Group_984332" data-name="Group 984332" transform="translate(944 6958.372)" clip-path="url(#clip-path)">
        <path id="Path_212097" data-name="Path 212097" d="M522.326,150.151a6.169,6.169,0,1,1-4.659-7.377,6.169,6.169,0,0,1,4.659,7.377" transform="translate(-201.185 -56.246)" fill="#8c4d41"/>
        <path id="Path_212098" data-name="Path 212098" d="M540.676,166.563l.555,24.258,22.093-1.582-4.488-39.423Z" transform="translate(-213.228 -59.083)" fill="#9b5e4e"/>
        <path id="Path_212099" data-name="Path 212099" d="M540.9,184.251s12.009-1,12.589-15.357l-12.814,5.883Z" transform="translate(-213.229 -66.607)" fill="#221914"/>
        <path id="Path_212100" data-name="Path 212100" d="M526.073,108.174a16.058,16.058,0,0,0-9.886,13.363c-.711,6.824-1.343,17.4.778,22.58,3.28,8.009,10.242,12.7,20.772,9.849,0,0,12.328-1.5,14.111-20.09,2.109-21.994-13.33-30.614-25.775-25.7" transform="translate(-203.305 -42.133)" fill="#9b5e4e"/>
        <path id="Path_212101" data-name="Path 212101" d="M520.795,145.516a1.412,1.412,0,1,1-1.128-1.647,1.412,1.412,0,0,1,1.128,1.647" transform="translate(-204.284 -56.729)" fill="#221914"/>
        <path id="Path_212102" data-name="Path 212102" d="M540.47,144.49a1.412,1.412,0,1,1-1.128-1.647,1.412,1.412,0,0,1,1.128,1.647" transform="translate(-212.043 -56.324)" fill="#221914"/>
        <path id="Path_212103" data-name="Path 212103" d="M526.272,148.164l-1,4.067a.782.782,0,0,0,.612.954l1.491.288" transform="translate(-207.144 -58.432)" fill="none" stroke="#2f1a2a" stroke-linecap="round" stroke-linejoin="round" stroke-width="1.012"/>
        <path id="Path_212104" data-name="Path 212104" d="M541.37,130.334s-4.419-.917-4.654,1.464c0,0-.125,1.616,3.738,2.317s5.407.585,5.884-.9-2.879-2.664-4.968-2.883" transform="translate(-211.666 -51.332)" fill="#221914"/>
        <path id="Path_212105" data-name="Path 212105" d="M515.693,130.624s4.048-1.145,4.565,1.163c0,0,.322,1.58-3.233,2.471-2.588.649-3.535.174-3.769-.884-.277-1.254.91-2.463,2.438-2.75" transform="translate(-202.398 -51.403)" fill="#221914"/>
        <path id="Path_212106" data-name="Path 212106" d="M525.758,161.626l8.6.326a4.056,4.056,0,0,1-4.413,3.721,4,4,0,0,1-4.184-4.047" transform="translate(-207.345 -63.741)" fill="#221914"/>
      </g>
      <g id="Group_984334" data-name="Group 984334" transform="translate(1262.413 7056.257)" clip-path="url(#clip-path-9)">
        <path id="Path_212107" data-name="Path 212107" d="M536.361,169.216a3.215,3.215,0,1,1-1.58-4.263,3.215,3.215,0,0,1,1.58,4.263" transform="translate(-527.519 -162.822)" fill="#e275c2"/>
      </g>
      <g id="Group_984336" data-name="Group 984336" transform="translate(944 6958.372)" clip-path="url(#clip-path)">
        <path id="Path_212109" data-name="Path 212109" d="M548.347,131.3s-4.99-9.4-3.181-19.614c0,0-15.234,2.555-24.043-.25,0,0,2.069-12.566,22.559-10.941,28.059,2.225,19.858,32.125,6.478,37.242Z" transform="translate(-205.517 -39.573)" fill="#221914"/>
        <path id="Path_212110" data-name="Path 212110" d="M579.129,150.552a7.487,7.487,0,1,1-5.654-8.952,7.487,7.487,0,0,1,5.654,8.952" transform="translate(-222.56 -55.77)" fill="#9b5e4e"/>
        <path id="Path_212111" data-name="Path 212111" d="M577.7,149.716s-5.588-1.177-6.609,4.953" transform="translate(-225.223 -59.008)" fill="none" stroke="#2f1a2a" stroke-linecap="round" stroke-linejoin="round" stroke-width="1.012"/>
        <path id="Path_212112" data-name="Path 212112" d="M480.21,280.027v35.961l-16.866,29.548,16.575-1.956,20.094-19.41-2.158-42.337Z" transform="translate(-182.73 -110.435)" fill="#9b5e4e"/>
        <path id="Path_212113" data-name="Path 212113" d="M500.253,221.747s-13.081,7.636-15.179,26.517v26.849l21.35-.73Z" transform="translate(-191.3 -87.451)" fill="#f46eab"/>
        <path id="Path_212114" data-name="Path 212114" d="M525.2,211.63s-10.715,2.045-16.1,6.127l-1.591,96.427c34.416,20.758,73.766.606,73.766.606L570.6,218.255s-1.394-5.442-16.35-6.606Z" transform="translate(-200.149 -83.461)" fill="#f46eab"/>
        <path id="Path_212115" data-name="Path 212115" d="M565.733,210.869s-12.343-2.725-29.054-.019c0,0-1.587,9.934,11.833,10.353,14.535.454,17.221-10.334,17.221-10.334" transform="translate(-211.629 -82.681)" fill="#9b5e4e"/>
        <line id="Line_1660" data-name="Line 1660" x1="0.127" y1="33.822" transform="translate(307.967 153.839)" fill="none" stroke="#e03f90" stroke-linecap="round" stroke-linejoin="round" stroke-width="1.7"/>
        <path id="Path_212116" data-name="Path 212116" d="M535.154,291.483a14.646,14.646,0,0,0-10.895-8.654l-5.985-5.878a2.611,2.611,0,0,0-3.949,3.388l2.948,4.094-1.616-.7a12.411,12.411,0,0,1-6.013-5.505l-3.777-7a2.481,2.481,0,0,0-4.5,2.071l3.783,9.8a14.136,14.136,0,0,0,8.322,8.183l19.118,8.5Z" transform="translate(-197.66 -106.453)" fill="#9b5e4e"/>
        <path id="Path_212117" data-name="Path 212117" d="M555.6,305.518l53.165,20.342c4.6,1.988,6.825,9.814,4.77,14.384A8.98,8.98,0,0,1,600.315,344l-47.281-30.175Z" transform="translate(-218.102 -120.488)" fill="#9b5e4e"/>
        <path id="Path_212118" data-name="Path 212118" d="M633.672,324.9l-5.56-42.969-25.785-1.907,9.035,38.288Z" transform="translate(-237.541 -110.435)" fill="#9b5e4e"/>
        <path id="Path_212119" data-name="Path 212119" d="M596.946,214.719s32.223,5.309,36.026,57.622H593.346l-2.607-33.852Z" transform="translate(-232.972 -84.679)" fill="#f46eab"/>
        <path id="Path_212120" data-name="Path 212120" d="M601.488,292.274h-7.464l-4.635-27.011" transform="translate(-232.44 -104.613)" fill="none" stroke="#e03f90" stroke-linecap="round" stroke-linejoin="round" stroke-width="1.7"/>
      </g>
      <rect id="Rectangle_339478" data-name="Rectangle 339478" width="400" height="246.373" transform="translate(944 6958.372)" fill="none"/>
    </g>
  </g>
</svg>
