<svg xmlns="http://www.w3.org/2000/svg" xmlns:xlink="http://www.w3.org/1999/xlink" width="78" height="78" viewBox="0 0 78 78">
  <defs>
    <clipPath id="clip-path">
      <rect id="Rectangle_339760" data-name="Rectangle 339760" width="45" height="45" transform="translate(-783 -8682)" fill="#fff" stroke="#707070" stroke-width="1"/>
    </clipPath>
    <clipPath id="clip-path-2">
      <path id="path3024" d="M0-45H45V0H0Z"/>
    </clipPath>
  </defs>
  <g id="_11" data-name="11" transform="translate(799 8699)">
    <circle id="Ellipse_4942" data-name="Ellipse 4942" cx="39" cy="39" r="39" transform="translate(-799 -8699)" fill="#6b8dfc"/>
    <g id="Mask_Group_637" data-name="Mask Group 637" clip-path="url(#clip-path)">
      <g id="g3018" transform="translate(-783 -8637)">
        <g id="g3020">
          <g id="g3022" clip-path="url(#clip-path-2)">
            <g id="g3028" transform="translate(44.341 -11.237)">
              <path id="path3030" d="M0,0H-43.682V-5.16a1.758,1.758,0,0,1,1.758-1.758H0Z" fill="#fff0ac"/>
            </g>
            <path id="path3032" d="M41.7-11.237h2.637v-6.918H41.7Z" fill="#ffea76"/>
            <g id="g3034" transform="translate(2.208 -12.787)">
              <path id="path3036" d="M0,0H40.583a1.549,1.549,0,1,1,0,3.1H0A1.549,1.549,0,0,1-1.549,1.549,1.549,1.549,0,0,1,0,0" fill="#ffea76"/>
            </g>
            <g id="g3038" transform="translate(42.791 -12.787)">
              <path id="path3040" d="M0,0H-2.637A1.549,1.549,0,0,1-1.087,1.549,1.549,1.549,0,0,1-2.637,3.1H0A1.549,1.549,0,0,0,1.549,1.549,1.549,1.549,0,0,0,0,0" fill="#fad169"/>
            </g>
            <g id="g3042" transform="translate(12.7 -11.237)">
              <path id="path3044" d="M0,0A4.7,4.7,0,0,1-4.7,4.7,4.7,4.7,0,0,1-9.4,0,4.7,4.7,0,0,1-4.7-4.7,4.7,4.7,0,0,1,0,0" fill="#3c6d92"/>
            </g>
            <g id="g3046" transform="translate(7.998 -15.94)">
              <path id="path3048" d="M0,0A4.7,4.7,0,0,0-1.318.189,4.7,4.7,0,0,1,2.065,4.7,4.7,4.7,0,0,1-1.318,9.216,4.7,4.7,0,0,0,0,9.4,4.7,4.7,0,0,0,4.7,4.7,4.7,4.7,0,0,0,0,0" fill="#345e80"/>
            </g>
            <g id="g3050" transform="translate(7.998 -9.172)">
              <path id="path3052" d="M0,0A2.068,2.068,0,0,1-2.065-2.065,2.068,2.068,0,0,1,0-4.131,2.068,2.068,0,0,1,2.065-2.065,2.068,2.068,0,0,1,0,0" fill="#fff"/>
            </g>
            <g id="g3054" transform="translate(41.704 -11.237)">
              <path id="path3056" d="M0,0A4.7,4.7,0,0,1-4.7,4.7,4.7,4.7,0,0,1-9.4,0,4.7,4.7,0,0,1-4.7-4.7,4.7,4.7,0,0,1,0,0" fill="#3c6d92"/>
            </g>
            <g id="g3058" transform="translate(37.002 -15.94)">
              <path id="path3060" d="M0,0A4.7,4.7,0,0,0-1.318.189,4.7,4.7,0,0,1,2.065,4.7,4.7,4.7,0,0,1-1.318,9.216,4.7,4.7,0,0,0,0,9.4,4.7,4.7,0,0,0,4.7,4.7,4.7,4.7,0,0,0,0,0" fill="#345e80"/>
            </g>
            <g id="g3062" transform="translate(37.002 -9.172)">
              <path id="path3064" d="M0,0A2.068,2.068,0,0,1-2.065-2.065,2.068,2.068,0,0,1,0-4.131,2.068,2.068,0,0,1,2.065-2.065,2.068,2.068,0,0,1,0,0" fill="#fff"/>
            </g>
            <g id="g3066" transform="translate(39.129 -30.89)">
              <path id="path3068" d="M0,0V-4.938A2.637,2.637,0,0,0-2.637-7.575H-8.924a1.758,1.758,0,0,0-1.758,1.758V12.734H5.212V9.148L3.894,7.626,5.212,6.1V4.775A1.8,1.8,0,0,0,3.851,3.027L1.99,2.556A2.637,2.637,0,0,1,0,0" fill="#ffea76"/>
            </g>
            <g id="g3070" transform="translate(42.98 -27.863)">
              <path id="path3072" d="M0,0-1.861-.471a2.637,2.637,0,0,1-1.99-2.556V-7.965A2.637,2.637,0,0,0-6.488-10.6H-9.124A2.637,2.637,0,0,1-6.488-7.965v4.938A2.637,2.637,0,0,0-4.5-.471L-2.637,0A1.8,1.8,0,0,1-1.276,1.748V9.707H1.361V6.121L.043,4.6,1.361,3.078V1.748A1.8,1.8,0,0,0,0,0" fill="#fad169"/>
            </g>
            <g id="g3074" transform="translate(35.877 -28.78)">
              <path id="path3076" d="M0,0H-4.177a.615.615,0,0,1-.615-.615V-6.433a.615.615,0,0,1,.615-.615H0a.615.615,0,0,1,.615.615V-.615A.615.615,0,0,1,0,0" fill="#e6f6ff"/>
            </g>
            <g id="g3078" transform="translate(35.877 -35.828)">
              <path id="path3080" d="M0,0H-2.637a.615.615,0,0,1,.615.615V6.433a.615.615,0,0,1-.615.615H0a.615.615,0,0,0,.615-.615V.615A.615.615,0,0,0,0,0" fill="#c5e3ff"/>
            </g>
            <g id="g3082" transform="translate(25.811 -18.156)">
              <path id="path3084" d="M0,0V-18.551a1.758,1.758,0,0,0-1.758-1.758H-22.075a1.758,1.758,0,0,0-1.758,1.758V0Z" fill="#e6f6ff"/>
            </g>
            <g id="g3086" transform="translate(24.053 -38.465)">
              <path id="path3088" d="M0,0H-2.637A1.758,1.758,0,0,1-.879,1.758V20.309H1.758V1.758A1.758,1.758,0,0,0,0,0" fill="#c5e3ff"/>
            </g>
            <g id="g3090" transform="translate(44.341 -21.742)">
              <path id="path3092" d="M0,0H-1.943A1.522,1.522,0,0,1-3.465-1.522,1.522,1.522,0,0,1-1.943-3.043H0Z" fill="#f58a97"/>
            </g>
            <g id="g3094" transform="translate(42.397 -24.785)">
              <path id="path3096" d="M0,0A1.513,1.513,0,0,0-.693.168V2.875A1.514,1.514,0,0,0,0,3.043H1.943V0Z" fill="#f07281"/>
            </g>
            <g id="g3098" transform="translate(18.408 -21.03)">
              <path id="path3100" d="M0,0H-9.027l-1.318-10.649,6.016-2.637,5.648,2.637Z" fill="#d8ecfe"/>
            </g>
            <g id="g3102" transform="translate(14.078 -34.316)">
              <path id="path3104" d="M0,0-1.36.6,3.011,2.637,1.693,13.286H4.33L5.648,2.637Z" fill="#c5e3ff"/>
            </g>
            <g id="g3106" transform="translate(19.485 -29.654)">
              <path id="path3108" d="M0,0-5.4-2.635a.439.439,0,0,0-.386,0L-11.182,0a1.486,1.486,0,0,1-2.137-1.335,1.486,1.486,0,0,1,.834-1.335l6.509-3.178a.879.879,0,0,1,.771,0L1.3-2.67a1.486,1.486,0,0,1,.834,1.335A1.486,1.486,0,0,1,0,0" fill="#f58a97"/>
            </g>
            <g id="g3110" transform="translate(20.788 -32.323)">
              <path id="path3112" d="M0,0-6.509-3.178a.879.879,0,0,0-.771,0l-.933.455L-2.637,0A1.486,1.486,0,0,1-1.8,1.335h0a1.467,1.467,0,0,1-.328.931l.827.4A1.486,1.486,0,0,0,.834,1.335h0A1.486,1.486,0,0,0,0,0" fill="#f07281"/>
            </g>
            <g id="g3114" transform="translate(15.649 -21.03)">
              <path id="path3116" d="M0,0H-3.51V-4.477a.352.352,0,0,1,.352-.352H-.352A.352.352,0,0,1,0-4.477Z" fill="#3c6d92"/>
            </g>
            <g id="g3118" transform="translate(15.297 -25.858)">
              <path id="path3120" d="M0,0H-1.873a.352.352,0,0,1,.352.352V4.828H.352V.352A.352.352,0,0,0,0,0" fill="#345e80"/>
            </g>
            <g id="g3122" transform="translate(8.822 -18.156)">
              <path id="path3124" d="M0,0H35.519V6.918" fill="none" stroke="#000" stroke-linecap="round" stroke-linejoin="round" stroke-miterlimit="10" stroke-width="1.318"/>
            </g>
            <g id="g3126" transform="translate(0.659 -11.237)">
              <path id="path3128" d="M0,0V-5.16A1.758,1.758,0,0,1,1.758-6.918H5.087" fill="none" stroke="#000" stroke-linecap="round" stroke-linejoin="round" stroke-miterlimit="10" stroke-width="1.318"/>
            </g>
            <g id="g3130" transform="translate(41.442 -12.787)">
              <path id="path3132" d="M0,0H1.349a1.55,1.55,0,1,1,0,3.1H0" fill="none" stroke="#000" stroke-linecap="round" stroke-linejoin="round" stroke-miterlimit="10" stroke-width="1.318"/>
            </g>
            <g id="g3134" transform="translate(12.438 -12.787)">
              <path id="path3136" d="M0,0H20.123" fill="none" stroke="#000" stroke-linecap="round" stroke-linejoin="round" stroke-miterlimit="10" stroke-width="1.318"/>
            </g>
            <g id="g3138" transform="translate(32.562 -9.688)">
              <path id="path3140" d="M0,0H-20.123" fill="none" stroke="#000" stroke-linecap="round" stroke-linejoin="round" stroke-miterlimit="10" stroke-width="1.318"/>
            </g>
            <g id="g3142" transform="translate(3.558 -12.787)">
              <path id="path3144" d="M0,0H-1.349a1.542,1.542,0,0,0-1.1.454A1.544,1.544,0,0,0-2.9,1.55,1.549,1.549,0,0,0-1.349,3.1H0" fill="none" stroke="#000" stroke-linecap="round" stroke-linejoin="round" stroke-miterlimit="10" stroke-width="1.318"/>
            </g>
            <g id="g3146" transform="translate(12.7 -11.237)">
              <path id="path3148" d="M0,0A4.7,4.7,0,0,1-4.7,4.7,4.7,4.7,0,0,1-9.4,0,4.7,4.7,0,0,1-4.7-4.7,4.7,4.7,0,0,1,0,0Z" fill="none" stroke="#000" stroke-linecap="round" stroke-linejoin="round" stroke-miterlimit="10" stroke-width="1.318"/>
            </g>
            <g id="g3150" transform="translate(7.998 -9.172)">
              <path id="path3152" d="M0,0A2.068,2.068,0,0,1-2.065-2.065,2.068,2.068,0,0,1,0-4.131,2.068,2.068,0,0,1,2.065-2.065,2.068,2.068,0,0,1,0,0Z" fill="none" stroke="#000" stroke-linecap="round" stroke-linejoin="round" stroke-miterlimit="10" stroke-width="1.318"/>
            </g>
            <g id="g3154" transform="translate(41.704 -11.237)">
              <path id="path3156" d="M0,0A4.7,4.7,0,0,1-4.7,4.7,4.7,4.7,0,0,1-9.4,0,4.7,4.7,0,0,1-4.7-4.7,4.7,4.7,0,0,1,0,0Z" fill="none" stroke="#000" stroke-linecap="round" stroke-linejoin="round" stroke-miterlimit="10" stroke-width="1.318"/>
            </g>
            <g id="g3158" transform="translate(37.002 -9.172)">
              <path id="path3160" d="M0,0A2.068,2.068,0,0,1-2.065-2.065,2.068,2.068,0,0,1,0-4.131,2.068,2.068,0,0,1,2.065-2.065,2.068,2.068,0,0,1,0,0Z" fill="none" stroke="#000" stroke-linecap="round" stroke-linejoin="round" stroke-miterlimit="10" stroke-width="1.318"/>
            </g>
            <g id="g3162" transform="translate(28.447 -28.588)">
              <path id="path3164" d="M0,0V10.433H15.893V2.474A1.8,1.8,0,0,0,14.532.726L12.672.255A2.637,2.637,0,0,1,10.681-2.3V-7.24A2.637,2.637,0,0,0,8.045-9.876H1.758A1.758,1.758,0,0,0,0-8.118v5.042" fill="none" stroke="#000" stroke-linecap="round" stroke-linejoin="round" stroke-miterlimit="10" stroke-width="1.318"/>
            </g>
            <g id="g3166" transform="translate(35.877 -28.78)">
              <path id="path3168" d="M0,0H-4.177a.615.615,0,0,1-.615-.615V-6.433a.615.615,0,0,1,.615-.615H0a.615.615,0,0,1,.615.615V-.615A.615.615,0,0,1,0,0Z" fill="none" stroke="#000" stroke-linecap="round" stroke-linejoin="round" stroke-miterlimit="10" stroke-width="1.318"/>
            </g>
            <g id="g3170" transform="translate(25.811 -18.156)">
              <path id="path3172" d="M0,0V-18.551a1.758,1.758,0,0,0-1.758-1.758H-22.075a1.758,1.758,0,0,0-1.758,1.758V0" fill="none" stroke="#000" stroke-linecap="round" stroke-linejoin="round" stroke-miterlimit="10" stroke-width="1.318"/>
            </g>
            <g id="g3174" transform="translate(31.084 -26.4)">
              <path id="path3176" d="M0,0H1.477" fill="none" stroke="#000" stroke-linecap="round" stroke-linejoin="round" stroke-miterlimit="10" stroke-width="1.318"/>
            </g>
            <g id="g3178" transform="translate(44.341 -21.742)">
              <path id="path3180" d="M0,0H-1.943A1.522,1.522,0,0,1-3.465-1.522,1.522,1.522,0,0,1-1.943-3.043H0Z" fill="none" stroke="#000" stroke-linecap="round" stroke-linejoin="round" stroke-miterlimit="10" stroke-width="1.318"/>
            </g>
            <g id="g3182" transform="translate(19.476 -29.658)">
              <path id="path3184" d="M0,0-1.068,8.627H-10.1L-11.163,0" fill="none" stroke="#000" stroke-linecap="round" stroke-linejoin="round" stroke-miterlimit="10" stroke-width="1.318"/>
            </g>
            <g id="g3186" transform="translate(19.726 -21.03)">
              <path id="path3188" d="M0,0H-11.664" fill="none" stroke="#000" stroke-linecap="round" stroke-linejoin="round" stroke-miterlimit="10" stroke-width="1.318"/>
            </g>
            <g id="g3190" transform="translate(19.485 -29.654)">
              <path id="path3192" d="M0,0-5.4-2.635a.439.439,0,0,0-.386,0L-11.182,0a1.486,1.486,0,0,1-2.137-1.335,1.486,1.486,0,0,1,.834-1.335l6.509-3.178a.879.879,0,0,1,.771,0L1.3-2.67a1.486,1.486,0,0,1,.834,1.335A1.486,1.486,0,0,1,0,0Z" fill="none" stroke="#000" stroke-linecap="round" stroke-linejoin="round" stroke-miterlimit="10" stroke-width="1.318"/>
            </g>
            <g id="g3194" transform="translate(15.649 -21.03)">
              <path id="path3196" d="M0,0H-3.51V-4.477a.352.352,0,0,1,.352-.352H-.352A.352.352,0,0,1,0-4.477Z" fill="none" stroke="#000" stroke-linecap="round" stroke-linejoin="round" stroke-miterlimit="10" stroke-width="1.318"/>
            </g>
          </g>
        </g>
      </g>
    </g>
  </g>
</svg>
