<svg xmlns="http://www.w3.org/2000/svg" xmlns:xlink="http://www.w3.org/1999/xlink" width="78" height="78" viewBox="0 0 78 78">
  <defs>
    <clipPath id="clip-path">
      <rect id="Rectangle_339758" data-name="Rectangle 339758" width="45" height="45" transform="translate(1145 3018)" fill="#fff" stroke="#707070" stroke-width="1"/>
    </clipPath>
    <clipPath id="clip-path-2">
      <path id="path5415" d="M0-45H45V0H0Z"/>
    </clipPath>
  </defs>
  <g id="_9" data-name="9" transform="translate(-1129 -3001)">
    <circle id="Ellipse_4940" data-name="Ellipse 4940" cx="39" cy="39" r="39" transform="translate(1129 3001)" fill="#6b8dfc"/>
    <g id="Mask_Group_635" data-name="Mask Group 635" clip-path="url(#clip-path)">
      <g id="g5409" transform="translate(1145 3063)">
        <g id="g5411">
          <g id="g5413" clip-path="url(#clip-path-2)">
            <g id="g5419" transform="translate(30.594 -7.539)">
              <path id="path5421" d="M0,0C-2.547-8.066,3.426-12.852,2.107-22.608S-7.3-32.993-12.9-32.993s-13.692.629-15.011,10.385S-23.26-8.066-25.807,0" fill="#ffbf3e"/>
            </g>
            <g id="g5423" transform="translate(8.735 -30.146)">
              <path id="path5425" d="M0,0C-.787,9.756,2.776,14.542,1.257,22.608h-5.2C-1.4,14.542-7.373,9.756-6.055,0-4.749-9.664,3.2-10.373,8.8-10.384,5.462-10.363.774-9.6,0,0" fill="#e8a328"/>
            </g>
            <g id="g5427" transform="translate(29.49 -2.564)">
              <path id="path5429" d="M0,0V1.486H-23.6V0A11.8,11.8,0,0,1-11.8-11.8a11.868,11.868,0,0,1,2.681.306,11.788,11.788,0,0,1,5.663,3.15A11.765,11.765,0,0,1,0,0" fill="#e22b2b"/>
            </g>
            <g id="g5431" transform="translate(29.49 -2.564)">
              <path id="path5433" d="M0,0V1.486H-18.236V0A11.8,11.8,0,0,1-9.119-11.493a11.788,11.788,0,0,1,5.663,3.15A11.765,11.765,0,0,1,0,0" fill="#f94141"/>
            </g>
            <g id="g5435" transform="translate(11.813 -10.465)">
              <path id="path5437" d="M0,0A5.871,5.871,0,0,0,1.707,3.676,5.881,5.881,0,0,0,5.878,5.4,5.9,5.9,0,0,0,11.756,0" fill="#e8b182"/>
            </g>
            <g id="g5439" transform="translate(29.49 -25.752)">
              <path id="path5441" d="M0,0V5.055A11.8,11.8,0,0,1-9.558,16.64a11.838,11.838,0,0,1-2.241.213,11.8,11.8,0,0,1-11.8-11.8V.352a12.231,12.231,0,0,0,4.482-1.994,5.159,5.159,0,0,0,2.238-4.152C-16.879-5.578-16.716,0,0,0" fill="#e8b182"/>
            </g>
            <g id="g5443" transform="translate(29.49 -25.752)">
              <path id="path5445" d="M0,0V5.055A11.8,11.8,0,0,1-9.558,16.64,11.8,11.8,0,0,1-19.116,5.055v-6.7a5.159,5.159,0,0,0,2.238-4.152C-16.879-5.578-16.716,0,0,0" fill="#ffd0a6"/>
            </g>
            <g id="g5447" transform="translate(14.443 -17.345)">
              <path id="path5449" d="M0,0A4.593,4.593,0,0,0,6.5,0" fill="none" stroke="#000" stroke-linecap="round" stroke-linejoin="round" stroke-miterlimit="10" stroke-width="1.318"/>
            </g>
            <g id="g5451" transform="translate(14.896 -22.608)">
              <path id="path5453" d="M0,0A3.691,3.691,0,0,0-5.22,0" fill="none" stroke="#000" stroke-linecap="round" stroke-linejoin="round" stroke-miterlimit="10" stroke-width="1.318"/>
            </g>
            <g id="g5455" transform="translate(25.706 -22.608)">
              <path id="path5457" d="M0,0A3.691,3.691,0,0,0-5.22,0" fill="none" stroke="#000" stroke-linecap="round" stroke-linejoin="round" stroke-miterlimit="10" stroke-width="1.318"/>
            </g>
            <g id="g5459" transform="translate(11.813 -10.465)">
              <path id="path5461" d="M0,0A5.871,5.871,0,0,0,1.707,3.676,5.881,5.881,0,0,0,5.878,5.4,5.9,5.9,0,0,0,11.756,0" fill="none" stroke="#000" stroke-linecap="round" stroke-linejoin="round" stroke-miterlimit="10" stroke-width="1.318"/>
            </g>
            <g id="g5463" transform="translate(12.611 -31.547)">
              <path id="path5465" d="M0,0C0,.21.152,5.436,15.295,5.777" fill="none" stroke="#000" stroke-linecap="round" stroke-linejoin="round" stroke-miterlimit="10" stroke-width="1.318"/>
            </g>
            <g id="g5467" transform="translate(29.49 -21.988)">
              <path id="path5469" d="M0,0V1.291A11.8,11.8,0,0,1-9.558,12.877a11.837,11.837,0,0,1-2.241.213,11.8,11.8,0,0,1-11.8-11.8v-4.7a12.23,12.23,0,0,0,4.481-1.994,5.159,5.159,0,0,0,2.238-4.152v-.006" fill="none" stroke="#000" stroke-linecap="round" stroke-linejoin="round" stroke-miterlimit="10" stroke-width="1.318"/>
            </g>
            <g id="g5471" transform="translate(4.679 -16.502)">
              <path id="path5473" d="M0,0C-1.055-3.949-2.769-7.95-2-13.644-.681-23.4,7.4-24.029,13.011-24.029a25.971,25.971,0,0,1,7.086.775" fill="none" stroke="#000" stroke-linecap="round" stroke-linejoin="round" stroke-miterlimit="10" stroke-width="1.318"/>
            </g>
            <g id="g5475" transform="translate(6.988 -7.538)">
              <path id="path5477" d="M0,0H-2.2A13.538,13.538,0,0,0-1.73-6.269" fill="none" stroke="#000" stroke-linecap="round" stroke-linejoin="round" stroke-miterlimit="10" stroke-width="1.318"/>
            </g>
            <g id="g5479" transform="translate(32.597 -23.796)">
              <path id="path5481" d="M0,0C-.977,5.925-3.931,10.151-2,16.257H-4.2" fill="none" stroke="#000" stroke-linecap="round" stroke-linejoin="round" stroke-miterlimit="10" stroke-width="1.318"/>
            </g>
            <g id="g5483" transform="translate(25.241 -11.631)">
              <path id="path5485" d="M0,0Q.413.343.793.723A11.765,11.765,0,0,1,4.249,9.067v1.486h-23.6V9.067A11.774,11.774,0,0,1-15.1,0" fill="none" stroke="#000" stroke-linecap="round" stroke-linejoin="round" stroke-miterlimit="10" stroke-width="1.318"/>
            </g>
            <g id="g5487" transform="translate(42.688 -34.25)">
              <path id="path5489" d="M0,0A9.808,9.808,0,0,0-9.715-9.807a9.84,9.84,0,0,0-9.9,9.7,9.8,9.8,0,0,0,4.633,8.443,1.6,1.6,0,0,1,.707,1.768l-.359,1.336a.842.842,0,0,0,1.255.936l1.849-1.139A14.145,14.145,0,0,1-7.472,9.527,9.811,9.811,0,0,0,0,0" fill="#e4e4ef"/>
            </g>
            <g id="g5491" transform="translate(39.842 -27.342)">
              <path id="path5493" d="M0,0A9.775,9.775,0,0,0,2.846-6.908a9.808,9.808,0,0,0-9.715-9.807,9.84,9.84,0,0,0-9.9,9.7,9.8,9.8,0,0,0,4.633,8.443,1.6,1.6,0,0,1,.707,1.768l-.359,1.336a.842.842,0,0,0,1.255.935l1.849-1.139A14.149,14.149,0,0,1-4.626,2.619a9.741,9.741,0,0,0,2.512-1" fill="none" stroke="#000" stroke-linecap="round" stroke-linejoin="round" stroke-miterlimit="10" stroke-width="1.318"/>
            </g>
            <g id="g5495" transform="translate(32.88 -37.004)">
              <path id="path5497" d="M0,0A2.4,2.4,0,0,1,4.394.47c.756,2.4-.524,5.267-4.394,7-3.871-1.735-5.15-4.6-4.394-7A2.4,2.4,0,0,1,0,0" fill="#f94141"/>
            </g>
            <g id="g5499" transform="translate(32.88 -37.004)">
              <path id="path5501" d="M0,0A2.4,2.4,0,0,1,4.394.47c.756,2.4-.524,5.267-4.394,7-3.871-1.735-5.15-4.6-4.394-7A2.4,2.4,0,0,1,0,0Z" fill="none" stroke="#000" stroke-linecap="round" stroke-linejoin="round" stroke-miterlimit="10" stroke-width="1.318"/>
            </g>
            <g id="g5503" transform="translate(25.162 -19.482)">
              <path id="path5505" d="M0,0H1.465" fill="none" stroke="#000" stroke-linecap="round" stroke-linejoin="round" stroke-miterlimit="10" stroke-width="1.318"/>
            </g>
            <g id="g5507" transform="translate(8.756 -19.482)">
              <path id="path5509" d="M0,0H1.465" fill="none" stroke="#000" stroke-linecap="round" stroke-linejoin="round" stroke-miterlimit="10" stroke-width="1.318"/>
            </g>
          </g>
        </g>
      </g>
    </g>
  </g>
</svg>
