<svg xmlns="http://www.w3.org/2000/svg" xmlns:xlink="http://www.w3.org/1999/xlink" width="127" height="127" viewBox="0 0 127 127">
  <defs>
    <clipPath id="clip-path">
      <rect id="Rectangle_339644" data-name="Rectangle 339644" width="127" height="127" transform="translate(264 614)" fill="#fff" stroke="#707070" stroke-width="1"/>
    </clipPath>
  </defs>
  <g id="_1" data-name="1" transform="translate(-264 -614)" clip-path="url(#clip-path)">
    <g id="lluvia" transform="translate(264 614)">
      <g id="Group_984697" data-name="Group 984697">
        <path id="Path_212645" data-name="Path 212645" d="M118.181,52.044a7.141,7.141,0,0,0-1.061.079A22.779,22.779,0,0,0,96.9,36.292a28.082,28.082,0,0,0-4.574-14.018L79.513,16.258,67.493,14.5,49.534,31.151l-16.317,2.3L22.267,49.658,10.659,52.4,5.951,56.666l4.818,8.7.329.556a10.376,10.376,0,0,0,1.043.052h106.04a6.964,6.964,0,1,0,0-13.927Z" fill="#a6e7f0"/>
        <g id="Group_984695" data-name="Group 984695">
          <path id="Path_212646" data-name="Path 212646" d="M11.471,65.3a10.286,10.286,0,0,1,13.2-9.867,1.8,1.8,0,0,0,2.325-1.728c0-.022,0-.043,0-.064A17.092,17.092,0,0,1,49.957,37.6a1.784,1.784,0,0,0,2.256-1.013A28.246,28.246,0,0,1,92.892,23.171a28.243,28.243,0,0,0-50.934,5.5A17.088,17.088,0,0,0,17.377,44.026,17.292,17.292,0,0,0,17.639,47a10.235,10.235,0,0,0-5.7-1.6,10.286,10.286,0,0,0-.448,20.549c-.013-.214-.022-.429-.022-.647Z" fill="#6bd9e7"/>
        </g>
        <g id="Group_984696" data-name="Group 984696">
          <path id="Path_212647" data-name="Path 212647" d="M64.956,93.085A5.2,5.2,0,1,1,57.6,85.732c1.5-1.5,5.793-1.787,7.939-1.834a1.219,1.219,0,0,1,1.248,1.248C66.743,87.292,66.455,91.587,64.956,93.085Z" fill="#a6e7f0"/>
          <path id="Path_212648" data-name="Path 212648" d="M45.01,115.971a5.2,5.2,0,0,1-7.353-7.353c1.5-1.5,5.793-1.787,7.939-1.834a1.219,1.219,0,0,1,1.248,1.248c-.048,2.146-.336,6.44-1.835,7.939Z" fill="#a6e7f0"/>
          <path id="Path_212649" data-name="Path 212649" d="M80.028,115.971a5.2,5.2,0,0,1-7.353-7.353c1.5-1.5,5.793-1.787,7.939-1.834a1.219,1.219,0,0,1,1.248,1.248c-.048,2.146-.336,6.44-1.835,7.939Z" fill="#a6e7f0"/>
          <path id="Path_212650" data-name="Path 212650" d="M98.5,93.085a5.2,5.2,0,0,1-7.353-7.353c1.5-1.5,5.793-1.787,7.939-1.834a1.219,1.219,0,0,1,1.248,1.248c-.048,2.146-.336,6.44-1.835,7.939Z" fill="#a6e7f0"/>
          <path id="Path_212651" data-name="Path 212651" d="M34.3,93.085a5.2,5.2,0,0,1-7.353-7.353c1.5-1.5,5.793-1.787,7.939-1.834a1.219,1.219,0,0,1,1.248,1.248c-.048,2.146-.336,6.44-1.835,7.939Z" fill="#a6e7f0"/>
        </g>
      </g>
      <g id="Group_984698" data-name="Group 984698">
        <path id="Path_212652" data-name="Path 212652" d="M118.409,50.192A24.645,24.645,0,0,0,98.629,34.6,30.095,30.095,0,0,0,54.762,11.074a1.854,1.854,0,1,0,1.721,3.285,26.075,26.075,0,0,1,12.22-3A26.352,26.352,0,0,1,94.878,34.439H81.368a1.854,1.854,0,0,0,0,3.709H96.827a21.03,21.03,0,0,1,18.526,14.536,1.852,1.852,0,0,0,2.047,1.273,5.192,5.192,0,0,1,.782-.059,5.11,5.11,0,1,1,0,10.221H103.614a1.854,1.854,0,0,0,0,3.709h14.567a8.819,8.819,0,0,0,.228-17.635Z"/>
        <path id="Path_212653" data-name="Path 212653" d="M97.566,65.972a1.854,1.854,0,0,0-1.854-1.854H12.141A8.432,8.432,0,1,1,16.647,48.56a1.854,1.854,0,0,0,2.819-1.886,15.219,15.219,0,0,1,15-17.88,15.085,15.085,0,0,1,6.68,1.541,1.854,1.854,0,0,0,2.571-1.071,26.49,26.49,0,0,1,6.771-10.6,1.854,1.854,0,1,0-2.562-2.681A30.288,30.288,0,0,0,40.906,26.21,18.952,18.952,0,0,0,15.523,44.025a12.141,12.141,0,1,0-3.382,23.8H95.712A1.854,1.854,0,0,0,97.566,65.972Z"/>
        <path id="Path_212654" data-name="Path 212654" d="M65.5,82.044c-4.637.1-7.735.9-9.209,2.377A7.054,7.054,0,0,0,66.267,94.4h0c1.473-1.474,2.273-4.572,2.377-9.209A3.075,3.075,0,0,0,65.5,82.044Zm-1.856,9.73h0a3.345,3.345,0,1,1-4.73-4.73c.529-.529,2.615-1.13,6-1.271C64.775,89.159,64.174,91.245,63.645,91.774Z"/>
        <path id="Path_212655" data-name="Path 212655" d="M45.555,104.93c-4.637.1-7.735.9-9.209,2.377a7.054,7.054,0,0,0,9.975,9.975c1.474-1.474,2.273-4.572,2.377-9.209a3.074,3.074,0,0,0-3.143-3.143ZM43.7,114.66a3.345,3.345,0,1,1-4.731-4.73c.529-.529,2.616-1.13,6-1.271-.141,3.385-.741,5.472-1.271,6Z"/>
        <path id="Path_212656" data-name="Path 212656" d="M80.573,104.93c-4.637.1-7.735.9-9.209,2.377a7.054,7.054,0,0,0,9.976,9.975c1.474-1.474,2.273-4.572,2.377-9.209a3.074,3.074,0,0,0-3.143-3.144Zm-1.856,9.73a3.345,3.345,0,0,1-4.731-4.73c.529-.529,2.616-1.13,6-1.271C79.846,112.044,79.246,114.13,78.717,114.66Z"/>
        <path id="Path_212657" data-name="Path 212657" d="M99.049,82.044c-4.637.1-7.735.9-9.209,2.377A7.054,7.054,0,0,0,99.815,94.4h0c1.473-1.474,2.273-4.572,2.377-9.209a3.075,3.075,0,0,0-3.144-3.143Zm-1.856,9.73a3.345,3.345,0,1,1-4.73-4.73c.529-.529,2.615-1.13,6-1.271C98.323,89.159,97.722,91.245,97.193,91.774Z"/>
        <path id="Path_212658" data-name="Path 212658" d="M35.611,94.4c1.474-1.474,2.274-4.572,2.377-9.209a3.074,3.074,0,0,0-3.143-3.144c-4.637.1-7.736.9-9.209,2.377A7.054,7.054,0,1,0,35.611,94.4h0Zm-2.622-2.623h0a3.345,3.345,0,1,1-4.73-4.73c.529-.529,2.616-1.13,6-1.271-.141,3.385-.742,5.472-1.271,6Z"/>
        <path id="Path_212659" data-name="Path 212659" d="M54.085,73.82a1.855,1.855,0,0,0-2.622,0L48,77.286a1.854,1.854,0,0,0,2.622,2.623l3.465-3.465a1.854,1.854,0,0,0,0-2.623Z"/>
        <path id="Path_212660" data-name="Path 212660" d="M83.522,73.82l-3.465,3.465a1.854,1.854,0,0,0,2.623,2.623l3.465-3.465a1.854,1.854,0,0,0-2.623-2.623Z"/>
        <path id="Path_212661" data-name="Path 212661" d="M59.63,103.427l-2.723,2.723a1.854,1.854,0,0,0,2.622,2.623l2.723-2.723a1.854,1.854,0,1,0-2.622-2.623Z"/>
        <path id="Path_212662" data-name="Path 212662" d="M22.718,104.788l-3.153,3.153a1.854,1.854,0,0,0,2.622,2.623l3.153-3.153a1.854,1.854,0,0,0-2.622-2.623Z"/>
        <path id="Path_212663" data-name="Path 212663" d="M94.4,104.788l-3.153,3.153a1.854,1.854,0,0,0,2.623,2.623l3.153-3.153a1.854,1.854,0,0,0-2.623-2.623Z"/>
      </g>
    </g>
  </g>
</svg>
