<svg xmlns="http://www.w3.org/2000/svg" xmlns:xlink="http://www.w3.org/1999/xlink" width="293.255" height="323.072" viewBox="0 0 293.255 323.072">
  <defs>
    <clipPath id="clip-path">
      <path id="Trazado_180078" data-name="Trazado 180078" d="M101.267-65.145c-4.5,0-27.358,4.549-39.123,15.453-11,10.2-2.366,23.108-2.366,23.108S52.787-14.9,51.952-5.023c-.557,6.6,5.925,11.878,2.405,13.419A130.249,130.249,0,1,0,218.98,193.688c1.34-2.27,3.111-.805,5.558,0,3.656,1.194,8.484,3.39,11.451,0,8.163-9.328,21.4-25.213,21.827-41.655.018-.663,1.729-23.467,1.729-24.336,0-20.215-3.011-105.488-3.011-105.488S239.989,19.542,227.983,8.4c-2.458-2.282-38.049,19.163-40.991,16.838-2.7-2.136-5.77-4.358-8.935-6.449-3.109-2.055-6.5-4.086-10-5.965-8.025-4.319,8.759-16.66,0-28.08-4.418-5.761-6.824-24.232-16.528-34.431C138.4-63.5,108.519-65.145,101.267-65.145Z" transform="translate(23.568 65.145)" fill="#fed947"/>
    </clipPath>
    <clipPath id="clip-path-2">
      <path id="Trazado_212571" data-name="Trazado 212571" d="M128.058,97.327s-3.547-8.681-14.507-.526C113.551,96.8,119.508,104.342,128.058,97.327Z" transform="translate(-113.551 -93.308)" fill="#fff"/>
    </clipPath>
    <clipPath id="clip-path-3">
      <path id="Trazado_212575" data-name="Trazado 212575" d="M129.027,97.054s2.315-9.4,9.648-4.115C138.675,92.94,136.036,101.909,129.027,97.054Z" transform="translate(-129.027 -91.328)" fill="#fff"/>
    </clipPath>
  </defs>
  <g id="Grupo_174381" data-name="Grupo 174381" transform="translate(0)">
    <ellipse id="Elipse_4864" data-name="Elipse 4864" cx="130.23" cy="130.231" rx="130.23" ry="130.231" transform="translate(10.142 62.611)" fill="#fed947"/>
    <g id="Grupo_174380" data-name="Grupo 174380" transform="translate(0 65.926)">
      <g id="Grupo_174380-2" data-name="Grupo 174380" transform="translate(40.718)">
        <path id="Trazado_180079" data-name="Trazado 180079" d="M791.528,517c.027,0,.055.006.083.008a.978.978,0,0,0,1.033-.92c.52-9.082-2.389-18.71-9.154-30.3-1.779-3.047-3.705-6.07-5.568-8.994-3.687-5.788-7.5-11.772-10.272-18.125-9.733-22.307-6.6-47.967-1.773-72.374a.978.978,0,1,0-1.919-.379c-4.892,24.718-8.049,50.735,1.9,73.535,2.833,6.493,6.688,12.543,10.416,18.394,1.853,2.908,3.769,5.915,5.528,8.929,6.563,11.243,9.388,20.523,8.891,29.2a.978.978,0,0,0,.837,1.024" transform="translate(-738.772 -361.214)" fill="#3c3fa7"/>
        <path id="Trazado_180080" data-name="Trazado 180080" d="M823.31,307.264c1.017-1.7,2.56-3.415,4.537-3.372a4.145,4.145,0,0,1,3.409,2.37,8.6,8.6,0,0,1,.737,4.248c-.123,3.431-6.575,22.644-10.779,19.87-2.532-1.671-1.671-9.2-1.436-11.736a26.869,26.869,0,0,1,3.532-11.38" transform="translate(-795.77 -303.891)" fill="#3c3fa7"/>
        <path id="Trazado_180081" data-name="Trazado 180081" d="M812.85,393.869a7.783,7.783,0,0,1,3.982-.586,3.675,3.675,0,0,1,2.99,2.436,3.734,3.734,0,0,1-1.081,3.463,8.857,8.857,0,0,1-3.241,1.92c-1.583.614-3.215,1.093-4.844,1.57l-7.1,2.08a1.183,1.183,0,0,1-.352.065.82.82,0,0,1-.686-.912c.153-2.1,2.6-4.652,4.032-6.034a18.381,18.381,0,0,1,6.3-4" transform="translate(-778.704 -366.918)" fill="#3c3fa7"/>
        <path id="Trazado_180082" data-name="Trazado 180082" d="M870,384.808c-1.06-1.306-2.388-2.589-4.061-2.767a2.751,2.751,0,0,0-1.315.156,2.627,2.627,0,0,0-1.221,1.074,4.382,4.382,0,0,0,.185,4.357,12.907,12.907,0,0,0,3.112,3.32l5.571,4.686c.616.518,1.783,1.982,2.411,1.415a5.5,5.5,0,0,0,.307-2.129c-.059-3.473-2.887-7.523-4.99-10.112" transform="translate(-851.547 -359.023)" fill="#3c3fa7"/>
        <path id="Trazado_180083" data-name="Trazado 180083" d="M807.149,447.691a20.518,20.518,0,0,1,7.232-3.768,4.617,4.617,0,0,1,3.523.306c1.637,1.044,1.739,3.543.736,5.2a11.383,11.383,0,0,1-4.46,3.636L798.489,461.9c-.192-6.213,3.946-10.76,8.66-14.21" transform="translate(-776.881 -402.56)" fill="#3c3fa7"/>
        <path id="Trazado_180084" data-name="Trazado 180084" d="M879.946,436.661a14.643,14.643,0,0,0-5.41-4.642,6.387,6.387,0,0,0-3.72-.592,3.757,3.757,0,0,0-2.88,2.25c-.674,1.839.519,3.81,1.793,5.3A67.6,67.6,0,0,0,884.4,451.583a1.381,1.381,0,0,0,.621.267.91.91,0,0,0,.835-.545,2.034,2.034,0,0,0,.14-1.037,14.293,14.293,0,0,0-1.06-3.19c-.357-1.179-.461-2.394-.936-3.573a29.735,29.735,0,0,0-4.054-6.843" transform="translate(-863.988 -393.831)" fill="#3c3fa7"/>
        <path id="Trazado_180085" data-name="Trazado 180085" d="M829.708,512.529a3.471,3.471,0,0,1,2.706-.822,2.614,2.614,0,0,1,1.714,2.668,7.343,7.343,0,0,1-1.128,3.2c-2.5,4.587-6.276,13.372-10.82,16.035-4.3-6.392,2.144-17.329,7.528-21.084" transform="translate(-798.285 -450.491)" fill="#3c3fa7"/>
        <path id="Trazado_180086" data-name="Trazado 180086" d="M880.616,510.106c-3.22-1.546-6.936-2.726-10.322-1.589a3.737,3.737,0,0,0-1.879,1.217,3.206,3.206,0,0,0,.236,3.672,7.871,7.871,0,0,0,3.158,2.278,43.829,43.829,0,0,0,9.143,2.951c1.27.28,7.853,2.224,8.666,1.29,1.178-1.354-1.681-4.614-2.43-5.383a22.825,22.825,0,0,0-6.572-4.435" transform="translate(-867.938 -447.962)" fill="#3c3fa7"/>
        <path id="Trazado_180087" data-name="Trazado 180087" d="M796.569,613.9a14.328,14.328,0,0,1,4.056-7,4.681,4.681,0,0,1,3.493-1.447,3.852,3.852,0,0,1,3.046,3.152,9.1,9.1,0,0,1-.528,4.6,30.927,30.927,0,0,1-7.122,11.9c-.57.592-1.47,1.193-2.132.707-2.946-2.165-1.548-9.177-.814-11.912" transform="translate(-764.027 -516.668)" fill="#3c3fa7"/>
        <path id="Trazado_180088" data-name="Trazado 180088" d="M857.433,605.112a19.378,19.378,0,0,0-8.5-1.052,3.857,3.857,0,0,0-3.144,1.977,3.07,3.07,0,0,0,.834,3.159,7.984,7.984,0,0,0,2.977,1.7,201.536,201.536,0,0,0,19.761,5.813c.037-7.018-5.963-9.827-11.924-11.6" transform="translate(-840.828 -515.598)" fill="#3c3fa7"/>
      </g>
      <path id="Trazado_180089" data-name="Trazado 180089" d="M279.9,383.211c-1.393-.459-3.055-.68-4.217.216a3.322,3.322,0,0,0-1.142,2.907,6.249,6.249,0,0,0,1.216,2.982c3.066,4.388,8.7,6.627,12.619,10.169,2.747,2.482,2.568-1.827,2.162-3.817a16.983,16.983,0,0,0-3.362-7.311,15.758,15.758,0,0,0-7.275-5.145" transform="translate(-73.418 -335.524)" fill="#3c3fa7"/>
      <path id="Trazado_180111" data-name="Trazado 180111" d="M10.869.4c1.393-.459,3.055-.68,4.217.216a3.322,3.322,0,0,1,1.142,2.907A6.249,6.249,0,0,1,15.012,6.5c-3.066,4.389-8.7,6.627-12.619,10.169C-.353,19.155-.174,14.846.232,12.856A16.984,16.984,0,0,1,3.594,5.545,15.758,15.758,0,0,1,10.869.4" transform="matrix(0.875, -0.485, 0.485, 0.875, 27.059, 130.648)" fill="#3c3fa7"/>
      <path id="Trazado_180090" data-name="Trazado 180090" d="M258.675,432.425a.831.831,0,0,0,.756-1.257c-8.761-14.625-8.08-31.977-5.966-43.957,2.056-11.652,6.129-23.039,10.067-34.052,1.13-3.161,2.3-6.429,3.4-9.656,4.6-13.439,9.14-29.323,7.95-45.239a.831.831,0,0,0-1.658.124c1.168,15.617-3.321,31.3-7.865,44.577-1.1,3.216-2.267,6.479-3.4,9.634-3.962,11.078-8.059,22.532-10.14,34.323-2.163,12.26-2.848,30.036,6.177,45.1a.83.83,0,0,0,.67.4" transform="translate(-51.708 -271.552)" fill="#3c3fa7"/>
      <path id="Trazado_180112" data-name="Trazado 180112" d="M16.4,134.93a.831.831,0,0,1-.756-1.257c8.761-14.625,8.08-31.977,5.966-43.957-2.056-11.652-6.129-23.039-10.067-34.052-1.13-3.161-2.3-6.429-3.4-9.656C3.543,32.57-1,16.685.192.769A.831.831,0,0,1,1.85.893C.683,16.51,5.171,32.19,9.715,45.47c1.1,3.216,2.267,6.478,3.4,9.634,3.962,11.078,8.059,22.532,10.139,34.323,2.163,12.26,2.848,30.036-6.177,45.1a.83.83,0,0,1-.67.4" transform="matrix(0.875, -0.485, 0.485, 0.875, 11.443, 114.898)" fill="#3c3fa7"/>
      <path id="Trazado_180091" data-name="Trazado 180091" d="M244.269,234.282a7.91,7.91,0,0,0-2.088-3.527,3.548,3.548,0,0,0-3.843-.675,4.65,4.65,0,0,0-2,2.982c-1.188,4.1-.581,8.524.612,12.625.82,2.819,1.649,6.306,3.083,8.872,1.743,3.119,3.125-1.39,3.746-3.22,1.856-5.465,2.363-11.524.487-17.056" transform="translate(-18.388 -220.77)" fill="#3c3fa7"/>
      <path id="Trazado_180113" data-name="Trazado 180113" d="M1.18,4.514A7.91,7.91,0,0,1,3.268.987,3.548,3.548,0,0,1,7.111.312a4.65,4.65,0,0,1,2,2.982c1.188,4.1.581,8.524-.612,12.625-.82,2.819-1.649,6.306-3.083,8.872-1.743,3.119-3.125-1.39-3.746-3.22C-.188,16.106-.7,10.047,1.18,4.514" transform="matrix(0.875, -0.485, 0.485, 0.875, 0, 101.869)" fill="#3c3fa7"/>
      <path id="Trazado_180092" data-name="Trazado 180092" d="M263.447,328.9c-1.332-.6-2.994-.982-4.171-.118a3.166,3.166,0,0,0-.7,3.819,7.408,7.408,0,0,0,2.941,2.925c3.492,2.206,7.67,3.634,10.158,6.931.319.423.99.88,1.264.427a.788.788,0,0,0,.079-.391c.148-5.2-4.487-12.032-9.568-13.591" transform="translate(-51.596 -294.635)" fill="#3c3fa7"/>
      <path id="Trazado_180114" data-name="Trazado 180114" d="M9.571.623C10.9.025,12.565-.359,13.742.5a3.166,3.166,0,0,1,.7,3.819A7.408,7.408,0,0,1,11.5,7.248c-3.492,2.206-7.67,3.634-10.158,6.931-.319.423-.99.88-1.264.427A.788.788,0,0,1,0,14.214C-.145,9.018,4.49,2.182,9.571.623" transform="matrix(0.875, -0.485, 0.485, 0.875, 16.881, 120.691)" fill="#3c3fa7"/>
      <path id="Trazado_180093" data-name="Trazado 180093" d="M196.749,338.185a8.906,8.906,0,0,1,3.758-.54,4.313,4.313,0,0,1,3.2,1.849,3.518,3.518,0,0,1-1.6,4.9,7.08,7.08,0,0,1-2.841.295c-4.329-.114-8.825.179-12.663,2.185-.676-1.621,2.9-4.433,3.973-5.3a19.551,19.551,0,0,1,6.171-3.39" transform="translate(35.201 -301.63)" fill="#3c3fa7"/>
      <path id="Trazado_180115" data-name="Trazado 180115" d="M7.415.578A8.906,8.906,0,0,0,3.657.038a4.313,4.313,0,0,0-3.2,1.849,3.518,3.518,0,0,0,1.6,4.9A7.079,7.079,0,0,0,4.9,7.084c4.329-.114,8.824.179,12.663,2.185.676-1.621-2.9-4.433-3.973-5.3A19.552,19.552,0,0,0,7.415.578" transform="matrix(0.875, -0.485, 0.485, 0.875, 2.319, 131.43)" fill="#3c3fa7"/>
      <path id="Trazado_180094" data-name="Trazado 180094" d="M208.087,404.53c2.081-.118,4.452.252,5.652,1.956a2.144,2.144,0,0,1,.447,1.465c-.119.941-1.06,1.528-1.922,1.926-5.455,2.518-11.8,3.047-16.789,6.4a1.463,1.463,0,0,1-.866.349c-3.018-.2,2.2-7.257,2.994-7.942a17.674,17.674,0,0,1,10.483-4.152" transform="translate(23.376 -351.795)" fill="#3c3fa7"/>
      <path id="Trazado_180116" data-name="Trazado 180116" d="M6.111.02C4.03-.1,1.659.272.459,1.976A2.145,2.145,0,0,0,.012,3.441c.119.941,1.06,1.528,1.922,1.926,5.455,2.518,11.8,3.047,16.789,6.4a1.463,1.463,0,0,0,.866.349c3.018-.2-2.2-7.257-2.994-7.942A17.675,17.675,0,0,0,6.111.02" transform="matrix(0.875, -0.485, 0.485, 0.875, 12, 145.201)" fill="#3c3fa7"/>
      <path id="Trazado_180095" data-name="Trazado 180095" d="M307.57,441.553a9.47,9.47,0,0,0-3.656-1.53,4.268,4.268,0,0,0-3.682,1.1c-1.136,1.2-1.211,3.057-.9,4.676.71,3.644,2.994,6.785,5.524,9.5a49.506,49.506,0,0,0,9.539,7.96c.741.475,1.717.931,2.447.439a2.218,2.218,0,0,0,.743-1.219c2.683-8.253-3.152-16.589-10.02-20.932" transform="translate(-107.076 -378.385)" fill="#3c3fa7"/>
      <path id="Trazado_180117" data-name="Trazado 180117" d="M10.687,1.58A9.471,9.471,0,0,1,14.343.05a4.268,4.268,0,0,1,3.682,1.1c1.136,1.2,1.211,3.057.9,4.676-.71,3.644-2.994,6.786-5.524,9.5a49.506,49.506,0,0,1-9.539,7.96c-.741.475-1.717.931-2.447.439a2.218,2.218,0,0,1-.743-1.219C-2.017,14.259,3.818,5.924,10.687,1.58" transform="matrix(0.875, -0.485, 0.485, 0.875, 39.387, 140.165)" fill="#3c3fa7"/>
      <path id="Trazado_180096" data-name="Trazado 180096" d="M203.091,484.382a21.558,21.558,0,0,1,12.916-2.444c2.059.287,4.406,1.262,4.812,3.3a3.831,3.831,0,0,1-.6,2.712,7.792,7.792,0,0,1-5.392,3.208,46.8,46.8,0,0,1-6.451.306,30.451,30.451,0,0,0-14.872,4.543.588.588,0,0,1-.525.126.534.534,0,0,1-.244-.392c-.994-4.252,7.226-9.709,10.352-11.36" transform="translate(16.954 -409.715)" fill="#3c3fa7"/>
      <path id="Trazado_180118" data-name="Trazado 180118" d="M17.785,2.626A21.558,21.558,0,0,0,4.869.182C2.81.469.464,1.444.057,3.483A3.831,3.831,0,0,0,.654,6.2,7.792,7.792,0,0,0,6.046,9.4a46.8,46.8,0,0,0,6.451.306,30.451,30.451,0,0,1,14.872,4.543.588.588,0,0,0,.525.126.534.534,0,0,0,.244-.392c.994-4.252-7.226-9.709-10.352-11.36" transform="matrix(0.875, -0.485, 0.485, 0.875, 21.146, 162.228)" fill="#3c3fa7"/>
      <path id="Trazado_180097" data-name="Trazado 180097" d="M340.336,545.963a16.4,16.4,0,0,0-6.309-6.97,4.311,4.311,0,0,0-3.855-.559,3.229,3.229,0,0,0-1.676,2.746,6.312,6.312,0,0,0,.838,3.227,24.734,24.734,0,0,0,3.236,4.458l7.879,9.308a2.077,2.077,0,0,0,.8.669c.844.316,1.693-.579,1.867-1.463.715-3.633-1.165-8.245-2.777-11.416" transform="translate(-139.422 -452.017)" fill="#3c3fa7"/>
      <path id="Trazado_180119" data-name="Trazado 180119" d="M2.933,7.79A16.4,16.4,0,0,1,9.241.82,4.311,4.311,0,0,1,13.1.262a3.229,3.229,0,0,1,1.676,2.746,6.312,6.312,0,0,1-.838,3.227A24.73,24.73,0,0,1,10.7,10.692L2.819,20a2.077,2.077,0,0,1-.8.669C1.18,20.985.33,20.091.156,19.206-.559,15.573,1.321,10.961,2.933,7.79" transform="matrix(0.875, -0.485, 0.485, 0.875, 57.711, 158.097)" fill="#3c3fa7"/>
      <path id="Trazado_180098" data-name="Trazado 180098" d="M235.225,570a10.27,10.27,0,0,1,5.867.372,6.262,6.262,0,0,1,2.4,8.938c-1.905,2.667-5.561,3.312-8.836,3.443-7.228.289-15.035-.719-21.2,3.072.447-.275,1.044-2.919,1.343-3.539a11.667,11.667,0,0,1,1.168-2.078,23.519,23.519,0,0,1,5.425-4.649A34.314,34.314,0,0,1,235.225,570" transform="translate(-11.873 -475.699)" fill="#3c3fa7"/>
      <g id="Grupo_174382" data-name="Grupo 174382" transform="translate(185.128 71.651)">
        <path id="Trazado_180100" data-name="Trazado 180100" d="M10.869,17.023c1.393.459,3.055.68,4.217-.216A3.322,3.322,0,0,0,16.228,13.9a6.249,6.249,0,0,0-1.216-2.982C11.946,6.53,6.314,4.292,2.394.75-.353-1.732-.174,2.577.232,4.567a16.983,16.983,0,0,0,3.362,7.311,15.758,15.758,0,0,0,7.275,5.145" transform="matrix(-0.875, -0.485, 0.485, -0.875, 62.894, 48.745)" fill="#3c3fa7"/>
        <path id="Trazado_180101" data-name="Trazado 180101" d="M16.4,0a.831.831,0,0,0-.756,1.257c8.761,14.625,8.08,31.977,5.966,43.957-2.056,11.652-6.129,23.039-10.067,34.052-1.13,3.161-2.3,6.429-3.4,9.656C3.543,102.362-1,118.246.192,134.163a.831.831,0,0,0,1.658-.124c-1.168-15.617,3.321-31.3,7.865-44.577,1.1-3.216,2.267-6.479,3.4-9.634C17.073,68.75,21.17,57.3,23.251,45.505,25.414,33.245,26.1,15.469,17.074.4A.83.83,0,0,0,16.4,0" transform="matrix(-0.875, -0.485, 0.485, -0.875, 21.541, 135.771)" fill="#3c3fa7"/>
        <path id="Trazado_180102" data-name="Trazado 180102" d="M1.18,21.347a7.91,7.91,0,0,0,2.088,3.527,3.548,3.548,0,0,0,3.843.675,4.65,4.65,0,0,0,2-2.982c1.188-4.1.581-8.524-.612-12.625-.82-2.819-1.649-6.306-3.083-8.872C3.671-2.049,2.289,2.46,1.667,4.291-.188,9.756-.7,15.815,1.18,21.347" transform="matrix(-0.875, -0.485, 0.485, -0.875, 85.862, 27.347)" fill="#3c3fa7"/>
        <path id="Trazado_180103" data-name="Trazado 180103" d="M9.572,14.17c1.332.6,2.994.982,4.171.118a3.166,3.166,0,0,0,.7-3.819A7.408,7.408,0,0,0,11.5,7.545C8.013,5.339,3.835,3.911,1.347.614,1.028.191.357-.265.083.188A.788.788,0,0,0,0,.579C-.145,5.776,4.49,12.611,9.572,14.17" transform="matrix(-0.875, -0.485, 0.485, -0.875, 74.347, 36.489)" fill="#3c3fa7"/>
        <path id="Trazado_180104" data-name="Trazado 180104" d="M7.415,8.692a8.906,8.906,0,0,1-3.759.54,4.313,4.313,0,0,1-3.2-1.849,3.518,3.518,0,0,1,1.6-4.9A7.08,7.08,0,0,1,4.9,2.185C9.227,2.3,13.722,2.006,17.56,0c.676,1.621-2.9,4.433-3.973,5.3a19.551,19.551,0,0,1-6.171,3.39" transform="matrix(-0.875, -0.485, 0.485, -0.875, 91.587, 42.396)" fill="#3c3fa7"/>
        <path id="Trazado_180105" data-name="Trazado 180105" d="M6.111,12.1c-2.081.118-4.452-.252-5.652-1.956A2.144,2.144,0,0,1,.012,8.675c.119-.941,1.06-1.528,1.922-1.926C7.389,4.231,13.736,3.7,18.722.35A1.463,1.463,0,0,1,19.589,0c3.018.2-2.2,7.257-2.994,7.942A17.674,17.674,0,0,1,6.111,12.1" transform="matrix(-0.875, -0.485, 0.485, -0.875, 80.526, 58.657)" fill="#3c3fa7"/>
        <path id="Trazado_180106" data-name="Trazado 180106" d="M10.687,22.363a9.471,9.471,0,0,0,3.656,1.53,4.268,4.268,0,0,0,3.682-1.1c1.136-1.2,1.211-3.057.9-4.676-.71-3.644-2.994-6.785-5.524-9.5A49.507,49.507,0,0,0,3.857.651C3.116.176,2.14-.28,1.41.212A2.218,2.218,0,0,0,.667,1.431C-2.017,9.684,3.818,18.02,10.687,22.363" transform="matrix(-0.875, -0.485, 0.485, -0.875, 47.405, 63.966)" fill="#3c3fa7"/>
        <path id="Trazado_180107" data-name="Trazado 180107" d="M17.785,11.779A21.558,21.558,0,0,1,4.869,14.223C2.81,13.935.464,12.961.057,10.922a3.831,3.831,0,0,1,.6-2.712A7.792,7.792,0,0,1,6.046,5,46.8,46.8,0,0,1,12.5,4.7,30.451,30.451,0,0,0,27.368.153a.588.588,0,0,1,.525-.126.534.534,0,0,1,.244.392c.994,4.252-7.226,9.709-10.352,11.36" transform="matrix(-0.875, -0.485, 0.485, -0.875, 70.27, 77.686)" fill="#3c3fa7"/>
        <path id="Trazado_180108" data-name="Trazado 180108" d="M2.933,12.944a16.4,16.4,0,0,0,6.309,6.97,4.311,4.311,0,0,0,3.855.559,3.229,3.229,0,0,0,1.676-2.746,6.312,6.312,0,0,0-.838-3.227A24.734,24.734,0,0,0,10.7,10.042L2.819.734a2.077,2.077,0,0,0-.8-.669C1.18-.251.33.644.156,1.528-.559,5.161,1.321,9.773,2.933,12.944" transform="matrix(-0.875, -0.485, 0.485, -0.875, 30.636, 79.092)" fill="#3c3fa7"/>
        <path id="Trazado_180109" data-name="Trazado 180109" d="M9.272,15.825a10.27,10.27,0,0,1-5.867-.372A6.262,6.262,0,0,1,1,6.515C2.907,3.848,6.563,3.2,9.838,3.072c7.228-.289,15.035.719,21.2-3.072-.447.275-1.044,2.919-1.343,3.539a11.667,11.667,0,0,1-1.168,2.078A23.519,23.519,0,0,1,23.1,10.266,34.314,34.314,0,0,1,9.272,15.825" transform="matrix(-0.875, -0.485, 0.485, -0.875, 54.236, 95.875)" fill="#3c3fa7"/>
      </g>
      <path id="Trazado_180120" data-name="Trazado 180120" d="M9.272.246A10.27,10.27,0,0,0,3.406.618,6.262,6.262,0,0,0,1,9.556C2.907,12.222,6.563,12.868,9.838,13c7.228.289,15.035-.719,21.2,3.072-.447-.275-1.044-2.919-1.343-3.539a11.668,11.668,0,0,0-1.168-2.078A23.519,23.519,0,0,0,23.1,5.8,34.314,34.314,0,0,0,9.272.246" transform="matrix(0.875, -0.485, 0.485, 0.875, 36.373, 178.96)" fill="#3c3fa7"/>
      <path id="Trazado_180099" data-name="Trazado 180099" d="M351.394,627.2a15.23,15.23,0,0,0-3.789-5.484,11.043,11.043,0,0,0-3-2.029,1.821,1.821,0,0,0-1.223-.192,1.6,1.6,0,0,0-.757.581,5.14,5.14,0,0,0-.572,4.792,13.9,13.9,0,0,0,2.663,4.237q3.128,3.792,6.587,7.293a.862.862,0,0,0,.473.3c.391.047.631-.412.733-.793.827-3.093.052-5.814-1.114-8.706" transform="translate(-152.318 -512.959)" fill="#3c3fa7"/>
      <path id="Trazado_180110" data-name="Trazado 180110" d="M1.459,9.5a15.23,15.23,0,0,0,3.789,5.484,11.044,11.044,0,0,0,3,2.029,1.821,1.821,0,0,0,1.223.192,1.6,1.6,0,0,0,.757-.581,5.14,5.14,0,0,0,.572-4.792A13.9,13.9,0,0,0,8.137,7.6Q5.009,3.806,1.55.305A.862.862,0,0,0,1.077,0C.686-.044.447.415.345.8-.482,3.889.293,6.61,1.459,9.5" transform="matrix(-0.875, -0.485, 0.485, -0.875, 214.676, 162.021)" fill="#3c3fa7"/>
      <path id="Trazado_180121" data-name="Trazado 180121" d="M1.459,7.75A15.23,15.23,0,0,1,5.248,2.266a11.046,11.046,0,0,1,3-2.029A1.821,1.821,0,0,1,9.472.045a1.6,1.6,0,0,1,.757.58A5.14,5.14,0,0,1,10.8,5.417,13.9,13.9,0,0,1,8.137,9.654Q5.009,13.446,1.55,16.948a.862.862,0,0,1-.473.3c-.391.047-.631-.412-.733-.793C-.482,13.363.293,10.642,1.459,7.75" transform="matrix(0.875, -0.485, 0.485, 0.875, 70.464, 174.278)" fill="#3c3fa7"/>
    </g>
    <g id="Enmascarar_grupo_283" data-name="Enmascarar grupo 283" transform="translate(10.142)" clip-path="url(#clip-path)">
      <g id="Grupo_984631" data-name="Grupo 984631" transform="translate(-45.27 -44.359)">
        <g id="Grupo_984595" data-name="Grupo 984595" transform="translate(23.258 264.871)">
          <g id="Grupo_984589" data-name="Grupo 984589" transform="translate(146.358)">
            <g id="Grupo_984587" data-name="Grupo 984587" transform="translate(1.891 312.705)">
              <path id="Trazado_212554" data-name="Trazado 212554" d="M128.935,427.506s-5.592-.208-5.326,10.434,0,26.335,0,26.335h5.326V445.89l15.955,18.385h54.8s-2.927-10.109-28.73-9.843Z" transform="translate(-123.6 -405.68)" fill="#1f0c07"/>
              <path id="Trazado_212555" data-name="Trazado 212555" d="M127.211,434.559V420.887l21.325-8.154-3.191,21.826,26.214,27.16H159.5a22.621,22.621,0,0,1-15.243-5.891C138.617,450.7,131.032,442.8,127.211,434.559Z" transform="translate(-121.876 -412.733)" fill="#e9b089"/>
            </g>
            <g id="Grupo_984588" data-name="Grupo 984588">
              <path id="Trazado_212556" data-name="Trazado 212556" d="M162.152,201.08s19.236,46.579,8.677,177.34S157.1,525.993,157.1,525.993l-34.776-.552L130.4,201.08Z" transform="translate(-122.32 -201.08)" fill="#294286"/>
            </g>
          </g>
          <g id="Grupo_984594" data-name="Grupo 984594">
            <g id="Grupo_984590" data-name="Grupo 984590" transform="translate(0 297.24)">
              <path id="Trazado_212557" data-name="Trazado 212557" d="M94.014,427.506s5.591-.208,5.325,10.434,0,26.335,0,26.335H94.014V445.89L78.058,464.275h-54.8s2.927-10.109,28.73-9.843Z" transform="translate(-23.258 -390.216)" fill="#1f0c07"/>
              <path id="Trazado_212558" data-name="Trazado 212558" d="M85.48,439.557l13.7-29.135-21.327-8.156L67.345,439.557l-26.213,27.16h12.06a22.618,22.618,0,0,0,15.243-5.891C74.073,455.695,81.658,447.8,85.48,439.557Z" transform="translate(-14.724 -402.266)" fill="#e9b089"/>
            </g>
            <g id="Grupo_984593" data-name="Grupo 984593" transform="translate(46.028)">
              <g id="Grupo_984592" data-name="Grupo 984592">
                <g id="Grupo_984591" data-name="Grupo 984591">
                  <path id="Trazado_212559" data-name="Trazado 212559" d="M140.474,201.08s-10.2,27.279-28.232,91.136C92.65,361.6,54.412,525.44,54.412,525.44l37.177,1.95L194.227,226.158,184.4,201.08Z" transform="translate(-54.412 -201.08)" fill="#294286"/>
                  <path id="Trazado_212560" data-name="Trazado 212560" d="M126.255,288.883" transform="translate(-20.111 -159.159)" fill="none" stroke="#1e0b02" stroke-linecap="round" stroke-linejoin="round" stroke-width="0.711"/>
                </g>
              </g>
              <line id="Línea_1587" data-name="Línea 1587" y1="54.93" x2="19.245" transform="translate(105.247 69.608)" fill="none" stroke="#000" stroke-linecap="round" stroke-linejoin="round" stroke-width="0.457"/>
            </g>
          </g>
        </g>
        <g id="Grupo_984607" data-name="Grupo 984607" transform="translate(112.047 67.47)">
          <path id="Trazado_212561" data-name="Trazado 212561" d="M100.073,83.308s-5.558,12.043-2.7,28.93c2.927,17.282-16.11,15.609-13.83,32.353,0,0,53.969,16.033,103.833-16.468,0,0,3.41-14.826-7-18.373C165.794,104.781,162.1,89.689,162.1,89.689Z" transform="translate(-83.354 -59.908)"/>
          <ellipse id="Elipse_4910" data-name="Elipse 4910" cx="32.364" cy="30.055" rx="32.364" ry="30.055" transform="translate(10.553 8.73) rotate(-7.751)"/>
          <path id="Trazado_212562" data-name="Trazado 212562" d="M112.893,107.255l.665,49.3,23.776-3.154-7.342-43.295Z" transform="translate(-69.252 -48.475)" fill="#e9b089"/>
          <path id="Trazado_212563" data-name="Trazado 212563" d="M133.328,133.4,114.85,119.711l14.672-8.451Z" transform="translate(-68.317 -46.563)" fill="#d7896d"/>
          <path id="Trazado_212564" data-name="Trazado 212564" d="M130.223,110.168a24.2,24.2,0,0,1,1.383-9.069c1.46-4.044,3.983-8.07,8.792-6.539,8.188,2.6,2.272,16.165-5.486,18.24-2.283.61-4.624-.709-4.689-2.633Z" transform="translate(-60.985 -54.695)" fill="#d7896d"/>
          <path id="Trazado_212565" data-name="Trazado 212565" d="M114.032,76.414a36.062,36.062,0,0,1,16.612-2.931c7.675.556,17.881,3.946,20.935,17.428,5.09,22.467,3.952,37.381-5.873,45.055-6.888,5.379-14.568,5.93-25.279,1.5-3.985-1.649-9.914-8.819-11.506-13.037l-4.6-11.744S89.047,87.037,114.032,76.414Z" transform="translate(-75.55 -64.639)" fill="#e9b089"/>
          <g id="Grupo_984605" data-name="Grupo 984605" transform="translate(33.271 23.552)">
            <g id="Grupo_984603" data-name="Grupo 984603" transform="translate(5.433)">
              <g id="Grupo_984596" data-name="Grupo 984596" transform="translate(26.724 22.453)">
                <path id="Trazado_212566" data-name="Trazado 212566" d="M127.639,98.608l3.383,4.762-2.559,1.649" transform="translate(-127.639 -98.608)" fill="none" stroke="#000" stroke-linecap="round" stroke-linejoin="round" stroke-width="0.45"/>
              </g>
              <path id="Trazado_212567" data-name="Trazado 212567" d="M128.043,85.527s-.629,2.359,2.933,2.34a31.536,31.536,0,0,1,5.976.251,2.2,2.2,0,0,0,2.256-.872h0A1.242,1.242,0,0,0,139,85.624a8.984,8.984,0,0,0-6.22-2.213C128.556,83.387,128.043,85.527,128.043,85.527Z" transform="translate(-100.743 -83.411)"/>
              <path id="Trazado_212568" data-name="Trazado 212568" d="M126.787,85.615s1.467,2.089-3.391,3.159A78.613,78.613,0,0,0,113.348,92a3.85,3.85,0,0,1-3.3-.154h0a1,1,0,0,1-.137-1.631,23.866,23.866,0,0,1,9.877-5.2C125.537,83.7,126.787,85.615,126.787,85.615Z" transform="translate(-109.551 -82.864)"/>
              <g id="Grupo_984599" data-name="Grupo 984599" transform="translate(5.91 14.622)">
                <g id="Grupo_984598" data-name="Grupo 984598">
                  <path id="Trazado_212569" data-name="Trazado 212569" d="M128.058,97.327s-3.547-8.681-14.507-.526C113.551,96.8,119.508,104.342,128.058,97.327Z" transform="translate(-113.551 -93.308)" fill="#fff"/>
                  <g id="Grupo_984597" data-name="Grupo 984597" clip-path="url(#clip-path-2)">
                    <path id="Trazado_212570" data-name="Trazado 212570" d="M123.722,96.129a3.737,3.737,0,1,1-4.582-2.792A3.793,3.793,0,0,1,123.722,96.129Z" transform="translate(-112.209 -93.35)"/>
                  </g>
                </g>
                <path id="Trazado_212572" data-name="Trazado 212572" d="M113.551,96.79a13.705,13.705,0,0,1,7.182-3.406c5.8-.567,7.012,3.574,7.012,3.574" transform="translate(-113.551 -93.297)" fill="none" stroke="#000" stroke-linecap="round" stroke-linejoin="round" stroke-width="0.735"/>
              </g>
              <g id="Grupo_984602" data-name="Grupo 984602" transform="translate(28.774 11.667)">
                <g id="Grupo_984601" data-name="Grupo 984601" transform="translate(0 0.03)">
                  <path id="Trazado_212573" data-name="Trazado 212573" d="M129.027,97.054s2.315-9.4,9.648-4.115C138.675,92.94,136.036,101.909,129.027,97.054Z" transform="translate(-129.027 -91.328)" fill="#fff"/>
                  <g id="Grupo_984600" data-name="Grupo 984600" clip-path="url(#clip-path-3)">
                    <path id="Trazado_212574" data-name="Trazado 212574" d="M130.52,94.783c-.058,1.94,1.142,3.549,2.679,3.595s2.826-1.492,2.884-3.432S134.94,91.4,133.4,91.351,130.576,92.844,130.52,94.783Z" transform="translate(-128.315 -91.318)"/>
                  </g>
                </g>
                <path id="Trazado_212576" data-name="Trazado 212576" d="M138.622,92.949a4.328,4.328,0,0,0-4.856-1.386c-3.705,1.046-4.627,5.079-4.627,5.079" transform="translate(-128.974 -91.308)" fill="none" stroke="#000" stroke-linecap="round" stroke-linejoin="round" stroke-width="0.62"/>
              </g>
              <path id="Trazado_212577" data-name="Trazado 212577" d="M136.021,105.151l-14.278,1.065a6.826,6.826,0,0,0,7.328,4.459A8.164,8.164,0,0,0,136.021,105.151Z" transform="translate(-103.73 -73.031)" fill="#fff"/>
            </g>
            <g id="Grupo_984604" data-name="Grupo 984604" transform="translate(0 4.757)">
              <path id="Trazado_212578" data-name="Trazado 212578" d="M118.413,89.885l13.495,13.083s-2.253,6.894-7.653,7.074l-13.536-12.7S112.645,90.438,118.413,89.885Z" transform="translate(-103.561 -85.077)" fill="#fff" opacity="0.22"/>
              <path id="Trazado_212579" data-name="Trazado 212579" d="M134.649,87.077l11.781,13.34s-1.766,6.82-6.359,6.879l-11.809-12.96S129.75,87.5,134.649,87.077Z" transform="translate(-95.185 -86.417)" fill="#fff" opacity="0.22"/>
              <path id="Trazado_212580" data-name="Trazado 212580" d="M132.13,98.5a10.9,10.9,0,1,1-12.551-8.947A10.9,10.9,0,0,1,132.13,98.5Z" transform="translate(-103.674 -85.309)" fill="none" stroke="#c0653e" stroke-miterlimit="10" stroke-width="0.718"/>
              <path id="Trazado_212581" data-name="Trazado 212581" d="M146.513,95.942c.98,5.939-2.306,11.449-7.338,12.309s-9.908-3.261-10.887-9.2,2.308-11.449,7.34-12.307S145.535,90,146.513,95.942Z" transform="translate(-95.254 -86.63)" fill="none" stroke="#c0653e" stroke-miterlimit="10" stroke-width="0.718"/>
              <path id="Trazado_212582" data-name="Trazado 212582" d="M125.134,95.889a5.135,5.135,0,0,1,4.579-.768" transform="translate(-96.678 -82.7)" fill="none" stroke="#c0653e" stroke-miterlimit="10" stroke-width="0.718"/>
              <line id="Línea_1588" data-name="Línea 1588" y1="5.73" x2="7.11" transform="translate(0 17.7)" fill="none" stroke="#c0653e" stroke-miterlimit="10" stroke-width="0.718"/>
            </g>
          </g>
          <path id="Trazado_212583" data-name="Trazado 212583" d="M109.949,115.827c-.028-2.08,5.911-18.806-2.837-38.922,0,0-7.989-.953-8.974,13.644C96.557,113.964,109.949,115.827,109.949,115.827Z" transform="translate(-76.358 -62.971)"/>
          <g id="Grupo_984606" data-name="Grupo 984606" transform="translate(19.602 46.923)">
            <path id="Trazado_212584" data-name="Trazado 212584" d="M114.862,112a25.446,25.446,0,0,0-4.89-8.321c-3-3.382-7.041-6.332-11.141-2.961-6.984,5.741,4.087,16.682,12.478,15.683,2.467-.293,4.24-2.5,3.553-4.4Z" transform="translate(-96.622 -99.23)" fill="#e9b089"/>
            <path id="Trazado_212585" data-name="Trazado 212585" d="M100.086,104.434c5.662-2.829,9.73,3.4,9.73,3.4" transform="translate(-94.968 -97.097)" fill="none" stroke="#000" stroke-linecap="round" stroke-linejoin="round" stroke-width="0.45"/>
          </g>
          <path id="Trazado_212586" data-name="Trazado 212586" d="M102.567,81.764s10.966,10.652,50.406,4.3c0,0-7.882-14.977-28.3-15.748S102.567,81.764,102.567,81.764Z" transform="translate(-74.181 -66.128)"/>
        </g>
        <g id="Grupo_984630" data-name="Grupo 984630" transform="translate(73.053 135.873)">
          <g id="Grupo_984620" data-name="Grupo 984620" transform="translate(75.378)">
            <g id="Grupo_984616" data-name="Grupo 984616" transform="translate(15.203)">
              <g id="Grupo_984608" data-name="Grupo 984608" transform="translate(0 27.505)">
                <path id="Trazado_212587" data-name="Trazado 212587" d="M118.271,138.052s10.125,34.355,82.293,87.278l18.784-24.512L156.28,132.385Z" transform="translate(-118.271 -132.385)" fill="#be5640"/>
              </g>
              <g id="Grupo_984615" data-name="Grupo 984615" transform="translate(74.216)">
                <g id="Grupo_984610" data-name="Grupo 984610" transform="translate(32.012)">
                  <path id="Trazado_212588" data-name="Trazado 212588" d="M223.193,146.7l-13.306-6.854L190.171,168.46c4.67,3.106,10.833,6.526,15.537,9.614Z" transform="translate(-190.171 -101.316)" fill="#e9b089"/>
                  <g id="Grupo_984609" data-name="Grupo 984609" transform="translate(15.647)">
                    <path id="Trazado_212589" data-name="Trazado 212589" d="M202.643,150.719l-.864-3.094a27.548,27.548,0,0,1-.493-12.765l1.476-7.455a2.92,2.92,0,0,1,3.9-2.163h0a3.738,3.738,0,0,1,2.411,3.419l.164,8.065,12.026-21.732a2.262,2.262,0,0,1,3.292-.827l.754.519a2.262,2.262,0,0,1,.8,2.75l-8.395,16.726,12.3-17.88a2.261,2.261,0,0,1,3.329-.618l.53.414a2.262,2.262,0,0,1,.548,2.945l-9.983,16.417,10.316-10.8a2.259,2.259,0,0,1,3.518.192l.17.236a2.261,2.261,0,0,1-.032,2.682l-9.917,11.981,6.518-4.985a2.26,2.26,0,0,1,3.741.817h0a2.258,2.258,0,0,1-.374,2.193l-24.054,27.219L207.748,159A17.6,17.6,0,0,1,202.643,150.719Z" transform="translate(-200.761 -113.769)" fill="#e9b089"/>
                    <path id="Trazado_212590" data-name="Trazado 212590" d="M206.5,129.307a14.859,14.859,0,0,1,4.474,11.812" transform="translate(-198.023 -106.35)" fill="none" stroke="#000" stroke-linecap="round" stroke-linejoin="round" stroke-width="0.567"/>
                  </g>
                </g>
                <g id="Grupo_984614" data-name="Grupo 984614" transform="translate(0 43.962)">
                  <g id="Grupo_984613" data-name="Grupo 984613">
                    <g id="Grupo_984612" data-name="Grupo 984612">
                      <g id="Grupo_984611" data-name="Grupo 984611">
                        <path id="Trazado_212591" data-name="Trazado 212591" d="M169.532,200.413l43.425-56.889,17.293,14.457-29.827,54.531c-5.059,8.775-12.606,13.222-20.959,9.277h0C171.945,218.238,166.044,207.963,169.532,200.413Z" transform="translate(-168.504 -143.524)" fill="#be5640"/>
                      </g>
                    </g>
                  </g>
                  <line id="Línea_1589" data-name="Línea 1589" x1="9.345" y2="10.807" transform="translate(5.438 38.87)" fill="none" stroke="#000" stroke-linecap="round" stroke-linejoin="round" stroke-width="0.457"/>
                </g>
              </g>
            </g>
            <g id="Grupo_984619" data-name="Grupo 984619" transform="translate(0 22.11)">
              <g id="Grupo_984617" data-name="Grupo 984617" transform="translate(0 2.122)">
                <path id="Trazado_212592" data-name="Trazado 212592" d="M153.109,138.846l-29.577,20.733,1.822,102.2,40.729-6.876S185.358,168.085,153.109,138.846Z" transform="translate(-100.556 -126.028)" fill="#fff"/>
                <path id="Trazado_212593" data-name="Trazado 212593" d="M167.5,220.1l-40.251,7.814.919-10.144,39.332-6.709Z" transform="translate(-98.783 -91.548)"/>
                <path id="Trazado_212594" data-name="Trazado 212594" d="M116.039,161.372s48.8,16.34,46.451-13.545L139.5,130.17l-15.414,8.714-8.043,6.711-8.058,13.465Z" transform="translate(-107.981 -130.17)" fill="#e9b089"/>
              </g>
              <g id="Grupo_984618" data-name="Grupo 984618" transform="translate(29.655)">
                <path id="Trazado_212595" data-name="Trazado 212595" d="M128.053,131.908s21.426,16.639,33.046,45.909c6.412,16.153,2.488,48.509,1.421,70.107s-2.488,62.865-2.488,62.865l15.906-8.887s.352-94.72-1.955-107.16S160.665,134.3,144.748,129.12c0,0-5.421-1.607-14.835,1.736Z" transform="translate(-128.053 -128.734)" fill="#be5640"/>
                <path id="Trazado_212596" data-name="Trazado 212596" d="M162.461,199.039s1.718-30.177-7.971-45.306" transform="translate(-115.431 -116.798)" fill="none" stroke="#000" stroke-linecap="round" stroke-linejoin="round" stroke-width="0.457"/>
              </g>
            </g>
          </g>
          <g id="Grupo_984629" data-name="Grupo 984629" transform="translate(0 37.051)">
            <path id="Trazado_212597" data-name="Trazado 212597" d="M116.515,141.155s7.208-6.232,17.59,1.783,23.443,36.51,23.443,69.46-9.79,95.732-9.79,95.732-35.738,13.755-60.673-4.056l37.623-63.456-18.245-50.706Z" transform="translate(-42.579 -138.847)" fill="#be5640"/>
            <g id="Grupo_984628" data-name="Grupo 984628" transform="translate(0 0.764)">
              <g id="Grupo_984622" data-name="Grupo 984622" transform="translate(2.608)">
                <g id="Grupo_984621" data-name="Grupo 984621">
                  <path id="Trazado_212598" data-name="Trazado 212598" d="M132.872,139.364s-26.406,6.341-74.145,82.039L84.5,238.423l49.865-56.418Z" transform="translate(-58.727 -139.364)" fill="#be5640"/>
                </g>
                <line id="Línea_1590" data-name="Línea 1590" y1="13.182" x2="11.651" transform="translate(63.983 42.642)" fill="none" stroke="#000" stroke-linecap="round" stroke-linejoin="round" stroke-width="0.457"/>
              </g>
              <g id="Grupo_984627" data-name="Grupo 984627" transform="translate(0 75.38)">
                <g id="Grupo_984623" data-name="Grupo 984623" transform="translate(42.166 7.323)">
                  <path id="Trazado_212599" data-name="Trazado 212599" d="M144.413,206.7l-17.175-3.887.556-3.822a3.216,3.216,0,0,0-1.774-3.36,2.943,2.943,0,0,0-3.652.918L110.8,212.6l-8.769,12.365c10.067,5.031,19.492,4.211,22.176,1.989.39.028,13.366,1.011,13.366,1.011a2.424,2.424,0,0,0,2.757-1.978c.185-.956-.035-2.352-2.782-2.971l2.747.619a2.522,2.522,0,0,0,2.877-2.119c.241-1.248-.811-2.528-2.481-3.1l2.045.254a2.6,2.6,0,0,0,2.986-2.466,2.867,2.867,0,0,0-2.256-2.909l-3.033-.68,3.37-.056a2.834,2.834,0,0,0,3.052-2.809A3.109,3.109,0,0,0,144.413,206.7Z" transform="translate(-77.608 -195.342)" fill="#e9b089"/>
                  <path id="Trazado_212600" data-name="Trazado 212600" d="M118.694,209.484l-28.513-7.616L85.5,219.005l29.335,4.875Z" transform="translate(-85.501 -192.226)" fill="#e9b089"/>
                </g>
                <g id="Grupo_984626" data-name="Grupo 984626">
                  <g id="Grupo_984625" data-name="Grupo 984625">
                    <g id="Grupo_984624" data-name="Grupo 984624">
                      <path id="Trazado_212601" data-name="Trazado 212601" d="M77.491,191.373l49.974,17.094-10.574,22.6L68.723,220.3A15.15,15.15,0,0,1,58,200.045h0A15.151,15.151,0,0,1,77.491,191.373Z" transform="translate(-56.962 -190.385)" fill="#be5640"/>
                    </g>
                  </g>
                  <line id="Línea_1591" data-name="Línea 1591" x1="16.689" y1="5.709" transform="translate(25.476 2.681)" fill="none" stroke="#000" stroke-linecap="round" stroke-linejoin="round" stroke-width="0.457"/>
                </g>
              </g>
            </g>
          </g>
        </g>
      </g>
    </g>
  </g>
</svg>
