<svg xmlns="http://www.w3.org/2000/svg" xmlns:xlink="http://www.w3.org/1999/xlink" width="78" height="78" viewBox="0 0 78 78">
  <defs>
    <clipPath id="clip-path">
      <rect id="Rectangle_339759" data-name="Rectangle 339759" width="45" height="45" transform="translate(-1098 -8682)" fill="#fff" stroke="#707070" stroke-width="1"/>
    </clipPath>
    <clipPath id="clip-path-2">
      <path id="path585" d="M0-45H45V0H0Z"/>
    </clipPath>
  </defs>
  <g id="_10" data-name="10" transform="translate(1114 8699)">
    <circle id="Ellipse_4941" data-name="Ellipse 4941" cx="39" cy="39" r="39" transform="translate(-1114 -8699)" fill="#6b8dfc"/>
    <g id="Mask_Group_636" data-name="Mask Group 636" clip-path="url(#clip-path)">
      <g id="g579" transform="translate(-1098 -8637)">
        <g id="g581">
          <g id="g583" clip-path="url(#clip-path-2)">
            <g id="g589" transform="translate(-24.258 41.843)">
              <path id="path591" d="M0,0C40.427-21.19,15.2-45.446,0-30.6-15.2-45.446-40.427-21.19,0,0" fill="#eb6da8"/>
            </g>
            <g id="g593" transform="translate(-7.706 8.307)">
              <path id="path595" d="M0,0C-4.537-2.673-11.173-2.317-16.552,2.94c-15.2-14.85-40.427,9.406,0,30.6C7.133,21.121,8.281,7.654,2.114,1.616" fill="none" stroke="#000" stroke-linecap="round" stroke-linejoin="round" stroke-miterlimit="10" stroke-width="1.318"/>
            </g>
            <g id="g597" transform="translate(33.463 -41.824)">
              <path id="path599" d="M0,0C-5.9,0-10.682,3.119-10.682,9.135A10.789,10.789,0,0,0,0,20.028,10.788,10.788,0,0,0,10.681,9.135C10.681,3.119,5.9,0,0,0" fill="#fbc4ac"/>
            </g>
            <g id="g601" transform="translate(24.89 -32.689)">
              <path id="path603" d="M0,0A10.815,10.815,0,0,1,9.627-10.84q-.52-.052-1.055-.053A10.789,10.789,0,0,0-2.109,0,10.789,10.789,0,0,0,8.573,10.893q.534,0,1.055-.053A10.815,10.815,0,0,1,0,0" fill="#e3b098"/>
            </g>
            <g id="g605" transform="translate(39.911 -28.778)">
              <path id="path607" d="M0,0H-1.508a.659.659,0,0,1-.659-.659.659.659,0,0,1,.659-.659H0a.659.659,0,0,1,.659.659A.659.659,0,0,1,0,0" fill="#f98084"/>
            </g>
            <g id="g609" transform="translate(28.523 -28.778)">
              <path id="path611" d="M0,0H-1.508a.659.659,0,0,1-.659-.659.659.659,0,0,1,.659-.659H0a.659.659,0,0,1,.659.659A.659.659,0,0,1,0,0" fill="#f98084"/>
            </g>
            <g id="g613" transform="translate(43.633 -36.027)">
              <path id="path615" d="M0,0C-.734-8.93-4.335-7.555-10.17-7.555A26.491,26.491,0,0,1-17.6-8.278a.773.773,0,0,0-.921.387,25.024,25.024,0,0,0-2.328,11.23s2.555-4.6,10.682-4.6C-6.389-1.263-6.706,0,0,0" fill="#c86d5c"/>
            </g>
            <g id="g617" transform="translate(27.219 -43.918)">
              <path id="path619" d="M0,0A.782.782,0,0,1,.056-.093,10.587,10.587,0,0,1-1.188-.387.774.774,0,0,0-2.109,0,25.024,25.024,0,0,0-4.438,11.23,7.743,7.743,0,0,1-2.252,9.005,23.692,23.692,0,0,1,0,0" fill="#ad4f3d"/>
            </g>
            <g id="g621" transform="translate(0.863 -11.974)">
              <path id="path623" d="M0,0V7.022a3.434,3.434,0,0,0,3.054,3.413L8.1,11Z" fill="#3a484a"/>
            </g>
            <g id="g625" transform="translate(22.211 -11.974)">
              <path id="path627" d="M0,0V7.022a3.434,3.434,0,0,1-3.054,3.413L-8.1,11Z" fill="#3a484a"/>
            </g>
            <g id="g629" transform="translate(22.211 -11.974)">
              <path id="path631" d="M0,0H0l-10.91-8.248L-21.347,0h0c-.005.14-.008.28-.008.421A10.789,10.789,0,0,0-10.674,11.315,10.789,10.789,0,0,0,.008.421C.008.28.005.14,0,0" fill="#fbc4ac"/>
            </g>
            <g id="g633" transform="translate(2.63 -12.321)">
              <path id="path635" d="M0,0A11.068,11.068,0,0,1-1.766.348h0c-.005.14-.008.28-.008.421A10.789,10.789,0,0,0,8.907,11.662c.3,0,.606-.014.9-.039C4.507,11.138.294,6.173,0,0" fill="#e3b098"/>
            </g>
            <g id="g637" transform="translate(6.597 -7.641)">
              <path id="path639" d="M0,0H-1.508a.659.659,0,0,1-.659-.659.659.659,0,0,1,.659-.659H0a.659.659,0,0,1,.659.659A.659.659,0,0,1,0,0" fill="#f98084"/>
            </g>
            <g id="g641" transform="translate(17.985 -7.641)">
              <path id="path643" d="M0,0H-1.508a.659.659,0,0,1-.659-.659.659.659,0,0,1,.659-.659H0a.659.659,0,0,1,.659.659A.659.659,0,0,1,0,0" fill="#f98084"/>
            </g>
            <g id="g645" transform="translate(0.863 -11.974)">
              <path id="path647" d="M0,0H0C5.734-.633,10.674-6.17,10.674-6.17S15.614-.633,21.347,0h0A10.779,10.779,0,0,0,10.674-10.471,10.779,10.779,0,0,0,0,0" fill="#3a484a"/>
            </g>
            <g id="g649" transform="translate(12.46 -22.404)">
              <path id="path651" d="M0,0C-.3-.027-.612-.041-.923-.041A10.779,10.779,0,0,0-11.6,10.43h0a9.977,9.977,0,0,0,1.766-.348A10.915,10.915,0,0,1,0,0" fill="#323e40"/>
            </g>
            <g id="g653" transform="translate(18.152 -29.492)">
              <path id="path655" d="M0,0V-6.585a4.259,4.259,0,0,0-4.259-4.259h-8.779A4.259,4.259,0,0,0-17.3-6.585V-.568a4.259,4.259,0,0,0,4.259,4.259H2.04Z" fill="#58b78c"/>
            </g>
            <g id="g657" transform="translate(26.848 -7.976)">
              <path id="path659" d="M0,0V-6.585a4.259,4.259,0,0,1,4.259-4.259h8.779A4.259,4.259,0,0,1,17.3-6.585V-.568a4.259,4.259,0,0,1-4.259,4.259H-2.04Z" fill="#f2c42c"/>
            </g>
            <g id="g661" transform="translate(39.157 -32.171)">
              <path id="path663" d="M0,0V1.107" fill="none" stroke="#000" stroke-linecap="round" stroke-linejoin="round" stroke-miterlimit="10" stroke-width="1.318"/>
            </g>
            <g id="g665" transform="translate(27.769 -32.171)">
              <path id="path667" d="M0,0V1.107" fill="none" stroke="#000" stroke-linecap="round" stroke-linejoin="round" stroke-miterlimit="10" stroke-width="1.318"/>
            </g>
            <g id="g669" transform="translate(32.444 -29.95)">
              <path id="path671" d="M0,0A1.349,1.349,0,0,0,1.018.451,1.349,1.349,0,0,0,2.037,0" fill="none" stroke="#000" stroke-linecap="round" stroke-linejoin="round" stroke-miterlimit="10" stroke-width="1.318"/>
            </g>
            <g id="g673" transform="translate(5.843 -11.035)">
              <path id="path675" d="M0,0V1.107" fill="none" stroke="#000" stroke-linecap="round" stroke-linejoin="round" stroke-miterlimit="10" stroke-width="1.318"/>
            </g>
            <g id="g677" transform="translate(17.231 -11.035)">
              <path id="path679" d="M0,0V1.107" fill="none" stroke="#000" stroke-linecap="round" stroke-linejoin="round" stroke-miterlimit="10" stroke-width="1.318"/>
            </g>
            <g id="g681" transform="translate(12.556 -8.814)">
              <path id="path683" d="M0,0A1.349,1.349,0,0,1-1.018.451,1.349,1.349,0,0,1-2.037,0" fill="none" stroke="#000" stroke-linecap="round" stroke-linejoin="round" stroke-miterlimit="10" stroke-width="1.318"/>
            </g>
            <g id="g685" transform="translate(1.746 -15.913)">
              <path id="path687" d="M0,0A11.02,11.02,0,0,0-.883,3.939h0C4.851,3.306,9.791-2.231,9.791-2.231s4.94,5.537,10.673,6.171h0A10.779,10.779,0,0,0,9.791-6.532a10.593,10.593,0,0,0-8.473,4.26" fill="none" stroke="#000" stroke-linecap="round" stroke-linejoin="round" stroke-miterlimit="10" stroke-width="1.318"/>
            </g>
            <g id="g689" transform="translate(18.152 -29.492)">
              <path id="path691" d="M0,0V-6.585a4.259,4.259,0,0,0-4.259-4.259h-8.779A4.259,4.259,0,0,0-17.3-6.585V-.568a4.259,4.259,0,0,0,4.259,4.259H2.04Z" fill="none" stroke="#000" stroke-linecap="round" stroke-linejoin="round" stroke-miterlimit="10" stroke-width="1.318"/>
            </g>
            <g id="g693" transform="translate(4.906 -36.077)">
              <path id="path695" d="M0,0H9.2" fill="none" stroke="#000" stroke-linecap="round" stroke-linejoin="round" stroke-miterlimit="10" stroke-width="1.318"/>
            </g>
            <g id="g697" transform="translate(4.906 -33.068)">
              <path id="path699" d="M0,0H9.2" fill="none" stroke="#000" stroke-linecap="round" stroke-linejoin="round" stroke-miterlimit="10" stroke-width="1.318"/>
            </g>
            <g id="g701" transform="translate(4.906 -30.06)">
              <path id="path703" d="M0,0H5.734" fill="none" stroke="#000" stroke-linecap="round" stroke-linejoin="round" stroke-miterlimit="10" stroke-width="1.318"/>
            </g>
            <g id="g705" transform="translate(26.848 -7.976)">
              <path id="path707" d="M0,0V-6.585a4.259,4.259,0,0,1,4.259-4.259h8.779A4.259,4.259,0,0,1,17.3-6.585V-.568a4.259,4.259,0,0,1-4.259,4.259H-2.04Z" fill="none" stroke="#000" stroke-linecap="round" stroke-linejoin="round" stroke-miterlimit="10" stroke-width="1.318"/>
            </g>
            <g id="g709" transform="translate(40.093 -14.561)">
              <path id="path711" d="M0,0H-9.2" fill="none" stroke="#000" stroke-linecap="round" stroke-linejoin="round" stroke-miterlimit="10" stroke-width="1.318"/>
            </g>
            <g id="g713" transform="translate(40.093 -11.552)">
              <path id="path715" d="M0,0H-9.2" fill="none" stroke="#000" stroke-linecap="round" stroke-linejoin="round" stroke-miterlimit="10" stroke-width="1.318"/>
            </g>
            <g id="g717" transform="translate(40.093 -8.544)">
              <path id="path719" d="M0,0H-5.734" fill="none" stroke="#000" stroke-linecap="round" stroke-linejoin="round" stroke-miterlimit="10" stroke-width="1.318"/>
            </g>
            <g id="g721" transform="translate(43.633 -36.027)">
              <path id="path723" d="M0,0C-6.705,0-6.389-1.263-10.17-1.263c-8.127,0-10.682,4.6-10.682,4.6A10.789,10.789,0,0,0-10.17,14.231,10.788,10.788,0,0,0,.512,3.338,11.083,11.083,0,0,0,0,0Z" fill="none" stroke="#000" stroke-linecap="round" stroke-linejoin="round" stroke-miterlimit="10" stroke-width="1.318"/>
            </g>
            <g id="g725" transform="translate(23.167 -37.603)">
              <path id="path727" d="M0,0A30.56,30.56,0,0,0-.385,4.914S2.169.314,10.3.314c3.781,0,3.464,1.263,10.17,1.263-.734-8.93-4.335-7.555-10.17-7.555A26.491,26.491,0,0,1,2.864-6.7a.773.773,0,0,0-.921.387A19.438,19.438,0,0,0,.548-2.565" fill="none" stroke="#000" stroke-linecap="round" stroke-linejoin="round" stroke-miterlimit="10" stroke-width="1.318"/>
            </g>
            <g id="g729" transform="translate(14.109 -0.978)">
              <path id="path731" d="M0,0H0L5.047-.561A3.434,3.434,0,0,0,8.1-3.974v-6.2A10.849,10.849,0,0,1,0,0Z" fill="none" stroke="#000" stroke-linecap="round" stroke-linejoin="round" stroke-miterlimit="10" stroke-width="1.318"/>
            </g>
            <g id="g733" transform="translate(0.863 -11.156)">
              <path id="path735" d="M0,0V6.2A3.434,3.434,0,0,0,3.054,9.617l5.047.561A10.849,10.849,0,0,1,0,0Z" fill="none" stroke="#000" stroke-linecap="round" stroke-linejoin="round" stroke-miterlimit="10" stroke-width="1.318"/>
            </g>
            <g id="g737" transform="translate(0.856 -11.553)">
              <path id="path739" d="M0,0A10.789,10.789,0,0,0,10.682,10.894,10.789,10.789,0,0,0,21.363,0c0-.141,0-.281-.008-.421h0c-5.733-.634-10.673-6.171-10.673-6.171S5.741-1.055.009-.42h0C0-.281,0-.141,0,0Z" fill="none" stroke="#000" stroke-linecap="round" stroke-linejoin="round" stroke-miterlimit="10" stroke-width="1.318"/>
            </g>
          </g>
        </g>
      </g>
    </g>
  </g>
</svg>
