<svg xmlns="http://www.w3.org/2000/svg" xmlns:xlink="http://www.w3.org/1999/xlink" width="78" height="78" viewBox="0 0 78 78">
  <defs>
    <clipPath id="clip-path">
      <rect id="Rectangle_339761" data-name="Rectangle 339761" width="45" height="45" transform="translate(-468 -8682)" fill="#fff" stroke="#707070" stroke-width="1"/>
    </clipPath>
  </defs>
  <g id="_12" data-name="12" transform="translate(484 8699)">
    <circle id="Ellipse_4943" data-name="Ellipse 4943" cx="39" cy="39" r="39" transform="translate(-484 -8699)" fill="#6b8dfc"/>
    <g id="Mask_Group_638" data-name="Mask Group 638" clip-path="url(#clip-path)">
      <g id="vino" transform="translate(-467.19 -8682)">
        <path id="Path_213280" data-name="Path 213280" d="M36.129,8.711,33.915,22.017a12.541,12.541,0,0,1-16.872,9.649,17.822,17.822,0,0,1-4.817-2.781,12.542,12.542,0,0,1-.08-19.436L22.563.879Zm0,0" fill="#c9f3ff"/>
        <path id="Path_213281" data-name="Path 213281" d="M28.645,30.3a12.541,12.541,0,0,0,5.27-8.28L34.45,18.8l-.125-.121S29.3,22.8,20.939,18.3s-13.29-.182-13.29-.182l-.038.035v0a12.54,12.54,0,0,0,4.615,10.732,17.828,17.828,0,0,0,4.817,2.781,12.541,12.541,0,0,0,11.6-1.369Zm0,0" fill="#ff5d5d"/>
        <path id="Path_213282" data-name="Path 213282" d="M25.306,44.121l-7.568-3.19a23.5,23.5,0,0,1-8.828-6.494A34.936,34.936,0,0,1,.939,16.258a2.109,2.109,0,0,1,4.15-.722,30.3,30.3,0,0,0,8.15,14.838l3.342,3.342a1.938,1.938,0,0,0,2.74-2.74l-5.641-5.642a2.563,2.563,0,1,1,3.625-3.624l1.268,1.268a27.1,27.1,0,0,0,9.47,6.144,27.1,27.1,0,0,1,11.72,8.7l2.694,3.472v2.829Zm0,0" fill="#fccf9d"/>
        <path id="Path_213283" data-name="Path 213283" d="M43.151,40.753l-2.693-3.472a27.972,27.972,0,0,0-9.453-7.8,13.441,13.441,0,0,0,3.777-7.315L37,8.856a.878.878,0,0,0-.427-.905L23,.118A.879.879,0,0,0,22,.2L11.587,8.77a13.489,13.489,0,0,0-4.853,9.314c0,.031,0,.061-.006.091q-.458-1.39-.781-2.83a2.988,2.988,0,0,0-5.88,1.023A35.735,35.735,0,0,0,8.239,35a24.163,24.163,0,0,0,1.668,1.78l-1.72,2.98L3.479,37.046A.879.879,0,1,0,2.6,38.568l10.936,6.314a.879.879,0,0,0,.879-1.522L9.708,40.642l1.534-2.657A24.479,24.479,0,0,0,17.4,41.74l7.567,3.19a.879.879,0,0,0,.683-1.62l-7.568-3.19a22.734,22.734,0,0,1-8.5-6.252A33.981,33.981,0,0,1,1.811,16.148a1.23,1.23,0,0,1,2.42-.421,31.136,31.136,0,0,0,4.684,10.8c.119.18.243.357.371.531A31.263,31.263,0,0,0,12.618,31l3.342,3.342a2.817,2.817,0,0,0,3.984-3.984L14.3,24.713a1.684,1.684,0,0,1,2.382-2.382L17.952,23.6a27.8,27.8,0,0,0,9.777,6.344,26.216,26.216,0,0,1,11.34,8.415l2.694,3.472a.879.879,0,0,0,1.389-1.078ZM12.7,10.127,22.65,1.945l2.232,1.288L20.161,7.117a.879.879,0,0,0,1.117,1.357l5.23-4.3,8.653,5-1.48,8.9c-.666.476-5.152,3.319-12.325-.543-4.558-2.454-8.167-2.367-10.391-1.862a10.8,10.8,0,0,0-2.188.746,11.727,11.727,0,0,1,3.927-6.28Zm5.248,23.278a1.051,1.051,0,0,1-.749-.31l-.7-.7.221.087a13.446,13.446,0,0,0,1.989.592L18.7,33.1A1.052,1.052,0,0,1,17.952,33.405Zm1.243-11.049-1.268-1.268a3.442,3.442,0,1,0-4.868,4.868l5.191,5.191c-.3-.089-.6-.188-.892-.3a16.94,16.94,0,0,1-4.58-2.644,11.673,11.673,0,0,1-2.058-2.155q-.175-.245-.344-.493A11.659,11.659,0,0,1,8.464,18.6c1.02-.712,5.317-3.158,12.059.472a16.777,16.777,0,0,0,7.98,2.206,12.267,12.267,0,0,0,2.439-.238,11.044,11.044,0,0,0,2.372-.761l-.266,1.6a11.68,11.68,0,0,1-3.759,6.805q-.462-.2-.932-.377a26.054,26.054,0,0,1-9.163-5.945Zm0,0"/>
        <path id="Path_213284" data-name="Path 213284" d="M18.345,10.629a.879.879,0,1,0-.621-.257A.886.886,0,0,0,18.345,10.629Zm0,0"/>
      </g>
    </g>
  </g>
</svg>
