<svg xmlns="http://www.w3.org/2000/svg" xmlns:xlink="http://www.w3.org/1999/xlink" width="400" height="312.042" viewBox="0 0 400 312.042">
  <defs>
    <clipPath id="clip-path">
      <rect id="Rect치ngulo_40775" data-name="Rect치ngulo 40775" width="284.482" height="282.349" fill="none" stroke="#707070" stroke-width="1"/>
    </clipPath>
  </defs>
  <g id="Grupo_984333" data-name="Grupo 984333" transform="translate(-180 -3921.334)">
    <rect id="Rect치ngulo_339182" data-name="Rect치ngulo 339182" width="400" height="177" rx="16" transform="translate(180 4032)" fill="#fed947"/>
    <g id="Grupo_165272" data-name="Grupo 165272" transform="translate(58 414.334)">
      <g id="Enmascarar_grupo_193" data-name="Enmascarar grupo 193" transform="translate(180 3507)" clip-path="url(#clip-path)">
        <path id="Trazado_125318" data-name="Trazado 125318" d="M.533,199.677c2.851-23.991,16.045-45.455,22.194-68.819,4.6-17.493,5.184-35.75,7.449-53.7s6.5-36.268,17.254-50.812C61.764,6.968,87.485-3.278,111.22.94s44.352,22.7,51.131,45.832c8.743,29.833-4.523,61.487-3.79,92.566.407,17.253,5.137,34.069,7.993,51.089s3.709,35.131-3.242,50.928c-9.292,21.115-31.4,34.5-54.1,38.628-22.582,4.106-46.195.083-68.6-3.526-18.019-2.9-30.058-24.118-35.681-39.787A81.527,81.527,0,0,1,.533,199.677Z" transform="translate(163.721 -4.96) rotate(40)" fill="#3c3fa7"/>
      </g>
      <g id="Grupo_165271" data-name="Grupo 165271" transform="translate(181.422 3527.443)">
        <path id="Trazado_117051" data-name="Trazado 117051" d="M1911.529,1140.56c-29.2-12.81-37.507,10.387-36.815,59.552s3.116,92.941-25.275,68.8c0,0,3.463,18.1,24.582,19.487,0,0-13.156,10.041-24.582,2.078,0,0-4.5,29.43,27.7,45.01s82.4,6.579,89.674-28.737-19.422-145.719-19.422-145.719Z" transform="translate(-1798.894 -1133.948)" fill="#6a2810"/>
        <path id="Trazado_117052" data-name="Trazado 117052" d="M1950.685,1144.814c-8.569-12.205-20.774-5.453-24.409,7.53s10.026,26.487,10.026,26.487Z" transform="translate(-1829.596 -1134.479)" fill="#6b8dfc"/>
        <path id="Trazado_117053" data-name="Trazado 117053" d="M1938.117,1399.649l1.089,43.9,1.458,58.931.015.714.627-.021.064-.693h100.472c5.158-18.928.873-37.537-7.819-56.7a116.119,116.119,0,0,1-10.041-49.245s-2.567-1.153-9.11-2.07c-6.384-.887-16.54-1.557-31.781-.7a315.193,315.193,0,0,0-32.293,3.3A114.571,114.571,0,0,0,1938.117,1399.649Z" transform="translate(-1834.599 -1236.886)" fill="#fc5f65"/>
        <path id="Trazado_117054" data-name="Trazado 117054" d="M1854.176,1504.964h52.772l.014.714.628-.021.064-.693,4.14-46.351,5.287-59.062a114.6,114.6,0,0,0-12.681,2.583s-17.312,0-23.89,15.581C1874.64,1431.614,1857.753,1492.074,1854.176,1504.964Z" transform="translate(-1800.883 -1239.371)" fill="#fc5f65"/>
        <path id="Trazado_117055" data-name="Trazado 117055" d="M2066.4,1395.2l16.748,108.017H2143.9c-9.551-17.377-35.338-64.486-44.852-83.788-11.772-23.89-23.544-22.159-23.544-22.159S2072.94,1396.116,2066.4,1395.2Z" transform="translate(-1886.125 -1237.623)" fill="#fc5f65"/>
        <path id="Trazado_117056" data-name="Trazado 117056" d="M1939.937,1477.236l1.458,58.931.015.714.628-.021.064-.693h11.13c1.4-15.955-1.9-33.3-6.989-46.351A66.7,66.7,0,0,0,1939.937,1477.236Z" transform="translate(-1835.33 -1270.573)" fill="#f8333a"/>
        <path id="Trazado_117057" data-name="Trazado 117057" d="M1683.08,1576.083h280.048c.442,0,.8-.484.8-1.082s-.358-1.082-.8-1.082H1683.08c-.442,0-.8.485-.8,1.082S1682.639,1576.083,1683.08,1576.083Z" transform="translate(-1682.28 -1309.407)" fill="#fc5f65"/>
        <path id="Trazado_117058" data-name="Trazado 117058" d="M1942.76,1387.366c0,11.329,19.014,27.006,42.467,27.006s42.466-15.677,42.466-27.006-19.012-14.023-42.466-14.023S1942.76,1376.036,1942.76,1387.366Z" transform="translate(-1836.464 -1228.844)" fill="#e8484e"/>
        <path id="Trazado_117059" data-name="Trazado 117059" d="M1942.76,1383.749c0,11.33,19.014,27.006,42.467,27.006s42.466-15.677,42.466-27.006-19.012-14.022-42.466-14.022S1942.76,1372.42,1942.76,1383.749Z" transform="translate(-1836.464 -1227.392)" fill="#fc5f65"/>
        <path id="Trazado_117060" data-name="Trazado 117060" d="M1961.029,1393.46c0,8.414,31.536,20.055,31.536,20.055s31.536-11.641,31.536-20.055-14.119-10.413-31.536-10.413S1961.029,1385.047,1961.029,1393.46Z" transform="translate(-1843.802 -1232.741)" fill="#f8333a"/>
        <path id="Trazado_117061" data-name="Trazado 117061" d="M1979.165,1357.967c.318,12.075,20.687,22.2,20.687,22.2,19.1-10.553,18.632-24.215,18.632-24.215-2.084-1.428-3.3-7.278-4.018-13.648-1-8.965-1-18.927-1-18.927l-32.892-17.967c.39,5.3.685,10.069.895,14.354C1983.183,1355.427,1979.165,1357.967,1979.165,1357.967Z" transform="translate(-1851.087 -1201.559)" fill="#ffaf82"/>
        <path id="Trazado_117062" data-name="Trazado 117062" d="M1981.516,1305.412c.389,5.3.685,10.069.895,14.354,6.882,12.218,18.019,25.52,33,22.54-1-8.965-1-18.927-1-18.927Z" transform="translate(-1852.031 -1201.559)" fill="#fe976a"/>
        <path id="Trazado_117063" data-name="Trazado 117063" d="M1882.236,1554.1c14.769.325,26.039,17.386,10.985,37.775a2.8,2.8,0,0,1-5.023-1.453,16,16,0,0,1,.27-4.469s-3.809,4.328-6.232-.173c0,0-1.558,3.809-5.886.52,0,0-1.731,4.847-6.752,1.9s-9.868-19.389-4.847-27.526S1882.236,1554.1,1882.236,1554.1Z" transform="translate(-1804.281 -1301.399)" fill="#ffaf82"/>
        <path id="Trazado_117064" data-name="Trazado 117064" d="M1881.578,1597.076a1.082,1.082,0,0,0,.912-1.662c-4.285-6.759-4.677-16.158-4.68-16.252a1.072,1.072,0,0,0-1.12-1.042,1.083,1.083,0,0,0-1.042,1.12c.015.407.41,10.071,5.015,17.333A1.083,1.083,0,0,0,1881.578,1597.076Z" transform="translate(-1809.507 -1311.094)" fill="#fe976a"/>
        <path id="Trazado_117065" data-name="Trazado 117065" d="M1893.9,1594.814a1.055,1.055,0,0,0,.213-.021,1.082,1.082,0,0,0,.85-1.273,62.376,62.376,0,0,1-.735-18.508,1.082,1.082,0,0,0-2.143-.3,63.548,63.548,0,0,0,.755,19.231A1.082,1.082,0,0,0,1893.9,1594.814Z" transform="translate(-1815.95 -1309.352)" fill="#fe976a"/>
        <path id="Trazado_117066" data-name="Trazado 117066" d="M1905.082,1595.337a1.082,1.082,0,0,0,.969-.6c3.058-6.115,1.389-18.625,1.316-19.154a1.082,1.082,0,1,0-2.144.294c.016.123,1.651,12.375-1.108,17.893a1.082,1.082,0,0,0,.967,1.566Z" transform="translate(-1820.896 -1309.701)" fill="#fe976a"/>
        <path id="Trazado_117067" data-name="Trazado 117067" d="M2137.857,1554.1c-14.768.325-26.038,17.386-10.985,37.776a2.8,2.8,0,0,0,5.023-1.454,15.985,15.985,0,0,0-.27-4.468s3.809,4.328,6.232-.174c0,0,1.558,3.809,5.886.52,0,0,1.731,4.847,6.752,1.9s9.867-19.389,4.847-27.526S2137.857,1554.1,2137.857,1554.1Z" transform="translate(-1907.553 -1301.399)" fill="#ffaf82"/>
        <path id="Trazado_117068" data-name="Trazado 117068" d="M2159.124,1597.078a1.083,1.083,0,0,0,.916-.5c4.6-7.262,5-16.925,5.014-17.333a1.082,1.082,0,0,0-2.162-.078c0,.095-.395,9.494-4.679,16.252a1.082,1.082,0,0,0,.912,1.661Z" transform="translate(-1922.935 -1311.096)" fill="#fe976a"/>
        <path id="Trazado_117069" data-name="Trazado 117069" d="M2149.288,1594.815a1.083,1.083,0,0,0,1.06-.87,63.537,63.537,0,0,0,.755-19.231,1.082,1.082,0,1,0-2.142.3,62.592,62.592,0,0,1-.735,18.508,1.082,1.082,0,0,0,.848,1.274A1.12,1.12,0,0,0,2149.288,1594.815Z" transform="translate(-1918.984 -1309.352)" fill="#fe976a"/>
        <path id="Trazado_117070" data-name="Trazado 117070" d="M2137.717,1595.337a1.082,1.082,0,0,0,.967-1.566c-2.759-5.518-1.124-17.77-1.107-17.894a1.082,1.082,0,0,0-2.144-.294c-.072.529-1.742,13.039,1.315,19.154A1.083,1.083,0,0,0,2137.717,1595.337Z" transform="translate(-1913.645 -1309.701)" fill="#fe976a"/>
        <circle id="Elipse_4806" data-name="Elipse 4806" cx="2.747" cy="2.747" r="2.747" transform="translate(124.345 171.818)" fill="#e8484e"/>
        <circle id="Elipse_4807" data-name="Elipse 4807" cx="2.747" cy="2.747" r="2.747" transform="translate(166.584 172.798)" fill="#e8484e"/>
        <path id="Trazado_117071" data-name="Trazado 117071" d="M2046.754,1476.28a1.8,1.8,0,0,0,1.8-1.8v-48.819a1.8,1.8,0,0,0-3.607,0v48.819A1.8,1.8,0,0,0,2046.754,1476.28Z" transform="translate(-1877.51 -1249.132)" fill="#3c3fa7"/>
        <path id="Trazado_117072" data-name="Trazado 117072" d="M2043.625,1506.857c0,2.151,1.2,3.9,2.684,3.9s2.683-1.744,2.683-3.9-1.2-3.9-2.683-3.9S2043.625,1504.706,2043.625,1506.857Z" transform="translate(-1876.978 -1280.907)" fill="#fff"/>
        <path id="Trazado_117073" data-name="Trazado 117073" d="M1976.267,1474.641a1.8,1.8,0,0,0,1.8-1.8v-48.819a1.8,1.8,0,0,0-3.608,0v48.819A1.8,1.8,0,0,0,1976.267,1474.641Z" transform="translate(-1849.198 -1248.474)" fill="#3c3fa7"/>
        <path id="Trazado_117074" data-name="Trazado 117074" d="M1973.138,1505.217c0,2.151,1.2,3.9,2.683,3.9s2.684-1.744,2.684-3.9-1.2-3.9-2.684-3.9S1973.138,1503.066,1973.138,1505.217Z" transform="translate(-1848.666 -1280.248)" fill="#fff"/>
        <path id="Trazado_117075" data-name="Trazado 117075" d="M2033.245,1199.689c11.859-13.454,7.877-31.112,0-42.884s-22.765-10.733-22.765-10.733-15.927-21.813-49.857-11.426c-32.768,10.031-37.383,63.035-17.641,86.9S2033.245,1199.689,2033.245,1199.689Z" transform="translate(-1831.83 -1131.842)" fill="#6a2810"/>
        <path id="Trazado_117076" data-name="Trazado 117076" d="M1965.51,1234.083c2.107,26.135,17.359,45.011,49.017,45.011,30.266,0,36.535-32.993,32.328-62.307-1.849-12.939-5.742-25.164-10.513-33.514,0,0-57.649-22.587-67.774,18.7A101.9,101.9,0,0,0,1965.51,1234.083Z" transform="translate(-1845.499 -1150.024)" fill="#ffaf82"/>
        <path id="Trazado_117077" data-name="Trazado 117077" d="M1962.182,1287.6c-4.459,13.761-28.9,9.749-30.379-5.7-1.432-14.988,15.627-21.384,26.833-11.521S1962.182,1287.6,1962.182,1287.6Z" transform="translate(-1832.029 -1185.586)" fill="#ffaf82"/>
        <path id="Trazado_117078" data-name="Trazado 117078" d="M1950.15,1291.454a1.077,1.077,0,0,0,.871-.44c.215-.291,5.213-7.187,2.235-12.913a1.082,1.082,0,0,0-1.92,1c2.355,4.525-2.012,10.571-2.057,10.631a1.083,1.083,0,0,0,.872,1.722Z" transform="translate(-1838.998 -1190.355)" fill="#fe976a"/>
        <path id="Trazado_117079" data-name="Trazado 117079" d="M1958.943,1290.135a25.309,25.309,0,0,0,5.56-.648,1.082,1.082,0,0,0-.524-2.1c-.053.013-5.291,1.289-9,.026a1.082,1.082,0,0,0-.7,2.048A14.667,14.667,0,0,0,1958.943,1290.135Z" transform="translate(-1840.798 -1194.306)" fill="#fe976a"/>
        <path id="Trazado_117080" data-name="Trazado 117080" d="M2048.97,1312.145a13.851,13.851,0,0,0,11.444-5.9,1.082,1.082,0,1,0-1.721-1.312c-7.492,9.835-18.926,2.447-19.409,2.127a1.082,1.082,0,0,0-1.2,1.8A22.245,22.245,0,0,0,2048.97,1312.145Z" transform="translate(-1874.559 -1201.196)" fill="#6a2810"/>
        <path id="Trazado_117081" data-name="Trazado 117081" d="M2009.133,1287.238a6.2,6.2,0,0,0,4.446-1.9,8.358,8.358,0,0,0,1.121-9.89,7.87,7.87,0,0,0-7.589-4.493,7.5,7.5,0,0,0-6.526,4.975,1.082,1.082,0,0,0,2.042.716,5.334,5.334,0,0,1,4.646-3.534,5.71,5.71,0,0,1,5.515,3.349,6.21,6.21,0,0,1-.746,7.353,4.1,4.1,0,0,1-5.064.7,2.932,2.932,0,0,1-1.776-2.555,3.6,3.6,0,0,1,1.463-3.029.91.91,0,0,1,1-.118,1.082,1.082,0,0,0,1.017-1.91,3.1,3.1,0,0,0-3.172.2,5.767,5.767,0,0,0-2.473,4.951,5.087,5.087,0,0,0,2.941,4.386A6.846,6.846,0,0,0,2009.133,1287.238Z" transform="translate(-1859.665 -1187.71)" fill="#fe976a"/>
        <path id="Trazado_117082" data-name="Trazado 117082" d="M2086.623,1276a6.2,6.2,0,0,0,4.446-1.9,8.362,8.362,0,0,0,1.121-9.891,7.876,7.876,0,0,0-7.589-4.492,7.5,7.5,0,0,0-6.527,4.976,1.082,1.082,0,0,0,2.043.716,5.334,5.334,0,0,1,4.647-3.534,5.715,5.715,0,0,1,5.514,3.348,6.209,6.209,0,0,1-.745,7.353,4.1,4.1,0,0,1-5.065.7,2.934,2.934,0,0,1-1.776-2.555,3.6,3.6,0,0,1,1.463-3.03.911.911,0,0,1,1-.118,1.082,1.082,0,1,0,1.017-1.91,3.1,3.1,0,0,0-3.172.2,5.768,5.768,0,0,0-2.473,4.95,5.087,5.087,0,0,0,2.942,4.386A6.833,6.833,0,0,0,2086.623,1276Z" transform="translate(-1890.79 -1183.198)" fill="#fe976a"/>
        <path id="Trazado_117083" data-name="Trazado 117083" d="M2057.781,1277a1.081,1.081,0,0,0,.612-.191l9.443-6.5a1.083,1.083,0,0,0,.277-1.506l-9.443-13.676a1.082,1.082,0,1,0-1.78,1.229l8.826,12.784-8.55,5.887a1.083,1.083,0,0,0,.615,1.974Z" transform="translate(-1882.229 -1181.174)" fill="#6a2810"/>
        <path id="Trazado_117084" data-name="Trazado 117084" d="M2018.515,1249.7c0,2.91-1.17,4.547-2.614,4.547s-2.614-1.638-2.614-4.547,1.17-4.47,2.614-4.47S2018.515,1246.8,2018.515,1249.7Z" transform="translate(-1864.792 -1177.388)" fill="#6a2810"/>
        <path id="Trazado_117085" data-name="Trazado 117085" d="M1965.51,1234.083c24.355.9,34.41-39.363,34.41-39.363s30.706,30.1,46.935,22.067c-1.849-12.939-5.742-25.164-10.513-33.514,0,0-57.649-22.587-67.774,18.7A101.9,101.9,0,0,0,1965.51,1234.083Z" transform="translate(-1845.499 -1150.024)" fill="#fe976a"/>
        <path id="Trazado_117086" data-name="Trazado 117086" d="M2044.52,1208.771c-16.078,9.017-47.486-21.778-47.486-21.778s-10.3,41.239-35.295,39.316c0,0-11-9.194-1.116-39.316s67.777-23.37,76.222-9.867S2044.52,1208.771,2044.52,1208.771Z" transform="translate(-1841.984 -1145.433)" fill="#6a2810"/>
        <path id="Trazado_117087" data-name="Trazado 117087" d="M2105.5,1538.02a1.082,1.082,0,0,0,1.043-.8c4.653-17.075,2.15-35.325-7.877-57.434a1.082,1.082,0,0,0-1.971.894c9.808,21.625,12.273,39.41,7.76,55.971a1.082,1.082,0,0,0,1.045,1.367Z" transform="translate(-1898.254 -1271.344)" fill="#f8333a"/>
        <path id="Trazado_117088" data-name="Trazado 117088" d="M2077.593,1242.169c0,2.91-1.17,4.547-2.614,4.547s-2.614-1.638-2.614-4.547,1.17-4.47,2.614-4.47S2077.593,1239.26,2077.593,1242.169Z" transform="translate(-1888.521 -1174.361)" fill="#6a2810"/>
      </g>
    </g>
  </g>
</svg>
