<svg xmlns="http://www.w3.org/2000/svg" xmlns:xlink="http://www.w3.org/1999/xlink" width="478" height="150" viewBox="0 0 478 150">
  <defs>
    <clipPath id="clip-path">
      <rect id="Rectangle_339645" data-name="Rectangle 339645" width="127" height="127" transform="translate(684 614)" fill="#fff" stroke="#707070" stroke-width="1"/>
    </clipPath>
    <clipPath id="clip-path-2">
      <path id="path2944" d="M0-127H127V0H0Z"/>
    </clipPath>
    <clipPath id="clip-path-3">
      <rect id="Rectangle_339647" data-name="Rectangle 339647" width="127" height="127" transform="translate(684 771)" fill="#fff" stroke="#707070" stroke-width="1"/>
    </clipPath>
    <clipPath id="clip-path-5">
      <rect id="Rectangle_339648" data-name="Rectangle 339648" width="127" height="127" transform="translate(684 928)" fill="#fff" stroke="#707070" stroke-width="1"/>
    </clipPath>
  </defs>
  <g id="_2" data-name="2" transform="translate(-565 -608)">
    <g id="Group_984703" data-name="Group 984703" transform="translate(0 5)">
      <g id="Mask_Group_626" data-name="Mask Group 626" transform="translate(-108 1)" clip-path="url(#clip-path)">
        <g id="g2934" transform="translate(684 741)">
          <g id="g2936" transform="translate(19.411 -91.835)">
            <path id="path2938" d="M0,0H0V2.724" fill="none" stroke="#000" stroke-linecap="round" stroke-linejoin="round" stroke-miterlimit="10" stroke-width="3.721"/>
          </g>
          <g id="g2940">
            <g id="g2942" clip-path="url(#clip-path-2)">
              <g id="g2948" transform="translate(117.097 -40.887)">
                <path id="path2950" d="M0,0H-34.231A19.366,19.366,0,0,0-53.6-19.366,19.366,19.366,0,0,0-72.963,0h-34.231A53.6,53.6,0,0,1-53.6-53.6,53.6,53.6,0,0,1,0,0" fill="#fd636f"/>
              </g>
              <g id="g2952" transform="translate(117.098 -40.888)">
                <path id="path2954" d="M0,0H-8.339A53.6,53.6,0,0,0-57.765-53.437C-56.391-53.543-55-53.6-53.6-53.6A53.6,53.6,0,0,1,0,0" fill="#fe4855"/>
              </g>
              <g id="g2956" transform="translate(105.925 -40.887)">
                <path id="path2958" d="M0,0H-23.058A19.366,19.366,0,0,0-42.425-19.366,19.366,19.366,0,0,0-61.791,0H-84.849A42.426,42.426,0,0,1-42.425-42.425,42.426,42.426,0,0,1,0,0" fill="#fee35a"/>
              </g>
              <g id="g2960" transform="translate(105.926 -40.888)">
                <path id="path2962" d="M0,0H-8.339A42.427,42.427,0,0,0-46.593-42.22q2.058-.2,4.167-.2A42.425,42.425,0,0,1,0,0" fill="#fed400"/>
              </g>
              <g id="g2964" transform="translate(94.63 -40.887)">
                <path id="path2966" d="M0,0H-11.763A19.366,19.366,0,0,0-31.13-19.366,19.366,19.366,0,0,0-50.5,0H-62.259A31.13,31.13,0,0,1-31.13-31.129,31.13,31.13,0,0,1,0,0" fill="#0ed2b3"/>
              </g>
              <g id="g2968" transform="translate(94.63 -40.888)">
                <path id="path2970" d="M0,0H-8.339A31.133,31.133,0,0,0-35.3-30.852a31.255,31.255,0,0,1,4.17-.278A31.13,31.13,0,0,1,0,0" fill="#09b79f"/>
              </g>
              <g id="g2972" transform="translate(21.076 -40.887)">
                <path id="path2974" d="M0,0A42.424,42.424,0,0,1,42.424-42.424,42.424,42.424,0,0,1,84.849,0" fill="none" stroke="#000" stroke-linecap="round" stroke-linejoin="round" stroke-miterlimit="10" stroke-width="3.721"/>
              </g>
              <g id="g2976" transform="translate(94.629 -40.887)">
                <path id="path2978" d="M0,0A31.134,31.134,0,0,0-27.078-30.867" fill="none" stroke="#000" stroke-linecap="round" stroke-linejoin="round" stroke-miterlimit="10" stroke-width="3.721"/>
              </g>
              <g id="g2980" transform="translate(59.368 -71.743)">
                <path id="path2982" d="M0,0A31.134,31.134,0,0,0-27,30.856" fill="none" stroke="#000" stroke-linecap="round" stroke-linejoin="round" stroke-miterlimit="10" stroke-width="3.721"/>
              </g>
              <g id="g2984" transform="translate(100.642 -79.526)">
                <path id="path2986" d="M0,0A53.415,53.415,0,0,0-37.142-14.959a53.6,53.6,0,0,0-53.6,53.6h34.231A19.366,19.366,0,0,1-37.142,19.273,19.366,19.366,0,0,1-17.776,38.639H16.456A53.357,53.357,0,0,0,5.465,6.123" fill="none" stroke="#000" stroke-linecap="round" stroke-linejoin="round" stroke-miterlimit="10" stroke-width="3.721"/>
              </g>
              <g id="g2988" transform="translate(40.853 -46.99)">
                <path id="path2990" d="M0,0A9.333,9.333,0,0,0-3.448.658,12.61,12.61,0,0,0-14.814-6.485,12.61,12.61,0,0,0-26.179.658,9.333,9.333,0,0,0-29.627,0a9.366,9.366,0,0,0-9.366,9.366,9.366,9.366,0,0,0,9.366,9.366,9.337,9.337,0,0,0,6.771-2.9,12.557,12.557,0,0,0,8.042,2.9,12.557,12.557,0,0,0,8.043-2.9A9.337,9.337,0,0,0,0,18.732,9.366,9.366,0,0,0,9.366,9.366,9.366,9.366,0,0,0,0,0" fill="#b4daff"/>
              </g>
              <g id="g2992" transform="translate(50.219 -37.555)">
                <path id="path2994" d="M0,0A9.467,9.467,0,0,1-9.713,9.292,9.336,9.336,0,0,1-16.138,6.4a12.548,12.548,0,0,1-8.042,2.9,12.553,12.553,0,0,1-8.042-2.9,9.335,9.335,0,0,1-6.772,2.9,9.367,9.367,0,0,1-9.262-7.972,9.314,9.314,0,0,0,5.211,1.583,9.313,9.313,0,0,0,5.452-1.753A2.472,2.472,0,0,1-34.85,1.03a12.535,12.535,0,0,0,6.62,1.878A12.543,12.543,0,0,0-21.609,1.03a2.464,2.464,0,0,1,2.733.12,9.321,9.321,0,0,0,5.9,1.748,9.413,9.413,0,0,0,8.924-9.5,9.2,9.2,0,0,0-.1-1.246A9.359,9.359,0,0,1,0,0" fill="#8bc9fe"/>
              </g>
              <g id="g2996" transform="translate(8.464 -28.673)">
                <path id="path2998" d="M0,0A9.359,9.359,0,0,0,2.763.415a9.336,9.336,0,0,0,6.771-2.9,12.557,12.557,0,0,0,8.043,2.9,12.556,12.556,0,0,0,8.042-2.9A9.337,9.337,0,0,0,32.39.415a9.366,9.366,0,0,0,9.366-9.366,9.366,9.366,0,0,0-9.366-9.366,9.34,9.34,0,0,0-3.448.658A12.609,12.609,0,0,0,17.577-24.8,12.61,12.61,0,0,0,6.211-17.659a9.338,9.338,0,0,0-3.448-.658A9.366,9.366,0,0,0-6.6-8.951a9.337,9.337,0,0,0,.63,3.375" fill="none" stroke="#000" stroke-linecap="round" stroke-linejoin="round" stroke-miterlimit="10" stroke-width="3.721"/>
              </g>
              <g id="g3000" transform="translate(115.773 -46.99)">
                <path id="path3002" d="M0,0A9.333,9.333,0,0,0-3.448.658,12.61,12.61,0,0,0-14.813-6.485,12.61,12.61,0,0,0-26.179.658,9.333,9.333,0,0,0-29.627,0a9.366,9.366,0,0,0-9.366,9.366,9.366,9.366,0,0,0,9.366,9.366,9.337,9.337,0,0,0,6.771-2.9,12.557,12.557,0,0,0,8.043,2.9,12.557,12.557,0,0,0,8.042-2.9A9.337,9.337,0,0,0,0,18.732,9.366,9.366,0,0,0,9.366,9.366,9.366,9.366,0,0,0,0,0" fill="#b4daff"/>
              </g>
              <g id="g3004" transform="translate(125.139 -37.555)">
                <path id="path3006" d="M0,0A9.468,9.468,0,0,1-9.713,9.292,9.336,9.336,0,0,1-16.138,6.4a12.553,12.553,0,0,1-8.042,2.9,12.548,12.548,0,0,1-8.042-2.9,9.335,9.335,0,0,1-6.772,2.9,9.367,9.367,0,0,1-9.262-7.972,9.314,9.314,0,0,0,5.211,1.583,9.313,9.313,0,0,0,5.452-1.753,2.472,2.472,0,0,1,2.74-.125A12.537,12.537,0,0,0-28.23,2.908,12.544,12.544,0,0,0-21.609,1.03a2.464,2.464,0,0,1,2.733.12A9.321,9.321,0,0,0-12.967,2.9,9.413,9.413,0,0,0-4.051-6.608a9.209,9.209,0,0,0-.1-1.244A9.359,9.359,0,0,1,0,0" fill="#8bc9fe"/>
              </g>
              <g id="g3008" transform="translate(115.773 -46.99)">
                <path id="path3010" d="M0,0A9.333,9.333,0,0,0-3.448.658,12.61,12.61,0,0,0-14.813-6.485,12.61,12.61,0,0,0-26.179.658,9.333,9.333,0,0,0-29.627,0a9.366,9.366,0,0,0-9.366,9.366,9.366,9.366,0,0,0,9.366,9.366,9.337,9.337,0,0,0,6.771-2.9,12.557,12.557,0,0,0,8.043,2.9,12.557,12.557,0,0,0,8.042-2.9A9.337,9.337,0,0,0,0,18.732,9.366,9.366,0,0,0,9.366,9.366,9.366,9.366,0,0,0,0,0Z" fill="none" stroke="#000" stroke-linecap="round" stroke-linejoin="round" stroke-miterlimit="10" stroke-width="3.721"/>
              </g>
              <g id="g3012" transform="translate(113.885 -78.001)">
                <path id="path3014" d="M0,0H0V2.724" fill="none" stroke="#000" stroke-linecap="round" stroke-linejoin="round" stroke-miterlimit="10" stroke-width="3.721"/>
              </g>
              <g id="g3016" transform="translate(105.924 -93.197)">
                <path id="path3018" d="M0,0H0V2.724" fill="none" stroke="#000" stroke-linecap="round" stroke-linejoin="round" stroke-miterlimit="10" stroke-width="3.721"/>
              </g>
              <g id="g3020" transform="translate(66.721 -48.617)">
                <path id="path3022" d="M0,0H0V2.724" fill="none" stroke="#000" stroke-linecap="round" stroke-linejoin="round" stroke-miterlimit="10" stroke-width="3.721"/>
              </g>
              <g id="g3024" transform="translate(32.371 -98.743)">
                <path id="path3026" d="M0,0H0V2.724" fill="none" stroke="#000" stroke-linecap="round" stroke-linejoin="round" stroke-miterlimit="10" stroke-width="3.721"/>
              </g>
              <g id="g3028" transform="translate(61.085 -37.75)">
                <path id="path3030" d="M0,0H0V2.724" fill="none" stroke="#000" stroke-linecap="round" stroke-linejoin="round" stroke-miterlimit="10" stroke-width="3.721"/>
              </g>
            </g>
          </g>
        </g>
      </g>
      <g id="Rectangle_339650" data-name="Rectangle 339650" transform="translate(565 603)" fill="none" stroke="#ec6c71" stroke-width="2">
        <rect width="148" height="150" rx="11" stroke="none"/>
        <rect x="1" y="1" width="146" height="148" rx="10" fill="none"/>
      </g>
    </g>
    <g id="Group_984702" data-name="Group 984702" transform="translate(2 5)">
      <g id="Mask_Group_627" data-name="Mask Group 627" transform="translate(55 -156)" clip-path="url(#clip-path-3)">
        <g id="g6705" transform="translate(684 898)">
          <g id="g6707">
            <g id="g6709" clip-path="url(#clip-path-2)">
              <g id="g6715" transform="translate(79.112 -110.17)">
                <path id="path6717" d="M0,0A6.919,6.919,0,0,0-6.881-6.2a6.916,6.916,0,0,0-6.081,3.615A15.612,15.612,0,0,0-27.3-12.024,15.619,15.619,0,0,0-42.5,0h-3.891a6.043,6.043,0,0,0-4.284,1.776,6.043,6.043,0,0,0-1.776,4.285,6.06,6.06,0,0,0,6.061,6.061H18.375V0Z" fill="#ddebfd"/>
              </g>
              <g id="g6719" transform="translate(97.488 -110.17)">
                <path id="path6721" d="M0,0H-18.375a6.919,6.919,0,0,0-6.881-6.2,6.916,6.916,0,0,0-6.081,3.615,15.612,15.612,0,0,0-14.343-9.439A15.619,15.619,0,0,0-60.876,0h-3.891a6.043,6.043,0,0,0-4.284,1.776,6.043,6.043,0,0,0-1.776,4.285,6.06,6.06,0,0,0,6.061,6.061H0" fill="none" stroke="#000" stroke-linecap="round" stroke-linejoin="round" stroke-miterlimit="10" stroke-width="3.721"/>
              </g>
              <g id="g6723" transform="translate(65.587 -111.384)">
                <path id="path6725" d="M0,0A6.934,6.934,0,0,1,4.367-4.6" fill="none" stroke="#000" stroke-linecap="round" stroke-linejoin="round" stroke-miterlimit="10" stroke-width="3.721"/>
              </g>
              <path id="path6727" d="M1.86-4.023H125.14V-38.382H1.86Z" fill="#bed9fd"/>
              <path id="path6729" d="M1.86-4.023H125.14v-6.531H1.86Z" fill="#9ec8fc"/>
              <g id="g6731" transform="translate(1.86 -4.023)">
                <path id="path6733" d="M0,0H123.279" fill="none" stroke="#000" stroke-linecap="round" stroke-linejoin="round" stroke-miterlimit="10" stroke-width="3.721"/>
              </g>
              <g id="g6735" transform="translate(125.14 -38.382)">
                <path id="path6737" d="M0,0H-123.279" fill="none" stroke="#000" stroke-linecap="round" stroke-linejoin="round" stroke-miterlimit="10" stroke-width="3.721"/>
              </g>
              <g id="g6739" transform="translate(72.884 -56.783)">
                <path id="path6741" d="M0,0V31.9a9.966,9.966,0,0,0-1.908-.233c-2.582,0-7.389,1.994-9.969,1.994-2.022,0-5.407-1.272-8.019-1.786a9.144,9.144,0,0,0-1.952-.208c-2.58.082-7.387,1.994-9.969,1.994a21.064,21.064,0,0,1-4.646-.878,29.013,29.013,0,0,0-5.323-1.116c-2.58-.082-7.389,1.994-9.969,1.994a27.2,27.2,0,0,1-4.606-.7V0l27-12.63a2.789,2.789,0,0,1,2.353,0Z" fill="#ddebfd"/>
              </g>
              <g id="g6743" transform="translate(43.527 -69.413)">
                <path id="path6745" d="M0,0-27,12.63v6.1L0,6.1a2.778,2.778,0,0,1,2.353,0l27,12.63v-6.1L2.353,0A2.778,2.778,0,0,0,0,0" fill="#bed9fd"/>
              </g>
              <g id="g6747" transform="translate(72.884 -24.884)">
                <path id="path6749" d="M0,0V-31.9" fill="none" stroke="#000" stroke-linecap="round" stroke-linejoin="round" stroke-miterlimit="10" stroke-width="3.721"/>
              </g>
              <g id="g6751" transform="translate(16.523 -23.82)">
                <path id="path6753" d="M0,0V-32.963" fill="none" stroke="#000" stroke-linecap="round" stroke-linejoin="round" stroke-miterlimit="10" stroke-width="3.721"/>
              </g>
              <g id="g6755" transform="translate(52.988 -43.743)">
                <path id="path6757" d="M0,0V18.834a9.129,9.129,0,0,0-1.952-.208c-2.58.082-7.387,1.994-9.969,1.994a21.064,21.064,0,0,1-4.646-.878V0A8.283,8.283,0,0,1-8.285-8.285,8.284,8.284,0,0,1,0,0" fill="#4980ac"/>
              </g>
              <g id="g6759" transform="translate(52.988 -43.743)">
                <path id="path6761" d="M0,0V18.834a9.129,9.129,0,0,0-1.952-.208c-2.58.082-7.387,1.994-9.969,1.994a21.064,21.064,0,0,1-4.646-.878V0A8.283,8.283,0,0,1-8.285-8.285,8.284,8.284,0,0,1,0,0Z" fill="none" stroke="#000" stroke-linecap="round" stroke-linejoin="round" stroke-miterlimit="10" stroke-width="3.721"/>
              </g>
              <g id="g6763" transform="translate(90.917 -25.117)">
                <path id="path6765" d="M0,0C-2.582,0-7.389,1.994-9.969,1.994-12,1.994-15.414.762-18.033.233A10.031,10.031,0,0,0-19.941,0c-2.582,0-7.389,1.994-9.969,1.994-2.022,0-5.407-1.275-8.019-1.786A9.1,9.1,0,0,0-39.881,0c-2.58.082-7.387,1.994-9.969,1.994A21.139,21.139,0,0,1-54.5,1.116,28.885,28.885,0,0,0-59.819,0c-2.58-.082-7.389,1.994-9.969,1.994a27.069,27.069,0,0,1-4.606-.7C-77.086.723-79.759,0-79.759,0" fill="none" stroke="#000" stroke-linecap="round" stroke-linejoin="round" stroke-miterlimit="10" stroke-width="3.721"/>
              </g>
              <g id="g6767" transform="translate(114.491 -18.274)">
                <path id="path6769" d="M0,0C-1.852,0-5.3,1.43-7.149,1.43c-1.459,0-3.905-.884-5.783-1.263A7.184,7.184,0,0,0-14.3,0c-1.852,0-5.3,1.43-7.15,1.43" fill="none" stroke="#000" stroke-linecap="round" stroke-linejoin="round" stroke-miterlimit="10" stroke-width="3.721"/>
              </g>
              <g id="g6771" transform="translate(30.974 -85.028)">
                <path id="path6773" d="M0,0V16.437l-11,5.979V5.146Z" fill="#ddebfd"/>
              </g>
              <g id="g6775" transform="translate(30.974 -85.028)">
                <path id="path6777" d="M0,0V16.437l-11,5.979V5.146Z" fill="none" stroke="#000" stroke-linecap="round" stroke-linejoin="round" stroke-miterlimit="10" stroke-width="3.721"/>
              </g>
              <g id="g6779" transform="translate(78.656 -54.084)">
                <path id="path6781" d="M0,0-32.776-15.329a2.778,2.778,0,0,0-2.353,0L-67.9,0a1.432,1.432,0,0,1-1.9-.69l-2.881-6.161a1.432,1.432,0,0,1,.69-1.9l36-16.837a4.833,4.833,0,0,1,4.095,0L4.1-8.755a1.432,1.432,0,0,1,.69,1.9L1.9-.69A1.432,1.432,0,0,1,0,0" fill="#6fbbc6"/>
              </g>
              <g id="g6783" transform="translate(70.521 -68.559)">
                <path id="path6785" d="M0,0,12.23,5.72a1.432,1.432,0,0,1,.69,1.9l-2.882,6.161a1.432,1.432,0,0,1-1.9.69L-24.641-.855a2.776,2.776,0,0,0-2.353,0L-59.769,14.475a1.432,1.432,0,0,1-1.9-.69l-2.881-6.161a1.431,1.431,0,0,1,.69-1.9l36-16.837a4.832,4.832,0,0,1,4.095,0L-7.864-3.678" fill="none" stroke="#000" stroke-linecap="round" stroke-linejoin="round" stroke-miterlimit="10" stroke-width="3.721"/>
              </g>
              <g id="g6787" transform="translate(34.09 -86.484)">
                <path id="path6789" d="M0,0-18.291,8.555" fill="none" stroke="#000" stroke-linecap="round" stroke-linejoin="round" stroke-miterlimit="10" stroke-width="3.721"/>
              </g>
              <g id="g6791" transform="translate(73.631 -105.242)">
                <path id="path6793" d="M0,0H5.135a7.33,7.33,0,0,1-.311-3.036,7.329,7.329,0,0,1,6.7-6.5A7.291,7.291,0,0,1,17.547-7.1a11.751,11.751,0,0,1,12.04-10.63A11.8,11.8,0,0,1,40.989-6.4a11.7,11.7,0,0,1-1.42,6.027A.248.248,0,0,0,39.784,0h2.191a5.858,5.858,0,0,1,5.9,5.557,5.768,5.768,0,0,1-5.764,5.978H-.138A5.768,5.768,0,0,1-5.9,5.557,5.858,5.858,0,0,1,0,0" fill="#bed9fd"/>
              </g>
              <g id="g6795" transform="translate(115.606 -105.242)">
                <path id="path6797" d="M0,0H-2.191a.249.249,0,0,1-.216-.371A11.691,11.691,0,0,0-.979-5.935a11.8,11.8,0,0,0-11.451-11.8,11.788,11.788,0,0,0-3.087.329A11.754,11.754,0,0,1-6.541-5.984,11.691,11.691,0,0,1-7.969-.371.249.249,0,0,0-7.753,0h2.191A5.858,5.858,0,0,1,.34,5.557a5.768,5.768,0,0,1-5.764,5.978H.138A5.768,5.768,0,0,0,5.9,5.557,5.858,5.858,0,0,0,0,0" fill="#9ec8fc"/>
              </g>
              <g id="g6799" transform="translate(85.937 -93.706)">
                <path id="path6801" d="M0,0H-12.444a5.768,5.768,0,0,1-5.764-5.978,5.858,5.858,0,0,1,5.9-5.557h5.135a7.325,7.325,0,0,1-.311-3.036,7.329,7.329,0,0,1,6.7-6.5,7.292,7.292,0,0,1,6.022,2.431,11.751,11.751,0,0,1,12.04-10.63,11.8,11.8,0,0,1,11.4,11.332,11.707,11.707,0,0,1-1.42,6.027.249.249,0,0,0,.216.371h2.191a5.858,5.858,0,0,1,5.9,5.557A5.768,5.768,0,0,1,29.807,0H8.682" fill="none" stroke="#000" stroke-linecap="round" stroke-linejoin="round" stroke-miterlimit="10" stroke-width="3.721"/>
              </g>
              <g id="g6803" transform="translate(110.031 -49.347)">
                <path id="path6805" d="M0,0-1.152,3.164" fill="none" stroke="#000" stroke-linecap="round" stroke-linejoin="round" stroke-miterlimit="10" stroke-width="3.721"/>
              </g>
              <g id="g6807" transform="translate(114.491 -61.599)">
                <path id="path6809" d="M0,0-1.49,4.092" fill="none" stroke="#000" stroke-linecap="round" stroke-linejoin="round" stroke-miterlimit="10" stroke-width="3.721"/>
              </g>
              <g id="g6811" transform="translate(77.961 -85.049)">
                <path id="path6813" d="M0,0-2.93,8.052" fill="none" stroke="#000" stroke-linecap="round" stroke-linejoin="round" stroke-miterlimit="10" stroke-width="3.721"/>
              </g>
              <g id="g6815" transform="translate(120.84 -79.043)">
                <path id="path6817" d="M0,0-3.379,9.284" fill="none" stroke="#000" stroke-linecap="round" stroke-linejoin="round" stroke-miterlimit="10" stroke-width="3.721"/>
              </g>
              <g id="g6819" transform="translate(96.639 -57.843)">
                <path id="path6821" d="M0,0-1.731,4.755" fill="none" stroke="#000" stroke-linecap="round" stroke-linejoin="round" stroke-miterlimit="10" stroke-width="3.721"/>
              </g>
              <g id="g6823" transform="translate(102.054 -72.721)">
                <path id="path6825" d="M0,0-2.445,6.718" fill="none" stroke="#000" stroke-linecap="round" stroke-linejoin="round" stroke-miterlimit="10" stroke-width="3.721"/>
              </g>
              <g id="g6827" transform="translate(106.868 -85.949)">
                <path id="path6829" d="M0,0-1.844,5.067" fill="none" stroke="#000" stroke-linecap="round" stroke-linejoin="round" stroke-miterlimit="10" stroke-width="3.721"/>
              </g>
              <g id="g6831" transform="translate(86.811 -73.82)">
                <path id="path6833" d="M0,0-1.993,5.477" fill="none" stroke="#000" stroke-linecap="round" stroke-linejoin="round" stroke-miterlimit="10" stroke-width="3.721"/>
              </g>
              <g id="g6835" transform="translate(91.283 -86.105)">
                <path id="path6837" d="M0,0-.769,2.113" fill="none" stroke="#000" stroke-linecap="round" stroke-linejoin="round" stroke-miterlimit="10" stroke-width="3.721"/>
              </g>
              <g id="g6839" transform="translate(62.271 -88.976)">
                <path id="path6841" d="M0,0-1.814,4.985" fill="none" stroke="#000" stroke-linecap="round" stroke-linejoin="round" stroke-miterlimit="10" stroke-width="3.721"/>
              </g>
            </g>
          </g>
        </g>
      </g>
      <g id="Rectangle_339651" data-name="Rectangle 339651" transform="translate(728 603)" fill="none" stroke="#ec6c71" stroke-width="2">
        <rect width="148" height="150" rx="11" stroke="none"/>
        <rect x="1" y="1" width="146" height="148" rx="10" fill="none"/>
      </g>
    </g>
    <g id="Group_984701" data-name="Group 984701" transform="translate(0 5)">
      <g id="Mask_Group_628" data-name="Mask Group 628" transform="translate(222 -313)" clip-path="url(#clip-path-5)">
        <g id="lluvia_1_" data-name="lluvia (1)" transform="translate(684 928)">
          <path id="Path_212664" data-name="Path 212664" d="M78.827,30.027l.076-.021a9.668,9.668,0,0,1,12.862-6.2,8.778,8.778,0,0,1,5.7-2.108,8.916,8.916,0,0,1,1.276.091,12.281,12.281,0,0,1,22.627,6.59,8.454,8.454,0,0,1,3.2,2.639,2.69,2.69,0,0,1-2.166,4.283H79.585a2.689,2.689,0,0,1-.758-5.269Z" fill="#aeaeae"/>
          <path id="Path_212665" data-name="Path 212665" d="M90.749,31.07a12.777,12.777,0,0,0-7.119-4.992A16.847,16.847,0,0,0,61.216,15.266a15.3,15.3,0,0,0-9.931-3.674,15.543,15.543,0,0,0-2.223.159A21.4,21.4,0,0,0,9.632,23.234a14.715,14.715,0,0,0-7.625,8.491A2.691,2.691,0,0,0,4.548,35.3H88.541A2.688,2.688,0,0,0,90.749,31.07Z" fill="silver"/>
          <g id="Group_984699" data-name="Group 984699">
            <path id="Path_212666" data-name="Path 212666" d="M90.749,31.07a12.777,12.777,0,0,0-7.119-4.992A16.847,16.847,0,0,0,61.216,15.266a15.3,15.3,0,0,0-9.931-3.674,15.543,15.543,0,0,0-2.223.159A21.378,21.378,0,0,0,13.388,11.2,21.317,21.317,0,0,1,26.494,6.711a21.541,21.541,0,0,1,18,9.872,15.543,15.543,0,0,1,2.223-.159A15.3,15.3,0,0,1,56.65,20.1,16.847,16.847,0,0,1,79.063,30.91,12.762,12.762,0,0,1,85.725,35.3h2.816A2.689,2.689,0,0,0,90.749,31.07Z" fill="#9d9d9d"/>
          </g>
          <path id="Path_212667" data-name="Path 212667" d="M53.225,78.552a2.066,2.066,0,0,0,1.789-3.1l-11.951-20.7a4.6,4.6,0,0,0-7.961,0l-11.951,20.7a2.066,2.066,0,0,0,1.789,3.1,2.066,2.066,0,0,1,1.789,3.1l-3.578,6.2a2.066,2.066,0,0,0,1.789,3.1h.355a2.066,2.066,0,0,1,1.789,3.1l-3.933,6.812a2.066,2.066,0,0,0,1.789,3.1H53.225a2.066,2.066,0,0,0,1.789-3.1l-3.933-6.812a2.066,2.066,0,0,1,1.789-3.1h.355a2.066,2.066,0,0,0,1.789-3.1l-3.578-6.2a2.066,2.066,0,0,1,1.789-3.1Z" fill="#9be69d"/>
          <path id="Path_212668" data-name="Path 212668" d="M52.87,90.947h.355a2.066,2.066,0,0,0,1.789-3.1l-3.578-6.2a2.066,2.066,0,0,1,1.789-3.1,2.066,2.066,0,0,0,1.789-3.1l-11.951-20.7a4.6,4.6,0,0,0-7.961,0l-.334.578A4.579,4.579,0,0,1,36.1,56.8L48.051,77.5a2.066,2.066,0,0,1-1.789,3.1,2.066,2.066,0,0,0-1.789,3.1l3.578,6.2a2.066,2.066,0,0,1-1.789,3.1h-.355a2.066,2.066,0,0,0-1.789,3.1l3.933,6.812a2.048,2.048,0,0,1,.279,1.056h4.894a2.066,2.066,0,0,0,1.789-3.1l-3.933-6.812a2.066,2.066,0,0,1,1.789-3.1Z" fill="#6fd7a3"/>
          <path id="Path_212669" data-name="Path 212669" d="M34.948,96.116h8.268v29.005H34.948Z" fill="#bd8580"/>
          <path id="Path_212670" data-name="Path 212670" d="M102.1,78.552a2.066,2.066,0,0,0,1.789-3.1l-11.951-20.7a4.6,4.6,0,0,0-7.961,0l-11.951,20.7a2.066,2.066,0,0,0,1.789,3.1,2.066,2.066,0,0,1,1.789,3.1l-3.578,6.2a2.066,2.066,0,0,0,1.789,3.1h.355a2.066,2.066,0,0,1,1.789,3.1l-3.933,6.812a2.066,2.066,0,0,0,1.789,3.1H102.1a2.066,2.066,0,0,0,1.789-3.1l-3.933-6.812a2.066,2.066,0,0,1,1.789-3.1h.355a2.066,2.066,0,0,0,1.789-3.1l-3.578-6.2A2.066,2.066,0,0,1,102.1,78.552Z" fill="#9be69d"/>
          <path id="Path_212671" data-name="Path 212671" d="M101.745,90.947h.355a2.066,2.066,0,0,0,1.789-3.1l-3.578-6.2a2.066,2.066,0,0,1,1.789-3.1,2.066,2.066,0,0,0,1.789-3.1l-11.951-20.7a4.6,4.6,0,0,0-7.961,0l-.334.578A4.579,4.579,0,0,1,84.975,56.8L96.926,77.5a2.066,2.066,0,0,1-1.789,3.1,2.066,2.066,0,0,0-1.789,3.1l3.578,6.2a2.066,2.066,0,0,1-1.789,3.1h-.355a2.066,2.066,0,0,0-1.789,3.1l3.933,6.812a2.048,2.048,0,0,1,.279,1.056H102.1a2.066,2.066,0,0,0,1.789-3.1l-3.933-6.812a2.066,2.066,0,0,1,1.789-3.1Z" fill="#6fd7a3"/>
          <path id="Path_212672" data-name="Path 212672" d="M83.823,96.116h8.268v29.005H83.823Z" fill="#bd8580"/>
          <g id="Group_984700" data-name="Group 984700">
            <path id="Path_212673" data-name="Path 212673" d="M125.14,123.261H93.951V105.817H102.1a3.926,3.926,0,0,0,3.4-5.889l-3.933-6.812a.206.206,0,0,1,.179-.309h.355a3.926,3.926,0,0,0,3.4-5.889l-3.578-6.2a.206.206,0,0,1,.179-.309,3.926,3.926,0,0,0,3.4-5.889l-11.951-20.7a6.456,6.456,0,0,0-11.183,0l-11.951,20.7a3.926,3.926,0,0,0,3.4,5.889.206.206,0,0,1,.179.309l-3.579,6.2a3.926,3.926,0,0,0,3.4,5.889h.355a.206.206,0,0,1,.179.309l-3.933,6.812a3.926,3.926,0,0,0,3.4,5.889h8.149v17.444H45.076V105.817h8.149a3.926,3.926,0,0,0,3.4-5.889l-3.933-6.812a.206.206,0,0,1,.179-.309h.355a3.926,3.926,0,0,0,3.4-5.889l-3.578-6.2a.206.206,0,0,1,.179-.309,3.926,3.926,0,0,0,3.4-5.889l-3.086-5.345a1.86,1.86,0,1,0-3.221,1.86L53.4,76.383a.206.206,0,0,1-.179.309,3.926,3.926,0,0,0-3.4,5.889l3.578,6.2a.206.206,0,0,1-.179.309H52.87a3.926,3.926,0,0,0-3.4,5.889l3.933,6.812a.206.206,0,0,1-.179.309H45.076V96.116a1.86,1.86,0,1,0-3.72,0v27.145H36.808V96.116a1.86,1.86,0,1,0-3.72,0V102.1H24.94a.206.206,0,0,1-.179-.309l3.933-6.812a3.926,3.926,0,0,0-3.4-5.889h-.355a.206.206,0,0,1-.179-.309l3.578-6.2a3.926,3.926,0,0,0-3.4-5.889.206.206,0,0,1-.179-.309l11.951-20.7a2.737,2.737,0,0,1,4.74,0l5.2,9a1.86,1.86,0,0,0,3.221-1.86l-5.2-9a6.456,6.456,0,0,0-11.182,0L21.54,74.523a3.926,3.926,0,0,0,3.4,5.889.206.206,0,0,1,.179.309l-3.578,6.2a3.926,3.926,0,0,0,3.4,5.889h.355a.206.206,0,0,1,.179.309L21.54,99.928a3.926,3.926,0,0,0,3.4,5.889h8.149v17.444H1.9a1.86,1.86,0,1,0,0,3.72H125.14a1.86,1.86,0,1,0,0-3.72Zm-39.458,0V96.116a1.86,1.86,0,1,0-3.72,0V102.1H73.814a.207.207,0,0,1-.179-.309l3.933-6.812a3.926,3.926,0,0,0-3.4-5.889h-.355a.207.207,0,0,1-.179-.309l3.578-6.2a3.926,3.926,0,0,0-3.4-5.889.206.206,0,0,1-.179-.309l11.951-20.7a2.737,2.737,0,0,1,4.74,0l11.951,20.7a.206.206,0,0,1-.179.309,3.926,3.926,0,0,0-3.4,5.889l3.578,6.2a.206.206,0,0,1-.179.309h-.355a3.926,3.926,0,0,0-3.4,5.889l3.933,6.812a.206.206,0,0,1-.179.309H93.95V96.116a1.86,1.86,0,0,0-3.72,0v27.145Z"/>
            <path id="Path_212674" data-name="Path 212674" d="M43,41.5l-.9,3.361a1.86,1.86,0,1,0,3.593.963l.9-3.361A1.86,1.86,0,1,0,43,41.5Z"/>
            <path id="Path_212675" data-name="Path 212675" d="M74.084,56.394l-.9,3.361a1.86,1.86,0,1,0,3.593.963l.9-3.361a1.86,1.86,0,1,0-3.593-.963Z"/>
            <path id="Path_212676" data-name="Path 212676" d="M107.964,105.164a1.859,1.859,0,0,0-2.278,1.315l-.9,3.361a1.86,1.86,0,1,0,3.593.963l.9-3.361a1.859,1.859,0,0,0-1.315-2.278Z"/>
            <path id="Path_212677" data-name="Path 212677" d="M116.381,119.52a1.857,1.857,0,0,0,2.278-1.315l.9-3.361a1.86,1.86,0,1,0-3.593-.963l-.9,3.361A1.86,1.86,0,0,0,116.381,119.52Z"/>
            <path id="Path_212678" data-name="Path 212678" d="M13.215,45.272l.9-3.361a1.86,1.86,0,1,0-3.593-.962l-.9,3.361a1.86,1.86,0,1,0,3.593.962Z"/>
            <path id="Path_212679" data-name="Path 212679" d="M68.88,42.629l-.9,3.361a1.86,1.86,0,1,0,3.593.963l.9-3.361a1.86,1.86,0,1,0-3.593-.963Z"/>
            <path id="Path_212680" data-name="Path 212680" d="M62.507,84.7a1.857,1.857,0,0,0,2.278-1.315l.9-3.361a1.86,1.86,0,0,0-3.593-.963l-.9,3.361A1.86,1.86,0,0,0,62.507,84.7Z"/>
            <path id="Path_212681" data-name="Path 212681" d="M9.082,112.118A1.857,1.857,0,0,0,11.36,110.8l.9-3.361a1.86,1.86,0,1,0-3.593-.963l-.9,3.361a1.86,1.86,0,0,0,1.315,2.278Z"/>
            <path id="Path_212682" data-name="Path 212682" d="M21.939,118.629a1.857,1.857,0,0,0,2.278-1.315l.9-3.361a1.86,1.86,0,1,0-3.593-.963l-.9,3.361a1.86,1.86,0,0,0,1.315,2.278Z"/>
            <path id="Path_212683" data-name="Path 212683" d="M108.414,55.079a1.859,1.859,0,0,0-2.278,1.315l-.9,3.361a1.86,1.86,0,1,0,3.593.963l.9-3.361a1.86,1.86,0,0,0-1.315-2.278Z"/>
            <path id="Path_212684" data-name="Path 212684" d="M73.7,119.584a1.86,1.86,0,0,0,1.8-1.379l.9-3.361a1.86,1.86,0,1,0-3.593-.962l-.9,3.361a1.862,1.862,0,0,0,1.8,2.342Z"/>
            <path id="Path_212685" data-name="Path 212685" d="M118.694,89.78a1.86,1.86,0,0,0-2.278,1.315l-.9,3.361a1.86,1.86,0,1,0,3.593.962l.9-3.361a1.859,1.859,0,0,0-1.315-2.278Z"/>
            <path id="Path_212686" data-name="Path 212686" d="M8.868,77.816l.9-3.361a1.86,1.86,0,1,0-3.593-.963l-.9,3.361a1.86,1.86,0,1,0,3.593.963Z"/>
            <path id="Path_212687" data-name="Path 212687" d="M16.16,85.56a1.859,1.859,0,0,0-2.278,1.315l-.9,3.361a1.86,1.86,0,1,0,3.593.963l.9-3.361A1.859,1.859,0,0,0,16.16,85.56Z"/>
            <path id="Path_212688" data-name="Path 212688" d="M24.538,48.613l-.9,3.361a1.86,1.86,0,1,0,3.593.962l.9-3.361a1.86,1.86,0,1,0-3.593-.962Z"/>
            <path id="Path_212689" data-name="Path 212689" d="M114.186,79.131a1.857,1.857,0,0,0,2.277-1.315l.9-3.361a1.86,1.86,0,0,0-3.593-.962l-.9,3.361a1.86,1.86,0,0,0,1.315,2.278Z"/>
            <path id="Path_212690" data-name="Path 212690" d="M92.559,40.949l-.9,3.361a1.86,1.86,0,1,0,3.593.962l.9-3.361a1.86,1.86,0,1,0-3.593-.962Z"/>
            <path id="Path_212691" data-name="Path 212691" d="M56.976,54.713l-.9,3.361a1.86,1.86,0,1,0,3.593.962l.9-3.361a1.86,1.86,0,1,0-3.593-.962Z"/>
            <path id="Path_212692" data-name="Path 212692" d="M62.958,100.093a1.857,1.857,0,0,0,2.277-1.315l.9-3.361a1.86,1.86,0,1,0-3.593-.962l-.9,3.361a1.86,1.86,0,0,0,1.315,2.278Z"/>
            <path id="Path_212693" data-name="Path 212693" d="M114.636,48.816a1.857,1.857,0,0,0,2.277-1.315l.9-3.361a1.86,1.86,0,1,0-3.593-.962l-.9,3.361a1.86,1.86,0,0,0,1.315,2.278Z"/>
            <path id="Path_212694" data-name="Path 212694" d="M16.16,60.023a1.859,1.859,0,0,0-2.278,1.315l-.9,3.361a1.86,1.86,0,1,0,3.593.963l.9-3.361A1.859,1.859,0,0,0,16.16,60.023Z"/>
            <path id="Path_212695" data-name="Path 212695" d="M55.775,110.887A1.86,1.86,0,0,0,53.5,112.2l-.9,3.361a1.86,1.86,0,1,0,3.593.962l.9-3.361a1.859,1.859,0,0,0-1.315-2.278Z"/>
            <path id="Path_212696" data-name="Path 212696" d="M4.548,37.156H106.582a1.86,1.86,0,1,0,0-3.72H93.017A4.512,4.512,0,0,0,92.27,30a14.686,14.686,0,0,0-5.779-4.846,7.72,7.72,0,0,1,4.582.374,1.861,1.861,0,0,0,1.9-.311,6.933,6.933,0,0,1,4.492-1.663,7.106,7.106,0,0,1,1.01.072,1.861,1.861,0,0,0,1.827-.83,10.568,10.568,0,0,1,8.769-4.816,10.456,10.456,0,0,1,10.438,10.4,1.86,1.86,0,0,0,1.067,1.676,6.6,6.6,0,0,1,2.5,2.058.83.83,0,0,1-.668,1.322h-8.632a1.86,1.86,0,0,0,0,3.72H122.4a4.55,4.55,0,0,0,3.665-7.245,10.358,10.358,0,0,0-2.89-2.666,14.137,14.137,0,0,0-25.343-7.4,10.666,10.666,0,0,0-6.407,1.878,11.513,11.513,0,0,0-7.477.33A18.869,18.869,0,0,0,67.475,12.2a18.562,18.562,0,0,0-5.918.964A17.175,17.175,0,0,0,51.284,9.733c-.438,0-.878.016-1.315.049a23.233,23.233,0,0,0-39.118,1.972A1.86,1.86,0,0,0,14.078,13.6,19.521,19.521,0,0,1,47.5,12.761a1.862,1.862,0,0,0,1.827.83,13.744,13.744,0,0,1,1.957-.14,13.467,13.467,0,0,1,8.725,3.229,1.86,1.86,0,0,0,1.9.311,14.88,14.88,0,0,1,5.566-1.077,15.1,15.1,0,0,1,14.372,10.7,1.859,1.859,0,0,0,1.3,1.261,10.923,10.923,0,0,1,6.081,4.266.786.786,0,0,1,.054.845.816.816,0,0,1-.74.451H4.548a.831.831,0,0,1-.783-1.1,12.889,12.889,0,0,1,6.66-7.415,1.86,1.86,0,0,0,1.067-1.676,19.694,19.694,0,0,1,.325-3.464,1.86,1.86,0,1,0-3.659-.67A23.731,23.731,0,0,0,7.8,22.084,16.637,16.637,0,0,0,.248,31.119a4.551,4.551,0,0,0,4.3,6.037Z"/>
          </g>
        </g>
      </g>
      <g id="Rectangle_339652" data-name="Rectangle 339652" transform="translate(895 603)" fill="none" stroke="#ec6c71" stroke-width="2">
        <rect width="148" height="150" rx="11" stroke="none"/>
        <rect x="1" y="1" width="146" height="148" rx="10" fill="none"/>
      </g>
    </g>
  </g>
</svg>
