<svg xmlns="http://www.w3.org/2000/svg" width="505" height="412" viewBox="0 0 505 412">
  <g id="_2" data-name="2" transform="translate(-4578 11296)">
    <path id="Path_215846" data-name="Path 215846" d="M0,0H505V412H0Z" transform="translate(4578 -11296)" fill="#ffd6bd"/>
    <path id="Path_215847" data-name="Path 215847" d="M-45.171-11.848l-.413,2.338H-44l-.325,1.863H-45.91l-.809,4.764a1.211,1.211,0,0,0,.07.686q.123.237.6.255.141.009.756-.044L-45.47-.044a4.169,4.169,0,0,1-1.424.2,2.234,2.234,0,0,1-1.819-.765,2.763,2.763,0,0,1-.492-2.021l.817-5.019h-1.345l.325-1.863h1.345l.4-2.338ZM-39.7.176a4.137,4.137,0,0,1-2.21-.611,3.7,3.7,0,0,1-1.437-1.652A4.605,4.605,0,0,1-43.712-4.4l.026-.352A6.148,6.148,0,0,1-42.877-7.3a4.884,4.884,0,0,1,1.74-1.789,4.306,4.306,0,0,1,2.355-.593A3.29,3.29,0,0,1-36-8.334,4.631,4.631,0,0,1-35.284-5l-.141,1.083h-5.827A2.041,2.041,0,0,0-40.8-2.443a1.711,1.711,0,0,0,1.318.571,3.041,3.041,0,0,0,2.373-1.055l1.134,1.406A3.527,3.527,0,0,1-37.525-.259,5.059,5.059,0,0,1-39.7.176Zm.791-7.813a1.761,1.761,0,0,0-1.217.431,3.784,3.784,0,0,0-.954,1.556h3.41l.053-.229a2.33,2.33,0,0,0,.009-.668,1.276,1.276,0,0,0-.431-.8A1.35,1.35,0,0,0-38.9-7.638ZM-29.184,0a2.566,2.566,0,0,1-.1-.861A3.221,3.221,0,0,1-31.707.176a2.919,2.919,0,0,1-2.07-.813A2.46,2.46,0,0,1-34.545-2.6,2.843,2.843,0,0,1-33.24-4.988,5.924,5.924,0,0,1-29.9-5.818l1.16.018.123-.571a1.984,1.984,0,0,0,.026-.554.952.952,0,0,0-.312-.646,1.075,1.075,0,0,0-.708-.242,1.514,1.514,0,0,0-.984.286,1.384,1.384,0,0,0-.519.875l-2.487.009a2.764,2.764,0,0,1,1.252-2.21,4.851,4.851,0,0,1,2.94-.831,3.507,3.507,0,0,1,2.531.962,2.816,2.816,0,0,1,.765,2.386l-.729,4.553-.044.563a2.714,2.714,0,0,0,.149,1.055L-26.75,0Zm-1.907-1.749a2.27,2.27,0,0,0,1.872-.932l.308-1.644-.861-.009A2.406,2.406,0,0,0-31.75-3.5a1.454,1.454,0,0,0-.272.712.844.844,0,0,0,.2.751A1,1,0,0,0-31.091-1.749Zm10.02-.114a1.628,1.628,0,0,0,1.143-.374,1.836,1.836,0,0,0,.6-1.042L-17-3.287a3.416,3.416,0,0,1-.628,1.8A3.818,3.818,0,0,1-19.143-.237a4.327,4.327,0,0,1-1.991.422,3.514,3.514,0,0,1-2.742-1.2,4.461,4.461,0,0,1-.976-3.111l.026-.483.009-.1A5.945,5.945,0,0,1-23.251-8.38a4.231,4.231,0,0,1,3.278-1.305,3.428,3.428,0,0,1,2.553,1.05,3.71,3.71,0,0,1,.927,2.676H-18.8a1.947,1.947,0,0,0-.334-1.2,1.269,1.269,0,0,0-1-.475q-1.775-.053-2.153,2.593a8.755,8.755,0,0,0-.1,1.617Q-22.3-1.89-21.072-1.863Zm8.807-6.592A3.314,3.314,0,0,1-9.69-9.686,2.411,2.411,0,0,1-7.611-8.67a3.991,3.991,0,0,1,.5,2.676L-8.117,0H-10.6l1.011-6.028a2.921,2.921,0,0,0,.018-.633,1,1,0,0,0-1.107-.977,2.141,2.141,0,0,0-1.758.862L-13.627,0h-2.479l2.338-13.5h2.487ZM-1.666.176a4.137,4.137,0,0,1-2.21-.611A3.7,3.7,0,0,1-5.313-2.087,4.605,4.605,0,0,1-5.682-4.4l.026-.352A6.148,6.148,0,0,1-4.847-7.3a4.884,4.884,0,0,1,1.74-1.789A4.306,4.306,0,0,1-.751-9.686,3.29,3.29,0,0,1,2.03-8.334,4.631,4.631,0,0,1,2.747-5L2.606-3.92H-3.221a2.041,2.041,0,0,0,.448,1.477,1.711,1.711,0,0,0,1.318.571A3.041,3.041,0,0,0,.918-2.927L2.052-1.521A3.527,3.527,0,0,1,.505-.259,5.059,5.059,0,0,1-1.666.176Zm.791-7.813a1.761,1.761,0,0,0-1.217.431,3.784,3.784,0,0,0-.954,1.556H.365L.417-5.88a2.33,2.33,0,0,0,.009-.668A1.276,1.276,0,0,0,0-7.343,1.35,1.35,0,0,0-.875-7.638Zm10.731.51a5.117,5.117,0,0,0-.835-.088,2.4,2.4,0,0,0-2.1.993L5.823,0H3.344L5-9.51l2.329-.009L7.1-8.358A2.615,2.615,0,0,1,9.312-9.7a3.615,3.615,0,0,1,.861.123ZM14.893,1.1H12.942L19.92-12.8h1.96ZM30.318-11.848,29.9-9.51h1.582l-.325,1.863H29.58l-.809,4.764a1.211,1.211,0,0,0,.07.686q.123.237.6.255.141.009.756-.044L30.019-.044a4.169,4.169,0,0,1-1.424.2,2.234,2.234,0,0,1-1.819-.765,2.763,2.763,0,0,1-.492-2.021L27.1-7.646H25.756l.325-1.863h1.345l.4-2.338ZM35.793.176a4.137,4.137,0,0,1-2.21-.611,3.7,3.7,0,0,1-1.437-1.652A4.605,4.605,0,0,1,31.777-4.4l.026-.352A6.148,6.148,0,0,1,32.612-7.3a4.884,4.884,0,0,1,1.74-1.789,4.306,4.306,0,0,1,2.355-.593,3.29,3.29,0,0,1,2.782,1.351A4.631,4.631,0,0,1,40.206-5L40.065-3.92H34.238a2.041,2.041,0,0,0,.448,1.477A1.711,1.711,0,0,0,36-1.872a3.041,3.041,0,0,0,2.373-1.055l1.134,1.406A3.527,3.527,0,0,1,37.964-.259,5.059,5.059,0,0,1,35.793.176Zm.791-7.813a1.761,1.761,0,0,0-1.217.431,3.784,3.784,0,0,0-.954,1.556h3.41l.053-.229a2.33,2.33,0,0,0,.009-.668,1.276,1.276,0,0,0-.431-.8A1.35,1.35,0,0,0,36.584-7.638ZM46.305,0a2.566,2.566,0,0,1-.1-.861A3.221,3.221,0,0,1,43.783.176a2.919,2.919,0,0,1-2.07-.813A2.46,2.46,0,0,1,40.944-2.6a2.843,2.843,0,0,1,1.305-2.386,5.924,5.924,0,0,1,3.335-.831l1.16.018.123-.571a1.984,1.984,0,0,0,.026-.554.952.952,0,0,0-.312-.646,1.075,1.075,0,0,0-.708-.242,1.514,1.514,0,0,0-.984.286,1.384,1.384,0,0,0-.519.875l-2.487.009a2.764,2.764,0,0,1,1.252-2.21,4.851,4.851,0,0,1,2.94-.831,3.507,3.507,0,0,1,2.531.962,2.816,2.816,0,0,1,.765,2.386l-.729,4.553-.044.563a2.714,2.714,0,0,0,.149,1.055L48.74,0ZM44.4-1.749a2.27,2.27,0,0,0,1.872-.932l.308-1.644-.861-.009a2.406,2.406,0,0,0-1.978.835,1.454,1.454,0,0,0-.272.712.844.844,0,0,0,.2.751A1,1,0,0,0,44.4-1.749Z" transform="translate(4831 -10928)" fill="#fc5f65"/>
    <g id="Group_985277" data-name="Group 985277" transform="translate(4400 -11702)">
      <text id="T" transform="translate(431 731)" fill="#3c3fa7" font-size="20" font-family="Roboto-BoldItalic, Roboto" font-weight="700" font-style="italic"><tspan x="-6.05" y="0">T</tspan></text>
      <g id="Rectangle_339712" data-name="Rectangle 339712" transform="translate(411 704)" fill="none" stroke="#3c3fa7" stroke-width="3">
        <rect width="40" height="40" rx="10" stroke="none"/>
        <rect x="1.5" y="1.5" width="37" height="37" rx="8.5" fill="none"/>
      </g>
    </g>
    <g id="Group_985279" data-name="Group 985279" transform="translate(4546.912 -12596.287)">
      <path id="Path_213081" data-name="Path 213081" d="M430.1,1533.894c-11.114-13.137-29-29.985-54.691-37.282-26.29-7.467-35.062,2.363-79.755,1.741-47.977-.67-58.592-11.852-85.767-4.115-23.739,6.759-39.955,23.325-49.906,36.178,13.544,16.583,41.4,45.375,82.534,55.5,23.675,5.825,49.262,4.81,57.765,4.533,5.335-.174,23.583-.965,41.447-5.068C382.23,1576.077,412.427,1551.523,430.1,1533.894Z" transform="translate(-11.173 -33.31)" fill="#9f1d2e"/>
      <path id="Path_213082" data-name="Path 213082" d="M308.711,1585.247c-12.783-16.034,9.187-68.715,43.632-75.714a42.173,42.173,0,0,1,20.96,1.283c24.015,7.643,40.515,35.7,43.632,71.009-11.839,1.6-27.753,3.517-46.626,5.133C332.719,1590.177,313.82,1591.655,308.711,1585.247Z" transform="translate(-79 -41.376)" fill="#dd3d59"/>
      <path id="Path_213083" data-name="Path 213083" d="M223.436,1479.323a93.155,93.155,0,0,1,15.391-8.209,131.826,131.826,0,0,1,17.268-6.366c2.639-.75,10.013-2.745,25.095-4.278a304.655,304.655,0,0,1,32.225-1.426c12.23.061,22.987.114,37.316,2.339a242.207,242.207,0,0,1,24.853,5.361c12.753,3.307,17.789,4.86,22.243,6.754a106.26,106.26,0,0,1,15.257,8.359,43.165,43.165,0,0,1,7.414,5.989,40.479,40.479,0,0,1,4.046,4.841,82.924,82.924,0,0,1-15.6,5.712,84.643,84.643,0,0,1-22.815,2.566c-25.934-.465-43.922-9.711-70.153-10.266-25.051-.53-45.169,7.13-69.869,7.129a76.143,76.143,0,0,1-21.1-2.852,74.827,74.827,0,0,1-13.9-5.5A84.091,84.091,0,0,1,223.436,1479.323Z" transform="translate(-35.08 -18.121)" fill="#fff5f0"/>
      <path id="Path_213084" data-name="Path 213084" d="M376.987,1621.082A88.97,88.97,0,0,1,391.1,1616.8a94.315,94.315,0,0,1,14.758-1.925,64.816,64.816,0,0,1,14.33.427,57.181,57.181,0,0,1,8.5,1.978c-9.368,8.8-25.974,18.818-48.164,26-16.178,5.237-29.053,5.586-49.49,6.142-20.969.57-37.253,1.011-57.618-4.516a148.176,148.176,0,0,1-50.165-24.742,26.589,26.589,0,0,1,6.149-2.723,28.32,28.32,0,0,1,9.2-1.07,60.6,60.6,0,0,1,14.172,2.053c11.766,3.462,44.428,7.81,68.172,8.427C322.992,1626.91,359.956,1627.727,376.987,1621.082Z" transform="translate(-40.762 -90.899)" fill="#fff5f0"/>
      <path id="Path_213085" data-name="Path 213085" d="M162.981,1486.2a58.441,58.441,0,0,0-5.471,3.875,57.742,57.742,0,0,0-4.915,4.344,49.906,49.906,0,0,0-7.961,10.1,43.8,43.8,0,0,0-2.915,5.714c-.455.974-.8,1.994-1.194,3-.194.5-.336,1.025-.512,1.537s-.358,1.024-.489,1.551a91.2,91.2,0,0,0-2.635,13.035,37.412,37.412,0,0,1-.318-13.7,36.273,36.273,0,0,1,1.752-6.761c.369-1.112.877-2.171,1.337-3.25.538-1.043,1.055-2.1,1.671-3.1a36.688,36.688,0,0,1,9.292-10.4,35.538,35.538,0,0,1,5.887-3.657,29.993,29.993,0,0,1,3.171-1.349A20.64,20.64,0,0,1,162.981,1486.2Z" transform="translate(0 -30.821)" fill="#dc9b7d"/>
      <path id="Path_213086" data-name="Path 213086" d="M639.76,1491.522a8.507,8.507,0,0,1,2.906.676,21.511,21.511,0,0,1,2.72,1.25,32.131,32.131,0,0,1,4.948,3.356,42.844,42.844,0,0,1,8.011,8.822,49.9,49.9,0,0,1,5.483,10.505,44.849,44.849,0,0,1,2.781,11.43c-1.915-3.442-3.66-6.845-5.525-10.151q-2.763-4.972-5.912-9.605A83.574,83.574,0,0,0,648.26,1499c-1.256-1.387-2.57-2.731-3.962-4.011-.692-.647-1.416-1.256-2.154-1.862-.369-.306-.752-.588-1.144-.865A6.216,6.216,0,0,0,639.76,1491.522Z" transform="translate(-235.521 -33.31)" fill="#dc9b7d"/>
      <path id="Path_213087" data-name="Path 213087" d="M364.227,1425.808a47.759,47.759,0,0,1,12.28-4.169,64.327,64.327,0,0,1,12.94-1.342c2.175-.055,4.35.124,6.517.267,1.081.137,2.162.263,3.237.421.538.083,1.078.133,1.612.244l1.6.336a47.707,47.707,0,0,1,12.262,4.243c-4.332-.4-8.479-1.029-12.683-1.246-2.083-.21-4.182-.213-6.261-.355l-3.13-.051c-1.042-.052-2.086-.027-3.129-.012q-6.258.016-12.544.482C372.724,1424.918,368.527,1425.331,364.227,1425.808Z" transform="translate(-106.68)" fill="#dc9b7d"/>
      <path id="Path_213088" data-name="Path 213088" d="M364.227,1705.446c4.529.754,8.969,1.451,13.408,2.013s8.858.968,13.273,1.143c1.1.035,2.207.075,3.309.065q.827.022,1.653,0l1.652-.031c2.2-.053,4.4-.228,6.592-.447s4.373-.6,6.564-1.037c2.187-.453,4.345-1.061,6.561-1.706a27.152,27.152,0,0,1-2.881,1.912,31.481,31.481,0,0,1-3.1,1.593,40.4,40.4,0,0,1-6.622,2.219,48.707,48.707,0,0,1-6.9,1.112c-.58.066-1.161.078-1.743.117s-1.163.063-1.744.072c-1.164.029-2.325,0-3.486-.021a65.356,65.356,0,0,1-13.7-2.027A53.757,53.757,0,0,1,364.227,1705.446Z" transform="translate(-106.68 -133.342)" fill="#dc9b7d"/>
    </g>
  </g>
</svg>
