<svg xmlns="http://www.w3.org/2000/svg" width="62.227" height="63.769" viewBox="0 0 62.227 63.769">
  <g id="_25" data-name="25" transform="translate(0 0)">
    <path id="Path_213174" data-name="Path 213174" d="M62.227,43.485A31.114,31.114,0,1,1,31.114,12.371,31.114,31.114,0,0,1,62.227,43.485Zm0,0" transform="translate(0 -10.831)" fill="#fdd33a"/>
    <path id="Path_213175" data-name="Path 213175" d="M51.184,192.765H35.5a12.963,12.963,0,0,0-5.535,24.683A5.039,5.039,0,0,1,32.857,222v2.78a1.074,1.074,0,0,0,1.961.605l3.07-4.5a5.03,5.03,0,0,1,4.155-2.2h9.14a12.961,12.961,0,1,0,0-25.922Zm0,0" transform="translate(-19.731 -168.757)" fill="#f8fafd"/>
    <path id="Path_213176" data-name="Path 213176" d="M34.918,217.448a12.963,12.963,0,0,1,5.535-24.683H35.5a12.963,12.963,0,0,0-5.535,24.683A5.038,5.038,0,0,1,32.858,222v2.78a1.074,1.074,0,0,0,1.962.605l2.91-4.268a5.044,5.044,0,0,0-2.812-3.669Zm0,0" transform="translate(-19.732 -168.757)" fill="#ddd"/>
    <path id="Path_213177" data-name="Path 213177" d="M104.707,282a2.392,2.392,0,1,1-2.392-2.393A2.392,2.392,0,0,1,104.707,282Zm0,0" transform="translate(-87.477 -244.781)" fill="#7956ba"/>
    <path id="Path_213178" data-name="Path 213178" d="M175.145,282a2.393,2.393,0,1,1-2.393-2.393A2.393,2.393,0,0,1,175.145,282Zm0,0" transform="translate(-149.141 -244.781)" fill="#7956ba"/>
    <path id="Path_213179" data-name="Path 213179" d="M245.583,282a2.393,2.393,0,1,1-2.393-2.393A2.393,2.393,0,0,1,245.583,282Zm0,0" transform="translate(-210.807 -244.781)" fill="#7956ba"/>
    <path id="Path_213180" data-name="Path 213180" d="M155.188,0h15.685a12.963,12.963,0,0,1,5.535,24.683,5.038,5.038,0,0,0-2.893,4.552v2.78a1.074,1.074,0,0,1-1.962.605l-3.07-4.5a5.028,5.028,0,0,0-4.155-2.2h-9.139a12.961,12.961,0,0,1,0-25.922Zm0,0" transform="translate(-124.513)" fill="#f84e82"/>
    <path id="Path_213181" data-name="Path 213181" d="M169.66,25.641h-9.14a12.962,12.962,0,0,1-6.669-24.076,12.961,12.961,0,0,0,1.336,25.853h9.14a5.028,5.028,0,0,1,4.155,2.2l3.07,4.5a1.074,1.074,0,0,0,1.962-.605v-2.78a5,5,0,0,1,.625-2.422l-.324-.473a5.027,5.027,0,0,0-4.155-2.2Zm0,0" transform="translate(-124.512 -1.371)" fill="#dd3a71"/>
    <g id="Group_985347" data-name="Group 985347" transform="translate(27.351 10.815)">
      <path id="Path_213182" data-name="Path 213182" d="M365.27,89.233a2.393,2.393,0,1,1-2.393-2.393A2.393,2.393,0,0,1,365.27,89.233Zm0,0" transform="translate(-342.938 -86.84)" fill="#f8fafd"/>
      <path id="Path_213183" data-name="Path 213183" d="M294.832,89.233a2.392,2.392,0,1,1-2.392-2.393A2.392,2.392,0,0,1,294.832,89.233Zm0,0" transform="translate(-281.274 -86.84)" fill="#f8fafd"/>
      <path id="Path_213184" data-name="Path 213184" d="M224.391,89.233A2.393,2.393,0,1,1,222,86.84,2.393,2.393,0,0,1,224.391,89.233Zm0,0" transform="translate(-219.605 -86.84)" fill="#f8fafd"/>
    </g>
  </g>
</svg>
