<svg xmlns="http://www.w3.org/2000/svg" xmlns:xlink="http://www.w3.org/1999/xlink" width="400" height="246.337" viewBox="0 0 400 246.337">
  <defs>
    <clipPath id="clip-path">
      <rect id="Rectangle_339064" data-name="Rectangle 339064" width="322.473" height="246.085" fill="none"/>
    </clipPath>
    <clipPath id="clip-path-3">
      <rect id="Rectangle_339059" data-name="Rectangle 339059" width="19.548" height="18.132" fill="none"/>
    </clipPath>
    <clipPath id="clip-path-4">
      <path id="Path_210118" data-name="Path 210118" d="M994.785,1289.415c-10.427.783-17.591,8.479-17.591,8.479l6.253-.819s8.425-3.282,12.877-4.559c3.256-.933,7.421.464,9.423,1.282a1.6,1.6,0,0,0,1.927-.581,1.483,1.483,0,0,0-.407-2.07c-1.3-.856-3.759-1.876-8.907-1.876-1.071,0-2.259.044-3.576.143" transform="translate(-977.195 -1289.272)" fill="none"/>
    </clipPath>
    <clipPath id="clip-path-6">
      <path id="Path_210121" data-name="Path 210121" d="M1028.418,1304.658l-6.792,5.388a88.9,88.9,0,0,0,10.279-2.47c4.1-1.235,7.994.714,9.917,1.956a2.182,2.182,0,0,0,2.536-.112l.018-.015a1.132,1.132,0,0,0,.1-1.685,13.683,13.683,0,0,0-10.043-4.165,16.8,16.8,0,0,0-6.016,1.1" transform="translate(-1021.626 -1303.555)" fill="none"/>
    </clipPath>
    <clipPath id="clip-path-8">
      <path id="Path_210124" data-name="Path 210124" d="M1008.473,1324.547l-8.42.469-1.691,3.832s3.1-.23,9.813-1.227c5.043-.748,8.179,3.087,9.428,5.043a2.427,2.427,0,0,0,1.98,1.125.888.888,0,0,0,.881-1.12c-2.035-7.434-8.531-8.166-11.014-8.166a9.12,9.12,0,0,0-.977.044" transform="translate(-998.363 -1324.503)" fill="none"/>
    </clipPath>
  </defs>
  <g id="_3" data-name="3" transform="translate(0 15.661)">
    <rect id="Rectangle_339575" data-name="Rectangle 339575" width="120" height="246" rx="28" transform="translate(0 -15.324)" fill="#3c3fa7"/>
    <g id="Group_983823" data-name="Group 983823" transform="translate(28.261 -15.661)">
      <rect id="Rectangle_338873" data-name="Rectangle 338873" width="364.641" height="162.261" rx="15" transform="translate(7.098 83.109)" fill="#fed947"/>
      <g id="Group_983805" data-name="Group 983805" transform="translate(0)">
        <g id="Group_983822" data-name="Group 983822" clip-path="url(#clip-path)">
          <g id="Group_983809" data-name="Group 983809" transform="translate(0)">
            <g id="Group_983808" data-name="Group 983808" clip-path="url(#clip-path)">
              <path id="Path_210049" data-name="Path 210049" d="M780.45,1066.559a.6.6,0,0,0,.079.056c7.394,4.173,11.845,26.988,11.889,27.218a.654.654,0,0,0,.641.531.64.64,0,0,0,.124-.012.654.654,0,0,0,.519-.765,113.525,113.525,0,0,0-3.221-12.273c-2.773-8.475-5.85-13.767-9.148-15.741q-.453.482-.883.987" transform="translate(-656.224 -895.962)" fill="#fff"/>
              <path id="Path_210050" data-name="Path 210050" d="M545.9,1253.3,545.134,1294l-51.992.14,2.236-46.542Z" transform="translate(-414.646 -1049.018)"/>
              <path id="Path_210051" data-name="Path 210051" d="M490.519,1292.2l2.277-47.384,51.3,5.783-.007.362-.771,41.1Zm3.031-46.5-2.2,45.7,51.184-.137.749-39.955Z" transform="translate(-412.442 -1046.678)" fill="#fff"/>
              <path id="Path_210052" data-name="Path 210052" d="M135.642,1237.831l-10.507,47.75,54.384.263,12.3-48.777Z" transform="translate(-105.217 -1040.159)"/>
              <path id="Path_210053" data-name="Path 210053" d="M177.217,1284.1l-.311,0-54.876-.265,10.68-48.54.315,0,56.694-.772Zm-54.2-1.058,53.58.259,12.1-47.973-55.343.754Z" transform="translate(-102.605 -1038.019)" fill="#fff"/>
              <path id="Path_210054" data-name="Path 210054" d="M256.342,508.357,238.408,609.216,121.929,594.56l31.82-126.021Z" transform="translate(-102.521 -393.96)" fill="#ff9fa3"/>
              <path id="Path_210055" data-name="Path 210055" d="M208.552,409.046,176.4,345.129a48.163,48.163,0,0,0-28.569-24.3L81.209,299.865a29.1,29.1,0,0,0-32.846,11.46L3.936,377.039a22.937,22.937,0,0,0,27.283,34.236l72.656-28.131-8.8-31.584L41.2,366.173l23.72-28.348,76.362,34.211,41.852,81.69Z" transform="translate(-0.001 -251.005)" fill="#ff9fa3"/>
              <path id="Path_210056" data-name="Path 210056" d="M700.009,260.924l12.813-20.71,18.391,12.112L718.292,271.27Z" transform="translate(-588.587 -201.979)" fill="#f47541"/>
              <path id="Path_210057" data-name="Path 210057" d="M749.851,416.359s-8.752,5.784-13.226-3.221l6.921-3.221,1.563.7,1.658.259Z" transform="translate(-619.374 -344.67)" fill="#bad6de"/>
              <path id="Path_210058" data-name="Path 210058" d="M815.782,303.536l-10.764-8.913s2.615,7.934,7.852,13.182Z" transform="translate(-676.881 -247.727)"/>
              <path id="Path_210059" data-name="Path 210059" d="M640.791,331.437l11.075,13.193-15.654,13.7-10.482-25.018Z" transform="translate(-526.13 -278.681)" fill="#dceaef"/>
              <path id="Path_210060" data-name="Path 210060" d="M799.313,381.832l-9.859,5.184L792.926,404l15.053-14.2Z" transform="translate(-663.795 -321.054)" fill="#dceaef"/>
              <path id="Path_210061" data-name="Path 210061" d="M824.223,44.016s6.178,11.158-6.274,32.334-34.4,5.143-38.409-6.431c-2.419-6.976.824-19.2.824-19.2l15.675-16.738,19.208,2.9Z" transform="translate(-654.705 -28.57)" fill="#f47541"/>
              <path id="Path_210062" data-name="Path 210062" d="M912.216,173.142s2.834-11.631-8.9-10.7c0,0-4.747,9.915,8.9,10.7" transform="translate(-758.86 -136.545)" fill="#fff"/>
              <path id="Path_210063" data-name="Path 210063" d="M939.116,133.33s-1.994-5.365-8.7-2.741Z" transform="translate(-782.321 -109.195)"/>
              <path id="Path_210064" data-name="Path 210064" d="M766.792,30.3c-.317,5.464,8.141-7.514,11.988-15.95s7.95.931,14.955,5.742c7.38,5.07,12.539,4.091,8.695.247a20.992,20.992,0,0,0,6.555,4.452c3.622,1.4,4.192-1.777.887-3.518,0,0,5.22-2.643,3.983-5.588s-5.13.129-12.638-4.788-15.354-12.1-29.883-6.11S752.851,31.616,758.488,42.62L761,41.642l.839-8.106s5.345-10.076,4.949-3.24" transform="translate(-635.688 -2.109)"/>
              <path id="Path_210065" data-name="Path 210065" d="M756.175,41.013l-.164-.32c-3.194-6.235-3.35-15.439-.4-23.449C758.246,10.1,763.021,4.8,769.058,2.307c13.231-5.456,21.036-.127,27.922,4.574.8.548,1.561,1.066,2.331,1.57a17.811,17.811,0,0,0,9.08,3.128c1.776.169,3.058.292,3.708,1.839,1.1,2.621-2.141,4.907-3.554,5.752,1.591,1.062,2.052,2.423,1.646,3.316-.356.783-1.455,1.343-3.473.563A18.833,18.833,0,0,1,802,20.264a1.269,1.269,0,0,1-.279.967c-.583.7-1.929.812-3.793.314a21.728,21.728,0,0,1-6.546-3.237,40.719,40.719,0,0,1-5.627-4.982c-2.32-2.333-4.324-4.349-5.962-4.054-.99.177-1.9,1.2-2.779,3.131A92.99,92.99,0,0,1,770.6,23.927c-4.143,6.306-5.264,6.027-5.633,5.936-.785-.194-.719-1.327-.7-1.7.1-1.75-.214-1.955-.217-1.957s-.571-.061-2.241,2.471c-.824,1.25-1.54,2.559-1.706,2.867l-.855,8.27ZM779.651.8a26.932,26.932,0,0,0-10.29,2.24c-5.829,2.4-10.446,7.545-13,14.476-2.829,7.674-2.742,16.451.2,22.49l1.951-.759.821-7.942.036-.069c.008-.015.81-1.523,1.76-2.968,1.827-2.778,2.637-2.972,3.14-2.832.652.182.9,1.037.8,2.769-.043.74.1.884.1.885.264.052,1.64-.844,4.781-5.627a92.176,92.176,0,0,0,6.344-11.4c1-2.185,2.1-3.357,3.362-3.584,2.048-.367,4.086,1.682,6.667,4.276a40.093,40.093,0,0,0,5.513,4.887,21.728,21.728,0,0,0,6.3,3.124c1.77.473,2.709.266,2.976-.054.24-.288.1-.99-.984-2.108l-.11-.112.568-.557.08.08A20.607,20.607,0,0,0,807,22.307c1.237.478,2.2.418,2.462-.15.25-.55-.175-1.734-1.9-2.644l-.681-.359.687-.348c.049-.025,4.875-2.51,3.8-5.08-.446-1.063-1.258-1.183-3.049-1.354a18.75,18.75,0,0,1-9.44-3.255c-.777-.509-1.538-1.028-2.344-1.579-3.443-2.351-7-4.781-11.339-5.984A20.611,20.611,0,0,0,779.651.8" transform="translate(-633.566 0)"/>
              <path id="Path_210066" data-name="Path 210066" d="M767.809,137.008s.953-9.287-6.6-7.311c-6.433,1.682-4.519,12.455,1.93,12.228Z" transform="translate(-636.705 -108.821)" fill="#f47541"/>
              <path id="Path_210067" data-name="Path 210067" d="M782.363,146.742h-.013a.309.309,0,0,1-.3-.322c.223-5.244-3.547-6.654-3.707-6.711a.309.309,0,0,1,.206-.583c.044.015,4.361,1.606,4.118,7.32a.309.309,0,0,1-.309.3" transform="translate(-654.283 -116.966)"/>
              <path id="Path_210068" data-name="Path 210068" d="M770.4,174.99a.309.309,0,0,1-.052-.614l4.805-.826a.309.309,0,0,1,.1.609l-4.806.826a.329.329,0,0,1-.053,0" transform="translate(-647.511 -145.922)"/>
              <path id="Path_210069" data-name="Path 210069" d="M919.982,299.015s-2.593-3.48-10.492-4.867c0,0,1.718,5.725,10.492,4.867" transform="translate(-764.724 -247.328)" fill="#000300"/>
              <path id="Path_210070" data-name="Path 210070" d="M916.574,299.006a8.069,8.069,0,0,0-1.245-3.156,25.533,25.533,0,0,0-5.84-1.7s1.254,4.174,7.085,4.859" transform="translate(-764.723 -247.327)" fill="#ff1300"/>
              <path id="Path_210071" data-name="Path 210071" d="M909.344,179.92c0,.021,0,.043,0,.064,1.245,1.726,3.77,3.152,8.612,3.429,0,0,1.3-5.343-1.516-8.5a5.312,5.312,0,0,0-7.1,5" transform="translate(-764.601 -146.816)"/>
              <path id="Path_210072" data-name="Path 210072" d="M1005.053,227.874c2.424,3.157,4.37,3.516,5.83,2.822.967-1.952,1.767-3.8,2.427-5.552.129-1.743-1.968-2.022-2.987-1.976-3.08.14-5.27,4.706-5.27,4.706" transform="translate(-845.076 -187.642)" fill="#fff"/>
              <path id="Path_210073" data-name="Path 210073" d="M1018.007,224.524a6.177,6.177,0,0,0-4.432,1.444,4.366,4.366,0,0,0-1.186,4.575c1.8,1.71,3.286,1.833,4.46,1.274.967-1.951,1.766-3.8,2.427-5.551.268-.9-.634-1.446-1.269-1.742" transform="translate(-851.042 -188.764)"/>
              <path id="Path_210074" data-name="Path 210074" d="M987.4,250.882a.309.309,0,0,1-.169-.568l3.541-2.305-2.325-1.922a.309.309,0,0,1,.394-.477l2.649,2.19a.309.309,0,0,1-.028.5l-3.893,2.535a.307.307,0,0,1-.168.05" transform="translate(-829.972 -206.456)"/>
              <path id="Path_210075" data-name="Path 210075" d="M1044.566,185.851l3.731,1.945q.2-.836.363-1.632a4.42,4.42,0,0,0-4.094-.313" transform="translate(-878.299 -155.953)"/>
              <path id="Path_210076" data-name="Path 210076" d="M702.166,575.978l8-40.254-30.323-23.061L659,517.711l28.412,48.013Z" transform="translate(-554.104 -431.061)" fill="#ff9fa3"/>
              <path id="Path_210077" data-name="Path 210077" d="M562.557,625.857s4.955-2.529,11.609-6.377c13.065-7.555,19.262-3.237,19.262-3.237Z" transform="translate(-473.013 -517.121)" fill="#f47541"/>
              <path id="Path_210078" data-name="Path 210078" d="M556.348,643.5l16.131-8.092,10.118,1.554-2.735,5.18-3.1,4.191-9.747,3.767-6.733,3.63Z" transform="translate(-467.792 -534.268)" fill="#f47541"/>
              <path id="Path_210079" data-name="Path 210079" d="M562.557,625.857s4.955-2.529,11.609-6.377c13.065-7.555,19.262-3.237,19.262-3.237Z" transform="translate(-473.013 -517.121)" fill="#f47541"/>
              <path id="Path_210080" data-name="Path 210080" d="M686.62,617.6a22.008,22.008,0,0,0-10.847,3.956l.974.559,11.876-3.7a6.87,6.87,0,0,0-2-.816" transform="translate(-568.208 -519.297)"/>
              <path id="Path_210081" data-name="Path 210081" d="M678.84,629.075s3.989-2.152,12.776-1.622a3.05,3.05,0,0,0,2.852-1.56,1.562,1.562,0,0,0-1.018-2.268c-3.764-.931-12.376-2.225-20.519,2.524Z" transform="translate(-565.819 -523.61)" fill="#f47541"/>
              <path id="Path_210082" data-name="Path 210082" d="M699.817,651.053c-4.89-1.542-9.539,2.34-9.539,2.34l.126.013a46.59,46.59,0,0,1,9.953-2.418c-.1-.034-.434.1-.54.065" transform="translate(-580.404 -547.119)"/>
              <path id="Path_210083" data-name="Path 210083" d="M678.761,665.174a22.917,22.917,0,0,1,14.006,2.756,3.273,3.273,0,0,0,3.266-.046,1.849,1.849,0,0,0,.215-3.118c-2.878-2.29-9.222-5.884-18.824-4.767Z" transform="translate(-569.596 -554.769)" fill="#f47541"/>
              <path id="Path_210084" data-name="Path 210084" d="M591.086,697.93s5.253-2.077,8.751-3.809a7.471,7.471,0,0,1,6.222-.175,70.313,70.313,0,0,1,8.794,4.312,3.067,3.067,0,0,0,3.039.11,1.645,1.645,0,0,0,.328-2.7,32.782,32.782,0,0,0-12.215-6.309Z" transform="translate(-497.001 -579.636)" fill="#f47541"/>
              <path id="Path_210085" data-name="Path 210085" d="M785.858,626.558a1.562,1.562,0,0,0-.11-.362l-.03.025c-.261.2-.984.485-2.9.129-.7-.13-1.077-.473-1.034-.944a.827.827,0,0,1,.365-.616q-.221-.035-.452-.068a1.228,1.228,0,0,0-.268.652c-.023.249.005,1.083,1.324,1.327a9.366,9.366,0,0,0,1.669.178,2.64,2.64,0,0,0,1.44-.321" transform="translate(-657.039 -525.284)"/>
              <path id="Path_210086" data-name="Path 210086" d="M780.812,685.585c-.094.162-.359.232-.736.189A3.157,3.157,0,0,1,777.565,684a1.049,1.049,0,0,1,.271-1.187,1.148,1.148,0,0,1,.806-.161q-.253-.167-.525-.336a1.3,1.3,0,0,0-.488.205,1.354,1.354,0,0,0-.411,1.562c.267,1.1,1.821,1.929,2.818,2.042a2.222,2.222,0,0,0,.245.014,1.478,1.478,0,0,0,.323-.034,1.812,1.812,0,0,0,.208-.524" transform="translate(-653.447 -573.713)"/>
              <path id="Path_210087" data-name="Path 210087" d="M748.938,723.3a2.118,2.118,0,0,0,.528-.068,1.646,1.646,0,0,0,.054-.389,1.919,1.919,0,0,1-1.862-.387,1.64,1.64,0,0,1-.7-1.486.816.816,0,0,1,.544-.551c-.107-.079-.216-.158-.329-.238a1.107,1.107,0,0,0-.561.7,1.966,1.966,0,0,0,.821,1.848,2.378,2.378,0,0,0,1.507.568" transform="translate(-627.741 -605.549)"/>
              <path id="Path_210088" data-name="Path 210088" d="M585.14,628.568l5.73,15.374-4.752,2.236-5.171-16.352Z" transform="translate(-488.476 -528.517)"/>
              <path id="Path_210089" data-name="Path 210089" d="M516.384,631.9l-.093-.023-15.246,4.085,10.063,32.984,14.059-5.508Z" transform="translate(-421.292 -531.3)" fill="#dceaef"/>
              <path id="Path_210090" data-name="Path 210090" d="M547.7,782.743a.309.309,0,0,1-.117-.595l14.146-5.8a.309.309,0,0,1,.234.572l-14.146,5.8a.306.306,0,0,1-.117.023" transform="translate(-460.265 -652.753)"/>
              <path id="Path_210091" data-name="Path 210091" d="M574.109,740.287a3.347,3.347,0,1,1,3.347-3.347,3.351,3.351,0,0,1-3.347,3.347m0-6.076a2.729,2.729,0,1,0,2.729,2.729,2.732,2.732,0,0,0-2.729-2.729" transform="translate(-479.912 -616.825)"/>
              <path id="Path_210092" data-name="Path 210092" d="M131.7,711.5a.386.386,0,0,1-.139-.747l58.262-22.494-9.848-32.28-59.982,16.677a.386.386,0,1,1-.207-.744l60.345-16.778a.386.386,0,0,1,.473.259l10.063,32.985a.386.386,0,0,1-.23.473l-58.6,22.623a.388.388,0,0,1-.139.026" transform="translate(-100.48 -550.84)"/>
              <path id="Path_210093" data-name="Path 210093" d="M398.469,626.155a.386.386,0,0,1-.316-.608l7.477-10.656a.386.386,0,1,1,.632.443l-7.477,10.656a.386.386,0,0,1-.316.165" transform="translate(-334.719 -516.879)"/>
              <path id="Path_210094" data-name="Path 210094" d="M934.427,723.839a.4.4,0,0,1-.075-.007.386.386,0,0,1-.3-.454l5.73-29.211a.386.386,0,1,1,.758.149l-5.73,29.21a.386.386,0,0,1-.378.312" transform="translate(-785.366 -583.413)"/>
              <path id="Path_210095" data-name="Path 210095" d="M1280.664,626.508s11.673,55.969-4.611,61.414l20.316-7.562s10.868-22.383,7.562-34.785-4.839-41.439-4.839-41.439Z" transform="translate(-1072.941 -507.974)" fill="#dceaef"/>
              <path id="Path_210096" data-name="Path 210096" d="M820.035,905.881,800.22,859.509a21.878,21.878,0,0,0-20.111-13.3H740.272l-42.73,9.273a28.573,28.573,0,0,0-19.345,14.87L634.52,956.209h172.6Z" transform="translate(-533.522 -711.515)"/>
              <path id="Path_210097" data-name="Path 210097" d="M804,954.507H630.443l43.971-86.437a28.878,28.878,0,0,1,19.615-15.079l42.772-9.282h39.881a22.251,22.251,0,0,1,20.477,13.542l19.868,46.5Zm-172.263-.8H803.386l12.8-49.9-19.762-46.248A21.456,21.456,0,0,0,776.682,844.5h-39.8L694.2,853.769a28.081,28.081,0,0,0-19.075,14.663Z" transform="translate(-530.094 -709.413)" fill="#fff"/>
              <path id="Path_210098" data-name="Path 210098" d="M1199.156,758.91l-12.1-22.081,21.113-2.58,8.529,25.568Z" transform="translate(-998.11 -617.376)" fill="#ffa88a"/>
              <path id="Path_210099" data-name="Path 210099" d="M1140.095,501.769c-6.352-14.216-22.384-16.333-34.18-12.91-6.114,1.774-11.172,8.752-14.036,16.537l-.025.069-3.458-.366,1.445,6.176c-.992,5.1-.771,10.841.648,14.389,4.235,10.587,30.853,7.562,30.853,7.562s25.105-17.241,18.753-31.457" transform="translate(-915.153 -409.841)" fill="#ffa88a"/>
              <path id="Path_210100" data-name="Path 210100" d="M1131.04,576.53s5.442-12.244,12.244-.68c0,0-5.781,6.122-12.244.68" transform="translate(-951.009 -480.012)" fill="#fff"/>
              <path id="Path_210101" data-name="Path 210101" d="M1209.089,854.263h0s-2.641,11.4,10.476,11.526,24.009-9.023,19.544-14.58H1223.2Z" transform="translate(-1016.452 -715.72)" fill="#ffa88a"/>
              <path id="Path_210102" data-name="Path 210102" d="M1092.927,673.263a3.234,3.234,0,0,1-.414-.025.327.327,0,1,1,.083-.648c2.038.261,6.053-2.03,6.093-2.053a.327.327,0,1,1,.326.567c-.162.093-3.784,2.159-6.089,2.159" transform="translate(-918.375 -563.769)"/>
              <path id="Path_210103" data-name="Path 210103" d="M1173.756,539.679s4.84.743,6.352,3.163c0,0-1.512-6.326-6.352-3.163" transform="translate(-986.926 -453.032)" fill="#000300"/>
              <path id="Path_210104" data-name="Path 210104" d="M1252.16,619.913s4.054,47.374-4.61,61.414l20.316-7.562s6.328-20.861,5.02-37.206c-1.023-12.794-2.367-38.107-2.367-38.107Z" transform="translate(-1048.974 -503.195)" fill="#dceaef"/>
              <path id="Path_210105" data-name="Path 210105" d="M1195.421,501.769c-6.352-14.216-22.383-16.333-34.18-12.91a16.036,16.036,0,0,0-7.045,4.651c5.657-4.323,14-2.631,14-2.631-4.235,17.846,5.747,24.5,5.747,24.5l.831,11.328,4.274,4.749c6.107-4.748,21.5-18.2,16.371-29.689" transform="translate(-970.479 -409.841)" fill="#dceaef"/>
              <path id="Path_210106" data-name="Path 210106" d="M1131.04,576.544a9.371,9.371,0,0,0,3.86,2.04,5.1,5.1,0,0,0,4.173-3.421,5.189,5.189,0,0,0-.179-3.919c-4.61-2-7.855,5.3-7.855,5.3" transform="translate(-951.009 -480.027)"/>
              <path id="Path_210107" data-name="Path 210107" d="M1252.439,658.223s7.562-3.327,8.772,2.722-7.389,11.74-12.164,6.626,3.392-9.349,3.392-9.349" transform="translate(-1048.973 -552.684)" fill="#ffa88a"/>
              <path id="Path_210108" data-name="Path 210108" d="M1269.078,680.5a.327.327,0,0,1-.229-.56c2.441-2.393,4.545-2.8,5.88-2.71a4.545,4.545,0,0,1,2.393.8.327.327,0,0,1-.4.515c-.126-.1-3.131-2.339-7.413,1.859a.326.326,0,0,1-.229.094" transform="translate(-1066.8 -569.426)"/>
              <path id="Path_210109" data-name="Path 210109" d="M1283.664,688.563a.327.327,0,0,1-.3-.194l-1.9-4.262a.327.327,0,0,1,.6-.267l1.9,4.262a.326.326,0,0,1-.166.432.32.32,0,0,1-.133.029" transform="translate(-1077.464 -574.829)"/>
              <path id="Path_210110" data-name="Path 210110" d="M1200.874,767.522a21.8,21.8,0,0,0,6.941-1.543l-4.25,6.538Z" transform="translate(-1009.727 -644.056)"/>
              <path id="Path_210111" data-name="Path 210111" d="M1245.713,859.253a.326.326,0,0,1-.287-.17l-2.959-5.4a.327.327,0,1,1,.573-.314l2.959,5.4a.327.327,0,0,1-.286.484" transform="translate(-1044.666 -717.392)"/>
              <path id="Path_210112" data-name="Path 210112" d="M957.041,1300.334c0-11.555,5.342-20.922,11.932-20.922s11.932,9.367,11.932,20.922-5.342,20.921-11.932,20.921-11.932-9.367-11.932-20.921" transform="translate(-804.706 -1075.764)"/>
              <path id="Path_210113" data-name="Path 210113" d="M1298.9,1204.531h80.09l35.632-63.745h-80.09Z" transform="translate(-1092.153 -959.203)" fill="#7dbcf5"/>
              <rect id="Rectangle_339058" data-name="Rectangle 339058" width="58.352" height="4.577" transform="translate(151.178 240.751)" fill="#7dbcf5"/>
              <g id="Group_983807" data-name="Group 983807" transform="translate(260.935 209.293)" opacity="0.7">
                <g id="Group_983806" data-name="Group 983806">
                  <g id="Group_983805-2" data-name="Group 983805" clip-path="url(#clip-path-3)">
                    <path id="Path_210114" data-name="Path 210114" d="M1657.493,1323.5c-1.964,3.451-14.272,10.6-16.438,9.369s-2.329-5.03-.365-8.481,14.272-10.6,16.438-9.369,2.329,5.029.365,8.48" transform="translate(-1639.318 -1314.877)" fill="#fff"/>
                  </g>
                </g>
              </g>
              <path id="Path_210115" data-name="Path 210115" d="M752.848,1277.617a.655.655,0,0,0-.784-.49c-.287.067-27.8,6.509-49.362,19.03l-1.106,2.175c21.614-13.1,50.469-19.864,50.763-19.931a.654.654,0,0,0,.49-.784" transform="translate(-589.921 -1073.829)" fill="#fff"/>
              <path id="Path_210116" data-name="Path 210116" d="M977.194,1297.894s7.164-7.7,17.591-8.478c7.652-.575,10.909.7,12.483,1.732a1.483,1.483,0,0,1,.407,2.07,1.6,1.6,0,0,1-1.927.581c-2-.819-6.167-2.216-9.423-1.282-4.453,1.276-12.878,4.559-12.878,4.559Z" transform="translate(-821.651 -1084.055)" fill="#ffa88a"/>
            </g>
          </g>
          <g id="Group_983811" data-name="Group 983811" transform="translate(155.543 205.217)">
            <g id="Group_983810" data-name="Group 983810" clip-path="url(#clip-path-4)">
              <path id="Path_210117" data-name="Path 210117" d="M1086.651,1304.115s-7.312-4.263-12.59-1.224Z" transform="translate(-1058.642 -1299.805)"/>
            </g>
          </g>
          <g id="Group_983813" data-name="Group 983813" transform="translate(0)">
            <g id="Group_983812" data-name="Group 983812" clip-path="url(#clip-path)">
              <path id="Path_210119" data-name="Path 210119" d="M1028.418,1304.658s9.186-3.935,16.059,3.062a1.132,1.132,0,0,1-.1,1.685l-.018.015a2.182,2.182,0,0,1-2.536.111c-1.922-1.242-5.816-3.191-9.917-1.956a88.947,88.947,0,0,1-10.279,2.47Z" transform="translate(-859.011 -1096.064)" fill="#ffa88a"/>
            </g>
          </g>
          <g id="Group_983815" data-name="Group 983815" transform="translate(162.615 207.491)">
            <g id="Group_983814" data-name="Group 983814" clip-path="url(#clip-path-6)">
              <path id="Path_210120" data-name="Path 210120" d="M1065.185,1321.457c5.865-2.7,9.619,1.116,9.619,1.116Z" transform="translate(-1058.252 -1317.795)"/>
            </g>
          </g>
          <g id="Group_983817" data-name="Group 983817" transform="translate(0)">
            <g id="Group_983816" data-name="Group 983816" clip-path="url(#clip-path)">
              <path id="Path_210122" data-name="Path 210122" d="M1008.473,1324.548s9.456-1.137,11.991,8.122a.889.889,0,0,1-.881,1.12,2.426,2.426,0,0,1-1.98-1.125c-1.249-1.956-4.385-5.791-9.428-5.043-6.714,1-9.813,1.227-9.813,1.227l1.691-3.833Z" transform="translate(-839.45 -1113.678)" fill="#ffa88a"/>
            </g>
          </g>
          <g id="Group_983819" data-name="Group 983819" transform="translate(158.912 210.825)">
            <g id="Group_983818" data-name="Group 983818" clip-path="url(#clip-path-8)">
              <path id="Path_210123" data-name="Path 210123" d="M1067.716,1342.983s-2.058-5.976-8.435-4.964c0,0,6.52,1.422,8.435,4.964" transform="translate(-1049.584 -1335.77)"/>
            </g>
          </g>
          <g id="Group_983821" data-name="Group 983821" transform="translate(0)">
            <g id="Group_983820" data-name="Group 983820" clip-path="url(#clip-path)">
              <path id="Path_210125" data-name="Path 210125" d="M981.917,1344.055a2.1,2.1,0,0,1-.386.035,2.137,2.137,0,0,1-1.633-.756c-1.244-1.476-3.813-4.089-6.008-3.513-1.833.48-2.347,1.8-4.629,2.929a20.289,20.289,0,0,1-7.567,1.651c-1.4.1-2.628.155-3.69.182.421-4.6,2.591-8.175,5.277-8.564l1.236.048,9.689.371a9.93,9.93,0,0,1,8.479,6.225,1.025,1.025,0,0,1-.768,1.392" transform="translate(-805.516 -1123.361)" fill="#ffa88a"/>
              <path id="Path_210126" data-name="Path 210126" d="M969.261,1342.564a20.276,20.276,0,0,1-7.567,1.651c-1.4.1-2.628.155-3.69.182.421-4.6,2.591-8.175,5.277-8.564a3.3,3.3,0,0,1,.486-.035,3.472,3.472,0,0,1,.75.083c2.2.494,4.015,3.134,4.744,6.683" transform="translate(-805.516 -1123.175)" fill="#ffa88a"/>
              <path id="Path_210127" data-name="Path 210127" d="M1155.532,1296.741a.873.873,0,0,1,.051-.705c-.1-.04-.2-.08-.3-.12a1.174,1.174,0,0,0-.052.94c.239.6,1.016,1.028,2.31,1.261h.017a1.455,1.455,0,0,0,0-.325c-1.428-.265-1.89-.717-2.024-1.052" transform="translate(-971.288 -1089.641)"/>
              <path id="Path_210128" data-name="Path 210128" d="M1155.911,1323.376a1.127,1.127,0,0,0-.089-.328c-.3.264-.793,0-1.159-.283-.384-.294-.58-.572-.568-.8a.483.483,0,0,1,.217-.347.152.152,0,0,0,.041-.037c-.085-.069-.171-.136-.256-.2a.78.78,0,0,0-.321.564c-.021.347.212.71.692,1.078a1.808,1.808,0,0,0,1.056.458.761.761,0,0,0,.387-.1" transform="translate(-970.125 -1111.049)"/>
              <path id="Path_210129" data-name="Path 210129" d="M1130.692,1367.354a.655.655,0,0,1-.214-.005c-.305-.059-.535-.335-.663-.8a.9.9,0,0,1,.036-.711.658.658,0,0,1,.369-.277c-.04-.1-.08-.2-.121-.3a.975.975,0,0,0-.52.4,1.194,1.194,0,0,0-.073.967c.207.743.609.969.91,1.027a1.025,1.025,0,0,0,.135.015.885.885,0,0,0,.141-.325" transform="translate(-949.664 -1147.952)"/>
              <path id="Path_210130" data-name="Path 210130" d="M1105.78,1369.677c-.254-.069-.462-.323-.619-.756a1.014,1.014,0,0,1-.033-.789.558.558,0,0,1,.279-.266c-.054-.093-.107-.186-.163-.276a.88.88,0,0,0-.4.393,1.3,1.3,0,0,0,.016,1.047,1.359,1.359,0,0,0,.836.956.878.878,0,0,0,.232.031.972.972,0,0,0,.125-.01,1.022,1.022,0,0,0,.087-.345.65.65,0,0,1-.36.015" transform="translate(-928.898 -1149.906)"/>
              <path id="Path_210131" data-name="Path 210131" d="M1584.667,922.091a.653.653,0,0,0,.906-.186l11.21-17.022q-.4-.577-.824-1.125l-11.477,17.428a.654.654,0,0,0,.186.906" transform="translate(-1332.183 -759.904)" fill="#fff"/>
            </g>
          </g>
        </g>
      </g>
    </g>
  </g>
</svg>
