<svg xmlns="http://www.w3.org/2000/svg" xmlns:xlink="http://www.w3.org/1999/xlink" width="105" height="100" viewBox="0 0 105 100">
  <defs>
    <clipPath id="clip-path">
      <rect id="Rectangle_338896" data-name="Rectangle 338896" width="105" height="100" rx="13" transform="translate(0 0.367)" fill="#fed947"/>
    </clipPath>
    <clipPath id="clip-path-2">
      <rect id="Rectangle_338895" data-name="Rectangle 338895" width="189.795" height="155.781" fill="none"/>
    </clipPath>
    <clipPath id="clip-path-3">
      <rect id="Rectangle_338894" data-name="Rectangle 338894" width="189.795" height="155.782" fill="none"/>
    </clipPath>
    <clipPath id="clip-path-5">
      <rect id="Rectangle_338892" data-name="Rectangle 338892" width="76.564" height="76.564" fill="#12263f"/>
    </clipPath>
  </defs>
  <g id="_36" data-name="36" transform="translate(-302 -1382.367)">
    <rect id="Rectangle_338805" data-name="Rectangle 338805" width="105" height="100" rx="13" transform="translate(302 1382.368)" fill="#fed947"/>
    <g id="Mask_Group_562" data-name="Mask Group 562" transform="translate(302 1382)" clip-path="url(#clip-path)">
      <g id="Group_983625" data-name="Group 983625" transform="translate(-31.547 -6.09)">
        <g id="Group_983624" data-name="Group 983624" clip-path="url(#clip-path-2)">
          <g id="Group_983623" data-name="Group 983623" transform="translate(0 0)">
            <g id="Group_983622" data-name="Group 983622" clip-path="url(#clip-path-3)">
              <g id="Group_983621" data-name="Group 983621" opacity="0.4" style="mix-blend-mode: multiply;isolation: isolate">
                <g id="Group_983620" data-name="Group 983620">
                  <g id="Group_983619" data-name="Group 983619" clip-path="url(#clip-path-3)">
                    <path id="Path_209148" data-name="Path 209148" d="M11.65,131.119A37.282,37.282,0,0,1,2.308,91.232,37.282,37.282,0,0,1,36.036,67.978c10.037-.05,19.886,4.044,29.873,3.048A30.2,30.2,0,0,0,89.955,53.741C92.9,47.2,93.382,39.847,95.447,32.98a46.386,46.386,0,0,1,59.7-30.438c17.863,6.233,30.643,23.59,33.783,42.247S186.4,82.92,175.853,98.629s-25.636,27.933-41.937,37.536c-18.662,10.995-39.591,18.922-61.241,19.58S29.9,147.854,11.65,131.119" transform="translate(0 0)" fill="#eddeff"/>
                  </g>
                </g>
              </g>
            </g>
          </g>
        </g>
      </g>
    </g>
    <g id="Group_983617" data-name="Group 983617" transform="translate(315.897 1393.581)">
      <g id="Group_983616" data-name="Group 983616" transform="translate(0 0)" clip-path="url(#clip-path-5)">
        <path id="Path_209147" data-name="Path 209147" d="M76.564,38.282A38.319,38.319,0,0,0,39.151.022l-.025,0a.882.882,0,0,0-.1,0h-.034a1.084,1.084,0,0,0-.166,0c-.181,0-.361-.013-.544-.013a38.282,38.282,0,0,0,0,76.564h0c.191,0,.379-.012.57-.015.028,0,.053.015.082.015h0a1.051,1.051,0,0,0,.189-.017l.025-.005A38.318,38.318,0,0,0,76.564,38.282M70.73,36.9a39.279,39.279,0,0,0-3.8-15.589q1.873.525,3.792,1.125A35.861,35.861,0,0,1,74.36,36.9Zm-2.168,0H56.977c-.008-.263,0-.524-.013-.787a48.252,48.252,0,0,0-4.5-17.984c3.694.58,7.581,1.371,11.644,2.413A37.075,37.075,0,0,1,68.562,36.9M39.367,3.01A59.467,59.467,0,0,1,48.6,15.433c-3.217-.383-6.3-.616-9.236-.72ZM37.2,14.658c-2.9-.044-5.66.035-8.26.207A59.915,59.915,0,0,1,37.2,3.69Zm0,2.129V36.9H22.41c.006-.222,0-.443.011-.665a46.6,46.6,0,0,1,5.33-19.178c2.875-.225,6.039-.327,9.448-.268m0,22.279V61.42c-2.712-.1-5.571-.317-8.576-.669A46.126,46.126,0,0,1,22.4,39.065Zm0,24.507v9.1a71.812,71.812,0,0,1-7.21-9.605c2.487.252,4.9.422,7.21.5m2.168.038c.506.008,1.027.027,1.523.027,2.117,0,4.144-.069,6.092-.186a73.16,73.16,0,0,1-7.616,9.943Zm0-2.131V39.065H54.823a46.346,46.346,0,0,1-6.516,22.18c-2.741.2-5.727.291-8.94.234m0-24.582V16.842c3.27.126,6.765.418,10.459.912A46.337,46.337,0,0,1,54.8,36.233c.01.222,0,.443.01.665Zm11.951-21.11A60.321,60.321,0,0,0,42.37,3,36,36,0,0,1,62.549,17.936C58.65,17,54.9,16.3,51.318,15.788m-25.041-.706A90.482,90.482,0,0,0,15.486,16.74,35.963,35.963,0,0,1,34.849,3a60.466,60.466,0,0,0-8.572,12.083M20.625,17.9c1.406-.226,2.916-.431,4.524-.6a48.541,48.541,0,0,0-4.894,18.817c-.012.263-.005.524-.013.787H8.656a37.026,37.026,0,0,1,5.17-17.612c2.052-.511,4.312-.991,6.8-1.389M6.488,36.9H2.2A35.858,35.858,0,0,1,6.266,21.6c1.328-.494,2.878-1.015,4.632-1.527A39.239,39.239,0,0,0,6.488,36.9m-.014,2.168a39.245,39.245,0,0,0,4.94,18.372Q9.2,56.851,6.926,56.163a35.864,35.864,0,0,1-4.738-17.1Zm2.169,0H20.227A47.689,47.689,0,0,0,25.978,60.4c-3.673-.517-7.541-1.238-11.6-2.212A37.038,37.038,0,0,1,8.643,39.065M27.281,62.752a71.893,71.893,0,0,0,7.9,10.912A35.932,35.932,0,0,1,16.246,60.858c3.84.845,7.511,1.453,11.034,1.895m22.362.506A91.447,91.447,0,0,0,60.309,61.7a35.893,35.893,0,0,1-18.27,11.968,72.471,72.471,0,0,0,7.6-10.406m6.293-2.887c-1.545.248-3.227.466-5.016.648a47.9,47.9,0,0,0,6.072-21.954H68.575a37.018,37.018,0,0,1-6.343,20.043c-1.918.464-4.014.9-6.3,1.264M70.743,39.065h3.633A35.878,35.878,0,0,1,69.093,57.1c-1.13.395-2.4.8-3.781,1.2a39.218,39.218,0,0,0,5.431-19.227M69.251,19.728c-1.241-.365-2.47-.712-3.683-1.031A38.5,38.5,0,0,0,52.208,4.964,36.33,36.33,0,0,1,69.251,19.728M26.28,4.226a38.422,38.422,0,0,0-13.9,13.249c-1.638.424-3.128.864-4.471,1.3A36.293,36.293,0,0,1,26.28,4.226M8.683,58.934q2.207.624,4.356,1.158A38.376,38.376,0,0,0,26.279,72.337a36.274,36.274,0,0,1-17.6-13.4M52.208,71.6A38.392,38.392,0,0,0,63.6,60.942c1.268-.319,2.444-.649,3.545-.981A36.316,36.316,0,0,1,52.208,71.6" transform="translate(0 0)" fill="#12263f"/>
      </g>
    </g>
  </g>
</svg>
