<svg xmlns="http://www.w3.org/2000/svg" width="505" height="412" viewBox="0 0 505 412">
  <g id="_4" data-name="4" transform="translate(-4578 10435)">
    <path id="Path_215850" data-name="Path 215850" d="M0,0H505V412H0Z" transform="translate(4578 -10435)" fill="#ffd6bd"/>
    <path id="Path_215851" data-name="Path 215851" d="M-43.611-2.065l4.482.018L-39.489,0h-7.673l.29-1.679,5.3-5.757-4.175-.018.36-2.057h7.409l-.281,1.626Zm11.039-7.62a3.814,3.814,0,0,1,2.167.646A3.638,3.638,0,0,1-29.07-7.308a5.357,5.357,0,0,1,.3,2.448,5.786,5.786,0,0,1-1.578,3.669,4.455,4.455,0,0,1-3.4,1.367,3.8,3.8,0,0,1-2.145-.637A3.624,3.624,0,0,1-37.222-2.18a5.239,5.239,0,0,1-.308-2.426,5.957,5.957,0,0,1,1.6-3.744A4.363,4.363,0,0,1-32.572-9.686Zm-2.5,5.979a2.194,2.194,0,0,0,.4,1.33,1.314,1.314,0,0,0,1.063.5,1.926,1.926,0,0,0,1.793-1.049,5.227,5.227,0,0,0,.606-2.848,2.387,2.387,0,0,0-.409-1.347A1.293,1.293,0,0,0-32.7-7.638,1.929,1.929,0,0,0-34.466-6.6,5.173,5.173,0,0,0-35.077-3.706Zm12.463-5.979a3.814,3.814,0,0,1,2.167.646,3.638,3.638,0,0,1,1.336,1.731,5.357,5.357,0,0,1,.3,2.448,5.786,5.786,0,0,1-1.578,3.669,4.455,4.455,0,0,1-3.4,1.367,3.8,3.8,0,0,1-2.145-.637A3.624,3.624,0,0,1-27.264-2.18a5.239,5.239,0,0,1-.308-2.426,5.957,5.957,0,0,1,1.6-3.744A4.363,4.363,0,0,1-22.614-9.686Zm-2.5,5.979a2.194,2.194,0,0,0,.4,1.33,1.314,1.314,0,0,0,1.063.5,1.926,1.926,0,0,0,1.793-1.049,5.227,5.227,0,0,0,.606-2.848,2.387,2.387,0,0,0-.409-1.347,1.293,1.293,0,0,0-1.068-.522A1.929,1.929,0,0,0-24.508-6.6,5.173,5.173,0,0,0-25.119-3.706Zm12.111,4.8h-1.951L-7.98-12.8h1.96ZM.624-2.065l4.482.018L4.746,0H-2.927l.29-1.679,5.3-5.757-4.175-.018.36-2.057H6.258L5.977-7.884ZM8.982,0h-2.5L8.139-9.51h2.5ZM8.429-11.927a1.238,1.238,0,0,1,.387-.976,1.36,1.36,0,0,1,.976-.387,1.367,1.367,0,0,1,.976.343,1.233,1.233,0,0,1,.431.932,1.273,1.273,0,0,1-.365.949,1.367,1.367,0,0,1-1,.422,1.39,1.39,0,0,1-.971-.334A1.227,1.227,0,0,1,8.429-11.927Zm11.786,7.2a7.854,7.854,0,0,1-.782,2.654A4.3,4.3,0,0,1,17.947-.352a3.44,3.44,0,0,1-1.969.536A2.745,2.745,0,0,1,13.8-.844l-.87,4.5H10.45L12.727-9.51l2.285-.009-.167.958a3.036,3.036,0,0,1,2.426-1.125A2.7,2.7,0,0,1,19.441-8.67a4.412,4.412,0,0,1,.826,2.659A10.274,10.274,0,0,1,20.215-4.729Zm-2.461-.18.053-.845a2.351,2.351,0,0,0-.312-1.356,1.12,1.12,0,0,0-.962-.519,2.046,2.046,0,0,0-1.784.915l-.712,3.926a1.387,1.387,0,0,0,1.4.924,1.789,1.789,0,0,0,1.494-.7A4.763,4.763,0,0,0,17.754-4.909Zm12.375.18a7.854,7.854,0,0,1-.782,2.654A4.3,4.3,0,0,1,27.861-.352a3.44,3.44,0,0,1-1.969.536,2.745,2.745,0,0,1-2.18-1.028l-.87,4.5H20.364L22.641-9.51l2.285-.009-.167.958a3.036,3.036,0,0,1,2.426-1.125A2.7,2.7,0,0,1,29.355-8.67a4.412,4.412,0,0,1,.826,2.659A10.274,10.274,0,0,1,30.129-4.729Zm-2.461-.18.053-.845a2.351,2.351,0,0,0-.312-1.356,1.12,1.12,0,0,0-.962-.519,2.046,2.046,0,0,0-1.784.915L23.95-2.788a1.387,1.387,0,0,0,1.4.924,1.789,1.789,0,0,0,1.494-.7A4.763,4.763,0,0,0,27.668-4.909ZM35.429.176a4.137,4.137,0,0,1-2.21-.611,3.7,3.7,0,0,1-1.437-1.652A4.605,4.605,0,0,1,31.412-4.4l.026-.352A6.148,6.148,0,0,1,32.247-7.3a4.884,4.884,0,0,1,1.74-1.789,4.306,4.306,0,0,1,2.355-.593,3.29,3.29,0,0,1,2.782,1.351A4.631,4.631,0,0,1,39.841-5L39.7-3.92H33.873a2.041,2.041,0,0,0,.448,1.477,1.711,1.711,0,0,0,1.318.571,3.041,3.041,0,0,0,2.373-1.055l1.134,1.406A3.527,3.527,0,0,1,37.6-.259,5.059,5.059,0,0,1,35.429.176Zm.791-7.813A1.761,1.761,0,0,0,35-7.207a3.784,3.784,0,0,0-.954,1.556h3.41l.053-.229a2.33,2.33,0,0,0,.009-.668,1.276,1.276,0,0,0-.431-.8A1.35,1.35,0,0,0,36.22-7.638Zm10.731.51a5.117,5.117,0,0,0-.835-.088,2.4,2.4,0,0,0-2.1.993L42.917,0H40.438l1.652-9.51,2.329-.009-.229,1.16A2.615,2.615,0,0,1,46.406-9.7a3.615,3.615,0,0,1,.861.123Z" transform="translate(4831 -10067)" fill="#fc5f65"/>
    <g id="Group_985284" data-name="Group 985284" transform="translate(4400 -10841)">
      <text id="Z" transform="translate(431 731)" fill="#3c3fa7" font-size="20" font-family="Roboto-BoldItalic, Roboto" font-weight="700" font-style="italic"><tspan x="-5.928" y="0">Z</tspan></text>
      <g id="Rectangle_339712" data-name="Rectangle 339712" transform="translate(411 704)" fill="none" stroke="#3c3fa7" stroke-width="3">
        <rect width="40" height="40" rx="10" stroke="none"/>
        <rect x="1.5" y="1.5" width="37" height="37" rx="8.5" fill="none"/>
      </g>
    </g>
    <g id="Group_985285" data-name="Group 985285" transform="translate(2408.437 -11158.806)">
      <path id="Path_213089" data-name="Path 213089" d="M2566.334,894.619a345.571,345.571,0,0,1-51.183,5.7c-34.679,1.263-41.254-3.753-81.143-4.384-38.693-.612-44.347,3.92-76.15,1.315a309.93,309.93,0,0,1-53.679-9.206c5.4,11.545,33.41,69.057,80.8,81.373,15.408,4,45.063,4.165,52.122,4.309,7.279.149,31.5.644,45.067-1.512C2524.559,965.477,2553.727,918.458,2566.334,894.619Z" transform="translate(-15.232 -15.295)" fill="#9f1d2e"/>
      <path id="Path_213090" data-name="Path 213090" d="M2563.023,900.867c-2.991.38-20.89,2.613-32.93,2.139-3.579-.141-7.629-.439-7.629-.439-6.689-.491-11.613-1.133-13.038-1.315-31.916-4.088-47.873-6.133-61.585-6.429-12-.26-27.676,1.265-59.089,3.215-5.242.325-11.094.7-19.142.584a210.237,210.237,0,0,1-37.728-3.931h0a65.457,65.457,0,0,0,21.083,23.075,61.051,61.051,0,0,0,16.645,7.453c21.084,6.32,37.553,5.387,80.952,5.781,16.6.151,16.61.31,22.98.164,19.658-.45,35.1-.916,53.362-6.822,12.737-4.118,19.793-8.6,24.551-12.274A73.1,73.1,0,0,0,2563.023,900.867Z" transform="translate(-29.481 -18.714)" fill="#fff5f0"/>
      <path id="Path_213091" data-name="Path 213091" d="M2570.827,993.248a92.624,92.624,0,0,0-15.158-10.241,21.168,21.168,0,0,0-4.659-1.905,21.91,21.91,0,0,0-11.616.258c-8.607,2.372-46.189,6.552-65.455,6.191-26.583-.5-63.1-10.487-75.527-5.886a33.715,33.715,0,0,0-7.486,4.038,42.891,42.891,0,0,0-6.885,6.069,76.79,76.79,0,0,0,18.014,16.122c5.181,3.313,11.34,6.333,22.886,9.644,8.835,2.534,20.679,5.845,35.8,6.97,3.6.268,7.29.391,16.844.263,24.728-.331,37.092-.5,45.22-1.972C2532.648,1021.01,2550.847,1015.357,2570.827,993.248Z" transform="translate(-56.307 -62.811)" fill="#fff5f0"/>
      <path id="Path_213092" data-name="Path 213092" d="M2539.627,865.373a22.489,22.489,0,0,1,4.421-2.97,32.76,32.76,0,0,1,15.4-3.717,28.119,28.119,0,0,1,10.509,2.089c.208.085.418.164.623.255l.608.3c.4.2.81.386,1.2.6a25.062,25.062,0,0,1,2.282,1.427,20.937,20.937,0,0,1,3.974,3.586,63.809,63.809,0,0,0-9.636-2.958,48.61,48.61,0,0,0-9.619-1.035,66.771,66.771,0,0,0-9.76.646C2546.348,864.033,2543.057,864.654,2539.627,865.373Z" transform="translate(-136.331 -0.194)" fill="#dc9b7d"/>
      <path id="Path_213093" data-name="Path 213093" d="M2514.508,1094.968c5.117.469,10.11.84,15.1,1.1s9.952.428,14.917.388c.621,0,1.242.03,1.862.012l1.861-.05c1.24-.027,2.485,0,3.725-.072,1.241-.05,2.482-.115,3.729-.14l.934-.025.931-.067,1.866-.113c1.243-.091,2.5-.086,3.747-.216,1.247-.109,2.5-.2,3.76-.279,2.526-.134,5.024-.478,7.622-.534-1.166.539-2.355,1.02-3.552,1.494a36.145,36.145,0,0,1-3.636,1.288c-1.231.364-2.468.719-3.711,1.054-.312.083-.621.177-.935.248l-.943.2-1.891.383a78.344,78.344,0,0,1-15.365,1.479,79.843,79.843,0,0,1-15.367-1.423A56.032,56.032,0,0,1,2514.508,1094.968Z" transform="translate(-123.411 -121.723)" fill="#dc9b7d"/>
      <path id="Path_213094" data-name="Path 213094" d="M2831.384,881.25a21.63,21.63,0,0,1,2.373-1.336c.813-.408,1.648-.763,2.5-1.095a29.607,29.607,0,0,1,5.3-1.5,21.482,21.482,0,0,1,2.807-.332,16.063,16.063,0,0,1,2.925.081,12.267,12.267,0,0,1,3.019.734,8.877,8.877,0,0,1,2.843,1.82c.1.1.212.205.31.308l.261.308a10.273,10.273,0,0,1,.954,1.328,6.589,6.589,0,0,1,.4.73,9.232,9.232,0,0,1,.86,3.19,12.026,12.026,0,0,1-1.184,5.943,22.635,22.635,0,0,1-2.976,4.717c-.575.708-1.165,1.393-1.791,2.046s-1.255,1.294-1.928,1.907c1.282-3.393,2.944-6.567,3.78-9.733a10.724,10.724,0,0,0,.38-4.458,5.9,5.9,0,0,0-.63-1.874,3.745,3.745,0,0,0-.246-.429,3.628,3.628,0,0,0-.285-.414,3.571,3.571,0,0,0-.324-.4l-.169-.2-.166-.154a7.059,7.059,0,0,0-3.677-1.686,23.506,23.506,0,0,0-4.854-.362C2838.468,880.443,2834.98,880.86,2831.384,881.25Z" transform="translate(-286.39 -9.592)" fill="#dc9b7d"/>
      <path id="Path_213095" data-name="Path 213095" d="M2293.33,858.488a41.916,41.916,0,0,0-8.8,4.131,13.056,13.056,0,0,0-5.5,6.429,7.227,7.227,0,0,0-.3.991,6.381,6.381,0,0,0-.206,1.03l-.1.522-.036.539c-.011.362-.075.715-.052,1.087l.018,1.111c.027.373.075.75.106,1.128l.051.57.1.57.188,1.152c.6,3.092,1.7,6.192,2.691,9.468q-.894-.916-1.722-1.9c-.547-.659-1.022-1.369-1.524-2.071-.484-.711-.892-1.474-1.325-2.228-.22-.376-.378-.786-.566-1.181s-.375-.8-.529-1.209a20.167,20.167,0,0,1-.79-2.562c-.1-.443-.214-.881-.283-1.334l-.155-1.377-.036-.346v-.352l.006-.706c0-.236,0-.472.012-.708l.082-.712a9.24,9.24,0,0,1,.253-1.418,10.586,10.586,0,0,1,.4-1.4,12.463,12.463,0,0,1,3.145-4.82,15.411,15.411,0,0,1,4.62-3.008,19.7,19.7,0,0,1,5.089-1.391A18.066,18.066,0,0,1,2293.33,858.488Z" fill="#dc9b7d"/>
    </g>
  </g>
</svg>
