<svg xmlns="http://www.w3.org/2000/svg" xmlns:xlink="http://www.w3.org/1999/xlink" width="221" height="259" viewBox="0 0 221 259">
  <defs>
    <clipPath id="clip-path">
      <rect id="Rectangle_339777" data-name="Rectangle 339777" width="221" height="259" transform="translate(915 1760)" fill="#fff" stroke="#707070" stroke-width="1"/>
    </clipPath>
  </defs>
  <g id="_7" data-name="7" transform="translate(-915 -1760)" clip-path="url(#clip-path)">
    <g id="Group_989159" data-name="Group 989159" transform="translate(905.276 1728.149)">
      <path id="Path_212602" data-name="Path 212602" d="M168.492,133.774c29.776,19.894,52.359,52.91,59.714,90.206s-1.155,78.342-23.808,107.363c-25.605,32.8-68.593,48.071-106.94,37.99A80.532,80.532,0,0,1,66.4,353.907c-12.681-10.492-21.641-25.551-28.27-41.356a199.783,199.783,0,0,1-10.918-117c4.792-22.723,13.953-44.945,29.445-60.97C86.942,103.259,135.487,111.724,168.492,133.774Z" transform="translate(0 8.304)" fill="#ff9fa3"/>
      <path id="Path_212603" data-name="Path 212603" d="M26.809,474.93c0,1,1.4,1.973,3.993,2.889,8.527,2.995,30.021,5.426,57.776,6.577,5.873.235,12.015.423,18.381.552,5.908.118,11.992.176,18.217.176,47.779,0,87.607-3.535,96.5-8.221,1.221-.634,1.855-1.293,1.855-1.973,0-.8-.881-1.574-2.549-2.314-5.52-2.466-19.638-4.58-38.9-6-1.656-.13-3.359-.247-5.1-.352-6.836-.447-14.224-.8-22.046-1.046-9.385-.317-19.392-.481-29.763-.481-22.211,0-42.695.764-59.15,2.044C49.478,468.082,37,469.9,30.92,472.005,28.243,472.933,26.809,473.92,26.809,474.93Z" transform="translate(0.383 43.726)" fill="#ffb990"/>
      <g id="Group_984664" data-name="Group 984664" transform="translate(37.589 31.851)">
        <g id="Group_984637" data-name="Group 984637" transform="translate(61.975)">
          <path id="Path_212604" data-name="Path 212604" d="M139.258,96.852s56.956,10.771,61.2-1.2,6.867-50.664-.4-56.449-95.938-12.367-102.4-1.6-6.867,50.465-.808,53.656,32.518,5.585,32.518,5.585l-1.616,11.968Z" transform="translate(-92.541 -31.851)" fill="#6b8dfc"/>
          <g id="Group_984636" data-name="Group 984636" transform="translate(45.927 16.67)">
            <path id="Path_212605" data-name="Path 212605" d="M140.635,70.965l-.37.091a1.048,1.048,0,0,1-.971-.595,9.362,9.362,0,0,1-1.062-4.109c0-3.334,2.219-5.343,4.531-7.444a19,19,0,0,0,2.311-2.465,3.256,3.256,0,0,0,.647-1.827c0-1.78-1.526-2.648-3.19-2.648a8.9,8.9,0,0,0-5.132,2.054,1.241,1.241,0,0,1-.647.228.816.816,0,0,1-.694-.411l-1.618-2.375a.833.833,0,0,1-.185-.593,1.14,1.14,0,0,1,.37-.822,12.406,12.406,0,0,1,8.045-3.059c4.716,0,8.321,2.786,8.321,7.534,0,3.013-1.432,4.931-3.513,6.987l-.879.866a19.543,19.543,0,0,0-2.266,2.329,3.045,3.045,0,0,0-.693,1.873,5.373,5.373,0,0,0,.462,2.054,2.265,2.265,0,0,1,.091.411.87.87,0,0,1-.138.457,1.271,1.271,0,0,1-.416.319Zm-3,7.031a3.8,3.8,0,0,1,3.837-3.79,3.791,3.791,0,1,1,0,7.58A3.8,3.8,0,0,1,137.631,78Z" transform="translate(-134.255 -46.992)" fill="#fff"/>
          </g>
        </g>
        <g id="Group_984638" data-name="Group 984638" transform="translate(86.218 450.897)">
          <path id="Path_212606" data-name="Path 212606" d="M114.564,466.267c-.456,2.507,36.068,19.388,37.663,17.109s-15.285-22.593-15.285-22.593l2.266-5.9,2.292-5.967-18.717-7.535s-1.716,4.935-3.58,10.419C117.1,458.007,114.806,464.926,114.564,466.267Z" transform="translate(-114.56 -441.381)" fill="#ff9c87"/>
          <path id="Path_212607" data-name="Path 212607" d="M114.564,465.341c-.456,2.507,36.068,19.388,37.663,17.109s-15.285-22.593-15.285-22.593l2.266-5.9a2.543,2.543,0,0,0-1.421-1.274,2.845,2.845,0,0,0-2.44.441,8.064,8.064,0,0,0-1.81,1.824c-.536.656-1.059,1.3-1.6,1.958-2.52-2.99-6.06-6.02-9.962-6.329a7.4,7.4,0,0,0-2.776.3C117.1,457.081,114.806,464,114.564,465.341Z" transform="translate(-114.56 -440.455)" fill="#fee9e8"/>
        </g>
        <g id="Group_984639" data-name="Group 984639" transform="translate(39.811 462.542)">
          <path id="Path_212608" data-name="Path 212608" d="M74.063,478.114c.512,2.5,40.7,4.542,41.328,1.832s-22.607-15.264-22.607-15.264l-.1-6.319-.1-6.391-20.177-.013s.247,5.219.563,11C73.335,469.5,73.787,476.78,74.063,478.114Z" transform="translate(-72.411 -451.958)" fill="#ff9c87"/>
          <path id="Path_212609" data-name="Path 212609" d="M74.011,477.586c.512,2.5,40.7,4.542,41.328,1.832s-22.607-15.264-22.607-15.264l-.1-6.319a2.55,2.55,0,0,0-1.794-.652,2.847,2.847,0,0,0-2.1,1.32,8.066,8.066,0,0,0-1,2.367c-.252.809-.5,1.6-.75,2.411-3.454-1.834-7.869-3.326-11.6-2.158a7.4,7.4,0,0,0-2.465,1.309C73.283,468.977,73.736,476.253,74.011,477.586Z" transform="translate(-72.359 -451.431)" fill="#fee9e8"/>
        </g>
        <g id="Group_984643" data-name="Group 984643" transform="translate(27.801 240.303)">
          <path id="Path_212610" data-name="Path 212610" d="M144.857,250.108S191.638,370.36,186.24,393.151s-37.784,77.669-37.784,77.669l-28.188-9.6,2.4-5.4,24.891-70.772-35.385-53.378-9.3,63.274-5.4,78.869s-18.893,5.1-28.789,1.5c0,0-10.2-140.044-6.3-160.436s17.393-63.575,17.393-63.575Z" transform="translate(-61.502 -250.108)" fill="#433d3b"/>
          <g id="Group_984640" data-name="Group 984640" transform="translate(35.681 44.089)">
            <path id="Path_212611" data-name="Path 212611" d="M94.2,470.068h-.019a.294.294,0,0,1-.274-.313c.013-.226,1.427-22.986,3.8-56.98s10.814-84.686,10.9-85.194l13.109-37.234a.294.294,0,0,1,.554.2l-13.1,37.184c-.072.458-8.509,51.11-10.879,85.088s-3.784,56.749-3.8,56.976A.294.294,0,0,1,94.2,470.068Z" transform="translate(-93.909 -290.153)" fill="#0e1219"/>
          </g>
          <g id="Group_984641" data-name="Group 984641" transform="translate(9.523 2.873)">
            <path id="Path_212612" data-name="Path 212612" d="M71.971,476.091h0a.294.294,0,0,1-.292-.3c.089-17.6-.341-35.5-.757-52.807-.466-19.4-.948-39.456-.7-59.188.557-44.65,4.988-79.879,13.942-110.871a.294.294,0,0,1,.565.164c-8.94,30.937-13.364,66.118-13.92,110.713-.246,19.722.236,39.775.7,59.167.415,17.312.846,35.213.756,52.823A.293.293,0,0,1,71.971,476.091Z" transform="translate(-70.151 -252.717)" fill="#0e1219"/>
          </g>
          <g id="Group_984642" data-name="Group 984642" transform="translate(53.525 71.833)">
            <path id="Path_212613" data-name="Path 212613" d="M120.278,456.154a.3.3,0,0,1-.1-.016.293.293,0,0,1-.179-.374l27.22-76.915a6.6,6.6,0,0,0-.458-6.768,301.936,301.936,0,0,0-36.58-56.25.293.293,0,1,1,.454-.372,302.412,302.412,0,0,1,36.65,56.36,9.436,9.436,0,0,1,1.238,3.747,9.543,9.543,0,0,1-.75,3.479l-27.22,76.915A.292.292,0,0,1,120.278,456.154Z" transform="translate(-110.116 -315.351)" fill="#0e1219"/>
          </g>
        </g>
        <g id="Group_984647" data-name="Group 984647" transform="translate(124.502 54.196)">
          <path id="Path_212614" data-name="Path 212614" d="M176.149,116.193a18.725,18.725,0,0,1-2.249-8.247c.15-8.847,2.249-8.1,0-11.545s-14.544-16.044-16.643-15.294,5.247,9.146,5.247,9.146-13.644-2.848-11.246,2.4c0,0-3.448,1.2-.6,3.749a1.406,1.406,0,0,0,.75,2.449,55.423,55.423,0,0,1,7.8,3.1s-3.748,8.847,1.95,16.194Z" transform="translate(-149.312 -81.075)" fill="#ff9c87"/>
          <g id="Group_984644" data-name="Group 984644" transform="translate(1.503 8.154)">
            <path id="Path_212615" data-name="Path 212615" d="M168.16,94.189a.182.182,0,0,1-.139-.063c-.033-.037-3.293-3.718-5.688-4.444-2.073-.628-7.525-1.316-10.124-.334a1.779,1.779,0,0,0-1.005.972,1.632,1.632,0,0,0-.006,1.3,1.466,1.466,0,0,0,.1.189.185.185,0,0,1-.314.2,1.826,1.826,0,0,1-.124-.24,2,2,0,0,1,0-1.587A2.161,2.161,0,0,1,152.08,89c2.713-1.025,8.187-.331,10.361.327,2.5.756,5.722,4.4,5.858,4.553a.185.185,0,0,1-.018.261A.181.181,0,0,1,168.16,94.189Z" transform="translate(-150.697 -88.481)" fill="#0e1219"/>
          </g>
          <g id="Group_984645" data-name="Group 984645" transform="translate(0 11.333)">
            <path id="Path_212616" data-name="Path 212616" d="M165.636,96.033a.179.179,0,0,1-.11-.036c-.044-.033-4.4-3.276-7.048-3.79-2.154-.419-6.647-.905-8.232.263a1.242,1.242,0,0,0-.545.887.19.19,0,0,1-.2.164.187.187,0,0,1-.164-.2,1.609,1.609,0,0,1,.693-1.145c1.687-1.242,6.152-.792,8.524-.329,2.726.531,7.016,3.721,7.2,3.857a.184.184,0,0,1-.111.333Z" transform="translate(-149.332 -91.368)" fill="#0e1219"/>
          </g>
          <g id="Group_984646" data-name="Group 984646" transform="translate(0.938 15.056)">
            <path id="Path_212617" data-name="Path 212617" d="M164.125,98.691a.18.18,0,0,1-.11-.037c-.041-.03-4.048-3.006-7.588-3.261q-.766-.056-1.426-.109c-2.568-.2-3.98-.308-4.5.239a.185.185,0,1,1-.27-.254c.641-.677,2.029-.569,4.795-.353q.659.053,1.426.109c3.649.263,7.615,3.209,7.782,3.335a.185.185,0,0,1,.036.259A.182.182,0,0,1,164.125,98.691Z" transform="translate(-150.184 -94.749)" fill="#0e1219"/>
          </g>
        </g>
        <g id="Group_984656" data-name="Group 984656" transform="translate(0 100.43)">
          <path id="Path_212618" data-name="Path 212618" d="M92.328,126.72a25.344,25.344,0,0,0-7.464,5.829c-3.764,4.346-5.086,10.052-5.056,15.694.017,3.248.784,6.454.874,9.7a9.645,9.645,0,0,1-1.413,5.8c-1.644,2.367-4.39,3.132-6.813,4.443a21,21,0,0,0-6.953,5.548c-3.981,5.262-4.367,13.178-2.083,19.213a16.874,16.874,0,0,0,5.7,7.792,20.111,20.111,0,0,0,10.554,3.277c11.523.743,23.126-.968,34.479-2.722,8.259-1.275,16.593-2.624,24.452-5.567,6.736-2.522,12.622-6.252,14.469-13.7,2.149-8.663-2.964-18.4-11.478-21.265-2.732-.918-6-1.209-7.912-3.627-2.4-3.033-1.258-7.322-.865-10.8.715-6.333-.766-13.244-5.865-17.458-7.284-6.02-15.434-6.418-24.365-5.309A30.382,30.382,0,0,0,92.328,126.72Z" transform="translate(-33.649 -123.067)" fill="#240a19"/>
          <path id="Path_212619" data-name="Path 212619" d="M89.1,159.008l2.443,19.333,23.385.446-.8-5.908-.693-5.18-22.222-7.94Z" transform="translate(-30.914 -119.437)" fill="#ff9c87"/>
          <path id="Path_212620" data-name="Path 212620" d="M91.019,159.691a14.529,14.529,0,0,0,6.19,12.168,16.83,16.83,0,0,0,14.013,2.232,7.24,7.24,0,0,0,2.713-1.28l-.693-5.18Z" transform="translate(-30.721 -119.368)" fill="#ff836d"/>
          <g id="Group_984649" data-name="Group 984649" transform="translate(0 15.557)">
            <path id="Path_212621" data-name="Path 212621" d="M88.277,149.436a4.252,4.252,0,0,0-5.846,1.043,4.322,4.322,0,0,0-.609,1.031,6.538,6.538,0,0,0,1.322,6.879,7.178,7.178,0,0,0,6.732,1.658c2.276-.762,2.742-3.183,2.324-5.293A8.448,8.448,0,0,0,88.277,149.436Z" transform="translate(-31.695 -136.034)" fill="#ff9c87"/>
            <g id="Group_984648" data-name="Group 984648" transform="translate(53.224 16.861)">
              <path id="Path_212622" data-name="Path 212622" d="M87.645,155.848a.275.275,0,0,1-.263-.194,3.984,3.984,0,0,0-2.6-2.6.275.275,0,0,1,.163-.526,4.546,4.546,0,0,1,2.958,2.968.275.275,0,0,1-.183.344A.254.254,0,0,1,87.645,155.848Z" transform="translate(-84.593 -152.511)" fill="#0e1219"/>
            </g>
            <path id="Path_212623" data-name="Path 212623" d="M36.252,137.2h.178" transform="translate(-36.252 -137.197)" fill="none"/>
          </g>
          <g id="Group_984655" data-name="Group 984655" transform="translate(51.618 1.286)">
            <path id="Path_212624" data-name="Path 212624" d="M125.272,141.266l-.04.011v0c-1.644-9.2-10-16.2-20.058-16.2-.349,0-.7.008-1.038.029-10.771.515-19.334,9.057-19.334,19.514a18.714,18.714,0,0,0,1.037,6.167,18.951,18.951,0,0,0,2.334,4.6l0,0c1.186,12.56,6.91,20.053,24.438,18.187C130.393,171.681,125.272,141.266,125.272,141.266Z" transform="translate(-82.966 -124.15)" fill="#ff9c87"/>
            <g id="Group_984654" data-name="Group 984654" transform="translate(20.254 17.037)">
              <g id="Group_984652" data-name="Group 984652" transform="translate(0.761 5.403)">
                <path id="Path_212625" data-name="Path 212625" d="M106.165,147.7a1.973,1.973,0,1,1-2.049-1.912A1.985,1.985,0,0,1,106.165,147.7Z" transform="translate(-102.221 -144.498)" fill="#240a19"/>
                <path id="Path_212626" data-name="Path 212626" d="M119.3,146.378a1.817,1.817,0,1,1-1.887-1.761A1.829,1.829,0,0,1,119.3,146.378Z" transform="translate(-100.863 -144.616)" fill="#240a19"/>
                <g id="Group_984650" data-name="Group 984650" transform="translate(11.808 1.174)">
                  <path id="Path_212627" data-name="Path 212627" d="M113.23,155.47a.281.281,0,0,1-.263-.172.267.267,0,0,1,.141-.351,2.375,2.375,0,0,0,1.524-2.606,29.778,29.778,0,0,0-1.668-6.285.276.276,0,0,1,.514-.2,30.456,30.456,0,0,1,1.7,6.4,2.916,2.916,0,0,1-1.849,3.194A.289.289,0,0,1,113.23,155.47Z" transform="translate(-112.945 -145.682)" fill="#0e1219"/>
                </g>
                <g id="Group_984651" data-name="Group 984651" transform="translate(8.972 9.702)">
                  <path id="Path_212628" data-name="Path 212628" d="M111.976,154.721a.276.276,0,0,1-.271-.224c-.034-.183-.087-.459-.228-.51a.3.3,0,0,0-.237.052,1.636,1.636,0,0,0-.375.388.275.275,0,0,1-.443-.326,2.117,2.117,0,0,1,.52-.524.82.82,0,0,1,.722-.107c.436.157.527.638.582.924a.276.276,0,0,1-.219.323A.284.284,0,0,1,111.976,154.721Z" transform="translate(-110.369 -153.428)" fill="#0e1219"/>
                </g>
              </g>
              <path id="Path_212629" data-name="Path 212629" d="M106.051,142.472a1.061,1.061,0,0,1,.512.738.881.881,0,0,1-.568.728,3.127,3.127,0,0,1-1.081.243,4.278,4.278,0,0,1-3.095-.691.857.857,0,0,1-.264-.352.712.712,0,0,1,.364-.764A3.624,3.624,0,0,1,106.051,142.472Z" transform="translate(-101.53 -139.5)" fill="#240a19"/>
              <path id="Path_212630" data-name="Path 212630" d="M119.075,140.442a1.118,1.118,0,0,1,.5.776.916.916,0,0,1-.552.765,2.839,2.839,0,0,1-1.049.257,3.909,3.909,0,0,1-3.006-.728.9.9,0,0,1-.257-.37.774.774,0,0,1,.353-.8A3.3,3.3,0,0,1,119.075,140.442Z" transform="translate(-100.201 -139.709)" fill="#240a19"/>
              <g id="Group_984653" data-name="Group 984653" transform="translate(5.348 17.373)">
                <path id="Path_212631" data-name="Path 212631" d="M110.454,158.037a4.873,4.873,0,0,1-4.022-2.123.275.275,0,0,1,.46-.3,4.29,4.29,0,0,0,4.6,1.737.276.276,0,0,1,.145.532A4.515,4.515,0,0,1,110.454,158.037Z" transform="translate(-106.387 -155.488)" fill="#0e1219"/>
              </g>
            </g>
            <path id="Path_212632" data-name="Path 212632" d="M106.436,124.263a16.419,16.419,0,0,1-.443,8.977,28.376,28.376,0,0,1-4.26,8c-2.756,3.779-6.249,7.215-10.637,8.837a37.789,37.789,0,0,1-.3,4.121.377.377,0,0,1-.063.217c-.11.13-.319.057-.468-.024L84.2,151.06c-1.028-2.067-.931-4.36-1.016-6.668a25.579,25.579,0,0,1,.083-4.269,15.832,15.832,0,0,1,6-9.986A28.6,28.6,0,0,1,99.99,125.1,20.313,20.313,0,0,1,106.436,124.263Z" transform="translate(-83.134 -124.235)" fill="#240a19"/>
          </g>
        </g>
        <path id="Path_212633" data-name="Path 212633" d="M118.26,177.584l-26.389-.6s0,5.4-1.5,7.8-17.393,13.795-20.392,23.09,9,58.776,9,58.776,44.982,8.4,65.074-2.4c0,0,9.6-23.09,6.3-48.58,0,0,53.979-25.19,59.077-42.583s-24.29-62.976-24.29-62.976l-17.393,5.7s15.594,38.685,14.394,41.984-44.382,24.889-51.278,26.389S120.606,184.715,118.26,177.584Z" transform="translate(-32.894 -23.946)" fill="#fee9e8"/>
        <path id="Path_212634" data-name="Path 212634" d="M110.032,210.064l-17.593-5.4L86.691,220.51,71.7,197.269s-5.4,4.2-3.448,29.538,5.4,37.036,19.192,38.685C109.4,268.118,110.032,210.064,110.032,210.064Z" transform="translate(-33.063 -15.142)" fill="#fee9e8"/>
        <g id="Group_984657" data-name="Group 984657" transform="translate(110.862 180.034)">
          <path id="Path_212635" data-name="Path 212635" d="M137.236,255.931a.28.28,0,0,1-.121-.026.293.293,0,0,1-.145-.389c.03-.066,3.03-6.787,6.576-24.327,3.538-17.491-4.5-35.228-4.577-35.405a.294.294,0,0,1,.534-.246c.081.179,8.195,18.085,4.619,35.767-3.563,17.622-6.588,24.387-6.618,24.453A.292.292,0,0,1,137.236,255.931Z" transform="translate(-136.943 -195.368)" fill="#0e1219"/>
        </g>
        <g id="Group_984662" data-name="Group 984662" transform="translate(60.778 154.338)">
          <path id="Path_212636" data-name="Path 212636" d="M104.383,210.914a23.978,23.978,0,0,0,3.154-6.614,16.789,16.789,0,0,0,0-6.816s1.932-7.834-3.562-10.886c0,0,.306-4.68-1.322-5.6s-2.442,4.477-2.442,4.477.407-12.819-1.424-13.43-2.238,13.43-3.052,15.16-4.477,7.427-4.274,9.258,2.036,11.6,2.036,11.6Z" transform="translate(-91.454 -172.029)" fill="#ff9c87"/>
          <g id="Group_984658" data-name="Group 984658" transform="translate(8.036 12.702)">
            <path id="Path_212637" data-name="Path 212637" d="M105.585,197.163a1.2,1.2,0,0,1-.406-.07,1.572,1.572,0,0,1-.922-.99.188.188,0,1,1,.355-.128,1.2,1.2,0,0,0,.691.762.946.946,0,0,0,.822-.119c1.4-.862.9-4.1.62-5.449A9.325,9.325,0,0,0,104,186.106c-1.768-1.621-5.059-2.16-5.092-2.166a.19.19,0,0,1-.156-.216.187.187,0,0,1,.216-.156,11.815,11.815,0,0,1,5.287,2.26,9.7,9.7,0,0,1,2.857,5.265c.366,1.775.75,4.894-.792,5.845A1.4,1.4,0,0,1,105.585,197.163Z" transform="translate(-98.752 -183.566)" fill="#0e1219"/>
          </g>
          <g id="Group_984659" data-name="Group 984659" transform="translate(7.273 14.381)">
            <path id="Path_212638" data-name="Path 212638" d="M103.158,196.7a1.936,1.936,0,0,1-1.814-1.7.188.188,0,0,1,.153-.217.191.191,0,0,1,.218.152c.011.065.306,1.58,1.694,1.373a.953.953,0,0,0,.691-.469c.619-.963.5-3.35-.31-6.082-.948-3.211-5.537-4.285-5.583-4.3a.188.188,0,0,1,.083-.368c.2.044,4.85,1.132,5.862,4.556.666,2.254,1.086,5.116.265,6.392a1.327,1.327,0,0,1-.953.639A2.273,2.273,0,0,1,103.158,196.7Z" transform="translate(-98.06 -185.091)" fill="#0e1219"/>
          </g>
          <g id="Group_984660" data-name="Group 984660" transform="translate(6.129 16.095)">
            <path id="Path_212639" data-name="Path 212639" d="M100.4,196.3c-.917,0-1.682-1.792-2.308-3.257-.087-.2-.17-.4-.246-.569a.188.188,0,1,1,.344-.153c.077.174.16.368.249.574.522,1.223,1.4,3.262,2.093,3a1.246,1.246,0,0,0,.742-.709c.4-.94.061-2.661-1.038-5.261-1.413-3.343-2.956-2.877-2.969-2.871a.189.189,0,0,1-.126-.356c.077-.028,1.878-.619,3.442,3.081,1.141,2.7,1.481,4.515,1.038,5.555a1.633,1.633,0,0,1-.953.914A.752.752,0,0,1,100.4,196.3Z" transform="translate(-97.021 -186.648)" fill="#0e1219"/>
          </g>
          <g id="Group_984661" data-name="Group 984661" transform="translate(7.193 22.136)">
            <path id="Path_212640" data-name="Path 212640" d="M99.369,199.569a.182.182,0,0,1-.047-.007.187.187,0,0,1-.134-.229,7.522,7.522,0,0,0-.037-3.521A22.993,22.993,0,0,0,98,192.392a.188.188,0,0,1,.106-.244.191.191,0,0,1,.244.106,23.288,23.288,0,0,1,1.167,3.478,7.9,7.9,0,0,1,.034,3.7A.19.19,0,0,1,99.369,199.569Z" transform="translate(-97.987 -192.135)" fill="#0e1219"/>
          </g>
        </g>
        <g id="Group_984663" data-name="Group 984663" transform="translate(46.788 189.03)">
          <path id="Path_212641" data-name="Path 212641" d="M96.634,260.654a.293.293,0,0,1-.219-.489c8.619-9.609,11.56-47.742,11.8-51.118l-16.9-4.855-12,33.626a.293.293,0,0,1-.553-.2l12.1-33.887a.291.291,0,0,1,.357-.183l17.393,5a.3.3,0,0,1,.212.3c-.113,1.691-2.86,41.552-11.97,51.706A.29.29,0,0,1,96.634,260.654Z" transform="translate(-78.747 -203.539)" fill="#0e1219"/>
        </g>
      </g>
      <g id="Group_984665" data-name="Group 984665" transform="translate(28.36 165.141)">
        <path id="Path_212642" data-name="Path 212642" d="M49.679,184.625a3.79,3.79,0,1,1-3.458-6.745,3.79,3.79,0,1,1,3.458,6.745Zm-7.392-9.654a1.29,1.29,0,0,1-.516-.095.878.878,0,0,1-.331-.342,2.343,2.343,0,0,1-.106-.408,5.368,5.368,0,0,0-.526-2.039,3.031,3.031,0,0,0-1.471-1.35,19.511,19.511,0,0,0-3.078-1.038l-1.178-.371c-2.789-.88-4.939-1.932-6.314-4.614-2.167-4.225-.229-8.349,3.967-10.5a12.407,12.407,0,0,1,8.555-.95,1.141,1.141,0,0,1,.7.564.836.836,0,0,1,.106.613l-.356,2.851a.819.819,0,0,1-.43.683,1.236,1.236,0,0,1-.68.091,8.911,8.911,0,0,0-5.5.514c-1.481.759-2.443,2.227-1.629,3.813a3.262,3.262,0,0,0,1.408,1.329,19.153,19.153,0,0,0,3.183,1.14c3.016.814,5.906,1.589,7.427,4.555a9.356,9.356,0,0,1,.929,4.142,1.046,1.046,0,0,1-.592.971l-.371.088Z" transform="translate(-27.87 -152.913)" fill="#fff"/>
      </g>
      <g id="Group_984666" data-name="Group 984666" transform="translate(178.797 223.954)">
        <path id="Path_212643" data-name="Path 212643" d="M178.03,226.991a1.4,1.4,0,0,0,.172-.484,1,1,0,0,0-.093-.466,2.274,2.274,0,0,0-.243-.308,5.178,5.178,0,0,1-1.217-1.549,3.487,3.487,0,0,1-.285-1.967,22.211,22.211,0,0,1,.68-3.15l.279-1.19c.66-2.82.9-5.2-.384-7.808-2.024-4.112-5.871-4.722-9.352-2.364a12.178,12.178,0,0,0-4.635,6.671,1.318,1.318,0,0,0,.078.9.767.767,0,0,0,.389.421l2.206,1.247a.606.606,0,0,0,.687.009,1.192,1.192,0,0,0,.38-.521,8.838,8.838,0,0,1,2.912-4.345c1.229-.832,2.725-.843,3.484.7a3.748,3.748,0,0,1,.3,1.906,22.06,22.06,0,0,1-.656,3.291c-.811,2.975-1.593,5.824-.174,8.712a8.876,8.876,0,0,0,2.536,3.027.785.785,0,0,0,.969.03l.235-.264Zm3.493,11.448a4.111,4.111,0,0,0,1.217-5.2,2.953,2.953,0,0,0-4.446-1.364,4.179,4.179,0,0,0-1.218,5.2A2.994,2.994,0,0,0,181.523,238.439Z" transform="translate(-162.908 -206.329)" fill="#fff"/>
      </g>
    </g>
  </g>
</svg>
