<svg xmlns="http://www.w3.org/2000/svg" xmlns:xlink="http://www.w3.org/1999/xlink" width="85" height="85" viewBox="0 0 85 85">
  <defs>
    <clipPath id="clip-path">
      <rect id="Rectangle_339718" data-name="Rectangle 339718" width="84" height="84" transform="translate(181 1179)" fill="#fff" stroke="#707070" stroke-width="1"/>
    </clipPath>
  </defs>
  <g id="_7" data-name="7" transform="translate(-180 -1208)">
    <circle id="Ellipse_4927" data-name="Ellipse 4927" cx="42.5" cy="42.5" r="42.5" transform="translate(180 1208)" fill="#fed947"/>
    <g id="Mask_Group_631" data-name="Mask Group 631" transform="translate(0 29)" clip-path="url(#clip-path)">
      <g id="mujer" transform="translate(179.645 1177.646)">
        <path id="Path_213126" data-name="Path 213126" d="M71.454,65.317l-3.536-1.45-5.365-2.195s3.834,14.2-4.295,14.2c-6.774,0-9.484-2.71-9.484-2.71s-2.71,2.71-9.484,2.71c-2.872,0-4.254-1.775-4.837-4.065h-16.8A20.213,20.213,0,0,0,13.548,84H84A20.187,20.187,0,0,0,71.454,65.317Z" fill="#b4dd7f"/>
        <path id="Path_213127" data-name="Path 213127" d="M62.553,61.672s3.834,14.2-4.295,14.2c-6.774,0-9.484-2.71-9.484-2.71l7.113-9.484L58.6,60.06Z" fill="#ff826e"/>
        <path id="Path_213128" data-name="Path 213128" d="M35.226,71.806a10.826,10.826,0,0,0,8.969-4.755l4.579,6.11s-2.71,2.71-9.484,2.71c-2.872,0-4.254-1.775-4.837-4.065Z" fill="#ff826e"/>
        <path id="Path_213129" data-name="Path 213129" d="M55.887,63.677l-7.113,9.484-4.579-6.11a11.046,11.046,0,0,0,1.531-3.374H55.887Z" fill="#ccd1d9"/>
        <path id="Path_213130" data-name="Path 213130" d="M70.452,24.387V56.9a10.763,10.763,0,0,1-2.534,6.964l-5.365-2.195L58.6,60.06l-1.03-.42a5.425,5.425,0,0,1-3.374-5.026v-1.68A23.759,23.759,0,0,0,65.032,32.99V27.1a51.144,51.144,0,0,1-20.743-4.4L42,21.677l-1.206.352A11.389,11.389,0,0,0,32.516,32.99a23.75,23.75,0,0,0,7.316,17.139H27.1V24.387a21.677,21.677,0,1,1,43.355,0Z" fill="#fcd770"/>
        <path id="Path_213131" data-name="Path 213131" d="M44.195,67.051a10.826,10.826,0,0,1-8.969,4.755H13.548a10.839,10.839,0,1,1,0-21.677H46.065V60.968a11.162,11.162,0,0,1-.339,2.71A11.046,11.046,0,0,1,44.195,67.051Z" fill="#e6e9ed"/>
        <g id="Group_985303" data-name="Group 985303">
          <circle id="Ellipse_4930" data-name="Ellipse 4930" cx="2.71" cy="2.71" r="2.71" transform="translate(32.516 58.258)" fill="#fcd770"/>
          <circle id="Ellipse_4931" data-name="Ellipse 4931" cx="2.71" cy="2.71" r="2.71" transform="translate(21.677 58.258)" fill="#fcd770"/>
          <circle id="Ellipse_4932" data-name="Ellipse 4932" cx="2.71" cy="2.71" r="2.71" transform="translate(10.839 58.258)" fill="#fcd770"/>
        </g>
        <path id="Path_213132" data-name="Path 213132" d="M58.6,60.06l-2.71,3.617H45.726a11.162,11.162,0,0,0,.339-2.71v-6.53a23.68,23.68,0,0,0,2.71,1.111,23.841,23.841,0,0,0,5.419-2.615v1.68a5.425,5.425,0,0,0,3.374,5.026Z" fill="#f0d0b4"/>
        <path id="Path_213133" data-name="Path 213133" d="M46.065,50.129H39.832A23.75,23.75,0,0,1,32.516,32.99,11.389,11.389,0,0,1,40.794,22.03L42,21.677l2.29,1.016a51.144,51.144,0,0,0,20.743,4.4V32.99A23.814,23.814,0,0,1,48.774,55.548a23.68,23.68,0,0,1-2.71-1.111Z" fill="#f0d0b4"/>
        <circle id="Ellipse_4933" data-name="Ellipse 4933" cx="1.355" cy="1.355" r="1.355" transform="translate(39.29 31.161)"/>
        <circle id="Ellipse_4934" data-name="Ellipse 4934" cx="1.355" cy="1.355" r="1.355" transform="translate(55.548 31.161)"/>
        <path id="Path_213134" data-name="Path 213134" d="M54.194,43.355h-2.71a2.71,2.71,0,1,1-5.419,0h-2.71a5.419,5.419,0,0,0,10.839,0Z"/>
        <path id="Path_213135" data-name="Path 213135" d="M63.626,23.145l2.7-.224a17.916,17.916,0,0,0-.495-2.935l-2.626.673a14.828,14.828,0,0,1,.419,2.485Z"/>
        <path id="Path_213136" data-name="Path 213136" d="M62.327,18.178l2.463-1.13A17.671,17.671,0,0,0,48.774,6.774v2.71A14.953,14.953,0,0,1,62.327,18.178Z"/>
        <path id="Path_213137" data-name="Path 213137" d="M24.387,56.9a4.065,4.065,0,1,0,4.065,4.065A4.069,4.069,0,0,0,24.387,56.9Zm0,5.419a1.355,1.355,0,1,1,1.355-1.355A1.356,1.356,0,0,1,24.387,62.323Z"/>
        <path id="Path_213138" data-name="Path 213138" d="M13.548,56.9a4.065,4.065,0,1,0,4.065,4.065A4.069,4.069,0,0,0,13.548,56.9Zm0,5.419A1.355,1.355,0,1,1,14.9,60.968,1.356,1.356,0,0,1,13.548,62.323Z"/>
        <path id="Path_213139" data-name="Path 213139" d="M39.29,60.968a4.065,4.065,0,1,0-4.065,4.065A4.069,4.069,0,0,0,39.29,60.968Zm-5.419,0a1.355,1.355,0,1,1,1.355,1.355A1.356,1.356,0,0,1,33.871,60.968Z"/>
        <path id="Path_213140" data-name="Path 213140" d="M71.973,64.069l-1.967-.8a12.221,12.221,0,0,0,1.8-6.361V24.387a23.032,23.032,0,1,0-46.065,0V48.774H13.548a12.194,12.194,0,0,0,0,24.387h1.6A21.307,21.307,0,0,0,12.194,84v1.355H85.355V84A21.455,21.455,0,0,0,71.973,64.069ZM28.452,24.387a20.323,20.323,0,0,1,40.645,0V56.9a9.476,9.476,0,0,1-1.665,5.307l-9.357-3.829a4.047,4.047,0,0,1-2.527-3.762v-.973A25.084,25.084,0,0,0,66.387,32.992v-7.25H65.032A49.4,49.4,0,0,1,44.84,21.457L42.1,20.239l-1.683.481a12.818,12.818,0,0,0-9.258,12.272,25.239,25.239,0,0,0,5.625,15.783H28.452ZM60.939,73.34a3.1,3.1,0,0,1-2.681,1.176,15.3,15.3,0,0,1-7.561-1.66l8.358-11.145,2.345.959c.611,2.641,1.406,8.236-.461,10.669ZM40.416,48.774a22.522,22.522,0,0,1-6.545-15.783,10.1,10.1,0,0,1,7.29-9.665l.738-.21,1.839.818a52.089,52.089,0,0,0,19.939,4.5v4.558a22.394,22.394,0,0,1-14.9,21.123c-.432-.157-.887-.347-1.356-.553V48.774ZM56.493,60.613l-1.283,1.71h-7.87a12.106,12.106,0,0,0,.08-1.355V56.489c.312.121.625.245.927.345l.428.142.428-.142a25.179,25.179,0,0,0,3.684-1.562,6.724,6.724,0,0,0,3.607,5.341Zm-9.785,4.419h6.469l-4.4,5.871-2.948-3.93a12.122,12.122,0,0,0,.882-1.94Zm-2.561,4.219,2.7,3.6a15.284,15.284,0,0,1-7.56,1.661A3.089,3.089,0,0,1,36.445,73.1,12.149,12.149,0,0,0,44.147,69.251ZM4.065,60.968a9.5,9.5,0,0,1,9.484-9.484H44.71v9.484a9.5,9.5,0,0,1-9.484,9.484H13.548A9.5,9.5,0,0,1,4.065,60.968Zm14.3,12.194H33.469a5.879,5.879,0,0,0,5.822,4.065,18.77,18.77,0,0,0,8.129-1.619v7.038H28.452V75.871h-2.71v6.774H14.951A18.655,18.655,0,0,1,18.361,73.161Zm53.446,9.484V75.871H69.1v6.774H50.129V75.607a18.769,18.769,0,0,0,8.129,1.619,5.834,5.834,0,0,0,4.834-2.24C65.337,72.054,64.939,67,64.41,63.9l6.536,2.674A18.749,18.749,0,0,1,82.6,82.645Z"/>
      </g>
    </g>
  </g>
</svg>
