<svg xmlns="http://www.w3.org/2000/svg" xmlns:xlink="http://www.w3.org/1999/xlink" width="78" height="78" viewBox="0 0 78 78">
  <defs>
    <clipPath id="clip-path">
      <rect id="Rectangle_339757" data-name="Rectangle 339757" width="45" height="45" transform="translate(837 3018)" fill="#fff" stroke="#707070" stroke-width="1"/>
    </clipPath>
  </defs>
  <g id="_8" data-name="8" transform="translate(-820 -3001)">
    <circle id="Ellipse_4901" data-name="Ellipse 4901" cx="39" cy="39" r="39" transform="translate(820 3001)" fill="#6b8dfc"/>
    <g id="Mask_Group_634" data-name="Mask Group 634" clip-path="url(#clip-path)">
      <g id="delicioso" transform="translate(837 3018)">
        <g id="Group_985469" data-name="Group 985469">
          <path id="Path_213260" data-name="Path 213260" d="M9.316,31.157a13.184,13.184,0,0,0,26.367,0v-8.57c0-3.608-7.164-3.256-7.25-7.179-.006,6.15-19.117,1.575-19.117,7.179v8.57ZM22.5,38.814c.227-.367,1.092-1.784,1.579-2.69,1.01-1.882,3.039-1.315,2.749.462a4.584,4.584,0,0,1-.839,1.788A13.654,13.654,0,0,1,22.5,38.814Z" fill="#d69660" fill-rule="evenodd"/>
          <path id="Path_213261" data-name="Path 213261" d="M24.079,36.123c-.486.907-1.351,2.323-1.579,2.69a13.654,13.654,0,0,0,3.488-.44,4.586,4.586,0,0,0,.839-1.788C27.118,34.809,25.088,34.241,24.079,36.123Z" fill="#e08ea2" fill-rule="evenodd"/>
          <path id="Path_213262" data-name="Path 213262" d="M35.684,22.588V30.5H37a2.644,2.644,0,0,0,2.637-2.637V23.906a1.322,1.322,0,0,0-1.318-1.318ZM8,30.5H9.316v-7.91H6.68a1.322,1.322,0,0,0-1.318,1.318v3.955A2.644,2.644,0,0,0,8,30.5Z" fill="#9e5e28" fill-rule="evenodd"/>
          <path id="Path_213263" data-name="Path 213263" d="M9.316,22.588c0-5.6,19.111-1.029,19.117-7.179.086,3.923,7.25,3.572,7.25,7.179V19.951c0-4.7-5.933-8.539-13.184-8.539S9.316,15.254,9.316,19.951Z" fill="#ff9fa3" fill-rule="evenodd"/>
          <path id="Path_213264" data-name="Path 213264" d="M22.5,11.412c7.251,0,13.184,3.843,13.184,8.539a13.184,13.184,0,0,0-26.367,0C9.316,15.255,15.249,11.412,22.5,11.412Z" fill="#fef090" fill-rule="evenodd"/>
          <path id="Path_213265" data-name="Path 213265" d="M32.016,14.057c2.269,1.536,3.667,3.614,3.667,5.894a13.184,13.184,0,0,0-26.367,0c0-2.28,1.4-4.359,3.667-5.895a11.18,11.18,0,0,1,19.032,0Z" fill="#fee31e" fill-rule="evenodd"/>
          <path id="Path_213266" data-name="Path 213266" d="M9.316,19.951a13.184,13.184,0,0,1,26.367,0v2.637H38.32a1.322,1.322,0,0,1,1.318,1.318v3.955A2.644,2.644,0,0,1,37,30.5H35.683v.659a13.194,13.194,0,0,1-5.628,10.788,5.667,5.667,0,0,0,7.566-5.034,3.625,3.625,0,0,0,3.405-3.618,6.25,6.25,0,0,0,3.314-5.566,6.637,6.637,0,0,0-1.793-4.632,5.2,5.2,0,0,0,1.793-3.762,4.4,4.4,0,0,0-2.354-3.867,6.019,6.019,0,0,0-5.534-8.71c-.285-3.786-5.382-6.1-9.313-3.927a6.046,6.046,0,0,0-9.279,0C13.93.659,8.832,2.969,8.548,6.755a6.019,6.019,0,0,0-5.534,8.71A4.4,4.4,0,0,0,.659,19.333a5.2,5.2,0,0,0,1.793,3.762A6.637,6.637,0,0,0,.659,27.727a6.25,6.25,0,0,0,3.314,5.566,3.625,3.625,0,0,0,3.405,3.618,5.667,5.667,0,0,0,7.566,5.034A13.194,13.194,0,0,1,9.316,31.157V30.5H8a2.644,2.644,0,0,1-2.637-2.637V23.906A1.322,1.322,0,0,1,6.68,22.588H9.316Z" fill="#ff9fa3" fill-rule="evenodd"/>
          <path id="Path_213267" data-name="Path 213267" d="M9.316,22.588v8.57A13.213,13.213,0,0,0,23.489,44.3,13.228,13.228,0,0,1,11.294,31.157V20.285C10.078,20.759,9.316,21.47,9.316,22.588Z" fill="#9e5e28" fill-rule="evenodd"/>
          <path id="Path_213268" data-name="Path 213268" d="M13.637,2.057c-2.643.364-4.9,2.213-5.09,4.7a6.019,6.019,0,0,0-5.534,8.71A4.4,4.4,0,0,0,.659,19.333a5.2,5.2,0,0,0,1.793,3.762A6.637,6.637,0,0,0,.659,27.727a6.25,6.25,0,0,0,3.314,5.566,3.625,3.625,0,0,0,3.405,3.618,5.667,5.667,0,0,0,7.566,5.034,13.281,13.281,0,0,1-5.059-6.962L7.5,34.937C5.8,34.9,5.951,33.143,5.951,31.985,1.99,30.3,2.184,26.31,4.818,23.184c-3.215-3.054-2.3-6.091.944-6.915a10.749,10.749,0,0,1-1.389-2.762A4.1,4.1,0,0,1,8.452,8.73l1.923.093c.242-3.22,1.262-5.543,3.262-6.767ZM9.316,22.588V19.951a6.481,6.481,0,0,1,1.978-4.483v4.817C10.078,20.759,9.316,21.47,9.316,22.588Z" fill="#fc5f65" fill-rule="evenodd"/>
          <path id="Path_213269" data-name="Path 213269" d="M30.871,5.863V4.545m2.637,2.637V5.863" fill="none" stroke="#fff" stroke-miterlimit="22.926" stroke-width="1.318" fill-rule="evenodd"/>
        </g>
        <g id="Group_985470" data-name="Group 985470">
          <path id="Path_213270" data-name="Path 213270" d="M27.107,43.5a13.233,13.233,0,0,0,8.577-12.347v-8.57c0-3.63-7.251-3.252-7.251-7.251.142,6.257-19.116,1.625-19.116,7.251v8.57A13.222,13.222,0,0,0,22.5,44.341a13.088,13.088,0,0,0,3.309-.423" fill="none" stroke="#000" stroke-miterlimit="22.926" stroke-width="1.318" fill-rule="evenodd"/>
          <path id="Path_213271" data-name="Path 213271" d="M35.683,22.588H38.32a1.322,1.322,0,0,1,1.318,1.318v3.955A2.644,2.644,0,0,1,37,30.5H35.683M9.316,22.588H6.68a1.322,1.322,0,0,0-1.318,1.318v3.955A2.644,2.644,0,0,0,8,30.5H9.316" fill="none" stroke="#000" stroke-miterlimit="22.926" stroke-width="1.318" fill-rule="evenodd"/>
          <path id="Path_213272" data-name="Path 213272" d="M20.522,30.091a2.561,2.561,0,0,0,3.955,0" fill="none" stroke="#000" stroke-miterlimit="22.926" stroke-width="1.318" fill-rule="evenodd"/>
          <path id="Path_213273" data-name="Path 213273" d="M12.128,26.139A3.3,3.3,0,0,1,18.545,27.2" fill="none" stroke="#000" stroke-miterlimit="22.926" stroke-width="1.318" fill-rule="evenodd"/>
          <path id="Path_213274" data-name="Path 213274" d="M16.108,37.089A11.476,11.476,0,0,0,22.5,38.814a11.476,11.476,0,0,0,6.392-1.725" fill="none" stroke="#000" stroke-miterlimit="22.926" stroke-width="1.318" fill-rule="evenodd"/>
          <path id="Path_213275" data-name="Path 213275" d="M14.945,41.945a5.667,5.667,0,0,1-7.567-5.033,3.625,3.625,0,0,1-3.405-3.618A6.25,6.25,0,0,1,.659,27.727a6.637,6.637,0,0,1,1.793-4.632A5.2,5.2,0,0,1,.659,19.333a4.4,4.4,0,0,1,2.354-3.867,6.019,6.019,0,0,1,5.534-8.71c.285-3.786,5.382-6.1,9.313-3.927a6.046,6.046,0,0,1,9.279,0c3.931-2.169,9.028.141,9.313,3.927a6.019,6.019,0,0,1,5.534,8.71,4.4,4.4,0,0,1,2.354,3.867,5.2,5.2,0,0,1-1.793,3.762,6.637,6.637,0,0,1,1.793,4.632,6.25,6.25,0,0,1-3.314,5.566,3.625,3.625,0,0,1-3.405,3.618,5.667,5.667,0,0,1-7.567,5.033" fill="none" stroke="#000" stroke-miterlimit="22.926" stroke-width="1.318" fill-rule="evenodd"/>
          <path id="Path_213276" data-name="Path 213276" d="M9.316,22.588V19.951a13.126,13.126,0,0,1,3.4-8.817m.963-.963a13.166,13.166,0,0,1,22,9.78v2.637" fill="none" stroke="#000" stroke-miterlimit="22.926" stroke-width="1.318" fill-rule="evenodd"/>
          <path id="Path_213277" data-name="Path 213277" d="M35.684,19.951c0-4.7-5.933-8.539-13.184-8.539S9.316,15.255,9.316,19.951" fill="none" stroke="#000" stroke-miterlimit="22.926" stroke-width="1.318" fill-rule="evenodd"/>
          <path id="Path_213278" data-name="Path 213278" d="M32.872,26.139A3.3,3.3,0,0,0,26.455,27.2" fill="none" stroke="#000" stroke-miterlimit="22.926" stroke-width="1.318" fill-rule="evenodd"/>
          <path id="Path_213279" data-name="Path 213279" d="M22.5,38.814c.227-.367,1.092-1.784,1.579-2.69,1.01-1.882,3.039-1.315,2.749.462a4.584,4.584,0,0,1-.839,1.788" fill="none" stroke="#000" stroke-miterlimit="22.926" stroke-width="1.318" fill-rule="evenodd"/>
        </g>
      </g>
    </g>
  </g>
</svg>
