<svg xmlns="http://www.w3.org/2000/svg" xmlns:xlink="http://www.w3.org/1999/xlink" width="400" height="375" viewBox="0 0 400 375">
  <defs>
    <clipPath id="clip-path">
      <rect id="Rectangle_339075" data-name="Rectangle 339075" width="400" height="302" transform="translate(0 0.333)" fill="#fed947" stroke="#707070" stroke-width="1"/>
    </clipPath>
    <clipPath id="clip-path-2">
      <rect id="Rectangle_339588" data-name="Rectangle 339588" width="400" height="375" transform="translate(-49 0)" fill="#fff" stroke="#707070" stroke-width="1"/>
    </clipPath>
    <clipPath id="clip-path-3">
      <path id="Path_212597" data-name="Path 212597" d="M110.261,25.045S105.246,36.9,93.044,29.25c0,0,3.247-8.011,9.446-8.012,2.218,0,4.812,1.026,7.771,3.807" transform="translate(-93.044 -21.238)" fill="none"/>
    </clipPath>
    <clipPath id="clip-path-4">
      <path id="Path_212599" data-name="Path 212599" d="M125.927,29.512c-12.054,4.287-14.12-6.962-14.12-6.962,2.032-2.193,3.866-3.042,5.488-3.042,5.565,0,8.632,10,8.632,10" transform="translate(-111.807 -19.508)" fill="none"/>
    </clipPath>
    <clipPath id="clip-path-5">
      <rect id="Rectangle_339585" data-name="Rectangle 339585" width="388.329" height="529.471" fill="none"/>
    </clipPath>
    <clipPath id="clip-path-6">
      <path id="Path_212669" data-name="Path 212669" d="M190.294,37.464c-9.6,7.745-15.888-3.474-15.888-3.474a14.147,14.147,0,0,1,7.362-2.447c6.064,0,8.526,5.922,8.526,5.922" transform="translate(-174.406 -31.542)" fill="none"/>
    </clipPath>
    <clipPath id="clip-path-7">
      <path id="Path_212671" data-name="Path 212671" d="M173.348,32.563s-2.064,10.386-10.6,5.283c0,0,1.787-6.386,6.762-6.387a8.093,8.093,0,0,1,3.837,1.1" transform="translate(-162.749 -31.459)" fill="none"/>
    </clipPath>
    <clipPath id="clip-path-9">
      <path id="Path_212674" data-name="Path 212674" d="M176.47,43.291c3.8,1.687,3.174,3.91-.27,4.4-2,.284-8.109-1.876-6.99-4.037.28-.543,1.586-1.217,3.466-1.217a9.354,9.354,0,0,1,3.794.853" transform="translate(-169.075 -42.438)" fill="none"/>
    </clipPath>
  </defs>
  <g id="_9" data-name="9" transform="translate(-180 -3214)">
    <g id="Mask_Group_589" data-name="Mask Group 589" transform="translate(180 3286.667)" clip-path="url(#clip-path)">
      <g id="Group_983929" data-name="Group 983929" transform="translate(-4)">
        <rect id="Rectangle_339062" data-name="Rectangle 339062" width="403" height="302" transform="translate(0 0.333)" fill="#fed947"/>
      </g>
    </g>
    <g id="_9-2" data-name="9" transform="translate(229 3214)" clip-path="url(#clip-path-2)">
      <g id="Group_984557" data-name="Group 984557" transform="translate(-50.333 8.529)">
        <g id="Group_984536" data-name="Group 984536" transform="translate(0 257.74)">
          <rect id="Rectangle_339583" data-name="Rectangle 339583" width="274.189" height="271.73" transform="translate(0)" fill="#6b8dfc"/>
          <path id="Rectangle_339584" data-name="Rectangle 339584" d="M0,0H245.849a139,139,0,0,1,139,139v17.153a0,0,0,0,1,0,0H0a0,0,0,0,1,0,0V0A0,0,0,0,1,0,0Z" transform="translate(0 115.578)" fill="#3c3fa7"/>
        </g>
        <g id="Group_984556" data-name="Group 984556" transform="translate(14.536 0)">
          <g id="Group_984539" data-name="Group 984539" transform="translate(127.951)">
            <g id="Group_984538" data-name="Group 984538">
              <path id="Path_212552" data-name="Path 212552" d="M46.739,195.874H175.311a1.436,1.436,0,0,0,1.423-1.451v-16.65a1.436,1.436,0,0,0-1.423-1.451H46.739a1.436,1.436,0,0,0-1.423,1.451v16.65a1.436,1.436,0,0,0,1.423,1.451m127.149-2.9H48.162v-13.75H173.888Z" transform="translate(19.164 79.47)" fill="#12263f"/>
              <path id="Path_212553" data-name="Path 212553" d="M91.918,442.479a1.436,1.436,0,0,0,1.423-1.451V189.251a1.423,1.423,0,1,0-2.846,0V441.028a1.436,1.436,0,0,0,1.423,1.451" transform="translate(38.272 84.643)" fill="#12263f"/>
              <path id="Path_212554" data-name="Path 212554" d="M62.958,366.326h83.015a2.177,2.177,0,0,0,0-4.352H62.958a2.177,2.177,0,0,0,0,4.352" transform="translate(25.724 163.145)" fill="#12263f"/>
              <path id="Path_212555" data-name="Path 212555" d="M106.288,343.348a1.4,1.4,0,0,0,.919-.344l48.35-41.721a1.47,1.47,0,0,0,.415-1.607,1.424,1.424,0,0,0-1.336-.952h-96.7a1.42,1.42,0,0,0-1.335.952,1.47,1.47,0,0,0,.415,1.607L105.369,343a1.4,1.4,0,0,0,.919.344m44.466-41.722L106.288,340l-44.466-38.37Z" transform="translate(23.902 134.637)" fill="#12263f"/>
              <path id="Path_212556" data-name="Path 212556" d="M80.143,198.446h62.505c19.137,0,34.649-15.816,34.649-35.326V136.372H45.494V163.12c0,19.511,15.512,35.326,34.649,35.326" transform="translate(18.347 61.464)" fill="#171962"/>
              <path id="Path_212557" data-name="Path 212557" d="M108.819,254.281l6.644,40.37,29.357-3.086-7.928-48.855Z" transform="translate(-39.28 109.391)" fill="#e5826e"/>
              <path id="Path_212558" data-name="Path 212558" d="M145.973,259.546l-31.5,12.531-3.088-18.771,31.469-12.971Z" transform="translate(-44.087 108.321)"/>
              <path id="Path_212559" data-name="Path 212559" d="M128.186,141.034l-.849.131c-14.314,2.2-24.309,16.809-22.324,32.641L121.489,305.17l52.687-8.083L157.7,165.723c-1.985-15.83-15.2-26.884-29.514-24.688" transform="translate(-62.863 63.44)" fill="#171962"/>
              <path id="Path_212560" data-name="Path 212560" d="M165.3,267.894l4.34,37.488H105.564l-.652-8.1c-.825-10.273,6.447-17.986,16.368-19.6l9.872.02,12.7,2.865Z" transform="translate(-58.448 120.742)" fill="#ebad23"/>
              <path id="Path_212561" data-name="Path 212561" d="M128.393,280.515l-7.082-7.487c-2.16-2.283-.259-5.427,3.507-5.8l10.457-1.039c3.371-.334,6.235,1.789,5.727,4.243L138.666,281.7Z" transform="translate(-52.004 119.957)" fill="#ffc849"/>
              <path id="Path_212562" data-name="Path 212562" d="M109.158,289.521h58.861a.647.647,0,0,0,0-1.294H109.158a.647.647,0,0,0,0,1.294" transform="translate(-62.694 129.906)"/>
              <path id="Path_212563" data-name="Path 212563" d="M136.107,281.055a.635.635,0,0,0,.559-.338.659.659,0,0,0-.179-.828l-7.383-5.594,12.264,5.352a.632.632,0,0,0,.834-.342.653.653,0,0,0-.336-.849l-17.213-7.509a.629.629,0,0,0-.8.273.655.655,0,0,0,.172.841l8.133,6.161-7.536-2.854a.628.628,0,0,0-.814.382.649.649,0,0,0,.374.831l11.7,4.433a.622.622,0,0,0,.221.041" transform="translate(-57.984 122.094)"/>
              <path id="Path_212564" data-name="Path 212564" d="M106.13,250.163a.79.79,0,0,0,.129-.012l52.477-9.762a.726.726,0,0,0-.256-1.429L106,248.724a.726.726,0,0,0-.572.844.716.716,0,0,0,.7.595" transform="translate(-48.944 107.697)"/>
              <path id="Path_212565" data-name="Path 212565" d="M101.612,195.047h0a.719.719,0,0,0,.711-.725l-.016-36.33a.712.712,0,1,0-1.423,0l.016,36.33a.719.719,0,0,0,.711.725" transform="translate(14.505 70.881)"/>
              <path id="Path_212566" data-name="Path 212566" d="M117.156,191.3h.065a.722.722,0,0,0,.645-.788l-3.173-36.028a.712.712,0,1,0-1.417.131l3.173,36.028a.714.714,0,0,0,.707.659" transform="translate(-18.667 69.331)"/>
              <path id="Path_212567" data-name="Path 212567" d="M103.169,252.985l1.214,37.9-29.17,4.644-1.577-45.842Z" transform="translate(51.218 112.538)" fill="#e5826e"/>
              <path id="Path_212568" data-name="Path 212568" d="M108.183,254.229l-33.107-3.693.692,20.1,32.873-2.122Z" transform="translate(47.949 111.853)"/>
              <path id="Path_212569" data-name="Path 212569" d="M91.523,137.482h0c14.687.007,26.588,12.153,26.583,27.127l-.061,143.984-53.191-.028.06-143.98c.007-14.976,11.921-27.111,26.61-27.1" transform="translate(49.991 61.964)" fill="#171962"/>
              <path id="Path_212570" data-name="Path 212570" d="M118.508,267.894l8.126,37.488h-59l-.6-8.1a17.976,17.976,0,0,1,15.07-19.6l9.088.02,11.695,2.865Z" transform="translate(38.437 120.742)" fill="#ffc849"/>
              <path id="Path_212571" data-name="Path 212571" d="M93.856,280.515l-8.084-7.487c-2.464-2.283-.3-5.427,4-5.8l11.937-1.039c3.848-.334,7.117,1.789,6.537,4.243L105.583,281.7Z" transform="translate(31.492 119.957)" fill="#ffc849"/>
              <path id="Path_212572" data-name="Path 212572" d="M71.876,289.521h52.9a.647.647,0,0,0,0-1.294h-52.9a.647.647,0,0,0,0,1.294" transform="translate(33.601 129.906)"/>
              <path id="Path_212573" data-name="Path 212573" d="M102.636,281.055a.631.631,0,0,0,.572-.369.652.652,0,0,0-.226-.821l-8.508-5.646,14.226,5.437a.631.631,0,0,0,.817-.379.649.649,0,0,0-.371-.833L89.5,270.936a.624.624,0,0,0-.788.313.653.653,0,0,0,.221.834l9.329,6.19-8.788-2.914a.633.633,0,0,0-.8.415.652.652,0,0,0,.408.815l13.36,4.433a.619.619,0,0,0,.2.032" transform="translate(24.692 122.094)"/>
              <path id="Path_212574" data-name="Path 212574" d="M65.031,248.028h.01l53.3-.738a.718.718,0,0,0,.7-.736.691.691,0,0,0-.721-.715l-53.3.738a.726.726,0,0,0,.01,1.451" transform="translate(49.818 110.801)"/>
              <path id="Path_212575" data-name="Path 212575" d="M83.746,198.138a.719.719,0,0,0,.711-.725l.014-32.6a26.472,26.472,0,0,1,7.591-18.658,25.46,25.46,0,0,1,18.291-7.719h.016a.719.719,0,0,0,.711-.725.758.758,0,0,0-.727-.725,26.859,26.859,0,0,0-19.3,8.144,27.928,27.928,0,0,0-8.008,19.683l-.014,32.6a.719.719,0,0,0,.711.725" transform="translate(31.146 61.739)"/>
              <path id="Path_212576" data-name="Path 212576" d="M65.021,186.215h.007a.719.719,0,0,0,.7-.733c0-.2-.188-20.22,0-23.165a.721.721,0,0,0-.664-.77.711.711,0,0,0-.756.677c-.191,3-.01,22.447,0,23.272a.719.719,0,0,0,.711.718" transform="translate(103.262 72.809)"/>
              <path id="Path_212577" data-name="Path 212577" d="M130.051,23.651c-1.648-4.016-5.771-6.049-9.206-4.544s-4.886,5.983-3.237,10,5.771,6.049,9.208,4.544,4.886-5.983,3.236-10" transform="translate(-36.73 8.388)" fill="#c95b3d"/>
              <path id="Path_212578" data-name="Path 212578" d="M125.648,27.97a.957.957,0,0,0,.707-.315,1,1,0,0,0-.057-1.384L121,21.294a.953.953,0,0,0-1.357.057.994.994,0,0,0,.055,1.384l5.3,4.977a.948.948,0,0,0,.65.258" transform="translate(-36.109 9.481)"/>
              <path id="Path_212579" data-name="Path 212579" d="M121.709,28.007a.937.937,0,0,0,.663-.273l2.459-2.405a.986.986,0,0,0,.027-1.381.939.939,0,0,0-1.355-.029l-2.457,2.4a.988.988,0,0,0-.028,1.383.944.944,0,0,0,.692.3" transform="translate(-36.562 10.657)"/>
              <path id="Path_212580" data-name="Path 212580" d="M108.924,33.556,119.1,60.743l-25.339,3.5L83.807,39.422Z" transform="translate(22.025 15.124)" fill="#c95b3d"/>
              <path id="Path_212581" data-name="Path 212581" d="M116.708,39.22c-4.886,3.585-13.939,9.411-22.93,10.937L89.471,39.423l25.117-5.867Z" transform="translate(16.362 15.124)"/>
              <path id="Path_212582" data-name="Path 212582" d="M137.409,30.087c0-16.21-11.905-29.352-26.591-29.352S84.227,9.729,84.227,30.087c0,16.21,8.287,29.8,22.973,29.8s30.21-13.59,30.21-29.8" transform="translate(3.122 0.331)" fill="#c95b3d"/>
              <path id="Path_212583" data-name="Path 212583" d="M110.1,0c14.935,0,27.069,14.4,27.833,30.677-6.107-3.464-18.962-12.035-19.492-23.071A61.994,61.994,0,0,1,83.354,21.684C86.846,7.751,97.51,0,110.1,0" transform="translate(3.843)"/>
              <path id="Path_212584" data-name="Path 212584" d="M106.218,44.97s-38.843-4.3-56.027,12.673C23.774,83.733-31.217,160.575,23.129,170.15c15.695,2.765,39.973,0,39.973,0H172.995s4.765,16.212,37.807,13.891,26.308-46.8,18.777-62.987-44.013-60.834-55.552-70.1-48.409-5.606-48.409-5.606Z" transform="translate(0 20.049)" fill="#e1e8ff"/>
              <g id="Group_984537" data-name="Group 984537" transform="translate(181.033 123.616)">
                <path id="Path_212585" data-name="Path 212585" d="M50.218,133.726a.72.72,0,0,0,.286-.061.73.73,0,0,0,.364-.956C43.615,115.9,33.7,105.684,26.656,100.077,19,93.98,13.14,91.9,12.9,91.816a.714.714,0,0,0-.9.453.729.729,0,0,0,.441.921c.233.081,23.5,8.521,37.132,40.1a.71.71,0,0,0,.652.434" transform="translate(-11.955 -91.778)"/>
                <path id="Path_212586" data-name="Path 212586" d="M20.369,115.595a.713.713,0,0,0,.692-.554.727.727,0,0,0-.526-.875L9.248,111.4a.718.718,0,0,0-.858.537.727.727,0,0,0,.526.875L20.2,115.576a.733.733,0,0,0,.166.019" transform="translate(22.994 -82.942)"/>
              </g>
              <path id="Path_212587" data-name="Path 212587" d="M125.656,29.512s-5.014-16.683-13.849-6.962c0,0,2.028,11.247,13.849,6.962" transform="translate(-24.368 8.792)" fill="#fff"/>
              <path id="Path_212588" data-name="Path 212588" d="M93.044,29.251s5.868-14.767,16.887-4.207c0,0-4.919,11.86-16.887,4.207" transform="translate(18.055 9.572)" fill="#fff"/>
              <path id="Path_212589" data-name="Path 212589" d="M113,30.117a.934.934,0,0,0,.484-.133.989.989,0,0,0,.344-1.339L111.2,24.058a.957.957,0,0,0-.814-.485.991.991,0,0,0-.828.46l-2.344,3.823a.987.987,0,0,0,.306,1.348.945.945,0,0,0,1.32-.312l1.5-2.447,1.824,3.187a.953.953,0,0,0,.828.486" transform="translate(-5.935 10.625)"/>
              <path id="Path_212590" data-name="Path 212590" d="M112.188,36.2a16.217,16.217,0,0,0,3.9-.464.982.982,0,0,0,.682-1.2.966.966,0,0,0-1.174-.7c-.071.017-7.122,1.845-10.461-2.621a.942.942,0,0,0-1.343-.186.988.988,0,0,0-.182,1.371c2.312,3.1,5.857,3.794,8.579,3.794" transform="translate(-3.57 13.895)"/>
              <path id="Path_212591" data-name="Path 212591" d="M106,20.308a.951.951,0,0,0,.774-.4.991.991,0,0,0-.208-1.367c-6.47-4.818-12.025-2.672-12.261-2.576a.984.984,0,0,0-.539,1.269.951.951,0,0,0,1.241.553c.195-.075,4.846-1.824,10.427,2.334a.943.943,0,0,0,.566.189" transform="translate(20.099 6.943)"/>
              <path id="Path_212592" data-name="Path 212592" d="M113.19,19.294a.951.951,0,0,0,.566-.187c5.632-4.194,10.376-2.353,10.423-2.337a.949.949,0,0,0,1.245-.551.985.985,0,0,0-.539-1.269c-.235-.094-5.791-2.24-12.261,2.576a.992.992,0,0,0-.208,1.368.949.949,0,0,0,.774.4" transform="translate(-24.806 6.487)"/>
              <path id="Path_212593" data-name="Path 212593" d="M27.461,15.989,7.466,15.106S7.307,15.18,0,15.18C2.686,9.5,5.662-1.69,24.279.216,32.9,1.1,37.3,10.979,39.1,15.989a54.552,54.552,0,0,1-11.639,0" transform="matrix(-0.998, 0.07, -0.07, -0.998, 142.228, 76.636)" fill="#c95b3d"/>
              <path id="Path_212594" data-name="Path 212594" d="M49.83,144.569a.719.719,0,0,0,.711-.718l.384-39.353a.72.72,0,0,0-.706-.733h-.006a.717.717,0,0,0-.711.718l-.384,39.353a.719.719,0,0,0,.7.733Z" transform="translate(125.544 46.769)"/>
              <path id="Path_212595" data-name="Path 212595" d="M124.733,145.4a.712.712,0,0,0,.667-.474l15.174-42.033a.726.726,0,0,0-.421-.93.705.705,0,0,0-.914.429l-15.174,42.031a.729.729,0,0,0,.421.931.7.7,0,0,0,.246.045" transform="translate(-56.711 45.935)"/>
            </g>
          </g>
          <g id="Group_984541" data-name="Group 984541" transform="translate(238.837 30.81)">
            <g id="Group_984540" data-name="Group 984540" clip-path="url(#clip-path-3)">
              <path id="Path_212596" data-name="Path 212596" d="M96.312,27.116a7.077,7.077,0,0,0,14.155,0c-.2-8.149-7.872-7.077-7.078-7.077a7.077,7.077,0,0,0-7.077,7.077" transform="translate(-97.991 -21.799)"/>
            </g>
          </g>
          <g id="Group_984543" data-name="Group 984543" transform="translate(215.234 28.3)">
            <g id="Group_984542" data-name="Group 984542" clip-path="url(#clip-path-4)">
              <path id="Path_212598" data-name="Path 212598" d="M114.031,25.626a7.077,7.077,0,1,0,7.077-7.077,7.077,7.077,0,0,0-7.077,7.077" transform="translate(-117.292 -19.94)"/>
            </g>
          </g>
          <g id="Group_984545" data-name="Group 984545">
            <g id="Group_984544" data-name="Group 984544" clip-path="url(#clip-path-5)">
              <path id="Path_212600" data-name="Path 212600" d="M80.056,26.041c1.649-4.016,5.771-6.049,9.208-4.544s4.885,5.983,3.237,10-5.771,6.049-9.208,4.544-4.886-5.983-3.237-10" transform="translate(182.205 9.465)" fill="#c95b3d"/>
              <path id="Path_212601" data-name="Path 212601" d="M82.5,30.361a.943.943,0,0,0,.65-.26l5.3-4.979A.991.991,0,0,0,88.5,23.74a.946.946,0,0,0-1.356-.055l-5.3,4.979a.991.991,0,0,0-.054,1.383.936.936,0,0,0,.7.315" transform="translate(183.544 10.558)"/>
              <path id="Path_212602" data-name="Path 212602" d="M85.6,30.4a.95.95,0,0,0,.692-.3.992.992,0,0,0-.026-1.384l-2.456-2.405a.947.947,0,0,0-1.357.026.994.994,0,0,0,.026,1.384l2.456,2.407a.945.945,0,0,0,.666.273" transform="translate(184.839 11.734)"/>
              <path id="Path_212603" data-name="Path 212603" d="M46.174,169.457l58.443-30.06a1.685,1.685,0,0,0,.906-1.5V46.3a1.65,1.65,0,0,0-2.392-1.5L44.689,74.859a1.685,1.685,0,0,0-.908,1.5v91.595a1.651,1.651,0,0,0,2.393,1.5" transform="translate(220.509 20.109)" fill="#fc5f65"/>
              <path id="Path_212604" data-name="Path 212604" d="M146.708,169.457,88.265,139.4a1.686,1.686,0,0,1-.906-1.5V46.3a1.651,1.651,0,0,1,2.393-1.5L148.2,74.859a1.686,1.686,0,0,1,.906,1.5v91.595a1.651,1.651,0,0,1-2.393,1.5" transform="translate(114.924 20.109)" fill="#fc5f65"/>
              <path id="Path_212605" data-name="Path 212605" d="M87.571,159.042a.719.719,0,0,0,.711-.725V66.722a.712.712,0,1,0-1.423,0v91.595a.719.719,0,0,0,.711.725" transform="translate(176.453 29.745)"/>
              <path id="Path_212606" data-name="Path 212606" d="M39.3,85.788l14.4-.254a4.256,4.256,0,0,1,4.227,4.52,4.556,4.556,0,0,1-4.654,4.529l-14.344-.82a3.787,3.787,0,0,1-3.441-4.269A4.021,4.021,0,0,1,39.3,85.788" transform="translate(279.935 38.551)" fill="#c95b3d"/>
              <path id="Path_212607" data-name="Path 212607" d="M38.35,99.6l17.174.731a4.174,4.174,0,0,0,4.1-3.186l.108-.4a4.032,4.032,0,0,0-3.581-5.269L38.868,91.15a4.241,4.241,0,0,0-4.143,3.857,3.979,3.979,0,0,0,3.626,4.6" transform="translate(279.069 41.082)" fill="#c95b3d"/>
              <path id="Path_212608" data-name="Path 212608" d="M36.691,100.188h0a3.65,3.65,0,0,1,3.6-3.147l11.45.045a3.655,3.655,0,0,1,3.6,3.321l.094.939a3.665,3.665,0,0,1-3.912,4.065l-11.544-.985a3.683,3.683,0,0,1-3.285-4.238" transform="translate(280.727 43.737)" fill="#c95b3d"/>
              <path id="Path_212609" data-name="Path 212609" d="M37.965,104.558h0a3.153,3.153,0,0,1,2.961-2.307l9.445.229a2.746,2.746,0,0,1,2.543,3.129l-.083,1.069a3.194,3.194,0,0,1-3.4,3.067l-9.363-1.3a2.887,2.887,0,0,1-2.1-3.889" transform="translate(281.616 46.085)" fill="#c95b3d"/>
              <path id="Path_212610" data-name="Path 212610" d="M59.7,91.508l-.009-.017a.345.345,0,0,0-.465-.165,6.155,6.155,0,0,1-2.446.418l-15.2-.691a5.908,5.908,0,0,0-3.941,1.591,4.041,4.041,0,0,0-.972,3.107c.3,4.68,6.8,4.6,7.207,4.59l9.051.557c.682.041,4.391.089,5.344.033a.355.355,0,0,0-.04-.709c-.936.054-4.592.006-5.263-.033L43.9,99.63h-.034c-.063,0-6.237.194-6.5-3.926a3.344,3.344,0,0,1,.787-2.576,5.257,5.257,0,0,1,3.418-1.365l15.174.691a6.786,6.786,0,0,0,2.786-.489.359.359,0,0,0,.169-.457" transform="translate(276.451 41.038)"/>
              <path id="Path_212611" data-name="Path 212611" d="M55.553,105.384a.348.348,0,0,0-.342-.218c-.925.054-6.477-.328-7.4-.431-.865-.1-3.7-.3-3.823-.308-.053,0-5.327-.445-5.094-3.929a2.707,2.707,0,0,1,2.132-2.488,6.608,6.608,0,0,1,2.116-.28.356.356,0,0,0,.04-.711c-1.638-.1-4.785.5-4.983,3.429-.225,3.353,3.655,4.532,5.74,4.687.03,0,2.945.21,3.8.306.869.1,6.508.492,7.517.432a.353.353,0,0,0,.329-.374.393.393,0,0,0-.027-.117" transform="translate(278.413 43.724)"/>
              <path id="Path_212612" data-name="Path 212612" d="M57.681,85.389a.347.347,0,0,0-.32-.218c-.091,0-9.249-.058-12.975-.045-3.927.014-6.295,1.738-6.5,4.729-.24,3.579,3.277,4.557,3.313,4.567a.349.349,0,0,0,.425-.255.354.354,0,0,0-.249-.432A3.761,3.761,0,0,1,38.586,89.9c.175-2.61,2.235-4.053,5.8-4.066,3.724-.013,12.877.044,12.968.045a.352.352,0,0,0,.351-.354.379.379,0,0,0-.027-.139" transform="translate(276.724 38.366)"/>
              <path id="Path_212613" data-name="Path 212613" d="M143.085,82.75l-13.774-.244a4.074,4.074,0,0,0-4.044,4.326,4.36,4.36,0,0,0,4.452,4.333l13.725-.783a3.625,3.625,0,0,0,3.291-4.087,3.847,3.847,0,0,0-3.651-3.546" transform="translate(63.333 37.186)" fill="#c95b3d"/>
              <path id="Path_212614" data-name="Path 212614" d="M144.777,95.968l-16.433.7a3.992,3.992,0,0,1-3.922-3.048l-.1-.38a3.856,3.856,0,0,1,3.426-5.041l16.536-.319a4.054,4.054,0,0,1,3.964,3.691,3.806,3.806,0,0,1-3.468,4.4" transform="translate(63.383 39.608)" fill="#c95b3d"/>
              <path id="Path_212615" data-name="Path 212615" d="M144.542,96.526h0a3.494,3.494,0,0,0-3.446-3.012l-10.955.044a3.5,3.5,0,0,0-3.439,3.177l-.091.9a3.5,3.5,0,0,0,3.742,3.888l11.046-.941a3.524,3.524,0,0,0,3.143-4.055" transform="translate(63.619 42.147)" fill="#c95b3d"/>
              <path id="Path_212616" data-name="Path 212616" d="M142.277,100.708h0a3.014,3.014,0,0,0-2.832-2.208l-9.038.219a2.627,2.627,0,0,0-2.432,2.994l.08,1.024a3.055,3.055,0,0,0,3.251,2.933l8.959-1.243a2.758,2.758,0,0,0,2.012-3.72" transform="translate(63.812 44.395)" fill="#c95b3d"/>
              <path id="Path_212617" data-name="Path 212617" d="M123.747,88.221l.007-.017a.333.333,0,0,1,.447-.158,5.893,5.893,0,0,0,2.339.4l14.541-.66a5.64,5.64,0,0,1,3.771,1.522,3.865,3.865,0,0,1,.929,2.974c-.29,4.478-6.507,4.4-6.9,4.391l-8.66.532c-.652.039-4.2.086-5.112.033a.34.34,0,0,1-.314-.36.337.337,0,0,1,.353-.321c.9.052,4.393.006,5.034-.032l8.674-.534h.033c.06,0,5.968.186,6.224-3.756a3.209,3.209,0,0,0-.754-2.466,5.046,5.046,0,0,0-3.27-1.306l-14.518.66a6.454,6.454,0,0,1-2.665-.467.341.341,0,0,1-.162-.437" transform="translate(66.494 39.566)"/>
              <path id="Path_212618" data-name="Path 212618" d="M126.1,101.5a.333.333,0,0,1,.327-.207c.884.051,6.2-.313,7.082-.412.828-.093,3.543-.287,3.658-.294.05,0,5.1-.427,4.873-3.76A2.59,2.59,0,0,0,140,94.445a6.332,6.332,0,0,0-2.025-.268.341.341,0,0,1-.038-.68c1.567-.091,4.579.477,4.767,3.282.215,3.208-3.5,4.336-5.491,4.484-.028,0-2.817.2-3.633.293-.832.093-6.228.47-7.193.415a.339.339,0,0,1-.314-.36.366.366,0,0,1,.026-.112" transform="translate(66.231 42.135)"/>
              <path id="Path_212619" data-name="Path 212619" d="M124.753,82.368a.335.335,0,0,1,.306-.209c.088,0,8.849-.055,12.415-.042,3.758.013,6.023,1.663,6.215,4.525a4.33,4.33,0,0,1-3.17,4.37.335.335,0,0,1-.407-.244.341.341,0,0,1,.239-.415,3.6,3.6,0,0,0,2.672-3.664c-.168-2.5-2.139-3.879-5.552-3.891-3.562-.013-12.32.042-12.408.042a.337.337,0,0,1-.336-.338.343.343,0,0,1,.026-.133" transform="translate(67.154 37.01)"/>
              <path id="Path_212620" data-name="Path 212620" d="M147.9,119.807a.69.69,0,0,0,.38-.112L191.477,92a.732.732,0,0,0,.222-1,.7.7,0,0,0-.98-.228l-43.194,27.7a.735.735,0,0,0-.222,1,.709.709,0,0,0,.6.338" transform="translate(-12.923 40.861)"/>
              <path id="Path_212621" data-name="Path 212621" d="M87.041,113.991S96.953,99.829,106.1,98.412c5.468-.847,9.134-1.516,11.2-1.916a2.98,2.98,0,0,0,2.13-2.978,2.237,2.237,0,0,0-1.8-2.463,39.972,39.972,0,0,0-17.618,2.733c-8.1,3.328-19.232,16.49-19.232,16.49Z" transform="translate(153.949 40.994)" fill="#ed8c6b"/>
              <path id="Path_212622" data-name="Path 212622" d="M85.068,107.195s8.375-11.936,17.526-13.354c5.888-.912,9.684-1.618,11.644-2a2.342,2.342,0,0,0,1.668-2.336,2.76,2.76,0,0,0-2.247-3.049,39.907,39.907,0,0,0-17.153,2.765c-8.1,3.326-19.232,16.489-19.232,16.489Z" transform="translate(162.468 38.934)" fill="#ed8c6b"/>
              <path id="Path_212623" data-name="Path 212623" d="M83.472,103.639S91.848,91.7,101,90.285c5.892-.913,9.689-1.618,11.646-2a2.339,2.339,0,0,0,1.665-2.331,2.765,2.765,0,0,0-2.25-3.054A39.916,39.916,0,0,0,94.91,85.66c-8.1,3.326-19.232,16.489-19.232,16.489Z" transform="translate(166.335 37.331)" fill="#ed8c6b"/>
              <path id="Path_212624" data-name="Path 212624" d="M85.027,119.578s17.822-29.2,26.191-32.145c5.391-1.895,10.65-2.957,12.432-3.666a2.455,2.455,0,0,0,1.3-2.513c-.124-1.562-1.172-2.724-2.4-2.659-3.883.207-12.2,1.15-18.781,5.349-7.189,4.584-24.922,29.432-24.922,29.432Z" transform="translate(151.172 35.423)" fill="#ed8c6b"/>
              <path id="Path_212625" data-name="Path 212625" d="M119.32,90.374,123.4,80.95a4.322,4.322,0,0,0-1.343-5.265,2.447,2.447,0,0,0-3.453,1.056c-1.4,2.378-19.037,26.473-19.037,26.473l-7.41,16.107L116.844,102.8Z" transform="translate(133.431 33.952)" fill="#ed8c6b"/>
              <path id="Path_212626" data-name="Path 212626" d="M81.61,94.022a.473.473,0,0,0,0,.2c.046.2.2.3.356.232a37.32,37.32,0,0,1,16.277-3.212c.157.01.295-.151.307-.355a.338.338,0,0,0-.262-.39A37.775,37.775,0,0,0,81.8,93.752a.371.371,0,0,0-.192.27" transform="translate(173.663 40.775)"/>
              <path id="Path_212627" data-name="Path 212627" d="M77.32,91.626a.478.478,0,0,0,.028.277.285.285,0,0,0,.425.154,23.117,23.117,0,0,1,4.115-2.3,41.633,41.633,0,0,1,17.386-2.916,2.338,2.338,0,0,1,1.35.75.273.273,0,0,0,.441-.045.455.455,0,0,0-.034-.547,2.9,2.9,0,0,0-1.725-.934A42.148,42.148,0,0,0,81.7,89.017a23.681,23.681,0,0,0-4.22,2.359.39.39,0,0,0-.155.251" transform="translate(177.181 38.765)"/>
              <path id="Path_212628" data-name="Path 212628" d="M84.06,88.265a.376.376,0,0,0,.041.252.279.279,0,0,0,.4.116,25.209,25.209,0,0,1,5.7-3.106,37.509,37.509,0,0,1,8.4-1.773.308.308,0,0,0,.248-.361.316.316,0,0,0-.329-.3,37.974,37.974,0,0,0-8.512,1.8,25.814,25.814,0,0,0-5.821,3.17.315.315,0,0,0-.125.2" transform="translate(169.878 37.452)"/>
              <path id="Path_212629" data-name="Path 212629" d="M92.31,85.358a.463.463,0,0,0,.05.319.275.275,0,0,0,.437.086c.891-.8,5.959-3.749,6.01-3.779a.435.435,0,0,0,.152-.516.289.289,0,0,0-.415-.187c-.211.122-5.174,3.01-6.113,3.853a.408.408,0,0,0-.121.225" transform="translate(158.006 36.617)"/>
              <path id="Path_212630" data-name="Path 212630" d="M95.371,95.483c0,.052,0,.1.007.157.009.107.155.2.33.213s.307-.068.3-.174c0-.048-.006-.1-.007-.147-.074-3.411,5.98-6.409,6.042-6.44.127-.061.132-.183.013-.271a.476.476,0,0,0-.445-.048A19.871,19.871,0,0,0,98.4,90.812c-1.417,1.114-3.071,2.816-3.031,4.671" transform="translate(150.484 39.995)"/>
              <path id="Path_212631" data-name="Path 212631" d="M99.026,210.329l7.392,98.943-1.407,14.353,30.306,32.564a13.66,13.66,0,0,0,16.94,2.533,13.053,13.053,0,0,0,4.465-18.008L137.6,309.277l-3.149-92.146Z" transform="translate(88.798 94.797)" fill="#ed8c6b"/>
              <path id="Path_212632" data-name="Path 212632" d="M148.784,233.052l.571,16.714L116.736,257.3l-1.753-23.455Z" transform="translate(75.364 105.038)"/>
              <path id="Path_212633" data-name="Path 212633" d="M136.915,279.695l4.439,7.3c-5.547-.954-17.066-.5-26.053,16.117l-5.316-4.69c.569-1.694,8.223-20.555,26.93-18.729" transform="translate(90.477 126.005)" fill="#d7e5ff"/>
              <path id="Path_212634" data-name="Path 212634" d="M99.025,303.412a25.323,25.323,0,0,1,8.665-8.133c8.705-5.044,15.909-4.462,20.747-2.811l7.15,11.756a13.051,13.051,0,0,1-4.466,18.006,13.658,13.658,0,0,1-16.938-2.532Z" transform="translate(109.934 131.287)" fill="#d7e5ff"/>
              <path id="Path_212635" data-name="Path 212635" d="M106.585,284.524l43.093,42.214a13.677,13.677,0,0,1-13.341-3.989L106.03,290.185Z" transform="translate(87.781 128.237)" fill="#d7e5ff"/>
              <path id="Path_212636" data-name="Path 212636" d="M117.816,297.447c30.147-3.585,71.733-8.929,71.733-8.929s-4.031-81.843-18.745-123.4c-9.011-25.448-38.441-35.329-63.17-25.508-.033,38.155,10.465,157.054,10.182,157.836" transform="translate(45.627 61.239)" fill="#ffb6c8"/>
              <path id="Path_212637" data-name="Path 212637" d="M161.2,188.137h134.44a1.437,1.437,0,0,0,1.423-1.451v-17.41a1.436,1.436,0,0,0-1.423-1.451H161.2a1.436,1.436,0,0,0-1.423,1.451v17.41a1.437,1.437,0,0,0,1.423,1.451m133.017-2.9H162.622V170.727H294.216Z" transform="translate(-136.079 75.64)"/>
              <path id="Path_212638" data-name="Path 212638" d="M208.44,446a1.436,1.436,0,0,0,1.423-1.451V181.277a1.423,1.423,0,1,0-2.846,0v263.27A1.436,1.436,0,0,0,208.44,446" transform="translate(-116.099 81.049)"/>
              <path id="Path_212639" data-name="Path 212639" d="M178.149,366.326h86.8a2.177,2.177,0,0,0,0-4.352h-86.8a2.177,2.177,0,0,0,0,4.352" transform="translate(-129.211 163.145)"/>
              <path id="Path_212640" data-name="Path 212640" d="M223.467,342.341a1.413,1.413,0,0,0,.921-.342l50.556-43.626a1.47,1.47,0,0,0,.415-1.607,1.424,1.424,0,0,0-1.336-.952H172.909a1.423,1.423,0,0,0-1.336.952,1.472,1.472,0,0,0,.415,1.607L222.548,342a1.409,1.409,0,0,0,.919.342m46.673-43.626L223.467,338.99l-46.674-40.275Z" transform="translate(-131.126 133.326)"/>
              <path id="Path_212641" data-name="Path 212641" d="M179.513,34.117s7.335-16.164-14.726-18.275Z" transform="translate(-26.831 7.14)" fill="#3c3fa7"/>
              <path id="Path_212642" data-name="Path 212642" d="M253.764,56.58,238.288,56.3c-15.941,7.309-35.649,57.286-35.649,57.286l23.324,16.348,31.652-46.71Z" transform="translate(-157.623 25.375)" fill="#6b8dfc"/>
              <path id="Path_212643" data-name="Path 212643" d="M120.7,60.069S157.029,63.862,168,81.723s29.113,60.162,29.113,60.162l28.8-40.021,31.752,24.809s-29.754,38.392-40.225,51.175-22.4,23.967-43.426,8.755-44.9-67.91-44.9-67.91l-24.093-5.855L90.6,56.109Z" transform="translate(1.739 25.289)" fill="#6b8dfc"/>
              <path id="Path_212644" data-name="Path 212644" d="M204.757,197.295,160.122,307.7l47.5,50.943,6.571-4.773a14.665,14.665,0,0,0,3.7-19.638l-19.248-30.475,33.289-84.911Z" transform="translate(-71.445 88.922)" fill="#ed8c6b"/>
              <path id="Path_212645" data-name="Path 212645" d="M175.924,231.881l35.708,1.365L199.8,263.425l-31.416-12.894Z" transform="translate(-62.897 104.511)"/>
              <path id="Path_212646" data-name="Path 212646" d="M198.864,299.761c29.71,7.8,46.464,12.2,77.1,19.621L309.3,189.564a35.6,35.6,0,0,0-8.473-32.742c-8.074-8.456-56.119-15.167-68.352-17.342,6.309-11.751-1.578-27.276-13.271-33.388s-76.1-3.171-76.1-3.171-19.6,51.007-11.46,72.268,27.674,27.671,50.042,28.556l49.948,1.979s-17.529,63.439-32.769,94.038" transform="translate(-106.523 46.068)" fill="#ffb6c8"/>
              <path id="Path_212647" data-name="Path 212647" d="M178.409,56.493s27.1,2.856,38.767,5.108l1.544,18.115-29.276-1.024L177.016,65.4Z" transform="translate(-82.268 25.462)" fill="#ed8c6b"/>
              <path id="Path_212648" data-name="Path 212648" d="M211.391,57.1c.838-1.3-5.332,19.258-5.332,19.258l-24.222-2.8,10.436-31.605Z" transform="translate(-81.877 18.911)" fill="#ed8c6b"/>
              <path id="Path_212649" data-name="Path 212649" d="M183.01,42.932l17.334,13.731c.4-.618-.788,3.711-2.143,8.42l-16.363-16.8Z" transform="translate(-70.831 19.35)"/>
              <path id="Path_212650" data-name="Path 212650" d="M196.618,17.364s16.388,8.416,14.9,28.432-6.379,25.93-25.964,23.95-22.118-17.088-22.118-17.088l3.778-19.538,24.041-16.036Z" transform="translate(-55.85 7.7)" fill="#ed8c6b"/>
              <path id="Path_212651" data-name="Path 212651" d="M289.367,65.04c8.56,31.139,6.412,69.72-11.121,96.4-54.2,2.047-80.366,1.98-109.292,26.761,3.765-14.018,31.209-38.944,34.974-52.962,10.5-3.5,16.738-15.428,21.379-33.08,2.86-10.876,2.526-34.035,1.67-45.554,2.482-1.554,16.018-1.071,16.4.342,0,0,6.113,19.35,25.106,20.68,16.6,1.163,10.575-16.251,10.575-16.251s10.061,2.758,10.312,3.669" transform="translate(-146.31 25.076)"/>
              <path id="Path_212652" data-name="Path 212652" d="M289.028,56.338s-28.172-2.864-39.649,19.541-36.022,78.72-32.882,97.17,29.285,22.75,39.886-2.24S268.61,107.7,268.61,107.7Z" transform="translate(-208.362 25.338)" fill="#6b8dfc"/>
              <path id="Path_212653" data-name="Path 212653" d="M259.863,107.1l-26.287,54.631L220.69,112.121l21.736-35.76Z" transform="translate(-185.555 34.416)" fill="#6b8dfc"/>
              <path id="Path_212654" data-name="Path 212654" d="M132.328,129.537a.708.708,0,0,0,.582-.308L143.1,114.457a.736.736,0,0,0-.172-1.011.707.707,0,0,0-.992.176l-10.188,14.773a.736.736,0,0,0,.172,1.011.7.7,0,0,0,.41.132" transform="translate(57.823 51.072)"/>
              <path id="Path_212655" data-name="Path 212655" d="M189.99,37.465S185.683,26.9,174.4,33.99c0,0,6.165,11.221,15.585,3.476" transform="translate(-49.823 14.216)" fill="#fff"/>
              <path id="Path_212656" data-name="Path 212656" d="M162.748,37.846s2.624-9.567,10.4-5.283c0,0-2.026,10.386-10.4,5.283" transform="translate(-16.391 14.179)" fill="#fff"/>
              <path id="Path_212657" data-name="Path 212657" d="M169.161,42.448a.943.943,0,0,0,.753-.376l4.26-5.6a.991.991,0,0,0,.1-1.023.95.95,0,0,0-.855-.544h-5.5a.971.971,0,0,0,0,1.942h3.552l-3.068,4.036a.985.985,0,0,0,.169,1.364.94.94,0,0,0,.583.2" transform="translate(-23.629 15.731)"/>
              <path id="Path_212658" data-name="Path 212658" d="M175.523,28.066a.953.953,0,0,0,.356-.07c4.788-1.967,8.173-.9,8.209-.888a.953.953,0,0,0,1.2-.622.973.973,0,0,0-.6-1.223c-.164-.055-4.037-1.32-9.518.931a.977.977,0,0,0-.528,1.262.953.953,0,0,0,.884.609" transform="translate(-45.401 11.204)"/>
              <path id="Path_212659" data-name="Path 212659" d="M166.494,27.342a.938.938,0,0,0,.616-.231c.094-.08,2.23-1.877,4.585-.894a.94.94,0,0,0,1.242-.527.976.976,0,0,0-.518-1.268c-3.441-1.448-6.417,1.1-6.544,1.21a.984.984,0,0,0-.1,1.369.942.942,0,0,0,.723.339" transform="translate(-20.231 10.808)"/>
              <path id="Path_212660" data-name="Path 212660" d="M198.955,32.614s21.262-3.35,16.351-16.119c0,0-14.1-4.638-26.745,2.192S166.691,44.38,185.1,60.739l1.666-11.007s13.57.5,12.193-17.118" transform="translate(-76.324 6.741)" fill="#3c3fa7"/>
              <path id="Path_212661" data-name="Path 212661" d="M182.5,288.252l-2.184-6.157c7.752-7.9,17.6-10.075,21.822-10.661l3.867,6.123c-9.432-1.394-23.5,10.695-23.5,10.695" transform="translate(-74.251 122.337)" fill="#d7e5ff"/>
              <path id="Path_212662" data-name="Path 212662" d="M221.1,326.646l-47.5-50.943,2.994-7.4,49.655,54.611Z" transform="translate(-84.917 120.924)" fill="#d7e5ff"/>
              <path id="Path_212663" data-name="Path 212663" d="M168.4,299.485a8.859,8.859,0,0,1,2.114-5.629c7.312-9.164,15.444-9.947,20.05-9.453l6.712,10.624a14.667,14.667,0,0,1-3.7,19.638l-6.422,4.665c-.176-.1-.354-.2-.534-.306Z" transform="translate(-50.827 128.132)" fill="#d7e5ff"/>
              <path id="Path_212664" data-name="Path 212664" d="M202.665,37.519c-3.017-3.522-7.816-4.059-10.723-1.2s-2.816,8.037.2,11.559,7.817,4.061,10.722,1.2,2.817-8.037-.2-11.559" transform="translate(-86.757 15.541)" fill="#ed8c6b"/>
              <path id="Path_212665" data-name="Path 212665" d="M200.3,42.97a.953.953,0,0,0,.872-.58.978.978,0,0,0-.489-1.28L193.7,37.977a.95.95,0,0,0-1.255.5.978.978,0,0,0,.488,1.28l6.981,3.134a.941.941,0,0,0,.383.081" transform="translate(-86.636 17.08)"/>
              <path id="Path_212666" data-name="Path 212666" d="M194.958,45.07a.951.951,0,0,0,.858-.548l1.624-3.415a.981.981,0,0,0-.443-1.3.942.942,0,0,0-1.272.451L194.1,43.676a.983.983,0,0,0,.443,1.3.95.95,0,0,0,.416.1" transform="translate(-85.256 17.898)"/>
              <path id="Path_212667" data-name="Path 212667" d="M129.876,295.515a.71.71,0,0,0,.687-.541l31.318-121.965a36.314,36.314,0,0,0-8.651-33.433.7.7,0,0,0-1.006-.014.736.736,0,0,0-.014,1.026,34.822,34.822,0,0,1,8.3,32.053L129.189,294.6a.724.724,0,0,0,.507.885.655.655,0,0,0,.181.025" transform="translate(41.584 62.809)"/>
            </g>
          </g>
          <g id="Group_984547" data-name="Group 984547" transform="translate(124.481 45.758)">
            <g id="Group_984546" data-name="Group 984546" clip-path="url(#clip-path-6)">
              <path id="Path_212668" data-name="Path 212668" d="M173.4,36.8a5.724,5.724,0,1,0,5.724-5.724A5.725,5.725,0,0,0,173.4,36.8" transform="translate(-167.509 -31.751)"/>
            </g>
          </g>
          <g id="Group_984549" data-name="Group 984549" transform="translate(146.278 45.638)">
            <g id="Group_984548" data-name="Group 984548" clip-path="url(#clip-path-7)">
              <path id="Path_212670" data-name="Path 212670" d="M161.168,36.459c0,3.161,2.207,5.724,4.93,5.724s4.929-2.563,4.929-5.724-2.207-5.724-4.929-5.724-4.93,2.563-4.93,5.724" transform="translate(-158.135 -31.785)"/>
            </g>
          </g>
          <g id="Group_984551" data-name="Group 984551">
            <g id="Group_984550" data-name="Group 984550" clip-path="url(#clip-path-5)">
              <path id="Path_212672" data-name="Path 212672" d="M169.208,43.655c.437-.86,3.4-2.051,7.122-.364s3.113,3.91-.265,4.4c-1.959.284-7.954-1.877-6.857-4.037" transform="translate(-31.119 19.127)"/>
            </g>
          </g>
          <g id="Group_984553" data-name="Group 984553" transform="translate(137.887 61.565)">
            <g id="Group_984552" data-name="Group 984552" clip-path="url(#clip-path-9)">
              <path id="Path_212673" data-name="Path 212673" d="M181.469,45.775a27.1,27.1,0,0,0-11.694-2.446c-5.883.355.966,6.63.966,6.63l9.007,2.33Z" transform="translate(-169.037 -42.051)" fill="#fd521b"/>
            </g>
          </g>
          <g id="Group_984555" data-name="Group 984555" transform="translate(10.436 77.236)">
            <g id="Group_984554" data-name="Group 984554">
              <path id="Path_212675" data-name="Path 212675" d="M179.155,179.731a.725.725,0,0,0,.643-.389l8.788-16.786a.726.726,0,0,0-1.287-.672l-8.787,16.786a.723.723,0,0,0,.308.978.711.711,0,0,0,.335.083" transform="translate(-59.9 -4.449)"/>
              <path id="Path_212676" data-name="Path 212676" d="M246.005,141.061a.728.728,0,0,0,.69-.5L260.734,97.2a.728.728,0,0,0-.376-.879L227.532,80.633a.725.725,0,0,0-.627,1.309l32.254,15.411-13.844,42.76a.726.726,0,0,0,.467.914.747.747,0,0,0,.223.035" transform="translate(-193.427 -40.926)"/>
              <path id="Path_212677" data-name="Path 212677" d="M222.715,104.62h26.928l1.5-51.38H221.211Z" transform="translate(-176.143 -53.24)" fill="#d7e5ff"/>
              <path id="Path_212678" data-name="Path 212678" d="M251.258,68.138l-17.121-.988a5.014,5.014,0,0,0-5.243,5.073,5.379,5.379,0,0,0,5.326,5.511l17.11-.267a4.449,4.449,0,0,0,4.3-4.819,4.75,4.75,0,0,0-4.368-4.51" transform="translate(-191.774 -46.975)"/>
              <path id="Path_212679" data-name="Path 212679" d="M253.269,84.253l-20.475.029a4.958,4.958,0,0,1-4.729-3.917l-.11-.469a4.72,4.72,0,0,1,4.512-5.978l20.584.441a5.011,5.011,0,0,1,4.75,4.7,4.672,4.672,0,0,1-4.531,5.192" transform="translate(-192.39 -43.921)"/>
              <path id="Path_212680" data-name="Path 212680" d="M253.439,85h0a4.321,4.321,0,0,0-4.137-3.847l-13.631-.5a4.32,4.32,0,0,0-4.435,3.7l-.157,1.091a4.322,4.322,0,0,0,4.464,4.932l13.786-.595A4.321,4.321,0,0,0,253.439,85" transform="translate(-192.713 -40.886)"/>
              <path id="Path_212681" data-name="Path 212681" d="M250.788,89.922h0a3.741,3.741,0,0,0-3.415-2.835L236.12,86.9a3.225,3.225,0,0,0-3.173,3.53l.048,1.253a3.778,3.778,0,0,0,3.9,3.743L248.1,94.358a3.363,3.363,0,0,0,2.687-4.436" transform="translate(-192.952 -38.07)"/>
              <path id="Path_212682" data-name="Path 212682" d="M227.306,73.945l.01-.02a.415.415,0,0,1,.563-.17,7.487,7.487,0,0,0,2.891.6l18.118-.075a7.1,7.1,0,0,1,4.616,2.047,4.653,4.653,0,0,1,1.01,3.673c-.582,5.449-8.311,5.044-8.793,5.012l-10.8.215c-.812.015-5.23-.106-6.361-.216a.415.415,0,1,1,.081-.827c1.111.107,5.463.228,6.264.213l10.816-.216h.041c.074.006,7.413.525,7.925-4.271a3.864,3.864,0,0,0-.815-3.045,6.341,6.341,0,0,0-4-1.757l-18.093.075a8.212,8.212,0,0,1-3.292-.7.417.417,0,0,1-.18-.543" transform="translate(-188.333 -44.016)"/>
              <path id="Path_212683" data-name="Path 212683" d="M230.435,90.12a.415.415,0,0,1,.416-.238c1.1.107,7.725-.071,8.83-.147,1.034-.071,4.422-.171,4.565-.176.061,0,6.36-.264,6.247-4.342a3.18,3.18,0,0,0-2.42-3.006,8.058,8.058,0,0,0-2.505-.429.416.416,0,0,1-.013-.831c1.953-.032,5.671.812,5.768,4.243.109,3.924-4.564,5.114-7.052,5.195-.036,0-3.515.1-4.533.174-1.04.071-7.77.263-8.967.145a.415.415,0,0,1-.374-.454.466.466,0,0,1,.038-.135" transform="translate(-189.646 -40.751)"/>
              <path id="Path_212684" data-name="Path 212684" d="M228.281,66.931a.415.415,0,0,1,.39-.239c.11,0,11.011.377,15.446.572,4.673.2,7.41,2.331,7.507,5.832.119,4.191-4.114,5.163-4.158,5.172a.415.415,0,0,1-.177-.811c.148-.033,3.6-.841,3.5-4.336-.086-3.055-2.469-4.841-6.714-5.027-4.43-.194-15.328-.567-15.437-.572a.416.416,0,0,1-.4-.429.43.43,0,0,1,.039-.161" transform="translate(-186.821 -47.178)"/>
              <path id="Path_212685" data-name="Path 212685" d="M250.985,67.226l-17.12-.988a5.014,5.014,0,0,0-5.244,5.073,5.379,5.379,0,0,0,5.326,5.511l17.11-.267a4.449,4.449,0,0,0,4.3-4.819,4.75,4.75,0,0,0-4.368-4.51" transform="translate(-191.105 -47.386)" fill="#ed8c6b"/>
              <path id="Path_212686" data-name="Path 212686" d="M252.995,83.341l-20.475.029a4.958,4.958,0,0,1-4.729-3.915l-.11-.47a4.72,4.72,0,0,1,4.512-5.978l20.584.441a5.011,5.011,0,0,1,4.75,4.7,4.672,4.672,0,0,1-4.531,5.192" transform="translate(-191.718 -44.332)" fill="#ed8c6b"/>
              <path id="Path_212687" data-name="Path 212687" d="M253.165,84.085h0a4.323,4.323,0,0,0-4.139-3.847l-13.629-.5a4.32,4.32,0,0,0-4.435,3.7l-.157,1.091a4.322,4.322,0,0,0,4.464,4.932l13.786-.595a4.322,4.322,0,0,0,4.11-4.789" transform="translate(-192.041 -41.297)" fill="#ed8c6b"/>
              <path id="Path_212688" data-name="Path 212688" d="M250.515,89.009h0a3.741,3.741,0,0,0-3.415-2.835l-11.253-.187a3.225,3.225,0,0,0-3.173,3.53l.048,1.253a3.778,3.778,0,0,0,3.9,3.743l11.205-1.068a3.363,3.363,0,0,0,2.687-4.436" transform="translate(-192.283 -38.481)" fill="#ed8c6b"/>
              <path id="Path_212689" data-name="Path 212689" d="M227.031,73.034l.01-.02a.415.415,0,0,1,.563-.17,7.485,7.485,0,0,0,2.89.6l18.119-.075a7.1,7.1,0,0,1,4.616,2.047,4.66,4.66,0,0,1,1.011,3.673c-.583,5.449-8.312,5.044-8.794,5.012l-10.8.215c-.812.014-5.23-.106-6.361-.216a.415.415,0,1,1,.081-.827c1.111.107,5.463.228,6.264.213l10.817-.215a.189.189,0,0,1,.041,0c.074.006,7.413.527,7.925-4.271a3.864,3.864,0,0,0-.815-3.045,6.341,6.341,0,0,0-4-1.757l-18.092.075a8.212,8.212,0,0,1-3.292-.7.417.417,0,0,1-.18-.543" transform="translate(-187.661 -44.427)"/>
              <path id="Path_212690" data-name="Path 212690" d="M230.161,89.207a.415.415,0,0,1,.416-.238c1.1.107,7.725-.071,8.83-.146,1.034-.071,4.422-.171,4.565-.176.061,0,6.36-.264,6.247-4.342A3.179,3.179,0,0,0,247.8,81.3a8.058,8.058,0,0,0-2.505-.429.416.416,0,0,1-.013-.831c1.953-.032,5.672.812,5.768,4.243.109,3.924-4.564,5.114-7.052,5.195-.036,0-3.515.1-4.533.174-1.04.071-7.77.263-8.967.145a.416.416,0,0,1-.374-.454.464.464,0,0,1,.038-.135" transform="translate(-188.974 -41.163)"/>
              <path id="Path_212691" data-name="Path 212691" d="M228.006,66.018a.415.415,0,0,1,.39-.239c.11,0,11.011.377,15.446.572,4.674.2,7.41,2.331,7.509,5.832.118,4.191-4.116,5.163-4.159,5.172a.415.415,0,0,1-.177-.811c.148-.033,3.6-.841,3.5-4.338-.086-3.054-2.469-4.84-6.714-5.025-4.43-.194-15.328-.567-15.437-.572a.416.416,0,0,1-.4-.429.431.431,0,0,1,.039-.161" transform="translate(-186.148 -47.589)"/>
              <rect id="Rectangle_339587" data-name="Rectangle 339587" width="351.576" height="14.955" transform="translate(0.847 111.25)" fill="#fff7da"/>
              <path id="Path_212692" data-name="Path 212692" d="M13.629,146.785H365.314c.439,0,.795-.648.795-1.451V130.379c0-.8-.356-1.451-.795-1.451H13.629c-.439,0-.793.648-.793,1.451v14.955c0,.8.355,1.451.793,1.451m350.891-2.9H14.424V131.829h350.1Z" transform="translate(-12.836 -19.127)" fill="#12263f"/>
            </g>
          </g>
        </g>
      </g>
    </g>
  </g>
</svg>
