<svg xmlns="http://www.w3.org/2000/svg" xmlns:xlink="http://www.w3.org/1999/xlink" width="500.446" height="462.16" viewBox="0 0 500.446 462.16">
  <defs>
    <clipPath id="clip-path">
      <rect id="Rectangle_339013" data-name="Rectangle 339013" width="43.964" height="41.537" fill="none"/>
    </clipPath>
    <clipPath id="clip-path-2">
      <rect id="Rectangle_339013-2" data-name="Rectangle 339013" width="43.965" height="41.537" fill="none"/>
    </clipPath>
    <clipPath id="clip-path-3">
      <rect id="Rectangle_339014" data-name="Rectangle 339014" width="61.188" height="76.458" fill="none"/>
    </clipPath>
    <clipPath id="clip-path-4">
      <rect id="Rectangle_339011" data-name="Rectangle 339011" width="85.822" height="90.005" fill="none"/>
    </clipPath>
  </defs>
  <g id="a1" transform="translate(-879.8 -142.108)">
    <g id="Group_983889" data-name="Group 983889" transform="translate(914.009 273.738) rotate(-68)">
      <path id="Path_117337" data-name="Path 117337" d="M1397.825,1015.025c-.77,0-1.514-.931-2.458-2.11l-.277-.346a.267.267,0,0,1-.044-.083.241.241,0,0,1,0-.224c2.7-5.54,5.719-11.115,8.334-15.907a.478.478,0,0,0-.419-.707.458.458,0,0,0-.072.006c-.872.134-1.72.243-2.521.326h0c-.211,0-.565-.51-.735-.756-.086-.124-.166-.238-.237-.326-.618-.766-1.159-1.472-1.654-2.161-.047-.065-.036-.083-.024-.1a.435.435,0,0,0,.046-.093.566.566,0,0,0,.084-.107c2.477-4.391,5.213-8.679,7.8-12.658a.478.478,0,0,0-.4-.739.442.442,0,0,0-.072.006l-1.514.228c-.119.018-.259.049-.407.082a3.689,3.689,0,0,1-.718.115.532.532,0,0,1-.145-.015c-.258-.07-.637-.616-.862-.942-.1-.15-.2-.288-.285-.394l-.094-.118c-.458-.571-.932-1.163-1.341-1.771-.055-.08-.034-.107-.01-.137,3.714-6.344,6.963-13.032,10.1-19.5q1.228-2.527,2.46-5.042a.223.223,0,0,1,.156-.067c6.786-.036,13.68-.26,20.348-.477l.092,0a.116.116,0,0,1,.122.061.679.679,0,0,0,.077.1,34.177,34.177,0,0,0,2.353,2.984.22.22,0,0,1-.008.331c-3.132,3.731-6.081,7.725-8.933,11.588q-1.046,1.417-2.093,2.829a.477.477,0,0,0,.383.763.458.458,0,0,0,.049,0l4.207-.433a.492.492,0,0,0,.105-.023.3.3,0,0,0,.053.009c.03.034.1.1.123.118.9,1.063,1.707,2.087,2.46,3.128a.269.269,0,0,1-.08.225c-3.8,4.426-7.76,8.841-11.592,13.111l-.088.1a.478.478,0,0,0,.355.8c.015,0,4.342-.416,4.342-.416a.379.379,0,0,0,.072-.012.353.353,0,0,0,.062.014c.024.017.057.039.06.043l.016.015a39.446,39.446,0,0,1,2.5,3.176.228.228,0,0,1-.036.183c-4.563,4.1-9.286,8.19-13.853,12.141q-2.675,2.315-5.346,4.634l-9.013,7.84a2.345,2.345,0,0,1-1.423.72Z" transform="translate(-1394.537 -950.527)" fill="#fff"/>
      <path id="Path_117338" data-name="Path 117338" d="M1432.282,951.212a.693.693,0,0,0,0-.953,34.27,34.27,0,0,1-2.344-2.972c-.01-.014-.022-.024-.031-.037a.588.588,0,0,0-.55-.3c-6.806.221-13.616.443-20.426.48a.668.668,0,0,0-.582.334c-4.031,8.192-7.9,16.569-12.511,24.456a.565.565,0,0,0-.011.7c.449.666.957,1.294,1.459,1.92.331.413.835,1.344,1.393,1.5a4.161,4.161,0,0,0,1.469-.17l1.513-.228c-2.709,4.166-5.38,8.365-7.816,12.684a.5.5,0,0,0-.117.178.542.542,0,0,0,.039.637c.535.745,1.094,1.469,1.67,2.182.311.385.788,1.319,1.392,1.257.849-.088,1.7-.2,2.544-.33-2.872,5.262-5.718,10.544-8.344,15.926a.686.686,0,0,0-.02.585.728.728,0,0,0,.125.232c1.739,2.158,2.722,3.646,4.845,1.8q4.5-3.923,9.012-7.84c6.412-5.579,12.885-11.1,19.2-16.78a.667.667,0,0,0,.105-.817,38.884,38.884,0,0,0-2.5-3.181.68.68,0,0,0-.045-.054l-.009-.01s0,0-.007-.005a.587.587,0,0,0-.177-.132.6.6,0,0,0-.085-.042h0a.535.535,0,0,0-.309-.007q-2.148.205-4.3.414c3.927-4.377,7.856-8.753,11.686-13.216a.677.677,0,0,0,.105-.816c-.786-1.088-1.615-2.135-2.483-3.158a.532.532,0,0,0-.271-.243.516.516,0,0,0-.057-.027l-.007,0a.527.527,0,0,0-.359,0q-2.1.216-4.208.433C1424.874,960.767,1428.406,955.83,1432.282,951.212Zm-15.139,13.517c.081.149.18.292.267.428.166.258.331.519.506.772-.594.056-1.189.112-1.783.164Q1416.638,965.411,1417.143,964.729Zm1.354,1.146c-.229-.369-.512-.711-.769-1.062a3.374,3.374,0,0,0-.341-.417l.806-1.1c.194.361.45.708.636,1.042a9.909,9.909,0,0,0,.679,1.4l-.034.045C1419.148,965.818,1418.823,965.844,1418.5,965.876Zm7.714-13.3c.163.454.407.9.562,1.3.178.462.257,1.105.484,1.6-.251.329-.5.66-.752.99-.137-.289-.313-.566-.409-.756a12.074,12.074,0,0,0-.824-1.919C1425.584,953.388,1425.9,952.981,1426.21,952.578Zm-1.331,1.725a12.036,12.036,0,0,0,.588,1.408c.163.388.365.757.526,1.146.028.069.049.134.068.2l-.825,1.086c-.1-.269-.225-.532-.33-.772a12.953,12.953,0,0,0-.914-1.9C1424.287,955.075,1424.584,954.689,1424.88,954.3Zm-1.257,1.654c.113.345.293.682.43.993.2.459.43.9.6,1.373a3.8,3.8,0,0,1,.116.43c-.284.376-.572.75-.855,1.125a8.824,8.824,0,0,0-.46-.968c-.244-.5-.493-1.125-.8-1.658C1422.973,956.819,1423.3,956.388,1423.623,955.957Zm-1.373,1.833c.135.334.312.657.452.947a11.833,11.833,0,0,1,.577,1.363c.061.181.088.316.138.435q-.491.652-.98,1.305c-.227-.514-.456-1.027-.711-1.527a11.757,11.757,0,0,0-.571-1.043Q1421.7,958.529,1422.249,957.79Zm-1.439,1.946c.208.456.452.9.649,1.331a5.538,5.538,0,0,0,.576,1.308l-.946,1.259a7.579,7.579,0,0,0-.753-1.562,6.692,6.692,0,0,0-.58-.9Q1420.282,960.453,1420.81,959.736Zm-1.39,1.891c.147.249.311.49.439.724.323.59.523,1.232.82,1.83l-.79,1.052a8.162,8.162,0,0,0-.519-.951,6.143,6.143,0,0,0-.89-1.374Zm8.37-6.852c-.144-.475-.385-.956-.527-1.314a6.624,6.624,0,0,0-.652-1.389q.532-.676,1.069-1.348c.119.366.3.725.442,1.053a12.259,12.259,0,0,1,.484,1.286c.054.174.078.336.12.489l-.758.989C1427.908,954.62,1427.85,954.7,1427.791,954.776Zm1.144-5.584a9.6,9.6,0,0,0,.4,1.418,5.809,5.809,0,0,0,.563,1.433c-.226.288-.454.574-.677.864-.1-.324-.262-.643-.368-.9a9.835,9.835,0,0,0-.82-1.724C1428.33,949.918,1428.634,949.556,1428.935,949.192Zm2.03,1.543a.275.275,0,0,0-.092.075c-.227.279-.446.565-.67.847-.1-.4-.313-.809-.439-1.165-.191-.534-.343-1.089-.576-1.607.046-.055.091-.11.136-.165.368.5.743.987,1.133,1.471A3.768,3.768,0,0,0,1430.964,950.735Zm-22.522-.123q.531-1.07,1.057-2.141c-.068.14,6.743.194,7.558.175q5.42-.124,10.839-.3c-4.833,5.864-9.236,12.133-13.776,18.217a.677.677,0,0,0,.582,1.014c3.1-.252,6.2-.577,9.3-.9-4.953,5.731-10.034,11.354-15.108,16.977-.348.385-.156,1.232.477,1.151,3.295-.42,6.605-.739,9.913-1.053-8.425,7.541-17,14.918-25.544,22.33,2.393-4.733,4.914-9.4,7.458-14.06l0,0q1.092-2,2.182-3.994a.681.681,0,0,0-.761-.99c-2.331.36-4.655.758-6.977,1.164,3.244-5.633,6.856-11.074,10.4-16.516a.678.678,0,0,0-.582-1.015c-2.6.272-5.2.633-7.781,1.038C1401.59,964.861,1404.95,957.665,1408.442,950.612Zm16.658,17.9c.255.647.486,1.316.755,1.957-.24.275-.481.549-.722.824a7.668,7.668,0,0,0-1.138-2.56q.423-.487.845-.974A5.792,5.792,0,0,0,1425.1,968.517Zm-1.918,3.513a11.475,11.475,0,0,0-.66-1.6c.411-.469.817-.943,1.227-1.413.195.955.77,1.837.908,2.82-.354.4-.705.807-1.06,1.209C1423.484,972.687,1423.3,972.329,1423.182,972.03Zm-1.924,1.41a5.873,5.873,0,0,0,.513,1.667c-.252.284-.507.568-.76.852a9.09,9.09,0,0,0-.386-1.074c-.2-.486-.413-1.043-.679-1.533q.528-.6,1.057-1.193A8.552,8.552,0,0,0,1421.258,973.44Zm-3.187,5.816c-.185-.481-.382-.957-.55-1.446-.137-.4-.23-.868-.411-1.271q.485-.541.97-1.082a9.675,9.675,0,0,0,.4,1.21,4.641,4.641,0,0,0,.643,1.411Q1418.6,978.667,1418.071,979.256Zm-5.861,2.733c.082.216.192.429.257.6a3.4,3.4,0,0,0,.189.474c-.529.058-1.057.122-1.586.184Zm.328-.363q.66-.732,1.319-1.463c.126.49.4,1.008.53,1.43.118.374.194.843.338,1.257q-.79.081-1.579.167A3.793,3.793,0,0,0,1412.538,981.625Zm2.335-.427a4.3,4.3,0,0,0-.665-1.426l1.085-1.209a8.4,8.4,0,0,0,.335.866c.24.588.44,1.208.685,1.8-.349.389-.695.781-1.043,1.17C1415.165,981.968,1414.987,981.536,1414.873,981.2Zm1.517-1.527a16.03,16.03,0,0,0-.642-1.616l.919-1.025c.071.327.188.651.28.937a12.917,12.917,0,0,0,.691,1.773c-.288.322-.573.645-.862.966A8.276,8.276,0,0,0,1416.39,979.672Zm2.631-2.964c-.223-.514-.406-1.062-.665-1.563.394-.442.785-.887,1.178-1.329.081.259.189.513.286.758a10.95,10.95,0,0,1,.669,1.97q-.54.608-1.082,1.213A4.581,4.581,0,0,0,1419.021,976.708Zm1.134,11.531c-.328-.857-.67-1.71-1.017-2.558.412-.368.828-.733,1.239-1.1a7.986,7.986,0,0,0,.371,1.4,13.762,13.762,0,0,0,.411,1.382Zm-3.04,2.661a15.355,15.355,0,0,1-.648-1.471c-.113-.328-.215-.7-.364-1.047.384-.34.766-.683,1.15-1.023.15.471.364.947.513,1.369a6.637,6.637,0,0,0,.475,1.19Zm-1.487,1.3a13.514,13.514,0,0,1-.729-1.513c-.115-.293-.209-.623-.342-.926.383-.337.76-.679,1.142-1.016.081.363.205.724.312,1.048a5.947,5.947,0,0,0,.656,1.5Zm-1.54,1.343c-.189-.507-.375-1.015-.583-1.515a6.058,6.058,0,0,0-.452-.953c.379-.332.759-.661,1.137-.993.092.389.234.778.346,1.125a4.381,4.381,0,0,0,.673,1.358Zm-2.948,2.571c-.151-.35-.326-.692-.477-1.038a8.625,8.625,0,0,0-.652-1.34l1.02-.893c.093.3.227.6.323.845a7.23,7.23,0,0,0,.72,1.611ZM1396.1,1009.2a11.488,11.488,0,0,0-.522-1.157c-.206-.4-.358-.87-.578-1.277l1.168-1.013a9.055,9.055,0,0,0,.434.953c.213.442.383,1.028.657,1.485Zm-1.693.084a6.277,6.277,0,0,0-.727-1.374l.948-.823a5.89,5.89,0,0,0,.305.784c.249.565.534,1.113.752,1.689l-.819.712C1394.746,1009.915,1394.539,1009.56,1394.412,1009.283Zm2.859-2.419a15.93,15.93,0,0,0-.722-1.439l1.185-1.028a9.619,9.619,0,0,0,.479,1.1,13.959,13.959,0,0,0,.59,1.35l-1.061.923C1397.611,1007.453,1397.416,1007.144,1397.271,1006.863Zm1.52-1.417a9.769,9.769,0,0,0-.667-1.388c.363-.315.724-.629,1.088-.943a10.6,10.6,0,0,0,.417,1.064,13.192,13.192,0,0,0,.6,1.43l-.949.826C1399.135,1006.1,1398.946,1005.766,1398.791,1005.446Zm1.427-1.032c-.236-.506-.441-1.055-.716-1.552l1.154-1a9.017,9.017,0,0,0,.432.953c.194.415.382.832.535,1.265.034.093.054.175.074.251l-1.074.934C1400.507,1004.974,1400.348,1004.693,1400.218,1004.414Zm1.614-1.195a13.691,13.691,0,0,0-.782-1.7l1.137-.986a91.838,91.838,0,0,0,1.155,2.365l-1.178,1.025C1402.068,1003.672,1401.922,1003.419,1401.832,1003.219Zm1.312-1.654c-.218-.4-.408-.879-.656-1.29l1.186-1.028c.1.245.221.483.324.705a10.55,10.55,0,0,0,.8,1.685l-1.125.978A4.955,4.955,0,0,0,1403.144,1001.565Zm1.441-1.369c-.2-.39-.364-.839-.554-1.259l1.013-.878a6.959,6.959,0,0,0,.332.837,12.893,12.893,0,0,0,.718,1.611l-.939.817A7.118,7.118,0,0,0,1404.585,1000.2Zm1.4-1.091c-.208-.433-.372-.911-.593-1.348l1.033-.9c.075.236.182.467.278.693.246.579.463,1.2.753,1.767l-.957.833C1406.36,999.789,1406.144,999.436,1405.986,999.105Zm1.347-1.355c-.17-.378-.325-.822-.542-1.205.378-.328.753-.658,1.131-.987.121.413.331.819.482,1.194.175.437.311.891.469,1.335l-1.026.9A9.44,9.44,0,0,0,1407.333,997.75Zm1.6-1.146a7.22,7.22,0,0,0-.613-1.4q.712-.62,1.422-1.243a9.262,9.262,0,0,0,.376,1.08,15.291,15.291,0,0,0,.589,1.44l-1.384,1.207C1409.212,997.323,1409.072,996.962,1408.937,996.6Zm2.885-3.048c-.126-.316-.227-.719-.38-1.076.405-.355.812-.708,1.216-1.063.107.348.275.692.4,1,.2.507.38,1.02.56,1.533l-1.144,1C1412.295,994.475,1412,994,1411.822,993.557Zm6.746-4.184c-.192-.388-.327-.8-.482-1.207a6.974,6.974,0,0,0-.485-1.118q.564-.5,1.126-1a22.28,22.28,0,0,0,1,2.568l-1.064.934C1418.63,989.491,1418.6,989.434,1418.568,989.373Zm-17.786.6a7.95,7.95,0,0,0-.4-.834c-.055-.106-.11-.231-.17-.355q.669-.111,1.34-.218Zm-2.9.469a9.7,9.7,0,0,0-.739-1.141c.331-.057.661-.116.993-.172a5.914,5.914,0,0,0,.532,1.118,7.744,7.744,0,0,0,.5.986c-.258.04-.517.078-.776.113A5.329,5.329,0,0,0,1397.878,990.44Zm5.072-17.181c-.07-.292-.121-.617-.2-.927.456-.058.914-.112,1.371-.165l-1.031,1.58C1403.043,973.572,1402.984,973.4,1402.95,973.259Zm-5.368-.184c.461-.073.922-.146,1.384-.216a9.232,9.232,0,0,0,.358,1.22c.084.25.128.552.2.833l-.4.061C1398.591,974.362,1398.069,973.73,1397.582,973.075Zm2.484,1.756a6.819,6.819,0,0,0-.234-.677,9.285,9.285,0,0,0-.6-1.334q.651-.1,1.305-.19c.063.412.145.822.232,1.23a5.69,5.69,0,0,0,.189.836Zm1.5-.228c-.061-.306-.226-.635-.29-.884a5.71,5.71,0,0,0-.373-1.144c.441-.062.884-.118,1.325-.176a7.033,7.033,0,0,0,.122.828,3.187,3.187,0,0,0,.33,1.143l-.045.07C1402.28,974.494,1401.924,974.55,1401.568,974.6Zm-4.895,16.413c-.392-.47-.767-.953-1.136-1.44l.956-.166c.211.406.527.785.76,1.155.136.217.263.566.426.866-.146.018-.29.039-.435.055C1396.641,991.557,1397.087,991.513,1396.673,991.016Zm3.047.12a5.3,5.3,0,0,0-.563-1.18,5.716,5.716,0,0,0-.51-.92c.333-.056.667-.108,1-.163.054.173.136.344.19.492a4.936,4.936,0,0,0,.531,1.122.3.3,0,0,0,.087.082q-.132.244-.265.486C1400.034,991.086,1399.876,991.109,1399.72,991.136Zm-7.217,17.8.81-.7c.156.385.424.781.564,1.091.181.4.363.8.523,1.217.01.028.021.052.031.078C1393.666,1011.033,1393.121,1009.907,1392.5,1008.934Zm30.28-23.008q-.339.3-.681.6c-.142.125-.284.249-.427.374-.1-.275-.225-.545-.31-.794a17.973,17.973,0,0,0-.625-1.854c.156-.14.314-.278.47-.418.365.419.718.849,1.047,1.3A9.107,9.107,0,0,1,1422.782,985.927Zm-.548-11.34c-.08-.347-.236-.693-.336-1.02a15.8,15.8,0,0,0-.575-1.772c.291-.33.585-.659.875-.99a6.963,6.963,0,0,0,.392,1.123c.149.394.294.788.417,1.192.049.162.075.321.111.475l-.11.125C1422.752,974.01,1422.492,974.3,1422.235,974.587Zm4.392-4.994c-.137.158-.277.314-.413.471a8.345,8.345,0,0,0-.414-1.073c-.175-.411-.336-.825-.5-1.239a3.58,3.58,0,0,1-.119-.378c.146-.169.294-.336.439-.506.464.55.915,1.11,1.342,1.689C1427.518,969.29,1427.269,968.851,1426.627,969.593Zm-26.324.13a169.714,169.714,0,0,1,8.588-17.44c.02-.036.082-.011.067.029a150.028,150.028,0,0,1-8.5,17.476C1400.412,969.869,1400.266,969.813,1400.3,969.723Zm8.78-18.039a1.145,1.145,0,0,1,.167-.659.716.716,0,0,1,.352-.43.075.075,0,0,1,.111.063c.007.326-.2,1-.566,1.062A.053.053,0,0,1,1409.083,951.684Zm2.786,27.262a51.562,51.562,0,0,1,7.462-8.9c.053-.054.13.025.082.082-2.513,2.943-4.965,5.93-7.461,8.886C1411.912,979.056,1411.837,979,1411.869,978.946Zm7.821-9.3c.1-.356.365-.79.758-.854a.075.075,0,0,1,.091.091c-.06.37-.459.641-.756.835A.064.064,0,0,1,1419.69,969.644Zm-19.453,29.25a80.267,80.267,0,0,1,9.689-8.549c.094-.07.2.078.121.157-2.969,3.086-6.459,5.712-9.712,8.489C1400.267,999.049,1400.175,998.959,1400.237,998.895Zm10.371-8.9a.071.071,0,0,1-.069-.068c-.033-.362.5-.689.806-.751.053-.01.121.036.1.1C1411.331,989.559,1410.952,990.033,1410.608,990Z" transform="translate(-1390.953 -946.953)"/>
    </g>
    <g id="Group_983890" data-name="Group 983890" transform="matrix(0.629, 0.777, -0.777, 0.629, 935.08, 373.005)">
      <g id="Group_81059" data-name="Group 81059" transform="translate(0 0)">
        <g id="Group_81053" data-name="Group 81053" transform="translate(2.371 0)" style="mix-blend-mode: overlay;isolation: isolate">
          <path id="Path_114995" data-name="Path 114995" d="M51.237,53.8l8.2-33.442L0,0Z" transform="translate(1 1)" fill="#3c384f"/>
          <path id="Path_114996" data-name="Path 114996" d="M1,0A1,1,0,0,0,.276,1.689L51.512,55.494a1,1,0,0,0,1.695-.451l8.2-33.443a1,1,0,0,0-.647-1.184L1.324.054A.988.988,0,0,0,1,0ZM51.7,52.791,4.543,3.271l54.7,18.741Z" transform="translate(0 0)" fill="#3c384f"/>
          <path id="Path_114997" data-name="Path 114997" d="M57.391,48.778,0,0l79.517,32.57Z" transform="translate(1 1)" fill="#3c384f"/>
          <path id="Path_114998" data-name="Path 114998" d="M1,0A1,1,0,0,0,.352,1.762L57.743,50.54a1,1,0,0,0,1.239.045L81.108,34.377a1,1,0,0,0-.212-1.732L1.379.075A.992.992,0,0,0,1,0ZM58.437,48.505l-52-44.2L78.485,33.819Z" transform="translate(0 0)" fill="#3c384f"/>
          <path id="Path_114999" data-name="Path 114999" d="M51.237,53.8,0,0,33.724,66.762Z" transform="translate(1 1)" fill="#3c384f"/>
          <path id="Path_115000" data-name="Path 115000" d="M1,0A1,1,0,0,0,.107,1.451L33.831,68.212a1,1,0,0,0,1.488.353L52.831,55.608a1,1,0,0,0,.129-1.493L1.724.31A1,1,0,0,0,1,0ZM35.082,66.252,4.946,6.594l45.785,48.08Z" transform="translate(0 0)" fill="#3c384f"/>
          <path id="Path_115001" data-name="Path 115001" d="M9.014,18.7Q4.8,9.982.133,1.5C-.488.375,1.238-.635,1.86.494q4.67,8.477,8.881,17.193C11.3,18.841,9.575,19.856,9.014,18.7Z" transform="translate(21.704 35.774)" fill="#3c384f"/>
          <path id="Path_115002" data-name="Path 115002" d="M2.982,3.4a1.018,1.018,0,0,1-.46.6,1.008,1.008,0,0,1-.77.1.987.987,0,0,1-.6-.46Q.644,2.573.135,1.507a1.07,1.07,0,0,1-.1-.77,1.018,1.018,0,0,1,.46-.6,1.008,1.008,0,0,1,.77-.1.983.983,0,0,1,.6.46q.51,1.065,1.019,2.131A1.069,1.069,0,0,1,2.982,3.4Z" transform="translate(25.933 37.218)" fill="#3c384f"/>
          <path id="Path_115003" data-name="Path 115003" d="M19.924,10.45Q10.177,6.238.518,1.827C-.651,1.293.364-.431,1.527.1q9.658,4.411,19.406,8.623C22.112,9.232,21.094,10.956,19.924,10.45Z" transform="translate(45.432 22.769)" fill="#3c384f"/>
        </g>
        <g id="Group_81058" data-name="Group 81058" transform="translate(0 2.371)">
          <g id="Group_81057" data-name="Group 81057">
            <g id="Group_81054" data-name="Group 81054" transform="translate(0 0)">
              <path id="Path_115004" data-name="Path 115004" d="M51.237,53.8l8.2-33.442L0,0Z" transform="translate(1 1)" fill="#fff"/>
              <path id="Path_115005" data-name="Path 115005" d="M1,0A1,1,0,0,0,.276,1.69l51.237,53.8a1,1,0,0,0,1.7-.451l8.2-33.442a1,1,0,0,0-.647-1.184L1.325.054A1.016,1.016,0,0,0,1,0ZM51.7,52.792,4.544,3.271l54.7,18.741Z" transform="translate(0 0)"/>
            </g>
            <g id="Group_81055" data-name="Group 81055" transform="translate(0 0)">
              <path id="Path_115006" data-name="Path 115006" d="M57.391,48.778,0,0l79.517,32.57Z" transform="translate(1 1)" fill="#fff"/>
              <path id="Path_115007" data-name="Path 115007" d="M1,0A1,1,0,0,0,.353,1.762L57.744,50.541a1,1,0,0,0,1.238.044L81.108,34.378a1,1,0,0,0-.212-1.732L1.379.075A.988.988,0,0,0,1,0ZM58.437,48.505l-52-44.2L78.486,33.82Z" transform="translate(0 0)"/>
            </g>
            <g id="Group_81056" data-name="Group 81056" transform="translate(0 0)">
              <path id="Path_115008" data-name="Path 115008" d="M51.237,53.8,0,0,33.724,66.762Z" transform="translate(1 1)" fill="#fff"/>
              <path id="Path_115009" data-name="Path 115009" d="M1,0A1,1,0,0,0,.108,1.451L33.832,68.212a1,1,0,0,0,1.487.353L52.832,55.609a1,1,0,0,0,.129-1.494L1.725.311A1,1,0,0,0,1,0ZM35.082,66.253,4.947,6.594l45.785,48.08Z"/>
            </g>
            <path id="Path_115010" data-name="Path 115010" d="M9.014,18.7Q4.8,9.983.133,1.5C-.489.375,1.238-.635,1.86.494Q6.53,8.97,10.741,17.687C11.3,18.841,9.574,19.857,9.014,18.7Z" transform="translate(21.704 35.774)"/>
            <path id="Path_115011" data-name="Path 115011" d="M2.982,3.4a1.02,1.02,0,0,1-.46.6,1.01,1.01,0,0,1-.771.1.983.983,0,0,1-.6-.459Q.644,2.573.135,1.507a1.069,1.069,0,0,1-.1-.77,1.021,1.021,0,0,1,.459-.6,1.01,1.01,0,0,1,.771-.1.988.988,0,0,1,.6.46l1.02,2.131A1.077,1.077,0,0,1,2.982,3.4Z" transform="translate(25.933 37.218)"/>
            <path id="Path_115012" data-name="Path 115012" d="M19.925,10.45Q10.178,6.239.519,1.827C-.651,1.293.365-.431,1.528.1q9.658,4.41,19.406,8.623C22.112,9.233,21.095,10.956,19.925,10.45Z" transform="translate(45.432 22.769)"/>
          </g>
        </g>
      </g>
      <g id="Group_81063" data-name="Group 81063" transform="translate(58.302 56.359)">
        <g id="Group_81060" data-name="Group 81060" transform="translate(0 0)">
          <path id="Path_115013" data-name="Path 115013" d="M1,0A1,1,0,0,0,.247,1.659,101.136,101.136,0,0,0,8.755,10.28a1,1,0,0,0,1.337-1.487A99.055,99.055,0,0,1,1.753.342,1,1,0,0,0,1,0ZM17.176,14.847a1,1,0,0,0-.593,1.805c2.159,1.59,4.407,3.114,6.683,4.532a1,1,0,0,0,1.058-1.7c-2.232-1.39-4.438-2.885-6.556-4.444A1,1,0,0,0,17.176,14.847ZM132.1,19.26a.991.991,0,0,0-.53.153q-.909.569-1.828,1.119a1,1,0,0,0,1.026,1.717q.938-.561,1.865-1.142a1,1,0,0,0-.533-1.847ZM34.323,25.081a1,1,0,0,0-.428,1.9c3.036,1.437,6.172,2.74,9.321,3.872a1,1,0,1,0,.677-1.881c-3.089-1.112-6.165-2.39-9.142-3.8A.988.988,0,0,0,34.323,25.081Zm87.1,0a1,1,0,0,0-.424.1,101.855,101.855,0,0,1-11.029,4.406,1,1,0,0,0,.633,1.9,103.855,103.855,0,0,0,11.246-4.493,1,1,0,0,0-.426-1.906ZM51.18,31.327a1,1,0,0,0-.263,1.964,100.855,100.855,0,0,0,11.854,2.492,1,1,0,0,0,.292-1.979,99.016,99.016,0,0,1-11.619-2.441A.965.965,0,0,0,51.18,31.327Zm51.432.441a.963.963,0,0,0-.243.03c-3.193.8-6.46,1.448-9.709,1.934a1,1,0,0,0,.3,1.978c3.312-.5,6.642-1.159,9.9-1.972a1,1,0,0,0-.241-1.97ZM72.865,34.754a1,1,0,0,0-.045,2c2.674.123,5.39.142,8.076.054a1,1,0,1,0-.065-2c-2.635.086-5.3.068-7.919-.053Z" transform="translate(0 0)"/>
        </g>
      </g>
    </g>
    <g id="Group_983892" data-name="Group 983892" transform="translate(-171.802 -27.884)">
      <g id="Group_165571" data-name="Group 165571" transform="translate(-3.045 3)">
        <g id="Group_165570" data-name="Group 165570" transform="translate(11991.056 11674.223)">
          <g id="Group_157024" data-name="Group 157024" transform="translate(-11238.521 -12264.992)">
            <g id="Group_165569" data-name="Group 165569" transform="translate(518.52 757.761)">
              <path id="Path_117323" data-name="Path 117323" d="M529.05,765.728c17.174-11.6,42.037-10.357,58.121,2.562a41.349,41.349,0,0,1,6.161,6.313c7.835,10.438,12.332,22.813,6.6,35.328-3.8,8.308-11.792,13.558-20.147,16.49a45.424,45.424,0,0,1-18.069,2.511c-1.146,6.155-5.32,10.309-10.587,13.316-.934.533-3.912,2.142-2.546-2.632,1.287-4.5.6-9.288-.749-13.871a47.941,47.941,0,0,1-19.051-14.11C517.9,798.393,512.449,776.938,529.05,765.728Z" transform="translate(-518.52 -757.761)"/>
              <g id="Group_83561" data-name="Group 83561" transform="translate(19.142 4.617)">
                <path id="Path_117328" data-name="Path 117328" d="M685.932,788.188c-12.243-5.33-27.472-5.757-40.22-2.131-.217.062-.326-.262-.134-.364,11.444-6.09,29.568-4.283,40.476,2.235.139.082.031.326-.122.26Z" transform="translate(-645.479 -781.963)" fill="#fff"/>
              </g>
              <g id="Group_83562" data-name="Group 83562" transform="translate(14.105 9.069)">
                <path id="Path_117329" data-name="Path 117329" d="M869.3,805.514a2.132,2.132,0,0,1-1.228.943,7.172,7.172,0,0,1-2.23.859.182.182,0,0,1-.19-.271,2.627,2.627,0,0,1,1.556-1.162,4.368,4.368,0,0,1,1.953-.569c.088.01.181.1.138.2Z" transform="translate(-865.631 -805.305)" fill="#fff"/>
              </g>
              <g id="Group_83563" data-name="Group 83563" transform="translate(44.686 57.551)">
                <path id="Path_117330" data-name="Path 117330" d="M607.449,1059.618c-5.73,7.262-18.518,11.156-27.418,9.026a.257.257,0,0,1,.023-.492c10.017-1.29,18.8-2.613,27.24-8.664.086-.062.234.03.156.13Z" transform="translate(-579.857 -1059.469)" fill="#fff"/>
              </g>
            </g>
            <g id="Group_83560" data-name="Group 83560" transform="translate(531.462 775.958)">
              <path id="Path_117324" data-name="Path 117324" d="M608.281,864.167a74.524,74.524,0,0,0,2.666-9.3q.157-1.579-1.091-1.7-1.363-.1-2.658,3.425t-3.142,8.681q-.378,1.187-2.287,1.368a31.233,31.233,0,0,1-4.721.124,1.468,1.468,0,0,1-1.448-1.849,35.568,35.568,0,0,1,2.474-6.615,3.279,3.279,0,0,0,.2-.907.977.977,0,0,0-.811-1.175,11.251,11.251,0,0,0-1.162-.245q-.992-.1-1.248.617-.352.929-.59,1.462-1.226,2.993-2.235,6.082a5.9,5.9,0,0,1-1.239,2.2,3.121,3.121,0,0,1-2.234.649,6.293,6.293,0,0,0-1.925.161q-.369.168-.442.9a2.388,2.388,0,0,0,.409,1.857,3.481,3.481,0,0,0,1.946.564q1.138.114,1.037,1.142a9.985,9.985,0,0,1-.648,2.42,12.071,12.071,0,0,0-.714,3.081l-.05.885q-.013,1.631,2.263,1.856,1.322.132,1.406-.714a15.946,15.946,0,0,1-.072-3.011,16.774,16.774,0,0,1,.7-3.3,6.9,6.9,0,0,1,1.125-2.373,4.809,4.809,0,0,1,1.722-.533,17.334,17.334,0,0,1,5.038-.316q1.579.156,1.4,1.993a5.167,5.167,0,0,1-.208.98,47.9,47.9,0,0,0-1.232,7.555q-.171,2.468-.171,2.838a5.386,5.386,0,0,0,.536,2.445,1.959,1.959,0,0,0,1.629,1.145l.184.018q1.106.072,1.2-.846l.022-.22a28.41,28.41,0,0,1-.021-4.267Q604.453,875.469,608.281,864.167Z" transform="translate(-586.365 -853.159)" fill="#fff"/>
              <path id="Path_117325" data-name="Path 117325" d="M719.605,910.872a2.8,2.8,0,0,0-.868-.234,2,2,0,0,0-1.875.963q-1.776,2.567-2.96,4.416-1.981,3.141-2.461,3.13-.3-.029-.1-1.976.16-1.616.606-4.612a1.791,1.791,0,0,0-1.669-2.243l-.437-.08q-1.518-.051-2.43,7.506a3.524,3.524,0,0,0-1.166.7q-.76.556-2.493,1.57a7.556,7.556,0,0,1-4.107,1.409q-.992-.1-1.206-1.305a1.41,1.41,0,0,1-.03-.448q.051-.514,1.09-.894,2.923-1.045,6.544-5.395a4.215,4.215,0,0,0,.747-1.928,3.122,3.122,0,0,0-.221-1.506,3.738,3.738,0,0,0-3.226-2.619q-2.791-.277-5.732,4.326a14.5,14.5,0,0,0-2,4.251q-.369,1.67-.417,2.147-.514,5.177,5.068,5.732.661.065,1.44.068a6.534,6.534,0,0,0,3.208-1.128,11.733,11.733,0,0,0,2.355-1.8,3.409,3.409,0,0,0,1.949,2.342,3.055,3.055,0,0,0,1.01.286,3.63,3.63,0,0,0,3.061-1.328c.252-.3.4-.442.452-.437a6.75,6.75,0,0,1-.087,1.623q-.447,2.626-.6,4.131a10.3,10.3,0,0,0,.211,4.23,4.057,4.057,0,0,0,2.008,2.183,2.11,2.11,0,0,0,.863.271,1.579,1.579,0,0,0,1.119-.445.747.747,0,0,0,.309-.489,1.6,1.6,0,0,0-.332-.774q-.97-1.432-.664-4.517a46.542,46.542,0,0,1,2-8.961q1.194-3.812,1.972-5.664a2.793,2.793,0,0,0,.139-.654A1.742,1.742,0,0,0,719.605,910.872Zm-17.045-.134a.49.49,0,0,1,.422-.143c.244.024.358.134.338.33a10.274,10.274,0,0,1-1.621,2.88,6.482,6.482,0,0,1-2.066,2.131q-.36-.109-.33-.4A38.228,38.228,0,0,1,702.56,910.738Z" transform="translate(-674.401 -896.984)" fill="#fff"/>
              <path id="Path_117326" data-name="Path 117326" d="M845.331,873.392a2.645,2.645,0,0,0-.909-.357q-1.415-.263-2.406,1.844-.3.582-.615,1.086-4.407,7.178-5.322,12.112-.742,4.405.214,4.919a2.691,2.691,0,0,0,.7.279,1.5,1.5,0,0,0,.865-.214,1.98,1.98,0,0,0,.9-1.409,47.517,47.517,0,0,1,7.117-15.72,2.463,2.463,0,0,0,.343-.837A1.6,1.6,0,0,0,845.331,873.392Z" transform="translate(-788.183 -869.22)" fill="#fff"/>
              <path id="Path_117327" data-name="Path 117327" d="M827.932,997.621q-1.851-.344-2.456,2.922-.51,2.757.654,3.762a1.186,1.186,0,0,0,.481.239l.109.02q1.428.189,2.86-4.5a5.638,5.638,0,0,0,.227-.821Q829.957,998.033,827.932,997.621Z" transform="translate(-779.739 -970.038)" fill="#fff"/>
            </g>
          </g>
        </g>
      </g>
    </g>
    <g id="Group_984302" data-name="Group 984302" transform="translate(357.858 49.227)">
      <g id="Group_983766" data-name="Group 983766" transform="translate(938.543 252.08)">
        <g id="Group_983765" data-name="Group 983765" clip-path="url(#clip-path)">
          <path id="Path_211212" data-name="Path 211212" d="M47.521,47.529a58.311,58.311,0,0,1-1.8,6.958A9.854,9.854,0,0,1,43.9,57.842c-.211.206-.427.406-.645.6a4.175,4.175,0,0,1-.869.526c-1.521.676-3.65.455-4.413-1.188a.883.883,0,0,0-1.512,0c-2.4,3.932-6.721,6.185-11.157,6.994l-.181.031-.064,0a.817.817,0,0,0-.425.082c-4.989.746-10.09-.286-14.926-1.569a99.162,99.162,0,0,0,9.968-29.949,32.174,32.174,0,0,0,9.524-.415l-.6,3.026a.886.886,0,0,0,.844,1.108l4.734-.215,2.316-.106c.747-.034,1.526-.021,1.973-.727a5.993,5.993,0,0,0,.514-1.958l.323-1.563c.032,0,.062.007.1.006a74.451,74.451,0,0,1,10.3.336,127.365,127.365,0,0,1-2.174,14.668" transform="translate(-7.559 -25.292)" fill="#fff"/>
          <path id="Path_211213" data-name="Path 211213" d="M110.363,15.6a3.535,3.535,0,0,0-.108.512,10.842,10.842,0,0,1-1.516.051l-2.014.092-2.954.134,1.633-8.181,6.367.567-.721,3.493-.445,2.156q-.122.588-.243,1.176" transform="translate(-80.819 -6.392)" fill="#fff"/>
          <path id="Path_211214" data-name="Path 211214" d="M116.045,155.821a4.687,4.687,0,0,0,2.638,1.255,25.076,25.076,0,0,1-7.774,3.215c.5-.286,1-.6,1.487-.939a15.871,15.871,0,0,0,3.649-3.531" transform="translate(-86.377 -121.355)" fill="#fff"/>
          <path id="Path_211215" data-name="Path 211215" d="M39.962,22.237a58.269,58.269,0,0,1-1.8,6.958,9.85,9.85,0,0,1-1.821,3.355c-.211.206-.427.406-.645.6a4.187,4.187,0,0,1-.868.525c-1.521.676-3.65.455-4.413-1.188a.883.883,0,0,0-1.512,0c-2.4,3.932-6.721,6.185-11.157,6.994l-.181.031-.064,0a.817.817,0,0,0-.425.082c-4.989.746-10.09-.286-14.926-1.569A99.163,99.163,0,0,0,12.114,8.077a32.189,32.189,0,0,0,9.524-.415l-.6,3.026a.886.886,0,0,0,.844,1.108l4.734-.215,2.316-.106c.747-.034,1.526-.021,1.973-.727a5.99,5.99,0,0,0,.514-1.958l.323-1.563a.956.956,0,0,0,.1.006,74.414,74.414,0,0,1,10.3.337,127.367,127.367,0,0,1-2.174,14.667M43.086,5.919A74.466,74.466,0,0,0,32.1,5.475l.752-3.642c0-.013,0-.025,0-.038a.793.793,0,0,0,.027-.194.894.894,0,0,0-.875-.875L23.883,0a.876.876,0,0,0-.844.643L22.01,5.8a30.868,30.868,0,0,1-10.619.439.87.87,0,0,0-.844.643A97.786,97.786,0,0,1,.11,38.146a.886.886,0,0,0,.523,1.286c5.395,1.475,11.36,2.656,16.941,1.835a26.692,26.692,0,0,0,20.042-7.518.889.889,0,0,0,.173-.238,8.5,8.5,0,0,0,.766-1.038,23.622,23.622,0,0,0,2.468-7.038c.7-2.86,1.264-5.752,1.723-8.661.522-3.311.913-6.642,1.215-9.98.046-.509-.441-.825-.875-.875M29.545,9.206a3.563,3.563,0,0,0-.108.512,10.844,10.844,0,0,1-1.516.051l-2.014.092L22.953,10l1.633-8.181,6.367.567-.721,3.493L29.787,8.03l-.243,1.176m.124,25.259a4.687,4.687,0,0,0,2.638,1.255,25.076,25.076,0,0,1-7.774,3.215c.5-.286,1-.6,1.487-.939a15.87,15.87,0,0,0,3.649-3.531" transform="translate(0 0.001)" fill="#161615"/>
          <path id="Path_211216" data-name="Path 211216" d="M83.175,80.561,64.73,79.8c-1.127-.047-1.125,1.7,0,1.751l18.445.762c1.127.046,1.125-1.7,0-1.751" transform="translate(-49.755 -62.147)" fill="#161615"/>
          <path id="Path_211217" data-name="Path 211217" d="M77.659,110.4a113.237,113.237,0,0,0-17.967.009c-1.115.089-1.125,1.841,0,1.751a113.263,113.263,0,0,1,17.967-.009c1.123.089,1.118-1.662,0-1.751" transform="translate(-45.834 -85.71)" fill="#161615"/>
          <path id="Path_211218" data-name="Path 211218" d="M59.921,138.884a23.245,23.245,0,0,1-7.262-.325.9.9,0,0,0-1.077.611.884.884,0,0,0,.611,1.077,24.757,24.757,0,0,0,7.727.388.9.9,0,0,0,.875-.875.881.881,0,0,0-.875-.875" transform="translate(-40.151 -107.895)" fill="#161615"/>
        </g>
      </g>
      <g id="Group_983767" data-name="Group 983767" transform="matrix(0.899, -0.438, 0.438, 0.899, 964.663, 298.544)">
        <g id="Group_983765-2" data-name="Group 983765" transform="translate(0 0)" clip-path="url(#clip-path-2)">
          <path id="Path_211212-2" data-name="Path 211212" d="M11.88,47.529a58.311,58.311,0,0,0,1.8,6.958A9.854,9.854,0,0,0,15.5,57.842c.211.206.427.406.645.6a4.175,4.175,0,0,0,.869.526c1.521.676,3.65.455,4.413-1.188a.883.883,0,0,1,1.512,0c2.4,3.932,6.721,6.185,11.157,6.994l.181.031.064,0a.817.817,0,0,1,.425.082c4.989.746,10.09-.286,14.926-1.569a99.161,99.161,0,0,1-9.968-29.949,32.174,32.174,0,0,1-9.524-.415l.6,3.026a.886.886,0,0,1-.844,1.108l-4.734-.215-2.316-.106c-.747-.034-1.526-.021-1.973-.727a5.993,5.993,0,0,1-.514-1.958L20.1,32.519c-.032,0-.062.007-.1.006a74.452,74.452,0,0,0-10.3.336A127.364,127.364,0,0,0,11.88,47.529" transform="translate(-7.878 -25.292)" fill="#fff"/>
          <path id="Path_211213-2" data-name="Path 211213" d="M105.181,15.6a3.535,3.535,0,0,1,.108.512,10.843,10.843,0,0,0,1.516.051l2.014.092,2.954.134-1.633-8.181-6.367.567.721,3.493.445,2.156q.122.588.243,1.176" transform="translate(-90.761 -6.392)" fill="#fff"/>
          <path id="Path_211214-2" data-name="Path 211214" d="M113.547,155.821a4.687,4.687,0,0,1-2.638,1.255,25.077,25.077,0,0,0,7.774,3.215c-.5-.286-1-.6-1.487-.939a15.871,15.871,0,0,1-3.649-3.531" transform="translate(-99.25 -121.355)" fill="#fff"/>
          <path id="Path_211215-2" data-name="Path 211215" d="M4,22.237a58.269,58.269,0,0,0,1.8,6.958A9.85,9.85,0,0,0,7.626,32.55c.211.206.427.406.645.6a4.187,4.187,0,0,0,.868.525c1.521.676,3.65.455,4.413-1.188a.883.883,0,0,1,1.512,0c2.4,3.932,6.721,6.185,11.157,6.994l.181.031.064,0a.817.817,0,0,1,.425.082c4.989.746,10.09-.286,14.926-1.569A99.162,99.162,0,0,1,31.85,8.077a32.189,32.189,0,0,1-9.524-.415l.6,3.026a.886.886,0,0,1-.844,1.108l-4.734-.215-2.316-.106c-.747-.034-1.526-.021-1.973-.727a5.99,5.99,0,0,1-.514-1.958l-.323-1.563a.956.956,0,0,1-.1.006,74.416,74.416,0,0,0-10.3.337A127.367,127.367,0,0,0,4,22.237M.878,5.919a74.467,74.467,0,0,1,10.986-.444l-.752-3.642c0-.013,0-.025,0-.038a.793.793,0,0,1-.027-.194.894.894,0,0,1,.875-.875L20.081,0a.876.876,0,0,1,.844.643L21.955,5.8a30.869,30.869,0,0,0,10.619.439.87.87,0,0,1,.844.643A97.786,97.786,0,0,0,43.854,38.146a.886.886,0,0,1-.523,1.286c-5.395,1.475-11.36,2.656-16.941,1.835A26.693,26.693,0,0,1,6.348,33.749a.889.889,0,0,1-.173-.238,8.5,8.5,0,0,1-.766-1.038A23.622,23.622,0,0,1,2.94,25.435c-.7-2.86-1.264-5.752-1.723-8.661C.695,13.463.3,10.132,0,6.794c-.046-.509.441-.825.875-.875M14.42,9.206a3.563,3.563,0,0,1,.108.512,10.844,10.844,0,0,0,1.516.051l2.014.092L21.011,10,19.378,1.815l-6.367.567.721,3.493.445,2.156.243,1.176M14.3,34.465a4.687,4.687,0,0,1-2.638,1.255,25.076,25.076,0,0,0,7.774,3.215c-.5-.286-1-.6-1.487-.939A15.871,15.871,0,0,1,14.3,34.465" transform="translate(0 0.001)" fill="#161615"/>
          <path id="Path_211216-2" data-name="Path 211216" d="M64.73,80.561,83.175,79.8c1.127-.047,1.125,1.7,0,1.751l-18.445.762c-1.127.046-1.125-1.7,0-1.751" transform="translate(-54.186 -62.147)" fill="#161615"/>
          <path id="Path_211217-2" data-name="Path 211217" d="M59.692,110.4a113.239,113.239,0,0,1,17.967.009c1.115.089,1.125,1.841,0,1.751a113.265,113.265,0,0,0-17.967-.009c-1.123.089-1.118-1.662,0-1.751" transform="translate(-47.552 -85.71)" fill="#161615"/>
          <path id="Path_211218-2" data-name="Path 211218" d="M52.43,138.884a23.245,23.245,0,0,0,7.262-.325.9.9,0,0,1,1.077.611.884.884,0,0,1-.611,1.077,24.758,24.758,0,0,1-7.727.388.9.9,0,0,1-.875-.875.881.881,0,0,1,.875-.875" transform="translate(-28.236 -107.895)" fill="#161615"/>
        </g>
      </g>
    </g>
    <g id="Group_984303" data-name="Group 984303" transform="translate(977.832 506.96)">
      <g id="Group_983769" data-name="Group 983769" clip-path="url(#clip-path-3)">
        <path id="Path_211219" data-name="Path 211219" d="M57.11,22.107a18.485,18.485,0,0,0-3.963,3.257,23.344,23.344,0,0,0-1.7,2.079,2.085,2.085,0,0,0-.57,1.1,3.77,3.77,0,0,0,.094.648,13.233,13.233,0,0,1-2.924,10.231c-3.775,4.445-9.855,6.177-15.442,6.815-5.929.676-12.86.873-18.217-2.21a12.48,12.48,0,0,1-6.03-9,30.1,30.1,0,0,1-.378-4.787,28.528,28.528,0,0,1,.556-5.855A19.626,19.626,0,0,1,15,13.058C19.659,9.183,26.264,7.83,32.187,8.076a20.4,20.4,0,0,1,13.04,5.088,18.644,18.644,0,0,1,4.455,6.111l0,.006.027.069c.012.03.024.061.035.092a.939.939,0,0,0,1.541.407c2.67-2.081,6.374-1.732,9.43-.86a25.587,25.587,0,0,1,2.466.84,18.25,18.25,0,0,0-6.074,2.28" transform="translate(-6.124 -6.172)" fill="#fff"/>
        <path id="Path_211220" data-name="Path 211220" d="M60.949,14.783a.938.938,0,0,0,.116-1.081.753.753,0,0,0-.475-.4c-4.506-2.6-10.931-4.4-15.665-1.651a19.492,19.492,0,0,0-2.278-3.546,20.876,20.876,0,0,0-9.5-6.752,28.98,28.98,0,0,0-17.666.05A21.025,21.025,0,0,0,3.576,10.189a25.114,25.114,0,0,0-3.5,11.745A25.766,25.766,0,0,0,1.146,32c3.813,10.725,17.3,11.057,26.74,9.725,5.4-.762,11.105-2.584,14.918-6.693a15.01,15.01,0,0,0,4-10.4,16.225,16.225,0,0,0-.164-2.036,17.767,17.767,0,0,1,6.106-5.544,17.97,17.97,0,0,1,7.491-1.94.832.832,0,0,0,.556-.184c.01-.008.022-.015.032-.023s.029-.029.043-.043a.908.908,0,0,0,.08-.082m-9.963,1.151a18.485,18.485,0,0,0-3.963,3.257,23.345,23.345,0,0,0-1.7,2.079,2.085,2.085,0,0,0-.57,1.1,3.77,3.77,0,0,0,.094.648,13.233,13.233,0,0,1-2.924,10.231c-3.775,4.445-9.855,6.177-15.442,6.815-5.929.676-12.86.873-18.217-2.21a12.48,12.48,0,0,1-6.03-9,30.1,30.1,0,0,1-.378-4.787,28.528,28.528,0,0,1,.556-5.855A19.626,19.626,0,0,1,8.879,6.885C13.535,3.011,20.14,1.658,26.063,1.9A20.4,20.4,0,0,1,39.1,6.991,18.644,18.644,0,0,1,43.559,13.1l0,.006.027.069c.012.03.024.061.035.092a.939.939,0,0,0,1.541.407c2.67-2.081,6.374-1.732,9.43-.86a25.587,25.587,0,0,1,2.466.84,18.25,18.25,0,0,0-6.074,2.28" transform="translate(0 0)" fill="#161615"/>
        <path id="Path_211221" data-name="Path 211221" d="M64.045,140.9c8.123.63,11.043,15.813,5.787,25.741s-22.191,8.759-29.2,8.759S27.2,183.573,27.2,183.573c-1.168-8.759,5.84-11.679,5.84-11.679-11.679-11.679-3.058-24.414-3.058-24.414s4.81,4.56,19.409,1.64S64.045,140.9,64.045,140.9" transform="translate(-20.648 -108.066)" fill="#161615"/>
        <path id="Path_211222" data-name="Path 211222" d="M61.045,138.768c4.9.433,6.863,6.53,7.339,10.609a25.209,25.209,0,0,1-.488,8.688,16.375,16.375,0,0,1-3.6,7.5c-3.556,3.8-9.138,5.042-14.116,5.559a74.141,74.141,0,0,1-7.7.34,41.82,41.82,0,0,0-6.568.108,18.236,18.236,0,0,0-8.619,4.5,27.125,27.125,0,0,0-3.743,3.8l1.574.652A10.539,10.539,0,0,1,27.38,172a9.771,9.771,0,0,1,2.051-1.768c.242-.155.49-.3.746-.434.109-.056.586-.266.11-.066a.936.936,0,0,0,.407-1.541,18.734,18.734,0,0,1-5.851-12.877,19.624,19.624,0,0,1,2.043-8.82,13.608,13.608,0,0,1,.894-1.6l-1.448.187a8.854,8.854,0,0,0,2.942,1.621,24.1,24.1,0,0,0,9.17,1.25,48.182,48.182,0,0,0,14.871-2.8c2.581-.938,5.349-2.194,7.191-4.312a5.085,5.085,0,0,0,1.459-2.991.923.923,0,0,0-1.845,0c0,.2.022-.109.016-.088-.035.127-.058.258-.095.386-.016.055-.125.338-.06.179s-.092.191-.124.253a5.617,5.617,0,0,1-.482.752c.1-.136-.184.219-.256.3-.151.168-.309.329-.473.484a9.571,9.571,0,0,1-1.133.921,18.962,18.962,0,0,1-3.856,2.023,45.967,45.967,0,0,1-13.887,2.991,25.244,25.244,0,0,1-9.273-.867,9.542,9.542,0,0,1-2.274-1c-.2-.118-.384-.248-.571-.381.181.129.1.088-.018-.023a.937.937,0,0,0-1.448.187,19.217,19.217,0,0,0-2.356,5.366,19.58,19.58,0,0,0,.3,12.183,22.6,22.6,0,0,0,5.255,7.983l.407-1.541a10.657,10.657,0,0,0-3.809,2.842,12.254,12.254,0,0,0-2.708,9.726c.085.678,1.016,1.36,1.574.652a26.8,26.8,0,0,1,3.28-3.4,17.59,17.59,0,0,1,7.588-4.3c2.208-.491,4.665-.169,6.914-.171a72.046,72.046,0,0,0,7.905-.378c5.352-.594,11.237-1.979,15.06-6.06a17.8,17.8,0,0,0,3.925-7.727,26.678,26.678,0,0,0,.743-9.385c-.534-5.319-3.009-12.287-9.225-12.837-1.182-.1-1.175,1.741,0,1.845" transform="translate(-17.647 -105.015)" fill="#161615"/>
        <path id="Path_211223" data-name="Path 211223" d="M55.367,92.176v.195A1.58,1.58,0,0,0,56.9,93.908l.409-.055a1.537,1.537,0,0,0,.678-.4l.24-.311a1.53,1.53,0,0,0,.21-.776v-.195A1.58,1.58,0,0,0,56.9,90.639l-.408.055a1.535,1.535,0,0,0-.678.4l-.24.311a1.53,1.53,0,0,0-.21.776" transform="translate(-42.465 -69.518)" fill="#161615"/>
        <path id="Path_211224" data-name="Path 211224" d="M94.672,88.7a1.538,1.538,0,0,0,0-3.074,1.538,1.538,0,0,0,0,3.074" transform="translate(-71.473 -65.676)" fill="#161615"/>
        <path id="Path_211225" data-name="Path 211225" d="M130.418,83.688h.195a1.58,1.58,0,0,0,1.537-1.537l-.055-.409a1.536,1.536,0,0,0-.4-.678l-.311-.24a1.53,1.53,0,0,0-.776-.21h-.195a1.58,1.58,0,0,0-1.537,1.537l.055.408a1.535,1.535,0,0,0,.4.678l.311.24a1.529,1.529,0,0,0,.776.21" transform="translate(-98.849 -61.829)" fill="#161615"/>
        <path id="Path_211226" data-name="Path 211226" d="M74.622,214.845a1.538,1.538,0,0,0,0-3.074,1.538,1.538,0,0,0,0,3.074" transform="translate(-56.095 -162.425)" fill="#fff"/>
        <path id="Path_211227" data-name="Path 211227" d="M118.723,206.488h.195a1.58,1.58,0,0,0,1.537-1.537l-.055-.409a1.536,1.536,0,0,0-.4-.678l-.311-.24a1.53,1.53,0,0,0-.776-.21h-.195a1.58,1.58,0,0,0-1.537,1.537l.055.408a1.536,1.536,0,0,0,.4.678l.311.24a1.529,1.529,0,0,0,.776.21" transform="translate(-89.879 -156.015)" fill="#fff"/>
        <path id="Path_211228" data-name="Path 211228" d="M154.644,201.476h.195a1.58,1.58,0,0,0,1.537-1.537l-.055-.409a1.537,1.537,0,0,0-.4-.678l-.311-.24a1.53,1.53,0,0,0-.776-.21h-.195a1.58,1.58,0,0,0-1.537,1.537l.055.408a1.536,1.536,0,0,0,.4.678l.311.24a1.53,1.53,0,0,0,.776.21" transform="translate(-117.43 -152.171)" fill="#fff"/>
        <path id="Path_211229" data-name="Path 211229" d="M184.237,220.347a9.079,9.079,0,0,1-3.6,6.665.95.95,0,0,0-.331,1.262.929.929,0,0,0,1.262.331,11.021,11.021,0,0,0,4.51-8.258.922.922,0,0,0-1.845,0" transform="translate(-138.2 -168.296)" fill="#fff"/>
        <path id="Path_211230" data-name="Path 211230" d="M166.78,258.13v-.195a.948.948,0,0,0-.922-.922l-.245.033a.923.923,0,0,0-.407.237l-.144.187a.92.92,0,0,0-.126.466v.195a.948.948,0,0,0,.922.922l.245-.033a.921.921,0,0,0,.407-.237l.144-.187a.917.917,0,0,0,.126-.465" transform="translate(-126.503 -197.125)" fill="#fff"/>
        <path id="Path_211231" data-name="Path 211231" d="M25.312,55.735a14.421,14.421,0,0,0-2.56,7.958.923.923,0,0,0,1.845,0A12.675,12.675,0,0,1,26.9,56.665a.931.931,0,0,0-.331-1.262.941.941,0,0,0-1.262.331" transform="translate(-17.451 -42.398)" fill="#161615"/>
        <path id="Path_211232" data-name="Path 211232" d="M43.805,44.914v.195a.948.948,0,0,0,.922.922L44.973,46a.921.921,0,0,0,.407-.237l.144-.187a.917.917,0,0,0,.126-.466v-.195a.948.948,0,0,0-.922-.922l-.245.033a.922.922,0,0,0-.407.237l-.144.187a.919.919,0,0,0-.126.466" transform="translate(-33.597 -33.74)" fill="#161615"/>
      </g>
    </g>
    <g id="Group_984304" data-name="Group 984304" transform="translate(1257.401 466.087)">
      <g id="Group_983761" data-name="Group 983761" clip-path="url(#clip-path-4)">
        <path id="Path_211192" data-name="Path 211192" d="M66.793,180.87a423.866,423.866,0,0,1,41.278-12.3q6.956-1.724,13.957-3.258v1.107a1.369,1.369,0,0,0-.3.049q-27.342,7.678-54.938,14.406" transform="translate(-39.546 -97.874)" fill="#fff"/>
        <path id="Path_211193" data-name="Path 211193" d="M100.042,184.782q-2.283.512-4.565,1.028,21.844-5.489,43.534-11.57v1.845q-19.488,4.332-38.969,8.7" transform="translate(-56.529 -103.161)" fill="#fff"/>
        <path id="Path_211194" data-name="Path 211194" d="M111.673,156.664c0,.331-.007.662-.01.993a462.029,462.029,0,0,0-52.724,14.589q-4.858,1.685-9.659,3.526c1.739-.92,3.53-1.748,5.332-2.519,4.459-1.91,9.01-3.627,13.582-5.247a263.939,263.939,0,0,1,28.2-8.258q7.591-1.771,15.277-3.083" transform="translate(-29.177 -92.755)" fill="#fff"/>
        <path id="Path_211195" data-name="Path 211195" d="M20.912,47.057l.05,0c.062.018.121.038.148.045s.052.018.078.027l.054.028c.1.073.3.286.041.011.108.117.218.222.317.348a1.616,1.616,0,0,0,2.283,0,1.665,1.665,0,0,0,0-2.283,3.763,3.763,0,0,0-3.248-1.415q-.6-6.945-1.193-13.89c.136.076.268.157.4.241l.029.02c.066.056.13.113.193.173a1.614,1.614,0,0,0,2.283-2.283,6.648,6.648,0,0,0-3.2-1.614q-.224-2.6-.448-5.208C36.953,15.74,55.561,10.42,74.6,8.553a127.916,127.916,0,0,1,12.984-.63l2.632,25.883L93.422,65.36a261.452,261.452,0,0,0-57.3,16.51A58.491,58.491,0,0,0,24.442,88.1c-.036-.42-.077-.84-.113-1.259q-.41-4.771-.82-9.542c.045-.026.088-.054.135-.079a2.243,2.243,0,0,1,.647-.26c.164-.05.33-.092.5-.126.049-.01.18-.026.224-.032.148-.011.3-.019.444-.018,0,0,.325.021.319.012a4.261,4.261,0,0,1,.9.262,1.627,1.627,0,0,0,1.986-1.128,1.653,1.653,0,0,0-1.128-1.986,6.037,6.037,0,0,0-4.316-.021L22.24,62.516c.066-.012.161-.026.206-.033.16-.015.321-.028.482-.031.193,0,.383.012.575.018h.072l.069.017a7.092,7.092,0,0,1,1.1.33,1.625,1.625,0,0,0,1.986-1.128A1.654,1.654,0,0,0,25.605,59.7a7.041,7.041,0,0,0-3.642-.405L20.912,47.057" transform="translate(-11.07 -4.69)" fill="#fff"/>
        <path id="Path_211196" data-name="Path 211196" d="M85.692,61.761c-.236-3.458-.7-6.917-1.054-10.365q-2-19.711-4.009-39.422Q80.1,6.8,79.577,1.631A1.655,1.655,0,0,0,77.962.016c-18.577-.3-37,3.829-54.819,8.7-5.913,1.617-11.794,3.348-17.66,5.125a1.722,1.722,0,0,0-.191.08A1.317,1.317,0,0,0,4.3,15.4q.278,3.24.556,6.48a6.217,6.217,0,0,0-2.939,1.765A7.308,7.308,0,0,0,0,28.389a7.043,7.043,0,0,0,1.769,4.762,7.5,7.5,0,0,0,4.258,2.42l.39,4.546a6.482,6.482,0,0,0-1.072.8,7.572,7.572,0,0,0-1.912,8.611,6.319,6.319,0,0,0,3.691,3.312,1.26,1.26,0,0,0,.391.062l.244,2.841A7.73,7.73,0,0,0,6.3,56.882a7.483,7.483,0,0,0-1.236,8.513A7.345,7.345,0,0,0,8.509,68.9a2.1,2.1,0,0,0,.38.13q.086,1.091.17,2.183a9.648,9.648,0,0,0-1.634,2.145,8.018,8.018,0,0,0-1.243,5.516A8.262,8.262,0,0,0,9.2,83a1.877,1.877,0,0,0,.913.429c.042.405.083.811.128,1.215a5.965,5.965,0,0,0,4.726,4.915c4.344,1.168,8.983-.2,13.233-1.172q5.7-1.3,11.414-2.58Q53.5,82.68,67.4,79.587q8.563-1.909,17.128-3.813a1.634,1.634,0,0,0,1.185-1.557c0-4.127.261-8.339-.019-12.455m-3.2,2.148c0,.331-.007.662-.01.993A462.109,462.109,0,0,0,29.762,79.491Q24.9,81.177,20.1,83.017c1.739-.919,3.53-1.747,5.332-2.519,4.459-1.91,9.01-3.627,13.582-5.247a264.03,264.03,0,0,1,28.2-8.258Q74.81,65.221,82.5,63.909M27.247,83a423.857,423.857,0,0,1,41.278-12.3q6.956-1.724,13.957-3.258v1.107a1.352,1.352,0,0,0-.3.049Q54.843,76.269,27.247,83M4.871,31.645c.007,0-.277-.223-.315-.257q-.213-.2-.406-.412c-.049-.055-.1-.111-.144-.168l-.051-.07c-.1-.163-.21-.321-.3-.49-.024-.044-.157-.35-.174-.37-.052-.147-.1-.293-.142-.444-.013-.048-.062-.328-.078-.384a6.726,6.726,0,0,1-.006-1.014l0-.016q.022-.128.049-.255c.041-.185.091-.368.149-.547.028-.085.058-.169.089-.253l.009-.02c.085-.168.169-.337.266-.5.024-.039.195-.281.218-.326.1-.119.2-.236.309-.344.033-.032.259-.225.292-.262a4.557,4.557,0,0,1,.392-.254c.016-.009.06-.029.112-.053q.3,3.468.6,6.936c-.027-.011-.038-.013-.034-.01-.144-.071-.287-.142-.425-.223s-.273-.173-.405-.264M9.842,42.356l.026.006-.026,0v0m-2.667,6.88c-.1-.092-.2-.189-.293-.29-.055-.059-.108-.12-.159-.182L6.7,48.737c-.075-.117-.154-.23-.224-.35s-.142-.273-.213-.41c-.027-.072-.053-.144-.077-.216q-.064-.2-.112-.4a3.174,3.174,0,0,0-.057-.367,6.568,6.568,0,0,1,.01-.855c.011-.056.034-.206.045-.257.038-.174.084-.346.137-.515.013-.041.1-.282.115-.333.062-.138.128-.275.2-.408s.159-.283.246-.421l.434,5.059-.032-.027m2.668-6.87.05,0,.148.045c.027.008.052.018.078.027l.054.028c.1.073.3.286.041.011.108.117.219.222.317.348a1.616,1.616,0,0,0,2.283,0,1.665,1.665,0,0,0,0-2.283,3.763,3.763,0,0,0-3.248-1.415q-.6-6.945-1.193-13.89c.136.076.268.157.4.241l.028.02c.066.056.13.113.193.173a1.614,1.614,0,1,0,2.283-2.283,6.646,6.646,0,0,0-3.2-1.614q-.223-2.6-.447-5.208c18.256-5.52,36.864-10.84,55.9-12.706a127.918,127.918,0,0,1,12.984-.63q1.316,12.942,2.632,25.883l3.209,31.554a261.431,261.431,0,0,0-57.3,16.51,58.468,58.468,0,0,0-11.684,6.23c-.036-.42-.077-.84-.113-1.259q-.409-4.772-.82-9.542c.045-.026.088-.054.135-.079a2.251,2.251,0,0,1,.647-.26c.164-.049.33-.091.5-.126.049-.01.18-.026.225-.032.148-.011.3-.019.444-.017,0,0,.325.021.319.012a4.286,4.286,0,0,1,.9.262,1.626,1.626,0,0,0,1.986-1.128,1.652,1.652,0,0,0-1.128-1.986,6.038,6.038,0,0,0-4.316-.021L11.17,57.826c.065-.012.161-.026.206-.033.16-.015.321-.028.482-.031.193,0,.383.011.575.018.034,0,.053,0,.072,0l.068.017a7.123,7.123,0,0,1,1.1.33A1.625,1.625,0,0,0,15.663,57a1.654,1.654,0,0,0-1.128-1.986,7.041,7.041,0,0,0-3.642-.406L9.843,42.367M8.2,64.4q-.15-.247-.277-.508c-.022-.045-.067-.157-.09-.213-.121-.345-.208-.69-.3-1.045-.009-.034-.016-.059-.021-.08s0-.038,0-.062c-.014-.192-.029-.383-.03-.576s.013-.382.026-.574c0-.029,0-.044,0-.061s.013-.041.022-.078c.049-.186.084-.373.142-.558.012-.038.1-.268.128-.349.044-.079.153-.292.171-.324.043-.074.093-.143.14-.214q.221,2.575.442,5.15c-.025-.029-.051-.058-.075-.088l-.042-.058c-.079-.121-.162-.239-.237-.363m1.14,13.772c-.007-.027-.044-.218-.06-.284,0-.089,0-.353,0-.419a5.466,5.466,0,0,1,.2-.807l0-.011q.09,1.109.187,2.218a2.463,2.463,0,0,1-.335-.7m34.177,3.445q-2.283.512-4.565,1.028,21.844-5.489,43.534-11.57v1.845q-19.488,4.332-38.969,8.7" transform="translate(0 0)" fill="#161615"/>
        <path id="Path_211197" data-name="Path 211197" d="M53.842,66.722q-.13-4.632-.071-9.265a64.892,64.892,0,0,0,4.439,8.088c.7,1.081,2.664,1.055,2.951-.385q1.9-9.524,3.342-19.131a1.669,1.669,0,0,0-1.128-1.986,1.625,1.625,0,0,0-1.986,1.128q-1.14,7.584-2.567,15.12A61.91,61.91,0,0,1,53.94,49.039a1.622,1.622,0,0,0-3.171.43q-.4,8.621-.156,17.253c.059,2.074,3.288,2.082,3.229,0" transform="translate(-29.911 -26.045)" fill="#161615"/>
        <path id="Path_211198" data-name="Path 211198" d="M91.275,61.2c2.262,1.157,4.435-.453,5.519-2.418a18.238,18.238,0,0,0,2.155-8.411,5.7,5.7,0,0,0,1.633-1.352,1.661,1.661,0,0,0,0-2.283,1.7,1.7,0,0,0-2-.244,14.893,14.893,0,0,0-.667-2.283c-.768-1.985-2.326-3.965-4.622-3.913a1.529,1.529,0,0,0-2.188.528A22.329,22.329,0,0,0,88.32,55.383c.313,2.09.885,4.757,2.955,5.816m1.131-3.238a9.279,9.279,0,0,1-1.066-4.382,19.4,19.4,0,0,1,.145-4.236,5.68,5.68,0,0,0,2.574,1.6,6.1,6.1,0,0,0,1.6.24,14.722,14.722,0,0,1-1.539,5.74c-.341.666-1.035,2.018-1.718,1.035m.917-14.453h0m.181-.1c.04-.1.039-.059,0,0m1.852,3.569c.068.31.122.623.17.939a2.626,2.626,0,0,1-2.4-2.129,3.127,3.127,0,0,1,.018-1.505c.07-.256.222-.46.3-.7l.013-.04a.731.731,0,0,1,.187.044c1.124.47,1.489,2.375,1.712,3.395" transform="translate(-52.145 -23.708)" fill="#161615"/>
        <path id="Path_211199" data-name="Path 211199" d="M116.594,40.253c.263-.143.528-.279.8-.407.14-.066.281-.136.426-.193l.128-.049c.026-.01.053-.018.078-.028q.181,7.609.363,15.218c.049,2.075,3.279,2.082,3.229,0q-.191-8.029-.382-16.059c.058-.009.061-.009,0,0,0-.005,0-.011,0-.016a5.072,5.072,0,0,1,.764-.051c.3-.019.6-.028.9-.03a1.615,1.615,0,1,0,0-3.229,16.862,16.862,0,0,0-7.929,2.056,1.63,1.63,0,0,0-.579,2.209,1.649,1.649,0,0,0,2.209.579" transform="translate(-67.593 -20.964)" fill="#161615"/>
        <path id="Path_211200" data-name="Path 211200" d="M146.041,45.366l.12,3.213c.044,1.182.149,2.441,1.313,3.078a4.76,4.76,0,0,0,2.821.308,14.183,14.183,0,0,0,3.286-.737,1.657,1.657,0,0,0,1.128-1.986,1.629,1.629,0,0,0-1.986-1.128,12.656,12.656,0,0,1-2.062.564c-.352.063-.886.051-1.263.087-.014-.354-.027-.709-.04-1.063l-.093-2.483q-.02-.518-.039-1.037l5.015-.921a1.626,1.626,0,0,0,.965-.742,1.615,1.615,0,0,0-1.823-2.372l-4.278.785-.015-.388q-.043-1.168-.087-2.337l-.04-1.075,4.619-.905a1.624,1.624,0,0,0,1.128-1.986,1.656,1.656,0,0,0-1.986-1.128l-4.535.889a2.116,2.116,0,0,0-2.251,1.449,8.015,8.015,0,0,0-.148,3.193q.125,3.359.251,6.718" transform="translate(-86.265 -19.584)" fill="#161615"/>
        <path id="Path_211201" data-name="Path 211201" d="M52.83,102.562Q77.222,96.7,101.467,90.251a1.616,1.616,0,0,0-.858-3.114Q76.365,93.586,51.972,99.449c-2.02.485-1.165,3.6.858,3.114" transform="translate(-30.088 -51.555)" fill="#161615"/>
      </g>
    </g>
    <g id="Group_983532" data-name="Group 983532" transform="translate(1105.001 540.828)">
      <g id="Group_81065" data-name="Group 81065" transform="translate(2.041 2.042)" style="mix-blend-mode: overlay;isolation: isolate">
        <path id="Path_115015" data-name="Path 115015" d="M192.082,217.238c-4.148,4.245-8.435,8.334-12.8,12.35,1.889-4.271,3.925-8.473,5.719-12.789,2.033-4.892,4.4-11.561,1.833-16.693-5.841-11.7-20.607-.22-26.04,5.668-.579.628-1.131,1.283-1.691,1.93,1.942-4.755,3.689-9.64,3.228-14.777-.635-7.063-7.109-8.757-12.684-5.475-5.986,3.523-10.794,9.62-14.808,15.157-3.41,4.7,4.392,9.18,7.775,4.544a61.162,61.162,0,0,1,6.078-7.109q-.484.887-.979,1.771a131.971,131.971,0,0,0-6.112,11.909c-3.4,7.852-8.435,18.722-4.154,26.981,2.158,4.162,7.217,4.585,11.026,2.891,5.12-2.277,8.667-7.3,12.086-11.556,3.569-4.441,6.712-9.157,10.016-13.791a67.114,67.114,0,0,1,4.34-5.681c.036-.041.074-.079.11-.12l-.04.125c-.877,2.728-2.005,5.345-3.148,7.97-2.125,4.883-4.866,10.022-5.645,15.335-.688,4.7,1.214,9.963,6.864,9.622,5.312-.32,9.568-5.436,13.119-8.853,4.3-4.138,8.523-8.358,12.747-12.573C203.33,219.673,196.439,212.78,192.082,217.238Z" transform="translate(-133.12 -184.98)" fill="#3c384f"/>
        <path id="Path_115016" data-name="Path 115016" d="M172.407,246.238a6.75,6.75,0,0,1-5.141-2.134c-1.789-1.948-2.562-5.122-2.069-8.49.643-4.39,2.558-8.6,4.409-12.661.443-.974.883-1.938,1.3-2.892.393-.9.808-1.855,1.218-2.839q-.377.526-.747,1.045l-.245.344q-1.288,1.806-2.552,3.621c-2.377,3.392-4.835,6.9-7.494,10.209-.388.483-.778.976-1.173,1.475-3.049,3.856-6.5,8.225-11.235,10.328-4.217,1.873-9.741,1.348-12.139-3.281-4.311-8.317.344-19.018,3.743-26.832l.386-.889c1-2.308,2.121-4.562,3.31-6.8q-.413.539-.811,1.085a5.731,5.731,0,0,1-8.088,1.124,4.544,4.544,0,0,1-1.08-6.682c4.285-5.911,9.077-11.867,15.069-15.394,3.325-1.957,6.965-2.275,9.738-.85,2.442,1.254,3.948,3.737,4.24,6.991a26.37,26.37,0,0,1-1.676,10.953c4.421-4.32,12.6-10.446,19.158-9.518,3.014.428,5.346,2.257,6.933,5.435,2.611,5.226.551,11.733-1.808,17.408-1.123,2.7-2.357,5.4-3.552,8l-.423.922c3.553-3.332,6.732-6.436,9.649-9.42h0a5.174,5.174,0,0,1,5.154-1.531,6.344,6.344,0,0,1,4.389,4.358,5.22,5.22,0,0,1-1.483,5.221l-.48.479c-4,3.992-8.135,8.119-12.278,12.105-.511.492-1.035,1.018-1.576,1.56-3.217,3.225-7.22,7.239-12.089,7.532C172.776,246.233,172.59,246.238,172.407,246.238Zm2.47-34.751a.813.813,0,0,1,.417.111.838.838,0,0,1,.406.977l-.04.126c-.92,2.86-2.119,5.616-3.177,8.048-.419.963-.863,1.936-1.31,2.918-1.8,3.957-3.664,8.049-4.272,12.2-.412,2.817.214,5.529,1.633,7.075a5.169,5.169,0,0,0,4.326,1.563c4.216-.255,7.806-3.854,10.974-7.03.549-.55,1.082-1.085,1.6-1.584,4.132-3.975,8.262-8.1,12.257-12.084l.48-.479a3.5,3.5,0,0,0,1.038-3.551,4.635,4.635,0,0,0-3.161-3.142,3.45,3.45,0,0,0-3.489,1.067h0c-3.769,3.855-7.968,7.9-12.839,12.381a.861.861,0,0,1-1.37-.982c.714-1.614,1.449-3.218,2.184-4.823,1.187-2.593,2.416-5.275,3.527-7.948,2.21-5.316,4.159-11.371,1.858-15.977-1.337-2.68-3.181-4.151-5.635-4.5-6.116-.866-14.716,5.722-19,10.367-.457.494-.9,1.007-1.338,1.521l-.333.388a.861.861,0,0,1-1.449-.888c1.849-4.529,3.616-9.37,3.167-14.376-.241-2.682-1.386-4.623-3.311-5.612-2.245-1.154-5.265-.853-8.078.8-5.719,3.367-10.372,9.161-14.548,14.921a2.855,2.855,0,0,0,.7,4.279,3.983,3.983,0,0,0,5.684-.747,62.353,62.353,0,0,1,6.163-7.21.861.861,0,0,1,1.366,1.02q-.487.891-.984,1.779a131.723,131.723,0,0,0-6.073,11.83l-.387.89c-3.262,7.5-7.727,17.764-3.794,25.353,1.911,3.686,6.433,4.046,9.912,2.5,4.342-1.93,7.515-5.942,10.583-9.822.4-.5.79-1,1.182-1.485,2.623-3.264,5.064-6.749,7.425-10.119q1.273-1.818,2.56-3.633l.245-.343a64.068,64.068,0,0,1,4.154-5.411l.077-.084A.94.94,0,0,1,174.877,211.487Zm17.065,5.611h0Z" transform="translate(-132.979 -184.841)" fill="#3c384f"/>
        <path id="Path_115017" data-name="Path 115017" d="M142.218,223.2c-3.172,6.375-4.962,13.849-2.175,20.7.412,1.013,2.078.57,1.66-.458-2.616-6.434-.982-13.378,2-19.374C144.2,223.084,142.712,222.21,142.218,223.2Z" transform="translate(-133.769 -190.112)" fill="#3c384f"/>
        <path id="Path_115018" data-name="Path 115018" d="M145.4,243.628c-.015,0-.028-.006-.042-.009-.024-.046-.046-.1-.053-.111l0-.005c0-.007,0,0,0-.012-.111-.385-.19-.774-.275-1.166q-.292-1.363-.585-2.725a.867.867,0,0,0-1.059-.6.881.881,0,0,0-.6,1.059q.331,1.541.662,3.082c.183.855.477,1.977,1.5,2.148a.882.882,0,0,0,1.059-.6A.871.871,0,0,0,145.4,243.628Z" transform="translate(-134.338 -192.363)" fill="#3c384f"/>
        <path id="Path_115019" data-name="Path 115019" d="M189.448,201.705c-.977-.522-1.848.964-.869,1.487a3.985,3.985,0,0,1,1.818,3.633,24.9,24.9,0,0,1-.388,4.936,32.761,32.761,0,0,1-2.989,9.249c-.492.989.993,1.862,1.487.869a34.459,34.459,0,0,0,3.342-10.893C192.255,207.884,192.741,203.463,189.448,201.705Z" transform="translate(-140.477 -187.169)" fill="#3c384f"/>
      </g>
      <g id="Group_81068" data-name="Group 81068" transform="translate(0 0)">
        <g id="Group_81067" data-name="Group 81067">
          <g id="Group_81066" data-name="Group 81066">
            <path id="Path_115020" data-name="Path 115020" d="M189.711,214.866c-4.148,4.245-8.435,8.334-12.8,12.35,1.889-4.27,3.926-8.473,5.72-12.788,2.033-4.892,4.4-11.561,1.833-16.693-5.841-11.7-20.607-.22-26.04,5.668-.579.627-1.131,1.282-1.691,1.93,1.941-4.755,3.689-9.64,3.228-14.777-.635-7.063-7.109-8.757-12.684-5.476-5.987,3.524-10.794,9.621-14.809,15.158-3.41,4.7,4.393,9.18,7.776,4.544a61.234,61.234,0,0,1,6.077-7.11q-.484.887-.978,1.772a132.09,132.09,0,0,0-6.112,11.908c-3.4,7.852-8.435,18.722-4.154,26.982,2.158,4.162,7.216,4.585,11.026,2.891,5.12-2.277,8.667-7.3,12.086-11.556,3.569-4.441,6.712-9.157,10.015-13.791a67.638,67.638,0,0,1,4.34-5.682c.036-.04.075-.078.111-.12l-.04.126c-.877,2.728-2.006,5.345-3.148,7.97-2.126,4.882-4.866,10.021-5.645,15.335-.689,4.7,1.214,9.963,6.864,9.622,5.311-.32,9.568-5.436,13.118-8.853,4.3-4.138,8.524-8.359,12.748-12.574C200.958,217.3,194.067,210.409,189.711,214.866Z" transform="translate(-130.749 -182.609)" fill="#c4d1ff"/>
            <path id="Path_115021" data-name="Path 115021" d="M170.035,243.867a6.747,6.747,0,0,1-5.14-2.133c-1.789-1.948-2.562-5.122-2.069-8.49.642-4.389,2.557-8.595,4.409-12.661.443-.974.882-1.937,1.3-2.891.393-.9.808-1.856,1.218-2.839-.251.35-.5.7-.747,1.045l-.245.343c-.858,1.2-1.706,2.413-2.553,3.621-2.376,3.393-4.835,6.9-7.493,10.209-.388.484-.778.977-1.173,1.476-3.049,3.855-6.5,8.224-11.234,10.328-4.218,1.873-9.741,1.347-12.139-3.282-4.311-8.316.344-19.017,3.742-26.832l.387-.888c1-2.308,2.121-4.562,3.309-6.8q-.412.539-.811,1.084a5.73,5.73,0,0,1-8.087,1.125,4.544,4.544,0,0,1-1.08-6.682c4.285-5.911,9.077-11.867,15.068-15.395,3.326-1.956,6.965-2.274,9.739-.849,2.442,1.255,3.947,3.736,4.24,6.99A26.355,26.355,0,0,1,159,201.294c4.422-4.319,12.6-10.445,19.158-9.517,3.014.428,5.347,2.257,6.934,5.435,2.61,5.226.55,11.732-1.808,17.408-1.123,2.7-2.357,5.4-3.552,8l-.423.922c3.553-3.331,6.732-6.435,9.649-9.42h0a5.173,5.173,0,0,1,5.154-1.53,6.341,6.341,0,0,1,4.389,4.358,5.216,5.216,0,0,1-1.482,5.22l-.48.48c-4,3.992-8.135,8.119-12.278,12.105-.511.492-1.035,1.018-1.577,1.56-3.216,3.224-7.219,7.239-12.088,7.532C170.4,243.861,170.219,243.867,170.035,243.867Zm2.47-34.751a.811.811,0,0,1,.417.112.837.837,0,0,1,.407.977l-.04.126c-.92,2.859-2.119,5.616-3.177,8.048-.419.963-.863,1.936-1.31,2.918-1.8,3.957-3.665,8.049-4.273,12.2-.412,2.817.214,5.529,1.634,7.076a5.17,5.17,0,0,0,4.326,1.563c4.216-.255,7.806-3.854,10.973-7.03.549-.551,1.083-1.086,1.6-1.584,4.132-3.975,8.262-8.1,12.256-12.084l.48-.48a3.5,3.5,0,0,0,1.037-3.551,4.632,4.632,0,0,0-3.161-3.141,3.449,3.449,0,0,0-3.488,1.067h0c-3.769,3.855-7.968,7.9-12.839,12.382a.861.861,0,0,1-1.37-.982c.714-1.614,1.449-3.218,2.184-4.823,1.188-2.593,2.416-5.274,3.528-7.947,2.209-5.316,4.159-11.371,1.858-15.978-1.338-2.679-3.181-4.15-5.635-4.5-6.116-.865-14.717,5.723-19,10.367-.456.5-.9,1.008-1.337,1.521l-.334.389a.861.861,0,0,1-1.449-.889c1.849-4.528,3.617-9.37,3.168-14.375-.241-2.683-1.386-4.624-3.311-5.613-2.246-1.153-5.265-.852-8.078.8-5.72,3.367-10.372,9.161-14.548,14.921a2.853,2.853,0,0,0,.7,4.278,3.983,3.983,0,0,0,5.684-.747,62.2,62.2,0,0,1,6.163-7.21.861.861,0,0,1,1.366,1.019q-.487.892-.983,1.78a131.743,131.743,0,0,0-6.074,11.83l-.387.89c-3.261,7.5-7.726,17.765-3.793,25.352,1.911,3.687,6.433,4.047,9.912,2.5,4.342-1.93,7.515-5.943,10.583-9.822q.6-.753,1.181-1.486c2.624-3.263,5.064-6.748,7.426-10.118.849-1.212,1.7-2.425,2.56-3.633l.245-.342a64.087,64.087,0,0,1,4.153-5.411l.077-.084A.939.939,0,0,1,172.5,209.115Zm17.065,5.612h0Z" transform="translate(-130.608 -182.47)"/>
          </g>
          <path id="Path_115022" data-name="Path 115022" d="M139.847,220.832c-3.173,6.375-4.962,13.848-2.176,20.7.412,1.013,2.078.57,1.661-.458-2.617-6.434-.982-13.378,2-19.374C141.825,220.712,140.341,219.839,139.847,220.832Z" transform="translate(-131.398 -187.741)"/>
          <path id="Path_115023" data-name="Path 115023" d="M143.031,241.257c-.015,0-.028-.006-.042-.009-.024-.047-.046-.1-.054-.111l0-.005c0-.007,0,0,0-.013-.111-.384-.191-.774-.275-1.165q-.293-1.363-.585-2.725a.868.868,0,0,0-1.06-.6.881.881,0,0,0-.6,1.059l.661,3.082c.184.856.478,1.978,1.5,2.149a.883.883,0,0,0,1.059-.6A.872.872,0,0,0,143.031,241.257Z" transform="translate(-131.967 -189.992)"/>
          <path id="Path_115024" data-name="Path 115024" d="M187.077,199.334c-.977-.522-1.849.964-.869,1.487a3.987,3.987,0,0,1,1.818,3.633,24.909,24.909,0,0,1-.388,4.937,32.76,32.76,0,0,1-2.989,9.249c-.493.989.993,1.862,1.487.869a34.494,34.494,0,0,0,3.342-10.893C189.884,205.512,190.37,201.091,187.077,199.334Z" transform="translate(-138.106 -184.798)"/>
        </g>
      </g>
    </g>
  </g>
</svg>
