<svg id="Grupo_984262" data-name="Grupo 984262" xmlns="http://www.w3.org/2000/svg" xmlns:xlink="http://www.w3.org/1999/xlink" width="90" height="90" viewBox="0 0 90 90">
  <defs>
    <clipPath id="clip-path">
      <rect id="Rectángulo_38904" data-name="Rectángulo 38904" width="46.721" height="63.186" fill="none"/>
    </clipPath>
    <clipPath id="clip-path-3">
      <rect id="Rectángulo_38901" data-name="Rectángulo 38901" width="2.703" height="2.181" fill="none"/>
    </clipPath>
    <clipPath id="clip-path-4">
      <rect id="Rectángulo_38902" data-name="Rectángulo 38902" width="6.883" height="2.268" fill="none"/>
    </clipPath>
  </defs>
  <g id="Grupo_159043" data-name="Grupo 159043" transform="translate(0 0)">
    <circle id="Elipse_4780" data-name="Elipse 4780" cx="45" cy="45" r="45" transform="translate(0)" fill="#c4d1ff"/>
  </g>
  <g id="Grupo_162305" data-name="Grupo 162305" transform="translate(21.639 13.407)">
    <g id="Grupo_162304" data-name="Grupo 162304" transform="translate(0)" clip-path="url(#clip-path)">
      <g id="Grupo_162303" data-name="Grupo 162303" transform="translate(0 0)">
        <g id="Grupo_162302" data-name="Grupo 162302" clip-path="url(#clip-path)">
          <path id="Trazado_143571" data-name="Trazado 143571" d="M41.047,6.184C28.6-3.246,10.732-2.3,4.148,11.859a19.033,19.033,0,0,0-1.192,3.314c-1.878,7.345,1.282,10.013.566,12.985a52.286,52.286,0,0,0-1.306,6.223,42.85,42.85,0,0,1-.923,5.087C.934,40.962.461,42.44.148,43.945c-.039.192-.066.331-.085.424a13.231,13.231,0,0,0,.012,2.716c.444,2.9,1.94,5.691,3.375,8.386A55.512,55.512,0,0,0,8.736,59.4c5.524,3.581,12.652,3.245,18.989,3.528,2.965.133,5.931.275,8.9.259l.008,0a32.413,32.413,0,0,1,3.848-5.606c-1.492-1.223-1.82-2.675-.064-4.821,4.7-5.749,6.653-9.513,4.132-14s.42-4.037,1.474-10.857c.614-3.972,2.611-15.962-4.974-21.707" transform="translate(0 0)" fill="#181709"/>
          <path id="Trazado_143572" data-name="Trazado 143572" d="M36.894,65.242a30.012,30.012,0,0,1,3.069-4.634q-.332-.048-.668-.118c-.395-.08-.79-.181-1.186-.295q-.474-.137-.942-.3a31.559,31.559,0,0,1-5.659-2.7l-6.574-.765-.752-.088L12.631,54.992a7.676,7.676,0,0,1-2.084,2.555c-.143.127-.295.259-.455.39a20.038,20.038,0,0,1-2.114,1.524c-.218.139-.442.278-.68.416-.1.06-.213.121-.319.182.67.482,1.341.962,2.019,1.4,5.524,3.581,12.652,3.245,18.988,3.528,2.734.122,5.468.253,8.2.26.235,0,.469,0,.7-.006" transform="translate(-0.262 -2.062)" fill="#fff"/>
          <path id="Trazado_143573" data-name="Trazado 143573" d="M15.279,64.039c-1.454-2.189-2.985-4.326-4.61-6.391-.143.127-.295.258-.455.39,1.473,1.876,2.865,3.812,4.2,5.79.287.076.577.145.868.211" transform="translate(-0.383 -2.162)" fill="#e2cec3"/>
          <path id="Trazado_143574" data-name="Trazado 143574" d="M24.958,57.252a.3.3,0,0,0,0-.6.3.3,0,0,0,0,.6" transform="translate(-0.925 -2.125)" fill="#e2cec3"/>
          <path id="Trazado_143575" data-name="Trazado 143575" d="M25.242,57.033c1.58,2.624,3.037,5.316,4.413,8.049l.7.029q-2.207-4.406-4.754-8.633l-.752-.088c.052.086.106.172.155.258.08.127.157.257.233.384" transform="translate(-0.932 -2.115)" fill="#e2cec3"/>
          <path id="Trazado_143576" data-name="Trazado 143576" d="M40.1,35.459,37.821,47.935s1.707,1.6,6.072.38L40.758,35.467Z" transform="translate(-1.418 -1.33)" fill="#fff"/>
          <path id="Trazado_143577" data-name="Trazado 143577" d="M42.007,27.884a2.956,2.956,0,0,1,2.43,2.8c.383,2.615-.95,6.971-3.593,6.426s1.163-9.228,1.163-9.228" transform="translate(-1.497 -1.046)" fill="#722324"/>
          <line id="Línea_387" data-name="Línea 387" y2="0.002" transform="translate(33.188 47.104)" fill="#c9614d"/>
          <path id="Trazado_143578" data-name="Trazado 143578" d="M23.128,63.566a18.428,18.428,0,0,0,4.247.749l.471.018c5.31.045,6.127-3.5,6.127-3.5a18.366,18.366,0,0,1-.752-4.032c-.041-.531-.064-1.077-.067-1.641A44.353,44.353,0,0,1,33.465,50c.048-.455.1-.928.164-1.415l.007-.058C26.912,46.9,21.419,43.879,17.677,38.89l-1.007-.607-.679-.412-.127.392.121,1.252c.591,5.886-.762,10.751-4.042,16.156a21.3,21.3,0,0,0,11.185,7.9" transform="translate(-0.448 -1.42)" fill="#c9614d"/>
          <path id="Trazado_143579" data-name="Trazado 143579" d="M14.484,63.74c.327.086.658.162.99.234a80.767,80.767,0,0,1-4.45-9c-.186-.421-.8-.057-.619.362a88.3,88.3,0,0,0,4.078,8.4" transform="translate(-0.389 -2.055)" fill="#110e0a"/>
          <path id="Trazado_143580" data-name="Trazado 143580" d="M36.477,65.3c.243,0,.485.014.728.015a29.726,29.726,0,0,0-2.22-8.159c-.162-.426-.854-.242-.69.191A29.184,29.184,0,0,1,36.477,65.3" transform="translate(-1.285 -2.134)" fill="#110e0a"/>
          <path id="Trazado_143581" data-name="Trazado 143581" d="M22.716,44.334c1.4,3.222,4.673,8.922,10.842,11.073a44.579,44.579,0,0,1,.311-5.165c.049-.454.1-.928.165-1.414-.133.014-.269.025-.405.033-3.669.222-7.644-1.69-10.912-4.527" transform="translate(-0.852 -1.663)" fill="#181709"/>
          <path id="Trazado_143582" data-name="Trazado 143582" d="M7.7,26.969c-.251,3.648,2.529,8.326,7.292,8.785l.025,0h0l.1.011c.064.216.139.427.218.644.032.093.068.189.1.282a.062.062,0,0,0,.012.026c2.545,6.4,11.125,10.652,15.89,11.109a10.949,10.949,0,0,0,3.247-.2c5.137-.752,6.554-7.526,6.119-12.808a20.069,20.069,0,0,0-.3-2.181l-.029-.141s2.2-7.2,2.814-10.358c1.192-6.13-1.924-12.656-15.4-14.823s-17.3,6.026-18.562,10.426c-.212.732-.367,5.175.326,5.941A3.624,3.624,0,0,0,7.7,26.969" transform="translate(-0.288 -0.261)" fill="#c9614d"/>
          <path id="Trazado_143583" data-name="Trazado 143583" d="M39.315,30.433c-.137.892-.623,1.559-1.087,1.488s-.73-.852-.593-1.745.623-1.559,1.087-1.488.73.852.593,1.745" transform="translate(-1.41 -1.076)" fill="#181709"/>
          <path id="Trazado_143584" data-name="Trazado 143584" d="M36.853,29.427A.239.239,0,0,1,36.827,29c.1-.056,2.351-1.355,4.159.122a.239.239,0,0,1-.3.371c-1.551-1.27-3.593-.092-3.613-.081a.237.237,0,0,1-.217.013" transform="translate(-1.377 -1.066)" fill="#181709"/>
          <path id="Trazado_143585" data-name="Trazado 143585" d="M31.21,29.335c-.137.892-.623,1.559-1.087,1.488s-.73-.852-.593-1.745.624-1.559,1.088-1.488.729.852.592,1.745" transform="translate(-1.106 -1.034)" fill="#181709"/>
          <path id="Trazado_143586" data-name="Trazado 143586" d="M28.327,28.6a.239.239,0,0,1-.079-.419c.087-.067,2.16-1.642,4.14-.4a.239.239,0,0,1-.253.405c-1.7-1.064-3.576.363-3.594.377a.243.243,0,0,1-.214.04" transform="translate(-1.056 -1.024)" fill="#181709"/>
          <path id="Trazado_143587" data-name="Trazado 143587" d="M30.629,36.833s.007,4.282,3.582,4.689a3.692,3.692,0,0,0,4.146-3.092Z" transform="translate(-1.149 -1.381)" fill="#fff"/>
          <path id="Trazado_143588" data-name="Trazado 143588" d="M33.471,43.291a1.925,1.925,0,0,1-1.058-.719.324.324,0,0,1,.537-.361,1.31,1.31,0,0,0,1.395.449.324.324,0,0,1,.146.63,2.1,2.1,0,0,1-1.02,0" transform="translate(-1.214 -1.578)" fill="#722324"/>
          <path id="Trazado_143589" data-name="Trazado 143589" d="M9.563,23.648a7.931,7.931,0,0,1,1.09.2A8.059,8.059,0,0,1,15.276,27.4c.192-1.239,1.519-6.924,9.821-7.859.118-.013.246-.025.379-.036a7.079,7.079,0,0,0,.914-3.562c-.827-3.375,15.422-1.661,15.968,3.519.228,2.17.35,3.584.416,4.5v0a8.919,8.919,0,0,1,.058,1.685s1.434,1.494,1.554-5.64a9.687,9.687,0,0,0-2.409-6.364C38.734,9.7,32.577,6.877,25.768,6,15.687,4.714,8.341,15.306,7.859,19.172s1.7,4.477,1.7,4.477" transform="translate(-0.292 -0.221)" fill="#181709"/>
          <g id="Grupo_162298" data-name="Grupo 162298" transform="translate(37.718 32.381)" opacity="0.5">
            <g id="Grupo_162297" data-name="Grupo 162297" transform="translate(0)">
              <g id="Grupo_162296" data-name="Grupo 162296" clip-path="url(#clip-path-3)">
                <path id="Trazado_143590" data-name="Trazado 143590" d="M39.188,34.586c-.027.543,1.134,1.054,2.7,1.237a20.133,20.133,0,0,0-.3-2.181c-1.37.08-2.375.45-2.4.944" transform="translate(-39.188 -33.642)" fill="#722324"/>
              </g>
            </g>
          </g>
          <path id="Trazado_143591" data-name="Trazado 143591" d="M35.709,35.924a.424.424,0,0,0,.228-.04l1.933-.961a.413.413,0,0,0,.051-.711,5.963,5.963,0,0,1-2.5-4.379.414.414,0,0,0-.819.121,6.9,6.9,0,0,0,2.3,4.525l-1.337.663a.414.414,0,0,0,.141.783" transform="translate(-1.298 -1.106)" fill="#722324"/>
          <path id="Trazado_143592" data-name="Trazado 143592" d="M31.8,25.516a1.006,1.006,0,0,0,1.486-1.3,2.923,2.923,0,0,0-1.628-1.242,7.3,7.3,0,0,0-6.422.952s3.872.129,5.607.992a5.706,5.706,0,0,1,.956.6" transform="translate(-0.946 -0.848)" fill="#181709"/>
          <path id="Trazado_143593" data-name="Trazado 143593" d="M38.4,26.279a1.006,1.006,0,0,1-1.1-1.638,2.916,2.916,0,0,1,1.891-.783c3.784-.262,4.736,2.225,4.736,2.225a13.354,13.354,0,0,0-4.449-.137,5.571,5.571,0,0,0-1.077.333" transform="translate(-1.387 -0.894)" fill="#181709"/>
          <g id="Grupo_162301" data-name="Grupo 162301" transform="translate(22.405 31.508)" opacity="0.5">
            <g id="Grupo_162300" data-name="Grupo 162300">
              <g id="Grupo_162299" data-name="Grupo 162299" clip-path="url(#clip-path-4)">
                <path id="Trazado_143594" data-name="Trazado 143594" d="M30.161,34.044c-.031.619-1.6,1.042-3.5.945s-3.416-.676-3.384-1.295,1.6-1.041,3.5-.945,3.416.676,3.384,1.295" transform="translate(-23.278 -32.735)" fill="#722324"/>
              </g>
            </g>
          </g>
          <path id="Trazado_143595" data-name="Trazado 143595" d="M15.276,36.82l.025,0h0l.1.011c.062.215.137.427.216.644.034.093.069.189.1.282a.16.16,0,0,0,.013.026,4.4,4.4,0,0,0,1.892-.6,3.486,3.486,0,0,0,1.044-.987.494.494,0,0,0-.809-.566,2.656,2.656,0,0,1-1.245.947,3.563,3.563,0,0,1-.878.209,4.248,4.248,0,0,1-.466.034" transform="translate(-0.573 -1.328)" fill="#722324"/>
          <path id="Trazado_143596" data-name="Trazado 143596" d="M15.748,33.693a.493.493,0,0,1-.376-.421c-.422-3.477-4.414-5.244-4.453-5.261a.493.493,0,0,1,.39-.907c.186.08,4.553,2,5.043,6.048a.492.492,0,0,1-.43.55.514.514,0,0,1-.172-.01" transform="translate(-0.398 -1.015)" fill="#722324"/>
          <path id="Trazado_143597" data-name="Trazado 143597" d="M11.622,31.575a.48.48,0,0,1-.172-.078.493.493,0,0,1-.116-.688,3.387,3.387,0,0,1,3.073-1.265.493.493,0,0,1-.108.981,2.4,2.4,0,0,0-2.161.856.494.494,0,0,1-.516.194" transform="translate(-0.422 -1.107)" fill="#722324"/>
          <path id="Trazado_143598" data-name="Trazado 143598" d="M11.889,43.176c2.688,1.986,5.432,3.033,8.4.43a25.228,25.228,0,0,0-2.1-12c-2.365-4.636,1.763-10.352,1.763-10.352-2.63,1.089-5.543,1.058-7.106,4.135,2.608,3.01.98,11.184-.954,17.785" transform="translate(-0.446 -0.797)" fill="#181709"/>
          <path id="Trazado_143599" data-name="Trazado 143599" d="M12.453,33.979l-4.385,11.9s1.407,1.865,5.917,1.416L13.1,34.1Z" transform="translate(-0.303 -1.274)" fill="#fff"/>
        </g>
      </g>
    </g>
  </g>
</svg>
