<svg id="Grupo_83568" data-name="Grupo 83568" xmlns="http://www.w3.org/2000/svg" width="59.765" height="93.531" viewBox="0 0 59.765 93.531">
  <path id="Trazado_117337" data-name="Trazado 117337" d="M1449.361,1043.16c1.108,0,2.18-1.34,3.537-3.037l.4-.5a.382.382,0,0,0,.064-.12.346.346,0,0,0,.006-.323c-3.891-7.974-8.232-16-12-22.9a.688.688,0,0,1,.6-1.018.644.644,0,0,1,.1.008c1.256.192,2.476.351,3.63.47h0c.3,0,.813-.735,1.057-1.088.125-.179.239-.343.341-.469.889-1.1,1.668-2.119,2.381-3.111.067-.094.051-.119.034-.147a.615.615,0,0,1-.066-.135.806.806,0,0,1-.12-.153c-3.565-6.321-7.5-12.493-11.228-18.221a.688.688,0,0,1,.576-1.063.638.638,0,0,1,.1.008l2.179.329c.172.026.373.07.586.119a5.31,5.31,0,0,0,1.034.165.766.766,0,0,0,.209-.022c.371-.1.917-.887,1.242-1.356.15-.216.288-.414.41-.567l.135-.17c.66-.822,1.341-1.673,1.931-2.549.079-.115.048-.154.014-.2-5.346-9.132-10.022-18.759-14.545-28.068q-1.768-3.638-3.542-7.258a.323.323,0,0,0-.225-.1c-9.768-.052-19.692-.375-29.29-.686l-.133,0a.168.168,0,0,0-.175.088.966.966,0,0,1-.111.144,49.227,49.227,0,0,1-3.387,4.295.316.316,0,0,0,.011.476c4.508,5.371,8.754,11.12,12.859,16.681q1.505,2.04,3.014,4.073a.69.69,0,0,1-.622,1.095l-6.057-.623a.705.705,0,0,1-.152-.033.425.425,0,0,1-.077.013c-.043.05-.151.14-.176.169-1.3,1.53-2.457,3-3.542,4.5a.387.387,0,0,0,.116.324c5.467,6.371,11.171,12.727,16.686,18.873l.126.14a.688.688,0,0,1-.512,1.148c-.022,0-6.251-.6-6.251-.6a.556.556,0,0,1-.1-.018.516.516,0,0,1-.089.02c-.034.025-.081.057-.086.062l-.023.021a56.823,56.823,0,0,0-3.593,4.571.329.329,0,0,0,.052.264c6.569,5.907,13.367,11.789,19.941,17.476q3.851,3.332,7.7,6.671l12.973,11.286a3.376,3.376,0,0,0,2.049,1.037Z" transform="translate(-1394.329 -950.317)" fill="#fff"/>
  <path id="Trazado_117338" data-name="Trazado 117338" d="M1391.227,953.084a1,1,0,0,1,0-1.372,49.288,49.288,0,0,0,3.375-4.279c.014-.02.031-.034.045-.053a.846.846,0,0,1,.792-.427c9.8.318,19.6.638,29.4.691a.961.961,0,0,1,.838.481c5.8,11.793,11.374,23.851,18.009,35.2a.813.813,0,0,1,.016,1.008c-.647.959-1.378,1.862-2.1,2.764-.477.6-1.2,1.935-2.005,2.156a5.99,5.99,0,0,1-2.115-.245q-1.089-.166-2.177-.328c3.9,6,7.744,12.041,11.25,18.258a.72.72,0,0,1,.168.257.779.779,0,0,1-.056.917c-.771,1.072-1.575,2.114-2.4,3.141-.448.554-1.134,1.9-2,1.809-1.223-.127-2.445-.288-3.663-.475,4.134,7.574,8.231,15.177,12.011,22.925a.987.987,0,0,1,.028.843,1.054,1.054,0,0,1-.18.333c-2.5,3.107-3.918,5.248-6.974,2.585q-6.483-5.648-12.972-11.286c-9.229-8.03-18.548-15.974-27.645-24.154a.96.96,0,0,1-.151-1.176,56.012,56.012,0,0,1,3.6-4.579c.02-.029.043-.052.064-.078l.012-.014s.007,0,.01-.008a1.251,1.251,0,0,1,.378-.25h.007a.77.77,0,0,1,.446-.011q3.091.3,6.185.6c-5.654-6.3-11.309-12.6-16.822-19.024a.975.975,0,0,1-.152-1.175c1.131-1.566,2.324-3.073,3.574-4.545a.768.768,0,0,1,.391-.35.752.752,0,0,1,.081-.038l.01,0a.76.76,0,0,1,.517,0q3.028.311,6.056.623C1401.891,966.838,1396.805,959.731,1391.227,953.084Zm21.793,19.458c-.117.215-.259.42-.385.615-.239.371-.476.748-.729,1.112.856.081,1.712.161,2.568.236Q1413.745,973.524,1413.019,972.542Zm-1.949,1.65c.33-.531.736-1.024,1.107-1.528a4.834,4.834,0,0,1,.49-.6q-.581-.789-1.161-1.582c-.28.52-.649,1.019-.916,1.5a14.252,14.252,0,0,1-.977,2.015c.017.022.033.043.049.065C1410.131,974.108,1410.6,974.147,1411.07,974.192Zm-11.1-19.142c-.235.653-.587,1.3-.809,1.876-.256.665-.37,1.591-.7,2.3.362.474.721.951,1.083,1.425.2-.417.451-.815.589-1.088a17.433,17.433,0,0,1,1.187-2.762C1400.868,956.217,1400.42,955.631,1399.966,955.05Zm1.915,2.483a17.374,17.374,0,0,1-.846,2.026c-.234.558-.526,1.089-.757,1.649-.041.1-.07.192-.1.281q.594.781,1.187,1.563c.141-.388.324-.766.475-1.111a18.6,18.6,0,0,1,1.315-2.737C1402.735,958.645,1402.307,958.09,1401.881,957.533Zm1.81,2.381c-.163.5-.423.982-.62,1.429-.291.661-.619,1.295-.864,1.976a5.553,5.553,0,0,0-.167.619c.41.541.823,1.079,1.231,1.62a12.719,12.719,0,0,1,.663-1.393c.352-.722.71-1.62,1.157-2.386Q1404.394,960.844,1403.691,959.914Zm1.976,2.639c-.194.48-.449.946-.65,1.363a16.863,16.863,0,0,0-.831,1.963c-.089.26-.127.455-.2.627q.706.938,1.411,1.879c.326-.74.656-1.479,1.024-2.2a16.724,16.724,0,0,1,.821-1.5Q1406.456,963.617,1405.668,962.553Zm2.072,2.8c-.3.656-.651,1.3-.934,1.915a7.99,7.99,0,0,1-.829,1.883q.682.906,1.361,1.813a10.9,10.9,0,0,1,1.084-2.248,9.571,9.571,0,0,1,.835-1.3Q1408.5,966.386,1407.74,965.354Zm2,2.722c-.212.358-.448.706-.632,1.042-.465.85-.753,1.773-1.18,2.634l1.137,1.514a11.782,11.782,0,0,1,.747-1.369,8.847,8.847,0,0,1,1.281-1.977Zm-12.049-9.863c.207-.684.555-1.376.759-1.892a9.535,9.535,0,0,1,.939-2q-.766-.974-1.539-1.94c-.172.527-.428,1.043-.636,1.516a17.681,17.681,0,0,0-.7,1.85c-.078.25-.112.483-.172.7l1.091,1.423C1397.522,957.989,1397.606,958.1,1397.692,958.214Zm-1.647-8.038a13.835,13.835,0,0,1-.578,2.042,8.343,8.343,0,0,1-.81,2.063c.325.415.654.826.975,1.244.151-.467.378-.926.53-1.293a14.163,14.163,0,0,1,1.181-2.481C1396.915,951.221,1396.478,950.7,1396.045,950.176Zm-2.922,2.221a.392.392,0,0,1,.131.109c.327.4.643.813.964,1.219.149-.58.451-1.165.633-1.677.275-.77.494-1.568.829-2.314-.066-.079-.131-.158-.2-.237-.53.715-1.07,1.421-1.631,2.117A5.418,5.418,0,0,1,1393.123,952.4Zm32.42-.176q-.764-1.54-1.522-3.082c.1.2-9.707.28-10.879.253q-7.8-.179-15.6-.439c6.957,8.441,13.3,17.465,19.83,26.223a.975.975,0,0,1-.837,1.46c-4.469-.363-8.931-.83-13.392-1.293,7.129,8.249,14.443,16.344,21.748,24.437.5.555.225,1.773-.686,1.656-4.743-.6-9.509-1.063-14.27-1.516,12.127,10.856,24.477,21.474,36.77,32.144-3.445-6.813-7.073-13.538-10.735-20.239l0,0q-1.571-2.876-3.141-5.75a.981.981,0,0,1,1.1-1.425c3.355.518,6.7,1.091,10.042,1.675-4.669-8.108-9.869-15.941-14.973-23.774a.976.976,0,0,1,.838-1.46c3.747.391,7.48.912,11.2,1.494C1435.406,972.732,1430.57,962.372,1425.543,952.221Zm-23.979,25.773c-.368.931-.7,1.894-1.086,2.816.345.4.693.79,1.038,1.186a11.046,11.046,0,0,1,1.639-3.685q-.608-.7-1.216-1.4A8.335,8.335,0,0,1,1401.565,977.994Zm2.76,5.057a16.505,16.505,0,0,1,.951-2.3c-.591-.676-1.176-1.357-1.766-2.033-.281,1.375-1.109,2.644-1.307,4.059.509.58,1.015,1.162,1.526,1.74C1403.891,984,1404.149,983.481,1404.325,983.051Zm2.77,2.03a8.446,8.446,0,0,1-.738,2.4c.363.409.73.817,1.094,1.226a13.043,13.043,0,0,1,.556-1.547,24.138,24.138,0,0,1,.978-2.207q-.76-.859-1.521-1.717A12.234,12.234,0,0,1,1407.095,985.081Zm4.588,8.372c.267-.692.55-1.378.792-2.081.2-.572.332-1.249.592-1.83q-.7-.779-1.4-1.558a13.864,13.864,0,0,1-.574,1.742,6.682,6.682,0,0,1-.925,2.032Q1410.927,992.6,1411.683,993.452Zm8.437,3.934c-.117.312-.276.618-.371.871a4.9,4.9,0,0,1-.272.682c.761.083,1.521.176,2.283.266Zm-.473-.523q-.949-1.053-1.9-2.106c-.182.706-.569,1.451-.763,2.058-.17.538-.279,1.213-.486,1.809q1.137.117,2.273.24A5.469,5.469,0,0,1,1419.647,996.863Zm-3.361-.614a6.2,6.2,0,0,1,.957-2.052q-.782-.87-1.562-1.741a12.035,12.035,0,0,1-.482,1.247c-.345.846-.633,1.739-.987,2.586.5.56,1,1.124,1.5,1.684C1415.866,997.357,1416.122,996.735,1416.286,996.249Zm-2.183-2.2a23.014,23.014,0,0,1,.924-2.325q-.662-.738-1.323-1.476c-.1.47-.271.937-.4,1.348a18.574,18.574,0,0,1-1,2.552c.414.463.826.929,1.24,1.391A11.874,11.874,0,0,1,1414.1,994.051Zm-3.787-4.266c.321-.739.584-1.528.958-2.249-.568-.636-1.13-1.277-1.7-1.914-.117.373-.272.738-.412,1.091a15.778,15.778,0,0,0-.964,2.836q.777.874,1.558,1.746A6.61,6.61,0,0,1,1410.315,989.785Zm-1.632,16.6c.472-1.233.964-2.461,1.463-3.682-.593-.53-1.191-1.056-1.783-1.586a11.48,11.48,0,0,1-.534,2.009,19.767,19.767,0,0,1-.592,1.99Q1407.959,1005.751,1408.684,1006.384Zm4.376,3.83a22.157,22.157,0,0,0,.933-2.118c.163-.473.31-1.014.524-1.507-.553-.49-1.1-.983-1.656-1.473-.216.677-.524,1.363-.739,1.971a9.556,9.556,0,0,1-.683,1.713Q1412.249,1009.509,1413.06,1010.215Zm2.14,1.866a19.462,19.462,0,0,0,1.05-2.179c.166-.422.3-.9.493-1.333-.551-.485-1.094-.977-1.644-1.462-.117.523-.3,1.043-.449,1.509a8.552,8.552,0,0,1-.945,2.161Q1414.452,1011.429,1415.2,1012.08Zm2.217,1.933c.272-.73.54-1.461.839-2.181a8.718,8.718,0,0,1,.65-1.371c-.545-.478-1.092-.951-1.637-1.429-.131.56-.337,1.12-.5,1.62a6.3,6.3,0,0,1-.969,1.954Zm4.244,3.7c.217-.5.47-1,.687-1.494a12.418,12.418,0,0,1,.939-1.929l-1.469-1.285c-.134.433-.327.857-.464,1.217a10.4,10.4,0,0,1-1.037,2.319Zm21.642,18.839a16.459,16.459,0,0,1,.751-1.666c.3-.581.515-1.252.832-1.839q-.84-.729-1.681-1.457a13.06,13.06,0,0,1-.624,1.372c-.307.636-.551,1.479-.946,2.138Zm2.436.121a9.043,9.043,0,0,1,1.047-1.978l-1.365-1.184a8.482,8.482,0,0,1-.44,1.128c-.358.813-.769,1.6-1.082,2.431l1.179,1.026C1445.258,1037.585,1445.557,1037.075,1445.739,1036.675Zm-4.114-3.483a22.855,22.855,0,0,1,1.038-2.072q-.853-.739-1.706-1.479a13.8,13.8,0,0,1-.688,1.588,20.122,20.122,0,0,1-.849,1.944l1.527,1.328C1441.134,1034.041,1441.416,1033.6,1441.624,1033.192Zm-2.189-2.04a14.086,14.086,0,0,1,.959-2q-.783-.68-1.565-1.358a15.292,15.292,0,0,1-.6,1.532,18.887,18.887,0,0,1-.863,2.059l1.366,1.189C1438.94,1032.087,1439.212,1031.613,1439.436,1031.152Zm-2.054-1.485c.339-.728.635-1.519,1.031-2.234q-.831-.719-1.661-1.439a13.2,13.2,0,0,1-.622,1.372c-.28.6-.55,1.2-.771,1.82-.048.135-.078.252-.107.362l1.547,1.345C1436.966,1030.474,1437.194,1030.068,1437.381,1029.667Zm-2.324-1.72a19.7,19.7,0,0,1,1.126-2.445l-1.637-1.419a129.751,129.751,0,0,1-1.663,3.4q.849.738,1.7,1.476C1434.719,1028.6,1434.929,1028.235,1435.058,1027.947Zm-1.888-2.381c.314-.579.587-1.265.944-1.857q-.853-.74-1.707-1.479c-.141.352-.318.7-.466,1.015a15.2,15.2,0,0,1-1.148,2.426l1.62,1.408A7.132,7.132,0,0,1,1433.17,1025.566Zm-2.074-1.97c.295-.562.523-1.207.8-1.813l-1.458-1.264a10,10,0,0,1-.478,1.2,18.526,18.526,0,0,1-1.034,2.319l1.351,1.176A10.263,10.263,0,0,1,1431.1,1023.6Zm-2.016-1.57c.3-.623.535-1.312.854-1.941l-1.488-1.29c-.108.339-.261.672-.4,1-.354.833-.666,1.734-1.084,2.544l1.378,1.2C1428.54,1023.01,1428.852,1022.5,1429.079,1022.025Zm-1.939-1.95c.245-.544.467-1.182.781-1.735-.544-.472-1.084-.948-1.628-1.421-.174.594-.477,1.179-.694,1.719-.251.629-.447,1.282-.676,1.921l1.477,1.289A13.6,13.6,0,0,1,1427.14,1020.075Zm-2.308-1.649a10.4,10.4,0,0,1,.882-2.013q-1.025-.893-2.047-1.79a13.37,13.37,0,0,1-.542,1.555,22.094,22.094,0,0,1-.848,2.072q1,.868,1.992,1.737C1424.434,1019.46,1424.636,1018.94,1424.832,1018.426Zm-4.154-4.388c.181-.455.327-1.035.547-1.549-.583-.511-1.169-1.02-1.75-1.531-.153.5-.4,1-.569,1.442-.285.729-.547,1.468-.806,2.207l1.647,1.437C1420,1015.36,1420.424,1014.675,1420.678,1014.038Zm-9.71-6.022c.277-.558.471-1.156.693-1.737a10.039,10.039,0,0,1,.7-1.609q-.812-.719-1.621-1.44a32.009,32.009,0,0,1-1.439,3.7q.766.671,1.531,1.344C1410.877,1008.186,1410.924,1008.1,1410.968,1008.016Zm25.6.86a11.436,11.436,0,0,1,.577-1.2c.08-.152.158-.332.244-.511q-.963-.159-1.928-.314Zm4.181.675a13.925,13.925,0,0,1,1.063-1.642c-.476-.082-.952-.167-1.429-.248a8.532,8.532,0,0,1-.767,1.61,11.184,11.184,0,0,1-.717,1.419c.371.057.744.113,1.117.162A7.685,7.685,0,0,1,1440.75,1009.551Zm-7.3-24.731c.1-.421.174-.888.288-1.334-.656-.083-1.315-.161-1.974-.238l1.485,2.274C1433.315,985.27,1433.4,985.027,1433.449,984.82Zm7.727-.264c-.664-.105-1.327-.21-1.992-.311a13.3,13.3,0,0,1-.515,1.756c-.121.36-.185.795-.294,1.2l.582.088C1439.724,986.408,1440.475,985.5,1441.176,984.556Zm-3.575,2.527a9.655,9.655,0,0,1,.337-.974,13.377,13.377,0,0,1,.861-1.921q-.938-.141-1.879-.274c-.09.593-.208,1.184-.333,1.77a8.132,8.132,0,0,1-.272,1.2Zm-2.162-.328c.088-.44.326-.914.417-1.272a8.2,8.2,0,0,1,.537-1.646c-.635-.089-1.272-.17-1.907-.253a10.188,10.188,0,0,1-.176,1.192,4.571,4.571,0,0,1-.475,1.645l.066.1C1434.413,986.6,1434.926,986.679,1435.439,986.755Zm7.046,23.626c.564-.676,1.1-1.371,1.636-2.073l-1.376-.239c-.3.585-.758,1.13-1.093,1.663-.2.312-.378.815-.613,1.247.209.026.417.056.625.08C1442.53,1011.159,1441.888,1011.1,1442.484,1010.381Zm-4.385.173a7.628,7.628,0,0,1,.81-1.7,8.232,8.232,0,0,1,.734-1.324c-.479-.081-.96-.156-1.44-.235-.079.249-.2.5-.274.709a7.109,7.109,0,0,1-.765,1.615.436.436,0,0,1-.125.117c.127.234.254.467.382.7C1437.647,1010.482,1437.873,1010.515,1438.1,1010.554Zm10.389,25.62-1.165-1.01c-.225.554-.611,1.124-.812,1.571-.261.581-.523,1.158-.752,1.752-.015.04-.03.075-.045.113C1446.812,1039.195,1447.6,1037.573,1448.488,1036.174Zm-43.588-33.119q.489.435.98.87c.2.18.409.358.614.538.139-.4.323-.785.446-1.144a25.911,25.911,0,0,1,.9-2.669c-.225-.2-.452-.4-.677-.6-.525.6-1.033,1.221-1.506,1.869A13.138,13.138,0,0,0,1404.9,1003.055Zm.788-16.323c.115-.5.339-1,.483-1.468a22.638,22.638,0,0,1,.828-2.551c-.419-.476-.842-.949-1.26-1.425a9.953,9.953,0,0,1-.564,1.617c-.215.568-.423,1.134-.6,1.715-.071.233-.108.462-.159.683l.158.18C1404.944,985.9,1405.318,986.314,1405.689,986.732Zm-6.323-7.189c.2.227.4.452.6.679a11.959,11.959,0,0,1,.595-1.545c.251-.591.483-1.188.723-1.784a5.242,5.242,0,0,0,.172-.544c-.211-.244-.423-.484-.632-.728-.667.792-1.316,1.6-1.932,2.432C1398.084,979.107,1398.442,978.475,1399.366,979.543Zm37.893.188a244.253,244.253,0,0,0-12.362-25.1c-.028-.051-.119-.016-.1.041a215.921,215.921,0,0,0,12.237,25.156C1437.1,979.941,1437.312,979.859,1437.259,979.73Zm-12.638-25.967a1.65,1.65,0,0,0-.241-.948,1.031,1.031,0,0,0-.506-.619.108.108,0,0,0-.16.091c-.01.469.281,1.436.814,1.529A.077.077,0,0,0,1424.621,953.763Zm-4.011,39.243a74.224,74.224,0,0,0-10.742-12.817c-.077-.078-.187.036-.118.117,3.617,4.236,7.147,8.536,10.74,12.791C1420.548,993.164,1420.656,993.078,1420.611,993.006Zm-11.258-13.389c-.151-.513-.525-1.137-1.091-1.23a.108.108,0,0,0-.131.131c.087.532.661.923,1.088,1.2A.092.092,0,0,0,1409.352,979.617Zm28,42.105a115.529,115.529,0,0,0-13.947-12.305c-.135-.1-.284.112-.175.226,4.274,4.443,9.3,8.223,13.981,12.22C1437.31,1021.944,1437.444,1021.815,1437.355,1021.722Zm-14.929-12.81a.1.1,0,0,0,.1-.1c.048-.521-.717-.992-1.16-1.08-.076-.015-.174.052-.14.14C1421.385,1008.283,1421.93,1008.966,1422.426,1008.912Z" transform="translate(-1390.953 -946.953)"/>
</svg>
